G04 #@! TF.GenerationSoftware,KiCad,Pcbnew,9.0.0+dfsg-1*
G04 #@! TF.CreationDate,2025-03-10T08:37:07+08:00*
G04 #@! TF.ProjectId,gp,67702e6b-6963-4616-945f-706362585858,d*
G04 #@! TF.SameCoordinates,Original*
G04 #@! TF.FileFunction,Legend,Bot*
G04 #@! TF.FilePolarity,Positive*
%FSLAX46Y46*%
G04 Gerber Fmt 4.6, Leading zero omitted, Abs format (unit mm)*
G04 Created by KiCad (PCBNEW 9.0.0+dfsg-1) date 2025-03-10 08:37:07*
%MOMM*%
%LPD*%
G01*
G04 APERTURE LIST*
%ADD10C,0.150000*%
%ADD11C,0.120000*%
G04 APERTURE END LIST*
D10*
X200094762Y-92018247D02*
X199980476Y-92056342D01*
X199980476Y-92056342D02*
X199942381Y-92094438D01*
X199942381Y-92094438D02*
X199904285Y-92170628D01*
X199904285Y-92170628D02*
X199904285Y-92284914D01*
X199904285Y-92284914D02*
X199942381Y-92361104D01*
X199942381Y-92361104D02*
X199980476Y-92399200D01*
X199980476Y-92399200D02*
X200056666Y-92437295D01*
X200056666Y-92437295D02*
X200361428Y-92437295D01*
X200361428Y-92437295D02*
X200361428Y-91637295D01*
X200361428Y-91637295D02*
X200094762Y-91637295D01*
X200094762Y-91637295D02*
X200018571Y-91675390D01*
X200018571Y-91675390D02*
X199980476Y-91713485D01*
X199980476Y-91713485D02*
X199942381Y-91789676D01*
X199942381Y-91789676D02*
X199942381Y-91865866D01*
X199942381Y-91865866D02*
X199980476Y-91942057D01*
X199980476Y-91942057D02*
X200018571Y-91980152D01*
X200018571Y-91980152D02*
X200094762Y-92018247D01*
X200094762Y-92018247D02*
X200361428Y-92018247D01*
X199142381Y-92437295D02*
X199599524Y-92437295D01*
X199370952Y-92437295D02*
X199370952Y-91637295D01*
X199370952Y-91637295D02*
X199447143Y-91751580D01*
X199447143Y-91751580D02*
X199523333Y-91827771D01*
X199523333Y-91827771D02*
X199599524Y-91865866D01*
X198875714Y-91637295D02*
X198380476Y-91637295D01*
X198380476Y-91637295D02*
X198647142Y-91942057D01*
X198647142Y-91942057D02*
X198532857Y-91942057D01*
X198532857Y-91942057D02*
X198456666Y-91980152D01*
X198456666Y-91980152D02*
X198418571Y-92018247D01*
X198418571Y-92018247D02*
X198380476Y-92094438D01*
X198380476Y-92094438D02*
X198380476Y-92284914D01*
X198380476Y-92284914D02*
X198418571Y-92361104D01*
X198418571Y-92361104D02*
X198456666Y-92399200D01*
X198456666Y-92399200D02*
X198532857Y-92437295D01*
X198532857Y-92437295D02*
X198761428Y-92437295D01*
X198761428Y-92437295D02*
X198837619Y-92399200D01*
X198837619Y-92399200D02*
X198875714Y-92361104D01*
X197554762Y-92018247D02*
X197440476Y-92056342D01*
X197440476Y-92056342D02*
X197402381Y-92094438D01*
X197402381Y-92094438D02*
X197364285Y-92170628D01*
X197364285Y-92170628D02*
X197364285Y-92284914D01*
X197364285Y-92284914D02*
X197402381Y-92361104D01*
X197402381Y-92361104D02*
X197440476Y-92399200D01*
X197440476Y-92399200D02*
X197516666Y-92437295D01*
X197516666Y-92437295D02*
X197821428Y-92437295D01*
X197821428Y-92437295D02*
X197821428Y-91637295D01*
X197821428Y-91637295D02*
X197554762Y-91637295D01*
X197554762Y-91637295D02*
X197478571Y-91675390D01*
X197478571Y-91675390D02*
X197440476Y-91713485D01*
X197440476Y-91713485D02*
X197402381Y-91789676D01*
X197402381Y-91789676D02*
X197402381Y-91865866D01*
X197402381Y-91865866D02*
X197440476Y-91942057D01*
X197440476Y-91942057D02*
X197478571Y-91980152D01*
X197478571Y-91980152D02*
X197554762Y-92018247D01*
X197554762Y-92018247D02*
X197821428Y-92018247D01*
X196602381Y-92437295D02*
X197059524Y-92437295D01*
X196830952Y-92437295D02*
X196830952Y-91637295D01*
X196830952Y-91637295D02*
X196907143Y-91751580D01*
X196907143Y-91751580D02*
X196983333Y-91827771D01*
X196983333Y-91827771D02*
X197059524Y-91865866D01*
X195916666Y-91903961D02*
X195916666Y-92437295D01*
X196107142Y-91599200D02*
X196297619Y-92170628D01*
X196297619Y-92170628D02*
X195802380Y-92170628D01*
X195014762Y-92018247D02*
X194900476Y-92056342D01*
X194900476Y-92056342D02*
X194862381Y-92094438D01*
X194862381Y-92094438D02*
X194824285Y-92170628D01*
X194824285Y-92170628D02*
X194824285Y-92284914D01*
X194824285Y-92284914D02*
X194862381Y-92361104D01*
X194862381Y-92361104D02*
X194900476Y-92399200D01*
X194900476Y-92399200D02*
X194976666Y-92437295D01*
X194976666Y-92437295D02*
X195281428Y-92437295D01*
X195281428Y-92437295D02*
X195281428Y-91637295D01*
X195281428Y-91637295D02*
X195014762Y-91637295D01*
X195014762Y-91637295D02*
X194938571Y-91675390D01*
X194938571Y-91675390D02*
X194900476Y-91713485D01*
X194900476Y-91713485D02*
X194862381Y-91789676D01*
X194862381Y-91789676D02*
X194862381Y-91865866D01*
X194862381Y-91865866D02*
X194900476Y-91942057D01*
X194900476Y-91942057D02*
X194938571Y-91980152D01*
X194938571Y-91980152D02*
X195014762Y-92018247D01*
X195014762Y-92018247D02*
X195281428Y-92018247D01*
X194062381Y-92437295D02*
X194519524Y-92437295D01*
X194290952Y-92437295D02*
X194290952Y-91637295D01*
X194290952Y-91637295D02*
X194367143Y-91751580D01*
X194367143Y-91751580D02*
X194443333Y-91827771D01*
X194443333Y-91827771D02*
X194519524Y-91865866D01*
X193338571Y-91637295D02*
X193719523Y-91637295D01*
X193719523Y-91637295D02*
X193757619Y-92018247D01*
X193757619Y-92018247D02*
X193719523Y-91980152D01*
X193719523Y-91980152D02*
X193643333Y-91942057D01*
X193643333Y-91942057D02*
X193452857Y-91942057D01*
X193452857Y-91942057D02*
X193376666Y-91980152D01*
X193376666Y-91980152D02*
X193338571Y-92018247D01*
X193338571Y-92018247D02*
X193300476Y-92094438D01*
X193300476Y-92094438D02*
X193300476Y-92284914D01*
X193300476Y-92284914D02*
X193338571Y-92361104D01*
X193338571Y-92361104D02*
X193376666Y-92399200D01*
X193376666Y-92399200D02*
X193452857Y-92437295D01*
X193452857Y-92437295D02*
X193643333Y-92437295D01*
X193643333Y-92437295D02*
X193719523Y-92399200D01*
X193719523Y-92399200D02*
X193757619Y-92361104D01*
X192341428Y-92208723D02*
X191960475Y-92208723D01*
X192417618Y-92437295D02*
X192150951Y-91637295D01*
X192150951Y-91637295D02*
X191884285Y-92437295D01*
X191503333Y-91980152D02*
X191579523Y-91942057D01*
X191579523Y-91942057D02*
X191617618Y-91903961D01*
X191617618Y-91903961D02*
X191655714Y-91827771D01*
X191655714Y-91827771D02*
X191655714Y-91789676D01*
X191655714Y-91789676D02*
X191617618Y-91713485D01*
X191617618Y-91713485D02*
X191579523Y-91675390D01*
X191579523Y-91675390D02*
X191503333Y-91637295D01*
X191503333Y-91637295D02*
X191350952Y-91637295D01*
X191350952Y-91637295D02*
X191274761Y-91675390D01*
X191274761Y-91675390D02*
X191236666Y-91713485D01*
X191236666Y-91713485D02*
X191198571Y-91789676D01*
X191198571Y-91789676D02*
X191198571Y-91827771D01*
X191198571Y-91827771D02*
X191236666Y-91903961D01*
X191236666Y-91903961D02*
X191274761Y-91942057D01*
X191274761Y-91942057D02*
X191350952Y-91980152D01*
X191350952Y-91980152D02*
X191503333Y-91980152D01*
X191503333Y-91980152D02*
X191579523Y-92018247D01*
X191579523Y-92018247D02*
X191617618Y-92056342D01*
X191617618Y-92056342D02*
X191655714Y-92132533D01*
X191655714Y-92132533D02*
X191655714Y-92284914D01*
X191655714Y-92284914D02*
X191617618Y-92361104D01*
X191617618Y-92361104D02*
X191579523Y-92399200D01*
X191579523Y-92399200D02*
X191503333Y-92437295D01*
X191503333Y-92437295D02*
X191350952Y-92437295D01*
X191350952Y-92437295D02*
X191274761Y-92399200D01*
X191274761Y-92399200D02*
X191236666Y-92361104D01*
X191236666Y-92361104D02*
X191198571Y-92284914D01*
X191198571Y-92284914D02*
X191198571Y-92132533D01*
X191198571Y-92132533D02*
X191236666Y-92056342D01*
X191236666Y-92056342D02*
X191274761Y-92018247D01*
X191274761Y-92018247D02*
X191350952Y-91980152D01*
X189801428Y-92208723D02*
X189420475Y-92208723D01*
X189877618Y-92437295D02*
X189610951Y-91637295D01*
X189610951Y-91637295D02*
X189344285Y-92437295D01*
X189039523Y-92437295D02*
X188887142Y-92437295D01*
X188887142Y-92437295D02*
X188810952Y-92399200D01*
X188810952Y-92399200D02*
X188772856Y-92361104D01*
X188772856Y-92361104D02*
X188696666Y-92246819D01*
X188696666Y-92246819D02*
X188658571Y-92094438D01*
X188658571Y-92094438D02*
X188658571Y-91789676D01*
X188658571Y-91789676D02*
X188696666Y-91713485D01*
X188696666Y-91713485D02*
X188734761Y-91675390D01*
X188734761Y-91675390D02*
X188810952Y-91637295D01*
X188810952Y-91637295D02*
X188963333Y-91637295D01*
X188963333Y-91637295D02*
X189039523Y-91675390D01*
X189039523Y-91675390D02*
X189077618Y-91713485D01*
X189077618Y-91713485D02*
X189115714Y-91789676D01*
X189115714Y-91789676D02*
X189115714Y-91980152D01*
X189115714Y-91980152D02*
X189077618Y-92056342D01*
X189077618Y-92056342D02*
X189039523Y-92094438D01*
X189039523Y-92094438D02*
X188963333Y-92132533D01*
X188963333Y-92132533D02*
X188810952Y-92132533D01*
X188810952Y-92132533D02*
X188734761Y-92094438D01*
X188734761Y-92094438D02*
X188696666Y-92056342D01*
X188696666Y-92056342D02*
X188658571Y-91980152D01*
X187642381Y-92208723D02*
X187261428Y-92208723D01*
X187718571Y-92437295D02*
X187451904Y-91637295D01*
X187451904Y-91637295D02*
X187185238Y-92437295D01*
X186499524Y-92437295D02*
X186956667Y-92437295D01*
X186728095Y-92437295D02*
X186728095Y-91637295D01*
X186728095Y-91637295D02*
X186804286Y-91751580D01*
X186804286Y-91751580D02*
X186880476Y-91827771D01*
X186880476Y-91827771D02*
X186956667Y-91865866D01*
X186004285Y-91637295D02*
X185928095Y-91637295D01*
X185928095Y-91637295D02*
X185851904Y-91675390D01*
X185851904Y-91675390D02*
X185813809Y-91713485D01*
X185813809Y-91713485D02*
X185775714Y-91789676D01*
X185775714Y-91789676D02*
X185737619Y-91942057D01*
X185737619Y-91942057D02*
X185737619Y-92132533D01*
X185737619Y-92132533D02*
X185775714Y-92284914D01*
X185775714Y-92284914D02*
X185813809Y-92361104D01*
X185813809Y-92361104D02*
X185851904Y-92399200D01*
X185851904Y-92399200D02*
X185928095Y-92437295D01*
X185928095Y-92437295D02*
X186004285Y-92437295D01*
X186004285Y-92437295D02*
X186080476Y-92399200D01*
X186080476Y-92399200D02*
X186118571Y-92361104D01*
X186118571Y-92361104D02*
X186156666Y-92284914D01*
X186156666Y-92284914D02*
X186194762Y-92132533D01*
X186194762Y-92132533D02*
X186194762Y-91942057D01*
X186194762Y-91942057D02*
X186156666Y-91789676D01*
X186156666Y-91789676D02*
X186118571Y-91713485D01*
X186118571Y-91713485D02*
X186080476Y-91675390D01*
X186080476Y-91675390D02*
X186004285Y-91637295D01*
X185102381Y-92208723D02*
X184721428Y-92208723D01*
X185178571Y-92437295D02*
X184911904Y-91637295D01*
X184911904Y-91637295D02*
X184645238Y-92437295D01*
X183959524Y-92437295D02*
X184416667Y-92437295D01*
X184188095Y-92437295D02*
X184188095Y-91637295D01*
X184188095Y-91637295D02*
X184264286Y-91751580D01*
X184264286Y-91751580D02*
X184340476Y-91827771D01*
X184340476Y-91827771D02*
X184416667Y-91865866D01*
X183197619Y-92437295D02*
X183654762Y-92437295D01*
X183426190Y-92437295D02*
X183426190Y-91637295D01*
X183426190Y-91637295D02*
X183502381Y-91751580D01*
X183502381Y-91751580D02*
X183578571Y-91827771D01*
X183578571Y-91827771D02*
X183654762Y-91865866D01*
X182562381Y-92208723D02*
X182181428Y-92208723D01*
X182638571Y-92437295D02*
X182371904Y-91637295D01*
X182371904Y-91637295D02*
X182105238Y-92437295D01*
X181419524Y-92437295D02*
X181876667Y-92437295D01*
X181648095Y-92437295D02*
X181648095Y-91637295D01*
X181648095Y-91637295D02*
X181724286Y-91751580D01*
X181724286Y-91751580D02*
X181800476Y-91827771D01*
X181800476Y-91827771D02*
X181876667Y-91865866D01*
X181114762Y-91713485D02*
X181076666Y-91675390D01*
X181076666Y-91675390D02*
X181000476Y-91637295D01*
X181000476Y-91637295D02*
X180810000Y-91637295D01*
X180810000Y-91637295D02*
X180733809Y-91675390D01*
X180733809Y-91675390D02*
X180695714Y-91713485D01*
X180695714Y-91713485D02*
X180657619Y-91789676D01*
X180657619Y-91789676D02*
X180657619Y-91865866D01*
X180657619Y-91865866D02*
X180695714Y-91980152D01*
X180695714Y-91980152D02*
X181152857Y-92437295D01*
X181152857Y-92437295D02*
X180657619Y-92437295D01*
X180022381Y-92208723D02*
X179641428Y-92208723D01*
X180098571Y-92437295D02*
X179831904Y-91637295D01*
X179831904Y-91637295D02*
X179565238Y-92437295D01*
X178879524Y-92437295D02*
X179336667Y-92437295D01*
X179108095Y-92437295D02*
X179108095Y-91637295D01*
X179108095Y-91637295D02*
X179184286Y-91751580D01*
X179184286Y-91751580D02*
X179260476Y-91827771D01*
X179260476Y-91827771D02*
X179336667Y-91865866D01*
X178155714Y-91637295D02*
X178536666Y-91637295D01*
X178536666Y-91637295D02*
X178574762Y-92018247D01*
X178574762Y-92018247D02*
X178536666Y-91980152D01*
X178536666Y-91980152D02*
X178460476Y-91942057D01*
X178460476Y-91942057D02*
X178270000Y-91942057D01*
X178270000Y-91942057D02*
X178193809Y-91980152D01*
X178193809Y-91980152D02*
X178155714Y-92018247D01*
X178155714Y-92018247D02*
X178117619Y-92094438D01*
X178117619Y-92094438D02*
X178117619Y-92284914D01*
X178117619Y-92284914D02*
X178155714Y-92361104D01*
X178155714Y-92361104D02*
X178193809Y-92399200D01*
X178193809Y-92399200D02*
X178270000Y-92437295D01*
X178270000Y-92437295D02*
X178460476Y-92437295D01*
X178460476Y-92437295D02*
X178536666Y-92399200D01*
X178536666Y-92399200D02*
X178574762Y-92361104D01*
X176853809Y-92018247D02*
X176739523Y-92056342D01*
X176739523Y-92056342D02*
X176701428Y-92094438D01*
X176701428Y-92094438D02*
X176663332Y-92170628D01*
X176663332Y-92170628D02*
X176663332Y-92284914D01*
X176663332Y-92284914D02*
X176701428Y-92361104D01*
X176701428Y-92361104D02*
X176739523Y-92399200D01*
X176739523Y-92399200D02*
X176815713Y-92437295D01*
X176815713Y-92437295D02*
X177120475Y-92437295D01*
X177120475Y-92437295D02*
X177120475Y-91637295D01*
X177120475Y-91637295D02*
X176853809Y-91637295D01*
X176853809Y-91637295D02*
X176777618Y-91675390D01*
X176777618Y-91675390D02*
X176739523Y-91713485D01*
X176739523Y-91713485D02*
X176701428Y-91789676D01*
X176701428Y-91789676D02*
X176701428Y-91865866D01*
X176701428Y-91865866D02*
X176739523Y-91942057D01*
X176739523Y-91942057D02*
X176777618Y-91980152D01*
X176777618Y-91980152D02*
X176853809Y-92018247D01*
X176853809Y-92018247D02*
X177120475Y-92018247D01*
X176396666Y-91637295D02*
X175901428Y-91637295D01*
X175901428Y-91637295D02*
X176168094Y-91942057D01*
X176168094Y-91942057D02*
X176053809Y-91942057D01*
X176053809Y-91942057D02*
X175977618Y-91980152D01*
X175977618Y-91980152D02*
X175939523Y-92018247D01*
X175939523Y-92018247D02*
X175901428Y-92094438D01*
X175901428Y-92094438D02*
X175901428Y-92284914D01*
X175901428Y-92284914D02*
X175939523Y-92361104D01*
X175939523Y-92361104D02*
X175977618Y-92399200D01*
X175977618Y-92399200D02*
X176053809Y-92437295D01*
X176053809Y-92437295D02*
X176282380Y-92437295D01*
X176282380Y-92437295D02*
X176358571Y-92399200D01*
X176358571Y-92399200D02*
X176396666Y-92361104D01*
X174313809Y-92018247D02*
X174199523Y-92056342D01*
X174199523Y-92056342D02*
X174161428Y-92094438D01*
X174161428Y-92094438D02*
X174123332Y-92170628D01*
X174123332Y-92170628D02*
X174123332Y-92284914D01*
X174123332Y-92284914D02*
X174161428Y-92361104D01*
X174161428Y-92361104D02*
X174199523Y-92399200D01*
X174199523Y-92399200D02*
X174275713Y-92437295D01*
X174275713Y-92437295D02*
X174580475Y-92437295D01*
X174580475Y-92437295D02*
X174580475Y-91637295D01*
X174580475Y-91637295D02*
X174313809Y-91637295D01*
X174313809Y-91637295D02*
X174237618Y-91675390D01*
X174237618Y-91675390D02*
X174199523Y-91713485D01*
X174199523Y-91713485D02*
X174161428Y-91789676D01*
X174161428Y-91789676D02*
X174161428Y-91865866D01*
X174161428Y-91865866D02*
X174199523Y-91942057D01*
X174199523Y-91942057D02*
X174237618Y-91980152D01*
X174237618Y-91980152D02*
X174313809Y-92018247D01*
X174313809Y-92018247D02*
X174580475Y-92018247D01*
X173437618Y-91903961D02*
X173437618Y-92437295D01*
X173628094Y-91599200D02*
X173818571Y-92170628D01*
X173818571Y-92170628D02*
X173323332Y-92170628D01*
X171773809Y-92018247D02*
X171659523Y-92056342D01*
X171659523Y-92056342D02*
X171621428Y-92094438D01*
X171621428Y-92094438D02*
X171583332Y-92170628D01*
X171583332Y-92170628D02*
X171583332Y-92284914D01*
X171583332Y-92284914D02*
X171621428Y-92361104D01*
X171621428Y-92361104D02*
X171659523Y-92399200D01*
X171659523Y-92399200D02*
X171735713Y-92437295D01*
X171735713Y-92437295D02*
X172040475Y-92437295D01*
X172040475Y-92437295D02*
X172040475Y-91637295D01*
X172040475Y-91637295D02*
X171773809Y-91637295D01*
X171773809Y-91637295D02*
X171697618Y-91675390D01*
X171697618Y-91675390D02*
X171659523Y-91713485D01*
X171659523Y-91713485D02*
X171621428Y-91789676D01*
X171621428Y-91789676D02*
X171621428Y-91865866D01*
X171621428Y-91865866D02*
X171659523Y-91942057D01*
X171659523Y-91942057D02*
X171697618Y-91980152D01*
X171697618Y-91980152D02*
X171773809Y-92018247D01*
X171773809Y-92018247D02*
X172040475Y-92018247D01*
X170859523Y-91637295D02*
X171240475Y-91637295D01*
X171240475Y-91637295D02*
X171278571Y-92018247D01*
X171278571Y-92018247D02*
X171240475Y-91980152D01*
X171240475Y-91980152D02*
X171164285Y-91942057D01*
X171164285Y-91942057D02*
X170973809Y-91942057D01*
X170973809Y-91942057D02*
X170897618Y-91980152D01*
X170897618Y-91980152D02*
X170859523Y-92018247D01*
X170859523Y-92018247D02*
X170821428Y-92094438D01*
X170821428Y-92094438D02*
X170821428Y-92284914D01*
X170821428Y-92284914D02*
X170859523Y-92361104D01*
X170859523Y-92361104D02*
X170897618Y-92399200D01*
X170897618Y-92399200D02*
X170973809Y-92437295D01*
X170973809Y-92437295D02*
X171164285Y-92437295D01*
X171164285Y-92437295D02*
X171240475Y-92399200D01*
X171240475Y-92399200D02*
X171278571Y-92361104D01*
X169233809Y-92018247D02*
X169119523Y-92056342D01*
X169119523Y-92056342D02*
X169081428Y-92094438D01*
X169081428Y-92094438D02*
X169043332Y-92170628D01*
X169043332Y-92170628D02*
X169043332Y-92284914D01*
X169043332Y-92284914D02*
X169081428Y-92361104D01*
X169081428Y-92361104D02*
X169119523Y-92399200D01*
X169119523Y-92399200D02*
X169195713Y-92437295D01*
X169195713Y-92437295D02*
X169500475Y-92437295D01*
X169500475Y-92437295D02*
X169500475Y-91637295D01*
X169500475Y-91637295D02*
X169233809Y-91637295D01*
X169233809Y-91637295D02*
X169157618Y-91675390D01*
X169157618Y-91675390D02*
X169119523Y-91713485D01*
X169119523Y-91713485D02*
X169081428Y-91789676D01*
X169081428Y-91789676D02*
X169081428Y-91865866D01*
X169081428Y-91865866D02*
X169119523Y-91942057D01*
X169119523Y-91942057D02*
X169157618Y-91980152D01*
X169157618Y-91980152D02*
X169233809Y-92018247D01*
X169233809Y-92018247D02*
X169500475Y-92018247D01*
X168357618Y-91637295D02*
X168509999Y-91637295D01*
X168509999Y-91637295D02*
X168586190Y-91675390D01*
X168586190Y-91675390D02*
X168624285Y-91713485D01*
X168624285Y-91713485D02*
X168700475Y-91827771D01*
X168700475Y-91827771D02*
X168738571Y-91980152D01*
X168738571Y-91980152D02*
X168738571Y-92284914D01*
X168738571Y-92284914D02*
X168700475Y-92361104D01*
X168700475Y-92361104D02*
X168662380Y-92399200D01*
X168662380Y-92399200D02*
X168586190Y-92437295D01*
X168586190Y-92437295D02*
X168433809Y-92437295D01*
X168433809Y-92437295D02*
X168357618Y-92399200D01*
X168357618Y-92399200D02*
X168319523Y-92361104D01*
X168319523Y-92361104D02*
X168281428Y-92284914D01*
X168281428Y-92284914D02*
X168281428Y-92094438D01*
X168281428Y-92094438D02*
X168319523Y-92018247D01*
X168319523Y-92018247D02*
X168357618Y-91980152D01*
X168357618Y-91980152D02*
X168433809Y-91942057D01*
X168433809Y-91942057D02*
X168586190Y-91942057D01*
X168586190Y-91942057D02*
X168662380Y-91980152D01*
X168662380Y-91980152D02*
X168700475Y-92018247D01*
X168700475Y-92018247D02*
X168738571Y-92094438D01*
X166693809Y-92018247D02*
X166579523Y-92056342D01*
X166579523Y-92056342D02*
X166541428Y-92094438D01*
X166541428Y-92094438D02*
X166503332Y-92170628D01*
X166503332Y-92170628D02*
X166503332Y-92284914D01*
X166503332Y-92284914D02*
X166541428Y-92361104D01*
X166541428Y-92361104D02*
X166579523Y-92399200D01*
X166579523Y-92399200D02*
X166655713Y-92437295D01*
X166655713Y-92437295D02*
X166960475Y-92437295D01*
X166960475Y-92437295D02*
X166960475Y-91637295D01*
X166960475Y-91637295D02*
X166693809Y-91637295D01*
X166693809Y-91637295D02*
X166617618Y-91675390D01*
X166617618Y-91675390D02*
X166579523Y-91713485D01*
X166579523Y-91713485D02*
X166541428Y-91789676D01*
X166541428Y-91789676D02*
X166541428Y-91865866D01*
X166541428Y-91865866D02*
X166579523Y-91942057D01*
X166579523Y-91942057D02*
X166617618Y-91980152D01*
X166617618Y-91980152D02*
X166693809Y-92018247D01*
X166693809Y-92018247D02*
X166960475Y-92018247D01*
X166236666Y-91637295D02*
X165703332Y-91637295D01*
X165703332Y-91637295D02*
X166046190Y-92437295D01*
X164153809Y-92018247D02*
X164039523Y-92056342D01*
X164039523Y-92056342D02*
X164001428Y-92094438D01*
X164001428Y-92094438D02*
X163963332Y-92170628D01*
X163963332Y-92170628D02*
X163963332Y-92284914D01*
X163963332Y-92284914D02*
X164001428Y-92361104D01*
X164001428Y-92361104D02*
X164039523Y-92399200D01*
X164039523Y-92399200D02*
X164115713Y-92437295D01*
X164115713Y-92437295D02*
X164420475Y-92437295D01*
X164420475Y-92437295D02*
X164420475Y-91637295D01*
X164420475Y-91637295D02*
X164153809Y-91637295D01*
X164153809Y-91637295D02*
X164077618Y-91675390D01*
X164077618Y-91675390D02*
X164039523Y-91713485D01*
X164039523Y-91713485D02*
X164001428Y-91789676D01*
X164001428Y-91789676D02*
X164001428Y-91865866D01*
X164001428Y-91865866D02*
X164039523Y-91942057D01*
X164039523Y-91942057D02*
X164077618Y-91980152D01*
X164077618Y-91980152D02*
X164153809Y-92018247D01*
X164153809Y-92018247D02*
X164420475Y-92018247D01*
X163506190Y-91980152D02*
X163582380Y-91942057D01*
X163582380Y-91942057D02*
X163620475Y-91903961D01*
X163620475Y-91903961D02*
X163658571Y-91827771D01*
X163658571Y-91827771D02*
X163658571Y-91789676D01*
X163658571Y-91789676D02*
X163620475Y-91713485D01*
X163620475Y-91713485D02*
X163582380Y-91675390D01*
X163582380Y-91675390D02*
X163506190Y-91637295D01*
X163506190Y-91637295D02*
X163353809Y-91637295D01*
X163353809Y-91637295D02*
X163277618Y-91675390D01*
X163277618Y-91675390D02*
X163239523Y-91713485D01*
X163239523Y-91713485D02*
X163201428Y-91789676D01*
X163201428Y-91789676D02*
X163201428Y-91827771D01*
X163201428Y-91827771D02*
X163239523Y-91903961D01*
X163239523Y-91903961D02*
X163277618Y-91942057D01*
X163277618Y-91942057D02*
X163353809Y-91980152D01*
X163353809Y-91980152D02*
X163506190Y-91980152D01*
X163506190Y-91980152D02*
X163582380Y-92018247D01*
X163582380Y-92018247D02*
X163620475Y-92056342D01*
X163620475Y-92056342D02*
X163658571Y-92132533D01*
X163658571Y-92132533D02*
X163658571Y-92284914D01*
X163658571Y-92284914D02*
X163620475Y-92361104D01*
X163620475Y-92361104D02*
X163582380Y-92399200D01*
X163582380Y-92399200D02*
X163506190Y-92437295D01*
X163506190Y-92437295D02*
X163353809Y-92437295D01*
X163353809Y-92437295D02*
X163277618Y-92399200D01*
X163277618Y-92399200D02*
X163239523Y-92361104D01*
X163239523Y-92361104D02*
X163201428Y-92284914D01*
X163201428Y-92284914D02*
X163201428Y-92132533D01*
X163201428Y-92132533D02*
X163239523Y-92056342D01*
X163239523Y-92056342D02*
X163277618Y-92018247D01*
X163277618Y-92018247D02*
X163353809Y-91980152D01*
X161613809Y-92018247D02*
X161499523Y-92056342D01*
X161499523Y-92056342D02*
X161461428Y-92094438D01*
X161461428Y-92094438D02*
X161423332Y-92170628D01*
X161423332Y-92170628D02*
X161423332Y-92284914D01*
X161423332Y-92284914D02*
X161461428Y-92361104D01*
X161461428Y-92361104D02*
X161499523Y-92399200D01*
X161499523Y-92399200D02*
X161575713Y-92437295D01*
X161575713Y-92437295D02*
X161880475Y-92437295D01*
X161880475Y-92437295D02*
X161880475Y-91637295D01*
X161880475Y-91637295D02*
X161613809Y-91637295D01*
X161613809Y-91637295D02*
X161537618Y-91675390D01*
X161537618Y-91675390D02*
X161499523Y-91713485D01*
X161499523Y-91713485D02*
X161461428Y-91789676D01*
X161461428Y-91789676D02*
X161461428Y-91865866D01*
X161461428Y-91865866D02*
X161499523Y-91942057D01*
X161499523Y-91942057D02*
X161537618Y-91980152D01*
X161537618Y-91980152D02*
X161613809Y-92018247D01*
X161613809Y-92018247D02*
X161880475Y-92018247D01*
X161042380Y-92437295D02*
X160889999Y-92437295D01*
X160889999Y-92437295D02*
X160813809Y-92399200D01*
X160813809Y-92399200D02*
X160775713Y-92361104D01*
X160775713Y-92361104D02*
X160699523Y-92246819D01*
X160699523Y-92246819D02*
X160661428Y-92094438D01*
X160661428Y-92094438D02*
X160661428Y-91789676D01*
X160661428Y-91789676D02*
X160699523Y-91713485D01*
X160699523Y-91713485D02*
X160737618Y-91675390D01*
X160737618Y-91675390D02*
X160813809Y-91637295D01*
X160813809Y-91637295D02*
X160966190Y-91637295D01*
X160966190Y-91637295D02*
X161042380Y-91675390D01*
X161042380Y-91675390D02*
X161080475Y-91713485D01*
X161080475Y-91713485D02*
X161118571Y-91789676D01*
X161118571Y-91789676D02*
X161118571Y-91980152D01*
X161118571Y-91980152D02*
X161080475Y-92056342D01*
X161080475Y-92056342D02*
X161042380Y-92094438D01*
X161042380Y-92094438D02*
X160966190Y-92132533D01*
X160966190Y-92132533D02*
X160813809Y-92132533D01*
X160813809Y-92132533D02*
X160737618Y-92094438D01*
X160737618Y-92094438D02*
X160699523Y-92056342D01*
X160699523Y-92056342D02*
X160661428Y-91980152D01*
X158902380Y-91637295D02*
X159283332Y-91637295D01*
X159283332Y-91637295D02*
X159321428Y-92018247D01*
X159321428Y-92018247D02*
X159283332Y-91980152D01*
X159283332Y-91980152D02*
X159207142Y-91942057D01*
X159207142Y-91942057D02*
X159016666Y-91942057D01*
X159016666Y-91942057D02*
X158940475Y-91980152D01*
X158940475Y-91980152D02*
X158902380Y-92018247D01*
X158902380Y-92018247D02*
X158864285Y-92094438D01*
X158864285Y-92094438D02*
X158864285Y-92284914D01*
X158864285Y-92284914D02*
X158902380Y-92361104D01*
X158902380Y-92361104D02*
X158940475Y-92399200D01*
X158940475Y-92399200D02*
X159016666Y-92437295D01*
X159016666Y-92437295D02*
X159207142Y-92437295D01*
X159207142Y-92437295D02*
X159283332Y-92399200D01*
X159283332Y-92399200D02*
X159321428Y-92361104D01*
X158635713Y-91637295D02*
X158369046Y-92437295D01*
X158369046Y-92437295D02*
X158102380Y-91637295D01*
X156819523Y-91675390D02*
X156895713Y-91637295D01*
X156895713Y-91637295D02*
X157009999Y-91637295D01*
X157009999Y-91637295D02*
X157124285Y-91675390D01*
X157124285Y-91675390D02*
X157200475Y-91751580D01*
X157200475Y-91751580D02*
X157238570Y-91827771D01*
X157238570Y-91827771D02*
X157276666Y-91980152D01*
X157276666Y-91980152D02*
X157276666Y-92094438D01*
X157276666Y-92094438D02*
X157238570Y-92246819D01*
X157238570Y-92246819D02*
X157200475Y-92323009D01*
X157200475Y-92323009D02*
X157124285Y-92399200D01*
X157124285Y-92399200D02*
X157009999Y-92437295D01*
X157009999Y-92437295D02*
X156933808Y-92437295D01*
X156933808Y-92437295D02*
X156819523Y-92399200D01*
X156819523Y-92399200D02*
X156781427Y-92361104D01*
X156781427Y-92361104D02*
X156781427Y-92094438D01*
X156781427Y-92094438D02*
X156933808Y-92094438D01*
X156438570Y-92437295D02*
X156438570Y-91637295D01*
X156438570Y-91637295D02*
X155981427Y-92437295D01*
X155981427Y-92437295D02*
X155981427Y-91637295D01*
X155600475Y-92437295D02*
X155600475Y-91637295D01*
X155600475Y-91637295D02*
X155409999Y-91637295D01*
X155409999Y-91637295D02*
X155295713Y-91675390D01*
X155295713Y-91675390D02*
X155219523Y-91751580D01*
X155219523Y-91751580D02*
X155181428Y-91827771D01*
X155181428Y-91827771D02*
X155143332Y-91980152D01*
X155143332Y-91980152D02*
X155143332Y-92094438D01*
X155143332Y-92094438D02*
X155181428Y-92246819D01*
X155181428Y-92246819D02*
X155219523Y-92323009D01*
X155219523Y-92323009D02*
X155295713Y-92399200D01*
X155295713Y-92399200D02*
X155409999Y-92437295D01*
X155409999Y-92437295D02*
X155600475Y-92437295D01*
X154660476Y-91637295D02*
X154165238Y-91637295D01*
X154165238Y-91637295D02*
X154431904Y-91942057D01*
X154431904Y-91942057D02*
X154317619Y-91942057D01*
X154317619Y-91942057D02*
X154241428Y-91980152D01*
X154241428Y-91980152D02*
X154203333Y-92018247D01*
X154203333Y-92018247D02*
X154165238Y-92094438D01*
X154165238Y-92094438D02*
X154165238Y-92284914D01*
X154165238Y-92284914D02*
X154203333Y-92361104D01*
X154203333Y-92361104D02*
X154241428Y-92399200D01*
X154241428Y-92399200D02*
X154317619Y-92437295D01*
X154317619Y-92437295D02*
X154546190Y-92437295D01*
X154546190Y-92437295D02*
X154622381Y-92399200D01*
X154622381Y-92399200D02*
X154660476Y-92361104D01*
X153936666Y-91637295D02*
X153669999Y-92437295D01*
X153669999Y-92437295D02*
X153403333Y-91637295D01*
X153212857Y-91637295D02*
X152717619Y-91637295D01*
X152717619Y-91637295D02*
X152984285Y-91942057D01*
X152984285Y-91942057D02*
X152870000Y-91942057D01*
X152870000Y-91942057D02*
X152793809Y-91980152D01*
X152793809Y-91980152D02*
X152755714Y-92018247D01*
X152755714Y-92018247D02*
X152717619Y-92094438D01*
X152717619Y-92094438D02*
X152717619Y-92284914D01*
X152717619Y-92284914D02*
X152755714Y-92361104D01*
X152755714Y-92361104D02*
X152793809Y-92399200D01*
X152793809Y-92399200D02*
X152870000Y-92437295D01*
X152870000Y-92437295D02*
X153098571Y-92437295D01*
X153098571Y-92437295D02*
X153174762Y-92399200D01*
X153174762Y-92399200D02*
X153212857Y-92361104D01*
X199999523Y-110725390D02*
X200075713Y-110687295D01*
X200075713Y-110687295D02*
X200189999Y-110687295D01*
X200189999Y-110687295D02*
X200304285Y-110725390D01*
X200304285Y-110725390D02*
X200380475Y-110801580D01*
X200380475Y-110801580D02*
X200418570Y-110877771D01*
X200418570Y-110877771D02*
X200456666Y-111030152D01*
X200456666Y-111030152D02*
X200456666Y-111144438D01*
X200456666Y-111144438D02*
X200418570Y-111296819D01*
X200418570Y-111296819D02*
X200380475Y-111373009D01*
X200380475Y-111373009D02*
X200304285Y-111449200D01*
X200304285Y-111449200D02*
X200189999Y-111487295D01*
X200189999Y-111487295D02*
X200113808Y-111487295D01*
X200113808Y-111487295D02*
X199999523Y-111449200D01*
X199999523Y-111449200D02*
X199961427Y-111411104D01*
X199961427Y-111411104D02*
X199961427Y-111144438D01*
X199961427Y-111144438D02*
X200113808Y-111144438D01*
X199618570Y-111487295D02*
X199618570Y-110687295D01*
X199618570Y-110687295D02*
X199161427Y-111487295D01*
X199161427Y-111487295D02*
X199161427Y-110687295D01*
X198780475Y-111487295D02*
X198780475Y-110687295D01*
X198780475Y-110687295D02*
X198589999Y-110687295D01*
X198589999Y-110687295D02*
X198475713Y-110725390D01*
X198475713Y-110725390D02*
X198399523Y-110801580D01*
X198399523Y-110801580D02*
X198361428Y-110877771D01*
X198361428Y-110877771D02*
X198323332Y-111030152D01*
X198323332Y-111030152D02*
X198323332Y-111144438D01*
X198323332Y-111144438D02*
X198361428Y-111296819D01*
X198361428Y-111296819D02*
X198399523Y-111373009D01*
X198399523Y-111373009D02*
X198475713Y-111449200D01*
X198475713Y-111449200D02*
X198589999Y-111487295D01*
X198589999Y-111487295D02*
X198780475Y-111487295D01*
X202082380Y-110687295D02*
X202463332Y-110687295D01*
X202463332Y-110687295D02*
X202501428Y-111068247D01*
X202501428Y-111068247D02*
X202463332Y-111030152D01*
X202463332Y-111030152D02*
X202387142Y-110992057D01*
X202387142Y-110992057D02*
X202196666Y-110992057D01*
X202196666Y-110992057D02*
X202120475Y-111030152D01*
X202120475Y-111030152D02*
X202082380Y-111068247D01*
X202082380Y-111068247D02*
X202044285Y-111144438D01*
X202044285Y-111144438D02*
X202044285Y-111334914D01*
X202044285Y-111334914D02*
X202082380Y-111411104D01*
X202082380Y-111411104D02*
X202120475Y-111449200D01*
X202120475Y-111449200D02*
X202196666Y-111487295D01*
X202196666Y-111487295D02*
X202387142Y-111487295D01*
X202387142Y-111487295D02*
X202463332Y-111449200D01*
X202463332Y-111449200D02*
X202501428Y-111411104D01*
X201815713Y-110687295D02*
X201549046Y-111487295D01*
X201549046Y-111487295D02*
X201282380Y-110687295D01*
X197840476Y-110687295D02*
X197345238Y-110687295D01*
X197345238Y-110687295D02*
X197611904Y-110992057D01*
X197611904Y-110992057D02*
X197497619Y-110992057D01*
X197497619Y-110992057D02*
X197421428Y-111030152D01*
X197421428Y-111030152D02*
X197383333Y-111068247D01*
X197383333Y-111068247D02*
X197345238Y-111144438D01*
X197345238Y-111144438D02*
X197345238Y-111334914D01*
X197345238Y-111334914D02*
X197383333Y-111411104D01*
X197383333Y-111411104D02*
X197421428Y-111449200D01*
X197421428Y-111449200D02*
X197497619Y-111487295D01*
X197497619Y-111487295D02*
X197726190Y-111487295D01*
X197726190Y-111487295D02*
X197802381Y-111449200D01*
X197802381Y-111449200D02*
X197840476Y-111411104D01*
X197116666Y-110687295D02*
X196849999Y-111487295D01*
X196849999Y-111487295D02*
X196583333Y-110687295D01*
X196392857Y-110687295D02*
X195897619Y-110687295D01*
X195897619Y-110687295D02*
X196164285Y-110992057D01*
X196164285Y-110992057D02*
X196050000Y-110992057D01*
X196050000Y-110992057D02*
X195973809Y-111030152D01*
X195973809Y-111030152D02*
X195935714Y-111068247D01*
X195935714Y-111068247D02*
X195897619Y-111144438D01*
X195897619Y-111144438D02*
X195897619Y-111334914D01*
X195897619Y-111334914D02*
X195935714Y-111411104D01*
X195935714Y-111411104D02*
X195973809Y-111449200D01*
X195973809Y-111449200D02*
X196050000Y-111487295D01*
X196050000Y-111487295D02*
X196278571Y-111487295D01*
X196278571Y-111487295D02*
X196354762Y-111449200D01*
X196354762Y-111449200D02*
X196392857Y-111411104D01*
X164268094Y-111487295D02*
X164534761Y-111106342D01*
X164725237Y-111487295D02*
X164725237Y-110687295D01*
X164725237Y-110687295D02*
X164420475Y-110687295D01*
X164420475Y-110687295D02*
X164344285Y-110725390D01*
X164344285Y-110725390D02*
X164306190Y-110763485D01*
X164306190Y-110763485D02*
X164268094Y-110839676D01*
X164268094Y-110839676D02*
X164268094Y-110953961D01*
X164268094Y-110953961D02*
X164306190Y-111030152D01*
X164306190Y-111030152D02*
X164344285Y-111068247D01*
X164344285Y-111068247D02*
X164420475Y-111106342D01*
X164420475Y-111106342D02*
X164725237Y-111106342D01*
X163963333Y-111449200D02*
X163849047Y-111487295D01*
X163849047Y-111487295D02*
X163658571Y-111487295D01*
X163658571Y-111487295D02*
X163582380Y-111449200D01*
X163582380Y-111449200D02*
X163544285Y-111411104D01*
X163544285Y-111411104D02*
X163506190Y-111334914D01*
X163506190Y-111334914D02*
X163506190Y-111258723D01*
X163506190Y-111258723D02*
X163544285Y-111182533D01*
X163544285Y-111182533D02*
X163582380Y-111144438D01*
X163582380Y-111144438D02*
X163658571Y-111106342D01*
X163658571Y-111106342D02*
X163810952Y-111068247D01*
X163810952Y-111068247D02*
X163887142Y-111030152D01*
X163887142Y-111030152D02*
X163925237Y-110992057D01*
X163925237Y-110992057D02*
X163963333Y-110915866D01*
X163963333Y-110915866D02*
X163963333Y-110839676D01*
X163963333Y-110839676D02*
X163925237Y-110763485D01*
X163925237Y-110763485D02*
X163887142Y-110725390D01*
X163887142Y-110725390D02*
X163810952Y-110687295D01*
X163810952Y-110687295D02*
X163620475Y-110687295D01*
X163620475Y-110687295D02*
X163506190Y-110725390D01*
X163277618Y-110687295D02*
X162820475Y-110687295D01*
X163049047Y-111487295D02*
X163049047Y-110687295D01*
X195014762Y-111068247D02*
X194900476Y-111106342D01*
X194900476Y-111106342D02*
X194862381Y-111144438D01*
X194862381Y-111144438D02*
X194824285Y-111220628D01*
X194824285Y-111220628D02*
X194824285Y-111334914D01*
X194824285Y-111334914D02*
X194862381Y-111411104D01*
X194862381Y-111411104D02*
X194900476Y-111449200D01*
X194900476Y-111449200D02*
X194976666Y-111487295D01*
X194976666Y-111487295D02*
X195281428Y-111487295D01*
X195281428Y-111487295D02*
X195281428Y-110687295D01*
X195281428Y-110687295D02*
X195014762Y-110687295D01*
X195014762Y-110687295D02*
X194938571Y-110725390D01*
X194938571Y-110725390D02*
X194900476Y-110763485D01*
X194900476Y-110763485D02*
X194862381Y-110839676D01*
X194862381Y-110839676D02*
X194862381Y-110915866D01*
X194862381Y-110915866D02*
X194900476Y-110992057D01*
X194900476Y-110992057D02*
X194938571Y-111030152D01*
X194938571Y-111030152D02*
X195014762Y-111068247D01*
X195014762Y-111068247D02*
X195281428Y-111068247D01*
X194062381Y-111487295D02*
X194519524Y-111487295D01*
X194290952Y-111487295D02*
X194290952Y-110687295D01*
X194290952Y-110687295D02*
X194367143Y-110801580D01*
X194367143Y-110801580D02*
X194443333Y-110877771D01*
X194443333Y-110877771D02*
X194519524Y-110915866D01*
X193567142Y-110687295D02*
X193490952Y-110687295D01*
X193490952Y-110687295D02*
X193414761Y-110725390D01*
X193414761Y-110725390D02*
X193376666Y-110763485D01*
X193376666Y-110763485D02*
X193338571Y-110839676D01*
X193338571Y-110839676D02*
X193300476Y-110992057D01*
X193300476Y-110992057D02*
X193300476Y-111182533D01*
X193300476Y-111182533D02*
X193338571Y-111334914D01*
X193338571Y-111334914D02*
X193376666Y-111411104D01*
X193376666Y-111411104D02*
X193414761Y-111449200D01*
X193414761Y-111449200D02*
X193490952Y-111487295D01*
X193490952Y-111487295D02*
X193567142Y-111487295D01*
X193567142Y-111487295D02*
X193643333Y-111449200D01*
X193643333Y-111449200D02*
X193681428Y-111411104D01*
X193681428Y-111411104D02*
X193719523Y-111334914D01*
X193719523Y-111334914D02*
X193757619Y-111182533D01*
X193757619Y-111182533D02*
X193757619Y-110992057D01*
X193757619Y-110992057D02*
X193719523Y-110839676D01*
X193719523Y-110839676D02*
X193681428Y-110763485D01*
X193681428Y-110763485D02*
X193643333Y-110725390D01*
X193643333Y-110725390D02*
X193567142Y-110687295D01*
X192093809Y-111068247D02*
X191979523Y-111106342D01*
X191979523Y-111106342D02*
X191941428Y-111144438D01*
X191941428Y-111144438D02*
X191903332Y-111220628D01*
X191903332Y-111220628D02*
X191903332Y-111334914D01*
X191903332Y-111334914D02*
X191941428Y-111411104D01*
X191941428Y-111411104D02*
X191979523Y-111449200D01*
X191979523Y-111449200D02*
X192055713Y-111487295D01*
X192055713Y-111487295D02*
X192360475Y-111487295D01*
X192360475Y-111487295D02*
X192360475Y-110687295D01*
X192360475Y-110687295D02*
X192093809Y-110687295D01*
X192093809Y-110687295D02*
X192017618Y-110725390D01*
X192017618Y-110725390D02*
X191979523Y-110763485D01*
X191979523Y-110763485D02*
X191941428Y-110839676D01*
X191941428Y-110839676D02*
X191941428Y-110915866D01*
X191941428Y-110915866D02*
X191979523Y-110992057D01*
X191979523Y-110992057D02*
X192017618Y-111030152D01*
X192017618Y-111030152D02*
X192093809Y-111068247D01*
X192093809Y-111068247D02*
X192360475Y-111068247D01*
X191598571Y-110763485D02*
X191560475Y-110725390D01*
X191560475Y-110725390D02*
X191484285Y-110687295D01*
X191484285Y-110687295D02*
X191293809Y-110687295D01*
X191293809Y-110687295D02*
X191217618Y-110725390D01*
X191217618Y-110725390D02*
X191179523Y-110763485D01*
X191179523Y-110763485D02*
X191141428Y-110839676D01*
X191141428Y-110839676D02*
X191141428Y-110915866D01*
X191141428Y-110915866D02*
X191179523Y-111030152D01*
X191179523Y-111030152D02*
X191636666Y-111487295D01*
X191636666Y-111487295D02*
X191141428Y-111487295D01*
X189553809Y-111068247D02*
X189439523Y-111106342D01*
X189439523Y-111106342D02*
X189401428Y-111144438D01*
X189401428Y-111144438D02*
X189363332Y-111220628D01*
X189363332Y-111220628D02*
X189363332Y-111334914D01*
X189363332Y-111334914D02*
X189401428Y-111411104D01*
X189401428Y-111411104D02*
X189439523Y-111449200D01*
X189439523Y-111449200D02*
X189515713Y-111487295D01*
X189515713Y-111487295D02*
X189820475Y-111487295D01*
X189820475Y-111487295D02*
X189820475Y-110687295D01*
X189820475Y-110687295D02*
X189553809Y-110687295D01*
X189553809Y-110687295D02*
X189477618Y-110725390D01*
X189477618Y-110725390D02*
X189439523Y-110763485D01*
X189439523Y-110763485D02*
X189401428Y-110839676D01*
X189401428Y-110839676D02*
X189401428Y-110915866D01*
X189401428Y-110915866D02*
X189439523Y-110992057D01*
X189439523Y-110992057D02*
X189477618Y-111030152D01*
X189477618Y-111030152D02*
X189553809Y-111068247D01*
X189553809Y-111068247D02*
X189820475Y-111068247D01*
X188601428Y-111487295D02*
X189058571Y-111487295D01*
X188829999Y-111487295D02*
X188829999Y-110687295D01*
X188829999Y-110687295D02*
X188906190Y-110801580D01*
X188906190Y-110801580D02*
X188982380Y-110877771D01*
X188982380Y-110877771D02*
X189058571Y-110915866D01*
X187013809Y-111068247D02*
X186899523Y-111106342D01*
X186899523Y-111106342D02*
X186861428Y-111144438D01*
X186861428Y-111144438D02*
X186823332Y-111220628D01*
X186823332Y-111220628D02*
X186823332Y-111334914D01*
X186823332Y-111334914D02*
X186861428Y-111411104D01*
X186861428Y-111411104D02*
X186899523Y-111449200D01*
X186899523Y-111449200D02*
X186975713Y-111487295D01*
X186975713Y-111487295D02*
X187280475Y-111487295D01*
X187280475Y-111487295D02*
X187280475Y-110687295D01*
X187280475Y-110687295D02*
X187013809Y-110687295D01*
X187013809Y-110687295D02*
X186937618Y-110725390D01*
X186937618Y-110725390D02*
X186899523Y-110763485D01*
X186899523Y-110763485D02*
X186861428Y-110839676D01*
X186861428Y-110839676D02*
X186861428Y-110915866D01*
X186861428Y-110915866D02*
X186899523Y-110992057D01*
X186899523Y-110992057D02*
X186937618Y-111030152D01*
X186937618Y-111030152D02*
X187013809Y-111068247D01*
X187013809Y-111068247D02*
X187280475Y-111068247D01*
X186328094Y-110687295D02*
X186251904Y-110687295D01*
X186251904Y-110687295D02*
X186175713Y-110725390D01*
X186175713Y-110725390D02*
X186137618Y-110763485D01*
X186137618Y-110763485D02*
X186099523Y-110839676D01*
X186099523Y-110839676D02*
X186061428Y-110992057D01*
X186061428Y-110992057D02*
X186061428Y-111182533D01*
X186061428Y-111182533D02*
X186099523Y-111334914D01*
X186099523Y-111334914D02*
X186137618Y-111411104D01*
X186137618Y-111411104D02*
X186175713Y-111449200D01*
X186175713Y-111449200D02*
X186251904Y-111487295D01*
X186251904Y-111487295D02*
X186328094Y-111487295D01*
X186328094Y-111487295D02*
X186404285Y-111449200D01*
X186404285Y-111449200D02*
X186442380Y-111411104D01*
X186442380Y-111411104D02*
X186480475Y-111334914D01*
X186480475Y-111334914D02*
X186518571Y-111182533D01*
X186518571Y-111182533D02*
X186518571Y-110992057D01*
X186518571Y-110992057D02*
X186480475Y-110839676D01*
X186480475Y-110839676D02*
X186442380Y-110763485D01*
X186442380Y-110763485D02*
X186404285Y-110725390D01*
X186404285Y-110725390D02*
X186328094Y-110687295D01*
X184721428Y-111258723D02*
X184340475Y-111258723D01*
X184797618Y-111487295D02*
X184530951Y-110687295D01*
X184530951Y-110687295D02*
X184264285Y-111487295D01*
X184073809Y-110687295D02*
X183540475Y-110687295D01*
X183540475Y-110687295D02*
X183883333Y-111487295D01*
X182181428Y-111258723D02*
X181800475Y-111258723D01*
X182257618Y-111487295D02*
X181990951Y-110687295D01*
X181990951Y-110687295D02*
X181724285Y-111487295D01*
X181114761Y-110687295D02*
X181267142Y-110687295D01*
X181267142Y-110687295D02*
X181343333Y-110725390D01*
X181343333Y-110725390D02*
X181381428Y-110763485D01*
X181381428Y-110763485D02*
X181457618Y-110877771D01*
X181457618Y-110877771D02*
X181495714Y-111030152D01*
X181495714Y-111030152D02*
X181495714Y-111334914D01*
X181495714Y-111334914D02*
X181457618Y-111411104D01*
X181457618Y-111411104D02*
X181419523Y-111449200D01*
X181419523Y-111449200D02*
X181343333Y-111487295D01*
X181343333Y-111487295D02*
X181190952Y-111487295D01*
X181190952Y-111487295D02*
X181114761Y-111449200D01*
X181114761Y-111449200D02*
X181076666Y-111411104D01*
X181076666Y-111411104D02*
X181038571Y-111334914D01*
X181038571Y-111334914D02*
X181038571Y-111144438D01*
X181038571Y-111144438D02*
X181076666Y-111068247D01*
X181076666Y-111068247D02*
X181114761Y-111030152D01*
X181114761Y-111030152D02*
X181190952Y-110992057D01*
X181190952Y-110992057D02*
X181343333Y-110992057D01*
X181343333Y-110992057D02*
X181419523Y-111030152D01*
X181419523Y-111030152D02*
X181457618Y-111068247D01*
X181457618Y-111068247D02*
X181495714Y-111144438D01*
X179641428Y-111258723D02*
X179260475Y-111258723D01*
X179717618Y-111487295D02*
X179450951Y-110687295D01*
X179450951Y-110687295D02*
X179184285Y-111487295D01*
X178536666Y-110687295D02*
X178917618Y-110687295D01*
X178917618Y-110687295D02*
X178955714Y-111068247D01*
X178955714Y-111068247D02*
X178917618Y-111030152D01*
X178917618Y-111030152D02*
X178841428Y-110992057D01*
X178841428Y-110992057D02*
X178650952Y-110992057D01*
X178650952Y-110992057D02*
X178574761Y-111030152D01*
X178574761Y-111030152D02*
X178536666Y-111068247D01*
X178536666Y-111068247D02*
X178498571Y-111144438D01*
X178498571Y-111144438D02*
X178498571Y-111334914D01*
X178498571Y-111334914D02*
X178536666Y-111411104D01*
X178536666Y-111411104D02*
X178574761Y-111449200D01*
X178574761Y-111449200D02*
X178650952Y-111487295D01*
X178650952Y-111487295D02*
X178841428Y-111487295D01*
X178841428Y-111487295D02*
X178917618Y-111449200D01*
X178917618Y-111449200D02*
X178955714Y-111411104D01*
X177101428Y-111258723D02*
X176720475Y-111258723D01*
X177177618Y-111487295D02*
X176910951Y-110687295D01*
X176910951Y-110687295D02*
X176644285Y-111487295D01*
X176034761Y-110953961D02*
X176034761Y-111487295D01*
X176225237Y-110649200D02*
X176415714Y-111220628D01*
X176415714Y-111220628D02*
X175920475Y-111220628D01*
X174561428Y-111258723D02*
X174180475Y-111258723D01*
X174637618Y-111487295D02*
X174370951Y-110687295D01*
X174370951Y-110687295D02*
X174104285Y-111487295D01*
X173913809Y-110687295D02*
X173418571Y-110687295D01*
X173418571Y-110687295D02*
X173685237Y-110992057D01*
X173685237Y-110992057D02*
X173570952Y-110992057D01*
X173570952Y-110992057D02*
X173494761Y-111030152D01*
X173494761Y-111030152D02*
X173456666Y-111068247D01*
X173456666Y-111068247D02*
X173418571Y-111144438D01*
X173418571Y-111144438D02*
X173418571Y-111334914D01*
X173418571Y-111334914D02*
X173456666Y-111411104D01*
X173456666Y-111411104D02*
X173494761Y-111449200D01*
X173494761Y-111449200D02*
X173570952Y-111487295D01*
X173570952Y-111487295D02*
X173799523Y-111487295D01*
X173799523Y-111487295D02*
X173875714Y-111449200D01*
X173875714Y-111449200D02*
X173913809Y-111411104D01*
X172021428Y-111258723D02*
X171640475Y-111258723D01*
X172097618Y-111487295D02*
X171830951Y-110687295D01*
X171830951Y-110687295D02*
X171564285Y-111487295D01*
X171335714Y-110763485D02*
X171297618Y-110725390D01*
X171297618Y-110725390D02*
X171221428Y-110687295D01*
X171221428Y-110687295D02*
X171030952Y-110687295D01*
X171030952Y-110687295D02*
X170954761Y-110725390D01*
X170954761Y-110725390D02*
X170916666Y-110763485D01*
X170916666Y-110763485D02*
X170878571Y-110839676D01*
X170878571Y-110839676D02*
X170878571Y-110915866D01*
X170878571Y-110915866D02*
X170916666Y-111030152D01*
X170916666Y-111030152D02*
X171373809Y-111487295D01*
X171373809Y-111487295D02*
X170878571Y-111487295D01*
X169481428Y-111258723D02*
X169100475Y-111258723D01*
X169557618Y-111487295D02*
X169290951Y-110687295D01*
X169290951Y-110687295D02*
X169024285Y-111487295D01*
X168338571Y-111487295D02*
X168795714Y-111487295D01*
X168567142Y-111487295D02*
X168567142Y-110687295D01*
X168567142Y-110687295D02*
X168643333Y-110801580D01*
X168643333Y-110801580D02*
X168719523Y-110877771D01*
X168719523Y-110877771D02*
X168795714Y-110915866D01*
X166941428Y-111258723D02*
X166560475Y-111258723D01*
X167017618Y-111487295D02*
X166750951Y-110687295D01*
X166750951Y-110687295D02*
X166484285Y-111487295D01*
X166065237Y-110687295D02*
X165989047Y-110687295D01*
X165989047Y-110687295D02*
X165912856Y-110725390D01*
X165912856Y-110725390D02*
X165874761Y-110763485D01*
X165874761Y-110763485D02*
X165836666Y-110839676D01*
X165836666Y-110839676D02*
X165798571Y-110992057D01*
X165798571Y-110992057D02*
X165798571Y-111182533D01*
X165798571Y-111182533D02*
X165836666Y-111334914D01*
X165836666Y-111334914D02*
X165874761Y-111411104D01*
X165874761Y-111411104D02*
X165912856Y-111449200D01*
X165912856Y-111449200D02*
X165989047Y-111487295D01*
X165989047Y-111487295D02*
X166065237Y-111487295D01*
X166065237Y-111487295D02*
X166141428Y-111449200D01*
X166141428Y-111449200D02*
X166179523Y-111411104D01*
X166179523Y-111411104D02*
X166217618Y-111334914D01*
X166217618Y-111334914D02*
X166255714Y-111182533D01*
X166255714Y-111182533D02*
X166255714Y-110992057D01*
X166255714Y-110992057D02*
X166217618Y-110839676D01*
X166217618Y-110839676D02*
X166179523Y-110763485D01*
X166179523Y-110763485D02*
X166141428Y-110725390D01*
X166141428Y-110725390D02*
X166065237Y-110687295D01*
X161804285Y-111411104D02*
X161842381Y-111449200D01*
X161842381Y-111449200D02*
X161956666Y-111487295D01*
X161956666Y-111487295D02*
X162032857Y-111487295D01*
X162032857Y-111487295D02*
X162147143Y-111449200D01*
X162147143Y-111449200D02*
X162223333Y-111373009D01*
X162223333Y-111373009D02*
X162261428Y-111296819D01*
X162261428Y-111296819D02*
X162299524Y-111144438D01*
X162299524Y-111144438D02*
X162299524Y-111030152D01*
X162299524Y-111030152D02*
X162261428Y-110877771D01*
X162261428Y-110877771D02*
X162223333Y-110801580D01*
X162223333Y-110801580D02*
X162147143Y-110725390D01*
X162147143Y-110725390D02*
X162032857Y-110687295D01*
X162032857Y-110687295D02*
X161956666Y-110687295D01*
X161956666Y-110687295D02*
X161842381Y-110725390D01*
X161842381Y-110725390D02*
X161804285Y-110763485D01*
X161042381Y-111487295D02*
X161499524Y-111487295D01*
X161270952Y-111487295D02*
X161270952Y-110687295D01*
X161270952Y-110687295D02*
X161347143Y-110801580D01*
X161347143Y-110801580D02*
X161423333Y-110877771D01*
X161423333Y-110877771D02*
X161499524Y-110915866D01*
X160318571Y-110687295D02*
X160699523Y-110687295D01*
X160699523Y-110687295D02*
X160737619Y-111068247D01*
X160737619Y-111068247D02*
X160699523Y-111030152D01*
X160699523Y-111030152D02*
X160623333Y-110992057D01*
X160623333Y-110992057D02*
X160432857Y-110992057D01*
X160432857Y-110992057D02*
X160356666Y-111030152D01*
X160356666Y-111030152D02*
X160318571Y-111068247D01*
X160318571Y-111068247D02*
X160280476Y-111144438D01*
X160280476Y-111144438D02*
X160280476Y-111334914D01*
X160280476Y-111334914D02*
X160318571Y-111411104D01*
X160318571Y-111411104D02*
X160356666Y-111449200D01*
X160356666Y-111449200D02*
X160432857Y-111487295D01*
X160432857Y-111487295D02*
X160623333Y-111487295D01*
X160623333Y-111487295D02*
X160699523Y-111449200D01*
X160699523Y-111449200D02*
X160737619Y-111411104D01*
X159264285Y-111411104D02*
X159302381Y-111449200D01*
X159302381Y-111449200D02*
X159416666Y-111487295D01*
X159416666Y-111487295D02*
X159492857Y-111487295D01*
X159492857Y-111487295D02*
X159607143Y-111449200D01*
X159607143Y-111449200D02*
X159683333Y-111373009D01*
X159683333Y-111373009D02*
X159721428Y-111296819D01*
X159721428Y-111296819D02*
X159759524Y-111144438D01*
X159759524Y-111144438D02*
X159759524Y-111030152D01*
X159759524Y-111030152D02*
X159721428Y-110877771D01*
X159721428Y-110877771D02*
X159683333Y-110801580D01*
X159683333Y-110801580D02*
X159607143Y-110725390D01*
X159607143Y-110725390D02*
X159492857Y-110687295D01*
X159492857Y-110687295D02*
X159416666Y-110687295D01*
X159416666Y-110687295D02*
X159302381Y-110725390D01*
X159302381Y-110725390D02*
X159264285Y-110763485D01*
X158502381Y-111487295D02*
X158959524Y-111487295D01*
X158730952Y-111487295D02*
X158730952Y-110687295D01*
X158730952Y-110687295D02*
X158807143Y-110801580D01*
X158807143Y-110801580D02*
X158883333Y-110877771D01*
X158883333Y-110877771D02*
X158959524Y-110915866D01*
X157816666Y-110953961D02*
X157816666Y-111487295D01*
X158007142Y-110649200D02*
X158197619Y-111220628D01*
X158197619Y-111220628D02*
X157702380Y-111220628D01*
X156724285Y-111411104D02*
X156762381Y-111449200D01*
X156762381Y-111449200D02*
X156876666Y-111487295D01*
X156876666Y-111487295D02*
X156952857Y-111487295D01*
X156952857Y-111487295D02*
X157067143Y-111449200D01*
X157067143Y-111449200D02*
X157143333Y-111373009D01*
X157143333Y-111373009D02*
X157181428Y-111296819D01*
X157181428Y-111296819D02*
X157219524Y-111144438D01*
X157219524Y-111144438D02*
X157219524Y-111030152D01*
X157219524Y-111030152D02*
X157181428Y-110877771D01*
X157181428Y-110877771D02*
X157143333Y-110801580D01*
X157143333Y-110801580D02*
X157067143Y-110725390D01*
X157067143Y-110725390D02*
X156952857Y-110687295D01*
X156952857Y-110687295D02*
X156876666Y-110687295D01*
X156876666Y-110687295D02*
X156762381Y-110725390D01*
X156762381Y-110725390D02*
X156724285Y-110763485D01*
X155962381Y-111487295D02*
X156419524Y-111487295D01*
X156190952Y-111487295D02*
X156190952Y-110687295D01*
X156190952Y-110687295D02*
X156267143Y-110801580D01*
X156267143Y-110801580D02*
X156343333Y-110877771D01*
X156343333Y-110877771D02*
X156419524Y-110915866D01*
X155695714Y-110687295D02*
X155200476Y-110687295D01*
X155200476Y-110687295D02*
X155467142Y-110992057D01*
X155467142Y-110992057D02*
X155352857Y-110992057D01*
X155352857Y-110992057D02*
X155276666Y-111030152D01*
X155276666Y-111030152D02*
X155238571Y-111068247D01*
X155238571Y-111068247D02*
X155200476Y-111144438D01*
X155200476Y-111144438D02*
X155200476Y-111334914D01*
X155200476Y-111334914D02*
X155238571Y-111411104D01*
X155238571Y-111411104D02*
X155276666Y-111449200D01*
X155276666Y-111449200D02*
X155352857Y-111487295D01*
X155352857Y-111487295D02*
X155581428Y-111487295D01*
X155581428Y-111487295D02*
X155657619Y-111449200D01*
X155657619Y-111449200D02*
X155695714Y-111411104D01*
X154660476Y-110687295D02*
X154165238Y-110687295D01*
X154165238Y-110687295D02*
X154431904Y-110992057D01*
X154431904Y-110992057D02*
X154317619Y-110992057D01*
X154317619Y-110992057D02*
X154241428Y-111030152D01*
X154241428Y-111030152D02*
X154203333Y-111068247D01*
X154203333Y-111068247D02*
X154165238Y-111144438D01*
X154165238Y-111144438D02*
X154165238Y-111334914D01*
X154165238Y-111334914D02*
X154203333Y-111411104D01*
X154203333Y-111411104D02*
X154241428Y-111449200D01*
X154241428Y-111449200D02*
X154317619Y-111487295D01*
X154317619Y-111487295D02*
X154546190Y-111487295D01*
X154546190Y-111487295D02*
X154622381Y-111449200D01*
X154622381Y-111449200D02*
X154660476Y-111411104D01*
X153936666Y-110687295D02*
X153669999Y-111487295D01*
X153669999Y-111487295D02*
X153403333Y-110687295D01*
X153212857Y-110687295D02*
X152717619Y-110687295D01*
X152717619Y-110687295D02*
X152984285Y-110992057D01*
X152984285Y-110992057D02*
X152870000Y-110992057D01*
X152870000Y-110992057D02*
X152793809Y-111030152D01*
X152793809Y-111030152D02*
X152755714Y-111068247D01*
X152755714Y-111068247D02*
X152717619Y-111144438D01*
X152717619Y-111144438D02*
X152717619Y-111334914D01*
X152717619Y-111334914D02*
X152755714Y-111411104D01*
X152755714Y-111411104D02*
X152793809Y-111449200D01*
X152793809Y-111449200D02*
X152870000Y-111487295D01*
X152870000Y-111487295D02*
X153098571Y-111487295D01*
X153098571Y-111487295D02*
X153174762Y-111449200D01*
X153174762Y-111449200D02*
X153212857Y-111411104D01*
X160600825Y-101886104D02*
X160638921Y-101924200D01*
X160638921Y-101924200D02*
X160753206Y-101962295D01*
X160753206Y-101962295D02*
X160829397Y-101962295D01*
X160829397Y-101962295D02*
X160943683Y-101924200D01*
X160943683Y-101924200D02*
X161019873Y-101848009D01*
X161019873Y-101848009D02*
X161057968Y-101771819D01*
X161057968Y-101771819D02*
X161096064Y-101619438D01*
X161096064Y-101619438D02*
X161096064Y-101505152D01*
X161096064Y-101505152D02*
X161057968Y-101352771D01*
X161057968Y-101352771D02*
X161019873Y-101276580D01*
X161019873Y-101276580D02*
X160943683Y-101200390D01*
X160943683Y-101200390D02*
X160829397Y-101162295D01*
X160829397Y-101162295D02*
X160753206Y-101162295D01*
X160753206Y-101162295D02*
X160638921Y-101200390D01*
X160638921Y-101200390D02*
X160600825Y-101238485D01*
X159877016Y-101962295D02*
X160257968Y-101962295D01*
X160257968Y-101962295D02*
X160257968Y-101162295D01*
X159610349Y-101962295D02*
X159610349Y-101162295D01*
X159153206Y-101962295D02*
X159496064Y-101505152D01*
X159153206Y-101162295D02*
X159610349Y-101619438D01*
X158238921Y-101124200D02*
X158924635Y-102152771D01*
X157972254Y-101962295D02*
X157972254Y-101162295D01*
X157438921Y-101162295D02*
X157286540Y-101162295D01*
X157286540Y-101162295D02*
X157210350Y-101200390D01*
X157210350Y-101200390D02*
X157134159Y-101276580D01*
X157134159Y-101276580D02*
X157096064Y-101428961D01*
X157096064Y-101428961D02*
X157096064Y-101695628D01*
X157096064Y-101695628D02*
X157134159Y-101848009D01*
X157134159Y-101848009D02*
X157210350Y-101924200D01*
X157210350Y-101924200D02*
X157286540Y-101962295D01*
X157286540Y-101962295D02*
X157438921Y-101962295D01*
X157438921Y-101962295D02*
X157515112Y-101924200D01*
X157515112Y-101924200D02*
X157591302Y-101848009D01*
X157591302Y-101848009D02*
X157629398Y-101695628D01*
X157629398Y-101695628D02*
X157629398Y-101428961D01*
X157629398Y-101428961D02*
X157591302Y-101276580D01*
X157591302Y-101276580D02*
X157515112Y-101200390D01*
X157515112Y-101200390D02*
X157438921Y-101162295D01*
X161515112Y-104502295D02*
X161781779Y-104121342D01*
X161972255Y-104502295D02*
X161972255Y-103702295D01*
X161972255Y-103702295D02*
X161667493Y-103702295D01*
X161667493Y-103702295D02*
X161591303Y-103740390D01*
X161591303Y-103740390D02*
X161553208Y-103778485D01*
X161553208Y-103778485D02*
X161515112Y-103854676D01*
X161515112Y-103854676D02*
X161515112Y-103968961D01*
X161515112Y-103968961D02*
X161553208Y-104045152D01*
X161553208Y-104045152D02*
X161591303Y-104083247D01*
X161591303Y-104083247D02*
X161667493Y-104121342D01*
X161667493Y-104121342D02*
X161972255Y-104121342D01*
X161210351Y-104464200D02*
X161096065Y-104502295D01*
X161096065Y-104502295D02*
X160905589Y-104502295D01*
X160905589Y-104502295D02*
X160829398Y-104464200D01*
X160829398Y-104464200D02*
X160791303Y-104426104D01*
X160791303Y-104426104D02*
X160753208Y-104349914D01*
X160753208Y-104349914D02*
X160753208Y-104273723D01*
X160753208Y-104273723D02*
X160791303Y-104197533D01*
X160791303Y-104197533D02*
X160829398Y-104159438D01*
X160829398Y-104159438D02*
X160905589Y-104121342D01*
X160905589Y-104121342D02*
X161057970Y-104083247D01*
X161057970Y-104083247D02*
X161134160Y-104045152D01*
X161134160Y-104045152D02*
X161172255Y-104007057D01*
X161172255Y-104007057D02*
X161210351Y-103930866D01*
X161210351Y-103930866D02*
X161210351Y-103854676D01*
X161210351Y-103854676D02*
X161172255Y-103778485D01*
X161172255Y-103778485D02*
X161134160Y-103740390D01*
X161134160Y-103740390D02*
X161057970Y-103702295D01*
X161057970Y-103702295D02*
X160867493Y-103702295D01*
X160867493Y-103702295D02*
X160753208Y-103740390D01*
X160524636Y-103702295D02*
X160067493Y-103702295D01*
X160296065Y-104502295D02*
X160296065Y-103702295D01*
X159229398Y-103664200D02*
X159915112Y-104692771D01*
X159038922Y-103702295D02*
X158543684Y-103702295D01*
X158543684Y-103702295D02*
X158810350Y-104007057D01*
X158810350Y-104007057D02*
X158696065Y-104007057D01*
X158696065Y-104007057D02*
X158619874Y-104045152D01*
X158619874Y-104045152D02*
X158581779Y-104083247D01*
X158581779Y-104083247D02*
X158543684Y-104159438D01*
X158543684Y-104159438D02*
X158543684Y-104349914D01*
X158543684Y-104349914D02*
X158581779Y-104426104D01*
X158581779Y-104426104D02*
X158619874Y-104464200D01*
X158619874Y-104464200D02*
X158696065Y-104502295D01*
X158696065Y-104502295D02*
X158924636Y-104502295D01*
X158924636Y-104502295D02*
X159000827Y-104464200D01*
X159000827Y-104464200D02*
X159038922Y-104426104D01*
X158315112Y-103702295D02*
X158048445Y-104502295D01*
X158048445Y-104502295D02*
X157781779Y-103702295D01*
X157591303Y-103702295D02*
X157096065Y-103702295D01*
X157096065Y-103702295D02*
X157362731Y-104007057D01*
X157362731Y-104007057D02*
X157248446Y-104007057D01*
X157248446Y-104007057D02*
X157172255Y-104045152D01*
X157172255Y-104045152D02*
X157134160Y-104083247D01*
X157134160Y-104083247D02*
X157096065Y-104159438D01*
X157096065Y-104159438D02*
X157096065Y-104349914D01*
X157096065Y-104349914D02*
X157134160Y-104426104D01*
X157134160Y-104426104D02*
X157172255Y-104464200D01*
X157172255Y-104464200D02*
X157248446Y-104502295D01*
X157248446Y-104502295D02*
X157477017Y-104502295D01*
X157477017Y-104502295D02*
X157553208Y-104464200D01*
X157553208Y-104464200D02*
X157591303Y-104426104D01*
X162124636Y-98660390D02*
X162200826Y-98622295D01*
X162200826Y-98622295D02*
X162315112Y-98622295D01*
X162315112Y-98622295D02*
X162429398Y-98660390D01*
X162429398Y-98660390D02*
X162505588Y-98736580D01*
X162505588Y-98736580D02*
X162543683Y-98812771D01*
X162543683Y-98812771D02*
X162581779Y-98965152D01*
X162581779Y-98965152D02*
X162581779Y-99079438D01*
X162581779Y-99079438D02*
X162543683Y-99231819D01*
X162543683Y-99231819D02*
X162505588Y-99308009D01*
X162505588Y-99308009D02*
X162429398Y-99384200D01*
X162429398Y-99384200D02*
X162315112Y-99422295D01*
X162315112Y-99422295D02*
X162238921Y-99422295D01*
X162238921Y-99422295D02*
X162124636Y-99384200D01*
X162124636Y-99384200D02*
X162086540Y-99346104D01*
X162086540Y-99346104D02*
X162086540Y-99079438D01*
X162086540Y-99079438D02*
X162238921Y-99079438D01*
X161743683Y-99422295D02*
X161743683Y-98622295D01*
X161743683Y-98622295D02*
X161286540Y-99422295D01*
X161286540Y-99422295D02*
X161286540Y-98622295D01*
X160905588Y-99422295D02*
X160905588Y-98622295D01*
X160905588Y-98622295D02*
X160715112Y-98622295D01*
X160715112Y-98622295D02*
X160600826Y-98660390D01*
X160600826Y-98660390D02*
X160524636Y-98736580D01*
X160524636Y-98736580D02*
X160486541Y-98812771D01*
X160486541Y-98812771D02*
X160448445Y-98965152D01*
X160448445Y-98965152D02*
X160448445Y-99079438D01*
X160448445Y-99079438D02*
X160486541Y-99231819D01*
X160486541Y-99231819D02*
X160524636Y-99308009D01*
X160524636Y-99308009D02*
X160600826Y-99384200D01*
X160600826Y-99384200D02*
X160715112Y-99422295D01*
X160715112Y-99422295D02*
X160905588Y-99422295D01*
X159534160Y-98584200D02*
X160219874Y-99612771D01*
X159305589Y-99384200D02*
X159191303Y-99422295D01*
X159191303Y-99422295D02*
X159000827Y-99422295D01*
X159000827Y-99422295D02*
X158924636Y-99384200D01*
X158924636Y-99384200D02*
X158886541Y-99346104D01*
X158886541Y-99346104D02*
X158848446Y-99269914D01*
X158848446Y-99269914D02*
X158848446Y-99193723D01*
X158848446Y-99193723D02*
X158886541Y-99117533D01*
X158886541Y-99117533D02*
X158924636Y-99079438D01*
X158924636Y-99079438D02*
X159000827Y-99041342D01*
X159000827Y-99041342D02*
X159153208Y-99003247D01*
X159153208Y-99003247D02*
X159229398Y-98965152D01*
X159229398Y-98965152D02*
X159267493Y-98927057D01*
X159267493Y-98927057D02*
X159305589Y-98850866D01*
X159305589Y-98850866D02*
X159305589Y-98774676D01*
X159305589Y-98774676D02*
X159267493Y-98698485D01*
X159267493Y-98698485D02*
X159229398Y-98660390D01*
X159229398Y-98660390D02*
X159153208Y-98622295D01*
X159153208Y-98622295D02*
X158962731Y-98622295D01*
X158962731Y-98622295D02*
X158848446Y-98660390D01*
X158581779Y-98622295D02*
X158391303Y-99422295D01*
X158391303Y-99422295D02*
X158238922Y-98850866D01*
X158238922Y-98850866D02*
X158086541Y-99422295D01*
X158086541Y-99422295D02*
X157896065Y-98622295D01*
X157438921Y-98622295D02*
X157286540Y-98622295D01*
X157286540Y-98622295D02*
X157210350Y-98660390D01*
X157210350Y-98660390D02*
X157134159Y-98736580D01*
X157134159Y-98736580D02*
X157096064Y-98888961D01*
X157096064Y-98888961D02*
X157096064Y-99155628D01*
X157096064Y-99155628D02*
X157134159Y-99308009D01*
X157134159Y-99308009D02*
X157210350Y-99384200D01*
X157210350Y-99384200D02*
X157286540Y-99422295D01*
X157286540Y-99422295D02*
X157438921Y-99422295D01*
X157438921Y-99422295D02*
X157515112Y-99384200D01*
X157515112Y-99384200D02*
X157591302Y-99308009D01*
X157591302Y-99308009D02*
X157629398Y-99155628D01*
X157629398Y-99155628D02*
X157629398Y-98888961D01*
X157629398Y-98888961D02*
X157591302Y-98736580D01*
X157591302Y-98736580D02*
X157515112Y-98660390D01*
X157515112Y-98660390D02*
X157438921Y-98622295D01*
X192331792Y-97372435D02*
X192407982Y-97334340D01*
X192407982Y-97334340D02*
X192522268Y-97334340D01*
X192522268Y-97334340D02*
X192636554Y-97372435D01*
X192636554Y-97372435D02*
X192712744Y-97448625D01*
X192712744Y-97448625D02*
X192750839Y-97524816D01*
X192750839Y-97524816D02*
X192788935Y-97677197D01*
X192788935Y-97677197D02*
X192788935Y-97791483D01*
X192788935Y-97791483D02*
X192750839Y-97943864D01*
X192750839Y-97943864D02*
X192712744Y-98020054D01*
X192712744Y-98020054D02*
X192636554Y-98096245D01*
X192636554Y-98096245D02*
X192522268Y-98134340D01*
X192522268Y-98134340D02*
X192446077Y-98134340D01*
X192446077Y-98134340D02*
X192331792Y-98096245D01*
X192331792Y-98096245D02*
X192293696Y-98058149D01*
X192293696Y-98058149D02*
X192293696Y-97791483D01*
X192293696Y-97791483D02*
X192446077Y-97791483D01*
X191950839Y-98134340D02*
X191950839Y-97601006D01*
X191950839Y-97753387D02*
X191912744Y-97677197D01*
X191912744Y-97677197D02*
X191874649Y-97639102D01*
X191874649Y-97639102D02*
X191798458Y-97601006D01*
X191798458Y-97601006D02*
X191722268Y-97601006D01*
X191150839Y-98096245D02*
X191227030Y-98134340D01*
X191227030Y-98134340D02*
X191379411Y-98134340D01*
X191379411Y-98134340D02*
X191455601Y-98096245D01*
X191455601Y-98096245D02*
X191493697Y-98020054D01*
X191493697Y-98020054D02*
X191493697Y-97715292D01*
X191493697Y-97715292D02*
X191455601Y-97639102D01*
X191455601Y-97639102D02*
X191379411Y-97601006D01*
X191379411Y-97601006D02*
X191227030Y-97601006D01*
X191227030Y-97601006D02*
X191150839Y-97639102D01*
X191150839Y-97639102D02*
X191112744Y-97715292D01*
X191112744Y-97715292D02*
X191112744Y-97791483D01*
X191112744Y-97791483D02*
X191493697Y-97867673D01*
X190465125Y-98096245D02*
X190541316Y-98134340D01*
X190541316Y-98134340D02*
X190693697Y-98134340D01*
X190693697Y-98134340D02*
X190769887Y-98096245D01*
X190769887Y-98096245D02*
X190807983Y-98020054D01*
X190807983Y-98020054D02*
X190807983Y-97715292D01*
X190807983Y-97715292D02*
X190769887Y-97639102D01*
X190769887Y-97639102D02*
X190693697Y-97601006D01*
X190693697Y-97601006D02*
X190541316Y-97601006D01*
X190541316Y-97601006D02*
X190465125Y-97639102D01*
X190465125Y-97639102D02*
X190427030Y-97715292D01*
X190427030Y-97715292D02*
X190427030Y-97791483D01*
X190427030Y-97791483D02*
X190807983Y-97867673D01*
X190084173Y-97601006D02*
X190084173Y-98134340D01*
X190084173Y-97677197D02*
X190046078Y-97639102D01*
X190046078Y-97639102D02*
X189969888Y-97601006D01*
X189969888Y-97601006D02*
X189855602Y-97601006D01*
X189855602Y-97601006D02*
X189779411Y-97639102D01*
X189779411Y-97639102D02*
X189741316Y-97715292D01*
X189741316Y-97715292D02*
X189741316Y-98134340D01*
X188750839Y-98134340D02*
X188750839Y-97334340D01*
X188750839Y-97334340D02*
X188446077Y-97334340D01*
X188446077Y-97334340D02*
X188369887Y-97372435D01*
X188369887Y-97372435D02*
X188331792Y-97410530D01*
X188331792Y-97410530D02*
X188293696Y-97486721D01*
X188293696Y-97486721D02*
X188293696Y-97601006D01*
X188293696Y-97601006D02*
X188331792Y-97677197D01*
X188331792Y-97677197D02*
X188369887Y-97715292D01*
X188369887Y-97715292D02*
X188446077Y-97753387D01*
X188446077Y-97753387D02*
X188750839Y-97753387D01*
X187950839Y-98134340D02*
X187950839Y-97601006D01*
X187950839Y-97334340D02*
X187988935Y-97372435D01*
X187988935Y-97372435D02*
X187950839Y-97410530D01*
X187950839Y-97410530D02*
X187912744Y-97372435D01*
X187912744Y-97372435D02*
X187950839Y-97334340D01*
X187950839Y-97334340D02*
X187950839Y-97410530D01*
X187455602Y-98134340D02*
X187531792Y-98096245D01*
X187531792Y-98096245D02*
X187569887Y-98020054D01*
X187569887Y-98020054D02*
X187569887Y-97334340D01*
X187036554Y-98134340D02*
X187112744Y-98096245D01*
X187112744Y-98096245D02*
X187150839Y-98020054D01*
X187150839Y-98020054D02*
X187150839Y-97334340D01*
X186693696Y-98096245D02*
X186693696Y-98134340D01*
X186693696Y-98134340D02*
X186731791Y-98210530D01*
X186731791Y-98210530D02*
X186769887Y-98248625D01*
X185741315Y-98134340D02*
X185741315Y-97601006D01*
X185741315Y-97753387D02*
X185703220Y-97677197D01*
X185703220Y-97677197D02*
X185665125Y-97639102D01*
X185665125Y-97639102D02*
X185588934Y-97601006D01*
X185588934Y-97601006D02*
X185512744Y-97601006D01*
X184941315Y-98096245D02*
X185017506Y-98134340D01*
X185017506Y-98134340D02*
X185169887Y-98134340D01*
X185169887Y-98134340D02*
X185246077Y-98096245D01*
X185246077Y-98096245D02*
X185284173Y-98020054D01*
X185284173Y-98020054D02*
X185284173Y-97715292D01*
X185284173Y-97715292D02*
X185246077Y-97639102D01*
X185246077Y-97639102D02*
X185169887Y-97601006D01*
X185169887Y-97601006D02*
X185017506Y-97601006D01*
X185017506Y-97601006D02*
X184941315Y-97639102D01*
X184941315Y-97639102D02*
X184903220Y-97715292D01*
X184903220Y-97715292D02*
X184903220Y-97791483D01*
X184903220Y-97791483D02*
X185284173Y-97867673D01*
X184636554Y-97601006D02*
X184446078Y-98134340D01*
X184446078Y-98134340D02*
X184255601Y-97601006D01*
X183950839Y-98058149D02*
X183912744Y-98096245D01*
X183912744Y-98096245D02*
X183950839Y-98134340D01*
X183950839Y-98134340D02*
X183988935Y-98096245D01*
X183988935Y-98096245D02*
X183950839Y-98058149D01*
X183950839Y-98058149D02*
X183950839Y-98134340D01*
X182617506Y-98134340D02*
X182617506Y-97334340D01*
X182617506Y-98096245D02*
X182693697Y-98134340D01*
X182693697Y-98134340D02*
X182846078Y-98134340D01*
X182846078Y-98134340D02*
X182922268Y-98096245D01*
X182922268Y-98096245D02*
X182960363Y-98058149D01*
X182960363Y-98058149D02*
X182998459Y-97981959D01*
X182998459Y-97981959D02*
X182998459Y-97753387D01*
X182998459Y-97753387D02*
X182960363Y-97677197D01*
X182960363Y-97677197D02*
X182922268Y-97639102D01*
X182922268Y-97639102D02*
X182846078Y-97601006D01*
X182846078Y-97601006D02*
X182693697Y-97601006D01*
X182693697Y-97601006D02*
X182617506Y-97639102D01*
X192788935Y-99384200D02*
X192674649Y-99422295D01*
X192674649Y-99422295D02*
X192484173Y-99422295D01*
X192484173Y-99422295D02*
X192407982Y-99384200D01*
X192407982Y-99384200D02*
X192369887Y-99346104D01*
X192369887Y-99346104D02*
X192331792Y-99269914D01*
X192331792Y-99269914D02*
X192331792Y-99193723D01*
X192331792Y-99193723D02*
X192369887Y-99117533D01*
X192369887Y-99117533D02*
X192407982Y-99079438D01*
X192407982Y-99079438D02*
X192484173Y-99041342D01*
X192484173Y-99041342D02*
X192636554Y-99003247D01*
X192636554Y-99003247D02*
X192712744Y-98965152D01*
X192712744Y-98965152D02*
X192750839Y-98927057D01*
X192750839Y-98927057D02*
X192788935Y-98850866D01*
X192788935Y-98850866D02*
X192788935Y-98774676D01*
X192788935Y-98774676D02*
X192750839Y-98698485D01*
X192750839Y-98698485D02*
X192712744Y-98660390D01*
X192712744Y-98660390D02*
X192636554Y-98622295D01*
X192636554Y-98622295D02*
X192446077Y-98622295D01*
X192446077Y-98622295D02*
X192331792Y-98660390D01*
X192103220Y-98622295D02*
X191646077Y-98622295D01*
X191874649Y-99422295D02*
X191874649Y-98622295D01*
X191379410Y-99422295D02*
X191379410Y-98622295D01*
X191379410Y-98622295D02*
X191112744Y-99193723D01*
X191112744Y-99193723D02*
X190846077Y-98622295D01*
X190846077Y-98622295D02*
X190846077Y-99422295D01*
X190541315Y-98622295D02*
X190046077Y-98622295D01*
X190046077Y-98622295D02*
X190312743Y-98927057D01*
X190312743Y-98927057D02*
X190198458Y-98927057D01*
X190198458Y-98927057D02*
X190122267Y-98965152D01*
X190122267Y-98965152D02*
X190084172Y-99003247D01*
X190084172Y-99003247D02*
X190046077Y-99079438D01*
X190046077Y-99079438D02*
X190046077Y-99269914D01*
X190046077Y-99269914D02*
X190084172Y-99346104D01*
X190084172Y-99346104D02*
X190122267Y-99384200D01*
X190122267Y-99384200D02*
X190198458Y-99422295D01*
X190198458Y-99422295D02*
X190427029Y-99422295D01*
X190427029Y-99422295D02*
X190503220Y-99384200D01*
X190503220Y-99384200D02*
X190541315Y-99346104D01*
X189741315Y-98698485D02*
X189703219Y-98660390D01*
X189703219Y-98660390D02*
X189627029Y-98622295D01*
X189627029Y-98622295D02*
X189436553Y-98622295D01*
X189436553Y-98622295D02*
X189360362Y-98660390D01*
X189360362Y-98660390D02*
X189322267Y-98698485D01*
X189322267Y-98698485D02*
X189284172Y-98774676D01*
X189284172Y-98774676D02*
X189284172Y-98850866D01*
X189284172Y-98850866D02*
X189322267Y-98965152D01*
X189322267Y-98965152D02*
X189779410Y-99422295D01*
X189779410Y-99422295D02*
X189284172Y-99422295D01*
X188674648Y-99003247D02*
X188941314Y-99003247D01*
X188941314Y-99422295D02*
X188941314Y-98622295D01*
X188941314Y-98622295D02*
X188560362Y-98622295D01*
X187836553Y-99422295D02*
X188293696Y-99422295D01*
X188065124Y-99422295D02*
X188065124Y-98622295D01*
X188065124Y-98622295D02*
X188141315Y-98736580D01*
X188141315Y-98736580D02*
X188217505Y-98812771D01*
X188217505Y-98812771D02*
X188293696Y-98850866D01*
X187341314Y-98622295D02*
X187265124Y-98622295D01*
X187265124Y-98622295D02*
X187188933Y-98660390D01*
X187188933Y-98660390D02*
X187150838Y-98698485D01*
X187150838Y-98698485D02*
X187112743Y-98774676D01*
X187112743Y-98774676D02*
X187074648Y-98927057D01*
X187074648Y-98927057D02*
X187074648Y-99117533D01*
X187074648Y-99117533D02*
X187112743Y-99269914D01*
X187112743Y-99269914D02*
X187150838Y-99346104D01*
X187150838Y-99346104D02*
X187188933Y-99384200D01*
X187188933Y-99384200D02*
X187265124Y-99422295D01*
X187265124Y-99422295D02*
X187341314Y-99422295D01*
X187341314Y-99422295D02*
X187417505Y-99384200D01*
X187417505Y-99384200D02*
X187455600Y-99346104D01*
X187455600Y-99346104D02*
X187493695Y-99269914D01*
X187493695Y-99269914D02*
X187531791Y-99117533D01*
X187531791Y-99117533D02*
X187531791Y-98927057D01*
X187531791Y-98927057D02*
X187493695Y-98774676D01*
X187493695Y-98774676D02*
X187455600Y-98698485D01*
X187455600Y-98698485D02*
X187417505Y-98660390D01*
X187417505Y-98660390D02*
X187341314Y-98622295D01*
X186807981Y-98622295D02*
X186312743Y-98622295D01*
X186312743Y-98622295D02*
X186579409Y-98927057D01*
X186579409Y-98927057D02*
X186465124Y-98927057D01*
X186465124Y-98927057D02*
X186388933Y-98965152D01*
X186388933Y-98965152D02*
X186350838Y-99003247D01*
X186350838Y-99003247D02*
X186312743Y-99079438D01*
X186312743Y-99079438D02*
X186312743Y-99269914D01*
X186312743Y-99269914D02*
X186350838Y-99346104D01*
X186350838Y-99346104D02*
X186388933Y-99384200D01*
X186388933Y-99384200D02*
X186465124Y-99422295D01*
X186465124Y-99422295D02*
X186693695Y-99422295D01*
X186693695Y-99422295D02*
X186769886Y-99384200D01*
X186769886Y-99384200D02*
X186807981Y-99346104D01*
X185360361Y-99422295D02*
X185360361Y-98622295D01*
X185360361Y-98622295D02*
X185169885Y-98622295D01*
X185169885Y-98622295D02*
X185055599Y-98660390D01*
X185055599Y-98660390D02*
X184979409Y-98736580D01*
X184979409Y-98736580D02*
X184941314Y-98812771D01*
X184941314Y-98812771D02*
X184903218Y-98965152D01*
X184903218Y-98965152D02*
X184903218Y-99079438D01*
X184903218Y-99079438D02*
X184941314Y-99231819D01*
X184941314Y-99231819D02*
X184979409Y-99308009D01*
X184979409Y-99308009D02*
X185055599Y-99384200D01*
X185055599Y-99384200D02*
X185169885Y-99422295D01*
X185169885Y-99422295D02*
X185360361Y-99422295D01*
X184255599Y-99384200D02*
X184331790Y-99422295D01*
X184331790Y-99422295D02*
X184484171Y-99422295D01*
X184484171Y-99422295D02*
X184560361Y-99384200D01*
X184560361Y-99384200D02*
X184598457Y-99308009D01*
X184598457Y-99308009D02*
X184598457Y-99003247D01*
X184598457Y-99003247D02*
X184560361Y-98927057D01*
X184560361Y-98927057D02*
X184484171Y-98888961D01*
X184484171Y-98888961D02*
X184331790Y-98888961D01*
X184331790Y-98888961D02*
X184255599Y-98927057D01*
X184255599Y-98927057D02*
X184217504Y-99003247D01*
X184217504Y-99003247D02*
X184217504Y-99079438D01*
X184217504Y-99079438D02*
X184598457Y-99155628D01*
X183950838Y-98888961D02*
X183760362Y-99422295D01*
X183760362Y-99422295D02*
X183569885Y-98888961D01*
X182960361Y-99384200D02*
X183036552Y-99422295D01*
X183036552Y-99422295D02*
X183188933Y-99422295D01*
X183188933Y-99422295D02*
X183265123Y-99384200D01*
X183265123Y-99384200D02*
X183303219Y-99308009D01*
X183303219Y-99308009D02*
X183303219Y-99003247D01*
X183303219Y-99003247D02*
X183265123Y-98927057D01*
X183265123Y-98927057D02*
X183188933Y-98888961D01*
X183188933Y-98888961D02*
X183036552Y-98888961D01*
X183036552Y-98888961D02*
X182960361Y-98927057D01*
X182960361Y-98927057D02*
X182922266Y-99003247D01*
X182922266Y-99003247D02*
X182922266Y-99079438D01*
X182922266Y-99079438D02*
X183303219Y-99155628D01*
X182465124Y-99422295D02*
X182541314Y-99384200D01*
X182541314Y-99384200D02*
X182579409Y-99308009D01*
X182579409Y-99308009D02*
X182579409Y-98622295D01*
X182046076Y-99422295D02*
X182122266Y-99384200D01*
X182122266Y-99384200D02*
X182160361Y-99346104D01*
X182160361Y-99346104D02*
X182198457Y-99269914D01*
X182198457Y-99269914D02*
X182198457Y-99041342D01*
X182198457Y-99041342D02*
X182160361Y-98965152D01*
X182160361Y-98965152D02*
X182122266Y-98927057D01*
X182122266Y-98927057D02*
X182046076Y-98888961D01*
X182046076Y-98888961D02*
X181931790Y-98888961D01*
X181931790Y-98888961D02*
X181855599Y-98927057D01*
X181855599Y-98927057D02*
X181817504Y-98965152D01*
X181817504Y-98965152D02*
X181779409Y-99041342D01*
X181779409Y-99041342D02*
X181779409Y-99269914D01*
X181779409Y-99269914D02*
X181817504Y-99346104D01*
X181817504Y-99346104D02*
X181855599Y-99384200D01*
X181855599Y-99384200D02*
X181931790Y-99422295D01*
X181931790Y-99422295D02*
X182046076Y-99422295D01*
X181436551Y-98888961D02*
X181436551Y-99688961D01*
X181436551Y-98927057D02*
X181360361Y-98888961D01*
X181360361Y-98888961D02*
X181207980Y-98888961D01*
X181207980Y-98888961D02*
X181131789Y-98927057D01*
X181131789Y-98927057D02*
X181093694Y-98965152D01*
X181093694Y-98965152D02*
X181055599Y-99041342D01*
X181055599Y-99041342D02*
X181055599Y-99269914D01*
X181055599Y-99269914D02*
X181093694Y-99346104D01*
X181093694Y-99346104D02*
X181131789Y-99384200D01*
X181131789Y-99384200D02*
X181207980Y-99422295D01*
X181207980Y-99422295D02*
X181360361Y-99422295D01*
X181360361Y-99422295D02*
X181436551Y-99384200D01*
X180712741Y-99422295D02*
X180712741Y-98888961D01*
X180712741Y-98965152D02*
X180674646Y-98927057D01*
X180674646Y-98927057D02*
X180598456Y-98888961D01*
X180598456Y-98888961D02*
X180484170Y-98888961D01*
X180484170Y-98888961D02*
X180407979Y-98927057D01*
X180407979Y-98927057D02*
X180369884Y-99003247D01*
X180369884Y-99003247D02*
X180369884Y-99422295D01*
X180369884Y-99003247D02*
X180331789Y-98927057D01*
X180331789Y-98927057D02*
X180255598Y-98888961D01*
X180255598Y-98888961D02*
X180141313Y-98888961D01*
X180141313Y-98888961D02*
X180065122Y-98927057D01*
X180065122Y-98927057D02*
X180027027Y-99003247D01*
X180027027Y-99003247D02*
X180027027Y-99422295D01*
X179341312Y-99384200D02*
X179417503Y-99422295D01*
X179417503Y-99422295D02*
X179569884Y-99422295D01*
X179569884Y-99422295D02*
X179646074Y-99384200D01*
X179646074Y-99384200D02*
X179684170Y-99308009D01*
X179684170Y-99308009D02*
X179684170Y-99003247D01*
X179684170Y-99003247D02*
X179646074Y-98927057D01*
X179646074Y-98927057D02*
X179569884Y-98888961D01*
X179569884Y-98888961D02*
X179417503Y-98888961D01*
X179417503Y-98888961D02*
X179341312Y-98927057D01*
X179341312Y-98927057D02*
X179303217Y-99003247D01*
X179303217Y-99003247D02*
X179303217Y-99079438D01*
X179303217Y-99079438D02*
X179684170Y-99155628D01*
X178960360Y-98888961D02*
X178960360Y-99422295D01*
X178960360Y-98965152D02*
X178922265Y-98927057D01*
X178922265Y-98927057D02*
X178846075Y-98888961D01*
X178846075Y-98888961D02*
X178731789Y-98888961D01*
X178731789Y-98888961D02*
X178655598Y-98927057D01*
X178655598Y-98927057D02*
X178617503Y-99003247D01*
X178617503Y-99003247D02*
X178617503Y-99422295D01*
X178350836Y-98888961D02*
X178046074Y-98888961D01*
X178236550Y-98622295D02*
X178236550Y-99308009D01*
X178236550Y-99308009D02*
X178198455Y-99384200D01*
X178198455Y-99384200D02*
X178122265Y-99422295D01*
X178122265Y-99422295D02*
X178046074Y-99422295D01*
X176903217Y-99003247D02*
X176788931Y-99041342D01*
X176788931Y-99041342D02*
X176750836Y-99079438D01*
X176750836Y-99079438D02*
X176712740Y-99155628D01*
X176712740Y-99155628D02*
X176712740Y-99269914D01*
X176712740Y-99269914D02*
X176750836Y-99346104D01*
X176750836Y-99346104D02*
X176788931Y-99384200D01*
X176788931Y-99384200D02*
X176865121Y-99422295D01*
X176865121Y-99422295D02*
X177169883Y-99422295D01*
X177169883Y-99422295D02*
X177169883Y-98622295D01*
X177169883Y-98622295D02*
X176903217Y-98622295D01*
X176903217Y-98622295D02*
X176827026Y-98660390D01*
X176827026Y-98660390D02*
X176788931Y-98698485D01*
X176788931Y-98698485D02*
X176750836Y-98774676D01*
X176750836Y-98774676D02*
X176750836Y-98850866D01*
X176750836Y-98850866D02*
X176788931Y-98927057D01*
X176788931Y-98927057D02*
X176827026Y-98965152D01*
X176827026Y-98965152D02*
X176903217Y-99003247D01*
X176903217Y-99003247D02*
X177169883Y-99003247D01*
X176255598Y-99422295D02*
X176331788Y-99384200D01*
X176331788Y-99384200D02*
X176369883Y-99346104D01*
X176369883Y-99346104D02*
X176407979Y-99269914D01*
X176407979Y-99269914D02*
X176407979Y-99041342D01*
X176407979Y-99041342D02*
X176369883Y-98965152D01*
X176369883Y-98965152D02*
X176331788Y-98927057D01*
X176331788Y-98927057D02*
X176255598Y-98888961D01*
X176255598Y-98888961D02*
X176141312Y-98888961D01*
X176141312Y-98888961D02*
X176065121Y-98927057D01*
X176065121Y-98927057D02*
X176027026Y-98965152D01*
X176027026Y-98965152D02*
X175988931Y-99041342D01*
X175988931Y-99041342D02*
X175988931Y-99269914D01*
X175988931Y-99269914D02*
X176027026Y-99346104D01*
X176027026Y-99346104D02*
X176065121Y-99384200D01*
X176065121Y-99384200D02*
X176141312Y-99422295D01*
X176141312Y-99422295D02*
X176255598Y-99422295D01*
X175303216Y-99422295D02*
X175303216Y-99003247D01*
X175303216Y-99003247D02*
X175341311Y-98927057D01*
X175341311Y-98927057D02*
X175417502Y-98888961D01*
X175417502Y-98888961D02*
X175569883Y-98888961D01*
X175569883Y-98888961D02*
X175646073Y-98927057D01*
X175303216Y-99384200D02*
X175379407Y-99422295D01*
X175379407Y-99422295D02*
X175569883Y-99422295D01*
X175569883Y-99422295D02*
X175646073Y-99384200D01*
X175646073Y-99384200D02*
X175684169Y-99308009D01*
X175684169Y-99308009D02*
X175684169Y-99231819D01*
X175684169Y-99231819D02*
X175646073Y-99155628D01*
X175646073Y-99155628D02*
X175569883Y-99117533D01*
X175569883Y-99117533D02*
X175379407Y-99117533D01*
X175379407Y-99117533D02*
X175303216Y-99079438D01*
X174922263Y-99422295D02*
X174922263Y-98888961D01*
X174922263Y-99041342D02*
X174884168Y-98965152D01*
X174884168Y-98965152D02*
X174846073Y-98927057D01*
X174846073Y-98927057D02*
X174769882Y-98888961D01*
X174769882Y-98888961D02*
X174693692Y-98888961D01*
X174084168Y-99422295D02*
X174084168Y-98622295D01*
X174084168Y-99384200D02*
X174160359Y-99422295D01*
X174160359Y-99422295D02*
X174312740Y-99422295D01*
X174312740Y-99422295D02*
X174388930Y-99384200D01*
X174388930Y-99384200D02*
X174427025Y-99346104D01*
X174427025Y-99346104D02*
X174465121Y-99269914D01*
X174465121Y-99269914D02*
X174465121Y-99041342D01*
X174465121Y-99041342D02*
X174427025Y-98965152D01*
X174427025Y-98965152D02*
X174388930Y-98927057D01*
X174388930Y-98927057D02*
X174312740Y-98888961D01*
X174312740Y-98888961D02*
X174160359Y-98888961D01*
X174160359Y-98888961D02*
X174084168Y-98927057D01*
X192103220Y-100100726D02*
X192179411Y-100062631D01*
X192179411Y-100062631D02*
X192331792Y-100062631D01*
X192331792Y-100062631D02*
X192407982Y-100100726D01*
X192407982Y-100100726D02*
X192484173Y-100176916D01*
X192484173Y-100176916D02*
X192522268Y-100253107D01*
X192522268Y-100253107D02*
X192522268Y-100405488D01*
X192522268Y-100405488D02*
X192484173Y-100481678D01*
X192484173Y-100481678D02*
X192407982Y-100557869D01*
X192407982Y-100557869D02*
X192331792Y-100595964D01*
X192331792Y-100595964D02*
X192179411Y-100595964D01*
X192179411Y-100595964D02*
X192103220Y-100557869D01*
X192255601Y-99795964D02*
X192446077Y-99834059D01*
X192446077Y-99834059D02*
X192636554Y-99948345D01*
X192636554Y-99948345D02*
X192750839Y-100138821D01*
X192750839Y-100138821D02*
X192788935Y-100329297D01*
X192788935Y-100329297D02*
X192750839Y-100519774D01*
X192750839Y-100519774D02*
X192636554Y-100710250D01*
X192636554Y-100710250D02*
X192446077Y-100824535D01*
X192446077Y-100824535D02*
X192255601Y-100862631D01*
X192255601Y-100862631D02*
X192065125Y-100824535D01*
X192065125Y-100824535D02*
X191874649Y-100710250D01*
X191874649Y-100710250D02*
X191760363Y-100519774D01*
X191760363Y-100519774D02*
X191722268Y-100329297D01*
X191722268Y-100329297D02*
X191760363Y-100138821D01*
X191760363Y-100138821D02*
X191874649Y-99948345D01*
X191874649Y-99948345D02*
X192065125Y-99834059D01*
X192065125Y-99834059D02*
X192255601Y-99795964D01*
X190807982Y-99986440D02*
X190769886Y-99948345D01*
X190769886Y-99948345D02*
X190693696Y-99910250D01*
X190693696Y-99910250D02*
X190503220Y-99910250D01*
X190503220Y-99910250D02*
X190427029Y-99948345D01*
X190427029Y-99948345D02*
X190388934Y-99986440D01*
X190388934Y-99986440D02*
X190350839Y-100062631D01*
X190350839Y-100062631D02*
X190350839Y-100138821D01*
X190350839Y-100138821D02*
X190388934Y-100253107D01*
X190388934Y-100253107D02*
X190846077Y-100710250D01*
X190846077Y-100710250D02*
X190350839Y-100710250D01*
X189855600Y-99910250D02*
X189779410Y-99910250D01*
X189779410Y-99910250D02*
X189703219Y-99948345D01*
X189703219Y-99948345D02*
X189665124Y-99986440D01*
X189665124Y-99986440D02*
X189627029Y-100062631D01*
X189627029Y-100062631D02*
X189588934Y-100215012D01*
X189588934Y-100215012D02*
X189588934Y-100405488D01*
X189588934Y-100405488D02*
X189627029Y-100557869D01*
X189627029Y-100557869D02*
X189665124Y-100634059D01*
X189665124Y-100634059D02*
X189703219Y-100672155D01*
X189703219Y-100672155D02*
X189779410Y-100710250D01*
X189779410Y-100710250D02*
X189855600Y-100710250D01*
X189855600Y-100710250D02*
X189931791Y-100672155D01*
X189931791Y-100672155D02*
X189969886Y-100634059D01*
X189969886Y-100634059D02*
X190007981Y-100557869D01*
X190007981Y-100557869D02*
X190046077Y-100405488D01*
X190046077Y-100405488D02*
X190046077Y-100215012D01*
X190046077Y-100215012D02*
X190007981Y-100062631D01*
X190007981Y-100062631D02*
X189969886Y-99986440D01*
X189969886Y-99986440D02*
X189931791Y-99948345D01*
X189931791Y-99948345D02*
X189855600Y-99910250D01*
X189284172Y-99986440D02*
X189246076Y-99948345D01*
X189246076Y-99948345D02*
X189169886Y-99910250D01*
X189169886Y-99910250D02*
X188979410Y-99910250D01*
X188979410Y-99910250D02*
X188903219Y-99948345D01*
X188903219Y-99948345D02*
X188865124Y-99986440D01*
X188865124Y-99986440D02*
X188827029Y-100062631D01*
X188827029Y-100062631D02*
X188827029Y-100138821D01*
X188827029Y-100138821D02*
X188865124Y-100253107D01*
X188865124Y-100253107D02*
X189322267Y-100710250D01*
X189322267Y-100710250D02*
X188827029Y-100710250D01*
X188103219Y-99910250D02*
X188484171Y-99910250D01*
X188484171Y-99910250D02*
X188522267Y-100291202D01*
X188522267Y-100291202D02*
X188484171Y-100253107D01*
X188484171Y-100253107D02*
X188407981Y-100215012D01*
X188407981Y-100215012D02*
X188217505Y-100215012D01*
X188217505Y-100215012D02*
X188141314Y-100253107D01*
X188141314Y-100253107D02*
X188103219Y-100291202D01*
X188103219Y-100291202D02*
X188065124Y-100367393D01*
X188065124Y-100367393D02*
X188065124Y-100557869D01*
X188065124Y-100557869D02*
X188103219Y-100634059D01*
X188103219Y-100634059D02*
X188141314Y-100672155D01*
X188141314Y-100672155D02*
X188217505Y-100710250D01*
X188217505Y-100710250D02*
X188407981Y-100710250D01*
X188407981Y-100710250D02*
X188484171Y-100672155D01*
X188484171Y-100672155D02*
X188522267Y-100634059D01*
X186731790Y-100710250D02*
X187112742Y-100710250D01*
X187112742Y-100710250D02*
X187112742Y-99910250D01*
X186122266Y-100710250D02*
X186122266Y-100291202D01*
X186122266Y-100291202D02*
X186160361Y-100215012D01*
X186160361Y-100215012D02*
X186236552Y-100176916D01*
X186236552Y-100176916D02*
X186388933Y-100176916D01*
X186388933Y-100176916D02*
X186465123Y-100215012D01*
X186122266Y-100672155D02*
X186198457Y-100710250D01*
X186198457Y-100710250D02*
X186388933Y-100710250D01*
X186388933Y-100710250D02*
X186465123Y-100672155D01*
X186465123Y-100672155D02*
X186503219Y-100595964D01*
X186503219Y-100595964D02*
X186503219Y-100519774D01*
X186503219Y-100519774D02*
X186465123Y-100443583D01*
X186465123Y-100443583D02*
X186388933Y-100405488D01*
X186388933Y-100405488D02*
X186198457Y-100405488D01*
X186198457Y-100405488D02*
X186122266Y-100367393D01*
X185741313Y-100710250D02*
X185741313Y-100176916D01*
X185741313Y-100329297D02*
X185703218Y-100253107D01*
X185703218Y-100253107D02*
X185665123Y-100215012D01*
X185665123Y-100215012D02*
X185588932Y-100176916D01*
X185588932Y-100176916D02*
X185512742Y-100176916D01*
X185284171Y-100672155D02*
X185207980Y-100710250D01*
X185207980Y-100710250D02*
X185055599Y-100710250D01*
X185055599Y-100710250D02*
X184979409Y-100672155D01*
X184979409Y-100672155D02*
X184941313Y-100595964D01*
X184941313Y-100595964D02*
X184941313Y-100557869D01*
X184941313Y-100557869D02*
X184979409Y-100481678D01*
X184979409Y-100481678D02*
X185055599Y-100443583D01*
X185055599Y-100443583D02*
X185169885Y-100443583D01*
X185169885Y-100443583D02*
X185246075Y-100405488D01*
X185246075Y-100405488D02*
X185284171Y-100329297D01*
X185284171Y-100329297D02*
X185284171Y-100291202D01*
X185284171Y-100291202D02*
X185246075Y-100215012D01*
X185246075Y-100215012D02*
X185169885Y-100176916D01*
X185169885Y-100176916D02*
X185055599Y-100176916D01*
X185055599Y-100176916D02*
X184979409Y-100215012D01*
X183722266Y-100291202D02*
X183607980Y-100329297D01*
X183607980Y-100329297D02*
X183569885Y-100367393D01*
X183569885Y-100367393D02*
X183531789Y-100443583D01*
X183531789Y-100443583D02*
X183531789Y-100557869D01*
X183531789Y-100557869D02*
X183569885Y-100634059D01*
X183569885Y-100634059D02*
X183607980Y-100672155D01*
X183607980Y-100672155D02*
X183684170Y-100710250D01*
X183684170Y-100710250D02*
X183988932Y-100710250D01*
X183988932Y-100710250D02*
X183988932Y-99910250D01*
X183988932Y-99910250D02*
X183722266Y-99910250D01*
X183722266Y-99910250D02*
X183646075Y-99948345D01*
X183646075Y-99948345D02*
X183607980Y-99986440D01*
X183607980Y-99986440D02*
X183569885Y-100062631D01*
X183569885Y-100062631D02*
X183569885Y-100138821D01*
X183569885Y-100138821D02*
X183607980Y-100215012D01*
X183607980Y-100215012D02*
X183646075Y-100253107D01*
X183646075Y-100253107D02*
X183722266Y-100291202D01*
X183722266Y-100291202D02*
X183988932Y-100291202D01*
X183074647Y-100710250D02*
X183150837Y-100672155D01*
X183150837Y-100672155D02*
X183188932Y-100634059D01*
X183188932Y-100634059D02*
X183227028Y-100557869D01*
X183227028Y-100557869D02*
X183227028Y-100329297D01*
X183227028Y-100329297D02*
X183188932Y-100253107D01*
X183188932Y-100253107D02*
X183150837Y-100215012D01*
X183150837Y-100215012D02*
X183074647Y-100176916D01*
X183074647Y-100176916D02*
X182960361Y-100176916D01*
X182960361Y-100176916D02*
X182884170Y-100215012D01*
X182884170Y-100215012D02*
X182846075Y-100253107D01*
X182846075Y-100253107D02*
X182807980Y-100329297D01*
X182807980Y-100329297D02*
X182807980Y-100557869D01*
X182807980Y-100557869D02*
X182846075Y-100634059D01*
X182846075Y-100634059D02*
X182884170Y-100672155D01*
X182884170Y-100672155D02*
X182960361Y-100710250D01*
X182960361Y-100710250D02*
X183074647Y-100710250D01*
X182160360Y-100672155D02*
X182236551Y-100710250D01*
X182236551Y-100710250D02*
X182388932Y-100710250D01*
X182388932Y-100710250D02*
X182465122Y-100672155D01*
X182465122Y-100672155D02*
X182503218Y-100595964D01*
X182503218Y-100595964D02*
X182503218Y-100291202D01*
X182503218Y-100291202D02*
X182465122Y-100215012D01*
X182465122Y-100215012D02*
X182388932Y-100176916D01*
X182388932Y-100176916D02*
X182236551Y-100176916D01*
X182236551Y-100176916D02*
X182160360Y-100215012D01*
X182160360Y-100215012D02*
X182122265Y-100291202D01*
X182122265Y-100291202D02*
X182122265Y-100367393D01*
X182122265Y-100367393D02*
X182503218Y-100443583D01*
X181436551Y-100176916D02*
X181436551Y-100824535D01*
X181436551Y-100824535D02*
X181474646Y-100900726D01*
X181474646Y-100900726D02*
X181512742Y-100938821D01*
X181512742Y-100938821D02*
X181588932Y-100976916D01*
X181588932Y-100976916D02*
X181703218Y-100976916D01*
X181703218Y-100976916D02*
X181779408Y-100938821D01*
X181436551Y-100672155D02*
X181512742Y-100710250D01*
X181512742Y-100710250D02*
X181665123Y-100710250D01*
X181665123Y-100710250D02*
X181741313Y-100672155D01*
X181741313Y-100672155D02*
X181779408Y-100634059D01*
X181779408Y-100634059D02*
X181817504Y-100557869D01*
X181817504Y-100557869D02*
X181817504Y-100329297D01*
X181817504Y-100329297D02*
X181779408Y-100253107D01*
X181779408Y-100253107D02*
X181741313Y-100215012D01*
X181741313Y-100215012D02*
X181665123Y-100176916D01*
X181665123Y-100176916D02*
X181512742Y-100176916D01*
X181512742Y-100176916D02*
X181436551Y-100215012D01*
X181055598Y-100710250D02*
X181055598Y-100176916D01*
X181055598Y-99910250D02*
X181093694Y-99948345D01*
X181093694Y-99948345D02*
X181055598Y-99986440D01*
X181055598Y-99986440D02*
X181017503Y-99948345D01*
X181017503Y-99948345D02*
X181055598Y-99910250D01*
X181055598Y-99910250D02*
X181055598Y-99986440D01*
X180560361Y-100710250D02*
X180636551Y-100672155D01*
X180636551Y-100672155D02*
X180674646Y-100595964D01*
X180674646Y-100595964D02*
X180674646Y-99910250D01*
X179912741Y-100710250D02*
X179912741Y-99910250D01*
X179912741Y-100672155D02*
X179988932Y-100710250D01*
X179988932Y-100710250D02*
X180141313Y-100710250D01*
X180141313Y-100710250D02*
X180217503Y-100672155D01*
X180217503Y-100672155D02*
X180255598Y-100634059D01*
X180255598Y-100634059D02*
X180293694Y-100557869D01*
X180293694Y-100557869D02*
X180293694Y-100329297D01*
X180293694Y-100329297D02*
X180255598Y-100253107D01*
X180255598Y-100253107D02*
X180217503Y-100215012D01*
X180217503Y-100215012D02*
X180141313Y-100176916D01*
X180141313Y-100176916D02*
X179988932Y-100176916D01*
X179988932Y-100176916D02*
X179912741Y-100215012D01*
X179036550Y-99910250D02*
X178579407Y-99910250D01*
X178807979Y-100710250D02*
X178807979Y-99910250D01*
X178312740Y-100710250D02*
X178312740Y-99910250D01*
X177969883Y-100710250D02*
X177969883Y-100291202D01*
X177969883Y-100291202D02*
X178007978Y-100215012D01*
X178007978Y-100215012D02*
X178084169Y-100176916D01*
X178084169Y-100176916D02*
X178198455Y-100176916D01*
X178198455Y-100176916D02*
X178274645Y-100215012D01*
X178274645Y-100215012D02*
X178312740Y-100253107D01*
X177474645Y-100710250D02*
X177550835Y-100672155D01*
X177550835Y-100672155D02*
X177588930Y-100634059D01*
X177588930Y-100634059D02*
X177627026Y-100557869D01*
X177627026Y-100557869D02*
X177627026Y-100329297D01*
X177627026Y-100329297D02*
X177588930Y-100253107D01*
X177588930Y-100253107D02*
X177550835Y-100215012D01*
X177550835Y-100215012D02*
X177474645Y-100176916D01*
X177474645Y-100176916D02*
X177360359Y-100176916D01*
X177360359Y-100176916D02*
X177284168Y-100215012D01*
X177284168Y-100215012D02*
X177246073Y-100253107D01*
X177246073Y-100253107D02*
X177207978Y-100329297D01*
X177207978Y-100329297D02*
X177207978Y-100557869D01*
X177207978Y-100557869D02*
X177246073Y-100634059D01*
X177246073Y-100634059D02*
X177284168Y-100672155D01*
X177284168Y-100672155D02*
X177360359Y-100710250D01*
X177360359Y-100710250D02*
X177474645Y-100710250D01*
X176865120Y-100710250D02*
X176865120Y-100176916D01*
X176865120Y-100253107D02*
X176827025Y-100215012D01*
X176827025Y-100215012D02*
X176750835Y-100176916D01*
X176750835Y-100176916D02*
X176636549Y-100176916D01*
X176636549Y-100176916D02*
X176560358Y-100215012D01*
X176560358Y-100215012D02*
X176522263Y-100291202D01*
X176522263Y-100291202D02*
X176522263Y-100710250D01*
X176522263Y-100291202D02*
X176484168Y-100215012D01*
X176484168Y-100215012D02*
X176407977Y-100176916D01*
X176407977Y-100176916D02*
X176293692Y-100176916D01*
X176293692Y-100176916D02*
X176217501Y-100215012D01*
X176217501Y-100215012D02*
X176179406Y-100291202D01*
X176179406Y-100291202D02*
X176179406Y-100710250D01*
X175836549Y-100672155D02*
X175760358Y-100710250D01*
X175760358Y-100710250D02*
X175607977Y-100710250D01*
X175607977Y-100710250D02*
X175531787Y-100672155D01*
X175531787Y-100672155D02*
X175493691Y-100595964D01*
X175493691Y-100595964D02*
X175493691Y-100557869D01*
X175493691Y-100557869D02*
X175531787Y-100481678D01*
X175531787Y-100481678D02*
X175607977Y-100443583D01*
X175607977Y-100443583D02*
X175722263Y-100443583D01*
X175722263Y-100443583D02*
X175798453Y-100405488D01*
X175798453Y-100405488D02*
X175836549Y-100329297D01*
X175836549Y-100329297D02*
X175836549Y-100291202D01*
X175836549Y-100291202D02*
X175798453Y-100215012D01*
X175798453Y-100215012D02*
X175722263Y-100176916D01*
X175722263Y-100176916D02*
X175607977Y-100176916D01*
X175607977Y-100176916D02*
X175531787Y-100215012D01*
X174846072Y-100672155D02*
X174922263Y-100710250D01*
X174922263Y-100710250D02*
X175074644Y-100710250D01*
X175074644Y-100710250D02*
X175150834Y-100672155D01*
X175150834Y-100672155D02*
X175188930Y-100595964D01*
X175188930Y-100595964D02*
X175188930Y-100291202D01*
X175188930Y-100291202D02*
X175150834Y-100215012D01*
X175150834Y-100215012D02*
X175074644Y-100176916D01*
X175074644Y-100176916D02*
X174922263Y-100176916D01*
X174922263Y-100176916D02*
X174846072Y-100215012D01*
X174846072Y-100215012D02*
X174807977Y-100291202D01*
X174807977Y-100291202D02*
X174807977Y-100367393D01*
X174807977Y-100367393D02*
X175188930Y-100443583D01*
X174465120Y-100176916D02*
X174465120Y-100710250D01*
X174465120Y-100253107D02*
X174427025Y-100215012D01*
X174427025Y-100215012D02*
X174350835Y-100176916D01*
X174350835Y-100176916D02*
X174236549Y-100176916D01*
X174236549Y-100176916D02*
X174160358Y-100215012D01*
X174160358Y-100215012D02*
X174122263Y-100291202D01*
X174122263Y-100291202D02*
X174122263Y-100710250D01*
X192522268Y-106877295D02*
X192522268Y-107448723D01*
X192522268Y-107448723D02*
X192560363Y-107563009D01*
X192560363Y-107563009D02*
X192636554Y-107639200D01*
X192636554Y-107639200D02*
X192750839Y-107677295D01*
X192750839Y-107677295D02*
X192827030Y-107677295D01*
X191760363Y-107677295D02*
X192141315Y-107677295D01*
X192141315Y-107677295D02*
X192141315Y-106877295D01*
X191036553Y-107601104D02*
X191074649Y-107639200D01*
X191074649Y-107639200D02*
X191188934Y-107677295D01*
X191188934Y-107677295D02*
X191265125Y-107677295D01*
X191265125Y-107677295D02*
X191379411Y-107639200D01*
X191379411Y-107639200D02*
X191455601Y-107563009D01*
X191455601Y-107563009D02*
X191493696Y-107486819D01*
X191493696Y-107486819D02*
X191531792Y-107334438D01*
X191531792Y-107334438D02*
X191531792Y-107220152D01*
X191531792Y-107220152D02*
X191493696Y-107067771D01*
X191493696Y-107067771D02*
X191455601Y-106991580D01*
X191455601Y-106991580D02*
X191379411Y-106915390D01*
X191379411Y-106915390D02*
X191265125Y-106877295D01*
X191265125Y-106877295D02*
X191188934Y-106877295D01*
X191188934Y-106877295D02*
X191074649Y-106915390D01*
X191074649Y-106915390D02*
X191036553Y-106953485D01*
X190465125Y-106877295D02*
X190465125Y-107448723D01*
X190465125Y-107448723D02*
X190503220Y-107563009D01*
X190503220Y-107563009D02*
X190579411Y-107639200D01*
X190579411Y-107639200D02*
X190693696Y-107677295D01*
X190693696Y-107677295D02*
X190769887Y-107677295D01*
X189703220Y-107677295D02*
X190084172Y-107677295D01*
X190084172Y-107677295D02*
X190084172Y-106877295D01*
X188979410Y-107601104D02*
X189017506Y-107639200D01*
X189017506Y-107639200D02*
X189131791Y-107677295D01*
X189131791Y-107677295D02*
X189207982Y-107677295D01*
X189207982Y-107677295D02*
X189322268Y-107639200D01*
X189322268Y-107639200D02*
X189398458Y-107563009D01*
X189398458Y-107563009D02*
X189436553Y-107486819D01*
X189436553Y-107486819D02*
X189474649Y-107334438D01*
X189474649Y-107334438D02*
X189474649Y-107220152D01*
X189474649Y-107220152D02*
X189436553Y-107067771D01*
X189436553Y-107067771D02*
X189398458Y-106991580D01*
X189398458Y-106991580D02*
X189322268Y-106915390D01*
X189322268Y-106915390D02*
X189207982Y-106877295D01*
X189207982Y-106877295D02*
X189131791Y-106877295D01*
X189131791Y-106877295D02*
X189017506Y-106915390D01*
X189017506Y-106915390D02*
X188979410Y-106953485D01*
X188407982Y-106877295D02*
X188407982Y-107448723D01*
X188407982Y-107448723D02*
X188446077Y-107563009D01*
X188446077Y-107563009D02*
X188522268Y-107639200D01*
X188522268Y-107639200D02*
X188636553Y-107677295D01*
X188636553Y-107677295D02*
X188712744Y-107677295D01*
X187646077Y-107677295D02*
X188027029Y-107677295D01*
X188027029Y-107677295D02*
X188027029Y-106877295D01*
X186922267Y-107601104D02*
X186960363Y-107639200D01*
X186960363Y-107639200D02*
X187074648Y-107677295D01*
X187074648Y-107677295D02*
X187150839Y-107677295D01*
X187150839Y-107677295D02*
X187265125Y-107639200D01*
X187265125Y-107639200D02*
X187341315Y-107563009D01*
X187341315Y-107563009D02*
X187379410Y-107486819D01*
X187379410Y-107486819D02*
X187417506Y-107334438D01*
X187417506Y-107334438D02*
X187417506Y-107220152D01*
X187417506Y-107220152D02*
X187379410Y-107067771D01*
X187379410Y-107067771D02*
X187341315Y-106991580D01*
X187341315Y-106991580D02*
X187265125Y-106915390D01*
X187265125Y-106915390D02*
X187150839Y-106877295D01*
X187150839Y-106877295D02*
X187074648Y-106877295D01*
X187074648Y-106877295D02*
X186960363Y-106915390D01*
X186960363Y-106915390D02*
X186922267Y-106953485D01*
X186350839Y-106877295D02*
X186350839Y-107448723D01*
X186350839Y-107448723D02*
X186388934Y-107563009D01*
X186388934Y-107563009D02*
X186465125Y-107639200D01*
X186465125Y-107639200D02*
X186579410Y-107677295D01*
X186579410Y-107677295D02*
X186655601Y-107677295D01*
X185588934Y-107677295D02*
X185969886Y-107677295D01*
X185969886Y-107677295D02*
X185969886Y-106877295D01*
X184865124Y-107601104D02*
X184903220Y-107639200D01*
X184903220Y-107639200D02*
X185017505Y-107677295D01*
X185017505Y-107677295D02*
X185093696Y-107677295D01*
X185093696Y-107677295D02*
X185207982Y-107639200D01*
X185207982Y-107639200D02*
X185284172Y-107563009D01*
X185284172Y-107563009D02*
X185322267Y-107486819D01*
X185322267Y-107486819D02*
X185360363Y-107334438D01*
X185360363Y-107334438D02*
X185360363Y-107220152D01*
X185360363Y-107220152D02*
X185322267Y-107067771D01*
X185322267Y-107067771D02*
X185284172Y-106991580D01*
X185284172Y-106991580D02*
X185207982Y-106915390D01*
X185207982Y-106915390D02*
X185093696Y-106877295D01*
X185093696Y-106877295D02*
X185017505Y-106877295D01*
X185017505Y-106877295D02*
X184903220Y-106915390D01*
X184903220Y-106915390D02*
X184865124Y-106953485D01*
X202634762Y-92018247D02*
X202520476Y-92056342D01*
X202520476Y-92056342D02*
X202482381Y-92094438D01*
X202482381Y-92094438D02*
X202444285Y-92170628D01*
X202444285Y-92170628D02*
X202444285Y-92284914D01*
X202444285Y-92284914D02*
X202482381Y-92361104D01*
X202482381Y-92361104D02*
X202520476Y-92399200D01*
X202520476Y-92399200D02*
X202596666Y-92437295D01*
X202596666Y-92437295D02*
X202901428Y-92437295D01*
X202901428Y-92437295D02*
X202901428Y-91637295D01*
X202901428Y-91637295D02*
X202634762Y-91637295D01*
X202634762Y-91637295D02*
X202558571Y-91675390D01*
X202558571Y-91675390D02*
X202520476Y-91713485D01*
X202520476Y-91713485D02*
X202482381Y-91789676D01*
X202482381Y-91789676D02*
X202482381Y-91865866D01*
X202482381Y-91865866D02*
X202520476Y-91942057D01*
X202520476Y-91942057D02*
X202558571Y-91980152D01*
X202558571Y-91980152D02*
X202634762Y-92018247D01*
X202634762Y-92018247D02*
X202901428Y-92018247D01*
X201682381Y-92437295D02*
X202139524Y-92437295D01*
X201910952Y-92437295D02*
X201910952Y-91637295D01*
X201910952Y-91637295D02*
X201987143Y-91751580D01*
X201987143Y-91751580D02*
X202063333Y-91827771D01*
X202063333Y-91827771D02*
X202139524Y-91865866D01*
X201377619Y-91713485D02*
X201339523Y-91675390D01*
X201339523Y-91675390D02*
X201263333Y-91637295D01*
X201263333Y-91637295D02*
X201072857Y-91637295D01*
X201072857Y-91637295D02*
X200996666Y-91675390D01*
X200996666Y-91675390D02*
X200958571Y-91713485D01*
X200958571Y-91713485D02*
X200920476Y-91789676D01*
X200920476Y-91789676D02*
X200920476Y-91865866D01*
X200920476Y-91865866D02*
X200958571Y-91980152D01*
X200958571Y-91980152D02*
X201415714Y-92437295D01*
X201415714Y-92437295D02*
X200920476Y-92437295D01*
D11*
G04 #@! TO.C,J4*
X152340000Y-92650000D02*
X152340000Y-93980000D01*
X153670000Y-92650000D02*
X152340000Y-92650000D01*
X154940000Y-92650000D02*
X154940000Y-95310000D01*
X154940000Y-92650000D02*
X203260000Y-92650000D01*
X154940000Y-95310000D02*
X203260000Y-95310000D01*
X203260000Y-92650000D02*
X203260000Y-95310000D01*
G04 #@! TO.C,J3*
X152340000Y-107890000D02*
X152340000Y-109220000D01*
X153670000Y-107890000D02*
X152340000Y-107890000D01*
X154940000Y-107890000D02*
X154940000Y-110550000D01*
X154940000Y-107890000D02*
X203260000Y-107890000D01*
X154940000Y-110550000D02*
X203260000Y-110550000D01*
X203260000Y-107890000D02*
X203260000Y-110550000D01*
G04 #@! TD*
M02*
