G04 #@! TF.GenerationSoftware,KiCad,Pcbnew,9.0.0+dfsg-1*
G04 #@! TF.CreationDate,2025-03-10T08:37:07+08:00*
G04 #@! TF.ProjectId,gp,67702e6b-6963-4616-945f-706362585858,d*
G04 #@! TF.SameCoordinates,Original*
G04 #@! TF.FileFunction,Copper,L4,Bot*
G04 #@! TF.FilePolarity,Positive*
%FSLAX46Y46*%
G04 Gerber Fmt 4.6, Leading zero omitted, Abs format (unit mm)*
G04 Created by KiCad (PCBNEW 9.0.0+dfsg-1) date 2025-03-10 08:37:07*
%MOMM*%
%LPD*%
G01*
G04 APERTURE LIST*
G04 #@! TA.AperFunction,ComponentPad*
%ADD10R,1.700000X1.700000*%
G04 #@! TD*
G04 #@! TA.AperFunction,ComponentPad*
%ADD11O,1.700000X1.700000*%
G04 #@! TD*
G04 #@! TA.AperFunction,ComponentPad*
%ADD12O,2.100000X1.000000*%
G04 #@! TD*
G04 #@! TA.AperFunction,ComponentPad*
%ADD13O,1.600000X1.000000*%
G04 #@! TD*
G04 #@! TA.AperFunction,ViaPad*
%ADD14C,0.700000*%
G04 #@! TD*
G04 #@! TA.AperFunction,Conductor*
%ADD15C,0.304800*%
G04 #@! TD*
G04 #@! TA.AperFunction,Conductor*
%ADD16C,0.381000*%
G04 #@! TD*
G04 #@! TA.AperFunction,Conductor*
%ADD17C,0.228600*%
G04 #@! TD*
G04 APERTURE END LIST*
D10*
G04 #@! TO.P,J2,1,Pin_1*
G04 #@! TO.N,RST*
X155575000Y-104140000D03*
D11*
G04 #@! TO.P,J2,2,Pin_2*
G04 #@! TO.N,+3V3*
X153035000Y-104140000D03*
G04 #@! TO.P,J2,3,Pin_3*
G04 #@! TO.N,SWCLK*
X155575000Y-101600000D03*
G04 #@! TO.P,J2,4,Pin_4*
G04 #@! TO.N,SWDIO*
X153035000Y-101600000D03*
G04 #@! TO.P,J2,5,Pin_5*
G04 #@! TO.N,GND*
X155575000Y-99060000D03*
G04 #@! TO.P,J2,6,Pin_6*
G04 #@! TO.N,B3*
X153035000Y-99060000D03*
G04 #@! TD*
D12*
G04 #@! TO.P,J1,S1,SHIELD*
G04 #@! TO.N,GND*
X196895000Y-105920000D03*
D13*
X201075000Y-105920000D03*
D12*
X196895000Y-97280000D03*
D13*
X201075000Y-97280000D03*
G04 #@! TD*
D10*
G04 #@! TO.P,J4,1,Pin_1*
G04 #@! TO.N,+3V3*
X153670000Y-93980000D03*
D11*
G04 #@! TO.P,J4,2,Pin_2*
G04 #@! TO.N,GND*
X156210000Y-93980000D03*
G04 #@! TO.P,J4,3,Pin_3*
G04 #@! TO.N,+5V*
X158750000Y-93980000D03*
G04 #@! TO.P,J4,4,Pin_4*
G04 #@! TO.N,B9*
X161290000Y-93980000D03*
G04 #@! TO.P,J4,5,Pin_5*
G04 #@! TO.N,B8*
X163830000Y-93980000D03*
G04 #@! TO.P,J4,6,Pin_6*
G04 #@! TO.N,B7*
X166370000Y-93980000D03*
G04 #@! TO.P,J4,7,Pin_7*
G04 #@! TO.N,B6*
X168910000Y-93980000D03*
G04 #@! TO.P,J4,8,Pin_8*
G04 #@! TO.N,B5*
X171450000Y-93980000D03*
G04 #@! TO.P,J4,9,Pin_9*
G04 #@! TO.N,B4*
X173990000Y-93980000D03*
G04 #@! TO.P,J4,10,Pin_10*
G04 #@! TO.N,B3*
X176530000Y-93980000D03*
G04 #@! TO.P,J4,11,Pin_11*
G04 #@! TO.N,A15*
X179070000Y-93980000D03*
G04 #@! TO.P,J4,12,Pin_12*
G04 #@! TO.N,A12*
X181610000Y-93980000D03*
G04 #@! TO.P,J4,13,Pin_13*
G04 #@! TO.N,A11*
X184150000Y-93980000D03*
G04 #@! TO.P,J4,14,Pin_14*
G04 #@! TO.N,A10*
X186690000Y-93980000D03*
G04 #@! TO.P,J4,15,Pin_15*
G04 #@! TO.N,A9*
X189230000Y-93980000D03*
G04 #@! TO.P,J4,16,Pin_16*
G04 #@! TO.N,A8*
X191770000Y-93980000D03*
G04 #@! TO.P,J4,17,Pin_17*
G04 #@! TO.N,B15*
X194310000Y-93980000D03*
G04 #@! TO.P,J4,18,Pin_18*
G04 #@! TO.N,B14*
X196850000Y-93980000D03*
G04 #@! TO.P,J4,19,Pin_19*
G04 #@! TO.N,B13*
X199390000Y-93980000D03*
G04 #@! TO.P,J4,20,Pin_20*
G04 #@! TO.N,B12*
X201930000Y-93980000D03*
G04 #@! TD*
D10*
G04 #@! TO.P,J3,1,Pin_1*
G04 #@! TO.N,+3V3*
X153670000Y-109220000D03*
D11*
G04 #@! TO.P,J3,2,Pin_2*
G04 #@! TO.N,C13*
X156210000Y-109220000D03*
G04 #@! TO.P,J3,3,Pin_3*
G04 #@! TO.N,C14*
X158750000Y-109220000D03*
G04 #@! TO.P,J3,4,Pin_4*
G04 #@! TO.N,C15*
X161290000Y-109220000D03*
G04 #@! TO.P,J3,5,Pin_5*
G04 #@! TO.N,RST*
X163830000Y-109220000D03*
G04 #@! TO.P,J3,6,Pin_6*
G04 #@! TO.N,A0*
X166370000Y-109220000D03*
G04 #@! TO.P,J3,7,Pin_7*
G04 #@! TO.N,A1*
X168910000Y-109220000D03*
G04 #@! TO.P,J3,8,Pin_8*
G04 #@! TO.N,A2*
X171450000Y-109220000D03*
G04 #@! TO.P,J3,9,Pin_9*
G04 #@! TO.N,A3*
X173990000Y-109220000D03*
G04 #@! TO.P,J3,10,Pin_10*
G04 #@! TO.N,A4*
X176530000Y-109220000D03*
G04 #@! TO.P,J3,11,Pin_11*
G04 #@! TO.N,A5*
X179070000Y-109220000D03*
G04 #@! TO.P,J3,12,Pin_12*
G04 #@! TO.N,A6*
X181610000Y-109220000D03*
G04 #@! TO.P,J3,13,Pin_13*
G04 #@! TO.N,A7*
X184150000Y-109220000D03*
G04 #@! TO.P,J3,14,Pin_14*
G04 #@! TO.N,B0*
X186690000Y-109220000D03*
G04 #@! TO.P,J3,15,Pin_15*
G04 #@! TO.N,B1*
X189230000Y-109220000D03*
G04 #@! TO.P,J3,16,Pin_16*
G04 #@! TO.N,B2*
X191770000Y-109220000D03*
G04 #@! TO.P,J3,17,Pin_17*
G04 #@! TO.N,B10*
X194310000Y-109220000D03*
G04 #@! TO.P,J3,18,Pin_18*
G04 #@! TO.N,+3V3*
X196850000Y-109220000D03*
G04 #@! TO.P,J3,19,Pin_19*
G04 #@! TO.N,GND*
X199390000Y-109220000D03*
G04 #@! TO.P,J3,20,Pin_20*
G04 #@! TO.N,+5V*
X201930000Y-109220000D03*
G04 #@! TD*
D14*
G04 #@! TO.N,GND*
X186690000Y-105410000D03*
X199390000Y-102870000D03*
X201295000Y-102870000D03*
X169545000Y-103505000D03*
X197485000Y-100330000D03*
X159385000Y-104140000D03*
X187960000Y-103505000D03*
X197485000Y-102870000D03*
X175895000Y-102870000D03*
X170815000Y-99060000D03*
X171450000Y-106045000D03*
X201295000Y-100330000D03*
X199390000Y-100330000D03*
X188976000Y-104648000D03*
X188976000Y-105410000D03*
X187960000Y-102616000D03*
G04 #@! TO.N,VBUS*
X192405000Y-104775000D03*
X193040000Y-105410000D03*
X193675000Y-104775000D03*
G04 #@! TO.N,+3V3*
X179070000Y-95885000D03*
X172085000Y-101600000D03*
X176143883Y-104388883D03*
X187325000Y-101600000D03*
X159385000Y-99695000D03*
X184150000Y-103365000D03*
G04 #@! TO.N,C13*
X185420000Y-100330000D03*
X173990000Y-102235000D03*
G04 #@! TO.N,A12*
X192405000Y-99695000D03*
G04 #@! TO.N,A11*
X192405000Y-100965000D03*
G04 #@! TO.N,A7*
X179705000Y-102870000D03*
X166370000Y-98425000D03*
G04 #@! TO.N,A6*
X165735000Y-99060000D03*
X178435000Y-102870000D03*
G04 #@! TO.N,A5*
X165100000Y-99695000D03*
X177800000Y-104140000D03*
G04 #@! TO.N,A4*
X167640000Y-101075700D03*
X177165000Y-104775000D03*
G04 #@! TO.N,BO0*
X172085000Y-96520000D03*
X183515000Y-104140000D03*
X157480000Y-96520000D03*
G04 #@! TO.N,SWCLK*
X175895000Y-99060000D03*
G04 #@! TO.N,SWDIO*
X178435000Y-99060000D03*
G04 #@! TD*
D15*
G04 #@! TO.N,+3V3*
X154305000Y-105410000D02*
X153035000Y-104140000D01*
X172085000Y-101600000D02*
X168609106Y-101600000D01*
X154305000Y-105410000D02*
X164799106Y-105410000D01*
X168609106Y-101600000D02*
X164799106Y-105410000D01*
D16*
X187405000Y-101680000D02*
X187325000Y-101600000D01*
D17*
G04 #@! TO.N,C13*
X168275000Y-107296701D02*
X173990000Y-107296701D01*
X173990000Y-107296701D02*
X182898299Y-107296701D01*
X173990000Y-102235000D02*
X173990000Y-107296701D01*
X168275000Y-107296701D02*
X168928299Y-107296701D01*
X158133299Y-107296701D02*
X168275000Y-107296701D01*
X185420000Y-104775000D02*
X185420000Y-100330000D01*
X182898299Y-107296701D02*
X185420000Y-104775000D01*
X156210000Y-109220000D02*
X158133299Y-107296701D01*
G04 #@! TO.N,B3*
X156210000Y-97136211D02*
X154958789Y-97136211D01*
X156228789Y-97155000D02*
X156210000Y-97136211D01*
X154958789Y-97136211D02*
X153035000Y-99060000D01*
X173355000Y-97155000D02*
X156228789Y-97155000D01*
X176530000Y-93980000D02*
X173355000Y-97155000D01*
G04 #@! TO.N,A12*
X187325000Y-99695000D02*
X181610000Y-93980000D01*
X192405000Y-99695000D02*
X187325000Y-99695000D01*
G04 #@! TO.N,A11*
X192899974Y-100965000D02*
X193641011Y-100223963D01*
X193641011Y-100223963D02*
X193641011Y-98748293D01*
X192701017Y-97808299D02*
X187978299Y-97808299D01*
X192405000Y-100965000D02*
X192899974Y-100965000D01*
X193641011Y-98748293D02*
X192701017Y-97808299D01*
X187978299Y-97808299D02*
X184150000Y-93980000D01*
G04 #@! TO.N,A7*
X176530000Y-99695000D02*
X179705000Y-102870000D01*
X166370000Y-98425000D02*
X167640000Y-99695000D01*
X167640000Y-99695000D02*
X176530000Y-99695000D01*
G04 #@! TO.N,A6*
X178435000Y-102870000D02*
X175642000Y-100077000D01*
X166752000Y-100077000D02*
X165735000Y-99060000D01*
X175642000Y-100077000D02*
X166752000Y-100077000D01*
G04 #@! TO.N,A5*
X166370000Y-100459000D02*
X165606000Y-99695000D01*
X177800000Y-102870000D02*
X177800000Y-104140000D01*
X175389000Y-100459000D02*
X177800000Y-102870000D01*
X165606000Y-99695000D02*
X165100000Y-99695000D01*
X166370000Y-100459000D02*
X175389000Y-100459000D01*
G04 #@! TO.N,A4*
X174880860Y-100982300D02*
X167733400Y-100982300D01*
X167733400Y-100982300D02*
X167640000Y-101075700D01*
X177165000Y-103266440D02*
X174880860Y-100982300D01*
X177165000Y-104775000D02*
X177165000Y-103266440D01*
G04 #@! TO.N,BO0*
X176219333Y-92710000D02*
X175412300Y-93517033D01*
X172085000Y-96520000D02*
X157480000Y-96520000D01*
X179490000Y-92710000D02*
X176219333Y-92710000D01*
X180187700Y-93407700D02*
X179490000Y-92710000D01*
X175412300Y-93517033D02*
X175412300Y-94138367D01*
X173030667Y-96520000D02*
X172085000Y-96520000D01*
X175412300Y-94138367D02*
X173030667Y-96520000D01*
X183515000Y-104140000D02*
X180187700Y-100812700D01*
X180187700Y-100812700D02*
X180187700Y-93407700D01*
G04 #@! TO.N,SWCLK*
X174754000Y-97919000D02*
X160111000Y-97919000D01*
X156430000Y-101600000D02*
X155575000Y-101600000D01*
X160111000Y-97919000D02*
X156430000Y-101600000D01*
X175895000Y-99060000D02*
X174754000Y-97919000D01*
G04 #@! TO.N,SWDIO*
X176912000Y-97537000D02*
X178435000Y-99060000D01*
X153035000Y-101600000D02*
X154431022Y-100203978D01*
X156845000Y-100203978D02*
X159511978Y-97537000D01*
X159511978Y-97537000D02*
X176912000Y-97537000D01*
X154431022Y-100203978D02*
X156845000Y-100203978D01*
G04 #@! TD*
G04 #@! TA.AperFunction,Conductor*
G04 #@! TO.N,GND*
G36*
X174660512Y-98203793D02*
G01*
X174665348Y-98208226D01*
X175373827Y-98916705D01*
X175395567Y-98963325D01*
X175393293Y-98989332D01*
X175392100Y-98993785D01*
X175392100Y-98993792D01*
X175392100Y-99126208D01*
X175409449Y-99190958D01*
X175426371Y-99254114D01*
X175461524Y-99315000D01*
X175470456Y-99365659D01*
X175444736Y-99410207D01*
X175396399Y-99427800D01*
X167781826Y-99427800D01*
X167733488Y-99410207D01*
X167728652Y-99405774D01*
X166891171Y-98568293D01*
X166869431Y-98521673D01*
X166871707Y-98495658D01*
X166872900Y-98491208D01*
X166872900Y-98358792D01*
X166852019Y-98280861D01*
X166856503Y-98229619D01*
X166892877Y-98193245D01*
X166924657Y-98186200D01*
X174612174Y-98186200D01*
X174660512Y-98203793D01*
G37*
G04 #@! TD.AperFunction*
G04 #@! TA.AperFunction,Conductor*
G36*
X202567947Y-91465731D02*
G01*
X202753791Y-91480358D01*
X202765430Y-91482201D01*
X202943817Y-91525028D01*
X202955033Y-91528672D01*
X203124528Y-91598879D01*
X203135036Y-91604234D01*
X203291455Y-91700088D01*
X203301002Y-91707024D01*
X203440498Y-91826166D01*
X203448837Y-91834505D01*
X203567975Y-91973997D01*
X203574911Y-91983544D01*
X203670765Y-92139963D01*
X203676123Y-92150477D01*
X203746326Y-92319963D01*
X203749972Y-92331186D01*
X203792796Y-92509561D01*
X203794642Y-92521216D01*
X203809268Y-92707052D01*
X203809500Y-92712952D01*
X203809500Y-110487047D01*
X203809268Y-110492947D01*
X203794642Y-110678783D01*
X203792796Y-110690438D01*
X203749972Y-110868813D01*
X203746326Y-110880036D01*
X203676123Y-111049522D01*
X203670765Y-111060036D01*
X203574911Y-111216455D01*
X203567975Y-111226002D01*
X203448837Y-111365494D01*
X203440494Y-111373837D01*
X203301002Y-111492975D01*
X203291455Y-111499911D01*
X203135036Y-111595765D01*
X203124522Y-111601123D01*
X202955036Y-111671326D01*
X202943813Y-111674972D01*
X202765438Y-111717796D01*
X202753783Y-111719642D01*
X202567948Y-111734268D01*
X202562048Y-111734500D01*
X153037952Y-111734500D01*
X153032052Y-111734268D01*
X152846216Y-111719642D01*
X152834561Y-111717796D01*
X152656186Y-111674972D01*
X152644963Y-111671326D01*
X152475477Y-111601123D01*
X152464963Y-111595765D01*
X152308544Y-111499911D01*
X152298997Y-111492975D01*
X152259027Y-111458838D01*
X152159501Y-111373833D01*
X152151166Y-111365498D01*
X152032024Y-111226002D01*
X152025088Y-111216455D01*
X151929234Y-111060036D01*
X151923879Y-111049528D01*
X151853672Y-110880033D01*
X151850027Y-110868813D01*
X151807201Y-110690430D01*
X151805358Y-110678791D01*
X151790732Y-110492947D01*
X151790500Y-110487047D01*
X151790500Y-108354942D01*
X152667100Y-108354942D01*
X152667100Y-110085055D01*
X152667101Y-110085057D01*
X152675972Y-110129659D01*
X152709764Y-110180232D01*
X152709765Y-110180232D01*
X152709766Y-110180234D01*
X152760342Y-110214028D01*
X152804943Y-110222900D01*
X154535056Y-110222899D01*
X154579658Y-110214028D01*
X154630234Y-110180234D01*
X154664028Y-110129658D01*
X154672900Y-110085057D01*
X154672899Y-109121222D01*
X155207100Y-109121222D01*
X155207100Y-109318777D01*
X155245641Y-109512537D01*
X155245642Y-109512538D01*
X155321241Y-109695051D01*
X155430996Y-109859312D01*
X155430997Y-109859313D01*
X155431000Y-109859317D01*
X155570682Y-109998999D01*
X155570685Y-109999001D01*
X155570688Y-109999004D01*
X155734949Y-110108759D01*
X155917461Y-110184357D01*
X155917462Y-110184358D01*
X155917463Y-110184358D01*
X155917465Y-110184359D01*
X156047218Y-110210168D01*
X156111222Y-110222900D01*
X156111223Y-110222900D01*
X156308778Y-110222900D01*
X156364967Y-110211723D01*
X156502535Y-110184359D01*
X156685051Y-110108759D01*
X156849312Y-109999004D01*
X156989004Y-109859312D01*
X157098759Y-109695051D01*
X157174359Y-109512535D01*
X157212900Y-109318777D01*
X157212900Y-109121223D01*
X157212900Y-109121222D01*
X157747100Y-109121222D01*
X157747100Y-109318777D01*
X157785641Y-109512537D01*
X157785642Y-109512538D01*
X157861241Y-109695051D01*
X157970996Y-109859312D01*
X157970997Y-109859313D01*
X157971000Y-109859317D01*
X158110682Y-109998999D01*
X158110685Y-109999001D01*
X158110688Y-109999004D01*
X158274949Y-110108759D01*
X158457461Y-110184357D01*
X158457462Y-110184358D01*
X158457463Y-110184358D01*
X158457465Y-110184359D01*
X158587218Y-110210168D01*
X158651222Y-110222900D01*
X158651223Y-110222900D01*
X158848778Y-110222900D01*
X158904967Y-110211723D01*
X159042535Y-110184359D01*
X159225051Y-110108759D01*
X159389312Y-109999004D01*
X159529004Y-109859312D01*
X159638759Y-109695051D01*
X159714359Y-109512535D01*
X159752900Y-109318777D01*
X159752900Y-109121223D01*
X159752900Y-109121222D01*
X160287100Y-109121222D01*
X160287100Y-109318777D01*
X160325641Y-109512537D01*
X160325642Y-109512538D01*
X160401241Y-109695051D01*
X160510996Y-109859312D01*
X160510997Y-109859313D01*
X160511000Y-109859317D01*
X160650682Y-109998999D01*
X160650685Y-109999001D01*
X160650688Y-109999004D01*
X160814949Y-110108759D01*
X160997461Y-110184357D01*
X160997462Y-110184358D01*
X160997463Y-110184358D01*
X160997465Y-110184359D01*
X161127218Y-110210168D01*
X161191222Y-110222900D01*
X161191223Y-110222900D01*
X161388778Y-110222900D01*
X161444967Y-110211723D01*
X161582535Y-110184359D01*
X161765051Y-110108759D01*
X161929312Y-109999004D01*
X162069004Y-109859312D01*
X162178759Y-109695051D01*
X162254359Y-109512535D01*
X162292900Y-109318777D01*
X162292900Y-109121223D01*
X162292900Y-109121222D01*
X162827100Y-109121222D01*
X162827100Y-109318777D01*
X162865641Y-109512537D01*
X162865642Y-109512538D01*
X162941241Y-109695051D01*
X163050996Y-109859312D01*
X163050997Y-109859313D01*
X163051000Y-109859317D01*
X163190682Y-109998999D01*
X163190685Y-109999001D01*
X163190688Y-109999004D01*
X163354949Y-110108759D01*
X163537461Y-110184357D01*
X163537462Y-110184358D01*
X163537463Y-110184358D01*
X163537465Y-110184359D01*
X163667218Y-110210168D01*
X163731222Y-110222900D01*
X163731223Y-110222900D01*
X163928778Y-110222900D01*
X163984967Y-110211723D01*
X164122535Y-110184359D01*
X164305051Y-110108759D01*
X164469312Y-109999004D01*
X164609004Y-109859312D01*
X164718759Y-109695051D01*
X164794359Y-109512535D01*
X164832900Y-109318777D01*
X164832900Y-109121223D01*
X164832900Y-109121222D01*
X165367100Y-109121222D01*
X165367100Y-109318777D01*
X165405641Y-109512537D01*
X165405642Y-109512538D01*
X165481241Y-109695051D01*
X165590996Y-109859312D01*
X165590997Y-109859313D01*
X165591000Y-109859317D01*
X165730682Y-109998999D01*
X165730685Y-109999001D01*
X165730688Y-109999004D01*
X165894949Y-110108759D01*
X166077461Y-110184357D01*
X166077462Y-110184358D01*
X166077463Y-110184358D01*
X166077465Y-110184359D01*
X166207218Y-110210168D01*
X166271222Y-110222900D01*
X166271223Y-110222900D01*
X166468778Y-110222900D01*
X166524967Y-110211723D01*
X166662535Y-110184359D01*
X166845051Y-110108759D01*
X167009312Y-109999004D01*
X167149004Y-109859312D01*
X167258759Y-109695051D01*
X167334359Y-109512535D01*
X167372900Y-109318777D01*
X167372900Y-109121223D01*
X167372900Y-109121222D01*
X167907100Y-109121222D01*
X167907100Y-109318777D01*
X167945641Y-109512537D01*
X167945642Y-109512538D01*
X168021241Y-109695051D01*
X168130996Y-109859312D01*
X168130997Y-109859313D01*
X168131000Y-109859317D01*
X168270682Y-109998999D01*
X168270685Y-109999001D01*
X168270688Y-109999004D01*
X168434949Y-110108759D01*
X168617461Y-110184357D01*
X168617462Y-110184358D01*
X168617463Y-110184358D01*
X168617465Y-110184359D01*
X168747218Y-110210168D01*
X168811222Y-110222900D01*
X168811223Y-110222900D01*
X169008778Y-110222900D01*
X169064967Y-110211723D01*
X169202535Y-110184359D01*
X169385051Y-110108759D01*
X169549312Y-109999004D01*
X169689004Y-109859312D01*
X169798759Y-109695051D01*
X169874359Y-109512535D01*
X169912900Y-109318777D01*
X169912900Y-109121223D01*
X169912900Y-109121222D01*
X170447100Y-109121222D01*
X170447100Y-109318777D01*
X170485641Y-109512537D01*
X170485642Y-109512538D01*
X170561241Y-109695051D01*
X170670996Y-109859312D01*
X170670997Y-109859313D01*
X170671000Y-109859317D01*
X170810682Y-109998999D01*
X170810685Y-109999001D01*
X170810688Y-109999004D01*
X170974949Y-110108759D01*
X171157461Y-110184357D01*
X171157462Y-110184358D01*
X171157463Y-110184358D01*
X171157465Y-110184359D01*
X171287218Y-110210168D01*
X171351222Y-110222900D01*
X171351223Y-110222900D01*
X171548778Y-110222900D01*
X171604967Y-110211723D01*
X171742535Y-110184359D01*
X171925051Y-110108759D01*
X172089312Y-109999004D01*
X172229004Y-109859312D01*
X172338759Y-109695051D01*
X172414359Y-109512535D01*
X172452900Y-109318777D01*
X172452900Y-109121223D01*
X172452900Y-109121222D01*
X172987100Y-109121222D01*
X172987100Y-109318777D01*
X173025641Y-109512537D01*
X173025642Y-109512538D01*
X173101241Y-109695051D01*
X173210996Y-109859312D01*
X173210997Y-109859313D01*
X173211000Y-109859317D01*
X173350682Y-109998999D01*
X173350685Y-109999001D01*
X173350688Y-109999004D01*
X173514949Y-110108759D01*
X173697461Y-110184357D01*
X173697462Y-110184358D01*
X173697463Y-110184358D01*
X173697465Y-110184359D01*
X173827218Y-110210168D01*
X173891222Y-110222900D01*
X173891223Y-110222900D01*
X174088778Y-110222900D01*
X174144967Y-110211723D01*
X174282535Y-110184359D01*
X174465051Y-110108759D01*
X174629312Y-109999004D01*
X174769004Y-109859312D01*
X174878759Y-109695051D01*
X174954359Y-109512535D01*
X174992900Y-109318777D01*
X174992900Y-109121223D01*
X174992900Y-109121222D01*
X175527100Y-109121222D01*
X175527100Y-109318777D01*
X175565641Y-109512537D01*
X175565642Y-109512538D01*
X175641241Y-109695051D01*
X175750996Y-109859312D01*
X175750997Y-109859313D01*
X175751000Y-109859317D01*
X175890682Y-109998999D01*
X175890685Y-109999001D01*
X175890688Y-109999004D01*
X176054949Y-110108759D01*
X176237461Y-110184357D01*
X176237462Y-110184358D01*
X176237463Y-110184358D01*
X176237465Y-110184359D01*
X176367218Y-110210168D01*
X176431222Y-110222900D01*
X176431223Y-110222900D01*
X176628778Y-110222900D01*
X176684967Y-110211723D01*
X176822535Y-110184359D01*
X177005051Y-110108759D01*
X177169312Y-109999004D01*
X177309004Y-109859312D01*
X177418759Y-109695051D01*
X177494359Y-109512535D01*
X177532900Y-109318777D01*
X177532900Y-109121223D01*
X177532900Y-109121222D01*
X178067100Y-109121222D01*
X178067100Y-109318777D01*
X178105641Y-109512537D01*
X178105642Y-109512538D01*
X178181241Y-109695051D01*
X178290996Y-109859312D01*
X178290997Y-109859313D01*
X178291000Y-109859317D01*
X178430682Y-109998999D01*
X178430685Y-109999001D01*
X178430688Y-109999004D01*
X178594949Y-110108759D01*
X178777461Y-110184357D01*
X178777462Y-110184358D01*
X178777463Y-110184358D01*
X178777465Y-110184359D01*
X178907218Y-110210168D01*
X178971222Y-110222900D01*
X178971223Y-110222900D01*
X179168778Y-110222900D01*
X179224967Y-110211723D01*
X179362535Y-110184359D01*
X179545051Y-110108759D01*
X179709312Y-109999004D01*
X179849004Y-109859312D01*
X179958759Y-109695051D01*
X180034359Y-109512535D01*
X180072900Y-109318777D01*
X180072900Y-109121223D01*
X180072900Y-109121222D01*
X180607100Y-109121222D01*
X180607100Y-109318777D01*
X180645641Y-109512537D01*
X180645642Y-109512538D01*
X180721241Y-109695051D01*
X180830996Y-109859312D01*
X180830997Y-109859313D01*
X180831000Y-109859317D01*
X180970682Y-109998999D01*
X180970685Y-109999001D01*
X180970688Y-109999004D01*
X181134949Y-110108759D01*
X181317461Y-110184357D01*
X181317462Y-110184358D01*
X181317463Y-110184358D01*
X181317465Y-110184359D01*
X181447218Y-110210168D01*
X181511222Y-110222900D01*
X181511223Y-110222900D01*
X181708778Y-110222900D01*
X181764967Y-110211723D01*
X181902535Y-110184359D01*
X182085051Y-110108759D01*
X182249312Y-109999004D01*
X182389004Y-109859312D01*
X182498759Y-109695051D01*
X182574359Y-109512535D01*
X182612900Y-109318777D01*
X182612900Y-109121223D01*
X182612900Y-109121222D01*
X183147100Y-109121222D01*
X183147100Y-109318777D01*
X183185641Y-109512537D01*
X183185642Y-109512538D01*
X183261241Y-109695051D01*
X183370996Y-109859312D01*
X183370997Y-109859313D01*
X183371000Y-109859317D01*
X183510682Y-109998999D01*
X183510685Y-109999001D01*
X183510688Y-109999004D01*
X183674949Y-110108759D01*
X183857461Y-110184357D01*
X183857462Y-110184358D01*
X183857463Y-110184358D01*
X183857465Y-110184359D01*
X183987218Y-110210168D01*
X184051222Y-110222900D01*
X184051223Y-110222900D01*
X184248778Y-110222900D01*
X184304967Y-110211723D01*
X184442535Y-110184359D01*
X184625051Y-110108759D01*
X184789312Y-109999004D01*
X184929004Y-109859312D01*
X185038759Y-109695051D01*
X185114359Y-109512535D01*
X185152900Y-109318777D01*
X185152900Y-109121223D01*
X185152900Y-109121222D01*
X185687100Y-109121222D01*
X185687100Y-109318777D01*
X185725641Y-109512537D01*
X185725642Y-109512538D01*
X185801241Y-109695051D01*
X185910996Y-109859312D01*
X185910997Y-109859313D01*
X185911000Y-109859317D01*
X186050682Y-109998999D01*
X186050685Y-109999001D01*
X186050688Y-109999004D01*
X186214949Y-110108759D01*
X186397461Y-110184357D01*
X186397462Y-110184358D01*
X186397463Y-110184358D01*
X186397465Y-110184359D01*
X186527218Y-110210168D01*
X186591222Y-110222900D01*
X186591223Y-110222900D01*
X186788778Y-110222900D01*
X186844967Y-110211723D01*
X186982535Y-110184359D01*
X187165051Y-110108759D01*
X187329312Y-109999004D01*
X187469004Y-109859312D01*
X187578759Y-109695051D01*
X187654359Y-109512535D01*
X187692900Y-109318777D01*
X187692900Y-109121223D01*
X187692900Y-109121222D01*
X188227100Y-109121222D01*
X188227100Y-109318777D01*
X188265641Y-109512537D01*
X188265642Y-109512538D01*
X188341241Y-109695051D01*
X188450996Y-109859312D01*
X188450997Y-109859313D01*
X188451000Y-109859317D01*
X188590682Y-109998999D01*
X188590685Y-109999001D01*
X188590688Y-109999004D01*
X188754949Y-110108759D01*
X188937461Y-110184357D01*
X188937462Y-110184358D01*
X188937463Y-110184358D01*
X188937465Y-110184359D01*
X189067218Y-110210168D01*
X189131222Y-110222900D01*
X189131223Y-110222900D01*
X189328778Y-110222900D01*
X189384967Y-110211723D01*
X189522535Y-110184359D01*
X189705051Y-110108759D01*
X189869312Y-109999004D01*
X190009004Y-109859312D01*
X190118759Y-109695051D01*
X190194359Y-109512535D01*
X190232900Y-109318777D01*
X190232900Y-109121223D01*
X190232900Y-109121222D01*
X190767100Y-109121222D01*
X190767100Y-109318777D01*
X190805641Y-109512537D01*
X190805642Y-109512538D01*
X190881241Y-109695051D01*
X190990996Y-109859312D01*
X190990997Y-109859313D01*
X190991000Y-109859317D01*
X191130682Y-109998999D01*
X191130685Y-109999001D01*
X191130688Y-109999004D01*
X191294949Y-110108759D01*
X191477461Y-110184357D01*
X191477462Y-110184358D01*
X191477463Y-110184358D01*
X191477465Y-110184359D01*
X191607218Y-110210168D01*
X191671222Y-110222900D01*
X191671223Y-110222900D01*
X191868778Y-110222900D01*
X191924967Y-110211723D01*
X192062535Y-110184359D01*
X192245051Y-110108759D01*
X192409312Y-109999004D01*
X192549004Y-109859312D01*
X192658759Y-109695051D01*
X192734359Y-109512535D01*
X192772900Y-109318777D01*
X192772900Y-109121223D01*
X192772900Y-109121222D01*
X193307100Y-109121222D01*
X193307100Y-109318777D01*
X193345641Y-109512537D01*
X193345642Y-109512538D01*
X193421241Y-109695051D01*
X193530996Y-109859312D01*
X193530997Y-109859313D01*
X193531000Y-109859317D01*
X193670682Y-109998999D01*
X193670685Y-109999001D01*
X193670688Y-109999004D01*
X193834949Y-110108759D01*
X194017461Y-110184357D01*
X194017462Y-110184358D01*
X194017463Y-110184358D01*
X194017465Y-110184359D01*
X194147218Y-110210168D01*
X194211222Y-110222900D01*
X194211223Y-110222900D01*
X194408778Y-110222900D01*
X194464967Y-110211723D01*
X194602535Y-110184359D01*
X194785051Y-110108759D01*
X194949312Y-109999004D01*
X195089004Y-109859312D01*
X195198759Y-109695051D01*
X195274359Y-109512535D01*
X195312900Y-109318777D01*
X195312900Y-109121223D01*
X195312900Y-109121222D01*
X195847100Y-109121222D01*
X195847100Y-109318777D01*
X195885641Y-109512537D01*
X195885642Y-109512538D01*
X195961241Y-109695051D01*
X196070996Y-109859312D01*
X196070997Y-109859313D01*
X196071000Y-109859317D01*
X196210682Y-109998999D01*
X196210685Y-109999001D01*
X196210688Y-109999004D01*
X196374949Y-110108759D01*
X196557461Y-110184357D01*
X196557462Y-110184358D01*
X196557463Y-110184358D01*
X196557465Y-110184359D01*
X196687218Y-110210168D01*
X196751222Y-110222900D01*
X196751223Y-110222900D01*
X196948778Y-110222900D01*
X197004967Y-110211723D01*
X197142535Y-110184359D01*
X197325051Y-110108759D01*
X197489312Y-109999004D01*
X197629004Y-109859312D01*
X197738759Y-109695051D01*
X197814359Y-109512535D01*
X197852900Y-109318777D01*
X197852900Y-109121223D01*
X197851446Y-109113914D01*
X197849173Y-109102483D01*
X197842234Y-109067600D01*
X198398276Y-109067600D01*
X198913198Y-109067600D01*
X198890000Y-109154174D01*
X198890000Y-109285826D01*
X198913198Y-109372400D01*
X198398276Y-109372400D01*
X198426121Y-109512385D01*
X198426122Y-109512388D01*
X198501684Y-109694812D01*
X198611389Y-109858998D01*
X198751001Y-109998610D01*
X198915187Y-110108315D01*
X199097607Y-110183876D01*
X199097608Y-110183877D01*
X199237599Y-110211723D01*
X199237600Y-110211723D01*
X199237600Y-109696802D01*
X199324174Y-109720000D01*
X199455826Y-109720000D01*
X199542400Y-109696802D01*
X199542400Y-110211723D01*
X199682391Y-110183877D01*
X199682392Y-110183876D01*
X199864812Y-110108315D01*
X200028998Y-109998610D01*
X200168610Y-109858998D01*
X200278315Y-109694812D01*
X200353877Y-109512388D01*
X200353878Y-109512385D01*
X200381724Y-109372400D01*
X199866802Y-109372400D01*
X199890000Y-109285826D01*
X199890000Y-109154174D01*
X199881170Y-109121222D01*
X200927100Y-109121222D01*
X200927100Y-109318777D01*
X200965641Y-109512537D01*
X200965642Y-109512538D01*
X201041241Y-109695051D01*
X201150996Y-109859312D01*
X201150997Y-109859313D01*
X201151000Y-109859317D01*
X201290682Y-109998999D01*
X201290685Y-109999001D01*
X201290688Y-109999004D01*
X201454949Y-110108759D01*
X201637461Y-110184357D01*
X201637462Y-110184358D01*
X201637463Y-110184358D01*
X201637465Y-110184359D01*
X201767218Y-110210168D01*
X201831222Y-110222900D01*
X201831223Y-110222900D01*
X202028778Y-110222900D01*
X202084967Y-110211723D01*
X202222535Y-110184359D01*
X202405051Y-110108759D01*
X202569312Y-109999004D01*
X202709004Y-109859312D01*
X202818759Y-109695051D01*
X202894359Y-109512535D01*
X202932900Y-109318777D01*
X202932900Y-109121223D01*
X202932899Y-109121220D01*
X202914159Y-109027007D01*
X202894359Y-108927465D01*
X202818759Y-108744949D01*
X202709004Y-108580688D01*
X202709001Y-108580685D01*
X202708999Y-108580682D01*
X202569317Y-108441000D01*
X202569313Y-108440997D01*
X202569312Y-108440996D01*
X202405051Y-108331241D01*
X202405049Y-108331240D01*
X202222538Y-108255642D01*
X202222537Y-108255641D01*
X202028778Y-108217100D01*
X202028777Y-108217100D01*
X201831223Y-108217100D01*
X201831222Y-108217100D01*
X201637462Y-108255641D01*
X201637461Y-108255642D01*
X201454950Y-108331240D01*
X201290682Y-108441000D01*
X201151000Y-108580682D01*
X201041240Y-108744950D01*
X200965642Y-108927461D01*
X200965641Y-108927462D01*
X200927100Y-109121222D01*
X199881170Y-109121222D01*
X199866802Y-109067600D01*
X200381724Y-109067600D01*
X200353878Y-108927614D01*
X200353877Y-108927611D01*
X200278315Y-108745187D01*
X200168610Y-108581001D01*
X200028998Y-108441389D01*
X199864812Y-108331684D01*
X199682388Y-108256122D01*
X199682385Y-108256121D01*
X199542400Y-108228276D01*
X199542400Y-108743197D01*
X199455826Y-108720000D01*
X199324174Y-108720000D01*
X199237600Y-108743197D01*
X199237600Y-108228276D01*
X199097614Y-108256121D01*
X199097611Y-108256122D01*
X198915187Y-108331684D01*
X198751001Y-108441389D01*
X198611389Y-108581001D01*
X198501684Y-108745187D01*
X198426122Y-108927611D01*
X198426121Y-108927614D01*
X198398276Y-109067600D01*
X197842234Y-109067600D01*
X197831357Y-109012922D01*
X197814359Y-108927465D01*
X197738759Y-108744949D01*
X197629004Y-108580688D01*
X197629001Y-108580685D01*
X197628999Y-108580682D01*
X197489317Y-108441000D01*
X197489313Y-108440997D01*
X197489312Y-108440996D01*
X197325051Y-108331241D01*
X197325049Y-108331240D01*
X197142538Y-108255642D01*
X197142537Y-108255641D01*
X196948778Y-108217100D01*
X196948777Y-108217100D01*
X196751223Y-108217100D01*
X196751222Y-108217100D01*
X196557462Y-108255641D01*
X196557461Y-108255642D01*
X196374950Y-108331240D01*
X196210682Y-108441000D01*
X196071000Y-108580682D01*
X195961240Y-108744950D01*
X195885642Y-108927461D01*
X195885641Y-108927462D01*
X195847100Y-109121222D01*
X195312900Y-109121222D01*
X195312899Y-109121220D01*
X195294159Y-109027007D01*
X195274359Y-108927465D01*
X195198759Y-108744949D01*
X195089004Y-108580688D01*
X195089001Y-108580685D01*
X195088999Y-108580682D01*
X194949317Y-108441000D01*
X194949313Y-108440997D01*
X194949312Y-108440996D01*
X194785051Y-108331241D01*
X194785049Y-108331240D01*
X194602538Y-108255642D01*
X194602537Y-108255641D01*
X194408778Y-108217100D01*
X194408777Y-108217100D01*
X194211223Y-108217100D01*
X194211222Y-108217100D01*
X194017462Y-108255641D01*
X194017461Y-108255642D01*
X193834950Y-108331240D01*
X193670682Y-108441000D01*
X193531000Y-108580682D01*
X193421240Y-108744950D01*
X193345642Y-108927461D01*
X193345641Y-108927462D01*
X193307100Y-109121222D01*
X192772900Y-109121222D01*
X192772899Y-109121220D01*
X192754159Y-109027007D01*
X192734359Y-108927465D01*
X192658759Y-108744949D01*
X192549004Y-108580688D01*
X192549001Y-108580685D01*
X192548999Y-108580682D01*
X192409317Y-108441000D01*
X192409313Y-108440997D01*
X192409312Y-108440996D01*
X192245051Y-108331241D01*
X192245049Y-108331240D01*
X192062538Y-108255642D01*
X192062537Y-108255641D01*
X191868778Y-108217100D01*
X191868777Y-108217100D01*
X191671223Y-108217100D01*
X191671222Y-108217100D01*
X191477462Y-108255641D01*
X191477461Y-108255642D01*
X191294950Y-108331240D01*
X191130682Y-108441000D01*
X190991000Y-108580682D01*
X190881240Y-108744950D01*
X190805642Y-108927461D01*
X190805641Y-108927462D01*
X190767100Y-109121222D01*
X190232900Y-109121222D01*
X190232899Y-109121220D01*
X190214159Y-109027007D01*
X190194359Y-108927465D01*
X190118759Y-108744949D01*
X190009004Y-108580688D01*
X190009001Y-108580685D01*
X190008999Y-108580682D01*
X189869317Y-108441000D01*
X189869313Y-108440997D01*
X189869312Y-108440996D01*
X189705051Y-108331241D01*
X189705049Y-108331240D01*
X189522538Y-108255642D01*
X189522537Y-108255641D01*
X189328778Y-108217100D01*
X189328777Y-108217100D01*
X189131223Y-108217100D01*
X189131222Y-108217100D01*
X188937462Y-108255641D01*
X188937461Y-108255642D01*
X188754950Y-108331240D01*
X188590682Y-108441000D01*
X188451000Y-108580682D01*
X188341240Y-108744950D01*
X188265642Y-108927461D01*
X188265641Y-108927462D01*
X188227100Y-109121222D01*
X187692900Y-109121222D01*
X187692899Y-109121220D01*
X187674159Y-109027007D01*
X187654359Y-108927465D01*
X187578759Y-108744949D01*
X187469004Y-108580688D01*
X187469001Y-108580685D01*
X187468999Y-108580682D01*
X187329317Y-108441000D01*
X187329313Y-108440997D01*
X187329312Y-108440996D01*
X187165051Y-108331241D01*
X187165049Y-108331240D01*
X186982538Y-108255642D01*
X186982537Y-108255641D01*
X186788778Y-108217100D01*
X186788777Y-108217100D01*
X186591223Y-108217100D01*
X186591222Y-108217100D01*
X186397462Y-108255641D01*
X186397461Y-108255642D01*
X186214950Y-108331240D01*
X186050682Y-108441000D01*
X185911000Y-108580682D01*
X185801240Y-108744950D01*
X185725642Y-108927461D01*
X185725641Y-108927462D01*
X185687100Y-109121222D01*
X185152900Y-109121222D01*
X185152899Y-109121220D01*
X185134159Y-109027007D01*
X185114359Y-108927465D01*
X185038759Y-108744949D01*
X184929004Y-108580688D01*
X184929001Y-108580685D01*
X184928999Y-108580682D01*
X184789317Y-108441000D01*
X184789313Y-108440997D01*
X184789312Y-108440996D01*
X184625051Y-108331241D01*
X184625049Y-108331240D01*
X184442538Y-108255642D01*
X184442537Y-108255641D01*
X184248778Y-108217100D01*
X184248777Y-108217100D01*
X184051223Y-108217100D01*
X184051222Y-108217100D01*
X183857462Y-108255641D01*
X183857461Y-108255642D01*
X183674950Y-108331240D01*
X183510682Y-108441000D01*
X183371000Y-108580682D01*
X183261240Y-108744950D01*
X183185642Y-108927461D01*
X183185641Y-108927462D01*
X183147100Y-109121222D01*
X182612900Y-109121222D01*
X182612899Y-109121220D01*
X182594159Y-109027007D01*
X182574359Y-108927465D01*
X182498759Y-108744949D01*
X182389004Y-108580688D01*
X182389001Y-108580685D01*
X182388999Y-108580682D01*
X182249317Y-108441000D01*
X182249313Y-108440997D01*
X182249312Y-108440996D01*
X182085051Y-108331241D01*
X182085049Y-108331240D01*
X181902538Y-108255642D01*
X181902537Y-108255641D01*
X181708778Y-108217100D01*
X181708777Y-108217100D01*
X181511223Y-108217100D01*
X181511222Y-108217100D01*
X181317462Y-108255641D01*
X181317461Y-108255642D01*
X181134950Y-108331240D01*
X180970682Y-108441000D01*
X180831000Y-108580682D01*
X180721240Y-108744950D01*
X180645642Y-108927461D01*
X180645641Y-108927462D01*
X180607100Y-109121222D01*
X180072900Y-109121222D01*
X180072899Y-109121220D01*
X180054159Y-109027007D01*
X180034359Y-108927465D01*
X179958759Y-108744949D01*
X179849004Y-108580688D01*
X179849001Y-108580685D01*
X179848999Y-108580682D01*
X179709317Y-108441000D01*
X179709313Y-108440997D01*
X179709312Y-108440996D01*
X179545051Y-108331241D01*
X179545049Y-108331240D01*
X179362538Y-108255642D01*
X179362537Y-108255641D01*
X179168778Y-108217100D01*
X179168777Y-108217100D01*
X178971223Y-108217100D01*
X178971222Y-108217100D01*
X178777462Y-108255641D01*
X178777461Y-108255642D01*
X178594950Y-108331240D01*
X178430682Y-108441000D01*
X178291000Y-108580682D01*
X178181240Y-108744950D01*
X178105642Y-108927461D01*
X178105641Y-108927462D01*
X178067100Y-109121222D01*
X177532900Y-109121222D01*
X177532899Y-109121220D01*
X177514159Y-109027007D01*
X177494359Y-108927465D01*
X177418759Y-108744949D01*
X177309004Y-108580688D01*
X177309001Y-108580685D01*
X177308999Y-108580682D01*
X177169317Y-108441000D01*
X177169313Y-108440997D01*
X177169312Y-108440996D01*
X177005051Y-108331241D01*
X177005049Y-108331240D01*
X176822538Y-108255642D01*
X176822537Y-108255641D01*
X176628778Y-108217100D01*
X176628777Y-108217100D01*
X176431223Y-108217100D01*
X176431222Y-108217100D01*
X176237462Y-108255641D01*
X176237461Y-108255642D01*
X176054950Y-108331240D01*
X175890682Y-108441000D01*
X175751000Y-108580682D01*
X175641240Y-108744950D01*
X175565642Y-108927461D01*
X175565641Y-108927462D01*
X175527100Y-109121222D01*
X174992900Y-109121222D01*
X174992899Y-109121220D01*
X174974159Y-109027007D01*
X174954359Y-108927465D01*
X174878759Y-108744949D01*
X174769004Y-108580688D01*
X174769001Y-108580685D01*
X174768999Y-108580682D01*
X174629317Y-108441000D01*
X174629313Y-108440997D01*
X174629312Y-108440996D01*
X174465051Y-108331241D01*
X174465049Y-108331240D01*
X174282538Y-108255642D01*
X174282537Y-108255641D01*
X174088778Y-108217100D01*
X174088777Y-108217100D01*
X173891223Y-108217100D01*
X173891222Y-108217100D01*
X173697462Y-108255641D01*
X173697461Y-108255642D01*
X173514950Y-108331240D01*
X173350682Y-108441000D01*
X173211000Y-108580682D01*
X173101240Y-108744950D01*
X173025642Y-108927461D01*
X173025641Y-108927462D01*
X172987100Y-109121222D01*
X172452900Y-109121222D01*
X172452899Y-109121220D01*
X172434159Y-109027007D01*
X172414359Y-108927465D01*
X172338759Y-108744949D01*
X172229004Y-108580688D01*
X172229001Y-108580685D01*
X172228999Y-108580682D01*
X172089317Y-108441000D01*
X172089313Y-108440997D01*
X172089312Y-108440996D01*
X171925051Y-108331241D01*
X171925049Y-108331240D01*
X171742538Y-108255642D01*
X171742537Y-108255641D01*
X171548778Y-108217100D01*
X171548777Y-108217100D01*
X171351223Y-108217100D01*
X171351222Y-108217100D01*
X171157462Y-108255641D01*
X171157461Y-108255642D01*
X170974950Y-108331240D01*
X170810682Y-108441000D01*
X170671000Y-108580682D01*
X170561240Y-108744950D01*
X170485642Y-108927461D01*
X170485641Y-108927462D01*
X170447100Y-109121222D01*
X169912900Y-109121222D01*
X169912899Y-109121220D01*
X169894159Y-109027007D01*
X169874359Y-108927465D01*
X169798759Y-108744949D01*
X169689004Y-108580688D01*
X169689001Y-108580685D01*
X169688999Y-108580682D01*
X169549317Y-108441000D01*
X169549313Y-108440997D01*
X169549312Y-108440996D01*
X169385051Y-108331241D01*
X169385049Y-108331240D01*
X169202538Y-108255642D01*
X169202537Y-108255641D01*
X169008778Y-108217100D01*
X169008777Y-108217100D01*
X168811223Y-108217100D01*
X168811222Y-108217100D01*
X168617462Y-108255641D01*
X168617461Y-108255642D01*
X168434950Y-108331240D01*
X168270682Y-108441000D01*
X168131000Y-108580682D01*
X168021240Y-108744950D01*
X167945642Y-108927461D01*
X167945641Y-108927462D01*
X167907100Y-109121222D01*
X167372900Y-109121222D01*
X167372899Y-109121220D01*
X167354159Y-109027007D01*
X167334359Y-108927465D01*
X167258759Y-108744949D01*
X167149004Y-108580688D01*
X167149001Y-108580685D01*
X167148999Y-108580682D01*
X167009317Y-108441000D01*
X167009313Y-108440997D01*
X167009312Y-108440996D01*
X166845051Y-108331241D01*
X166845049Y-108331240D01*
X166662538Y-108255642D01*
X166662537Y-108255641D01*
X166468778Y-108217100D01*
X166468777Y-108217100D01*
X166271223Y-108217100D01*
X166271222Y-108217100D01*
X166077462Y-108255641D01*
X166077461Y-108255642D01*
X165894950Y-108331240D01*
X165730682Y-108441000D01*
X165591000Y-108580682D01*
X165481240Y-108744950D01*
X165405642Y-108927461D01*
X165405641Y-108927462D01*
X165367100Y-109121222D01*
X164832900Y-109121222D01*
X164832899Y-109121220D01*
X164814159Y-109027007D01*
X164794359Y-108927465D01*
X164718759Y-108744949D01*
X164609004Y-108580688D01*
X164609001Y-108580685D01*
X164608999Y-108580682D01*
X164469317Y-108441000D01*
X164469313Y-108440997D01*
X164469312Y-108440996D01*
X164305051Y-108331241D01*
X164305049Y-108331240D01*
X164122538Y-108255642D01*
X164122537Y-108255641D01*
X163928778Y-108217100D01*
X163928777Y-108217100D01*
X163731223Y-108217100D01*
X163731222Y-108217100D01*
X163537462Y-108255641D01*
X163537461Y-108255642D01*
X163354950Y-108331240D01*
X163190682Y-108441000D01*
X163051000Y-108580682D01*
X162941240Y-108744950D01*
X162865642Y-108927461D01*
X162865641Y-108927462D01*
X162827100Y-109121222D01*
X162292900Y-109121222D01*
X162292899Y-109121220D01*
X162274159Y-109027007D01*
X162254359Y-108927465D01*
X162178759Y-108744949D01*
X162069004Y-108580688D01*
X162069001Y-108580685D01*
X162068999Y-108580682D01*
X161929317Y-108441000D01*
X161929313Y-108440997D01*
X161929312Y-108440996D01*
X161765051Y-108331241D01*
X161765049Y-108331240D01*
X161582538Y-108255642D01*
X161582537Y-108255641D01*
X161388778Y-108217100D01*
X161388777Y-108217100D01*
X161191223Y-108217100D01*
X161191222Y-108217100D01*
X160997462Y-108255641D01*
X160997461Y-108255642D01*
X160814950Y-108331240D01*
X160650682Y-108441000D01*
X160511000Y-108580682D01*
X160401240Y-108744950D01*
X160325642Y-108927461D01*
X160325641Y-108927462D01*
X160287100Y-109121222D01*
X159752900Y-109121222D01*
X159752899Y-109121220D01*
X159734159Y-109027007D01*
X159714359Y-108927465D01*
X159638759Y-108744949D01*
X159529004Y-108580688D01*
X159529001Y-108580685D01*
X159528999Y-108580682D01*
X159389317Y-108441000D01*
X159389313Y-108440997D01*
X159389312Y-108440996D01*
X159225051Y-108331241D01*
X159225049Y-108331240D01*
X159042538Y-108255642D01*
X159042537Y-108255641D01*
X158848778Y-108217100D01*
X158848777Y-108217100D01*
X158651223Y-108217100D01*
X158651222Y-108217100D01*
X158457462Y-108255641D01*
X158457461Y-108255642D01*
X158274950Y-108331240D01*
X158110682Y-108441000D01*
X157971000Y-108580682D01*
X157861240Y-108744950D01*
X157785642Y-108927461D01*
X157785641Y-108927462D01*
X157747100Y-109121222D01*
X157212900Y-109121222D01*
X157212899Y-109121220D01*
X157194159Y-109027007D01*
X157174359Y-108927465D01*
X157107491Y-108766032D01*
X157105248Y-108714643D01*
X157123792Y-108684084D01*
X158221951Y-107585927D01*
X158268571Y-107564187D01*
X158275125Y-107563901D01*
X182951446Y-107563901D01*
X182951448Y-107563901D01*
X183049656Y-107523222D01*
X185646521Y-104926357D01*
X185687200Y-104828149D01*
X185687200Y-104721851D01*
X185687200Y-102310195D01*
X190977100Y-102310195D01*
X190977100Y-102310200D01*
X190977100Y-107239800D01*
X190977447Y-107247764D01*
X190977700Y-107253565D01*
X190978613Y-107264003D01*
X190978842Y-107266615D01*
X190999396Y-107331807D01*
X191025115Y-107376355D01*
X191025118Y-107376359D01*
X191040905Y-107398904D01*
X191107856Y-107445783D01*
X191107857Y-107445783D01*
X191107859Y-107445785D01*
X191156197Y-107463378D01*
X191210195Y-107472899D01*
X191210196Y-107472900D01*
X191210200Y-107472900D01*
X194869790Y-107472900D01*
X194869800Y-107472900D01*
X194883557Y-107472300D01*
X194896615Y-107471158D01*
X194961807Y-107450604D01*
X195006356Y-107424884D01*
X195028904Y-107409095D01*
X195075785Y-107342141D01*
X195093378Y-107293803D01*
X195102899Y-107239804D01*
X195102900Y-107239804D01*
X195102900Y-105767599D01*
X195710132Y-105767599D01*
X195710133Y-105767600D01*
X196086577Y-105767600D01*
X196065444Y-105804204D01*
X196045000Y-105880504D01*
X196045000Y-105959496D01*
X196065444Y-106035796D01*
X196086577Y-106072400D01*
X195710133Y-106072400D01*
X195717671Y-106110298D01*
X195766851Y-106229029D01*
X195838244Y-106335877D01*
X195838252Y-106335886D01*
X195929113Y-106426747D01*
X195929122Y-106426755D01*
X196035970Y-106498148D01*
X196154698Y-106547327D01*
X196154699Y-106547328D01*
X196280743Y-106572400D01*
X196742600Y-106572400D01*
X196742600Y-106220000D01*
X197047400Y-106220000D01*
X197047400Y-106572400D01*
X197509257Y-106572400D01*
X197635300Y-106547328D01*
X197635301Y-106547327D01*
X197754029Y-106498148D01*
X197860877Y-106426755D01*
X197860886Y-106426747D01*
X197951747Y-106335886D01*
X197951755Y-106335877D01*
X198023148Y-106229029D01*
X198072328Y-106110298D01*
X198079867Y-106072400D01*
X197703423Y-106072400D01*
X197724556Y-106035796D01*
X197745000Y-105959496D01*
X197745000Y-105880504D01*
X197724556Y-105804204D01*
X197703423Y-105767600D01*
X198079867Y-105767600D01*
X198079867Y-105767599D01*
X200140132Y-105767599D01*
X200140133Y-105767600D01*
X200516577Y-105767600D01*
X200495444Y-105804204D01*
X200475000Y-105880504D01*
X200475000Y-105959496D01*
X200495444Y-106035796D01*
X200516577Y-106072400D01*
X200140133Y-106072400D01*
X200147671Y-106110298D01*
X200196851Y-106229029D01*
X200268244Y-106335877D01*
X200268252Y-106335886D01*
X200359113Y-106426747D01*
X200359122Y-106426755D01*
X200465970Y-106498148D01*
X200584698Y-106547327D01*
X200584699Y-106547328D01*
X200710743Y-106572400D01*
X200922600Y-106572400D01*
X200922600Y-106220000D01*
X201227400Y-106220000D01*
X201227400Y-106572400D01*
X201439257Y-106572400D01*
X201565300Y-106547328D01*
X201565301Y-106547327D01*
X201684029Y-106498148D01*
X201790877Y-106426755D01*
X201790886Y-106426747D01*
X201881747Y-106335886D01*
X201881755Y-106335877D01*
X201953148Y-106229029D01*
X202002328Y-106110298D01*
X202009867Y-106072400D01*
X201633423Y-106072400D01*
X201654556Y-106035796D01*
X201675000Y-105959496D01*
X201675000Y-105880504D01*
X201654556Y-105804204D01*
X201633423Y-105767600D01*
X202009867Y-105767600D01*
X202009867Y-105767599D01*
X202002328Y-105729701D01*
X201953148Y-105610970D01*
X201881755Y-105504122D01*
X201881747Y-105504113D01*
X201790886Y-105413252D01*
X201790877Y-105413244D01*
X201684029Y-105341851D01*
X201565301Y-105292672D01*
X201565300Y-105292671D01*
X201439257Y-105267600D01*
X201227400Y-105267600D01*
X201227400Y-105620000D01*
X200922600Y-105620000D01*
X200922600Y-105267600D01*
X200710743Y-105267600D01*
X200584699Y-105292671D01*
X200584698Y-105292672D01*
X200465970Y-105341851D01*
X200359122Y-105413244D01*
X200359113Y-105413252D01*
X200268252Y-105504113D01*
X200268244Y-105504122D01*
X200196851Y-105610970D01*
X200147671Y-105729701D01*
X200140132Y-105767599D01*
X198079867Y-105767599D01*
X198072328Y-105729701D01*
X198023148Y-105610970D01*
X197951755Y-105504122D01*
X197951747Y-105504113D01*
X197860886Y-105413252D01*
X197860877Y-105413244D01*
X197754029Y-105341851D01*
X197635301Y-105292672D01*
X197635300Y-105292671D01*
X197509257Y-105267600D01*
X197047400Y-105267600D01*
X197047400Y-105620000D01*
X196742600Y-105620000D01*
X196742600Y-105267600D01*
X196280743Y-105267600D01*
X196154699Y-105292671D01*
X196154698Y-105292672D01*
X196035970Y-105341851D01*
X195929122Y-105413244D01*
X195929113Y-105413252D01*
X195838252Y-105504113D01*
X195838244Y-105504122D01*
X195766851Y-105610970D01*
X195717671Y-105729701D01*
X195710132Y-105767599D01*
X195102900Y-105767599D01*
X195102900Y-104414234D01*
X196849500Y-104414234D01*
X196849500Y-104565766D01*
X196888214Y-104710250D01*
X196888719Y-104712134D01*
X196888722Y-104712142D01*
X196964484Y-104843365D01*
X197071634Y-104950515D01*
X197202857Y-105026277D01*
X197202860Y-105026278D01*
X197202865Y-105026281D01*
X197349234Y-105065500D01*
X197349237Y-105065500D01*
X197500763Y-105065500D01*
X197500766Y-105065500D01*
X197647135Y-105026281D01*
X197778365Y-104950515D01*
X197885515Y-104843365D01*
X197961281Y-104712135D01*
X198000500Y-104565766D01*
X198000500Y-104414234D01*
X197961281Y-104267865D01*
X197961278Y-104267860D01*
X197961277Y-104267857D01*
X197885515Y-104136634D01*
X197778365Y-104029484D01*
X197647142Y-103953722D01*
X197647136Y-103953720D01*
X197647135Y-103953719D01*
X197500766Y-103914500D01*
X197349234Y-103914500D01*
X197202865Y-103953719D01*
X197202857Y-103953722D01*
X197071634Y-104029484D01*
X196964484Y-104136634D01*
X196888722Y-104267857D01*
X196888719Y-104267865D01*
X196849500Y-104414234D01*
X195102900Y-104414234D01*
X195102900Y-102310210D01*
X195102900Y-102310200D01*
X195102300Y-102296443D01*
X195101158Y-102283385D01*
X195080604Y-102218193D01*
X195054884Y-102173644D01*
X195039095Y-102151096D01*
X195024541Y-102140905D01*
X194972143Y-102104216D01*
X194972144Y-102104216D01*
X194923802Y-102086621D01*
X194869804Y-102077100D01*
X194869800Y-102077100D01*
X191210200Y-102077100D01*
X191202959Y-102077415D01*
X191196434Y-102077700D01*
X191184690Y-102078727D01*
X191183385Y-102078842D01*
X191118193Y-102099396D01*
X191118192Y-102099396D01*
X191073644Y-102125115D01*
X191073640Y-102125118D01*
X191051095Y-102140905D01*
X191004216Y-102207855D01*
X190986621Y-102256197D01*
X190977100Y-102310195D01*
X185687200Y-102310195D01*
X185687200Y-101533792D01*
X186822100Y-101533792D01*
X186822100Y-101666208D01*
X186830827Y-101698777D01*
X186856371Y-101794114D01*
X186922578Y-101908786D01*
X186922582Y-101908792D01*
X187016207Y-102002417D01*
X187016210Y-102002419D01*
X187016212Y-102002421D01*
X187066775Y-102031613D01*
X187130885Y-102068628D01*
X187130887Y-102068628D01*
X187130888Y-102068629D01*
X187258792Y-102102900D01*
X187258794Y-102102900D01*
X187391206Y-102102900D01*
X187391208Y-102102900D01*
X187519112Y-102068629D01*
X187633788Y-102002421D01*
X187727421Y-101908788D01*
X187793629Y-101794112D01*
X187827900Y-101666208D01*
X187827900Y-101533792D01*
X187793629Y-101405888D01*
X187793628Y-101405887D01*
X187793628Y-101405885D01*
X187739216Y-101311642D01*
X187727421Y-101291212D01*
X187727419Y-101291210D01*
X187727417Y-101291207D01*
X187633792Y-101197582D01*
X187633786Y-101197578D01*
X187519114Y-101131371D01*
X187455160Y-101114235D01*
X187391208Y-101097100D01*
X187258792Y-101097100D01*
X187207630Y-101110808D01*
X187130885Y-101131371D01*
X187016213Y-101197578D01*
X187016207Y-101197582D01*
X186922582Y-101291207D01*
X186922578Y-101291213D01*
X186856371Y-101405885D01*
X186839755Y-101467900D01*
X186822100Y-101533792D01*
X185687200Y-101533792D01*
X185687200Y-100799848D01*
X185704793Y-100751510D01*
X185724804Y-100734721D01*
X185728788Y-100732421D01*
X185822421Y-100638788D01*
X185888629Y-100524112D01*
X185922900Y-100396208D01*
X185922900Y-100263792D01*
X185888629Y-100135888D01*
X185888628Y-100135887D01*
X185888628Y-100135885D01*
X185833105Y-100039718D01*
X185822421Y-100021212D01*
X185822419Y-100021210D01*
X185822417Y-100021207D01*
X185728792Y-99927582D01*
X185728786Y-99927578D01*
X185614114Y-99861371D01*
X185530635Y-99839004D01*
X185486208Y-99827100D01*
X185353792Y-99827100D01*
X185309365Y-99839004D01*
X185225885Y-99861371D01*
X185111213Y-99927578D01*
X185111207Y-99927582D01*
X185017582Y-100021207D01*
X185017578Y-100021213D01*
X184951371Y-100135885D01*
X184936390Y-100191800D01*
X184917100Y-100263792D01*
X184917100Y-100396208D01*
X184926288Y-100430497D01*
X184951371Y-100524114D01*
X185017578Y-100638786D01*
X185017582Y-100638792D01*
X185111207Y-100732417D01*
X185111210Y-100732419D01*
X185111212Y-100732421D01*
X185115196Y-100734721D01*
X185148263Y-100774124D01*
X185152800Y-100799848D01*
X185152800Y-104633174D01*
X185135207Y-104681512D01*
X185130774Y-104686348D01*
X182809647Y-107007475D01*
X182763027Y-107029215D01*
X182756473Y-107029501D01*
X174332400Y-107029501D01*
X174284062Y-107011908D01*
X174258342Y-106967359D01*
X174257200Y-106954301D01*
X174257200Y-102704848D01*
X174274793Y-102656510D01*
X174294804Y-102639721D01*
X174298788Y-102637421D01*
X174392421Y-102543788D01*
X174458629Y-102429112D01*
X174492900Y-102301208D01*
X174492900Y-102168792D01*
X174458629Y-102040888D01*
X174458628Y-102040887D01*
X174458628Y-102040885D01*
X174393064Y-101927326D01*
X174392421Y-101926212D01*
X174392419Y-101926210D01*
X174392417Y-101926207D01*
X174298792Y-101832582D01*
X174298786Y-101832578D01*
X174184114Y-101766371D01*
X174120160Y-101749235D01*
X174056208Y-101732100D01*
X173923792Y-101732100D01*
X173872630Y-101745808D01*
X173795885Y-101766371D01*
X173681213Y-101832578D01*
X173681207Y-101832582D01*
X173587582Y-101926207D01*
X173587578Y-101926213D01*
X173521371Y-102040885D01*
X173512217Y-102075051D01*
X173487100Y-102168792D01*
X173487100Y-102301208D01*
X173499859Y-102348827D01*
X173521371Y-102429114D01*
X173555808Y-102488759D01*
X173583697Y-102537065D01*
X173587578Y-102543786D01*
X173587582Y-102543792D01*
X173681207Y-102637417D01*
X173681210Y-102637419D01*
X173681212Y-102637421D01*
X173685196Y-102639721D01*
X173718263Y-102679124D01*
X173722800Y-102704848D01*
X173722800Y-106954301D01*
X173705207Y-107002639D01*
X173660658Y-107028359D01*
X173647600Y-107029501D01*
X168981448Y-107029501D01*
X168328149Y-107029501D01*
X158186448Y-107029501D01*
X158080150Y-107029501D01*
X158018218Y-107055153D01*
X157981939Y-107070181D01*
X156745916Y-108306204D01*
X156699296Y-108327944D01*
X156663964Y-108322506D01*
X156502538Y-108255642D01*
X156502537Y-108255641D01*
X156308778Y-108217100D01*
X156308777Y-108217100D01*
X156111223Y-108217100D01*
X156111222Y-108217100D01*
X155917462Y-108255641D01*
X155917461Y-108255642D01*
X155734950Y-108331240D01*
X155570682Y-108441000D01*
X155431000Y-108580682D01*
X155321240Y-108744950D01*
X155245642Y-108927461D01*
X155245641Y-108927462D01*
X155207100Y-109121222D01*
X154672899Y-109121222D01*
X154672899Y-108354944D01*
X154664028Y-108310342D01*
X154630234Y-108259766D01*
X154579658Y-108225972D01*
X154579656Y-108225971D01*
X154535057Y-108217100D01*
X152804944Y-108217100D01*
X152804942Y-108217101D01*
X152760340Y-108225972D01*
X152709767Y-108259764D01*
X152675972Y-108310342D01*
X152675971Y-108310343D01*
X152667100Y-108354942D01*
X151790500Y-108354942D01*
X151790500Y-98961222D01*
X152032100Y-98961222D01*
X152032100Y-99158777D01*
X152070641Y-99352537D01*
X152070642Y-99352538D01*
X152143581Y-99528629D01*
X152146241Y-99535051D01*
X152255996Y-99699312D01*
X152255997Y-99699313D01*
X152256000Y-99699317D01*
X152395682Y-99838999D01*
X152395685Y-99839001D01*
X152395688Y-99839004D01*
X152559949Y-99948759D01*
X152742461Y-100024357D01*
X152742462Y-100024358D01*
X152742463Y-100024358D01*
X152742465Y-100024359D01*
X152872218Y-100050168D01*
X152936222Y-100062900D01*
X152936223Y-100062900D01*
X153133778Y-100062900D01*
X153181889Y-100053329D01*
X153327535Y-100024359D01*
X153510051Y-99948759D01*
X153674312Y-99839004D01*
X153814004Y-99699312D01*
X153923759Y-99535051D01*
X153999359Y-99352535D01*
X154037900Y-99158777D01*
X154037900Y-98961223D01*
X154034906Y-98946171D01*
X154034173Y-98942483D01*
X154002999Y-98785766D01*
X153999359Y-98767465D01*
X153932491Y-98606032D01*
X153930248Y-98554643D01*
X153948792Y-98524084D01*
X155047441Y-97425437D01*
X155094061Y-97403697D01*
X155100615Y-97403411D01*
X156115320Y-97403411D01*
X156144097Y-97409135D01*
X156166790Y-97418534D01*
X156175640Y-97422200D01*
X159067352Y-97422200D01*
X159115690Y-97439793D01*
X159141410Y-97484342D01*
X159132477Y-97535000D01*
X159120526Y-97550574D01*
X156756348Y-99914752D01*
X156709728Y-99936492D01*
X156703174Y-99936778D01*
X156297379Y-99936778D01*
X156249041Y-99919185D01*
X156223321Y-99874636D01*
X156232254Y-99823978D01*
X156244205Y-99808404D01*
X156353609Y-99698999D01*
X156353610Y-99698998D01*
X156463315Y-99534812D01*
X156538877Y-99352388D01*
X156538878Y-99352385D01*
X156566724Y-99212400D01*
X156051802Y-99212400D01*
X156075000Y-99125826D01*
X156075000Y-98994174D01*
X156051802Y-98907600D01*
X156566723Y-98907600D01*
X156538878Y-98767614D01*
X156538877Y-98767611D01*
X156463315Y-98585187D01*
X156353610Y-98421001D01*
X156213998Y-98281389D01*
X156049812Y-98171684D01*
X155867388Y-98096122D01*
X155867385Y-98096121D01*
X155727400Y-98068276D01*
X155727400Y-98583197D01*
X155640826Y-98560000D01*
X155509174Y-98560000D01*
X155422600Y-98583197D01*
X155422600Y-98068276D01*
X155282614Y-98096121D01*
X155282611Y-98096122D01*
X155100187Y-98171684D01*
X154936001Y-98281389D01*
X154796389Y-98421001D01*
X154686684Y-98585187D01*
X154611122Y-98767611D01*
X154611121Y-98767614D01*
X154583276Y-98907600D01*
X155098198Y-98907600D01*
X155075000Y-98994174D01*
X155075000Y-99125826D01*
X155098198Y-99212400D01*
X154583276Y-99212400D01*
X154611121Y-99352385D01*
X154611122Y-99352388D01*
X154686684Y-99534812D01*
X154796389Y-99698998D01*
X154905795Y-99808404D01*
X154927535Y-99855024D01*
X154914221Y-99904711D01*
X154872084Y-99934216D01*
X154852621Y-99936778D01*
X154484171Y-99936778D01*
X154377873Y-99936778D01*
X154316499Y-99962200D01*
X154279662Y-99977458D01*
X153570916Y-100686204D01*
X153524296Y-100707944D01*
X153488964Y-100702506D01*
X153327538Y-100635642D01*
X153327537Y-100635641D01*
X153133778Y-100597100D01*
X153133777Y-100597100D01*
X152936223Y-100597100D01*
X152936222Y-100597100D01*
X152742462Y-100635641D01*
X152742461Y-100635642D01*
X152559950Y-100711240D01*
X152395682Y-100821000D01*
X152256000Y-100960682D01*
X152146240Y-101124950D01*
X152070642Y-101307461D01*
X152070641Y-101307462D01*
X152032100Y-101501222D01*
X152032100Y-101698777D01*
X152070641Y-101892537D01*
X152070642Y-101892538D01*
X152143581Y-102068629D01*
X152146241Y-102075051D01*
X152255996Y-102239312D01*
X152255997Y-102239313D01*
X152256000Y-102239317D01*
X152395682Y-102378999D01*
X152395685Y-102379001D01*
X152395688Y-102379004D01*
X152559949Y-102488759D01*
X152742461Y-102564357D01*
X152742462Y-102564358D01*
X152742463Y-102564358D01*
X152742465Y-102564359D01*
X152872218Y-102590168D01*
X152936222Y-102602900D01*
X152936223Y-102602900D01*
X153133778Y-102602900D01*
X153181889Y-102593329D01*
X153327535Y-102564359D01*
X153510051Y-102488759D01*
X153674312Y-102379004D01*
X153814004Y-102239312D01*
X153923759Y-102075051D01*
X153999359Y-101892535D01*
X154037900Y-101698777D01*
X154037900Y-101501223D01*
X153999359Y-101307465D01*
X153932491Y-101146032D01*
X153930248Y-101094643D01*
X153948790Y-101064086D01*
X154519675Y-100493202D01*
X154566294Y-100471464D01*
X154572848Y-100471178D01*
X155345758Y-100471178D01*
X155394096Y-100488771D01*
X155419816Y-100533320D01*
X155410883Y-100583978D01*
X155371478Y-100617043D01*
X155360429Y-100620133D01*
X155282463Y-100635641D01*
X155282461Y-100635642D01*
X155099950Y-100711240D01*
X154935682Y-100821000D01*
X154796000Y-100960682D01*
X154686240Y-101124950D01*
X154610642Y-101307461D01*
X154610641Y-101307462D01*
X154572100Y-101501222D01*
X154572100Y-101698777D01*
X154610641Y-101892537D01*
X154610642Y-101892538D01*
X154683581Y-102068629D01*
X154686241Y-102075051D01*
X154795996Y-102239312D01*
X154795997Y-102239313D01*
X154796000Y-102239317D01*
X154935682Y-102378999D01*
X154935685Y-102379001D01*
X154935688Y-102379004D01*
X155099949Y-102488759D01*
X155282461Y-102564357D01*
X155282462Y-102564358D01*
X155282463Y-102564358D01*
X155282465Y-102564359D01*
X155412218Y-102590168D01*
X155476222Y-102602900D01*
X155476223Y-102602900D01*
X155673778Y-102602900D01*
X155721889Y-102593329D01*
X155867535Y-102564359D01*
X156050051Y-102488759D01*
X156214312Y-102379004D01*
X156354004Y-102239312D01*
X156463759Y-102075051D01*
X156539359Y-101892535D01*
X156542056Y-101878975D01*
X156568737Y-101835001D01*
X156575458Y-101831026D01*
X156575198Y-101830637D01*
X156581357Y-101826521D01*
X157664085Y-100743793D01*
X158753726Y-99654150D01*
X158800346Y-99632411D01*
X158850033Y-99645725D01*
X158879538Y-99687862D01*
X158882100Y-99707325D01*
X158882100Y-99761208D01*
X158894746Y-99808404D01*
X158916371Y-99889114D01*
X158982578Y-100003786D01*
X158982582Y-100003792D01*
X159076207Y-100097417D01*
X159076210Y-100097419D01*
X159076212Y-100097421D01*
X159126775Y-100126613D01*
X159190885Y-100163628D01*
X159190887Y-100163628D01*
X159190888Y-100163629D01*
X159318792Y-100197900D01*
X159318794Y-100197900D01*
X159451206Y-100197900D01*
X159451208Y-100197900D01*
X159579112Y-100163629D01*
X159693788Y-100097421D01*
X159787421Y-100003788D01*
X159853629Y-99889112D01*
X159887900Y-99761208D01*
X159887900Y-99628792D01*
X159853629Y-99500888D01*
X159853628Y-99500887D01*
X159853628Y-99500885D01*
X159798715Y-99405774D01*
X159787421Y-99386212D01*
X159787419Y-99386210D01*
X159787417Y-99386207D01*
X159693792Y-99292582D01*
X159693786Y-99292578D01*
X159579114Y-99226371D01*
X159515160Y-99209235D01*
X159451208Y-99192100D01*
X159397325Y-99192100D01*
X159348987Y-99174507D01*
X159323267Y-99129958D01*
X159332200Y-99079300D01*
X159344151Y-99063726D01*
X159712733Y-98695145D01*
X160199652Y-98208226D01*
X160246272Y-98186486D01*
X160252826Y-98186200D01*
X165815343Y-98186200D01*
X165863681Y-98203793D01*
X165889401Y-98248342D01*
X165887981Y-98280860D01*
X165867100Y-98358792D01*
X165867100Y-98358794D01*
X165867100Y-98481900D01*
X165849507Y-98530238D01*
X165804958Y-98555958D01*
X165791900Y-98557100D01*
X165668792Y-98557100D01*
X165622409Y-98569528D01*
X165540885Y-98591371D01*
X165426213Y-98657578D01*
X165426207Y-98657582D01*
X165332582Y-98751207D01*
X165332578Y-98751213D01*
X165266371Y-98865885D01*
X165248619Y-98932142D01*
X165232100Y-98993792D01*
X165232100Y-98993794D01*
X165232100Y-99116900D01*
X165214507Y-99165238D01*
X165169958Y-99190958D01*
X165156900Y-99192100D01*
X165033792Y-99192100D01*
X164982630Y-99205808D01*
X164905885Y-99226371D01*
X164791213Y-99292578D01*
X164791207Y-99292582D01*
X164697582Y-99386207D01*
X164697578Y-99386213D01*
X164631371Y-99500885D01*
X164617619Y-99552213D01*
X164597100Y-99628792D01*
X164597100Y-99761208D01*
X164609746Y-99808404D01*
X164631371Y-99889114D01*
X164697578Y-100003786D01*
X164697582Y-100003792D01*
X164791207Y-100097417D01*
X164791210Y-100097419D01*
X164791212Y-100097421D01*
X164841775Y-100126613D01*
X164905885Y-100163628D01*
X164905887Y-100163628D01*
X164905888Y-100163629D01*
X165033792Y-100197900D01*
X165033794Y-100197900D01*
X165166206Y-100197900D01*
X165166208Y-100197900D01*
X165294112Y-100163629D01*
X165408788Y-100097421D01*
X165424073Y-100082136D01*
X165466492Y-100039718D01*
X165513112Y-100017978D01*
X165562799Y-100031292D01*
X165572840Y-100039718D01*
X166143479Y-100610357D01*
X166218643Y-100685521D01*
X166316851Y-100726200D01*
X167130834Y-100726200D01*
X167179172Y-100743793D01*
X167204892Y-100788342D01*
X167195959Y-100839000D01*
X167171371Y-100881586D01*
X167154235Y-100945540D01*
X167137100Y-101009492D01*
X167137100Y-101141908D01*
X167157662Y-101218650D01*
X167171371Y-101269814D01*
X167237578Y-101384486D01*
X167237582Y-101384492D01*
X167331207Y-101478117D01*
X167331210Y-101478119D01*
X167331212Y-101478121D01*
X167371224Y-101501222D01*
X167445885Y-101544328D01*
X167445887Y-101544328D01*
X167445888Y-101544329D01*
X167573792Y-101578600D01*
X167573794Y-101578600D01*
X167706206Y-101578600D01*
X167706208Y-101578600D01*
X167834112Y-101544329D01*
X167948788Y-101478121D01*
X168042421Y-101384488D01*
X168098648Y-101287100D01*
X168138053Y-101254035D01*
X168163773Y-101249500D01*
X168346297Y-101249500D01*
X168394635Y-101267093D01*
X168420355Y-101311642D01*
X168411422Y-101362300D01*
X168399471Y-101377874D01*
X164694673Y-105082674D01*
X164648053Y-105104414D01*
X164641499Y-105104700D01*
X156649711Y-105104700D01*
X156601373Y-105087107D01*
X156575653Y-105042558D01*
X156575957Y-105014826D01*
X156576514Y-105012020D01*
X156577900Y-105005057D01*
X156577899Y-103274944D01*
X156569028Y-103230342D01*
X156535234Y-103179766D01*
X156484658Y-103145972D01*
X156484656Y-103145971D01*
X156440057Y-103137100D01*
X154709944Y-103137100D01*
X154709942Y-103137101D01*
X154665340Y-103145972D01*
X154614767Y-103179764D01*
X154580972Y-103230342D01*
X154580971Y-103230343D01*
X154572100Y-103274942D01*
X154572100Y-105005055D01*
X154574045Y-105014829D01*
X154573912Y-105015688D01*
X154574348Y-105016442D01*
X154570013Y-105041020D01*
X154566220Y-105065670D01*
X154565566Y-105066243D01*
X154565415Y-105067100D01*
X154546295Y-105083143D01*
X154527545Y-105099587D01*
X154526455Y-105099791D01*
X154526010Y-105100165D01*
X154500290Y-105104700D01*
X154462607Y-105104700D01*
X154414269Y-105087107D01*
X154409433Y-105082674D01*
X153964575Y-104637816D01*
X153942835Y-104591196D01*
X153948272Y-104555867D01*
X153999359Y-104432535D01*
X154037900Y-104238777D01*
X154037900Y-104041223D01*
X153999359Y-103847465D01*
X153923759Y-103664949D01*
X153814004Y-103500688D01*
X153814001Y-103500685D01*
X153813999Y-103500682D01*
X153674317Y-103361000D01*
X153674313Y-103360997D01*
X153674312Y-103360996D01*
X153510051Y-103251241D01*
X153510049Y-103251240D01*
X153327538Y-103175642D01*
X153327537Y-103175641D01*
X153133778Y-103137100D01*
X153133777Y-103137100D01*
X152936223Y-103137100D01*
X152936222Y-103137100D01*
X152742462Y-103175641D01*
X152742461Y-103175642D01*
X152559950Y-103251240D01*
X152395682Y-103361000D01*
X152256000Y-103500682D01*
X152146240Y-103664950D01*
X152070642Y-103847461D01*
X152070641Y-103847462D01*
X152032100Y-104041222D01*
X152032100Y-104238777D01*
X152070641Y-104432537D01*
X152070642Y-104432538D01*
X152143581Y-104608629D01*
X152146241Y-104615051D01*
X152255996Y-104779312D01*
X152255997Y-104779313D01*
X152256000Y-104779317D01*
X152395682Y-104918999D01*
X152395685Y-104919001D01*
X152395688Y-104919004D01*
X152559949Y-105028759D01*
X152742461Y-105104357D01*
X152742462Y-105104358D01*
X152742463Y-105104358D01*
X152742465Y-105104359D01*
X152872218Y-105130168D01*
X152936222Y-105142900D01*
X152936223Y-105142900D01*
X153133778Y-105142900D01*
X153172528Y-105135191D01*
X153327535Y-105104359D01*
X153450866Y-105053272D01*
X153502255Y-105051029D01*
X153532816Y-105069575D01*
X154117536Y-105654296D01*
X154117538Y-105654297D01*
X154117541Y-105654300D01*
X154187158Y-105694494D01*
X154207961Y-105700067D01*
X154207964Y-105700069D01*
X154207964Y-105700068D01*
X154264807Y-105715300D01*
X164839296Y-105715300D01*
X164839299Y-105715300D01*
X164916947Y-105694494D01*
X164957184Y-105671263D01*
X164986565Y-105654300D01*
X166844274Y-103796591D01*
X168713540Y-101927326D01*
X168760160Y-101905586D01*
X168766714Y-101905300D01*
X171647942Y-101905300D01*
X171696280Y-101922893D01*
X171701116Y-101927326D01*
X171776207Y-102002417D01*
X171776210Y-102002419D01*
X171776212Y-102002421D01*
X171826775Y-102031613D01*
X171890885Y-102068628D01*
X171890887Y-102068628D01*
X171890888Y-102068629D01*
X172018792Y-102102900D01*
X172018794Y-102102900D01*
X172151206Y-102102900D01*
X172151208Y-102102900D01*
X172279112Y-102068629D01*
X172393788Y-102002421D01*
X172487421Y-101908788D01*
X172553629Y-101794112D01*
X172587900Y-101666208D01*
X172587900Y-101533792D01*
X172553629Y-101405888D01*
X172553628Y-101405887D01*
X172553628Y-101405885D01*
X172528464Y-101362300D01*
X172519532Y-101311641D01*
X172545252Y-101267093D01*
X172593589Y-101249500D01*
X174739034Y-101249500D01*
X174787372Y-101267093D01*
X174792208Y-101271526D01*
X176875774Y-103355092D01*
X176897514Y-103401712D01*
X176897800Y-103408266D01*
X176897800Y-104305150D01*
X176880207Y-104353488D01*
X176874315Y-104359745D01*
X176867874Y-104365845D01*
X176856212Y-104372579D01*
X176774437Y-104454353D01*
X176773698Y-104455054D01*
X176750968Y-104464912D01*
X176728537Y-104475373D01*
X176727495Y-104475093D01*
X176726506Y-104475523D01*
X176702760Y-104468465D01*
X176678850Y-104462059D01*
X176678231Y-104461176D01*
X176677198Y-104460869D01*
X176663550Y-104440209D01*
X176649345Y-104419922D01*
X176649144Y-104418402D01*
X176648845Y-104417948D01*
X176648956Y-104416973D01*
X176646783Y-104400459D01*
X176646783Y-104322677D01*
X176646783Y-104322675D01*
X176612512Y-104194771D01*
X176612511Y-104194770D01*
X176612511Y-104194768D01*
X176575496Y-104130658D01*
X176546304Y-104080095D01*
X176546302Y-104080093D01*
X176546300Y-104080090D01*
X176452675Y-103986465D01*
X176452669Y-103986461D01*
X176337997Y-103920254D01*
X176274043Y-103903118D01*
X176210091Y-103885983D01*
X176077675Y-103885983D01*
X176026513Y-103899691D01*
X175949768Y-103920254D01*
X175835096Y-103986461D01*
X175835090Y-103986465D01*
X175741465Y-104080090D01*
X175741461Y-104080096D01*
X175675254Y-104194768D01*
X175663463Y-104238777D01*
X175640983Y-104322675D01*
X175640983Y-104455091D01*
X175646458Y-104475523D01*
X175675254Y-104582997D01*
X175741461Y-104697669D01*
X175741465Y-104697675D01*
X175835090Y-104791300D01*
X175835093Y-104791302D01*
X175835095Y-104791304D01*
X175885658Y-104820496D01*
X175949768Y-104857511D01*
X175949770Y-104857511D01*
X175949771Y-104857512D01*
X176077675Y-104891783D01*
X176077677Y-104891783D01*
X176210089Y-104891783D01*
X176210091Y-104891783D01*
X176337995Y-104857512D01*
X176452671Y-104791304D01*
X176480551Y-104763424D01*
X176533726Y-104710250D01*
X176580346Y-104688510D01*
X176630033Y-104701824D01*
X176659538Y-104743961D01*
X176662100Y-104763424D01*
X176662100Y-104841208D01*
X176666469Y-104857512D01*
X176696371Y-104969114D01*
X176762578Y-105083786D01*
X176762582Y-105083792D01*
X176856207Y-105177417D01*
X176856210Y-105177419D01*
X176856212Y-105177421D01*
X176906775Y-105206613D01*
X176970885Y-105243628D01*
X176970887Y-105243628D01*
X176970888Y-105243629D01*
X177098792Y-105277900D01*
X177098794Y-105277900D01*
X177231206Y-105277900D01*
X177231208Y-105277900D01*
X177359112Y-105243629D01*
X177473788Y-105177421D01*
X177567421Y-105083788D01*
X177633629Y-104969112D01*
X177667900Y-104841208D01*
X177667900Y-104718100D01*
X177685493Y-104669762D01*
X177730042Y-104644042D01*
X177743100Y-104642900D01*
X177866206Y-104642900D01*
X177866208Y-104642900D01*
X177994112Y-104608629D01*
X178108788Y-104542421D01*
X178202421Y-104448788D01*
X178268629Y-104334112D01*
X178302900Y-104206208D01*
X178302900Y-104073792D01*
X178268629Y-103945888D01*
X178268628Y-103945887D01*
X178268628Y-103945885D01*
X178222889Y-103866664D01*
X178202421Y-103831212D01*
X178202419Y-103831210D01*
X178202417Y-103831207D01*
X178108786Y-103737576D01*
X178104795Y-103735272D01*
X178071733Y-103695865D01*
X178067200Y-103670150D01*
X178067200Y-103368600D01*
X178084793Y-103320262D01*
X178129342Y-103294542D01*
X178179998Y-103303474D01*
X178240888Y-103338629D01*
X178368792Y-103372900D01*
X178368794Y-103372900D01*
X178501206Y-103372900D01*
X178501208Y-103372900D01*
X178629112Y-103338629D01*
X178743788Y-103272421D01*
X178837421Y-103178788D01*
X178903629Y-103064112D01*
X178937900Y-102936208D01*
X178937900Y-102803792D01*
X178903629Y-102675888D01*
X178875888Y-102627839D01*
X178866955Y-102577181D01*
X178892675Y-102532633D01*
X178941013Y-102515039D01*
X178989350Y-102532632D01*
X178994187Y-102537065D01*
X179183827Y-102726705D01*
X179205567Y-102773325D01*
X179203293Y-102799332D01*
X179202100Y-102803785D01*
X179202100Y-102803792D01*
X179202100Y-102936208D01*
X179220605Y-103005272D01*
X179236371Y-103064114D01*
X179302578Y-103178786D01*
X179302582Y-103178792D01*
X179396207Y-103272417D01*
X179396210Y-103272419D01*
X179396212Y-103272421D01*
X179434527Y-103294542D01*
X179510885Y-103338628D01*
X179510887Y-103338628D01*
X179510888Y-103338629D01*
X179638792Y-103372900D01*
X179638794Y-103372900D01*
X179771206Y-103372900D01*
X179771208Y-103372900D01*
X179899112Y-103338629D01*
X180013788Y-103272421D01*
X180107421Y-103178788D01*
X180173629Y-103064112D01*
X180207900Y-102936208D01*
X180207900Y-102803792D01*
X180173629Y-102675888D01*
X180173628Y-102675886D01*
X180173628Y-102675885D01*
X180131489Y-102602900D01*
X180107421Y-102561212D01*
X180107419Y-102561210D01*
X180107417Y-102561207D01*
X180013792Y-102467582D01*
X180013786Y-102467578D01*
X179899114Y-102401371D01*
X179835160Y-102384235D01*
X179771208Y-102367100D01*
X179638792Y-102367100D01*
X179638785Y-102367100D01*
X179634332Y-102368293D01*
X179583089Y-102363803D01*
X179561705Y-102348827D01*
X176681359Y-99468480D01*
X176681357Y-99468479D01*
X176583149Y-99427800D01*
X176583148Y-99427800D01*
X176393601Y-99427800D01*
X176345263Y-99410207D01*
X176319543Y-99365658D01*
X176328476Y-99315000D01*
X176363628Y-99254114D01*
X176363629Y-99254112D01*
X176397900Y-99126208D01*
X176397900Y-98993792D01*
X176363629Y-98865888D01*
X176363628Y-98865887D01*
X176363628Y-98865885D01*
X176317369Y-98785763D01*
X176297421Y-98751212D01*
X176297419Y-98751210D01*
X176297417Y-98751207D01*
X176203792Y-98657582D01*
X176203786Y-98657578D01*
X176089114Y-98591371D01*
X176025160Y-98574235D01*
X175961208Y-98557100D01*
X175828792Y-98557100D01*
X175828785Y-98557100D01*
X175824332Y-98558293D01*
X175773089Y-98553803D01*
X175751705Y-98538827D01*
X175145452Y-97932574D01*
X175123712Y-97885954D01*
X175137026Y-97836267D01*
X175179163Y-97806762D01*
X175198626Y-97804200D01*
X176770174Y-97804200D01*
X176818512Y-97821793D01*
X176823348Y-97826226D01*
X177913827Y-98916705D01*
X177935567Y-98963325D01*
X177933293Y-98989332D01*
X177932100Y-98993785D01*
X177932100Y-98993792D01*
X177932100Y-99126208D01*
X177949449Y-99190958D01*
X177966371Y-99254114D01*
X178023197Y-99352538D01*
X178030772Y-99365659D01*
X178032578Y-99368786D01*
X178032582Y-99368792D01*
X178126207Y-99462417D01*
X178126210Y-99462419D01*
X178126212Y-99462421D01*
X178176775Y-99491613D01*
X178240885Y-99528628D01*
X178240887Y-99528628D01*
X178240888Y-99528629D01*
X178368792Y-99562900D01*
X178368794Y-99562900D01*
X178501206Y-99562900D01*
X178501208Y-99562900D01*
X178629112Y-99528629D01*
X178633796Y-99525925D01*
X178642661Y-99520806D01*
X178743788Y-99462421D01*
X178837421Y-99368788D01*
X178903629Y-99254112D01*
X178937900Y-99126208D01*
X178937900Y-98993792D01*
X178903629Y-98865888D01*
X178903628Y-98865887D01*
X178903628Y-98865885D01*
X178857369Y-98785763D01*
X178837421Y-98751212D01*
X178837419Y-98751210D01*
X178837417Y-98751207D01*
X178743792Y-98657582D01*
X178743786Y-98657578D01*
X178629114Y-98591371D01*
X178565160Y-98574235D01*
X178501208Y-98557100D01*
X178368792Y-98557100D01*
X178368785Y-98557100D01*
X178364332Y-98558293D01*
X178313089Y-98553803D01*
X178291705Y-98538827D01*
X177063359Y-97310480D01*
X177063357Y-97310479D01*
X176965149Y-97269800D01*
X176965148Y-97269800D01*
X173799626Y-97269800D01*
X173751288Y-97252207D01*
X173725568Y-97207658D01*
X173734501Y-97157000D01*
X173746452Y-97141426D01*
X174434086Y-96453792D01*
X175069085Y-95818792D01*
X178567100Y-95818792D01*
X178567100Y-95951208D01*
X178584755Y-96017100D01*
X178601371Y-96079114D01*
X178667578Y-96193786D01*
X178667582Y-96193792D01*
X178761207Y-96287417D01*
X178761210Y-96287419D01*
X178761212Y-96287421D01*
X178811775Y-96316613D01*
X178875885Y-96353628D01*
X178875887Y-96353628D01*
X178875888Y-96353629D01*
X179003792Y-96387900D01*
X179003794Y-96387900D01*
X179136206Y-96387900D01*
X179136208Y-96387900D01*
X179264112Y-96353629D01*
X179378788Y-96287421D01*
X179472421Y-96193788D01*
X179538629Y-96079112D01*
X179572900Y-95951208D01*
X179572900Y-95818792D01*
X179538629Y-95690888D01*
X179538628Y-95690887D01*
X179538628Y-95690885D01*
X179501613Y-95626775D01*
X179472421Y-95576212D01*
X179472419Y-95576210D01*
X179472417Y-95576207D01*
X179378792Y-95482582D01*
X179378786Y-95482578D01*
X179264114Y-95416371D01*
X179200160Y-95399235D01*
X179136208Y-95382100D01*
X179003792Y-95382100D01*
X178952630Y-95395808D01*
X178875885Y-95416371D01*
X178761213Y-95482578D01*
X178761207Y-95482582D01*
X178667582Y-95576207D01*
X178667578Y-95576213D01*
X178601371Y-95690885D01*
X178582668Y-95760689D01*
X178567100Y-95818792D01*
X175069085Y-95818792D01*
X175994083Y-94893793D01*
X176040702Y-94872054D01*
X176076031Y-94877491D01*
X176237461Y-94944357D01*
X176237462Y-94944358D01*
X176237463Y-94944358D01*
X176237465Y-94944359D01*
X176367218Y-94970168D01*
X176431222Y-94982900D01*
X176431223Y-94982900D01*
X176628778Y-94982900D01*
X176684967Y-94971723D01*
X176822535Y-94944359D01*
X177005051Y-94868759D01*
X177169312Y-94759004D01*
X177309004Y-94619312D01*
X177418759Y-94455051D01*
X177494359Y-94272535D01*
X177532900Y-94078777D01*
X177532900Y-93881223D01*
X177494359Y-93687465D01*
X177418759Y-93504949D01*
X177309004Y-93340688D01*
X177309001Y-93340685D01*
X177308999Y-93340682D01*
X177169317Y-93201000D01*
X177169313Y-93200997D01*
X177169312Y-93200996D01*
X177040498Y-93114925D01*
X177010082Y-93073443D01*
X177013447Y-93022113D01*
X177049018Y-92984955D01*
X177082278Y-92977200D01*
X178517722Y-92977200D01*
X178566060Y-92994793D01*
X178591780Y-93039342D01*
X178582847Y-93090000D01*
X178559502Y-93114925D01*
X178460345Y-93181180D01*
X178430682Y-93201000D01*
X178291000Y-93340682D01*
X178181240Y-93504950D01*
X178105642Y-93687461D01*
X178105641Y-93687462D01*
X178067100Y-93881222D01*
X178067100Y-94078777D01*
X178105641Y-94272537D01*
X178105642Y-94272538D01*
X178177461Y-94445925D01*
X178181241Y-94455051D01*
X178290996Y-94619312D01*
X178290997Y-94619313D01*
X178291000Y-94619317D01*
X178430682Y-94758999D01*
X178430685Y-94759001D01*
X178430688Y-94759004D01*
X178594949Y-94868759D01*
X178777461Y-94944357D01*
X178777462Y-94944358D01*
X178777463Y-94944358D01*
X178777465Y-94944359D01*
X178907218Y-94970168D01*
X178971222Y-94982900D01*
X178971223Y-94982900D01*
X179168778Y-94982900D01*
X179224967Y-94971723D01*
X179362535Y-94944359D01*
X179545051Y-94868759D01*
X179709312Y-94759004D01*
X179738951Y-94729365D01*
X179792126Y-94676191D01*
X179838746Y-94654451D01*
X179888433Y-94667765D01*
X179917938Y-94709902D01*
X179920500Y-94729365D01*
X179920500Y-100759551D01*
X179920500Y-100865849D01*
X179959781Y-100960682D01*
X179961180Y-100964059D01*
X182993827Y-103996705D01*
X183015567Y-104043325D01*
X183013293Y-104069332D01*
X183012100Y-104073785D01*
X183012100Y-104073792D01*
X183012100Y-104206208D01*
X183028621Y-104267865D01*
X183046371Y-104334114D01*
X183112578Y-104448786D01*
X183112582Y-104448792D01*
X183206207Y-104542417D01*
X183206210Y-104542419D01*
X183206212Y-104542421D01*
X183246642Y-104565763D01*
X183320885Y-104608628D01*
X183320887Y-104608628D01*
X183320888Y-104608629D01*
X183448792Y-104642900D01*
X183448794Y-104642900D01*
X183581206Y-104642900D01*
X183581208Y-104642900D01*
X183709112Y-104608629D01*
X183823788Y-104542421D01*
X183917421Y-104448788D01*
X183983629Y-104334112D01*
X184017900Y-104206208D01*
X184017900Y-104073792D01*
X183987078Y-103958761D01*
X183991562Y-103907520D01*
X184027935Y-103871147D01*
X184079176Y-103866663D01*
X184083792Y-103867900D01*
X184083793Y-103867900D01*
X184216206Y-103867900D01*
X184216208Y-103867900D01*
X184344112Y-103833629D01*
X184348299Y-103831212D01*
X184357661Y-103825806D01*
X184458788Y-103767421D01*
X184552421Y-103673788D01*
X184618629Y-103559112D01*
X184652900Y-103431208D01*
X184652900Y-103298792D01*
X184618629Y-103170888D01*
X184618628Y-103170887D01*
X184618628Y-103170885D01*
X184556982Y-103064112D01*
X184552421Y-103056212D01*
X184552419Y-103056210D01*
X184552417Y-103056207D01*
X184458792Y-102962582D01*
X184458786Y-102962578D01*
X184344114Y-102896371D01*
X184280160Y-102879235D01*
X184216208Y-102862100D01*
X184083792Y-102862100D01*
X184032630Y-102875808D01*
X183955885Y-102896371D01*
X183841213Y-102962578D01*
X183841207Y-102962582D01*
X183747582Y-103056207D01*
X183747578Y-103056213D01*
X183681371Y-103170885D01*
X183665441Y-103230340D01*
X183647100Y-103298792D01*
X183647100Y-103431208D01*
X183665717Y-103500688D01*
X183677921Y-103546235D01*
X183673437Y-103597479D01*
X183637063Y-103633853D01*
X183585824Y-103638336D01*
X183581208Y-103637100D01*
X183448792Y-103637100D01*
X183448785Y-103637100D01*
X183444332Y-103638293D01*
X183393089Y-103633803D01*
X183371705Y-103618827D01*
X180476926Y-100724048D01*
X180455186Y-100677428D01*
X180454900Y-100670874D01*
X180454900Y-93881222D01*
X180607100Y-93881222D01*
X180607100Y-94078777D01*
X180645641Y-94272537D01*
X180645642Y-94272538D01*
X180717461Y-94445925D01*
X180721241Y-94455051D01*
X180830996Y-94619312D01*
X180830997Y-94619313D01*
X180831000Y-94619317D01*
X180970682Y-94758999D01*
X180970685Y-94759001D01*
X180970688Y-94759004D01*
X181134949Y-94868759D01*
X181317461Y-94944357D01*
X181317462Y-94944358D01*
X181317463Y-94944358D01*
X181317465Y-94944359D01*
X181447218Y-94970168D01*
X181511222Y-94982900D01*
X181511223Y-94982900D01*
X181708778Y-94982900D01*
X181764967Y-94971723D01*
X181902535Y-94944359D01*
X182063967Y-94877491D01*
X182115355Y-94875248D01*
X182145916Y-94893794D01*
X187098479Y-99846357D01*
X187173643Y-99921521D01*
X187271851Y-99962200D01*
X191935151Y-99962200D01*
X191983489Y-99979793D01*
X192000277Y-99999801D01*
X192002579Y-100003789D01*
X192096207Y-100097417D01*
X192096210Y-100097419D01*
X192096212Y-100097421D01*
X192146775Y-100126613D01*
X192210885Y-100163628D01*
X192210887Y-100163628D01*
X192210888Y-100163629D01*
X192338792Y-100197900D01*
X192338794Y-100197900D01*
X192471206Y-100197900D01*
X192471208Y-100197900D01*
X192599112Y-100163629D01*
X192713788Y-100097421D01*
X192807421Y-100003788D01*
X192873629Y-99889112D01*
X192907900Y-99761208D01*
X192907900Y-99628792D01*
X192873629Y-99500888D01*
X192873628Y-99500887D01*
X192873628Y-99500885D01*
X192818715Y-99405774D01*
X192807421Y-99386212D01*
X192807419Y-99386210D01*
X192807417Y-99386207D01*
X192713792Y-99292582D01*
X192713786Y-99292578D01*
X192599114Y-99226371D01*
X192535160Y-99209235D01*
X192471208Y-99192100D01*
X192338792Y-99192100D01*
X192287630Y-99205808D01*
X192210885Y-99226371D01*
X192096213Y-99292578D01*
X192096207Y-99292582D01*
X192002579Y-99386210D01*
X192000277Y-99390199D01*
X191960872Y-99423264D01*
X191935151Y-99427800D01*
X187466826Y-99427800D01*
X187418488Y-99410207D01*
X187413652Y-99405774D01*
X182523794Y-94515916D01*
X182502054Y-94469296D01*
X182507491Y-94433969D01*
X182574359Y-94272535D01*
X182612900Y-94078777D01*
X182612900Y-93881223D01*
X182612900Y-93881222D01*
X183147100Y-93881222D01*
X183147100Y-94078777D01*
X183185641Y-94272537D01*
X183185642Y-94272538D01*
X183257461Y-94445925D01*
X183261241Y-94455051D01*
X183370996Y-94619312D01*
X183370997Y-94619313D01*
X183371000Y-94619317D01*
X183510682Y-94758999D01*
X183510685Y-94759001D01*
X183510688Y-94759004D01*
X183674949Y-94868759D01*
X183857461Y-94944357D01*
X183857462Y-94944358D01*
X183857463Y-94944358D01*
X183857465Y-94944359D01*
X183987218Y-94970168D01*
X184051222Y-94982900D01*
X184051223Y-94982900D01*
X184248778Y-94982900D01*
X184304967Y-94971723D01*
X184442535Y-94944359D01*
X184603967Y-94877491D01*
X184655355Y-94875248D01*
X184685916Y-94893794D01*
X187826939Y-98034818D01*
X187826940Y-98034818D01*
X187826942Y-98034820D01*
X187925150Y-98075499D01*
X188031448Y-98075499D01*
X192559191Y-98075499D01*
X192607529Y-98093092D01*
X192612365Y-98097525D01*
X193351785Y-98836945D01*
X193373525Y-98883565D01*
X193373811Y-98890119D01*
X193373811Y-100082136D01*
X193356218Y-100130474D01*
X193351785Y-100135310D01*
X192872326Y-100614768D01*
X192825706Y-100636508D01*
X192776019Y-100623194D01*
X192765978Y-100614768D01*
X192713792Y-100562582D01*
X192713786Y-100562578D01*
X192599114Y-100496371D01*
X192535160Y-100479235D01*
X192471208Y-100462100D01*
X192338792Y-100462100D01*
X192287630Y-100475808D01*
X192210885Y-100496371D01*
X192096213Y-100562578D01*
X192096207Y-100562582D01*
X192002582Y-100656207D01*
X192002578Y-100656213D01*
X191936371Y-100770885D01*
X191931694Y-100788342D01*
X191902100Y-100898792D01*
X191902100Y-101031208D01*
X191916989Y-101086774D01*
X191936371Y-101159114D01*
X191978568Y-101232200D01*
X192000283Y-101269812D01*
X192002578Y-101273786D01*
X192002582Y-101273792D01*
X192096207Y-101367417D01*
X192096210Y-101367419D01*
X192096212Y-101367421D01*
X192125770Y-101384486D01*
X192210885Y-101433628D01*
X192210887Y-101433628D01*
X192210888Y-101433629D01*
X192338792Y-101467900D01*
X192338794Y-101467900D01*
X192471206Y-101467900D01*
X192471208Y-101467900D01*
X192599112Y-101433629D01*
X192713788Y-101367421D01*
X192807421Y-101273788D01*
X192809723Y-101269801D01*
X192849128Y-101236736D01*
X192874849Y-101232200D01*
X192953121Y-101232200D01*
X192953123Y-101232200D01*
X193051331Y-101191521D01*
X193867532Y-100375320D01*
X193908211Y-100277112D01*
X193908211Y-100170814D01*
X193908211Y-98695144D01*
X193882981Y-98634234D01*
X196849500Y-98634234D01*
X196849500Y-98785766D01*
X196888466Y-98931189D01*
X196888719Y-98932134D01*
X196888722Y-98932142D01*
X196964484Y-99063365D01*
X197071634Y-99170515D01*
X197202857Y-99246277D01*
X197202860Y-99246278D01*
X197202865Y-99246281D01*
X197349234Y-99285500D01*
X197349237Y-99285500D01*
X197500763Y-99285500D01*
X197500766Y-99285500D01*
X197647135Y-99246281D01*
X197778365Y-99170515D01*
X197885515Y-99063365D01*
X197961281Y-98932135D01*
X198000500Y-98785766D01*
X198000500Y-98634234D01*
X197961281Y-98487865D01*
X197961278Y-98487860D01*
X197961277Y-98487857D01*
X197885515Y-98356634D01*
X197778365Y-98249484D01*
X197647142Y-98173722D01*
X197647136Y-98173720D01*
X197647135Y-98173719D01*
X197500766Y-98134500D01*
X197349234Y-98134500D01*
X197224418Y-98167944D01*
X197202865Y-98173719D01*
X197202857Y-98173722D01*
X197071634Y-98249484D01*
X196964484Y-98356634D01*
X196888722Y-98487857D01*
X196888719Y-98487865D01*
X196849500Y-98634234D01*
X193882981Y-98634234D01*
X193867532Y-98596936D01*
X193792368Y-98521772D01*
X193327696Y-98057100D01*
X192852376Y-97581779D01*
X192852374Y-97581778D01*
X192754166Y-97541099D01*
X192754165Y-97541099D01*
X188120125Y-97541099D01*
X188104697Y-97535483D01*
X188088344Y-97534053D01*
X188074899Y-97524638D01*
X188071787Y-97523506D01*
X188066951Y-97519073D01*
X187675477Y-97127599D01*
X195710132Y-97127599D01*
X195710133Y-97127600D01*
X196086577Y-97127600D01*
X196065444Y-97164204D01*
X196045000Y-97240504D01*
X196045000Y-97319496D01*
X196065444Y-97395796D01*
X196086577Y-97432400D01*
X195710133Y-97432400D01*
X195717671Y-97470298D01*
X195766851Y-97589029D01*
X195838244Y-97695877D01*
X195838252Y-97695886D01*
X195929113Y-97786747D01*
X195929122Y-97786755D01*
X196035970Y-97858148D01*
X196154698Y-97907327D01*
X196154699Y-97907328D01*
X196280743Y-97932400D01*
X196742600Y-97932400D01*
X196742600Y-97580000D01*
X197047400Y-97580000D01*
X197047400Y-97932400D01*
X197509257Y-97932400D01*
X197635300Y-97907328D01*
X197635301Y-97907327D01*
X197754029Y-97858148D01*
X197860877Y-97786755D01*
X197860886Y-97786747D01*
X197951747Y-97695886D01*
X197951755Y-97695877D01*
X198023148Y-97589029D01*
X198072328Y-97470298D01*
X198079867Y-97432400D01*
X197703423Y-97432400D01*
X197724556Y-97395796D01*
X197745000Y-97319496D01*
X197745000Y-97240504D01*
X197724556Y-97164204D01*
X197703423Y-97127600D01*
X198079867Y-97127600D01*
X198079867Y-97127599D01*
X200140132Y-97127599D01*
X200140133Y-97127600D01*
X200516577Y-97127600D01*
X200495444Y-97164204D01*
X200475000Y-97240504D01*
X200475000Y-97319496D01*
X200495444Y-97395796D01*
X200516577Y-97432400D01*
X200140133Y-97432400D01*
X200147671Y-97470298D01*
X200196851Y-97589029D01*
X200268244Y-97695877D01*
X200268252Y-97695886D01*
X200359113Y-97786747D01*
X200359122Y-97786755D01*
X200465970Y-97858148D01*
X200584698Y-97907327D01*
X200584699Y-97907328D01*
X200710743Y-97932400D01*
X200922600Y-97932400D01*
X200922600Y-97580000D01*
X201227400Y-97580000D01*
X201227400Y-97932400D01*
X201439257Y-97932400D01*
X201565300Y-97907328D01*
X201565301Y-97907327D01*
X201684029Y-97858148D01*
X201790877Y-97786755D01*
X201790886Y-97786747D01*
X201881747Y-97695886D01*
X201881755Y-97695877D01*
X201953148Y-97589029D01*
X202002328Y-97470298D01*
X202009867Y-97432400D01*
X201633423Y-97432400D01*
X201654556Y-97395796D01*
X201675000Y-97319496D01*
X201675000Y-97240504D01*
X201654556Y-97164204D01*
X201633423Y-97127600D01*
X202009867Y-97127600D01*
X202009867Y-97127599D01*
X202002328Y-97089701D01*
X201953148Y-96970970D01*
X201881755Y-96864122D01*
X201881747Y-96864113D01*
X201790886Y-96773252D01*
X201790877Y-96773244D01*
X201684029Y-96701851D01*
X201565301Y-96652672D01*
X201565300Y-96652671D01*
X201439257Y-96627600D01*
X201227400Y-96627600D01*
X201227400Y-96980000D01*
X200922600Y-96980000D01*
X200922600Y-96627600D01*
X200710743Y-96627600D01*
X200584699Y-96652671D01*
X200584698Y-96652672D01*
X200465970Y-96701851D01*
X200359122Y-96773244D01*
X200359113Y-96773252D01*
X200268252Y-96864113D01*
X200268244Y-96864122D01*
X200196851Y-96970970D01*
X200147671Y-97089701D01*
X200140132Y-97127599D01*
X198079867Y-97127599D01*
X198072328Y-97089701D01*
X198023148Y-96970970D01*
X197951755Y-96864122D01*
X197951747Y-96864113D01*
X197860886Y-96773252D01*
X197860877Y-96773244D01*
X197754029Y-96701851D01*
X197635301Y-96652672D01*
X197635300Y-96652671D01*
X197509257Y-96627600D01*
X197047400Y-96627600D01*
X197047400Y-96980000D01*
X196742600Y-96980000D01*
X196742600Y-96627600D01*
X196280743Y-96627600D01*
X196154699Y-96652671D01*
X196154698Y-96652672D01*
X196035970Y-96701851D01*
X195929122Y-96773244D01*
X195929113Y-96773252D01*
X195838252Y-96864113D01*
X195838244Y-96864122D01*
X195766851Y-96970970D01*
X195717671Y-97089701D01*
X195710132Y-97127599D01*
X187675477Y-97127599D01*
X185063794Y-94515916D01*
X185042054Y-94469296D01*
X185047491Y-94433969D01*
X185114359Y-94272535D01*
X185152900Y-94078777D01*
X185152900Y-93881223D01*
X185152900Y-93881222D01*
X185687100Y-93881222D01*
X185687100Y-94078777D01*
X185725641Y-94272537D01*
X185725642Y-94272538D01*
X185797461Y-94445925D01*
X185801241Y-94455051D01*
X185910996Y-94619312D01*
X185910997Y-94619313D01*
X185911000Y-94619317D01*
X186050682Y-94758999D01*
X186050685Y-94759001D01*
X186050688Y-94759004D01*
X186214949Y-94868759D01*
X186397461Y-94944357D01*
X186397462Y-94944358D01*
X186397463Y-94944358D01*
X186397465Y-94944359D01*
X186527218Y-94970168D01*
X186591222Y-94982900D01*
X186591223Y-94982900D01*
X186788778Y-94982900D01*
X186844967Y-94971723D01*
X186982535Y-94944359D01*
X187165051Y-94868759D01*
X187329312Y-94759004D01*
X187469004Y-94619312D01*
X187578759Y-94455051D01*
X187654359Y-94272535D01*
X187692900Y-94078777D01*
X187692900Y-93881223D01*
X187692900Y-93881222D01*
X188227100Y-93881222D01*
X188227100Y-94078777D01*
X188265641Y-94272537D01*
X188265642Y-94272538D01*
X188337461Y-94445925D01*
X188341241Y-94455051D01*
X188450996Y-94619312D01*
X188450997Y-94619313D01*
X188451000Y-94619317D01*
X188590682Y-94758999D01*
X188590685Y-94759001D01*
X188590688Y-94759004D01*
X188754949Y-94868759D01*
X188937461Y-94944357D01*
X188937462Y-94944358D01*
X188937463Y-94944358D01*
X188937465Y-94944359D01*
X189067218Y-94970168D01*
X189131222Y-94982900D01*
X189131223Y-94982900D01*
X189328778Y-94982900D01*
X189384967Y-94971723D01*
X189522535Y-94944359D01*
X189705051Y-94868759D01*
X189869312Y-94759004D01*
X190009004Y-94619312D01*
X190118759Y-94455051D01*
X190194359Y-94272535D01*
X190232900Y-94078777D01*
X190232900Y-93881223D01*
X190232900Y-93881222D01*
X190767100Y-93881222D01*
X190767100Y-94078777D01*
X190805641Y-94272537D01*
X190805642Y-94272538D01*
X190877461Y-94445925D01*
X190881241Y-94455051D01*
X190990996Y-94619312D01*
X190990997Y-94619313D01*
X190991000Y-94619317D01*
X191130682Y-94758999D01*
X191130685Y-94759001D01*
X191130688Y-94759004D01*
X191294949Y-94868759D01*
X191477461Y-94944357D01*
X191477462Y-94944358D01*
X191477463Y-94944358D01*
X191477465Y-94944359D01*
X191607218Y-94970168D01*
X191671222Y-94982900D01*
X191671223Y-94982900D01*
X191868778Y-94982900D01*
X191924967Y-94971723D01*
X192062535Y-94944359D01*
X192245051Y-94868759D01*
X192409312Y-94759004D01*
X192549004Y-94619312D01*
X192658759Y-94455051D01*
X192734359Y-94272535D01*
X192772900Y-94078777D01*
X192772900Y-93881223D01*
X192772900Y-93881222D01*
X193307100Y-93881222D01*
X193307100Y-94078777D01*
X193345641Y-94272537D01*
X193345642Y-94272538D01*
X193417461Y-94445925D01*
X193421241Y-94455051D01*
X193530996Y-94619312D01*
X193530997Y-94619313D01*
X193531000Y-94619317D01*
X193670682Y-94758999D01*
X193670685Y-94759001D01*
X193670688Y-94759004D01*
X193834949Y-94868759D01*
X194017461Y-94944357D01*
X194017462Y-94944358D01*
X194017463Y-94944358D01*
X194017465Y-94944359D01*
X194147218Y-94970168D01*
X194211222Y-94982900D01*
X194211223Y-94982900D01*
X194408778Y-94982900D01*
X194464967Y-94971723D01*
X194602535Y-94944359D01*
X194785051Y-94868759D01*
X194949312Y-94759004D01*
X195089004Y-94619312D01*
X195198759Y-94455051D01*
X195274359Y-94272535D01*
X195312900Y-94078777D01*
X195312900Y-93881223D01*
X195312900Y-93881222D01*
X195847100Y-93881222D01*
X195847100Y-94078777D01*
X195885641Y-94272537D01*
X195885642Y-94272538D01*
X195957461Y-94445925D01*
X195961241Y-94455051D01*
X196070996Y-94619312D01*
X196070997Y-94619313D01*
X196071000Y-94619317D01*
X196210682Y-94758999D01*
X196210685Y-94759001D01*
X196210688Y-94759004D01*
X196374949Y-94868759D01*
X196557461Y-94944357D01*
X196557462Y-94944358D01*
X196557463Y-94944358D01*
X196557465Y-94944359D01*
X196687218Y-94970168D01*
X196751222Y-94982900D01*
X196751223Y-94982900D01*
X196948778Y-94982900D01*
X197004967Y-94971723D01*
X197142535Y-94944359D01*
X197325051Y-94868759D01*
X197489312Y-94759004D01*
X197629004Y-94619312D01*
X197738759Y-94455051D01*
X197814359Y-94272535D01*
X197852900Y-94078777D01*
X197852900Y-93881223D01*
X197852900Y-93881222D01*
X198387100Y-93881222D01*
X198387100Y-94078777D01*
X198425641Y-94272537D01*
X198425642Y-94272538D01*
X198497461Y-94445925D01*
X198501241Y-94455051D01*
X198610996Y-94619312D01*
X198610997Y-94619313D01*
X198611000Y-94619317D01*
X198750682Y-94758999D01*
X198750685Y-94759001D01*
X198750688Y-94759004D01*
X198914949Y-94868759D01*
X199097461Y-94944357D01*
X199097462Y-94944358D01*
X199097463Y-94944358D01*
X199097465Y-94944359D01*
X199227218Y-94970168D01*
X199291222Y-94982900D01*
X199291223Y-94982900D01*
X199488778Y-94982900D01*
X199544967Y-94971723D01*
X199682535Y-94944359D01*
X199865051Y-94868759D01*
X200029312Y-94759004D01*
X200169004Y-94619312D01*
X200278759Y-94455051D01*
X200354359Y-94272535D01*
X200392900Y-94078777D01*
X200392900Y-93881223D01*
X200392900Y-93881222D01*
X200927100Y-93881222D01*
X200927100Y-94078777D01*
X200965641Y-94272537D01*
X200965642Y-94272538D01*
X201037461Y-94445925D01*
X201041241Y-94455051D01*
X201150996Y-94619312D01*
X201150997Y-94619313D01*
X201151000Y-94619317D01*
X201290682Y-94758999D01*
X201290685Y-94759001D01*
X201290688Y-94759004D01*
X201454949Y-94868759D01*
X201637461Y-94944357D01*
X201637462Y-94944358D01*
X201637463Y-94944358D01*
X201637465Y-94944359D01*
X201767218Y-94970168D01*
X201831222Y-94982900D01*
X201831223Y-94982900D01*
X202028778Y-94982900D01*
X202084967Y-94971723D01*
X202222535Y-94944359D01*
X202405051Y-94868759D01*
X202569312Y-94759004D01*
X202709004Y-94619312D01*
X202818759Y-94455051D01*
X202894359Y-94272535D01*
X202932900Y-94078777D01*
X202932900Y-93881223D01*
X202894359Y-93687465D01*
X202818759Y-93504949D01*
X202709004Y-93340688D01*
X202709001Y-93340685D01*
X202708999Y-93340682D01*
X202569317Y-93201000D01*
X202569313Y-93200997D01*
X202569312Y-93200996D01*
X202405051Y-93091241D01*
X202402055Y-93090000D01*
X202222538Y-93015642D01*
X202222537Y-93015641D01*
X202028778Y-92977100D01*
X202028777Y-92977100D01*
X201831223Y-92977100D01*
X201831222Y-92977100D01*
X201637462Y-93015641D01*
X201637461Y-93015642D01*
X201454950Y-93091240D01*
X201290682Y-93201000D01*
X201151000Y-93340682D01*
X201041240Y-93504950D01*
X200965642Y-93687461D01*
X200965641Y-93687462D01*
X200927100Y-93881222D01*
X200392900Y-93881222D01*
X200354359Y-93687465D01*
X200278759Y-93504949D01*
X200169004Y-93340688D01*
X200169001Y-93340685D01*
X200168999Y-93340682D01*
X200029317Y-93201000D01*
X200029313Y-93200997D01*
X200029312Y-93200996D01*
X199865051Y-93091241D01*
X199862055Y-93090000D01*
X199682538Y-93015642D01*
X199682537Y-93015641D01*
X199488778Y-92977100D01*
X199488777Y-92977100D01*
X199291223Y-92977100D01*
X199291222Y-92977100D01*
X199097462Y-93015641D01*
X199097461Y-93015642D01*
X198914950Y-93091240D01*
X198750682Y-93201000D01*
X198611000Y-93340682D01*
X198501240Y-93504950D01*
X198425642Y-93687461D01*
X198425641Y-93687462D01*
X198387100Y-93881222D01*
X197852900Y-93881222D01*
X197814359Y-93687465D01*
X197738759Y-93504949D01*
X197629004Y-93340688D01*
X197629001Y-93340685D01*
X197628999Y-93340682D01*
X197489317Y-93201000D01*
X197489313Y-93200997D01*
X197489312Y-93200996D01*
X197325051Y-93091241D01*
X197322055Y-93090000D01*
X197142538Y-93015642D01*
X197142537Y-93015641D01*
X196948778Y-92977100D01*
X196948777Y-92977100D01*
X196751223Y-92977100D01*
X196751222Y-92977100D01*
X196557462Y-93015641D01*
X196557461Y-93015642D01*
X196374950Y-93091240D01*
X196210682Y-93201000D01*
X196071000Y-93340682D01*
X195961240Y-93504950D01*
X195885642Y-93687461D01*
X195885641Y-93687462D01*
X195847100Y-93881222D01*
X195312900Y-93881222D01*
X195274359Y-93687465D01*
X195198759Y-93504949D01*
X195089004Y-93340688D01*
X195089001Y-93340685D01*
X195088999Y-93340682D01*
X194949317Y-93201000D01*
X194949313Y-93200997D01*
X194949312Y-93200996D01*
X194785051Y-93091241D01*
X194782055Y-93090000D01*
X194602538Y-93015642D01*
X194602537Y-93015641D01*
X194408778Y-92977100D01*
X194408777Y-92977100D01*
X194211223Y-92977100D01*
X194211222Y-92977100D01*
X194017462Y-93015641D01*
X194017461Y-93015642D01*
X193834950Y-93091240D01*
X193670682Y-93201000D01*
X193531000Y-93340682D01*
X193421240Y-93504950D01*
X193345642Y-93687461D01*
X193345641Y-93687462D01*
X193307100Y-93881222D01*
X192772900Y-93881222D01*
X192734359Y-93687465D01*
X192658759Y-93504949D01*
X192549004Y-93340688D01*
X192549001Y-93340685D01*
X192548999Y-93340682D01*
X192409317Y-93201000D01*
X192409313Y-93200997D01*
X192409312Y-93200996D01*
X192245051Y-93091241D01*
X192242055Y-93090000D01*
X192062538Y-93015642D01*
X192062537Y-93015641D01*
X191868778Y-92977100D01*
X191868777Y-92977100D01*
X191671223Y-92977100D01*
X191671222Y-92977100D01*
X191477462Y-93015641D01*
X191477461Y-93015642D01*
X191294950Y-93091240D01*
X191130682Y-93201000D01*
X190991000Y-93340682D01*
X190881240Y-93504950D01*
X190805642Y-93687461D01*
X190805641Y-93687462D01*
X190767100Y-93881222D01*
X190232900Y-93881222D01*
X190194359Y-93687465D01*
X190118759Y-93504949D01*
X190009004Y-93340688D01*
X190009001Y-93340685D01*
X190008999Y-93340682D01*
X189869317Y-93201000D01*
X189869313Y-93200997D01*
X189869312Y-93200996D01*
X189705051Y-93091241D01*
X189702055Y-93090000D01*
X189522538Y-93015642D01*
X189522537Y-93015641D01*
X189328778Y-92977100D01*
X189328777Y-92977100D01*
X189131223Y-92977100D01*
X189131222Y-92977100D01*
X188937462Y-93015641D01*
X188937461Y-93015642D01*
X188754950Y-93091240D01*
X188590682Y-93201000D01*
X188451000Y-93340682D01*
X188341240Y-93504950D01*
X188265642Y-93687461D01*
X188265641Y-93687462D01*
X188227100Y-93881222D01*
X187692900Y-93881222D01*
X187654359Y-93687465D01*
X187578759Y-93504949D01*
X187469004Y-93340688D01*
X187469001Y-93340685D01*
X187468999Y-93340682D01*
X187329317Y-93201000D01*
X187329313Y-93200997D01*
X187329312Y-93200996D01*
X187165051Y-93091241D01*
X187162055Y-93090000D01*
X186982538Y-93015642D01*
X186982537Y-93015641D01*
X186788778Y-92977100D01*
X186788777Y-92977100D01*
X186591223Y-92977100D01*
X186591222Y-92977100D01*
X186397462Y-93015641D01*
X186397461Y-93015642D01*
X186214950Y-93091240D01*
X186050682Y-93201000D01*
X185911000Y-93340682D01*
X185801240Y-93504950D01*
X185725642Y-93687461D01*
X185725641Y-93687462D01*
X185687100Y-93881222D01*
X185152900Y-93881222D01*
X185114359Y-93687465D01*
X185038759Y-93504949D01*
X184929004Y-93340688D01*
X184929001Y-93340685D01*
X184928999Y-93340682D01*
X184789317Y-93201000D01*
X184789313Y-93200997D01*
X184789312Y-93200996D01*
X184625051Y-93091241D01*
X184622055Y-93090000D01*
X184442538Y-93015642D01*
X184442537Y-93015641D01*
X184248778Y-92977100D01*
X184248777Y-92977100D01*
X184051223Y-92977100D01*
X184051222Y-92977100D01*
X183857462Y-93015641D01*
X183857461Y-93015642D01*
X183674950Y-93091240D01*
X183510682Y-93201000D01*
X183371000Y-93340682D01*
X183261240Y-93504950D01*
X183185642Y-93687461D01*
X183185641Y-93687462D01*
X183147100Y-93881222D01*
X182612900Y-93881222D01*
X182574359Y-93687465D01*
X182498759Y-93504949D01*
X182389004Y-93340688D01*
X182389001Y-93340685D01*
X182388999Y-93340682D01*
X182249317Y-93201000D01*
X182249313Y-93200997D01*
X182249312Y-93200996D01*
X182085051Y-93091241D01*
X182082055Y-93090000D01*
X181902538Y-93015642D01*
X181902537Y-93015641D01*
X181708778Y-92977100D01*
X181708777Y-92977100D01*
X181511223Y-92977100D01*
X181511222Y-92977100D01*
X181317462Y-93015641D01*
X181317461Y-93015642D01*
X181134950Y-93091240D01*
X180970682Y-93201000D01*
X180831000Y-93340682D01*
X180721240Y-93504950D01*
X180645642Y-93687461D01*
X180645641Y-93687462D01*
X180607100Y-93881222D01*
X180454900Y-93881222D01*
X180454900Y-93354552D01*
X180449287Y-93341001D01*
X180414221Y-93256343D01*
X180339057Y-93181179D01*
X180134978Y-92977100D01*
X179641359Y-92483480D01*
X179641357Y-92483479D01*
X179543149Y-92442800D01*
X176272482Y-92442800D01*
X176166184Y-92442800D01*
X176104252Y-92468452D01*
X176067973Y-92483480D01*
X175461455Y-93090000D01*
X175260943Y-93290512D01*
X175223361Y-93328094D01*
X175185779Y-93365675D01*
X175145100Y-93463885D01*
X175145100Y-93996539D01*
X175139484Y-94011966D01*
X175138054Y-94028320D01*
X175128639Y-94041764D01*
X175127507Y-94044877D01*
X175123074Y-94049713D01*
X175121274Y-94051513D01*
X175074654Y-94073253D01*
X175024967Y-94059939D01*
X174995462Y-94017802D01*
X174992900Y-93998339D01*
X174992900Y-93881222D01*
X174974159Y-93787007D01*
X174954359Y-93687465D01*
X174878759Y-93504949D01*
X174769004Y-93340688D01*
X174769001Y-93340685D01*
X174768999Y-93340682D01*
X174629317Y-93201000D01*
X174629313Y-93200997D01*
X174629312Y-93200996D01*
X174465051Y-93091241D01*
X174462055Y-93090000D01*
X174282538Y-93015642D01*
X174282537Y-93015641D01*
X174088778Y-92977100D01*
X174088777Y-92977100D01*
X173891223Y-92977100D01*
X173891222Y-92977100D01*
X173697462Y-93015641D01*
X173697461Y-93015642D01*
X173514950Y-93091240D01*
X173350682Y-93201000D01*
X173211000Y-93340682D01*
X173101240Y-93504950D01*
X173025642Y-93687461D01*
X173025641Y-93687462D01*
X172987100Y-93881222D01*
X172987100Y-94078777D01*
X173025641Y-94272537D01*
X173025642Y-94272538D01*
X173097461Y-94445925D01*
X173101241Y-94455051D01*
X173210996Y-94619312D01*
X173210997Y-94619313D01*
X173211000Y-94619317D01*
X173350682Y-94758999D01*
X173350685Y-94759001D01*
X173350688Y-94759004D01*
X173514949Y-94868759D01*
X173697461Y-94944357D01*
X173697462Y-94944358D01*
X173697463Y-94944358D01*
X173697465Y-94944359D01*
X173827218Y-94970168D01*
X173891222Y-94982900D01*
X174008340Y-94982900D01*
X174056678Y-95000493D01*
X174082398Y-95045042D01*
X174073465Y-95095700D01*
X174061514Y-95111274D01*
X172942015Y-96230774D01*
X172895395Y-96252514D01*
X172888841Y-96252800D01*
X172554849Y-96252800D01*
X172506511Y-96235207D01*
X172489723Y-96215199D01*
X172487420Y-96211210D01*
X172393792Y-96117582D01*
X172393786Y-96117578D01*
X172279114Y-96051371D01*
X172215160Y-96034235D01*
X172151208Y-96017100D01*
X172018792Y-96017100D01*
X171967630Y-96030808D01*
X171890885Y-96051371D01*
X171776213Y-96117578D01*
X171776207Y-96117582D01*
X171682579Y-96211210D01*
X171680277Y-96215199D01*
X171640872Y-96248264D01*
X171615151Y-96252800D01*
X157949849Y-96252800D01*
X157901511Y-96235207D01*
X157884723Y-96215199D01*
X157882420Y-96211210D01*
X157788792Y-96117582D01*
X157788786Y-96117578D01*
X157674114Y-96051371D01*
X157610160Y-96034235D01*
X157546208Y-96017100D01*
X157413792Y-96017100D01*
X157362630Y-96030808D01*
X157285885Y-96051371D01*
X157171213Y-96117578D01*
X157171207Y-96117582D01*
X157077582Y-96211207D01*
X157077578Y-96211213D01*
X157011371Y-96325885D01*
X156994755Y-96387900D01*
X156977100Y-96453792D01*
X156977100Y-96586208D01*
X156988191Y-96627600D01*
X157011371Y-96714114D01*
X157046524Y-96775000D01*
X157055456Y-96825659D01*
X157029736Y-96870207D01*
X156981399Y-96887800D01*
X156323469Y-96887800D01*
X156294692Y-96882076D01*
X156263150Y-96869011D01*
X156263149Y-96869011D01*
X155011938Y-96869011D01*
X154905640Y-96869011D01*
X154843708Y-96894663D01*
X154807429Y-96909691D01*
X153570916Y-98146204D01*
X153524296Y-98167944D01*
X153488964Y-98162506D01*
X153327538Y-98095642D01*
X153327537Y-98095641D01*
X153133778Y-98057100D01*
X153133777Y-98057100D01*
X152936223Y-98057100D01*
X152936222Y-98057100D01*
X152742462Y-98095641D01*
X152742461Y-98095642D01*
X152559950Y-98171240D01*
X152395682Y-98281000D01*
X152256000Y-98420682D01*
X152146240Y-98584950D01*
X152070642Y-98767461D01*
X152070641Y-98767462D01*
X152032100Y-98961222D01*
X151790500Y-98961222D01*
X151790500Y-93114942D01*
X152667100Y-93114942D01*
X152667100Y-94845055D01*
X152667101Y-94845057D01*
X152675972Y-94889659D01*
X152709764Y-94940232D01*
X152709765Y-94940232D01*
X152709766Y-94940234D01*
X152760342Y-94974028D01*
X152804943Y-94982900D01*
X154535056Y-94982899D01*
X154579658Y-94974028D01*
X154630234Y-94940234D01*
X154664028Y-94889658D01*
X154672900Y-94845057D01*
X154672899Y-93827600D01*
X155218276Y-93827600D01*
X155733198Y-93827600D01*
X155710000Y-93914174D01*
X155710000Y-94045826D01*
X155733198Y-94132400D01*
X155218276Y-94132400D01*
X155246121Y-94272385D01*
X155246122Y-94272388D01*
X155321684Y-94454812D01*
X155431389Y-94618998D01*
X155571001Y-94758610D01*
X155735187Y-94868315D01*
X155917607Y-94943876D01*
X155917608Y-94943877D01*
X156057599Y-94971723D01*
X156057600Y-94971723D01*
X156057600Y-94456802D01*
X156144174Y-94480000D01*
X156275826Y-94480000D01*
X156362400Y-94456802D01*
X156362400Y-94971723D01*
X156502391Y-94943877D01*
X156502392Y-94943876D01*
X156684812Y-94868315D01*
X156848998Y-94758610D01*
X156988610Y-94618998D01*
X157098315Y-94454812D01*
X157173877Y-94272388D01*
X157173878Y-94272385D01*
X157201724Y-94132400D01*
X156686802Y-94132400D01*
X156710000Y-94045826D01*
X156710000Y-93914174D01*
X156701170Y-93881222D01*
X157747100Y-93881222D01*
X157747100Y-94078777D01*
X157785641Y-94272537D01*
X157785642Y-94272538D01*
X157857461Y-94445925D01*
X157861241Y-94455051D01*
X157970996Y-94619312D01*
X157970997Y-94619313D01*
X157971000Y-94619317D01*
X158110682Y-94758999D01*
X158110685Y-94759001D01*
X158110688Y-94759004D01*
X158274949Y-94868759D01*
X158457461Y-94944357D01*
X158457462Y-94944358D01*
X158457463Y-94944358D01*
X158457465Y-94944359D01*
X158587218Y-94970168D01*
X158651222Y-94982900D01*
X158651223Y-94982900D01*
X158848778Y-94982900D01*
X158904967Y-94971723D01*
X159042535Y-94944359D01*
X159225051Y-94868759D01*
X159389312Y-94759004D01*
X159529004Y-94619312D01*
X159638759Y-94455051D01*
X159714359Y-94272535D01*
X159752900Y-94078777D01*
X159752900Y-93881223D01*
X159752900Y-93881222D01*
X160287100Y-93881222D01*
X160287100Y-94078777D01*
X160325641Y-94272537D01*
X160325642Y-94272538D01*
X160397461Y-94445925D01*
X160401241Y-94455051D01*
X160510996Y-94619312D01*
X160510997Y-94619313D01*
X160511000Y-94619317D01*
X160650682Y-94758999D01*
X160650685Y-94759001D01*
X160650688Y-94759004D01*
X160814949Y-94868759D01*
X160997461Y-94944357D01*
X160997462Y-94944358D01*
X160997463Y-94944358D01*
X160997465Y-94944359D01*
X161127218Y-94970168D01*
X161191222Y-94982900D01*
X161191223Y-94982900D01*
X161388778Y-94982900D01*
X161444967Y-94971723D01*
X161582535Y-94944359D01*
X161765051Y-94868759D01*
X161929312Y-94759004D01*
X162069004Y-94619312D01*
X162178759Y-94455051D01*
X162254359Y-94272535D01*
X162292900Y-94078777D01*
X162292900Y-93881223D01*
X162292900Y-93881222D01*
X162827100Y-93881222D01*
X162827100Y-94078777D01*
X162865641Y-94272537D01*
X162865642Y-94272538D01*
X162937461Y-94445925D01*
X162941241Y-94455051D01*
X163050996Y-94619312D01*
X163050997Y-94619313D01*
X163051000Y-94619317D01*
X163190682Y-94758999D01*
X163190685Y-94759001D01*
X163190688Y-94759004D01*
X163354949Y-94868759D01*
X163537461Y-94944357D01*
X163537462Y-94944358D01*
X163537463Y-94944358D01*
X163537465Y-94944359D01*
X163667218Y-94970168D01*
X163731222Y-94982900D01*
X163731223Y-94982900D01*
X163928778Y-94982900D01*
X163984967Y-94971723D01*
X164122535Y-94944359D01*
X164305051Y-94868759D01*
X164469312Y-94759004D01*
X164609004Y-94619312D01*
X164718759Y-94455051D01*
X164794359Y-94272535D01*
X164832900Y-94078777D01*
X164832900Y-93881223D01*
X164832900Y-93881222D01*
X165367100Y-93881222D01*
X165367100Y-94078777D01*
X165405641Y-94272537D01*
X165405642Y-94272538D01*
X165477461Y-94445925D01*
X165481241Y-94455051D01*
X165590996Y-94619312D01*
X165590997Y-94619313D01*
X165591000Y-94619317D01*
X165730682Y-94758999D01*
X165730685Y-94759001D01*
X165730688Y-94759004D01*
X165894949Y-94868759D01*
X166077461Y-94944357D01*
X166077462Y-94944358D01*
X166077463Y-94944358D01*
X166077465Y-94944359D01*
X166207218Y-94970168D01*
X166271222Y-94982900D01*
X166271223Y-94982900D01*
X166468778Y-94982900D01*
X166524967Y-94971723D01*
X166662535Y-94944359D01*
X166845051Y-94868759D01*
X167009312Y-94759004D01*
X167149004Y-94619312D01*
X167258759Y-94455051D01*
X167334359Y-94272535D01*
X167372900Y-94078777D01*
X167372900Y-93881223D01*
X167372900Y-93881222D01*
X167907100Y-93881222D01*
X167907100Y-94078777D01*
X167945641Y-94272537D01*
X167945642Y-94272538D01*
X168017461Y-94445925D01*
X168021241Y-94455051D01*
X168130996Y-94619312D01*
X168130997Y-94619313D01*
X168131000Y-94619317D01*
X168270682Y-94758999D01*
X168270685Y-94759001D01*
X168270688Y-94759004D01*
X168434949Y-94868759D01*
X168617461Y-94944357D01*
X168617462Y-94944358D01*
X168617463Y-94944358D01*
X168617465Y-94944359D01*
X168747218Y-94970168D01*
X168811222Y-94982900D01*
X168811223Y-94982900D01*
X169008778Y-94982900D01*
X169064967Y-94971723D01*
X169202535Y-94944359D01*
X169385051Y-94868759D01*
X169549312Y-94759004D01*
X169689004Y-94619312D01*
X169798759Y-94455051D01*
X169874359Y-94272535D01*
X169912900Y-94078777D01*
X169912900Y-93881223D01*
X169912900Y-93881222D01*
X170447100Y-93881222D01*
X170447100Y-94078777D01*
X170485641Y-94272537D01*
X170485642Y-94272538D01*
X170557461Y-94445925D01*
X170561241Y-94455051D01*
X170670996Y-94619312D01*
X170670997Y-94619313D01*
X170671000Y-94619317D01*
X170810682Y-94758999D01*
X170810685Y-94759001D01*
X170810688Y-94759004D01*
X170974949Y-94868759D01*
X171157461Y-94944357D01*
X171157462Y-94944358D01*
X171157463Y-94944358D01*
X171157465Y-94944359D01*
X171287218Y-94970168D01*
X171351222Y-94982900D01*
X171351223Y-94982900D01*
X171548778Y-94982900D01*
X171604967Y-94971723D01*
X171742535Y-94944359D01*
X171925051Y-94868759D01*
X172089312Y-94759004D01*
X172229004Y-94619312D01*
X172338759Y-94455051D01*
X172414359Y-94272535D01*
X172452900Y-94078777D01*
X172452900Y-93881223D01*
X172414359Y-93687465D01*
X172338759Y-93504949D01*
X172229004Y-93340688D01*
X172229001Y-93340685D01*
X172228999Y-93340682D01*
X172089317Y-93201000D01*
X172089313Y-93200997D01*
X172089312Y-93200996D01*
X171925051Y-93091241D01*
X171922055Y-93090000D01*
X171742538Y-93015642D01*
X171742537Y-93015641D01*
X171548778Y-92977100D01*
X171548777Y-92977100D01*
X171351223Y-92977100D01*
X171351222Y-92977100D01*
X171157462Y-93015641D01*
X171157461Y-93015642D01*
X170974950Y-93091240D01*
X170810682Y-93201000D01*
X170671000Y-93340682D01*
X170561240Y-93504950D01*
X170485642Y-93687461D01*
X170485641Y-93687462D01*
X170447100Y-93881222D01*
X169912900Y-93881222D01*
X169874359Y-93687465D01*
X169798759Y-93504949D01*
X169689004Y-93340688D01*
X169689001Y-93340685D01*
X169688999Y-93340682D01*
X169549317Y-93201000D01*
X169549313Y-93200997D01*
X169549312Y-93200996D01*
X169385051Y-93091241D01*
X169382055Y-93090000D01*
X169202538Y-93015642D01*
X169202537Y-93015641D01*
X169008778Y-92977100D01*
X169008777Y-92977100D01*
X168811223Y-92977100D01*
X168811222Y-92977100D01*
X168617462Y-93015641D01*
X168617461Y-93015642D01*
X168434950Y-93091240D01*
X168270682Y-93201000D01*
X168131000Y-93340682D01*
X168021240Y-93504950D01*
X167945642Y-93687461D01*
X167945641Y-93687462D01*
X167907100Y-93881222D01*
X167372900Y-93881222D01*
X167334359Y-93687465D01*
X167258759Y-93504949D01*
X167149004Y-93340688D01*
X167149001Y-93340685D01*
X167148999Y-93340682D01*
X167009317Y-93201000D01*
X167009313Y-93200997D01*
X167009312Y-93200996D01*
X166845051Y-93091241D01*
X166842055Y-93090000D01*
X166662538Y-93015642D01*
X166662537Y-93015641D01*
X166468778Y-92977100D01*
X166468777Y-92977100D01*
X166271223Y-92977100D01*
X166271222Y-92977100D01*
X166077462Y-93015641D01*
X166077461Y-93015642D01*
X165894950Y-93091240D01*
X165730682Y-93201000D01*
X165591000Y-93340682D01*
X165481240Y-93504950D01*
X165405642Y-93687461D01*
X165405641Y-93687462D01*
X165367100Y-93881222D01*
X164832900Y-93881222D01*
X164794359Y-93687465D01*
X164718759Y-93504949D01*
X164609004Y-93340688D01*
X164609001Y-93340685D01*
X164608999Y-93340682D01*
X164469317Y-93201000D01*
X164469313Y-93200997D01*
X164469312Y-93200996D01*
X164305051Y-93091241D01*
X164302055Y-93090000D01*
X164122538Y-93015642D01*
X164122537Y-93015641D01*
X163928778Y-92977100D01*
X163928777Y-92977100D01*
X163731223Y-92977100D01*
X163731222Y-92977100D01*
X163537462Y-93015641D01*
X163537461Y-93015642D01*
X163354950Y-93091240D01*
X163190682Y-93201000D01*
X163051000Y-93340682D01*
X162941240Y-93504950D01*
X162865642Y-93687461D01*
X162865641Y-93687462D01*
X162827100Y-93881222D01*
X162292900Y-93881222D01*
X162254359Y-93687465D01*
X162178759Y-93504949D01*
X162069004Y-93340688D01*
X162069001Y-93340685D01*
X162068999Y-93340682D01*
X161929317Y-93201000D01*
X161929313Y-93200997D01*
X161929312Y-93200996D01*
X161765051Y-93091241D01*
X161762055Y-93090000D01*
X161582538Y-93015642D01*
X161582537Y-93015641D01*
X161388778Y-92977100D01*
X161388777Y-92977100D01*
X161191223Y-92977100D01*
X161191222Y-92977100D01*
X160997462Y-93015641D01*
X160997461Y-93015642D01*
X160814950Y-93091240D01*
X160650682Y-93201000D01*
X160511000Y-93340682D01*
X160401240Y-93504950D01*
X160325642Y-93687461D01*
X160325641Y-93687462D01*
X160287100Y-93881222D01*
X159752900Y-93881222D01*
X159714359Y-93687465D01*
X159638759Y-93504949D01*
X159529004Y-93340688D01*
X159529001Y-93340685D01*
X159528999Y-93340682D01*
X159389317Y-93201000D01*
X159389313Y-93200997D01*
X159389312Y-93200996D01*
X159225051Y-93091241D01*
X159222055Y-93090000D01*
X159042538Y-93015642D01*
X159042537Y-93015641D01*
X158848778Y-92977100D01*
X158848777Y-92977100D01*
X158651223Y-92977100D01*
X158651222Y-92977100D01*
X158457462Y-93015641D01*
X158457461Y-93015642D01*
X158274950Y-93091240D01*
X158110682Y-93201000D01*
X157971000Y-93340682D01*
X157861240Y-93504950D01*
X157785642Y-93687461D01*
X157785641Y-93687462D01*
X157747100Y-93881222D01*
X156701170Y-93881222D01*
X156686802Y-93827600D01*
X157201724Y-93827600D01*
X157173878Y-93687614D01*
X157173877Y-93687611D01*
X157098315Y-93505187D01*
X156988610Y-93341001D01*
X156848998Y-93201389D01*
X156684812Y-93091684D01*
X156502388Y-93016122D01*
X156502385Y-93016121D01*
X156362400Y-92988276D01*
X156362400Y-93503197D01*
X156275826Y-93480000D01*
X156144174Y-93480000D01*
X156057600Y-93503197D01*
X156057600Y-92988276D01*
X155917614Y-93016121D01*
X155917611Y-93016122D01*
X155735187Y-93091684D01*
X155571001Y-93201389D01*
X155431389Y-93341001D01*
X155321684Y-93505187D01*
X155246122Y-93687611D01*
X155246121Y-93687614D01*
X155218276Y-93827600D01*
X154672899Y-93827600D01*
X154672899Y-93114944D01*
X154664028Y-93070342D01*
X154643314Y-93039342D01*
X154630235Y-93019767D01*
X154624780Y-93016122D01*
X154579658Y-92985972D01*
X154579656Y-92985971D01*
X154535057Y-92977100D01*
X152804944Y-92977100D01*
X152804942Y-92977101D01*
X152760340Y-92985972D01*
X152709767Y-93019764D01*
X152675972Y-93070342D01*
X152675971Y-93070343D01*
X152667100Y-93114942D01*
X151790500Y-93114942D01*
X151790500Y-92712952D01*
X151790732Y-92707052D01*
X151798524Y-92608042D01*
X151805358Y-92521206D01*
X151807201Y-92509571D01*
X151850029Y-92331178D01*
X151853670Y-92319970D01*
X151923881Y-92150465D01*
X151929234Y-92139963D01*
X152025088Y-91983544D01*
X152032019Y-91974003D01*
X152151171Y-91834495D01*
X152159495Y-91826171D01*
X152299003Y-91707019D01*
X152308544Y-91700088D01*
X152464963Y-91604234D01*
X152475465Y-91598881D01*
X152644970Y-91528670D01*
X152656178Y-91525029D01*
X152834571Y-91482201D01*
X152846206Y-91480358D01*
X153032052Y-91465731D01*
X153037952Y-91465500D01*
X153043285Y-91465500D01*
X202556715Y-91465500D01*
X202562048Y-91465500D01*
X202567947Y-91465731D01*
G37*
G04 #@! TD.AperFunction*
G04 #@! TD*
G04 #@! TA.AperFunction,Conductor*
G04 #@! TO.N,VBUS*
G36*
X194918138Y-102252593D02*
G01*
X194943858Y-102297142D01*
X194945000Y-102310200D01*
X194945000Y-107239800D01*
X194927407Y-107288138D01*
X194882858Y-107313858D01*
X194869800Y-107315000D01*
X191210200Y-107315000D01*
X191161862Y-107297407D01*
X191136142Y-107252858D01*
X191135000Y-107239800D01*
X191135000Y-102310200D01*
X191152593Y-102261862D01*
X191197142Y-102236142D01*
X191210200Y-102235000D01*
X194869800Y-102235000D01*
X194918138Y-102252593D01*
G37*
G04 #@! TD.AperFunction*
G04 #@! TD*
M02*
