G04 #@! TF.GenerationSoftware,KiCad,Pcbnew,6.0.1+dfsg-1*
G04 #@! TF.CreationDate,2022-01-30T08:18:27+08:00*
G04 #@! TF.ProjectId,gp,67702e6b-6963-4616-945f-706362585858,d*
G04 #@! TF.SameCoordinates,Original*
G04 #@! TF.FileFunction,Copper,L2,Bot*
G04 #@! TF.FilePolarity,Positive*
%FSLAX46Y46*%
G04 Gerber Fmt 4.6, Leading zero omitted, Abs format (unit mm)*
G04 Created by KiCad (PCBNEW 6.0.1+dfsg-1) date 2022-01-30 08:18:27*
%MOMM*%
%LPD*%
G01*
G04 APERTURE LIST*
G04 #@! TA.AperFunction,ComponentPad*
%ADD10O,2.100000X1.000000*%
G04 #@! TD*
G04 #@! TA.AperFunction,ComponentPad*
%ADD11O,1.600000X1.000000*%
G04 #@! TD*
G04 #@! TA.AperFunction,ComponentPad*
%ADD12R,1.700000X1.700000*%
G04 #@! TD*
G04 #@! TA.AperFunction,ComponentPad*
%ADD13O,1.700000X1.700000*%
G04 #@! TD*
G04 #@! TA.AperFunction,ViaPad*
%ADD14C,0.700000*%
G04 #@! TD*
G04 #@! TA.AperFunction,Conductor*
%ADD15C,0.304800*%
G04 #@! TD*
G04 #@! TA.AperFunction,Conductor*
%ADD16C,0.381000*%
G04 #@! TD*
G04 #@! TA.AperFunction,Conductor*
%ADD17C,0.228600*%
G04 #@! TD*
G04 APERTURE END LIST*
D10*
G04 #@! TO.P,J1,S1,SHIELD*
G04 #@! TO.N,GND*
X196895000Y-97280000D03*
X196895000Y-105920000D03*
D11*
X201075000Y-105920000D03*
X201075000Y-97280000D03*
G04 #@! TD*
D12*
G04 #@! TO.P,J3,1,Pin_1*
G04 #@! TO.N,+3V3*
X153670000Y-109220000D03*
D13*
G04 #@! TO.P,J3,2,Pin_2*
G04 #@! TO.N,C13*
X156210000Y-109220000D03*
G04 #@! TO.P,J3,3,Pin_3*
G04 #@! TO.N,C14*
X158750000Y-109220000D03*
G04 #@! TO.P,J3,4,Pin_4*
G04 #@! TO.N,C15*
X161290000Y-109220000D03*
G04 #@! TO.P,J3,5,Pin_5*
G04 #@! TO.N,RST*
X163830000Y-109220000D03*
G04 #@! TO.P,J3,6,Pin_6*
G04 #@! TO.N,A0*
X166370000Y-109220000D03*
G04 #@! TO.P,J3,7,Pin_7*
G04 #@! TO.N,A1*
X168910000Y-109220000D03*
G04 #@! TO.P,J3,8,Pin_8*
G04 #@! TO.N,A2*
X171450000Y-109220000D03*
G04 #@! TO.P,J3,9,Pin_9*
G04 #@! TO.N,A3*
X173990000Y-109220000D03*
G04 #@! TO.P,J3,10,Pin_10*
G04 #@! TO.N,A4*
X176530000Y-109220000D03*
G04 #@! TO.P,J3,11,Pin_11*
G04 #@! TO.N,A5*
X179070000Y-109220000D03*
G04 #@! TO.P,J3,12,Pin_12*
G04 #@! TO.N,A6*
X181610000Y-109220000D03*
G04 #@! TO.P,J3,13,Pin_13*
G04 #@! TO.N,A7*
X184150000Y-109220000D03*
G04 #@! TO.P,J3,14,Pin_14*
G04 #@! TO.N,B0*
X186690000Y-109220000D03*
G04 #@! TO.P,J3,15,Pin_15*
G04 #@! TO.N,B1*
X189230000Y-109220000D03*
G04 #@! TO.P,J3,16,Pin_16*
G04 #@! TO.N,B2*
X191770000Y-109220000D03*
G04 #@! TO.P,J3,17,Pin_17*
G04 #@! TO.N,B10*
X194310000Y-109220000D03*
G04 #@! TO.P,J3,18,Pin_18*
G04 #@! TO.N,+3V3*
X196850000Y-109220000D03*
G04 #@! TO.P,J3,19,Pin_19*
G04 #@! TO.N,GND*
X199390000Y-109220000D03*
G04 #@! TO.P,J3,20,Pin_20*
G04 #@! TO.N,+5V*
X201930000Y-109220000D03*
G04 #@! TD*
D12*
G04 #@! TO.P,J2,1,Pin_1*
G04 #@! TO.N,RST*
X155575000Y-104140000D03*
D13*
G04 #@! TO.P,J2,2,Pin_2*
G04 #@! TO.N,+3V3*
X153035000Y-104140000D03*
G04 #@! TO.P,J2,3,Pin_3*
G04 #@! TO.N,SWCLK*
X155575000Y-101600000D03*
G04 #@! TO.P,J2,4,Pin_4*
G04 #@! TO.N,SWDIO*
X153035000Y-101600000D03*
G04 #@! TO.P,J2,5,Pin_5*
G04 #@! TO.N,GND*
X155575000Y-99060000D03*
G04 #@! TO.P,J2,6,Pin_6*
G04 #@! TO.N,B3*
X153035000Y-99060000D03*
G04 #@! TD*
D12*
G04 #@! TO.P,J4,1,Pin_1*
G04 #@! TO.N,+3V3*
X153670000Y-93980000D03*
D13*
G04 #@! TO.P,J4,2,Pin_2*
G04 #@! TO.N,GND*
X156210000Y-93980000D03*
G04 #@! TO.P,J4,3,Pin_3*
G04 #@! TO.N,+5V*
X158750000Y-93980000D03*
G04 #@! TO.P,J4,4,Pin_4*
G04 #@! TO.N,B9*
X161290000Y-93980000D03*
G04 #@! TO.P,J4,5,Pin_5*
G04 #@! TO.N,B8*
X163830000Y-93980000D03*
G04 #@! TO.P,J4,6,Pin_6*
G04 #@! TO.N,B7*
X166370000Y-93980000D03*
G04 #@! TO.P,J4,7,Pin_7*
G04 #@! TO.N,B6*
X168910000Y-93980000D03*
G04 #@! TO.P,J4,8,Pin_8*
G04 #@! TO.N,B5*
X171450000Y-93980000D03*
G04 #@! TO.P,J4,9,Pin_9*
G04 #@! TO.N,B4*
X173990000Y-93980000D03*
G04 #@! TO.P,J4,10,Pin_10*
G04 #@! TO.N,B3*
X176530000Y-93980000D03*
G04 #@! TO.P,J4,11,Pin_11*
G04 #@! TO.N,A15*
X179070000Y-93980000D03*
G04 #@! TO.P,J4,12,Pin_12*
G04 #@! TO.N,A12*
X181610000Y-93980000D03*
G04 #@! TO.P,J4,13,Pin_13*
G04 #@! TO.N,A11*
X184150000Y-93980000D03*
G04 #@! TO.P,J4,14,Pin_14*
G04 #@! TO.N,A10*
X186690000Y-93980000D03*
G04 #@! TO.P,J4,15,Pin_15*
G04 #@! TO.N,A9*
X189230000Y-93980000D03*
G04 #@! TO.P,J4,16,Pin_16*
G04 #@! TO.N,A8*
X191770000Y-93980000D03*
G04 #@! TO.P,J4,17,Pin_17*
G04 #@! TO.N,B15*
X194310000Y-93980000D03*
G04 #@! TO.P,J4,18,Pin_18*
G04 #@! TO.N,B14*
X196850000Y-93980000D03*
G04 #@! TO.P,J4,19,Pin_19*
G04 #@! TO.N,B13*
X199390000Y-93980000D03*
G04 #@! TO.P,J4,20,Pin_20*
G04 #@! TO.N,B12*
X201930000Y-93980000D03*
G04 #@! TD*
D14*
G04 #@! TO.N,GND*
X189230000Y-104140000D03*
G04 #@! TO.N,+3V3*
X186690000Y-104140000D03*
G04 #@! TO.N,GND*
X186690000Y-105410000D03*
X171450000Y-106045000D03*
X189230000Y-105410000D03*
G04 #@! TO.N,+5V*
X187960000Y-104140000D03*
G04 #@! TO.N,GND*
X178435000Y-102870000D03*
X175895000Y-102870000D03*
X177165000Y-104775000D03*
X159385000Y-104140000D03*
X197485000Y-100330000D03*
X197485000Y-102870000D03*
X199390000Y-100330000D03*
X199390000Y-102870000D03*
X201295000Y-100330000D03*
X201295000Y-102870000D03*
X167640000Y-100965000D03*
X174625000Y-100330000D03*
X179705000Y-100330000D03*
G04 #@! TO.N,VBUS*
X193675000Y-104775000D03*
X193040000Y-105410000D03*
X192405000Y-104775000D03*
G04 #@! TO.N,+3V3*
X177165000Y-101600000D03*
X172085000Y-101600000D03*
X186690000Y-101600000D03*
G04 #@! TO.N,C13*
X173990000Y-102235000D03*
X185420000Y-100330000D03*
G04 #@! TO.N,A12*
X192405000Y-99695000D03*
G04 #@! TO.N,A11*
X192405000Y-100965000D03*
G04 #@! TO.N,BO0*
X172085000Y-96520000D03*
X157480000Y-96520000D03*
G04 #@! TO.N,SWCLK*
X175895000Y-99060000D03*
G04 #@! TO.N,SWDIO*
X178435000Y-99060000D03*
G04 #@! TD*
D15*
G04 #@! TO.N,+3V3*
X168609106Y-101600000D02*
X164799106Y-105410000D01*
X172085000Y-101600000D02*
X168609106Y-101600000D01*
X154305000Y-105410000D02*
X153035000Y-104140000D01*
D16*
X186690000Y-101600000D02*
X186770000Y-101680000D01*
X186770000Y-101680000D02*
X194950000Y-101680000D01*
X194950000Y-101680000D02*
X195340000Y-102070000D01*
X195340000Y-107710000D02*
X196850000Y-109220000D01*
X195340000Y-102070000D02*
X195340000Y-107710000D01*
D15*
X161290000Y-105410000D02*
X154305000Y-105410000D01*
X164799106Y-105410000D02*
X161290000Y-105410000D01*
D17*
G04 #@! TO.N,C13*
X158133299Y-107296701D02*
X156210000Y-109220000D01*
X170833402Y-102870000D02*
X166406701Y-107296701D01*
X158133299Y-107296701D02*
X166406701Y-107296701D01*
X173355000Y-102870000D02*
X173990000Y-102235000D01*
X170833402Y-102870000D02*
X173355000Y-102870000D01*
X184766701Y-100983299D02*
X185420000Y-100330000D01*
X175241701Y-100983299D02*
X184766701Y-100983299D01*
X173990000Y-102235000D02*
X175241701Y-100983299D01*
G04 #@! TO.N,B3*
X156475000Y-95620000D02*
X153035000Y-99060000D01*
X176530000Y-93980000D02*
X174890000Y-95620000D01*
X174890000Y-95620000D02*
X156475000Y-95620000D01*
G04 #@! TO.N,A12*
X187325000Y-99695000D02*
X181610000Y-93980000D01*
X192405000Y-99695000D02*
X187325000Y-99695000D01*
G04 #@! TO.N,A11*
X192405000Y-100965000D02*
X192899974Y-100965000D01*
X192899974Y-100965000D02*
X193641011Y-100223963D01*
X193641011Y-100223963D02*
X193641011Y-98748293D01*
X193641011Y-98748293D02*
X192701017Y-97808299D01*
X192701017Y-97808299D02*
X187978299Y-97808299D01*
X187978299Y-97808299D02*
X184150000Y-93980000D01*
G04 #@! TO.N,BO0*
X158115000Y-96520000D02*
X157480000Y-96520000D01*
X172085000Y-96520000D02*
X158115000Y-96520000D01*
G04 #@! TO.N,SWCLK*
X175895000Y-99060000D02*
X175278298Y-98443298D01*
X157837280Y-101600000D02*
X155575000Y-101600000D01*
X160993982Y-98443298D02*
X157837280Y-101600000D01*
X175278298Y-98443298D02*
X160993982Y-98443298D01*
G04 #@! TO.N,SWDIO*
X154276011Y-100358989D02*
X153035000Y-101600000D01*
X158539461Y-100358989D02*
X154276011Y-100358989D01*
X160836163Y-98062287D02*
X158539461Y-100358989D01*
X178435000Y-99060000D02*
X177437287Y-98062287D01*
X177437287Y-98062287D02*
X160836163Y-98062287D01*
G04 #@! TD*
G04 #@! TA.AperFunction,Conductor*
G04 #@! TO.N,GND*
G36*
X202554495Y-91594961D02*
G01*
X202565000Y-91597776D01*
X202574565Y-91595213D01*
X202584464Y-91595213D01*
X202584464Y-91595654D01*
X202593333Y-91594879D01*
X202666132Y-91601248D01*
X202752520Y-91608806D01*
X202765417Y-91611080D01*
X202940890Y-91658097D01*
X202953208Y-91662581D01*
X203117840Y-91739351D01*
X203129186Y-91745901D01*
X203277993Y-91850096D01*
X203288034Y-91858522D01*
X203416478Y-91986966D01*
X203424904Y-91997007D01*
X203529097Y-92145811D01*
X203535651Y-92157163D01*
X203612419Y-92321792D01*
X203616903Y-92334110D01*
X203663920Y-92509583D01*
X203666195Y-92522486D01*
X203680121Y-92681667D01*
X203679346Y-92690536D01*
X203679787Y-92690536D01*
X203679787Y-92700435D01*
X203677224Y-92710000D01*
X203680039Y-92720505D01*
X203682600Y-92739962D01*
X203682600Y-110460038D01*
X203680039Y-110479495D01*
X203677224Y-110490000D01*
X203679787Y-110499565D01*
X203679787Y-110509464D01*
X203679346Y-110509464D01*
X203680121Y-110518333D01*
X203666195Y-110677514D01*
X203663920Y-110690417D01*
X203616903Y-110865890D01*
X203612419Y-110878208D01*
X203535651Y-111042837D01*
X203529097Y-111054189D01*
X203424904Y-111202993D01*
X203416478Y-111213034D01*
X203288034Y-111341478D01*
X203277993Y-111349904D01*
X203129186Y-111454099D01*
X203117840Y-111460649D01*
X203035814Y-111498899D01*
X202953208Y-111537419D01*
X202940890Y-111541903D01*
X202765417Y-111588920D01*
X202752520Y-111591194D01*
X202666132Y-111598752D01*
X202593333Y-111605121D01*
X202584464Y-111604346D01*
X202584464Y-111604787D01*
X202574565Y-111604787D01*
X202565000Y-111602224D01*
X202554495Y-111605039D01*
X202535038Y-111607600D01*
X153064962Y-111607600D01*
X153045505Y-111605039D01*
X153035000Y-111602224D01*
X153025435Y-111604787D01*
X153015536Y-111604787D01*
X153015536Y-111604346D01*
X153006667Y-111605121D01*
X152933868Y-111598752D01*
X152847480Y-111591194D01*
X152834583Y-111588920D01*
X152659110Y-111541903D01*
X152646792Y-111537419D01*
X152564186Y-111498899D01*
X152482160Y-111460649D01*
X152470814Y-111454099D01*
X152322007Y-111349904D01*
X152311966Y-111341478D01*
X152183522Y-111213034D01*
X152175096Y-111202993D01*
X152070903Y-111054189D01*
X152064349Y-111042837D01*
X151987581Y-110878208D01*
X151983097Y-110865890D01*
X151936080Y-110690417D01*
X151933805Y-110677514D01*
X151919879Y-110518333D01*
X151920654Y-110509464D01*
X151920213Y-110509464D01*
X151920213Y-110499565D01*
X151922776Y-110490000D01*
X151919961Y-110479495D01*
X151917400Y-110460038D01*
X151917400Y-108354943D01*
X152667100Y-108354943D01*
X152667101Y-110085056D01*
X152675972Y-110129658D01*
X152709766Y-110180234D01*
X152715923Y-110184348D01*
X152754183Y-110209913D01*
X152754184Y-110209914D01*
X152760342Y-110214028D01*
X152804943Y-110222900D01*
X153669882Y-110222900D01*
X154535056Y-110222899D01*
X154579658Y-110214028D01*
X154630234Y-110180234D01*
X154654801Y-110143467D01*
X154659913Y-110135817D01*
X154659914Y-110135816D01*
X154664028Y-110129658D01*
X154672900Y-110085057D01*
X154672899Y-109205930D01*
X155202345Y-109205930D01*
X155202653Y-109209598D01*
X155202653Y-109209601D01*
X155205889Y-109248138D01*
X155218803Y-109401919D01*
X155273015Y-109590979D01*
X155362916Y-109765908D01*
X155485083Y-109920044D01*
X155487877Y-109922422D01*
X155487878Y-109922423D01*
X155522263Y-109951687D01*
X155634862Y-110047516D01*
X155638063Y-110049305D01*
X155638066Y-110049307D01*
X155676656Y-110070874D01*
X155806547Y-110143467D01*
X155810044Y-110144603D01*
X155810048Y-110144605D01*
X155900755Y-110174077D01*
X155993600Y-110204244D01*
X156100984Y-110217049D01*
X156185237Y-110227096D01*
X156185239Y-110227096D01*
X156188895Y-110227532D01*
X156384994Y-110212443D01*
X156500354Y-110180234D01*
X156570883Y-110160542D01*
X156570885Y-110160541D01*
X156574428Y-110159552D01*
X156714727Y-110088682D01*
X156746697Y-110072533D01*
X156746698Y-110072532D01*
X156749981Y-110070874D01*
X156904966Y-109949786D01*
X157033480Y-109800901D01*
X157130628Y-109629890D01*
X157192710Y-109443266D01*
X157217360Y-109248138D01*
X157217753Y-109220000D01*
X157217548Y-109217907D01*
X157216374Y-109205930D01*
X157742345Y-109205930D01*
X157742653Y-109209598D01*
X157742653Y-109209601D01*
X157745889Y-109248138D01*
X157758803Y-109401919D01*
X157813015Y-109590979D01*
X157902916Y-109765908D01*
X158025083Y-109920044D01*
X158027877Y-109922422D01*
X158027878Y-109922423D01*
X158062263Y-109951687D01*
X158174862Y-110047516D01*
X158178063Y-110049305D01*
X158178066Y-110049307D01*
X158216656Y-110070874D01*
X158346547Y-110143467D01*
X158350044Y-110144603D01*
X158350048Y-110144605D01*
X158440755Y-110174077D01*
X158533600Y-110204244D01*
X158640984Y-110217049D01*
X158725237Y-110227096D01*
X158725239Y-110227096D01*
X158728895Y-110227532D01*
X158924994Y-110212443D01*
X159040354Y-110180234D01*
X159110883Y-110160542D01*
X159110885Y-110160541D01*
X159114428Y-110159552D01*
X159254727Y-110088682D01*
X159286697Y-110072533D01*
X159286698Y-110072532D01*
X159289981Y-110070874D01*
X159444966Y-109949786D01*
X159573480Y-109800901D01*
X159670628Y-109629890D01*
X159732710Y-109443266D01*
X159757360Y-109248138D01*
X159757753Y-109220000D01*
X159757548Y-109217907D01*
X159756374Y-109205930D01*
X160282345Y-109205930D01*
X160282653Y-109209598D01*
X160282653Y-109209601D01*
X160285889Y-109248138D01*
X160298803Y-109401919D01*
X160353015Y-109590979D01*
X160442916Y-109765908D01*
X160565083Y-109920044D01*
X160567877Y-109922422D01*
X160567878Y-109922423D01*
X160602263Y-109951687D01*
X160714862Y-110047516D01*
X160718063Y-110049305D01*
X160718066Y-110049307D01*
X160756656Y-110070874D01*
X160886547Y-110143467D01*
X160890044Y-110144603D01*
X160890048Y-110144605D01*
X160980755Y-110174077D01*
X161073600Y-110204244D01*
X161180984Y-110217049D01*
X161265237Y-110227096D01*
X161265239Y-110227096D01*
X161268895Y-110227532D01*
X161464994Y-110212443D01*
X161580354Y-110180234D01*
X161650883Y-110160542D01*
X161650885Y-110160541D01*
X161654428Y-110159552D01*
X161794727Y-110088682D01*
X161826697Y-110072533D01*
X161826698Y-110072532D01*
X161829981Y-110070874D01*
X161984966Y-109949786D01*
X162113480Y-109800901D01*
X162210628Y-109629890D01*
X162272710Y-109443266D01*
X162297360Y-109248138D01*
X162297753Y-109220000D01*
X162297548Y-109217907D01*
X162296374Y-109205930D01*
X162822345Y-109205930D01*
X162822653Y-109209598D01*
X162822653Y-109209601D01*
X162825889Y-109248138D01*
X162838803Y-109401919D01*
X162893015Y-109590979D01*
X162982916Y-109765908D01*
X163105083Y-109920044D01*
X163107877Y-109922422D01*
X163107878Y-109922423D01*
X163142263Y-109951687D01*
X163254862Y-110047516D01*
X163258063Y-110049305D01*
X163258066Y-110049307D01*
X163296656Y-110070874D01*
X163426547Y-110143467D01*
X163430044Y-110144603D01*
X163430048Y-110144605D01*
X163520755Y-110174077D01*
X163613600Y-110204244D01*
X163720984Y-110217049D01*
X163805237Y-110227096D01*
X163805239Y-110227096D01*
X163808895Y-110227532D01*
X164004994Y-110212443D01*
X164120354Y-110180234D01*
X164190883Y-110160542D01*
X164190885Y-110160541D01*
X164194428Y-110159552D01*
X164334727Y-110088682D01*
X164366697Y-110072533D01*
X164366698Y-110072532D01*
X164369981Y-110070874D01*
X164524966Y-109949786D01*
X164653480Y-109800901D01*
X164750628Y-109629890D01*
X164812710Y-109443266D01*
X164837360Y-109248138D01*
X164837753Y-109220000D01*
X164837548Y-109217907D01*
X164836374Y-109205930D01*
X165362345Y-109205930D01*
X165362653Y-109209598D01*
X165362653Y-109209601D01*
X165365889Y-109248138D01*
X165378803Y-109401919D01*
X165433015Y-109590979D01*
X165522916Y-109765908D01*
X165645083Y-109920044D01*
X165647877Y-109922422D01*
X165647878Y-109922423D01*
X165682263Y-109951687D01*
X165794862Y-110047516D01*
X165798063Y-110049305D01*
X165798066Y-110049307D01*
X165836656Y-110070874D01*
X165966547Y-110143467D01*
X165970044Y-110144603D01*
X165970048Y-110144605D01*
X166060755Y-110174077D01*
X166153600Y-110204244D01*
X166260984Y-110217049D01*
X166345237Y-110227096D01*
X166345239Y-110227096D01*
X166348895Y-110227532D01*
X166544994Y-110212443D01*
X166660354Y-110180234D01*
X166730883Y-110160542D01*
X166730885Y-110160541D01*
X166734428Y-110159552D01*
X166874727Y-110088682D01*
X166906697Y-110072533D01*
X166906698Y-110072532D01*
X166909981Y-110070874D01*
X167064966Y-109949786D01*
X167193480Y-109800901D01*
X167290628Y-109629890D01*
X167352710Y-109443266D01*
X167377360Y-109248138D01*
X167377753Y-109220000D01*
X167377548Y-109217907D01*
X167376374Y-109205930D01*
X167902345Y-109205930D01*
X167902653Y-109209598D01*
X167902653Y-109209601D01*
X167905889Y-109248138D01*
X167918803Y-109401919D01*
X167973015Y-109590979D01*
X168062916Y-109765908D01*
X168185083Y-109920044D01*
X168187877Y-109922422D01*
X168187878Y-109922423D01*
X168222263Y-109951687D01*
X168334862Y-110047516D01*
X168338063Y-110049305D01*
X168338066Y-110049307D01*
X168376656Y-110070874D01*
X168506547Y-110143467D01*
X168510044Y-110144603D01*
X168510048Y-110144605D01*
X168600755Y-110174077D01*
X168693600Y-110204244D01*
X168800984Y-110217049D01*
X168885237Y-110227096D01*
X168885239Y-110227096D01*
X168888895Y-110227532D01*
X169084994Y-110212443D01*
X169200354Y-110180234D01*
X169270883Y-110160542D01*
X169270885Y-110160541D01*
X169274428Y-110159552D01*
X169414727Y-110088682D01*
X169446697Y-110072533D01*
X169446698Y-110072532D01*
X169449981Y-110070874D01*
X169604966Y-109949786D01*
X169733480Y-109800901D01*
X169830628Y-109629890D01*
X169892710Y-109443266D01*
X169917360Y-109248138D01*
X169917753Y-109220000D01*
X169917548Y-109217907D01*
X169916374Y-109205930D01*
X170442345Y-109205930D01*
X170442653Y-109209598D01*
X170442653Y-109209601D01*
X170445889Y-109248138D01*
X170458803Y-109401919D01*
X170513015Y-109590979D01*
X170602916Y-109765908D01*
X170725083Y-109920044D01*
X170727877Y-109922422D01*
X170727878Y-109922423D01*
X170762263Y-109951687D01*
X170874862Y-110047516D01*
X170878063Y-110049305D01*
X170878066Y-110049307D01*
X170916656Y-110070874D01*
X171046547Y-110143467D01*
X171050044Y-110144603D01*
X171050048Y-110144605D01*
X171140755Y-110174077D01*
X171233600Y-110204244D01*
X171340984Y-110217049D01*
X171425237Y-110227096D01*
X171425239Y-110227096D01*
X171428895Y-110227532D01*
X171624994Y-110212443D01*
X171740354Y-110180234D01*
X171810883Y-110160542D01*
X171810885Y-110160541D01*
X171814428Y-110159552D01*
X171954727Y-110088682D01*
X171986697Y-110072533D01*
X171986698Y-110072532D01*
X171989981Y-110070874D01*
X172144966Y-109949786D01*
X172273480Y-109800901D01*
X172370628Y-109629890D01*
X172432710Y-109443266D01*
X172457360Y-109248138D01*
X172457753Y-109220000D01*
X172457548Y-109217907D01*
X172456374Y-109205930D01*
X172982345Y-109205930D01*
X172982653Y-109209598D01*
X172982653Y-109209601D01*
X172985889Y-109248138D01*
X172998803Y-109401919D01*
X173053015Y-109590979D01*
X173142916Y-109765908D01*
X173265083Y-109920044D01*
X173267877Y-109922422D01*
X173267878Y-109922423D01*
X173302263Y-109951687D01*
X173414862Y-110047516D01*
X173418063Y-110049305D01*
X173418066Y-110049307D01*
X173456656Y-110070874D01*
X173586547Y-110143467D01*
X173590044Y-110144603D01*
X173590048Y-110144605D01*
X173680755Y-110174077D01*
X173773600Y-110204244D01*
X173880984Y-110217049D01*
X173965237Y-110227096D01*
X173965239Y-110227096D01*
X173968895Y-110227532D01*
X174164994Y-110212443D01*
X174280354Y-110180234D01*
X174350883Y-110160542D01*
X174350885Y-110160541D01*
X174354428Y-110159552D01*
X174494727Y-110088682D01*
X174526697Y-110072533D01*
X174526698Y-110072532D01*
X174529981Y-110070874D01*
X174684966Y-109949786D01*
X174813480Y-109800901D01*
X174910628Y-109629890D01*
X174972710Y-109443266D01*
X174997360Y-109248138D01*
X174997753Y-109220000D01*
X174997548Y-109217907D01*
X174996374Y-109205930D01*
X175522345Y-109205930D01*
X175522653Y-109209598D01*
X175522653Y-109209601D01*
X175525889Y-109248138D01*
X175538803Y-109401919D01*
X175593015Y-109590979D01*
X175682916Y-109765908D01*
X175805083Y-109920044D01*
X175807877Y-109922422D01*
X175807878Y-109922423D01*
X175842263Y-109951687D01*
X175954862Y-110047516D01*
X175958063Y-110049305D01*
X175958066Y-110049307D01*
X175996656Y-110070874D01*
X176126547Y-110143467D01*
X176130044Y-110144603D01*
X176130048Y-110144605D01*
X176220755Y-110174077D01*
X176313600Y-110204244D01*
X176420984Y-110217049D01*
X176505237Y-110227096D01*
X176505239Y-110227096D01*
X176508895Y-110227532D01*
X176704994Y-110212443D01*
X176820354Y-110180234D01*
X176890883Y-110160542D01*
X176890885Y-110160541D01*
X176894428Y-110159552D01*
X177034727Y-110088682D01*
X177066697Y-110072533D01*
X177066698Y-110072532D01*
X177069981Y-110070874D01*
X177224966Y-109949786D01*
X177353480Y-109800901D01*
X177450628Y-109629890D01*
X177512710Y-109443266D01*
X177537360Y-109248138D01*
X177537753Y-109220000D01*
X177537548Y-109217907D01*
X177536374Y-109205930D01*
X178062345Y-109205930D01*
X178062653Y-109209598D01*
X178062653Y-109209601D01*
X178065889Y-109248138D01*
X178078803Y-109401919D01*
X178133015Y-109590979D01*
X178222916Y-109765908D01*
X178345083Y-109920044D01*
X178347877Y-109922422D01*
X178347878Y-109922423D01*
X178382263Y-109951687D01*
X178494862Y-110047516D01*
X178498063Y-110049305D01*
X178498066Y-110049307D01*
X178536656Y-110070874D01*
X178666547Y-110143467D01*
X178670044Y-110144603D01*
X178670048Y-110144605D01*
X178760755Y-110174077D01*
X178853600Y-110204244D01*
X178960984Y-110217049D01*
X179045237Y-110227096D01*
X179045239Y-110227096D01*
X179048895Y-110227532D01*
X179244994Y-110212443D01*
X179360354Y-110180234D01*
X179430883Y-110160542D01*
X179430885Y-110160541D01*
X179434428Y-110159552D01*
X179574727Y-110088682D01*
X179606697Y-110072533D01*
X179606698Y-110072532D01*
X179609981Y-110070874D01*
X179764966Y-109949786D01*
X179893480Y-109800901D01*
X179990628Y-109629890D01*
X180052710Y-109443266D01*
X180077360Y-109248138D01*
X180077753Y-109220000D01*
X180077548Y-109217907D01*
X180076374Y-109205930D01*
X180602345Y-109205930D01*
X180602653Y-109209598D01*
X180602653Y-109209601D01*
X180605889Y-109248138D01*
X180618803Y-109401919D01*
X180673015Y-109590979D01*
X180762916Y-109765908D01*
X180885083Y-109920044D01*
X180887877Y-109922422D01*
X180887878Y-109922423D01*
X180922263Y-109951687D01*
X181034862Y-110047516D01*
X181038063Y-110049305D01*
X181038066Y-110049307D01*
X181076656Y-110070874D01*
X181206547Y-110143467D01*
X181210044Y-110144603D01*
X181210048Y-110144605D01*
X181300755Y-110174077D01*
X181393600Y-110204244D01*
X181500984Y-110217049D01*
X181585237Y-110227096D01*
X181585239Y-110227096D01*
X181588895Y-110227532D01*
X181784994Y-110212443D01*
X181900354Y-110180234D01*
X181970883Y-110160542D01*
X181970885Y-110160541D01*
X181974428Y-110159552D01*
X182114727Y-110088682D01*
X182146697Y-110072533D01*
X182146698Y-110072532D01*
X182149981Y-110070874D01*
X182304966Y-109949786D01*
X182433480Y-109800901D01*
X182530628Y-109629890D01*
X182592710Y-109443266D01*
X182617360Y-109248138D01*
X182617753Y-109220000D01*
X182617548Y-109217907D01*
X182616374Y-109205930D01*
X183142345Y-109205930D01*
X183142653Y-109209598D01*
X183142653Y-109209601D01*
X183145889Y-109248138D01*
X183158803Y-109401919D01*
X183213015Y-109590979D01*
X183302916Y-109765908D01*
X183425083Y-109920044D01*
X183427877Y-109922422D01*
X183427878Y-109922423D01*
X183462263Y-109951687D01*
X183574862Y-110047516D01*
X183578063Y-110049305D01*
X183578066Y-110049307D01*
X183616656Y-110070874D01*
X183746547Y-110143467D01*
X183750044Y-110144603D01*
X183750048Y-110144605D01*
X183840755Y-110174077D01*
X183933600Y-110204244D01*
X184040984Y-110217049D01*
X184125237Y-110227096D01*
X184125239Y-110227096D01*
X184128895Y-110227532D01*
X184324994Y-110212443D01*
X184440354Y-110180234D01*
X184510883Y-110160542D01*
X184510885Y-110160541D01*
X184514428Y-110159552D01*
X184654727Y-110088682D01*
X184686697Y-110072533D01*
X184686698Y-110072532D01*
X184689981Y-110070874D01*
X184844966Y-109949786D01*
X184973480Y-109800901D01*
X185070628Y-109629890D01*
X185132710Y-109443266D01*
X185157360Y-109248138D01*
X185157753Y-109220000D01*
X185157548Y-109217907D01*
X185156374Y-109205930D01*
X185682345Y-109205930D01*
X185682653Y-109209598D01*
X185682653Y-109209601D01*
X185685889Y-109248138D01*
X185698803Y-109401919D01*
X185753015Y-109590979D01*
X185842916Y-109765908D01*
X185965083Y-109920044D01*
X185967877Y-109922422D01*
X185967878Y-109922423D01*
X186002263Y-109951687D01*
X186114862Y-110047516D01*
X186118063Y-110049305D01*
X186118066Y-110049307D01*
X186156656Y-110070874D01*
X186286547Y-110143467D01*
X186290044Y-110144603D01*
X186290048Y-110144605D01*
X186380755Y-110174077D01*
X186473600Y-110204244D01*
X186580984Y-110217049D01*
X186665237Y-110227096D01*
X186665239Y-110227096D01*
X186668895Y-110227532D01*
X186864994Y-110212443D01*
X186980354Y-110180234D01*
X187050883Y-110160542D01*
X187050885Y-110160541D01*
X187054428Y-110159552D01*
X187194727Y-110088682D01*
X187226697Y-110072533D01*
X187226698Y-110072532D01*
X187229981Y-110070874D01*
X187384966Y-109949786D01*
X187513480Y-109800901D01*
X187610628Y-109629890D01*
X187672710Y-109443266D01*
X187697360Y-109248138D01*
X187697753Y-109220000D01*
X187697548Y-109217907D01*
X187696374Y-109205930D01*
X188222345Y-109205930D01*
X188222653Y-109209598D01*
X188222653Y-109209601D01*
X188225889Y-109248138D01*
X188238803Y-109401919D01*
X188293015Y-109590979D01*
X188382916Y-109765908D01*
X188505083Y-109920044D01*
X188507877Y-109922422D01*
X188507878Y-109922423D01*
X188542263Y-109951687D01*
X188654862Y-110047516D01*
X188658063Y-110049305D01*
X188658066Y-110049307D01*
X188696656Y-110070874D01*
X188826547Y-110143467D01*
X188830044Y-110144603D01*
X188830048Y-110144605D01*
X188920755Y-110174077D01*
X189013600Y-110204244D01*
X189120984Y-110217049D01*
X189205237Y-110227096D01*
X189205239Y-110227096D01*
X189208895Y-110227532D01*
X189404994Y-110212443D01*
X189520354Y-110180234D01*
X189590883Y-110160542D01*
X189590885Y-110160541D01*
X189594428Y-110159552D01*
X189734727Y-110088682D01*
X189766697Y-110072533D01*
X189766698Y-110072532D01*
X189769981Y-110070874D01*
X189924966Y-109949786D01*
X190053480Y-109800901D01*
X190150628Y-109629890D01*
X190212710Y-109443266D01*
X190237360Y-109248138D01*
X190237753Y-109220000D01*
X190237548Y-109217907D01*
X190236374Y-109205930D01*
X190762345Y-109205930D01*
X190762653Y-109209598D01*
X190762653Y-109209601D01*
X190765889Y-109248138D01*
X190778803Y-109401919D01*
X190833015Y-109590979D01*
X190922916Y-109765908D01*
X191045083Y-109920044D01*
X191047877Y-109922422D01*
X191047878Y-109922423D01*
X191082263Y-109951687D01*
X191194862Y-110047516D01*
X191198063Y-110049305D01*
X191198066Y-110049307D01*
X191236656Y-110070874D01*
X191366547Y-110143467D01*
X191370044Y-110144603D01*
X191370048Y-110144605D01*
X191460755Y-110174077D01*
X191553600Y-110204244D01*
X191660984Y-110217049D01*
X191745237Y-110227096D01*
X191745239Y-110227096D01*
X191748895Y-110227532D01*
X191944994Y-110212443D01*
X192060354Y-110180234D01*
X192130883Y-110160542D01*
X192130885Y-110160541D01*
X192134428Y-110159552D01*
X192274727Y-110088682D01*
X192306697Y-110072533D01*
X192306698Y-110072532D01*
X192309981Y-110070874D01*
X192464966Y-109949786D01*
X192593480Y-109800901D01*
X192690628Y-109629890D01*
X192752710Y-109443266D01*
X192777360Y-109248138D01*
X192777753Y-109220000D01*
X192777548Y-109217907D01*
X192776374Y-109205930D01*
X193302345Y-109205930D01*
X193302653Y-109209598D01*
X193302653Y-109209601D01*
X193305889Y-109248138D01*
X193318803Y-109401919D01*
X193373015Y-109590979D01*
X193462916Y-109765908D01*
X193585083Y-109920044D01*
X193587877Y-109922422D01*
X193587878Y-109922423D01*
X193622263Y-109951687D01*
X193734862Y-110047516D01*
X193738063Y-110049305D01*
X193738066Y-110049307D01*
X193776656Y-110070874D01*
X193906547Y-110143467D01*
X193910044Y-110144603D01*
X193910048Y-110144605D01*
X194000755Y-110174077D01*
X194093600Y-110204244D01*
X194200984Y-110217049D01*
X194285237Y-110227096D01*
X194285239Y-110227096D01*
X194288895Y-110227532D01*
X194484994Y-110212443D01*
X194600354Y-110180234D01*
X194670883Y-110160542D01*
X194670885Y-110160541D01*
X194674428Y-110159552D01*
X194814727Y-110088682D01*
X194846697Y-110072533D01*
X194846698Y-110072532D01*
X194849981Y-110070874D01*
X195004966Y-109949786D01*
X195133480Y-109800901D01*
X195230628Y-109629890D01*
X195292710Y-109443266D01*
X195317360Y-109248138D01*
X195317753Y-109220000D01*
X195317548Y-109217907D01*
X195298921Y-109027927D01*
X195298920Y-109027922D01*
X195298561Y-109024260D01*
X195241714Y-108835975D01*
X195149379Y-108662318D01*
X195025072Y-108509903D01*
X194873528Y-108384535D01*
X194700520Y-108290990D01*
X194512637Y-108232830D01*
X194369832Y-108217821D01*
X194320690Y-108212656D01*
X194320689Y-108212656D01*
X194317035Y-108212272D01*
X194219101Y-108221184D01*
X194124824Y-108229764D01*
X194124823Y-108229764D01*
X194121166Y-108230097D01*
X194117641Y-108231134D01*
X194117638Y-108231135D01*
X193936019Y-108284589D01*
X193932489Y-108285628D01*
X193758192Y-108376748D01*
X193604912Y-108499988D01*
X193478489Y-108650653D01*
X193383739Y-108823004D01*
X193324269Y-109010476D01*
X193302345Y-109205930D01*
X192776374Y-109205930D01*
X192758921Y-109027927D01*
X192758920Y-109027922D01*
X192758561Y-109024260D01*
X192701714Y-108835975D01*
X192609379Y-108662318D01*
X192485072Y-108509903D01*
X192333528Y-108384535D01*
X192160520Y-108290990D01*
X191972637Y-108232830D01*
X191829832Y-108217821D01*
X191780690Y-108212656D01*
X191780689Y-108212656D01*
X191777035Y-108212272D01*
X191679101Y-108221184D01*
X191584824Y-108229764D01*
X191584823Y-108229764D01*
X191581166Y-108230097D01*
X191577641Y-108231134D01*
X191577638Y-108231135D01*
X191396019Y-108284589D01*
X191392489Y-108285628D01*
X191218192Y-108376748D01*
X191064912Y-108499988D01*
X190938489Y-108650653D01*
X190843739Y-108823004D01*
X190784269Y-109010476D01*
X190762345Y-109205930D01*
X190236374Y-109205930D01*
X190218921Y-109027927D01*
X190218920Y-109027922D01*
X190218561Y-109024260D01*
X190161714Y-108835975D01*
X190069379Y-108662318D01*
X189945072Y-108509903D01*
X189793528Y-108384535D01*
X189620520Y-108290990D01*
X189432637Y-108232830D01*
X189289832Y-108217821D01*
X189240690Y-108212656D01*
X189240689Y-108212656D01*
X189237035Y-108212272D01*
X189139101Y-108221184D01*
X189044824Y-108229764D01*
X189044823Y-108229764D01*
X189041166Y-108230097D01*
X189037641Y-108231134D01*
X189037638Y-108231135D01*
X188856019Y-108284589D01*
X188852489Y-108285628D01*
X188678192Y-108376748D01*
X188524912Y-108499988D01*
X188398489Y-108650653D01*
X188303739Y-108823004D01*
X188244269Y-109010476D01*
X188222345Y-109205930D01*
X187696374Y-109205930D01*
X187678921Y-109027927D01*
X187678920Y-109027922D01*
X187678561Y-109024260D01*
X187621714Y-108835975D01*
X187529379Y-108662318D01*
X187405072Y-108509903D01*
X187253528Y-108384535D01*
X187080520Y-108290990D01*
X186892637Y-108232830D01*
X186749832Y-108217821D01*
X186700690Y-108212656D01*
X186700689Y-108212656D01*
X186697035Y-108212272D01*
X186599101Y-108221184D01*
X186504824Y-108229764D01*
X186504823Y-108229764D01*
X186501166Y-108230097D01*
X186497641Y-108231134D01*
X186497638Y-108231135D01*
X186316019Y-108284589D01*
X186312489Y-108285628D01*
X186138192Y-108376748D01*
X185984912Y-108499988D01*
X185858489Y-108650653D01*
X185763739Y-108823004D01*
X185704269Y-109010476D01*
X185682345Y-109205930D01*
X185156374Y-109205930D01*
X185138921Y-109027927D01*
X185138920Y-109027922D01*
X185138561Y-109024260D01*
X185081714Y-108835975D01*
X184989379Y-108662318D01*
X184865072Y-108509903D01*
X184713528Y-108384535D01*
X184540520Y-108290990D01*
X184352637Y-108232830D01*
X184209832Y-108217821D01*
X184160690Y-108212656D01*
X184160689Y-108212656D01*
X184157035Y-108212272D01*
X184059101Y-108221184D01*
X183964824Y-108229764D01*
X183964823Y-108229764D01*
X183961166Y-108230097D01*
X183957641Y-108231134D01*
X183957638Y-108231135D01*
X183776019Y-108284589D01*
X183772489Y-108285628D01*
X183598192Y-108376748D01*
X183444912Y-108499988D01*
X183318489Y-108650653D01*
X183223739Y-108823004D01*
X183164269Y-109010476D01*
X183142345Y-109205930D01*
X182616374Y-109205930D01*
X182598921Y-109027927D01*
X182598920Y-109027922D01*
X182598561Y-109024260D01*
X182541714Y-108835975D01*
X182449379Y-108662318D01*
X182325072Y-108509903D01*
X182173528Y-108384535D01*
X182000520Y-108290990D01*
X181812637Y-108232830D01*
X181669832Y-108217821D01*
X181620690Y-108212656D01*
X181620689Y-108212656D01*
X181617035Y-108212272D01*
X181519101Y-108221184D01*
X181424824Y-108229764D01*
X181424823Y-108229764D01*
X181421166Y-108230097D01*
X181417641Y-108231134D01*
X181417638Y-108231135D01*
X181236019Y-108284589D01*
X181232489Y-108285628D01*
X181058192Y-108376748D01*
X180904912Y-108499988D01*
X180778489Y-108650653D01*
X180683739Y-108823004D01*
X180624269Y-109010476D01*
X180602345Y-109205930D01*
X180076374Y-109205930D01*
X180058921Y-109027927D01*
X180058920Y-109027922D01*
X180058561Y-109024260D01*
X180001714Y-108835975D01*
X179909379Y-108662318D01*
X179785072Y-108509903D01*
X179633528Y-108384535D01*
X179460520Y-108290990D01*
X179272637Y-108232830D01*
X179129832Y-108217821D01*
X179080690Y-108212656D01*
X179080689Y-108212656D01*
X179077035Y-108212272D01*
X178979101Y-108221184D01*
X178884824Y-108229764D01*
X178884823Y-108229764D01*
X178881166Y-108230097D01*
X178877641Y-108231134D01*
X178877638Y-108231135D01*
X178696019Y-108284589D01*
X178692489Y-108285628D01*
X178518192Y-108376748D01*
X178364912Y-108499988D01*
X178238489Y-108650653D01*
X178143739Y-108823004D01*
X178084269Y-109010476D01*
X178062345Y-109205930D01*
X177536374Y-109205930D01*
X177518921Y-109027927D01*
X177518920Y-109027922D01*
X177518561Y-109024260D01*
X177461714Y-108835975D01*
X177369379Y-108662318D01*
X177245072Y-108509903D01*
X177093528Y-108384535D01*
X176920520Y-108290990D01*
X176732637Y-108232830D01*
X176589832Y-108217821D01*
X176540690Y-108212656D01*
X176540689Y-108212656D01*
X176537035Y-108212272D01*
X176439101Y-108221184D01*
X176344824Y-108229764D01*
X176344823Y-108229764D01*
X176341166Y-108230097D01*
X176337641Y-108231134D01*
X176337638Y-108231135D01*
X176156019Y-108284589D01*
X176152489Y-108285628D01*
X175978192Y-108376748D01*
X175824912Y-108499988D01*
X175698489Y-108650653D01*
X175603739Y-108823004D01*
X175544269Y-109010476D01*
X175522345Y-109205930D01*
X174996374Y-109205930D01*
X174978921Y-109027927D01*
X174978920Y-109027922D01*
X174978561Y-109024260D01*
X174921714Y-108835975D01*
X174829379Y-108662318D01*
X174705072Y-108509903D01*
X174553528Y-108384535D01*
X174380520Y-108290990D01*
X174192637Y-108232830D01*
X174049832Y-108217821D01*
X174000690Y-108212656D01*
X174000689Y-108212656D01*
X173997035Y-108212272D01*
X173899101Y-108221184D01*
X173804824Y-108229764D01*
X173804823Y-108229764D01*
X173801166Y-108230097D01*
X173797641Y-108231134D01*
X173797638Y-108231135D01*
X173616019Y-108284589D01*
X173612489Y-108285628D01*
X173438192Y-108376748D01*
X173284912Y-108499988D01*
X173158489Y-108650653D01*
X173063739Y-108823004D01*
X173004269Y-109010476D01*
X172982345Y-109205930D01*
X172456374Y-109205930D01*
X172438921Y-109027927D01*
X172438920Y-109027922D01*
X172438561Y-109024260D01*
X172381714Y-108835975D01*
X172289379Y-108662318D01*
X172165072Y-108509903D01*
X172013528Y-108384535D01*
X171840520Y-108290990D01*
X171652637Y-108232830D01*
X171509832Y-108217821D01*
X171460690Y-108212656D01*
X171460689Y-108212656D01*
X171457035Y-108212272D01*
X171359101Y-108221184D01*
X171264824Y-108229764D01*
X171264823Y-108229764D01*
X171261166Y-108230097D01*
X171257641Y-108231134D01*
X171257638Y-108231135D01*
X171076019Y-108284589D01*
X171072489Y-108285628D01*
X170898192Y-108376748D01*
X170744912Y-108499988D01*
X170618489Y-108650653D01*
X170523739Y-108823004D01*
X170464269Y-109010476D01*
X170442345Y-109205930D01*
X169916374Y-109205930D01*
X169898921Y-109027927D01*
X169898920Y-109027922D01*
X169898561Y-109024260D01*
X169841714Y-108835975D01*
X169749379Y-108662318D01*
X169625072Y-108509903D01*
X169473528Y-108384535D01*
X169300520Y-108290990D01*
X169112637Y-108232830D01*
X168969832Y-108217821D01*
X168920690Y-108212656D01*
X168920689Y-108212656D01*
X168917035Y-108212272D01*
X168819101Y-108221184D01*
X168724824Y-108229764D01*
X168724823Y-108229764D01*
X168721166Y-108230097D01*
X168717641Y-108231134D01*
X168717638Y-108231135D01*
X168536019Y-108284589D01*
X168532489Y-108285628D01*
X168358192Y-108376748D01*
X168204912Y-108499988D01*
X168078489Y-108650653D01*
X167983739Y-108823004D01*
X167924269Y-109010476D01*
X167902345Y-109205930D01*
X167376374Y-109205930D01*
X167358921Y-109027927D01*
X167358920Y-109027922D01*
X167358561Y-109024260D01*
X167301714Y-108835975D01*
X167209379Y-108662318D01*
X167085072Y-108509903D01*
X166933528Y-108384535D01*
X166760520Y-108290990D01*
X166572637Y-108232830D01*
X166429832Y-108217821D01*
X166380690Y-108212656D01*
X166380689Y-108212656D01*
X166377035Y-108212272D01*
X166279101Y-108221184D01*
X166184824Y-108229764D01*
X166184823Y-108229764D01*
X166181166Y-108230097D01*
X166177641Y-108231134D01*
X166177638Y-108231135D01*
X165996019Y-108284589D01*
X165992489Y-108285628D01*
X165818192Y-108376748D01*
X165664912Y-108499988D01*
X165538489Y-108650653D01*
X165443739Y-108823004D01*
X165384269Y-109010476D01*
X165362345Y-109205930D01*
X164836374Y-109205930D01*
X164818921Y-109027927D01*
X164818920Y-109027922D01*
X164818561Y-109024260D01*
X164761714Y-108835975D01*
X164669379Y-108662318D01*
X164545072Y-108509903D01*
X164393528Y-108384535D01*
X164220520Y-108290990D01*
X164032637Y-108232830D01*
X163889832Y-108217821D01*
X163840690Y-108212656D01*
X163840689Y-108212656D01*
X163837035Y-108212272D01*
X163739101Y-108221184D01*
X163644824Y-108229764D01*
X163644823Y-108229764D01*
X163641166Y-108230097D01*
X163637641Y-108231134D01*
X163637638Y-108231135D01*
X163456019Y-108284589D01*
X163452489Y-108285628D01*
X163278192Y-108376748D01*
X163124912Y-108499988D01*
X162998489Y-108650653D01*
X162903739Y-108823004D01*
X162844269Y-109010476D01*
X162822345Y-109205930D01*
X162296374Y-109205930D01*
X162278921Y-109027927D01*
X162278920Y-109027922D01*
X162278561Y-109024260D01*
X162221714Y-108835975D01*
X162129379Y-108662318D01*
X162005072Y-108509903D01*
X161853528Y-108384535D01*
X161680520Y-108290990D01*
X161492637Y-108232830D01*
X161349832Y-108217821D01*
X161300690Y-108212656D01*
X161300689Y-108212656D01*
X161297035Y-108212272D01*
X161199101Y-108221184D01*
X161104824Y-108229764D01*
X161104823Y-108229764D01*
X161101166Y-108230097D01*
X161097641Y-108231134D01*
X161097638Y-108231135D01*
X160916019Y-108284589D01*
X160912489Y-108285628D01*
X160738192Y-108376748D01*
X160584912Y-108499988D01*
X160458489Y-108650653D01*
X160363739Y-108823004D01*
X160304269Y-109010476D01*
X160282345Y-109205930D01*
X159756374Y-109205930D01*
X159738921Y-109027927D01*
X159738920Y-109027922D01*
X159738561Y-109024260D01*
X159681714Y-108835975D01*
X159589379Y-108662318D01*
X159465072Y-108509903D01*
X159313528Y-108384535D01*
X159140520Y-108290990D01*
X158952637Y-108232830D01*
X158809832Y-108217821D01*
X158760690Y-108212656D01*
X158760689Y-108212656D01*
X158757035Y-108212272D01*
X158659101Y-108221184D01*
X158564824Y-108229764D01*
X158564823Y-108229764D01*
X158561166Y-108230097D01*
X158557641Y-108231134D01*
X158557638Y-108231135D01*
X158376019Y-108284589D01*
X158372489Y-108285628D01*
X158198192Y-108376748D01*
X158044912Y-108499988D01*
X157918489Y-108650653D01*
X157823739Y-108823004D01*
X157764269Y-109010476D01*
X157742345Y-109205930D01*
X157216374Y-109205930D01*
X157198921Y-109027927D01*
X157198920Y-109027922D01*
X157198561Y-109024260D01*
X157141714Y-108835975D01*
X157108890Y-108774241D01*
X157101731Y-108723303D01*
X157122114Y-108685764D01*
X158221951Y-107585927D01*
X158268571Y-107564187D01*
X158275125Y-107563901D01*
X166372972Y-107563901D01*
X166387643Y-107565346D01*
X166406701Y-107569137D01*
X166413965Y-107567692D01*
X166503694Y-107549843D01*
X166510958Y-107548398D01*
X166577030Y-107504250D01*
X166599342Y-107489342D01*
X166610137Y-107473186D01*
X166619489Y-107461791D01*
X169947487Y-104133793D01*
X186181967Y-104133793D01*
X186182661Y-104139100D01*
X186182661Y-104139103D01*
X186183053Y-104142099D01*
X186200645Y-104276630D01*
X186258662Y-104408484D01*
X186262107Y-104412582D01*
X186262108Y-104412584D01*
X186267741Y-104419285D01*
X186351354Y-104518755D01*
X186471270Y-104598577D01*
X186608769Y-104641535D01*
X186682871Y-104642893D01*
X186747436Y-104644077D01*
X186747438Y-104644077D01*
X186752798Y-104644175D01*
X186757969Y-104642765D01*
X186757971Y-104642765D01*
X186833695Y-104622120D01*
X186891779Y-104606285D01*
X186971823Y-104557138D01*
X187009970Y-104533716D01*
X187009973Y-104533714D01*
X187014539Y-104530910D01*
X187111210Y-104424110D01*
X187116795Y-104412584D01*
X187171682Y-104299296D01*
X187171682Y-104299295D01*
X187174020Y-104294470D01*
X187197919Y-104152413D01*
X187198071Y-104140000D01*
X187197659Y-104137120D01*
X187197183Y-104133793D01*
X187451967Y-104133793D01*
X187452661Y-104139100D01*
X187452661Y-104139103D01*
X187453053Y-104142099D01*
X187470645Y-104276630D01*
X187528662Y-104408484D01*
X187532107Y-104412582D01*
X187532108Y-104412584D01*
X187537741Y-104419285D01*
X187621354Y-104518755D01*
X187741270Y-104598577D01*
X187878769Y-104641535D01*
X187952871Y-104642893D01*
X188017436Y-104644077D01*
X188017438Y-104644077D01*
X188022798Y-104644175D01*
X188027969Y-104642765D01*
X188027971Y-104642765D01*
X188103695Y-104622120D01*
X188161779Y-104606285D01*
X188241823Y-104557138D01*
X188279970Y-104533716D01*
X188279973Y-104533714D01*
X188284539Y-104530910D01*
X188381210Y-104424110D01*
X188386795Y-104412584D01*
X188441682Y-104299296D01*
X188441682Y-104299295D01*
X188444020Y-104294470D01*
X188467919Y-104152413D01*
X188468071Y-104140000D01*
X188467659Y-104137120D01*
X188448409Y-104002704D01*
X188448408Y-104002700D01*
X188447649Y-103997401D01*
X188444421Y-103990300D01*
X188390245Y-103871147D01*
X188388026Y-103866266D01*
X188382987Y-103860418D01*
X188297487Y-103761190D01*
X188297484Y-103761187D01*
X188293993Y-103757136D01*
X188289502Y-103754225D01*
X188177604Y-103681697D01*
X188177603Y-103681697D01*
X188173111Y-103678785D01*
X188096912Y-103655997D01*
X188040232Y-103639045D01*
X188040229Y-103639045D01*
X188035098Y-103637510D01*
X188029743Y-103637477D01*
X188029741Y-103637477D01*
X187964524Y-103637079D01*
X187891047Y-103636630D01*
X187885897Y-103638102D01*
X187885896Y-103638102D01*
X187821793Y-103656422D01*
X187752539Y-103676215D01*
X187748013Y-103679071D01*
X187748010Y-103679072D01*
X187651799Y-103739777D01*
X187630709Y-103753084D01*
X187625046Y-103759496D01*
X187538897Y-103857041D01*
X187538895Y-103857044D01*
X187535351Y-103861057D01*
X187474129Y-103991454D01*
X187451967Y-104133793D01*
X187197183Y-104133793D01*
X187178409Y-104002704D01*
X187178408Y-104002700D01*
X187177649Y-103997401D01*
X187174421Y-103990300D01*
X187120245Y-103871147D01*
X187118026Y-103866266D01*
X187112987Y-103860418D01*
X187027487Y-103761190D01*
X187027484Y-103761187D01*
X187023993Y-103757136D01*
X187019502Y-103754225D01*
X186907604Y-103681697D01*
X186907603Y-103681697D01*
X186903111Y-103678785D01*
X186826912Y-103655997D01*
X186770232Y-103639045D01*
X186770229Y-103639045D01*
X186765098Y-103637510D01*
X186759743Y-103637477D01*
X186759741Y-103637477D01*
X186694524Y-103637079D01*
X186621047Y-103636630D01*
X186615897Y-103638102D01*
X186615896Y-103638102D01*
X186551793Y-103656422D01*
X186482539Y-103676215D01*
X186478013Y-103679071D01*
X186478010Y-103679072D01*
X186381799Y-103739777D01*
X186360709Y-103753084D01*
X186355046Y-103759496D01*
X186268897Y-103857041D01*
X186268895Y-103857044D01*
X186265351Y-103861057D01*
X186204129Y-103991454D01*
X186181967Y-104133793D01*
X169947487Y-104133793D01*
X170922054Y-103159226D01*
X170968674Y-103137486D01*
X170975228Y-103137200D01*
X173321271Y-103137200D01*
X173335942Y-103138645D01*
X173355000Y-103142436D01*
X173362264Y-103140991D01*
X173381820Y-103137101D01*
X173459257Y-103121697D01*
X173525329Y-103077549D01*
X173547641Y-103062641D01*
X173558436Y-103046485D01*
X173567788Y-103035090D01*
X173845708Y-102757170D01*
X173892328Y-102735430D01*
X173906948Y-102735966D01*
X173908769Y-102736535D01*
X173975873Y-102737765D01*
X174047436Y-102739077D01*
X174047438Y-102739077D01*
X174052798Y-102739175D01*
X174057969Y-102737765D01*
X174057971Y-102737765D01*
X174178482Y-102704910D01*
X174191779Y-102701285D01*
X174244871Y-102668686D01*
X174309970Y-102628716D01*
X174309973Y-102628714D01*
X174314539Y-102625910D01*
X174411210Y-102519110D01*
X174445368Y-102448609D01*
X174471682Y-102394296D01*
X174471682Y-102394295D01*
X174474020Y-102389470D01*
X174497919Y-102247413D01*
X174498071Y-102235000D01*
X174497183Y-102228793D01*
X174487094Y-102158353D01*
X174497657Y-102108009D01*
X174508360Y-102094518D01*
X175330353Y-101272525D01*
X175376973Y-101250785D01*
X175383527Y-101250499D01*
X176655095Y-101250499D01*
X176703433Y-101268092D01*
X176729153Y-101312641D01*
X176723166Y-101357658D01*
X176681405Y-101446605D01*
X176681404Y-101446608D01*
X176679129Y-101451454D01*
X176656967Y-101593793D01*
X176657661Y-101599100D01*
X176657661Y-101599103D01*
X176658053Y-101602099D01*
X176675645Y-101736630D01*
X176710823Y-101816579D01*
X176726452Y-101852097D01*
X176733662Y-101868484D01*
X176737107Y-101872582D01*
X176737108Y-101872584D01*
X176741955Y-101878350D01*
X176826354Y-101978755D01*
X176846800Y-101992365D01*
X176927621Y-102046163D01*
X176946270Y-102058577D01*
X177083769Y-102101535D01*
X177157871Y-102102893D01*
X177222436Y-102104077D01*
X177222438Y-102104077D01*
X177227798Y-102104175D01*
X177232969Y-102102765D01*
X177232971Y-102102765D01*
X177310574Y-102081608D01*
X177366779Y-102066285D01*
X177453414Y-102013091D01*
X177484970Y-101993716D01*
X177484973Y-101993714D01*
X177489539Y-101990910D01*
X177586210Y-101884110D01*
X177591795Y-101872584D01*
X177646682Y-101759296D01*
X177646682Y-101759295D01*
X177649020Y-101754470D01*
X177672919Y-101612413D01*
X177673071Y-101600000D01*
X177672659Y-101597120D01*
X177653409Y-101462704D01*
X177653408Y-101462700D01*
X177652649Y-101457401D01*
X177649946Y-101451454D01*
X177606920Y-101356824D01*
X177602929Y-101305539D01*
X177632837Y-101263687D01*
X177675376Y-101250499D01*
X184732972Y-101250499D01*
X184747643Y-101251944D01*
X184766701Y-101255735D01*
X184870958Y-101234996D01*
X184924447Y-101199255D01*
X184924449Y-101199254D01*
X184953185Y-101180054D01*
X184953186Y-101180053D01*
X184959342Y-101175940D01*
X184970137Y-101159784D01*
X184979489Y-101148389D01*
X185275708Y-100852170D01*
X185322328Y-100830430D01*
X185336948Y-100830966D01*
X185338769Y-100831535D01*
X185405873Y-100832765D01*
X185477436Y-100834077D01*
X185477438Y-100834077D01*
X185482798Y-100834175D01*
X185487969Y-100832765D01*
X185487971Y-100832765D01*
X185583162Y-100806813D01*
X185621779Y-100796285D01*
X185680883Y-100759995D01*
X185739970Y-100723716D01*
X185739973Y-100723714D01*
X185744539Y-100720910D01*
X185790709Y-100669903D01*
X185837612Y-100618085D01*
X185841210Y-100614110D01*
X185851605Y-100592656D01*
X185901682Y-100489296D01*
X185901682Y-100489295D01*
X185904020Y-100484470D01*
X185927919Y-100342413D01*
X185928071Y-100330000D01*
X185927659Y-100327120D01*
X185908409Y-100192704D01*
X185908408Y-100192700D01*
X185907649Y-100187401D01*
X185896416Y-100162694D01*
X185862780Y-100088716D01*
X185848026Y-100056266D01*
X185843538Y-100051057D01*
X185757487Y-99951190D01*
X185757484Y-99951187D01*
X185753993Y-99947136D01*
X185749502Y-99944225D01*
X185637604Y-99871697D01*
X185637603Y-99871697D01*
X185633111Y-99868785D01*
X185550852Y-99844184D01*
X185500232Y-99829045D01*
X185500229Y-99829045D01*
X185495098Y-99827510D01*
X185489743Y-99827477D01*
X185489741Y-99827477D01*
X185424524Y-99827079D01*
X185351047Y-99826630D01*
X185345897Y-99828102D01*
X185345896Y-99828102D01*
X185281793Y-99846423D01*
X185212539Y-99866215D01*
X185208013Y-99869071D01*
X185208010Y-99869072D01*
X185139811Y-99912103D01*
X185090709Y-99943084D01*
X185083550Y-99951190D01*
X184998897Y-100047041D01*
X184998895Y-100047044D01*
X184995351Y-100051057D01*
X184978007Y-100087998D01*
X184946467Y-100155176D01*
X184934129Y-100181454D01*
X184933305Y-100186744D01*
X184933305Y-100186745D01*
X184931609Y-100197641D01*
X184911967Y-100323793D01*
X184912661Y-100329101D01*
X184912661Y-100329103D01*
X184922933Y-100407656D01*
X184911756Y-100457867D01*
X184901542Y-100470580D01*
X184678049Y-100694073D01*
X184631429Y-100715813D01*
X184624875Y-100716099D01*
X175275430Y-100716099D01*
X175260759Y-100714654D01*
X175248965Y-100712308D01*
X175241701Y-100710863D01*
X175234437Y-100712308D01*
X175144707Y-100730157D01*
X175144705Y-100730158D01*
X175137445Y-100731602D01*
X175049060Y-100790658D01*
X175044947Y-100796814D01*
X175038266Y-100806813D01*
X175028913Y-100818209D01*
X174134309Y-101712813D01*
X174087689Y-101734553D01*
X174070135Y-101734017D01*
X174065098Y-101732510D01*
X174059746Y-101732477D01*
X174059744Y-101732477D01*
X173992370Y-101732066D01*
X173921047Y-101731630D01*
X173915897Y-101733102D01*
X173915896Y-101733102D01*
X173851793Y-101751422D01*
X173782539Y-101771215D01*
X173778013Y-101774071D01*
X173778010Y-101774072D01*
X173700043Y-101823266D01*
X173660709Y-101848084D01*
X173643826Y-101867200D01*
X173568897Y-101952041D01*
X173568895Y-101952044D01*
X173565351Y-101956057D01*
X173563075Y-101960905D01*
X173516467Y-102060176D01*
X173504129Y-102086454D01*
X173503305Y-102091744D01*
X173503305Y-102091745D01*
X173501589Y-102102765D01*
X173481967Y-102228793D01*
X173482661Y-102234101D01*
X173482661Y-102234103D01*
X173492933Y-102312656D01*
X173481756Y-102362867D01*
X173471542Y-102375580D01*
X173266348Y-102580774D01*
X173219728Y-102602514D01*
X173213174Y-102602800D01*
X170867131Y-102602800D01*
X170852460Y-102601355D01*
X170840666Y-102599009D01*
X170833402Y-102597564D01*
X170826138Y-102599009D01*
X170736408Y-102616858D01*
X170736406Y-102616859D01*
X170729146Y-102618303D01*
X170640761Y-102677359D01*
X170636648Y-102683515D01*
X170629967Y-102693514D01*
X170620614Y-102704910D01*
X166318049Y-107007475D01*
X166271429Y-107029215D01*
X166264875Y-107029501D01*
X158167028Y-107029501D01*
X158152357Y-107028056D01*
X158140563Y-107025710D01*
X158133299Y-107024265D01*
X158126035Y-107025710D01*
X158036305Y-107043559D01*
X158036303Y-107043560D01*
X158029043Y-107045004D01*
X157940658Y-107104060D01*
X157936545Y-107110216D01*
X157929864Y-107120215D01*
X157920511Y-107131611D01*
X156744401Y-108307721D01*
X156697781Y-108329461D01*
X156655463Y-108320698D01*
X156600520Y-108290990D01*
X156412637Y-108232830D01*
X156269832Y-108217821D01*
X156220690Y-108212656D01*
X156220689Y-108212656D01*
X156217035Y-108212272D01*
X156119101Y-108221184D01*
X156024824Y-108229764D01*
X156024823Y-108229764D01*
X156021166Y-108230097D01*
X156017641Y-108231134D01*
X156017638Y-108231135D01*
X155836019Y-108284589D01*
X155832489Y-108285628D01*
X155658192Y-108376748D01*
X155504912Y-108499988D01*
X155378489Y-108650653D01*
X155283739Y-108823004D01*
X155224269Y-109010476D01*
X155202345Y-109205930D01*
X154672899Y-109205930D01*
X154672899Y-108354944D01*
X154664028Y-108310342D01*
X154630234Y-108259766D01*
X154601465Y-108240543D01*
X154585817Y-108230087D01*
X154585816Y-108230086D01*
X154579658Y-108225972D01*
X154535057Y-108217100D01*
X153670118Y-108217100D01*
X152804944Y-108217101D01*
X152760342Y-108225972D01*
X152709766Y-108259766D01*
X152705652Y-108265923D01*
X152687735Y-108292738D01*
X152675972Y-108310342D01*
X152667100Y-108354943D01*
X151917400Y-108354943D01*
X151917400Y-104416176D01*
X151934993Y-104367838D01*
X151979542Y-104342118D01*
X152030200Y-104351051D01*
X152064887Y-104395448D01*
X152074246Y-104428085D01*
X152098015Y-104510979D01*
X152187916Y-104685908D01*
X152310083Y-104840044D01*
X152312877Y-104842422D01*
X152312878Y-104842423D01*
X152412848Y-104927504D01*
X152459862Y-104967516D01*
X152463063Y-104969305D01*
X152463066Y-104969307D01*
X152504920Y-104992698D01*
X152631547Y-105063467D01*
X152635044Y-105064603D01*
X152635048Y-105064605D01*
X152727615Y-105094681D01*
X152818600Y-105124244D01*
X152925984Y-105137049D01*
X153010237Y-105147096D01*
X153010239Y-105147096D01*
X153013895Y-105147532D01*
X153209994Y-105132443D01*
X153309358Y-105104700D01*
X153395891Y-105080540D01*
X153395895Y-105080538D01*
X153399428Y-105079552D01*
X153402702Y-105077898D01*
X153402705Y-105077897D01*
X153446091Y-105055981D01*
X153497169Y-105049891D01*
X153533171Y-105069930D01*
X154049918Y-105586677D01*
X154053562Y-105590898D01*
X154055655Y-105595180D01*
X154060744Y-105599901D01*
X154060745Y-105599902D01*
X154092855Y-105629688D01*
X154094887Y-105631646D01*
X154109197Y-105645956D01*
X154112058Y-105647918D01*
X154114723Y-105650133D01*
X154114605Y-105650275D01*
X154117835Y-105652860D01*
X154139037Y-105672528D01*
X154145484Y-105675100D01*
X154145487Y-105675102D01*
X154152524Y-105677909D01*
X154167194Y-105685742D01*
X154179168Y-105693956D01*
X154185921Y-105695559D01*
X154185922Y-105695559D01*
X154207311Y-105700635D01*
X154217802Y-105703953D01*
X154244673Y-105714673D01*
X154251068Y-105715300D01*
X154260306Y-105715300D01*
X154277671Y-105717332D01*
X154289827Y-105720217D01*
X154296705Y-105719281D01*
X154296706Y-105719281D01*
X154320909Y-105715987D01*
X154331050Y-105715300D01*
X164743666Y-105715300D01*
X164749225Y-105715708D01*
X164753734Y-105717256D01*
X164804422Y-105715353D01*
X164807242Y-105715300D01*
X164827499Y-105715300D01*
X164830903Y-105714666D01*
X164834355Y-105714347D01*
X164834371Y-105714519D01*
X164838489Y-105714074D01*
X164860449Y-105713250D01*
X164860452Y-105713249D01*
X164867388Y-105712989D01*
X164873767Y-105710248D01*
X164873769Y-105710248D01*
X164880729Y-105707258D01*
X164896641Y-105702424D01*
X164904090Y-105701036D01*
X164904092Y-105701035D01*
X164910917Y-105699764D01*
X164916826Y-105696122D01*
X164916828Y-105696121D01*
X164935540Y-105684587D01*
X164945316Y-105679509D01*
X164967003Y-105670192D01*
X164967006Y-105670190D01*
X164971885Y-105668094D01*
X164976850Y-105664015D01*
X164983381Y-105657484D01*
X164997095Y-105646643D01*
X165001823Y-105643729D01*
X165001824Y-105643728D01*
X165007734Y-105640085D01*
X165026730Y-105615104D01*
X165033408Y-105607457D01*
X168713540Y-101927326D01*
X168760160Y-101905586D01*
X168766714Y-101905300D01*
X171649583Y-101905300D01*
X171697921Y-101922893D01*
X171707145Y-101932110D01*
X171746354Y-101978755D01*
X171766800Y-101992365D01*
X171847621Y-102046163D01*
X171866270Y-102058577D01*
X172003769Y-102101535D01*
X172077871Y-102102893D01*
X172142436Y-102104077D01*
X172142438Y-102104077D01*
X172147798Y-102104175D01*
X172152969Y-102102765D01*
X172152971Y-102102765D01*
X172230574Y-102081608D01*
X172286779Y-102066285D01*
X172373414Y-102013091D01*
X172404970Y-101993716D01*
X172404973Y-101993714D01*
X172409539Y-101990910D01*
X172506210Y-101884110D01*
X172511795Y-101872584D01*
X172566682Y-101759296D01*
X172566682Y-101759295D01*
X172569020Y-101754470D01*
X172592919Y-101612413D01*
X172593071Y-101600000D01*
X172592659Y-101597120D01*
X172573409Y-101462704D01*
X172573408Y-101462700D01*
X172572649Y-101457401D01*
X172567741Y-101446605D01*
X172521540Y-101344992D01*
X172513026Y-101326266D01*
X172507987Y-101320418D01*
X172422487Y-101221190D01*
X172422484Y-101221187D01*
X172418993Y-101217136D01*
X172414502Y-101214225D01*
X172302604Y-101141697D01*
X172302603Y-101141697D01*
X172298111Y-101138785D01*
X172221912Y-101115997D01*
X172165232Y-101099045D01*
X172165229Y-101099045D01*
X172160098Y-101097510D01*
X172154743Y-101097477D01*
X172154741Y-101097477D01*
X172089524Y-101097079D01*
X172016047Y-101096630D01*
X172010897Y-101098102D01*
X172010896Y-101098102D01*
X171998552Y-101101630D01*
X171877539Y-101136215D01*
X171873013Y-101139071D01*
X171873010Y-101139072D01*
X171776799Y-101199777D01*
X171755709Y-101213084D01*
X171752166Y-101217096D01*
X171752161Y-101217100D01*
X171706079Y-101269279D01*
X171660895Y-101293864D01*
X171649714Y-101294700D01*
X168664546Y-101294700D01*
X168658987Y-101294292D01*
X168654478Y-101292744D01*
X168603791Y-101294647D01*
X168600970Y-101294700D01*
X168580713Y-101294700D01*
X168577309Y-101295334D01*
X168573857Y-101295653D01*
X168573841Y-101295481D01*
X168569723Y-101295926D01*
X168547763Y-101296750D01*
X168547760Y-101296751D01*
X168540824Y-101297011D01*
X168534445Y-101299752D01*
X168534443Y-101299752D01*
X168527483Y-101302742D01*
X168511571Y-101307576D01*
X168504122Y-101308964D01*
X168504120Y-101308965D01*
X168497295Y-101310236D01*
X168491388Y-101313877D01*
X168491386Y-101313878D01*
X168486255Y-101317041D01*
X168475085Y-101323927D01*
X168472674Y-101325413D01*
X168462900Y-101330490D01*
X168436328Y-101341906D01*
X168431362Y-101345984D01*
X168424828Y-101352518D01*
X168411116Y-101363358D01*
X168400478Y-101369915D01*
X168387510Y-101386969D01*
X168381492Y-101394883D01*
X168374807Y-101402539D01*
X164694672Y-105082674D01*
X164648052Y-105104414D01*
X164641498Y-105104700D01*
X156649711Y-105104700D01*
X156601373Y-105087107D01*
X156575653Y-105042558D01*
X156575956Y-105014828D01*
X156577900Y-105005057D01*
X156577899Y-103274944D01*
X156569028Y-103230342D01*
X156535234Y-103179766D01*
X156504494Y-103159226D01*
X156490817Y-103150087D01*
X156490816Y-103150086D01*
X156484658Y-103145972D01*
X156440057Y-103137100D01*
X155575118Y-103137100D01*
X154709944Y-103137101D01*
X154665342Y-103145972D01*
X154614766Y-103179766D01*
X154610652Y-103185923D01*
X154592735Y-103212738D01*
X154580972Y-103230342D01*
X154572100Y-103274943D01*
X154572101Y-105005056D01*
X154574046Y-105014834D01*
X154566219Y-105065673D01*
X154527543Y-105099588D01*
X154500290Y-105104700D01*
X154462607Y-105104700D01*
X154414269Y-105087107D01*
X154409433Y-105082674D01*
X154223303Y-104896544D01*
X153967523Y-104640763D01*
X153945784Y-104594145D01*
X153953856Y-104557138D01*
X153952314Y-104556451D01*
X153953810Y-104553090D01*
X153955628Y-104549890D01*
X153986669Y-104456578D01*
X154016548Y-104366760D01*
X154016549Y-104366757D01*
X154017710Y-104363266D01*
X154042360Y-104168138D01*
X154042620Y-104149500D01*
X154042724Y-104142099D01*
X154042724Y-104142093D01*
X154042753Y-104140000D01*
X154042471Y-104137120D01*
X154023921Y-103947927D01*
X154023920Y-103947922D01*
X154023561Y-103944260D01*
X153966714Y-103755975D01*
X153874379Y-103582318D01*
X153750072Y-103429903D01*
X153598528Y-103304535D01*
X153425520Y-103210990D01*
X153237637Y-103152830D01*
X153094832Y-103137821D01*
X153045690Y-103132656D01*
X153045689Y-103132656D01*
X153042035Y-103132272D01*
X152972006Y-103138645D01*
X152849824Y-103149764D01*
X152849823Y-103149764D01*
X152846166Y-103150097D01*
X152842641Y-103151134D01*
X152842638Y-103151135D01*
X152724440Y-103185923D01*
X152657489Y-103205628D01*
X152483192Y-103296748D01*
X152329912Y-103419988D01*
X152203489Y-103570653D01*
X152201718Y-103573875D01*
X152201717Y-103573876D01*
X152110513Y-103739777D01*
X152108739Y-103743004D01*
X152064280Y-103883156D01*
X152032894Y-103923912D01*
X151982654Y-103934957D01*
X151937068Y-103911125D01*
X151917400Y-103860418D01*
X151917400Y-101876176D01*
X151934993Y-101827838D01*
X151979542Y-101802118D01*
X152030200Y-101811051D01*
X152064887Y-101855448D01*
X152074246Y-101888085D01*
X152098015Y-101970979D01*
X152187916Y-102145908D01*
X152310083Y-102300044D01*
X152312877Y-102302422D01*
X152312878Y-102302423D01*
X152383900Y-102362867D01*
X152459862Y-102427516D01*
X152463063Y-102429305D01*
X152463066Y-102429307D01*
X152501656Y-102450874D01*
X152631547Y-102523467D01*
X152635044Y-102524603D01*
X152635048Y-102524605D01*
X152727615Y-102554681D01*
X152818600Y-102584244D01*
X152925984Y-102597049D01*
X153010237Y-102607096D01*
X153010239Y-102607096D01*
X153013895Y-102607532D01*
X153209994Y-102592443D01*
X153324061Y-102560595D01*
X153395883Y-102540542D01*
X153395885Y-102540541D01*
X153399428Y-102539552D01*
X153574981Y-102450874D01*
X153729966Y-102329786D01*
X153858480Y-102180901D01*
X153904475Y-102099935D01*
X153953810Y-102013091D01*
X153953812Y-102013088D01*
X153955628Y-102009890D01*
X153990421Y-101905300D01*
X154016548Y-101826760D01*
X154016549Y-101826757D01*
X154017710Y-101823266D01*
X154042360Y-101628138D01*
X154042620Y-101609500D01*
X154042724Y-101602099D01*
X154042724Y-101602093D01*
X154042753Y-101600000D01*
X154042471Y-101597120D01*
X154023921Y-101407927D01*
X154023920Y-101407922D01*
X154023561Y-101404260D01*
X153966714Y-101215975D01*
X153933890Y-101154241D01*
X153926731Y-101103303D01*
X153947114Y-101065764D01*
X154364663Y-100648215D01*
X154411283Y-100626475D01*
X154417837Y-100626189D01*
X154972033Y-100626189D01*
X155020371Y-100643782D01*
X155046091Y-100688331D01*
X155037158Y-100738989D01*
X155019153Y-100759995D01*
X154872781Y-100877680D01*
X154872776Y-100877685D01*
X154869912Y-100879988D01*
X154743489Y-101030653D01*
X154741718Y-101033875D01*
X154741717Y-101033876D01*
X154678764Y-101148389D01*
X154648739Y-101203004D01*
X154589269Y-101390476D01*
X154567345Y-101585930D01*
X154567653Y-101589598D01*
X154567653Y-101589601D01*
X154582830Y-101770329D01*
X154583803Y-101781919D01*
X154638015Y-101970979D01*
X154727916Y-102145908D01*
X154850083Y-102300044D01*
X154852877Y-102302422D01*
X154852878Y-102302423D01*
X154923900Y-102362867D01*
X154999862Y-102427516D01*
X155003063Y-102429305D01*
X155003066Y-102429307D01*
X155041656Y-102450874D01*
X155171547Y-102523467D01*
X155175044Y-102524603D01*
X155175048Y-102524605D01*
X155267615Y-102554681D01*
X155358600Y-102584244D01*
X155465984Y-102597049D01*
X155550237Y-102607096D01*
X155550239Y-102607096D01*
X155553895Y-102607532D01*
X155749994Y-102592443D01*
X155864061Y-102560595D01*
X155935883Y-102540542D01*
X155935885Y-102540541D01*
X155939428Y-102539552D01*
X156114981Y-102450874D01*
X156269966Y-102329786D01*
X156398480Y-102180901D01*
X156444475Y-102099935D01*
X156493810Y-102013091D01*
X156493812Y-102013088D01*
X156495628Y-102009890D01*
X156525976Y-101918660D01*
X156557926Y-101878350D01*
X156597330Y-101867200D01*
X157803551Y-101867200D01*
X157818222Y-101868645D01*
X157837280Y-101872436D01*
X157844544Y-101870991D01*
X157934273Y-101853142D01*
X157941537Y-101851697D01*
X158007609Y-101807549D01*
X158029921Y-101792641D01*
X158040716Y-101776485D01*
X158050068Y-101765090D01*
X161082634Y-98732524D01*
X161129254Y-98710784D01*
X161135808Y-98710498D01*
X175136472Y-98710498D01*
X175184810Y-98728091D01*
X175189646Y-98732524D01*
X175376659Y-98919537D01*
X175398399Y-98966157D01*
X175397790Y-98984280D01*
X175395306Y-99000233D01*
X175386967Y-99053793D01*
X175387661Y-99059100D01*
X175387661Y-99059103D01*
X175388053Y-99062099D01*
X175405645Y-99196630D01*
X175437402Y-99268803D01*
X175458253Y-99316190D01*
X175463662Y-99328484D01*
X175467107Y-99332582D01*
X175467108Y-99332584D01*
X175472741Y-99339285D01*
X175556354Y-99438755D01*
X175676270Y-99518577D01*
X175813769Y-99561535D01*
X175887871Y-99562893D01*
X175952436Y-99564077D01*
X175952438Y-99564077D01*
X175957798Y-99564175D01*
X175962969Y-99562765D01*
X175962971Y-99562765D01*
X176038695Y-99542120D01*
X176096779Y-99526285D01*
X176183414Y-99473091D01*
X176214970Y-99453716D01*
X176214973Y-99453714D01*
X176219539Y-99450910D01*
X176241954Y-99426147D01*
X176312612Y-99348085D01*
X176316210Y-99344110D01*
X176321795Y-99332584D01*
X176376682Y-99219296D01*
X176376682Y-99219295D01*
X176379020Y-99214470D01*
X176402919Y-99072413D01*
X176403071Y-99060000D01*
X176402659Y-99057120D01*
X176383409Y-98922704D01*
X176383408Y-98922700D01*
X176382649Y-98917401D01*
X176376783Y-98904498D01*
X176325245Y-98791147D01*
X176323026Y-98786266D01*
X176317987Y-98780418D01*
X176232487Y-98681190D01*
X176232484Y-98681187D01*
X176228993Y-98677136D01*
X176189133Y-98651300D01*
X176112604Y-98601697D01*
X176112603Y-98601697D01*
X176108111Y-98598785D01*
X176031912Y-98575997D01*
X175975232Y-98559045D01*
X175975229Y-98559045D01*
X175970098Y-98557510D01*
X175964743Y-98557477D01*
X175964741Y-98557477D01*
X175899524Y-98557079D01*
X175826047Y-98556630D01*
X175820895Y-98558102D01*
X175815591Y-98558829D01*
X175815255Y-98556377D01*
X175773300Y-98553399D01*
X175750784Y-98537906D01*
X175670739Y-98457861D01*
X175648999Y-98411241D01*
X175662313Y-98361554D01*
X175704450Y-98332049D01*
X175723913Y-98329487D01*
X177295461Y-98329487D01*
X177343799Y-98347080D01*
X177348635Y-98351513D01*
X177635001Y-98637878D01*
X177916659Y-98919536D01*
X177938399Y-98966156D01*
X177937790Y-98984279D01*
X177935306Y-99000233D01*
X177926967Y-99053793D01*
X177927661Y-99059100D01*
X177927661Y-99059103D01*
X177928053Y-99062099D01*
X177945645Y-99196630D01*
X177977402Y-99268803D01*
X177998253Y-99316190D01*
X178003662Y-99328484D01*
X178007107Y-99332582D01*
X178007108Y-99332584D01*
X178012741Y-99339285D01*
X178096354Y-99438755D01*
X178216270Y-99518577D01*
X178353769Y-99561535D01*
X178427871Y-99562893D01*
X178492436Y-99564077D01*
X178492438Y-99564077D01*
X178497798Y-99564175D01*
X178502969Y-99562765D01*
X178502971Y-99562765D01*
X178578695Y-99542120D01*
X178636779Y-99526285D01*
X178723414Y-99473091D01*
X178754970Y-99453716D01*
X178754973Y-99453714D01*
X178759539Y-99450910D01*
X178781954Y-99426147D01*
X178852612Y-99348085D01*
X178856210Y-99344110D01*
X178861795Y-99332584D01*
X178916682Y-99219296D01*
X178916682Y-99219295D01*
X178919020Y-99214470D01*
X178942919Y-99072413D01*
X178943071Y-99060000D01*
X178942659Y-99057120D01*
X178923409Y-98922704D01*
X178923408Y-98922700D01*
X178922649Y-98917401D01*
X178916783Y-98904498D01*
X178865245Y-98791147D01*
X178863026Y-98786266D01*
X178857987Y-98780418D01*
X178772487Y-98681190D01*
X178772484Y-98681187D01*
X178768993Y-98677136D01*
X178729133Y-98651300D01*
X178652604Y-98601697D01*
X178652603Y-98601697D01*
X178648111Y-98598785D01*
X178571912Y-98575997D01*
X178515232Y-98559045D01*
X178515229Y-98559045D01*
X178510098Y-98557510D01*
X178504743Y-98557477D01*
X178504741Y-98557477D01*
X178439524Y-98557079D01*
X178366047Y-98556630D01*
X178360895Y-98558102D01*
X178355591Y-98558829D01*
X178355255Y-98556379D01*
X178313286Y-98553393D01*
X178290783Y-98537906D01*
X177980172Y-98227294D01*
X177650078Y-97897200D01*
X177640725Y-97885805D01*
X177640724Y-97885804D01*
X177629928Y-97869646D01*
X177612480Y-97857988D01*
X177595035Y-97846332D01*
X177595033Y-97846331D01*
X177541544Y-97810590D01*
X177437287Y-97789851D01*
X177430023Y-97791296D01*
X177418229Y-97793642D01*
X177403558Y-97795087D01*
X160869888Y-97795087D01*
X160855217Y-97793642D01*
X160843428Y-97791297D01*
X160843427Y-97791297D01*
X160836163Y-97789852D01*
X160731906Y-97810590D01*
X160707720Y-97826751D01*
X160643522Y-97869646D01*
X160632726Y-97885804D01*
X160623373Y-97897200D01*
X158450809Y-100069763D01*
X158404189Y-100091503D01*
X158397635Y-100091789D01*
X156071375Y-100091789D01*
X156023037Y-100074196D01*
X155997317Y-100029647D01*
X156006250Y-99978989D01*
X156037469Y-99949466D01*
X156111435Y-99912103D01*
X156117611Y-99908184D01*
X156266720Y-99791687D01*
X156272023Y-99786637D01*
X156395664Y-99643397D01*
X156399886Y-99637412D01*
X156493354Y-99472880D01*
X156496328Y-99466200D01*
X156556059Y-99286641D01*
X156557680Y-99279508D01*
X156564495Y-99225556D01*
X156562100Y-99215014D01*
X156558656Y-99212400D01*
X154595086Y-99212400D01*
X154584929Y-99216097D01*
X154582492Y-99220318D01*
X154583990Y-99238160D01*
X154585312Y-99245364D01*
X154637470Y-99427261D01*
X154640164Y-99434063D01*
X154726657Y-99602363D01*
X154730623Y-99608518D01*
X154848164Y-99756817D01*
X154853240Y-99762074D01*
X154997355Y-99884725D01*
X155003353Y-99888894D01*
X155114381Y-99950945D01*
X155147993Y-99989885D01*
X155148711Y-100041320D01*
X155116200Y-100081183D01*
X155077694Y-100091789D01*
X154309740Y-100091789D01*
X154295069Y-100090344D01*
X154283275Y-100087998D01*
X154276011Y-100086553D01*
X154268747Y-100087998D01*
X154179017Y-100105847D01*
X154179015Y-100105848D01*
X154171755Y-100107292D01*
X154083370Y-100166348D01*
X154079257Y-100172504D01*
X154072576Y-100182503D01*
X154063223Y-100193899D01*
X153569401Y-100687721D01*
X153522781Y-100709461D01*
X153480463Y-100700698D01*
X153425520Y-100670990D01*
X153237637Y-100612830D01*
X153114766Y-100599916D01*
X153045690Y-100592656D01*
X153045689Y-100592656D01*
X153042035Y-100592272D01*
X152944100Y-100601185D01*
X152849824Y-100609764D01*
X152849823Y-100609764D01*
X152846166Y-100610097D01*
X152842641Y-100611134D01*
X152842638Y-100611135D01*
X152661019Y-100664589D01*
X152657489Y-100665628D01*
X152483192Y-100756748D01*
X152437505Y-100793481D01*
X152332783Y-100877680D01*
X152329912Y-100879988D01*
X152203489Y-101030653D01*
X152201718Y-101033875D01*
X152201717Y-101033876D01*
X152138764Y-101148389D01*
X152108739Y-101203004D01*
X152064280Y-101343156D01*
X152032894Y-101383912D01*
X151982654Y-101394957D01*
X151937068Y-101371125D01*
X151917400Y-101320418D01*
X151917400Y-99336176D01*
X151934993Y-99287838D01*
X151979542Y-99262118D01*
X152030200Y-99271051D01*
X152064887Y-99315448D01*
X152074246Y-99348085D01*
X152098015Y-99430979D01*
X152187916Y-99605908D01*
X152310083Y-99760044D01*
X152312877Y-99762422D01*
X152312878Y-99762423D01*
X152347263Y-99791687D01*
X152459862Y-99887516D01*
X152463063Y-99889305D01*
X152463066Y-99889307D01*
X152501656Y-99910874D01*
X152631547Y-99983467D01*
X152635044Y-99984603D01*
X152635048Y-99984605D01*
X152727615Y-100014681D01*
X152818600Y-100044244D01*
X152925984Y-100057049D01*
X153010237Y-100067096D01*
X153010239Y-100067096D01*
X153013895Y-100067532D01*
X153209994Y-100052443D01*
X153324061Y-100020595D01*
X153395883Y-100000542D01*
X153395885Y-100000541D01*
X153399428Y-99999552D01*
X153503194Y-99947136D01*
X153571697Y-99912533D01*
X153571698Y-99912532D01*
X153574981Y-99910874D01*
X153729966Y-99789786D01*
X153858480Y-99640901D01*
X153955628Y-99469890D01*
X153986669Y-99376578D01*
X154016548Y-99286760D01*
X154016549Y-99286757D01*
X154017710Y-99283266D01*
X154042360Y-99088138D01*
X154042620Y-99069500D01*
X154042724Y-99062099D01*
X154042724Y-99062093D01*
X154042753Y-99060000D01*
X154042471Y-99057120D01*
X154026519Y-98894421D01*
X154584843Y-98894421D01*
X154587386Y-98904930D01*
X154591007Y-98907600D01*
X155409341Y-98907600D01*
X155419498Y-98903903D01*
X155422600Y-98898531D01*
X155422600Y-98894341D01*
X155727400Y-98894341D01*
X155731097Y-98904498D01*
X155736469Y-98907600D01*
X156554048Y-98907600D01*
X156564205Y-98903903D01*
X156566547Y-98899847D01*
X156563427Y-98868024D01*
X156562001Y-98860828D01*
X156507312Y-98679688D01*
X156504524Y-98672922D01*
X156415684Y-98505839D01*
X156411639Y-98499751D01*
X156292041Y-98353109D01*
X156286878Y-98347910D01*
X156141078Y-98227294D01*
X156135016Y-98223205D01*
X155968557Y-98133201D01*
X155961813Y-98130366D01*
X155781047Y-98074410D01*
X155773880Y-98072939D01*
X155740587Y-98069440D01*
X155730100Y-98072055D01*
X155727400Y-98075771D01*
X155727400Y-98894341D01*
X155422600Y-98894341D01*
X155422600Y-98080543D01*
X155418903Y-98070386D01*
X155414766Y-98067997D01*
X155389918Y-98070258D01*
X155382732Y-98071629D01*
X155201208Y-98125055D01*
X155194421Y-98127797D01*
X155026721Y-98215468D01*
X155020603Y-98219472D01*
X154873128Y-98338044D01*
X154867903Y-98343161D01*
X154746266Y-98488122D01*
X154742132Y-98494160D01*
X154650975Y-98659975D01*
X154648088Y-98666711D01*
X154590874Y-98847074D01*
X154589351Y-98854239D01*
X154584843Y-98894421D01*
X154026519Y-98894421D01*
X154023921Y-98867927D01*
X154023920Y-98867922D01*
X154023561Y-98864260D01*
X153966714Y-98675975D01*
X153933890Y-98614241D01*
X153926731Y-98563303D01*
X153947114Y-98525764D01*
X156563652Y-95909226D01*
X156610272Y-95887486D01*
X156616826Y-95887200D01*
X157327139Y-95887200D01*
X157375477Y-95904793D01*
X157401197Y-95949342D01*
X157392264Y-96000000D01*
X157352859Y-96033065D01*
X157347803Y-96034705D01*
X157277689Y-96054743D01*
X157277688Y-96054743D01*
X157272539Y-96056215D01*
X157268013Y-96059071D01*
X157268010Y-96059072D01*
X157155237Y-96130227D01*
X157150709Y-96133084D01*
X157143550Y-96141190D01*
X157058897Y-96237041D01*
X157058895Y-96237044D01*
X157055351Y-96241057D01*
X156994129Y-96371454D01*
X156971967Y-96513793D01*
X156972661Y-96519100D01*
X156972661Y-96519103D01*
X156973159Y-96522909D01*
X156990645Y-96656630D01*
X157048662Y-96788484D01*
X157052107Y-96792582D01*
X157052108Y-96792584D01*
X157070120Y-96814012D01*
X157141354Y-96898755D01*
X157261270Y-96978577D01*
X157398769Y-97021535D01*
X157472871Y-97022893D01*
X157537436Y-97024077D01*
X157537438Y-97024077D01*
X157542798Y-97024175D01*
X157547969Y-97022765D01*
X157547971Y-97022765D01*
X157646089Y-96996015D01*
X157681779Y-96986285D01*
X157734871Y-96953686D01*
X157799970Y-96913716D01*
X157799973Y-96913714D01*
X157804539Y-96910910D01*
X157894128Y-96811934D01*
X157939608Y-96787905D01*
X157949879Y-96787200D01*
X171617556Y-96787200D01*
X171665894Y-96804793D01*
X171675120Y-96814012D01*
X171746354Y-96898755D01*
X171866270Y-96978577D01*
X172003769Y-97021535D01*
X172077871Y-97022893D01*
X172142436Y-97024077D01*
X172142438Y-97024077D01*
X172147798Y-97024175D01*
X172152969Y-97022765D01*
X172152971Y-97022765D01*
X172251089Y-96996015D01*
X172286779Y-96986285D01*
X172339871Y-96953686D01*
X172404970Y-96913716D01*
X172404973Y-96913714D01*
X172409539Y-96910910D01*
X172451242Y-96864838D01*
X172502612Y-96808085D01*
X172506210Y-96804110D01*
X172511795Y-96792584D01*
X172566682Y-96679296D01*
X172566682Y-96679295D01*
X172569020Y-96674470D01*
X172592919Y-96532413D01*
X172593071Y-96520000D01*
X172592659Y-96517120D01*
X172573409Y-96382704D01*
X172573408Y-96382700D01*
X172572649Y-96377401D01*
X172513026Y-96246266D01*
X172508538Y-96241057D01*
X172422487Y-96141190D01*
X172422484Y-96141187D01*
X172418993Y-96137136D01*
X172414502Y-96134225D01*
X172302604Y-96061697D01*
X172302603Y-96061697D01*
X172298111Y-96058785D01*
X172216731Y-96034447D01*
X172175461Y-96003741D01*
X172163584Y-95953691D01*
X172186657Y-95907716D01*
X172238278Y-95887200D01*
X174856271Y-95887200D01*
X174870942Y-95888645D01*
X174890000Y-95892436D01*
X174897264Y-95890991D01*
X174986993Y-95873142D01*
X174994257Y-95871697D01*
X175060329Y-95827549D01*
X175082641Y-95812641D01*
X175093438Y-95796482D01*
X175102791Y-95785087D01*
X175540314Y-95347564D01*
X175995152Y-94892725D01*
X176041772Y-94870985D01*
X176085012Y-94880255D01*
X176123331Y-94901670D01*
X176123334Y-94901671D01*
X176126547Y-94903467D01*
X176130044Y-94904603D01*
X176130048Y-94904605D01*
X176220755Y-94934077D01*
X176313600Y-94964244D01*
X176420984Y-94977049D01*
X176505237Y-94987096D01*
X176505239Y-94987096D01*
X176508895Y-94987532D01*
X176704994Y-94972443D01*
X176820354Y-94940234D01*
X176890883Y-94920542D01*
X176890885Y-94920541D01*
X176894428Y-94919552D01*
X177034727Y-94848682D01*
X177066697Y-94832533D01*
X177066698Y-94832532D01*
X177069981Y-94830874D01*
X177224966Y-94709786D01*
X177353480Y-94560901D01*
X177450628Y-94389890D01*
X177512710Y-94203266D01*
X177537360Y-94008138D01*
X177537753Y-93980000D01*
X177537548Y-93977907D01*
X177536374Y-93965930D01*
X178062345Y-93965930D01*
X178062653Y-93969598D01*
X178062653Y-93969601D01*
X178065889Y-94008138D01*
X178078803Y-94161919D01*
X178133015Y-94350979D01*
X178222916Y-94525908D01*
X178345083Y-94680044D01*
X178347877Y-94682422D01*
X178347878Y-94682423D01*
X178382263Y-94711687D01*
X178494862Y-94807516D01*
X178498063Y-94809305D01*
X178498066Y-94809307D01*
X178536656Y-94830874D01*
X178666547Y-94903467D01*
X178670044Y-94904603D01*
X178670048Y-94904605D01*
X178760755Y-94934077D01*
X178853600Y-94964244D01*
X178960984Y-94977049D01*
X179045237Y-94987096D01*
X179045239Y-94987096D01*
X179048895Y-94987532D01*
X179244994Y-94972443D01*
X179360354Y-94940234D01*
X179430883Y-94920542D01*
X179430885Y-94920541D01*
X179434428Y-94919552D01*
X179574727Y-94848682D01*
X179606697Y-94832533D01*
X179606698Y-94832532D01*
X179609981Y-94830874D01*
X179764966Y-94709786D01*
X179893480Y-94560901D01*
X179990628Y-94389890D01*
X180052710Y-94203266D01*
X180077360Y-94008138D01*
X180077753Y-93980000D01*
X180077548Y-93977907D01*
X180076374Y-93965930D01*
X180602345Y-93965930D01*
X180602653Y-93969598D01*
X180602653Y-93969601D01*
X180605889Y-94008138D01*
X180618803Y-94161919D01*
X180673015Y-94350979D01*
X180762916Y-94525908D01*
X180885083Y-94680044D01*
X180887877Y-94682422D01*
X180887878Y-94682423D01*
X180922263Y-94711687D01*
X181034862Y-94807516D01*
X181038063Y-94809305D01*
X181038066Y-94809307D01*
X181076656Y-94830874D01*
X181206547Y-94903467D01*
X181210044Y-94904603D01*
X181210048Y-94904605D01*
X181300755Y-94934077D01*
X181393600Y-94964244D01*
X181500984Y-94977049D01*
X181585237Y-94987096D01*
X181585239Y-94987096D01*
X181588895Y-94987532D01*
X181784994Y-94972443D01*
X181900354Y-94940234D01*
X181970891Y-94920540D01*
X181970895Y-94920538D01*
X181974428Y-94919552D01*
X181977707Y-94917896D01*
X181977714Y-94917893D01*
X182056889Y-94877899D01*
X182107967Y-94871808D01*
X182143969Y-94891847D01*
X187112212Y-99860090D01*
X187121564Y-99871485D01*
X187132359Y-99887641D01*
X187154671Y-99902549D01*
X187220744Y-99946697D01*
X187228004Y-99948141D01*
X187228006Y-99948142D01*
X187317736Y-99965991D01*
X187325000Y-99967436D01*
X187332264Y-99965991D01*
X187344058Y-99963645D01*
X187358729Y-99962200D01*
X191937556Y-99962200D01*
X191985894Y-99979793D01*
X191995120Y-99989012D01*
X192038663Y-100040813D01*
X192066354Y-100073755D01*
X192186270Y-100153577D01*
X192323769Y-100196535D01*
X192397871Y-100197893D01*
X192462436Y-100199077D01*
X192462438Y-100199077D01*
X192467798Y-100199175D01*
X192472969Y-100197765D01*
X192472971Y-100197765D01*
X192550574Y-100176608D01*
X192606779Y-100161285D01*
X192688015Y-100111406D01*
X192724970Y-100088716D01*
X192724973Y-100088714D01*
X192729539Y-100085910D01*
X192751954Y-100061147D01*
X192822612Y-99983085D01*
X192826210Y-99979110D01*
X192840573Y-99949466D01*
X192886682Y-99854296D01*
X192886682Y-99854295D01*
X192889020Y-99849470D01*
X192912919Y-99707413D01*
X192913071Y-99695000D01*
X192912659Y-99692120D01*
X192893409Y-99557704D01*
X192893408Y-99557700D01*
X192892649Y-99552401D01*
X192881416Y-99527694D01*
X192835752Y-99427261D01*
X192833026Y-99421266D01*
X192823497Y-99410207D01*
X192742487Y-99316190D01*
X192742484Y-99316187D01*
X192738993Y-99312136D01*
X192734502Y-99309225D01*
X192622604Y-99236697D01*
X192622603Y-99236697D01*
X192618111Y-99233785D01*
X192535852Y-99209184D01*
X192485232Y-99194045D01*
X192485229Y-99194045D01*
X192480098Y-99192510D01*
X192474743Y-99192477D01*
X192474741Y-99192477D01*
X192409524Y-99192079D01*
X192336047Y-99191630D01*
X192330897Y-99193102D01*
X192330896Y-99193102D01*
X192272820Y-99209700D01*
X192197539Y-99231215D01*
X192193013Y-99234071D01*
X192193010Y-99234072D01*
X192111502Y-99285500D01*
X192075709Y-99308084D01*
X192050899Y-99336176D01*
X191992430Y-99402380D01*
X191947245Y-99426964D01*
X191936065Y-99427800D01*
X187466826Y-99427800D01*
X187418488Y-99410207D01*
X187413652Y-99405774D01*
X182523004Y-94515126D01*
X182501264Y-94468506D01*
X182510792Y-94424808D01*
X182528810Y-94393091D01*
X182528811Y-94393088D01*
X182530628Y-94389890D01*
X182592710Y-94203266D01*
X182617360Y-94008138D01*
X182617753Y-93980000D01*
X182617548Y-93977907D01*
X182616374Y-93965930D01*
X183142345Y-93965930D01*
X183142653Y-93969598D01*
X183142653Y-93969601D01*
X183145889Y-94008138D01*
X183158803Y-94161919D01*
X183213015Y-94350979D01*
X183302916Y-94525908D01*
X183425083Y-94680044D01*
X183427877Y-94682422D01*
X183427878Y-94682423D01*
X183462263Y-94711687D01*
X183574862Y-94807516D01*
X183578063Y-94809305D01*
X183578066Y-94809307D01*
X183616656Y-94830874D01*
X183746547Y-94903467D01*
X183750044Y-94904603D01*
X183750048Y-94904605D01*
X183840755Y-94934077D01*
X183933600Y-94964244D01*
X184040984Y-94977049D01*
X184125237Y-94987096D01*
X184125239Y-94987096D01*
X184128895Y-94987532D01*
X184324994Y-94972443D01*
X184440354Y-94940234D01*
X184510891Y-94920540D01*
X184510895Y-94920538D01*
X184514428Y-94919552D01*
X184517707Y-94917896D01*
X184517714Y-94917893D01*
X184596889Y-94877899D01*
X184647967Y-94871808D01*
X184683969Y-94891847D01*
X187765511Y-97973389D01*
X187774863Y-97984784D01*
X187785658Y-98000940D01*
X187791815Y-98005054D01*
X187835890Y-98034503D01*
X187835891Y-98034504D01*
X187867883Y-98055881D01*
X187867884Y-98055882D01*
X187874042Y-98059996D01*
X187881306Y-98061441D01*
X187971034Y-98079289D01*
X187978299Y-98080734D01*
X187985563Y-98079289D01*
X187985564Y-98079289D01*
X187997353Y-98076944D01*
X188012024Y-98075499D01*
X192559191Y-98075499D01*
X192607529Y-98093092D01*
X192612365Y-98097525D01*
X193351785Y-98836944D01*
X193373525Y-98883564D01*
X193373811Y-98890118D01*
X193373811Y-100082137D01*
X193356218Y-100130475D01*
X193351785Y-100135311D01*
X192873083Y-100614013D01*
X192826463Y-100635753D01*
X192776776Y-100622439D01*
X192762941Y-100609927D01*
X192742491Y-100586194D01*
X192742485Y-100586189D01*
X192738993Y-100582136D01*
X192734502Y-100579225D01*
X192622604Y-100506697D01*
X192622603Y-100506697D01*
X192618111Y-100503785D01*
X192535852Y-100479184D01*
X192485232Y-100464045D01*
X192485229Y-100464045D01*
X192480098Y-100462510D01*
X192474743Y-100462477D01*
X192474741Y-100462477D01*
X192409524Y-100462079D01*
X192336047Y-100461630D01*
X192330897Y-100463102D01*
X192330896Y-100463102D01*
X192266793Y-100481423D01*
X192197539Y-100501215D01*
X192193013Y-100504071D01*
X192193010Y-100504072D01*
X192080237Y-100575227D01*
X192075709Y-100578084D01*
X192068547Y-100586194D01*
X191983897Y-100682041D01*
X191983895Y-100682044D01*
X191980351Y-100686057D01*
X191919129Y-100816454D01*
X191918305Y-100821744D01*
X191918305Y-100821745D01*
X191916589Y-100832765D01*
X191896967Y-100958793D01*
X191915645Y-101101630D01*
X191946850Y-101172549D01*
X191972619Y-101231114D01*
X191975984Y-101282443D01*
X191945567Y-101323927D01*
X191903788Y-101336600D01*
X187161400Y-101336600D01*
X187113062Y-101319007D01*
X187104431Y-101310488D01*
X187027487Y-101221191D01*
X187027486Y-101221190D01*
X187023993Y-101217136D01*
X187019502Y-101214225D01*
X186907604Y-101141697D01*
X186907603Y-101141697D01*
X186903111Y-101138785D01*
X186826912Y-101115997D01*
X186770232Y-101099045D01*
X186770229Y-101099045D01*
X186765098Y-101097510D01*
X186759743Y-101097477D01*
X186759741Y-101097477D01*
X186694524Y-101097079D01*
X186621047Y-101096630D01*
X186615897Y-101098102D01*
X186615896Y-101098102D01*
X186603552Y-101101630D01*
X186482539Y-101136215D01*
X186478013Y-101139071D01*
X186478010Y-101139072D01*
X186381799Y-101199777D01*
X186360709Y-101213084D01*
X186355048Y-101219494D01*
X186268897Y-101317041D01*
X186268895Y-101317044D01*
X186265351Y-101321057D01*
X186254027Y-101345176D01*
X186206406Y-101446605D01*
X186204129Y-101451454D01*
X186181967Y-101593793D01*
X186182661Y-101599100D01*
X186182661Y-101599103D01*
X186183053Y-101602099D01*
X186200645Y-101736630D01*
X186235823Y-101816579D01*
X186251452Y-101852097D01*
X186258662Y-101868484D01*
X186262107Y-101872582D01*
X186262108Y-101872584D01*
X186266955Y-101878350D01*
X186351354Y-101978755D01*
X186371800Y-101992365D01*
X186452621Y-102046163D01*
X186471270Y-102058577D01*
X186608769Y-102101535D01*
X186682871Y-102102893D01*
X186747436Y-102104077D01*
X186747438Y-102104077D01*
X186752798Y-102104175D01*
X186757969Y-102102765D01*
X186757971Y-102102765D01*
X186835574Y-102081608D01*
X186891779Y-102066285D01*
X186943520Y-102034516D01*
X186982868Y-102023400D01*
X190996416Y-102023400D01*
X191044754Y-102040993D01*
X191070474Y-102085542D01*
X191061541Y-102136200D01*
X191054776Y-102145016D01*
X191054631Y-102145118D01*
X191009383Y-102209740D01*
X190991790Y-102258078D01*
X190991220Y-102261308D01*
X190991220Y-102261310D01*
X190983169Y-102306970D01*
X190983169Y-102306976D01*
X190982600Y-102310200D01*
X190982600Y-107239800D01*
X190983179Y-107253078D01*
X190984321Y-107266136D01*
X191004159Y-107329057D01*
X191029879Y-107373606D01*
X191045118Y-107395369D01*
X191050505Y-107399141D01*
X191050507Y-107399143D01*
X191086245Y-107424166D01*
X191109740Y-107440617D01*
X191158078Y-107458210D01*
X191161308Y-107458780D01*
X191161310Y-107458780D01*
X191206970Y-107466831D01*
X191206976Y-107466831D01*
X191210200Y-107467400D01*
X194869800Y-107467400D01*
X194870571Y-107467366D01*
X194870589Y-107467366D01*
X194880700Y-107466925D01*
X194883078Y-107466821D01*
X194896136Y-107465679D01*
X194900054Y-107464444D01*
X194904080Y-107463643D01*
X194904367Y-107465086D01*
X194950182Y-107467089D01*
X194988105Y-107501843D01*
X194996600Y-107536563D01*
X194996600Y-107691730D01*
X194996314Y-107698284D01*
X194992630Y-107740391D01*
X194994333Y-107746747D01*
X195003573Y-107781235D01*
X195004992Y-107787637D01*
X195012332Y-107829261D01*
X195015622Y-107834960D01*
X195016787Y-107838160D01*
X195020835Y-107847935D01*
X195022271Y-107851015D01*
X195023973Y-107857366D01*
X195027746Y-107862754D01*
X195027747Y-107862757D01*
X195048222Y-107892000D01*
X195051745Y-107897529D01*
X195069593Y-107928441D01*
X195069595Y-107928444D01*
X195072883Y-107934138D01*
X195077919Y-107938364D01*
X195077921Y-107938366D01*
X195105264Y-107961309D01*
X195110100Y-107965741D01*
X195901914Y-108757555D01*
X195923654Y-108804175D01*
X195920420Y-108833467D01*
X195864269Y-109010476D01*
X195842345Y-109205930D01*
X195842653Y-109209598D01*
X195842653Y-109209601D01*
X195845889Y-109248138D01*
X195858803Y-109401919D01*
X195913015Y-109590979D01*
X196002916Y-109765908D01*
X196125083Y-109920044D01*
X196127877Y-109922422D01*
X196127878Y-109922423D01*
X196162263Y-109951687D01*
X196274862Y-110047516D01*
X196278063Y-110049305D01*
X196278066Y-110049307D01*
X196316656Y-110070874D01*
X196446547Y-110143467D01*
X196450044Y-110144603D01*
X196450048Y-110144605D01*
X196540755Y-110174077D01*
X196633600Y-110204244D01*
X196740984Y-110217049D01*
X196825237Y-110227096D01*
X196825239Y-110227096D01*
X196828895Y-110227532D01*
X197024994Y-110212443D01*
X197140354Y-110180234D01*
X197210883Y-110160542D01*
X197210885Y-110160541D01*
X197214428Y-110159552D01*
X197354727Y-110088682D01*
X197386697Y-110072533D01*
X197386698Y-110072532D01*
X197389981Y-110070874D01*
X197544966Y-109949786D01*
X197673480Y-109800901D01*
X197770628Y-109629890D01*
X197832710Y-109443266D01*
X197840662Y-109380318D01*
X198397492Y-109380318D01*
X198398990Y-109398160D01*
X198400312Y-109405364D01*
X198452470Y-109587261D01*
X198455164Y-109594063D01*
X198541657Y-109762363D01*
X198545623Y-109768518D01*
X198663164Y-109916817D01*
X198668240Y-109922074D01*
X198812355Y-110044725D01*
X198818353Y-110048894D01*
X198983537Y-110141211D01*
X198990250Y-110144144D01*
X199170210Y-110202616D01*
X199177358Y-110204188D01*
X199224434Y-110209802D01*
X199234957Y-110207334D01*
X199237600Y-110203801D01*
X199237600Y-110200421D01*
X199542400Y-110200421D01*
X199546097Y-110210578D01*
X199550403Y-110213064D01*
X199561238Y-110212230D01*
X199568449Y-110210959D01*
X199750701Y-110160073D01*
X199757534Y-110157422D01*
X199926428Y-110072108D01*
X199932611Y-110068184D01*
X200081720Y-109951687D01*
X200087023Y-109946637D01*
X200210664Y-109803397D01*
X200214886Y-109797412D01*
X200308354Y-109632880D01*
X200311328Y-109626200D01*
X200371059Y-109446641D01*
X200372680Y-109439508D01*
X200379495Y-109385556D01*
X200377100Y-109375014D01*
X200373656Y-109372400D01*
X199555659Y-109372400D01*
X199545502Y-109376097D01*
X199542400Y-109381469D01*
X199542400Y-110200421D01*
X199237600Y-110200421D01*
X199237600Y-109385659D01*
X199233903Y-109375502D01*
X199228531Y-109372400D01*
X198410086Y-109372400D01*
X198399929Y-109376097D01*
X198397492Y-109380318D01*
X197840662Y-109380318D01*
X197857360Y-109248138D01*
X197857753Y-109220000D01*
X197857548Y-109217907D01*
X197856374Y-109205930D01*
X200922345Y-109205930D01*
X200922653Y-109209598D01*
X200922653Y-109209601D01*
X200925889Y-109248138D01*
X200938803Y-109401919D01*
X200993015Y-109590979D01*
X201082916Y-109765908D01*
X201205083Y-109920044D01*
X201207877Y-109922422D01*
X201207878Y-109922423D01*
X201242263Y-109951687D01*
X201354862Y-110047516D01*
X201358063Y-110049305D01*
X201358066Y-110049307D01*
X201396656Y-110070874D01*
X201526547Y-110143467D01*
X201530044Y-110144603D01*
X201530048Y-110144605D01*
X201620755Y-110174077D01*
X201713600Y-110204244D01*
X201820984Y-110217049D01*
X201905237Y-110227096D01*
X201905239Y-110227096D01*
X201908895Y-110227532D01*
X202104994Y-110212443D01*
X202220354Y-110180234D01*
X202290883Y-110160542D01*
X202290885Y-110160541D01*
X202294428Y-110159552D01*
X202434727Y-110088682D01*
X202466697Y-110072533D01*
X202466698Y-110072532D01*
X202469981Y-110070874D01*
X202624966Y-109949786D01*
X202753480Y-109800901D01*
X202850628Y-109629890D01*
X202912710Y-109443266D01*
X202937360Y-109248138D01*
X202937753Y-109220000D01*
X202937548Y-109217907D01*
X202918921Y-109027927D01*
X202918920Y-109027922D01*
X202918561Y-109024260D01*
X202861714Y-108835975D01*
X202769379Y-108662318D01*
X202645072Y-108509903D01*
X202493528Y-108384535D01*
X202320520Y-108290990D01*
X202132637Y-108232830D01*
X201989832Y-108217821D01*
X201940690Y-108212656D01*
X201940689Y-108212656D01*
X201937035Y-108212272D01*
X201839101Y-108221184D01*
X201744824Y-108229764D01*
X201744823Y-108229764D01*
X201741166Y-108230097D01*
X201737641Y-108231134D01*
X201737638Y-108231135D01*
X201556019Y-108284589D01*
X201552489Y-108285628D01*
X201378192Y-108376748D01*
X201224912Y-108499988D01*
X201098489Y-108650653D01*
X201003739Y-108823004D01*
X200944269Y-109010476D01*
X200922345Y-109205930D01*
X197856374Y-109205930D01*
X197841519Y-109054421D01*
X198399843Y-109054421D01*
X198402386Y-109064930D01*
X198406007Y-109067600D01*
X199224341Y-109067600D01*
X199234498Y-109063903D01*
X199237600Y-109058531D01*
X199237600Y-109054341D01*
X199542400Y-109054341D01*
X199546097Y-109064498D01*
X199551469Y-109067600D01*
X200369048Y-109067600D01*
X200379205Y-109063903D01*
X200381547Y-109059847D01*
X200378427Y-109028024D01*
X200377001Y-109020828D01*
X200322312Y-108839688D01*
X200319524Y-108832922D01*
X200230684Y-108665839D01*
X200226639Y-108659751D01*
X200107041Y-108513109D01*
X200101878Y-108507910D01*
X199956078Y-108387294D01*
X199950016Y-108383205D01*
X199783557Y-108293201D01*
X199776813Y-108290366D01*
X199596047Y-108234410D01*
X199588880Y-108232939D01*
X199555587Y-108229440D01*
X199545100Y-108232055D01*
X199542400Y-108235771D01*
X199542400Y-109054341D01*
X199237600Y-109054341D01*
X199237600Y-108240543D01*
X199233903Y-108230386D01*
X199229766Y-108227997D01*
X199204918Y-108230258D01*
X199197732Y-108231629D01*
X199016208Y-108285055D01*
X199009421Y-108287797D01*
X198841721Y-108375468D01*
X198835603Y-108379472D01*
X198688128Y-108498044D01*
X198682903Y-108503161D01*
X198561266Y-108648122D01*
X198557132Y-108654160D01*
X198465975Y-108819975D01*
X198463088Y-108826711D01*
X198405874Y-109007074D01*
X198404351Y-109014239D01*
X198399843Y-109054421D01*
X197841519Y-109054421D01*
X197838921Y-109027927D01*
X197838920Y-109027922D01*
X197838561Y-109024260D01*
X197781714Y-108835975D01*
X197689379Y-108662318D01*
X197565072Y-108509903D01*
X197413528Y-108384535D01*
X197240520Y-108290990D01*
X197052637Y-108232830D01*
X196909832Y-108217821D01*
X196860690Y-108212656D01*
X196860689Y-108212656D01*
X196857035Y-108212272D01*
X196759101Y-108221184D01*
X196664824Y-108229764D01*
X196664823Y-108229764D01*
X196661166Y-108230097D01*
X196657641Y-108231134D01*
X196657638Y-108231135D01*
X196476022Y-108284588D01*
X196476020Y-108284589D01*
X196472489Y-108285628D01*
X196469224Y-108287335D01*
X196468189Y-108287753D01*
X196416781Y-108289549D01*
X196386844Y-108271203D01*
X195705426Y-107589785D01*
X195683686Y-107543165D01*
X195683400Y-107536611D01*
X195683400Y-106353881D01*
X195700993Y-106305543D01*
X195745542Y-106279823D01*
X195796200Y-106288756D01*
X195822094Y-106313587D01*
X195835789Y-106335167D01*
X195841773Y-106342401D01*
X195955029Y-106448755D01*
X195962630Y-106454278D01*
X196098781Y-106529128D01*
X196107510Y-106532584D01*
X196257997Y-106571222D01*
X196267317Y-106572400D01*
X196729341Y-106572400D01*
X196739498Y-106568703D01*
X196742600Y-106563331D01*
X196742600Y-106559141D01*
X197047400Y-106559141D01*
X197051097Y-106569298D01*
X197056469Y-106572400D01*
X197483674Y-106572400D01*
X197488395Y-106572103D01*
X197603843Y-106557519D01*
X197612933Y-106555185D01*
X197757395Y-106497988D01*
X197765622Y-106493465D01*
X197891316Y-106402143D01*
X197898166Y-106395710D01*
X197997205Y-106275993D01*
X198002229Y-106268076D01*
X198068387Y-106127484D01*
X198071286Y-106118560D01*
X198077607Y-106085425D01*
X198076248Y-106077029D01*
X200141107Y-106077029D01*
X200141398Y-106081184D01*
X200178535Y-106195482D01*
X200182537Y-106203985D01*
X200265785Y-106335162D01*
X200271773Y-106342401D01*
X200385029Y-106448755D01*
X200392630Y-106454278D01*
X200528781Y-106529128D01*
X200537510Y-106532584D01*
X200687997Y-106571222D01*
X200697317Y-106572400D01*
X200909341Y-106572400D01*
X200919498Y-106568703D01*
X200922600Y-106563331D01*
X200922600Y-106559141D01*
X201227400Y-106559141D01*
X201231097Y-106569298D01*
X201236469Y-106572400D01*
X201413674Y-106572400D01*
X201418395Y-106572103D01*
X201533843Y-106557519D01*
X201542933Y-106555185D01*
X201687395Y-106497988D01*
X201695622Y-106493465D01*
X201821316Y-106402143D01*
X201828166Y-106395710D01*
X201927205Y-106275993D01*
X201932229Y-106268076D01*
X201998387Y-106127484D01*
X202001286Y-106118560D01*
X202007607Y-106085425D01*
X202005879Y-106074753D01*
X202003153Y-106072400D01*
X201240659Y-106072400D01*
X201230502Y-106076097D01*
X201227400Y-106081469D01*
X201227400Y-106559141D01*
X200922600Y-106559141D01*
X200922600Y-106085659D01*
X200918903Y-106075502D01*
X200913531Y-106072400D01*
X200151803Y-106072400D01*
X200141646Y-106076097D01*
X200141107Y-106077029D01*
X198076248Y-106077029D01*
X198075879Y-106074753D01*
X198073153Y-106072400D01*
X197060659Y-106072400D01*
X197050502Y-106076097D01*
X197047400Y-106081469D01*
X197047400Y-106559141D01*
X196742600Y-106559141D01*
X196742600Y-105754341D01*
X197047400Y-105754341D01*
X197051097Y-105764498D01*
X197056469Y-105767600D01*
X198068197Y-105767600D01*
X198078354Y-105763903D01*
X198078893Y-105762971D01*
X198078602Y-105758816D01*
X198077224Y-105754575D01*
X200142393Y-105754575D01*
X200144121Y-105765247D01*
X200146847Y-105767600D01*
X200909341Y-105767600D01*
X200919498Y-105763903D01*
X200922600Y-105758531D01*
X200922600Y-105754341D01*
X201227400Y-105754341D01*
X201231097Y-105764498D01*
X201236469Y-105767600D01*
X201998197Y-105767600D01*
X202008354Y-105763903D01*
X202008893Y-105762971D01*
X202008602Y-105758816D01*
X201971465Y-105644518D01*
X201967463Y-105636015D01*
X201884215Y-105504838D01*
X201878227Y-105497599D01*
X201764971Y-105391245D01*
X201757370Y-105385722D01*
X201621219Y-105310872D01*
X201612490Y-105307416D01*
X201462003Y-105268778D01*
X201452683Y-105267600D01*
X201240659Y-105267600D01*
X201230502Y-105271297D01*
X201227400Y-105276669D01*
X201227400Y-105754341D01*
X200922600Y-105754341D01*
X200922600Y-105280859D01*
X200918903Y-105270702D01*
X200913531Y-105267600D01*
X200736326Y-105267600D01*
X200731605Y-105267897D01*
X200616157Y-105282481D01*
X200607067Y-105284815D01*
X200462605Y-105342012D01*
X200454378Y-105346535D01*
X200328684Y-105437857D01*
X200321834Y-105444290D01*
X200222795Y-105564007D01*
X200217771Y-105571924D01*
X200151613Y-105712516D01*
X200148714Y-105721440D01*
X200142393Y-105754575D01*
X198077224Y-105754575D01*
X198041465Y-105644518D01*
X198037463Y-105636015D01*
X197954215Y-105504838D01*
X197948227Y-105497599D01*
X197834971Y-105391245D01*
X197827370Y-105385722D01*
X197691219Y-105310872D01*
X197682490Y-105307416D01*
X197532003Y-105268778D01*
X197522683Y-105267600D01*
X197060659Y-105267600D01*
X197050502Y-105271297D01*
X197047400Y-105276669D01*
X197047400Y-105754341D01*
X196742600Y-105754341D01*
X196742600Y-105280859D01*
X196738903Y-105270702D01*
X196733531Y-105267600D01*
X196306326Y-105267600D01*
X196301605Y-105267897D01*
X196186157Y-105282481D01*
X196177067Y-105284815D01*
X196032605Y-105342012D01*
X196024378Y-105346535D01*
X195898684Y-105437857D01*
X195891834Y-105444290D01*
X195816543Y-105535301D01*
X195772175Y-105561332D01*
X195721456Y-105552753D01*
X195688116Y-105513580D01*
X195683400Y-105487367D01*
X195683400Y-104490000D01*
X196844534Y-104490000D01*
X196845177Y-104494884D01*
X196860029Y-104607694D01*
X196864313Y-104640236D01*
X196922302Y-104780233D01*
X197014549Y-104900451D01*
X197134767Y-104992698D01*
X197274764Y-105050687D01*
X197279642Y-105051329D01*
X197279645Y-105051330D01*
X197384847Y-105065180D01*
X197384852Y-105065180D01*
X197387280Y-105065500D01*
X197462720Y-105065500D01*
X197465148Y-105065180D01*
X197465153Y-105065180D01*
X197570355Y-105051330D01*
X197570358Y-105051329D01*
X197575236Y-105050687D01*
X197715233Y-104992698D01*
X197835451Y-104900451D01*
X197927698Y-104780233D01*
X197985687Y-104640236D01*
X197989972Y-104607694D01*
X198004823Y-104494884D01*
X198005466Y-104490000D01*
X197997315Y-104428085D01*
X197986330Y-104344645D01*
X197986329Y-104344642D01*
X197985687Y-104339764D01*
X197927698Y-104199767D01*
X197835451Y-104079549D01*
X197715233Y-103987302D01*
X197575236Y-103929313D01*
X197570358Y-103928671D01*
X197570355Y-103928670D01*
X197465153Y-103914820D01*
X197465148Y-103914820D01*
X197462720Y-103914500D01*
X197387280Y-103914500D01*
X197384852Y-103914820D01*
X197384847Y-103914820D01*
X197279645Y-103928670D01*
X197279642Y-103928671D01*
X197274764Y-103929313D01*
X197134767Y-103987302D01*
X197014549Y-104079549D01*
X196922302Y-104199767D01*
X196864313Y-104339764D01*
X196863671Y-104344642D01*
X196863670Y-104344645D01*
X196852685Y-104428085D01*
X196844534Y-104490000D01*
X195683400Y-104490000D01*
X195683400Y-102088270D01*
X195683686Y-102081716D01*
X195686797Y-102046163D01*
X195686797Y-102046161D01*
X195687370Y-102039609D01*
X195676423Y-101998754D01*
X195675013Y-101992394D01*
X195667668Y-101950739D01*
X195664380Y-101945044D01*
X195663220Y-101941857D01*
X195659173Y-101932087D01*
X195657729Y-101928991D01*
X195656026Y-101922634D01*
X195644089Y-101905586D01*
X195631775Y-101888000D01*
X195628262Y-101882486D01*
X195607117Y-101845862D01*
X195574736Y-101818691D01*
X195569899Y-101814259D01*
X195205740Y-101450099D01*
X195201308Y-101445263D01*
X195178367Y-101417923D01*
X195174138Y-101412883D01*
X195168442Y-101409594D01*
X195168438Y-101409591D01*
X195137529Y-101391745D01*
X195132000Y-101388222D01*
X195102757Y-101367747D01*
X195102754Y-101367746D01*
X195097366Y-101363973D01*
X195091015Y-101362271D01*
X195087935Y-101360835D01*
X195078160Y-101356787D01*
X195074960Y-101355622D01*
X195069261Y-101352332D01*
X195040673Y-101347291D01*
X195027637Y-101344992D01*
X195021235Y-101343573D01*
X194986747Y-101334333D01*
X194980391Y-101332630D01*
X194973839Y-101333203D01*
X194973837Y-101333203D01*
X194938284Y-101336314D01*
X194931730Y-101336600D01*
X193072684Y-101336600D01*
X193024346Y-101319007D01*
X192998626Y-101274458D01*
X193007559Y-101223800D01*
X193030903Y-101198876D01*
X193070303Y-101172549D01*
X193092615Y-101157641D01*
X193103410Y-101141485D01*
X193112762Y-101130090D01*
X193806101Y-100436751D01*
X193817497Y-100427398D01*
X193827496Y-100420717D01*
X193833652Y-100416604D01*
X193892708Y-100328219D01*
X193893588Y-100323793D01*
X193913447Y-100223963D01*
X193909656Y-100204905D01*
X193908211Y-100190234D01*
X193908211Y-98782018D01*
X193909656Y-98767347D01*
X193912001Y-98755558D01*
X193912001Y-98755557D01*
X193913446Y-98748293D01*
X193905829Y-98710000D01*
X196844534Y-98710000D01*
X196845177Y-98714884D01*
X196861247Y-98836944D01*
X196864313Y-98860236D01*
X196922302Y-99000233D01*
X197014549Y-99120451D01*
X197134767Y-99212698D01*
X197274764Y-99270687D01*
X197279642Y-99271329D01*
X197279645Y-99271330D01*
X197384847Y-99285180D01*
X197384852Y-99285180D01*
X197387280Y-99285500D01*
X197462720Y-99285500D01*
X197465148Y-99285180D01*
X197465153Y-99285180D01*
X197570355Y-99271330D01*
X197570358Y-99271329D01*
X197575236Y-99270687D01*
X197715233Y-99212698D01*
X197835451Y-99120451D01*
X197927698Y-99000233D01*
X197985687Y-98860236D01*
X197988754Y-98836944D01*
X198004823Y-98714884D01*
X198005466Y-98710000D01*
X198000585Y-98672922D01*
X197986330Y-98564645D01*
X197986329Y-98564642D01*
X197985687Y-98559764D01*
X197927698Y-98419767D01*
X197835451Y-98299549D01*
X197715233Y-98207302D01*
X197575236Y-98149313D01*
X197570358Y-98148671D01*
X197570355Y-98148670D01*
X197465153Y-98134820D01*
X197465148Y-98134820D01*
X197462720Y-98134500D01*
X197387280Y-98134500D01*
X197384852Y-98134820D01*
X197384847Y-98134820D01*
X197279645Y-98148670D01*
X197279642Y-98148671D01*
X197274764Y-98149313D01*
X197134767Y-98207302D01*
X197014549Y-98299549D01*
X196922302Y-98419767D01*
X196864313Y-98559764D01*
X196863671Y-98564642D01*
X196863670Y-98564645D01*
X196849415Y-98672922D01*
X196844534Y-98710000D01*
X193905829Y-98710000D01*
X193899800Y-98679688D01*
X193894153Y-98651300D01*
X193892708Y-98644036D01*
X193872389Y-98613627D01*
X193833652Y-98555652D01*
X193817493Y-98544855D01*
X193806098Y-98535503D01*
X192913803Y-97643207D01*
X192904453Y-97631815D01*
X192893658Y-97615658D01*
X192887498Y-97611542D01*
X192858765Y-97592344D01*
X192858763Y-97592343D01*
X192805274Y-97556602D01*
X192701017Y-97535863D01*
X192693753Y-97537308D01*
X192681959Y-97539654D01*
X192667288Y-97541099D01*
X188120125Y-97541099D01*
X188071787Y-97523506D01*
X188066951Y-97519073D01*
X187984907Y-97437029D01*
X195711107Y-97437029D01*
X195711398Y-97441184D01*
X195748535Y-97555482D01*
X195752537Y-97563985D01*
X195835785Y-97695162D01*
X195841773Y-97702401D01*
X195955029Y-97808755D01*
X195962630Y-97814278D01*
X196098781Y-97889128D01*
X196107510Y-97892584D01*
X196257997Y-97931222D01*
X196267317Y-97932400D01*
X196729341Y-97932400D01*
X196739498Y-97928703D01*
X196742600Y-97923331D01*
X196742600Y-97919141D01*
X197047400Y-97919141D01*
X197051097Y-97929298D01*
X197056469Y-97932400D01*
X197483674Y-97932400D01*
X197488395Y-97932103D01*
X197603843Y-97917519D01*
X197612933Y-97915185D01*
X197757395Y-97857988D01*
X197765622Y-97853465D01*
X197891316Y-97762143D01*
X197898166Y-97755710D01*
X197997205Y-97635993D01*
X198002229Y-97628076D01*
X198068387Y-97487484D01*
X198071286Y-97478560D01*
X198077607Y-97445425D01*
X198076248Y-97437029D01*
X200141107Y-97437029D01*
X200141398Y-97441184D01*
X200178535Y-97555482D01*
X200182537Y-97563985D01*
X200265785Y-97695162D01*
X200271773Y-97702401D01*
X200385029Y-97808755D01*
X200392630Y-97814278D01*
X200528781Y-97889128D01*
X200537510Y-97892584D01*
X200687997Y-97931222D01*
X200697317Y-97932400D01*
X200909341Y-97932400D01*
X200919498Y-97928703D01*
X200922600Y-97923331D01*
X200922600Y-97919141D01*
X201227400Y-97919141D01*
X201231097Y-97929298D01*
X201236469Y-97932400D01*
X201413674Y-97932400D01*
X201418395Y-97932103D01*
X201533843Y-97917519D01*
X201542933Y-97915185D01*
X201687395Y-97857988D01*
X201695622Y-97853465D01*
X201821316Y-97762143D01*
X201828166Y-97755710D01*
X201927205Y-97635993D01*
X201932229Y-97628076D01*
X201998387Y-97487484D01*
X202001286Y-97478560D01*
X202007607Y-97445425D01*
X202005879Y-97434753D01*
X202003153Y-97432400D01*
X201240659Y-97432400D01*
X201230502Y-97436097D01*
X201227400Y-97441469D01*
X201227400Y-97919141D01*
X200922600Y-97919141D01*
X200922600Y-97445659D01*
X200918903Y-97435502D01*
X200913531Y-97432400D01*
X200151803Y-97432400D01*
X200141646Y-97436097D01*
X200141107Y-97437029D01*
X198076248Y-97437029D01*
X198075879Y-97434753D01*
X198073153Y-97432400D01*
X197060659Y-97432400D01*
X197050502Y-97436097D01*
X197047400Y-97441469D01*
X197047400Y-97919141D01*
X196742600Y-97919141D01*
X196742600Y-97445659D01*
X196738903Y-97435502D01*
X196733531Y-97432400D01*
X195721803Y-97432400D01*
X195711646Y-97436097D01*
X195711107Y-97437029D01*
X187984907Y-97437029D01*
X187662453Y-97114575D01*
X195712393Y-97114575D01*
X195714121Y-97125247D01*
X195716847Y-97127600D01*
X196729341Y-97127600D01*
X196739498Y-97123903D01*
X196742600Y-97118531D01*
X196742600Y-97114341D01*
X197047400Y-97114341D01*
X197051097Y-97124498D01*
X197056469Y-97127600D01*
X198068197Y-97127600D01*
X198078354Y-97123903D01*
X198078893Y-97122971D01*
X198078602Y-97118816D01*
X198077224Y-97114575D01*
X200142393Y-97114575D01*
X200144121Y-97125247D01*
X200146847Y-97127600D01*
X200909341Y-97127600D01*
X200919498Y-97123903D01*
X200922600Y-97118531D01*
X200922600Y-97114341D01*
X201227400Y-97114341D01*
X201231097Y-97124498D01*
X201236469Y-97127600D01*
X201998197Y-97127600D01*
X202008354Y-97123903D01*
X202008893Y-97122971D01*
X202008602Y-97118816D01*
X201971465Y-97004518D01*
X201967463Y-96996015D01*
X201884215Y-96864838D01*
X201878227Y-96857599D01*
X201764971Y-96751245D01*
X201757370Y-96745722D01*
X201621219Y-96670872D01*
X201612490Y-96667416D01*
X201462003Y-96628778D01*
X201452683Y-96627600D01*
X201240659Y-96627600D01*
X201230502Y-96631297D01*
X201227400Y-96636669D01*
X201227400Y-97114341D01*
X200922600Y-97114341D01*
X200922600Y-96640859D01*
X200918903Y-96630702D01*
X200913531Y-96627600D01*
X200736326Y-96627600D01*
X200731605Y-96627897D01*
X200616157Y-96642481D01*
X200607067Y-96644815D01*
X200462605Y-96702012D01*
X200454378Y-96706535D01*
X200328684Y-96797857D01*
X200321834Y-96804290D01*
X200222795Y-96924007D01*
X200217771Y-96931924D01*
X200151613Y-97072516D01*
X200148714Y-97081440D01*
X200142393Y-97114575D01*
X198077224Y-97114575D01*
X198041465Y-97004518D01*
X198037463Y-96996015D01*
X197954215Y-96864838D01*
X197948227Y-96857599D01*
X197834971Y-96751245D01*
X197827370Y-96745722D01*
X197691219Y-96670872D01*
X197682490Y-96667416D01*
X197532003Y-96628778D01*
X197522683Y-96627600D01*
X197060659Y-96627600D01*
X197050502Y-96631297D01*
X197047400Y-96636669D01*
X197047400Y-97114341D01*
X196742600Y-97114341D01*
X196742600Y-96640859D01*
X196738903Y-96630702D01*
X196733531Y-96627600D01*
X196306326Y-96627600D01*
X196301605Y-96627897D01*
X196186157Y-96642481D01*
X196177067Y-96644815D01*
X196032605Y-96702012D01*
X196024378Y-96706535D01*
X195898684Y-96797857D01*
X195891834Y-96804290D01*
X195792795Y-96924007D01*
X195787771Y-96931924D01*
X195721613Y-97072516D01*
X195718714Y-97081440D01*
X195712393Y-97114575D01*
X187662453Y-97114575D01*
X185063004Y-94515126D01*
X185041264Y-94468506D01*
X185050792Y-94424808D01*
X185068810Y-94393091D01*
X185068811Y-94393088D01*
X185070628Y-94389890D01*
X185132710Y-94203266D01*
X185157360Y-94008138D01*
X185157753Y-93980000D01*
X185157548Y-93977907D01*
X185156374Y-93965930D01*
X185682345Y-93965930D01*
X185682653Y-93969598D01*
X185682653Y-93969601D01*
X185685889Y-94008138D01*
X185698803Y-94161919D01*
X185753015Y-94350979D01*
X185842916Y-94525908D01*
X185965083Y-94680044D01*
X185967877Y-94682422D01*
X185967878Y-94682423D01*
X186002263Y-94711687D01*
X186114862Y-94807516D01*
X186118063Y-94809305D01*
X186118066Y-94809307D01*
X186156656Y-94830874D01*
X186286547Y-94903467D01*
X186290044Y-94904603D01*
X186290048Y-94904605D01*
X186380755Y-94934077D01*
X186473600Y-94964244D01*
X186580984Y-94977049D01*
X186665237Y-94987096D01*
X186665239Y-94987096D01*
X186668895Y-94987532D01*
X186864994Y-94972443D01*
X186980354Y-94940234D01*
X187050883Y-94920542D01*
X187050885Y-94920541D01*
X187054428Y-94919552D01*
X187194727Y-94848682D01*
X187226697Y-94832533D01*
X187226698Y-94832532D01*
X187229981Y-94830874D01*
X187384966Y-94709786D01*
X187513480Y-94560901D01*
X187610628Y-94389890D01*
X187672710Y-94203266D01*
X187697360Y-94008138D01*
X187697753Y-93980000D01*
X187697548Y-93977907D01*
X187696374Y-93965930D01*
X188222345Y-93965930D01*
X188222653Y-93969598D01*
X188222653Y-93969601D01*
X188225889Y-94008138D01*
X188238803Y-94161919D01*
X188293015Y-94350979D01*
X188382916Y-94525908D01*
X188505083Y-94680044D01*
X188507877Y-94682422D01*
X188507878Y-94682423D01*
X188542263Y-94711687D01*
X188654862Y-94807516D01*
X188658063Y-94809305D01*
X188658066Y-94809307D01*
X188696656Y-94830874D01*
X188826547Y-94903467D01*
X188830044Y-94904603D01*
X188830048Y-94904605D01*
X188920755Y-94934077D01*
X189013600Y-94964244D01*
X189120984Y-94977049D01*
X189205237Y-94987096D01*
X189205239Y-94987096D01*
X189208895Y-94987532D01*
X189404994Y-94972443D01*
X189520354Y-94940234D01*
X189590883Y-94920542D01*
X189590885Y-94920541D01*
X189594428Y-94919552D01*
X189734727Y-94848682D01*
X189766697Y-94832533D01*
X189766698Y-94832532D01*
X189769981Y-94830874D01*
X189924966Y-94709786D01*
X190053480Y-94560901D01*
X190150628Y-94389890D01*
X190212710Y-94203266D01*
X190237360Y-94008138D01*
X190237753Y-93980000D01*
X190237548Y-93977907D01*
X190236374Y-93965930D01*
X190762345Y-93965930D01*
X190762653Y-93969598D01*
X190762653Y-93969601D01*
X190765889Y-94008138D01*
X190778803Y-94161919D01*
X190833015Y-94350979D01*
X190922916Y-94525908D01*
X191045083Y-94680044D01*
X191047877Y-94682422D01*
X191047878Y-94682423D01*
X191082263Y-94711687D01*
X191194862Y-94807516D01*
X191198063Y-94809305D01*
X191198066Y-94809307D01*
X191236656Y-94830874D01*
X191366547Y-94903467D01*
X191370044Y-94904603D01*
X191370048Y-94904605D01*
X191460755Y-94934077D01*
X191553600Y-94964244D01*
X191660984Y-94977049D01*
X191745237Y-94987096D01*
X191745239Y-94987096D01*
X191748895Y-94987532D01*
X191944994Y-94972443D01*
X192060354Y-94940234D01*
X192130883Y-94920542D01*
X192130885Y-94920541D01*
X192134428Y-94919552D01*
X192274727Y-94848682D01*
X192306697Y-94832533D01*
X192306698Y-94832532D01*
X192309981Y-94830874D01*
X192464966Y-94709786D01*
X192593480Y-94560901D01*
X192690628Y-94389890D01*
X192752710Y-94203266D01*
X192777360Y-94008138D01*
X192777753Y-93980000D01*
X192777548Y-93977907D01*
X192776374Y-93965930D01*
X193302345Y-93965930D01*
X193302653Y-93969598D01*
X193302653Y-93969601D01*
X193305889Y-94008138D01*
X193318803Y-94161919D01*
X193373015Y-94350979D01*
X193462916Y-94525908D01*
X193585083Y-94680044D01*
X193587877Y-94682422D01*
X193587878Y-94682423D01*
X193622263Y-94711687D01*
X193734862Y-94807516D01*
X193738063Y-94809305D01*
X193738066Y-94809307D01*
X193776656Y-94830874D01*
X193906547Y-94903467D01*
X193910044Y-94904603D01*
X193910048Y-94904605D01*
X194000755Y-94934077D01*
X194093600Y-94964244D01*
X194200984Y-94977049D01*
X194285237Y-94987096D01*
X194285239Y-94987096D01*
X194288895Y-94987532D01*
X194484994Y-94972443D01*
X194600354Y-94940234D01*
X194670883Y-94920542D01*
X194670885Y-94920541D01*
X194674428Y-94919552D01*
X194814727Y-94848682D01*
X194846697Y-94832533D01*
X194846698Y-94832532D01*
X194849981Y-94830874D01*
X195004966Y-94709786D01*
X195133480Y-94560901D01*
X195230628Y-94389890D01*
X195292710Y-94203266D01*
X195317360Y-94008138D01*
X195317753Y-93980000D01*
X195317548Y-93977907D01*
X195316374Y-93965930D01*
X195842345Y-93965930D01*
X195842653Y-93969598D01*
X195842653Y-93969601D01*
X195845889Y-94008138D01*
X195858803Y-94161919D01*
X195913015Y-94350979D01*
X196002916Y-94525908D01*
X196125083Y-94680044D01*
X196127877Y-94682422D01*
X196127878Y-94682423D01*
X196162263Y-94711687D01*
X196274862Y-94807516D01*
X196278063Y-94809305D01*
X196278066Y-94809307D01*
X196316656Y-94830874D01*
X196446547Y-94903467D01*
X196450044Y-94904603D01*
X196450048Y-94904605D01*
X196540755Y-94934077D01*
X196633600Y-94964244D01*
X196740984Y-94977049D01*
X196825237Y-94987096D01*
X196825239Y-94987096D01*
X196828895Y-94987532D01*
X197024994Y-94972443D01*
X197140354Y-94940234D01*
X197210883Y-94920542D01*
X197210885Y-94920541D01*
X197214428Y-94919552D01*
X197354727Y-94848682D01*
X197386697Y-94832533D01*
X197386698Y-94832532D01*
X197389981Y-94830874D01*
X197544966Y-94709786D01*
X197673480Y-94560901D01*
X197770628Y-94389890D01*
X197832710Y-94203266D01*
X197857360Y-94008138D01*
X197857753Y-93980000D01*
X197857548Y-93977907D01*
X197856374Y-93965930D01*
X198382345Y-93965930D01*
X198382653Y-93969598D01*
X198382653Y-93969601D01*
X198385889Y-94008138D01*
X198398803Y-94161919D01*
X198453015Y-94350979D01*
X198542916Y-94525908D01*
X198665083Y-94680044D01*
X198667877Y-94682422D01*
X198667878Y-94682423D01*
X198702263Y-94711687D01*
X198814862Y-94807516D01*
X198818063Y-94809305D01*
X198818066Y-94809307D01*
X198856656Y-94830874D01*
X198986547Y-94903467D01*
X198990044Y-94904603D01*
X198990048Y-94904605D01*
X199080755Y-94934077D01*
X199173600Y-94964244D01*
X199280984Y-94977049D01*
X199365237Y-94987096D01*
X199365239Y-94987096D01*
X199368895Y-94987532D01*
X199564994Y-94972443D01*
X199680354Y-94940234D01*
X199750883Y-94920542D01*
X199750885Y-94920541D01*
X199754428Y-94919552D01*
X199894727Y-94848682D01*
X199926697Y-94832533D01*
X199926698Y-94832532D01*
X199929981Y-94830874D01*
X200084966Y-94709786D01*
X200213480Y-94560901D01*
X200310628Y-94389890D01*
X200372710Y-94203266D01*
X200397360Y-94008138D01*
X200397753Y-93980000D01*
X200397548Y-93977907D01*
X200396374Y-93965930D01*
X200922345Y-93965930D01*
X200922653Y-93969598D01*
X200922653Y-93969601D01*
X200925889Y-94008138D01*
X200938803Y-94161919D01*
X200993015Y-94350979D01*
X201082916Y-94525908D01*
X201205083Y-94680044D01*
X201207877Y-94682422D01*
X201207878Y-94682423D01*
X201242263Y-94711687D01*
X201354862Y-94807516D01*
X201358063Y-94809305D01*
X201358066Y-94809307D01*
X201396656Y-94830874D01*
X201526547Y-94903467D01*
X201530044Y-94904603D01*
X201530048Y-94904605D01*
X201620755Y-94934077D01*
X201713600Y-94964244D01*
X201820984Y-94977049D01*
X201905237Y-94987096D01*
X201905239Y-94987096D01*
X201908895Y-94987532D01*
X202104994Y-94972443D01*
X202220354Y-94940234D01*
X202290883Y-94920542D01*
X202290885Y-94920541D01*
X202294428Y-94919552D01*
X202434727Y-94848682D01*
X202466697Y-94832533D01*
X202466698Y-94832532D01*
X202469981Y-94830874D01*
X202624966Y-94709786D01*
X202753480Y-94560901D01*
X202850628Y-94389890D01*
X202912710Y-94203266D01*
X202937360Y-94008138D01*
X202937753Y-93980000D01*
X202937548Y-93977907D01*
X202918921Y-93787927D01*
X202918920Y-93787922D01*
X202918561Y-93784260D01*
X202861714Y-93595975D01*
X202769379Y-93422318D01*
X202645072Y-93269903D01*
X202493528Y-93144535D01*
X202320520Y-93050990D01*
X202132637Y-92992830D01*
X201989832Y-92977821D01*
X201940690Y-92972656D01*
X201940689Y-92972656D01*
X201937035Y-92972272D01*
X201839101Y-92981184D01*
X201744824Y-92989764D01*
X201744823Y-92989764D01*
X201741166Y-92990097D01*
X201737641Y-92991134D01*
X201737638Y-92991135D01*
X201619440Y-93025923D01*
X201552489Y-93045628D01*
X201378192Y-93136748D01*
X201224912Y-93259988D01*
X201098489Y-93410653D01*
X201003739Y-93583004D01*
X200944269Y-93770476D01*
X200922345Y-93965930D01*
X200396374Y-93965930D01*
X200378921Y-93787927D01*
X200378920Y-93787922D01*
X200378561Y-93784260D01*
X200321714Y-93595975D01*
X200229379Y-93422318D01*
X200105072Y-93269903D01*
X199953528Y-93144535D01*
X199780520Y-93050990D01*
X199592637Y-92992830D01*
X199449832Y-92977821D01*
X199400690Y-92972656D01*
X199400689Y-92972656D01*
X199397035Y-92972272D01*
X199299101Y-92981184D01*
X199204824Y-92989764D01*
X199204823Y-92989764D01*
X199201166Y-92990097D01*
X199197641Y-92991134D01*
X199197638Y-92991135D01*
X199079440Y-93025923D01*
X199012489Y-93045628D01*
X198838192Y-93136748D01*
X198684912Y-93259988D01*
X198558489Y-93410653D01*
X198463739Y-93583004D01*
X198404269Y-93770476D01*
X198382345Y-93965930D01*
X197856374Y-93965930D01*
X197838921Y-93787927D01*
X197838920Y-93787922D01*
X197838561Y-93784260D01*
X197781714Y-93595975D01*
X197689379Y-93422318D01*
X197565072Y-93269903D01*
X197413528Y-93144535D01*
X197240520Y-93050990D01*
X197052637Y-92992830D01*
X196909832Y-92977821D01*
X196860690Y-92972656D01*
X196860689Y-92972656D01*
X196857035Y-92972272D01*
X196759101Y-92981184D01*
X196664824Y-92989764D01*
X196664823Y-92989764D01*
X196661166Y-92990097D01*
X196657641Y-92991134D01*
X196657638Y-92991135D01*
X196539440Y-93025923D01*
X196472489Y-93045628D01*
X196298192Y-93136748D01*
X196144912Y-93259988D01*
X196018489Y-93410653D01*
X195923739Y-93583004D01*
X195864269Y-93770476D01*
X195842345Y-93965930D01*
X195316374Y-93965930D01*
X195298921Y-93787927D01*
X195298920Y-93787922D01*
X195298561Y-93784260D01*
X195241714Y-93595975D01*
X195149379Y-93422318D01*
X195025072Y-93269903D01*
X194873528Y-93144535D01*
X194700520Y-93050990D01*
X194512637Y-92992830D01*
X194369832Y-92977821D01*
X194320690Y-92972656D01*
X194320689Y-92972656D01*
X194317035Y-92972272D01*
X194219101Y-92981184D01*
X194124824Y-92989764D01*
X194124823Y-92989764D01*
X194121166Y-92990097D01*
X194117641Y-92991134D01*
X194117638Y-92991135D01*
X193999440Y-93025923D01*
X193932489Y-93045628D01*
X193758192Y-93136748D01*
X193604912Y-93259988D01*
X193478489Y-93410653D01*
X193383739Y-93583004D01*
X193324269Y-93770476D01*
X193302345Y-93965930D01*
X192776374Y-93965930D01*
X192758921Y-93787927D01*
X192758920Y-93787922D01*
X192758561Y-93784260D01*
X192701714Y-93595975D01*
X192609379Y-93422318D01*
X192485072Y-93269903D01*
X192333528Y-93144535D01*
X192160520Y-93050990D01*
X191972637Y-92992830D01*
X191829832Y-92977821D01*
X191780690Y-92972656D01*
X191780689Y-92972656D01*
X191777035Y-92972272D01*
X191679101Y-92981184D01*
X191584824Y-92989764D01*
X191584823Y-92989764D01*
X191581166Y-92990097D01*
X191577641Y-92991134D01*
X191577638Y-92991135D01*
X191459440Y-93025923D01*
X191392489Y-93045628D01*
X191218192Y-93136748D01*
X191064912Y-93259988D01*
X190938489Y-93410653D01*
X190843739Y-93583004D01*
X190784269Y-93770476D01*
X190762345Y-93965930D01*
X190236374Y-93965930D01*
X190218921Y-93787927D01*
X190218920Y-93787922D01*
X190218561Y-93784260D01*
X190161714Y-93595975D01*
X190069379Y-93422318D01*
X189945072Y-93269903D01*
X189793528Y-93144535D01*
X189620520Y-93050990D01*
X189432637Y-92992830D01*
X189289832Y-92977821D01*
X189240690Y-92972656D01*
X189240689Y-92972656D01*
X189237035Y-92972272D01*
X189139101Y-92981184D01*
X189044824Y-92989764D01*
X189044823Y-92989764D01*
X189041166Y-92990097D01*
X189037641Y-92991134D01*
X189037638Y-92991135D01*
X188919440Y-93025923D01*
X188852489Y-93045628D01*
X188678192Y-93136748D01*
X188524912Y-93259988D01*
X188398489Y-93410653D01*
X188303739Y-93583004D01*
X188244269Y-93770476D01*
X188222345Y-93965930D01*
X187696374Y-93965930D01*
X187678921Y-93787927D01*
X187678920Y-93787922D01*
X187678561Y-93784260D01*
X187621714Y-93595975D01*
X187529379Y-93422318D01*
X187405072Y-93269903D01*
X187253528Y-93144535D01*
X187080520Y-93050990D01*
X186892637Y-92992830D01*
X186749832Y-92977821D01*
X186700690Y-92972656D01*
X186700689Y-92972656D01*
X186697035Y-92972272D01*
X186599101Y-92981184D01*
X186504824Y-92989764D01*
X186504823Y-92989764D01*
X186501166Y-92990097D01*
X186497641Y-92991134D01*
X186497638Y-92991135D01*
X186379440Y-93025923D01*
X186312489Y-93045628D01*
X186138192Y-93136748D01*
X185984912Y-93259988D01*
X185858489Y-93410653D01*
X185763739Y-93583004D01*
X185704269Y-93770476D01*
X185682345Y-93965930D01*
X185156374Y-93965930D01*
X185138921Y-93787927D01*
X185138920Y-93787922D01*
X185138561Y-93784260D01*
X185081714Y-93595975D01*
X184989379Y-93422318D01*
X184865072Y-93269903D01*
X184713528Y-93144535D01*
X184540520Y-93050990D01*
X184352637Y-92992830D01*
X184209832Y-92977821D01*
X184160690Y-92972656D01*
X184160689Y-92972656D01*
X184157035Y-92972272D01*
X184059101Y-92981184D01*
X183964824Y-92989764D01*
X183964823Y-92989764D01*
X183961166Y-92990097D01*
X183957641Y-92991134D01*
X183957638Y-92991135D01*
X183839440Y-93025923D01*
X183772489Y-93045628D01*
X183598192Y-93136748D01*
X183444912Y-93259988D01*
X183318489Y-93410653D01*
X183223739Y-93583004D01*
X183164269Y-93770476D01*
X183142345Y-93965930D01*
X182616374Y-93965930D01*
X182598921Y-93787927D01*
X182598920Y-93787922D01*
X182598561Y-93784260D01*
X182541714Y-93595975D01*
X182449379Y-93422318D01*
X182325072Y-93269903D01*
X182173528Y-93144535D01*
X182000520Y-93050990D01*
X181812637Y-92992830D01*
X181669832Y-92977821D01*
X181620690Y-92972656D01*
X181620689Y-92972656D01*
X181617035Y-92972272D01*
X181519101Y-92981184D01*
X181424824Y-92989764D01*
X181424823Y-92989764D01*
X181421166Y-92990097D01*
X181417641Y-92991134D01*
X181417638Y-92991135D01*
X181299440Y-93025923D01*
X181232489Y-93045628D01*
X181058192Y-93136748D01*
X180904912Y-93259988D01*
X180778489Y-93410653D01*
X180683739Y-93583004D01*
X180624269Y-93770476D01*
X180602345Y-93965930D01*
X180076374Y-93965930D01*
X180058921Y-93787927D01*
X180058920Y-93787922D01*
X180058561Y-93784260D01*
X180001714Y-93595975D01*
X179909379Y-93422318D01*
X179785072Y-93269903D01*
X179633528Y-93144535D01*
X179460520Y-93050990D01*
X179272637Y-92992830D01*
X179129832Y-92977821D01*
X179080690Y-92972656D01*
X179080689Y-92972656D01*
X179077035Y-92972272D01*
X178979101Y-92981184D01*
X178884824Y-92989764D01*
X178884823Y-92989764D01*
X178881166Y-92990097D01*
X178877641Y-92991134D01*
X178877638Y-92991135D01*
X178759440Y-93025923D01*
X178692489Y-93045628D01*
X178518192Y-93136748D01*
X178364912Y-93259988D01*
X178238489Y-93410653D01*
X178143739Y-93583004D01*
X178084269Y-93770476D01*
X178062345Y-93965930D01*
X177536374Y-93965930D01*
X177518921Y-93787927D01*
X177518920Y-93787922D01*
X177518561Y-93784260D01*
X177461714Y-93595975D01*
X177369379Y-93422318D01*
X177245072Y-93269903D01*
X177093528Y-93144535D01*
X176920520Y-93050990D01*
X176732637Y-92992830D01*
X176589832Y-92977821D01*
X176540690Y-92972656D01*
X176540689Y-92972656D01*
X176537035Y-92972272D01*
X176439101Y-92981184D01*
X176344824Y-92989764D01*
X176344823Y-92989764D01*
X176341166Y-92990097D01*
X176337641Y-92991134D01*
X176337638Y-92991135D01*
X176219440Y-93025923D01*
X176152489Y-93045628D01*
X175978192Y-93136748D01*
X175824912Y-93259988D01*
X175698489Y-93410653D01*
X175603739Y-93583004D01*
X175544269Y-93770476D01*
X175522345Y-93965930D01*
X175522653Y-93969598D01*
X175522653Y-93969601D01*
X175525889Y-94008138D01*
X175538803Y-94161919D01*
X175593015Y-94350979D01*
X175631813Y-94426473D01*
X175638260Y-94477505D01*
X175618103Y-94514019D01*
X174801348Y-95330774D01*
X174754728Y-95352514D01*
X174748174Y-95352800D01*
X156508729Y-95352800D01*
X156494058Y-95351355D01*
X156482264Y-95349009D01*
X156475000Y-95347564D01*
X156467736Y-95349009D01*
X156378006Y-95366858D01*
X156378004Y-95366859D01*
X156370744Y-95368303D01*
X156282359Y-95427359D01*
X156278246Y-95433515D01*
X156271565Y-95443514D01*
X156262212Y-95454910D01*
X153569401Y-98147721D01*
X153522781Y-98169461D01*
X153480463Y-98160698D01*
X153425520Y-98130990D01*
X153237637Y-98072830D01*
X153114766Y-98059916D01*
X153045690Y-98052656D01*
X153045689Y-98052656D01*
X153042035Y-98052272D01*
X153002378Y-98055881D01*
X152849824Y-98069764D01*
X152849823Y-98069764D01*
X152846166Y-98070097D01*
X152842641Y-98071134D01*
X152842638Y-98071135D01*
X152752974Y-98097525D01*
X152657489Y-98125628D01*
X152483192Y-98216748D01*
X152406552Y-98278368D01*
X152342973Y-98329487D01*
X152329912Y-98339988D01*
X152203489Y-98490653D01*
X152201718Y-98493875D01*
X152201717Y-98493876D01*
X152135884Y-98613627D01*
X152108739Y-98663004D01*
X152064280Y-98803156D01*
X152032894Y-98843912D01*
X151982654Y-98854957D01*
X151937068Y-98831125D01*
X151917400Y-98780418D01*
X151917400Y-93114943D01*
X152667100Y-93114943D01*
X152667101Y-94845056D01*
X152675972Y-94889658D01*
X152709766Y-94940234D01*
X152715923Y-94944348D01*
X152754183Y-94969913D01*
X152754184Y-94969914D01*
X152760342Y-94974028D01*
X152804943Y-94982900D01*
X153669882Y-94982900D01*
X154535056Y-94982899D01*
X154579658Y-94974028D01*
X154630234Y-94940234D01*
X154654801Y-94903467D01*
X154659913Y-94895817D01*
X154659914Y-94895816D01*
X154664028Y-94889658D01*
X154672900Y-94845057D01*
X154672900Y-94140318D01*
X155217492Y-94140318D01*
X155218990Y-94158160D01*
X155220312Y-94165364D01*
X155272470Y-94347261D01*
X155275164Y-94354063D01*
X155361657Y-94522363D01*
X155365623Y-94528518D01*
X155483164Y-94676817D01*
X155488240Y-94682074D01*
X155632355Y-94804725D01*
X155638353Y-94808894D01*
X155803537Y-94901211D01*
X155810250Y-94904144D01*
X155990210Y-94962616D01*
X155997358Y-94964188D01*
X156044434Y-94969802D01*
X156054957Y-94967334D01*
X156057600Y-94963801D01*
X156057600Y-94960421D01*
X156362400Y-94960421D01*
X156366097Y-94970578D01*
X156370403Y-94973064D01*
X156381238Y-94972230D01*
X156388449Y-94970959D01*
X156570701Y-94920073D01*
X156577534Y-94917422D01*
X156746428Y-94832108D01*
X156752611Y-94828184D01*
X156901720Y-94711687D01*
X156907023Y-94706637D01*
X157030664Y-94563397D01*
X157034886Y-94557412D01*
X157128354Y-94392880D01*
X157131328Y-94386200D01*
X157191059Y-94206641D01*
X157192680Y-94199508D01*
X157199495Y-94145556D01*
X157197100Y-94135014D01*
X157193656Y-94132400D01*
X156375659Y-94132400D01*
X156365502Y-94136097D01*
X156362400Y-94141469D01*
X156362400Y-94960421D01*
X156057600Y-94960421D01*
X156057600Y-94145659D01*
X156053903Y-94135502D01*
X156048531Y-94132400D01*
X155230086Y-94132400D01*
X155219929Y-94136097D01*
X155217492Y-94140318D01*
X154672900Y-94140318D01*
X154672900Y-93965930D01*
X157742345Y-93965930D01*
X157742653Y-93969598D01*
X157742653Y-93969601D01*
X157745889Y-94008138D01*
X157758803Y-94161919D01*
X157813015Y-94350979D01*
X157902916Y-94525908D01*
X158025083Y-94680044D01*
X158027877Y-94682422D01*
X158027878Y-94682423D01*
X158062263Y-94711687D01*
X158174862Y-94807516D01*
X158178063Y-94809305D01*
X158178066Y-94809307D01*
X158216656Y-94830874D01*
X158346547Y-94903467D01*
X158350044Y-94904603D01*
X158350048Y-94904605D01*
X158440755Y-94934077D01*
X158533600Y-94964244D01*
X158640984Y-94977049D01*
X158725237Y-94987096D01*
X158725239Y-94987096D01*
X158728895Y-94987532D01*
X158924994Y-94972443D01*
X159040354Y-94940234D01*
X159110883Y-94920542D01*
X159110885Y-94920541D01*
X159114428Y-94919552D01*
X159254727Y-94848682D01*
X159286697Y-94832533D01*
X159286698Y-94832532D01*
X159289981Y-94830874D01*
X159444966Y-94709786D01*
X159573480Y-94560901D01*
X159670628Y-94389890D01*
X159732710Y-94203266D01*
X159757360Y-94008138D01*
X159757753Y-93980000D01*
X159757548Y-93977907D01*
X159756374Y-93965930D01*
X160282345Y-93965930D01*
X160282653Y-93969598D01*
X160282653Y-93969601D01*
X160285889Y-94008138D01*
X160298803Y-94161919D01*
X160353015Y-94350979D01*
X160442916Y-94525908D01*
X160565083Y-94680044D01*
X160567877Y-94682422D01*
X160567878Y-94682423D01*
X160602263Y-94711687D01*
X160714862Y-94807516D01*
X160718063Y-94809305D01*
X160718066Y-94809307D01*
X160756656Y-94830874D01*
X160886547Y-94903467D01*
X160890044Y-94904603D01*
X160890048Y-94904605D01*
X160980755Y-94934077D01*
X161073600Y-94964244D01*
X161180984Y-94977049D01*
X161265237Y-94987096D01*
X161265239Y-94987096D01*
X161268895Y-94987532D01*
X161464994Y-94972443D01*
X161580354Y-94940234D01*
X161650883Y-94920542D01*
X161650885Y-94920541D01*
X161654428Y-94919552D01*
X161794727Y-94848682D01*
X161826697Y-94832533D01*
X161826698Y-94832532D01*
X161829981Y-94830874D01*
X161984966Y-94709786D01*
X162113480Y-94560901D01*
X162210628Y-94389890D01*
X162272710Y-94203266D01*
X162297360Y-94008138D01*
X162297753Y-93980000D01*
X162297548Y-93977907D01*
X162296374Y-93965930D01*
X162822345Y-93965930D01*
X162822653Y-93969598D01*
X162822653Y-93969601D01*
X162825889Y-94008138D01*
X162838803Y-94161919D01*
X162893015Y-94350979D01*
X162982916Y-94525908D01*
X163105083Y-94680044D01*
X163107877Y-94682422D01*
X163107878Y-94682423D01*
X163142263Y-94711687D01*
X163254862Y-94807516D01*
X163258063Y-94809305D01*
X163258066Y-94809307D01*
X163296656Y-94830874D01*
X163426547Y-94903467D01*
X163430044Y-94904603D01*
X163430048Y-94904605D01*
X163520755Y-94934077D01*
X163613600Y-94964244D01*
X163720984Y-94977049D01*
X163805237Y-94987096D01*
X163805239Y-94987096D01*
X163808895Y-94987532D01*
X164004994Y-94972443D01*
X164120354Y-94940234D01*
X164190883Y-94920542D01*
X164190885Y-94920541D01*
X164194428Y-94919552D01*
X164334727Y-94848682D01*
X164366697Y-94832533D01*
X164366698Y-94832532D01*
X164369981Y-94830874D01*
X164524966Y-94709786D01*
X164653480Y-94560901D01*
X164750628Y-94389890D01*
X164812710Y-94203266D01*
X164837360Y-94008138D01*
X164837753Y-93980000D01*
X164837548Y-93977907D01*
X164836374Y-93965930D01*
X165362345Y-93965930D01*
X165362653Y-93969598D01*
X165362653Y-93969601D01*
X165365889Y-94008138D01*
X165378803Y-94161919D01*
X165433015Y-94350979D01*
X165522916Y-94525908D01*
X165645083Y-94680044D01*
X165647877Y-94682422D01*
X165647878Y-94682423D01*
X165682263Y-94711687D01*
X165794862Y-94807516D01*
X165798063Y-94809305D01*
X165798066Y-94809307D01*
X165836656Y-94830874D01*
X165966547Y-94903467D01*
X165970044Y-94904603D01*
X165970048Y-94904605D01*
X166060755Y-94934077D01*
X166153600Y-94964244D01*
X166260984Y-94977049D01*
X166345237Y-94987096D01*
X166345239Y-94987096D01*
X166348895Y-94987532D01*
X166544994Y-94972443D01*
X166660354Y-94940234D01*
X166730883Y-94920542D01*
X166730885Y-94920541D01*
X166734428Y-94919552D01*
X166874727Y-94848682D01*
X166906697Y-94832533D01*
X166906698Y-94832532D01*
X166909981Y-94830874D01*
X167064966Y-94709786D01*
X167193480Y-94560901D01*
X167290628Y-94389890D01*
X167352710Y-94203266D01*
X167377360Y-94008138D01*
X167377753Y-93980000D01*
X167377548Y-93977907D01*
X167376374Y-93965930D01*
X167902345Y-93965930D01*
X167902653Y-93969598D01*
X167902653Y-93969601D01*
X167905889Y-94008138D01*
X167918803Y-94161919D01*
X167973015Y-94350979D01*
X168062916Y-94525908D01*
X168185083Y-94680044D01*
X168187877Y-94682422D01*
X168187878Y-94682423D01*
X168222263Y-94711687D01*
X168334862Y-94807516D01*
X168338063Y-94809305D01*
X168338066Y-94809307D01*
X168376656Y-94830874D01*
X168506547Y-94903467D01*
X168510044Y-94904603D01*
X168510048Y-94904605D01*
X168600755Y-94934077D01*
X168693600Y-94964244D01*
X168800984Y-94977049D01*
X168885237Y-94987096D01*
X168885239Y-94987096D01*
X168888895Y-94987532D01*
X169084994Y-94972443D01*
X169200354Y-94940234D01*
X169270883Y-94920542D01*
X169270885Y-94920541D01*
X169274428Y-94919552D01*
X169414727Y-94848682D01*
X169446697Y-94832533D01*
X169446698Y-94832532D01*
X169449981Y-94830874D01*
X169604966Y-94709786D01*
X169733480Y-94560901D01*
X169830628Y-94389890D01*
X169892710Y-94203266D01*
X169917360Y-94008138D01*
X169917753Y-93980000D01*
X169917548Y-93977907D01*
X169916374Y-93965930D01*
X170442345Y-93965930D01*
X170442653Y-93969598D01*
X170442653Y-93969601D01*
X170445889Y-94008138D01*
X170458803Y-94161919D01*
X170513015Y-94350979D01*
X170602916Y-94525908D01*
X170725083Y-94680044D01*
X170727877Y-94682422D01*
X170727878Y-94682423D01*
X170762263Y-94711687D01*
X170874862Y-94807516D01*
X170878063Y-94809305D01*
X170878066Y-94809307D01*
X170916656Y-94830874D01*
X171046547Y-94903467D01*
X171050044Y-94904603D01*
X171050048Y-94904605D01*
X171140755Y-94934077D01*
X171233600Y-94964244D01*
X171340984Y-94977049D01*
X171425237Y-94987096D01*
X171425239Y-94987096D01*
X171428895Y-94987532D01*
X171624994Y-94972443D01*
X171740354Y-94940234D01*
X171810883Y-94920542D01*
X171810885Y-94920541D01*
X171814428Y-94919552D01*
X171954727Y-94848682D01*
X171986697Y-94832533D01*
X171986698Y-94832532D01*
X171989981Y-94830874D01*
X172144966Y-94709786D01*
X172273480Y-94560901D01*
X172370628Y-94389890D01*
X172432710Y-94203266D01*
X172457360Y-94008138D01*
X172457753Y-93980000D01*
X172457548Y-93977907D01*
X172456374Y-93965930D01*
X172982345Y-93965930D01*
X172982653Y-93969598D01*
X172982653Y-93969601D01*
X172985889Y-94008138D01*
X172998803Y-94161919D01*
X173053015Y-94350979D01*
X173142916Y-94525908D01*
X173265083Y-94680044D01*
X173267877Y-94682422D01*
X173267878Y-94682423D01*
X173302263Y-94711687D01*
X173414862Y-94807516D01*
X173418063Y-94809305D01*
X173418066Y-94809307D01*
X173456656Y-94830874D01*
X173586547Y-94903467D01*
X173590044Y-94904603D01*
X173590048Y-94904605D01*
X173680755Y-94934077D01*
X173773600Y-94964244D01*
X173880984Y-94977049D01*
X173965237Y-94987096D01*
X173965239Y-94987096D01*
X173968895Y-94987532D01*
X174164994Y-94972443D01*
X174280354Y-94940234D01*
X174350883Y-94920542D01*
X174350885Y-94920541D01*
X174354428Y-94919552D01*
X174494727Y-94848682D01*
X174526697Y-94832533D01*
X174526698Y-94832532D01*
X174529981Y-94830874D01*
X174684966Y-94709786D01*
X174813480Y-94560901D01*
X174910628Y-94389890D01*
X174972710Y-94203266D01*
X174997360Y-94008138D01*
X174997753Y-93980000D01*
X174997548Y-93977907D01*
X174978921Y-93787927D01*
X174978920Y-93787922D01*
X174978561Y-93784260D01*
X174921714Y-93595975D01*
X174829379Y-93422318D01*
X174705072Y-93269903D01*
X174553528Y-93144535D01*
X174380520Y-93050990D01*
X174192637Y-92992830D01*
X174049832Y-92977821D01*
X174000690Y-92972656D01*
X174000689Y-92972656D01*
X173997035Y-92972272D01*
X173899101Y-92981184D01*
X173804824Y-92989764D01*
X173804823Y-92989764D01*
X173801166Y-92990097D01*
X173797641Y-92991134D01*
X173797638Y-92991135D01*
X173679440Y-93025923D01*
X173612489Y-93045628D01*
X173438192Y-93136748D01*
X173284912Y-93259988D01*
X173158489Y-93410653D01*
X173063739Y-93583004D01*
X173004269Y-93770476D01*
X172982345Y-93965930D01*
X172456374Y-93965930D01*
X172438921Y-93787927D01*
X172438920Y-93787922D01*
X172438561Y-93784260D01*
X172381714Y-93595975D01*
X172289379Y-93422318D01*
X172165072Y-93269903D01*
X172013528Y-93144535D01*
X171840520Y-93050990D01*
X171652637Y-92992830D01*
X171509832Y-92977821D01*
X171460690Y-92972656D01*
X171460689Y-92972656D01*
X171457035Y-92972272D01*
X171359101Y-92981184D01*
X171264824Y-92989764D01*
X171264823Y-92989764D01*
X171261166Y-92990097D01*
X171257641Y-92991134D01*
X171257638Y-92991135D01*
X171139440Y-93025923D01*
X171072489Y-93045628D01*
X170898192Y-93136748D01*
X170744912Y-93259988D01*
X170618489Y-93410653D01*
X170523739Y-93583004D01*
X170464269Y-93770476D01*
X170442345Y-93965930D01*
X169916374Y-93965930D01*
X169898921Y-93787927D01*
X169898920Y-93787922D01*
X169898561Y-93784260D01*
X169841714Y-93595975D01*
X169749379Y-93422318D01*
X169625072Y-93269903D01*
X169473528Y-93144535D01*
X169300520Y-93050990D01*
X169112637Y-92992830D01*
X168969832Y-92977821D01*
X168920690Y-92972656D01*
X168920689Y-92972656D01*
X168917035Y-92972272D01*
X168819101Y-92981184D01*
X168724824Y-92989764D01*
X168724823Y-92989764D01*
X168721166Y-92990097D01*
X168717641Y-92991134D01*
X168717638Y-92991135D01*
X168599440Y-93025923D01*
X168532489Y-93045628D01*
X168358192Y-93136748D01*
X168204912Y-93259988D01*
X168078489Y-93410653D01*
X167983739Y-93583004D01*
X167924269Y-93770476D01*
X167902345Y-93965930D01*
X167376374Y-93965930D01*
X167358921Y-93787927D01*
X167358920Y-93787922D01*
X167358561Y-93784260D01*
X167301714Y-93595975D01*
X167209379Y-93422318D01*
X167085072Y-93269903D01*
X166933528Y-93144535D01*
X166760520Y-93050990D01*
X166572637Y-92992830D01*
X166429832Y-92977821D01*
X166380690Y-92972656D01*
X166380689Y-92972656D01*
X166377035Y-92972272D01*
X166279101Y-92981184D01*
X166184824Y-92989764D01*
X166184823Y-92989764D01*
X166181166Y-92990097D01*
X166177641Y-92991134D01*
X166177638Y-92991135D01*
X166059440Y-93025923D01*
X165992489Y-93045628D01*
X165818192Y-93136748D01*
X165664912Y-93259988D01*
X165538489Y-93410653D01*
X165443739Y-93583004D01*
X165384269Y-93770476D01*
X165362345Y-93965930D01*
X164836374Y-93965930D01*
X164818921Y-93787927D01*
X164818920Y-93787922D01*
X164818561Y-93784260D01*
X164761714Y-93595975D01*
X164669379Y-93422318D01*
X164545072Y-93269903D01*
X164393528Y-93144535D01*
X164220520Y-93050990D01*
X164032637Y-92992830D01*
X163889832Y-92977821D01*
X163840690Y-92972656D01*
X163840689Y-92972656D01*
X163837035Y-92972272D01*
X163739101Y-92981184D01*
X163644824Y-92989764D01*
X163644823Y-92989764D01*
X163641166Y-92990097D01*
X163637641Y-92991134D01*
X163637638Y-92991135D01*
X163519440Y-93025923D01*
X163452489Y-93045628D01*
X163278192Y-93136748D01*
X163124912Y-93259988D01*
X162998489Y-93410653D01*
X162903739Y-93583004D01*
X162844269Y-93770476D01*
X162822345Y-93965930D01*
X162296374Y-93965930D01*
X162278921Y-93787927D01*
X162278920Y-93787922D01*
X162278561Y-93784260D01*
X162221714Y-93595975D01*
X162129379Y-93422318D01*
X162005072Y-93269903D01*
X161853528Y-93144535D01*
X161680520Y-93050990D01*
X161492637Y-92992830D01*
X161349832Y-92977821D01*
X161300690Y-92972656D01*
X161300689Y-92972656D01*
X161297035Y-92972272D01*
X161199101Y-92981184D01*
X161104824Y-92989764D01*
X161104823Y-92989764D01*
X161101166Y-92990097D01*
X161097641Y-92991134D01*
X161097638Y-92991135D01*
X160979440Y-93025923D01*
X160912489Y-93045628D01*
X160738192Y-93136748D01*
X160584912Y-93259988D01*
X160458489Y-93410653D01*
X160363739Y-93583004D01*
X160304269Y-93770476D01*
X160282345Y-93965930D01*
X159756374Y-93965930D01*
X159738921Y-93787927D01*
X159738920Y-93787922D01*
X159738561Y-93784260D01*
X159681714Y-93595975D01*
X159589379Y-93422318D01*
X159465072Y-93269903D01*
X159313528Y-93144535D01*
X159140520Y-93050990D01*
X158952637Y-92992830D01*
X158809832Y-92977821D01*
X158760690Y-92972656D01*
X158760689Y-92972656D01*
X158757035Y-92972272D01*
X158659101Y-92981184D01*
X158564824Y-92989764D01*
X158564823Y-92989764D01*
X158561166Y-92990097D01*
X158557641Y-92991134D01*
X158557638Y-92991135D01*
X158439440Y-93025923D01*
X158372489Y-93045628D01*
X158198192Y-93136748D01*
X158044912Y-93259988D01*
X157918489Y-93410653D01*
X157823739Y-93583004D01*
X157764269Y-93770476D01*
X157742345Y-93965930D01*
X154672900Y-93965930D01*
X154672900Y-93814421D01*
X155219843Y-93814421D01*
X155222386Y-93824930D01*
X155226007Y-93827600D01*
X156044341Y-93827600D01*
X156054498Y-93823903D01*
X156057600Y-93818531D01*
X156057600Y-93814341D01*
X156362400Y-93814341D01*
X156366097Y-93824498D01*
X156371469Y-93827600D01*
X157189048Y-93827600D01*
X157199205Y-93823903D01*
X157201547Y-93819847D01*
X157198427Y-93788024D01*
X157197001Y-93780828D01*
X157142312Y-93599688D01*
X157139524Y-93592922D01*
X157050684Y-93425839D01*
X157046639Y-93419751D01*
X156927041Y-93273109D01*
X156921878Y-93267910D01*
X156776078Y-93147294D01*
X156770016Y-93143205D01*
X156603557Y-93053201D01*
X156596813Y-93050366D01*
X156416047Y-92994410D01*
X156408880Y-92992939D01*
X156375587Y-92989440D01*
X156365100Y-92992055D01*
X156362400Y-92995771D01*
X156362400Y-93814341D01*
X156057600Y-93814341D01*
X156057600Y-93000543D01*
X156053903Y-92990386D01*
X156049766Y-92987997D01*
X156024918Y-92990258D01*
X156017732Y-92991629D01*
X155836208Y-93045055D01*
X155829421Y-93047797D01*
X155661721Y-93135468D01*
X155655603Y-93139472D01*
X155508128Y-93258044D01*
X155502903Y-93263161D01*
X155381266Y-93408122D01*
X155377132Y-93414160D01*
X155285975Y-93579975D01*
X155283088Y-93586711D01*
X155225874Y-93767074D01*
X155224351Y-93774239D01*
X155219843Y-93814421D01*
X154672900Y-93814421D01*
X154672899Y-93114944D01*
X154664028Y-93070342D01*
X154630234Y-93019766D01*
X154601465Y-93000543D01*
X154585817Y-92990087D01*
X154585816Y-92990086D01*
X154579658Y-92985972D01*
X154535057Y-92977100D01*
X153670118Y-92977100D01*
X152804944Y-92977101D01*
X152760342Y-92985972D01*
X152709766Y-93019766D01*
X152705652Y-93025923D01*
X152687735Y-93052738D01*
X152675972Y-93070342D01*
X152667100Y-93114943D01*
X151917400Y-93114943D01*
X151917400Y-92739962D01*
X151919961Y-92720505D01*
X151922776Y-92710000D01*
X151920213Y-92700435D01*
X151920213Y-92690536D01*
X151920654Y-92690536D01*
X151919879Y-92681667D01*
X151933805Y-92522486D01*
X151936080Y-92509583D01*
X151983097Y-92334110D01*
X151987581Y-92321792D01*
X152064349Y-92157163D01*
X152070903Y-92145811D01*
X152175096Y-91997007D01*
X152183522Y-91986966D01*
X152311966Y-91858522D01*
X152322007Y-91850096D01*
X152470814Y-91745901D01*
X152482160Y-91739351D01*
X152646792Y-91662581D01*
X152659110Y-91658097D01*
X152834583Y-91611080D01*
X152847480Y-91608806D01*
X152933868Y-91601248D01*
X153006667Y-91594879D01*
X153015536Y-91595654D01*
X153015536Y-91595213D01*
X153025435Y-91595213D01*
X153035000Y-91597776D01*
X153045505Y-91594961D01*
X153064962Y-91592400D01*
X202535038Y-91592400D01*
X202554495Y-91594961D01*
G37*
G04 #@! TD.AperFunction*
G04 #@! TD*
G04 #@! TA.AperFunction,Conductor*
G04 #@! TO.N,VBUS*
G36*
X194918138Y-102252593D02*
G01*
X194943858Y-102297142D01*
X194945000Y-102310200D01*
X194945000Y-107239800D01*
X194927407Y-107288138D01*
X194882858Y-107313858D01*
X194869800Y-107315000D01*
X191210200Y-107315000D01*
X191161862Y-107297407D01*
X191136142Y-107252858D01*
X191135000Y-107239800D01*
X191135000Y-102310200D01*
X191152593Y-102261862D01*
X191197142Y-102236142D01*
X191210200Y-102235000D01*
X194869800Y-102235000D01*
X194918138Y-102252593D01*
G37*
G04 #@! TD.AperFunction*
G04 #@! TD*
M02*
