G04 #@! TF.GenerationSoftware,KiCad,Pcbnew,9.0.0+dfsg-1*
G04 #@! TF.CreationDate,2025-03-10T08:37:07+08:00*
G04 #@! TF.ProjectId,gp,67702e6b-6963-4616-945f-706362585858,d*
G04 #@! TF.SameCoordinates,Original*
G04 #@! TF.FileFunction,Legend,Top*
G04 #@! TF.FilePolarity,Positive*
%FSLAX46Y46*%
G04 Gerber Fmt 4.6, Leading zero omitted, Abs format (unit mm)*
G04 Created by KiCad (PCBNEW 9.0.0+dfsg-1) date 2025-03-10 08:37:07*
%MOMM*%
%LPD*%
G01*
G04 APERTURE LIST*
%ADD10C,0.150000*%
%ADD11C,0.120000*%
G04 APERTURE END LIST*
D10*
X193605237Y-92018247D02*
X193719523Y-92056342D01*
X193719523Y-92056342D02*
X193757618Y-92094438D01*
X193757618Y-92094438D02*
X193795714Y-92170628D01*
X193795714Y-92170628D02*
X193795714Y-92284914D01*
X193795714Y-92284914D02*
X193757618Y-92361104D01*
X193757618Y-92361104D02*
X193719523Y-92399200D01*
X193719523Y-92399200D02*
X193643333Y-92437295D01*
X193643333Y-92437295D02*
X193338571Y-92437295D01*
X193338571Y-92437295D02*
X193338571Y-91637295D01*
X193338571Y-91637295D02*
X193605237Y-91637295D01*
X193605237Y-91637295D02*
X193681428Y-91675390D01*
X193681428Y-91675390D02*
X193719523Y-91713485D01*
X193719523Y-91713485D02*
X193757618Y-91789676D01*
X193757618Y-91789676D02*
X193757618Y-91865866D01*
X193757618Y-91865866D02*
X193719523Y-91942057D01*
X193719523Y-91942057D02*
X193681428Y-91980152D01*
X193681428Y-91980152D02*
X193605237Y-92018247D01*
X193605237Y-92018247D02*
X193338571Y-92018247D01*
X194557618Y-92437295D02*
X194100475Y-92437295D01*
X194329047Y-92437295D02*
X194329047Y-91637295D01*
X194329047Y-91637295D02*
X194252856Y-91751580D01*
X194252856Y-91751580D02*
X194176666Y-91827771D01*
X194176666Y-91827771D02*
X194100475Y-91865866D01*
X195281428Y-91637295D02*
X194900476Y-91637295D01*
X194900476Y-91637295D02*
X194862380Y-92018247D01*
X194862380Y-92018247D02*
X194900476Y-91980152D01*
X194900476Y-91980152D02*
X194976666Y-91942057D01*
X194976666Y-91942057D02*
X195167142Y-91942057D01*
X195167142Y-91942057D02*
X195243333Y-91980152D01*
X195243333Y-91980152D02*
X195281428Y-92018247D01*
X195281428Y-92018247D02*
X195319523Y-92094438D01*
X195319523Y-92094438D02*
X195319523Y-92284914D01*
X195319523Y-92284914D02*
X195281428Y-92361104D01*
X195281428Y-92361104D02*
X195243333Y-92399200D01*
X195243333Y-92399200D02*
X195167142Y-92437295D01*
X195167142Y-92437295D02*
X194976666Y-92437295D01*
X194976666Y-92437295D02*
X194900476Y-92399200D01*
X194900476Y-92399200D02*
X194862380Y-92361104D01*
X196145237Y-92018247D02*
X196259523Y-92056342D01*
X196259523Y-92056342D02*
X196297618Y-92094438D01*
X196297618Y-92094438D02*
X196335714Y-92170628D01*
X196335714Y-92170628D02*
X196335714Y-92284914D01*
X196335714Y-92284914D02*
X196297618Y-92361104D01*
X196297618Y-92361104D02*
X196259523Y-92399200D01*
X196259523Y-92399200D02*
X196183333Y-92437295D01*
X196183333Y-92437295D02*
X195878571Y-92437295D01*
X195878571Y-92437295D02*
X195878571Y-91637295D01*
X195878571Y-91637295D02*
X196145237Y-91637295D01*
X196145237Y-91637295D02*
X196221428Y-91675390D01*
X196221428Y-91675390D02*
X196259523Y-91713485D01*
X196259523Y-91713485D02*
X196297618Y-91789676D01*
X196297618Y-91789676D02*
X196297618Y-91865866D01*
X196297618Y-91865866D02*
X196259523Y-91942057D01*
X196259523Y-91942057D02*
X196221428Y-91980152D01*
X196221428Y-91980152D02*
X196145237Y-92018247D01*
X196145237Y-92018247D02*
X195878571Y-92018247D01*
X197097618Y-92437295D02*
X196640475Y-92437295D01*
X196869047Y-92437295D02*
X196869047Y-91637295D01*
X196869047Y-91637295D02*
X196792856Y-91751580D01*
X196792856Y-91751580D02*
X196716666Y-91827771D01*
X196716666Y-91827771D02*
X196640475Y-91865866D01*
X197783333Y-91903961D02*
X197783333Y-92437295D01*
X197592857Y-91599200D02*
X197402380Y-92170628D01*
X197402380Y-92170628D02*
X197897619Y-92170628D01*
X198685237Y-92018247D02*
X198799523Y-92056342D01*
X198799523Y-92056342D02*
X198837618Y-92094438D01*
X198837618Y-92094438D02*
X198875714Y-92170628D01*
X198875714Y-92170628D02*
X198875714Y-92284914D01*
X198875714Y-92284914D02*
X198837618Y-92361104D01*
X198837618Y-92361104D02*
X198799523Y-92399200D01*
X198799523Y-92399200D02*
X198723333Y-92437295D01*
X198723333Y-92437295D02*
X198418571Y-92437295D01*
X198418571Y-92437295D02*
X198418571Y-91637295D01*
X198418571Y-91637295D02*
X198685237Y-91637295D01*
X198685237Y-91637295D02*
X198761428Y-91675390D01*
X198761428Y-91675390D02*
X198799523Y-91713485D01*
X198799523Y-91713485D02*
X198837618Y-91789676D01*
X198837618Y-91789676D02*
X198837618Y-91865866D01*
X198837618Y-91865866D02*
X198799523Y-91942057D01*
X198799523Y-91942057D02*
X198761428Y-91980152D01*
X198761428Y-91980152D02*
X198685237Y-92018247D01*
X198685237Y-92018247D02*
X198418571Y-92018247D01*
X199637618Y-92437295D02*
X199180475Y-92437295D01*
X199409047Y-92437295D02*
X199409047Y-91637295D01*
X199409047Y-91637295D02*
X199332856Y-91751580D01*
X199332856Y-91751580D02*
X199256666Y-91827771D01*
X199256666Y-91827771D02*
X199180475Y-91865866D01*
X199904285Y-91637295D02*
X200399523Y-91637295D01*
X200399523Y-91637295D02*
X200132857Y-91942057D01*
X200132857Y-91942057D02*
X200247142Y-91942057D01*
X200247142Y-91942057D02*
X200323333Y-91980152D01*
X200323333Y-91980152D02*
X200361428Y-92018247D01*
X200361428Y-92018247D02*
X200399523Y-92094438D01*
X200399523Y-92094438D02*
X200399523Y-92284914D01*
X200399523Y-92284914D02*
X200361428Y-92361104D01*
X200361428Y-92361104D02*
X200323333Y-92399200D01*
X200323333Y-92399200D02*
X200247142Y-92437295D01*
X200247142Y-92437295D02*
X200018571Y-92437295D01*
X200018571Y-92437295D02*
X199942380Y-92399200D01*
X199942380Y-92399200D02*
X199904285Y-92361104D01*
X201225237Y-92018247D02*
X201339523Y-92056342D01*
X201339523Y-92056342D02*
X201377618Y-92094438D01*
X201377618Y-92094438D02*
X201415714Y-92170628D01*
X201415714Y-92170628D02*
X201415714Y-92284914D01*
X201415714Y-92284914D02*
X201377618Y-92361104D01*
X201377618Y-92361104D02*
X201339523Y-92399200D01*
X201339523Y-92399200D02*
X201263333Y-92437295D01*
X201263333Y-92437295D02*
X200958571Y-92437295D01*
X200958571Y-92437295D02*
X200958571Y-91637295D01*
X200958571Y-91637295D02*
X201225237Y-91637295D01*
X201225237Y-91637295D02*
X201301428Y-91675390D01*
X201301428Y-91675390D02*
X201339523Y-91713485D01*
X201339523Y-91713485D02*
X201377618Y-91789676D01*
X201377618Y-91789676D02*
X201377618Y-91865866D01*
X201377618Y-91865866D02*
X201339523Y-91942057D01*
X201339523Y-91942057D02*
X201301428Y-91980152D01*
X201301428Y-91980152D02*
X201225237Y-92018247D01*
X201225237Y-92018247D02*
X200958571Y-92018247D01*
X202177618Y-92437295D02*
X201720475Y-92437295D01*
X201949047Y-92437295D02*
X201949047Y-91637295D01*
X201949047Y-91637295D02*
X201872856Y-91751580D01*
X201872856Y-91751580D02*
X201796666Y-91827771D01*
X201796666Y-91827771D02*
X201720475Y-91865866D01*
X202482380Y-91713485D02*
X202520476Y-91675390D01*
X202520476Y-91675390D02*
X202596666Y-91637295D01*
X202596666Y-91637295D02*
X202787142Y-91637295D01*
X202787142Y-91637295D02*
X202863333Y-91675390D01*
X202863333Y-91675390D02*
X202901428Y-91713485D01*
X202901428Y-91713485D02*
X202939523Y-91789676D01*
X202939523Y-91789676D02*
X202939523Y-91865866D01*
X202939523Y-91865866D02*
X202901428Y-91980152D01*
X202901428Y-91980152D02*
X202444285Y-92437295D01*
X202444285Y-92437295D02*
X202939523Y-92437295D01*
X188658571Y-92208723D02*
X189039524Y-92208723D01*
X188582381Y-92437295D02*
X188849048Y-91637295D01*
X188849048Y-91637295D02*
X189115714Y-92437295D01*
X189420476Y-92437295D02*
X189572857Y-92437295D01*
X189572857Y-92437295D02*
X189649047Y-92399200D01*
X189649047Y-92399200D02*
X189687143Y-92361104D01*
X189687143Y-92361104D02*
X189763333Y-92246819D01*
X189763333Y-92246819D02*
X189801428Y-92094438D01*
X189801428Y-92094438D02*
X189801428Y-91789676D01*
X189801428Y-91789676D02*
X189763333Y-91713485D01*
X189763333Y-91713485D02*
X189725238Y-91675390D01*
X189725238Y-91675390D02*
X189649047Y-91637295D01*
X189649047Y-91637295D02*
X189496666Y-91637295D01*
X189496666Y-91637295D02*
X189420476Y-91675390D01*
X189420476Y-91675390D02*
X189382381Y-91713485D01*
X189382381Y-91713485D02*
X189344285Y-91789676D01*
X189344285Y-91789676D02*
X189344285Y-91980152D01*
X189344285Y-91980152D02*
X189382381Y-92056342D01*
X189382381Y-92056342D02*
X189420476Y-92094438D01*
X189420476Y-92094438D02*
X189496666Y-92132533D01*
X189496666Y-92132533D02*
X189649047Y-92132533D01*
X189649047Y-92132533D02*
X189725238Y-92094438D01*
X189725238Y-92094438D02*
X189763333Y-92056342D01*
X189763333Y-92056342D02*
X189801428Y-91980152D01*
X185737618Y-92208723D02*
X186118571Y-92208723D01*
X185661428Y-92437295D02*
X185928095Y-91637295D01*
X185928095Y-91637295D02*
X186194761Y-92437295D01*
X186880475Y-92437295D02*
X186423332Y-92437295D01*
X186651904Y-92437295D02*
X186651904Y-91637295D01*
X186651904Y-91637295D02*
X186575713Y-91751580D01*
X186575713Y-91751580D02*
X186499523Y-91827771D01*
X186499523Y-91827771D02*
X186423332Y-91865866D01*
X187375714Y-91637295D02*
X187451904Y-91637295D01*
X187451904Y-91637295D02*
X187528095Y-91675390D01*
X187528095Y-91675390D02*
X187566190Y-91713485D01*
X187566190Y-91713485D02*
X187604285Y-91789676D01*
X187604285Y-91789676D02*
X187642380Y-91942057D01*
X187642380Y-91942057D02*
X187642380Y-92132533D01*
X187642380Y-92132533D02*
X187604285Y-92284914D01*
X187604285Y-92284914D02*
X187566190Y-92361104D01*
X187566190Y-92361104D02*
X187528095Y-92399200D01*
X187528095Y-92399200D02*
X187451904Y-92437295D01*
X187451904Y-92437295D02*
X187375714Y-92437295D01*
X187375714Y-92437295D02*
X187299523Y-92399200D01*
X187299523Y-92399200D02*
X187261428Y-92361104D01*
X187261428Y-92361104D02*
X187223333Y-92284914D01*
X187223333Y-92284914D02*
X187185237Y-92132533D01*
X187185237Y-92132533D02*
X187185237Y-91942057D01*
X187185237Y-91942057D02*
X187223333Y-91789676D01*
X187223333Y-91789676D02*
X187261428Y-91713485D01*
X187261428Y-91713485D02*
X187299523Y-91675390D01*
X187299523Y-91675390D02*
X187375714Y-91637295D01*
X183197618Y-92208723D02*
X183578571Y-92208723D01*
X183121428Y-92437295D02*
X183388095Y-91637295D01*
X183388095Y-91637295D02*
X183654761Y-92437295D01*
X184340475Y-92437295D02*
X183883332Y-92437295D01*
X184111904Y-92437295D02*
X184111904Y-91637295D01*
X184111904Y-91637295D02*
X184035713Y-91751580D01*
X184035713Y-91751580D02*
X183959523Y-91827771D01*
X183959523Y-91827771D02*
X183883332Y-91865866D01*
X185102380Y-92437295D02*
X184645237Y-92437295D01*
X184873809Y-92437295D02*
X184873809Y-91637295D01*
X184873809Y-91637295D02*
X184797618Y-91751580D01*
X184797618Y-91751580D02*
X184721428Y-91827771D01*
X184721428Y-91827771D02*
X184645237Y-91865866D01*
X180657618Y-92208723D02*
X181038571Y-92208723D01*
X180581428Y-92437295D02*
X180848095Y-91637295D01*
X180848095Y-91637295D02*
X181114761Y-92437295D01*
X181800475Y-92437295D02*
X181343332Y-92437295D01*
X181571904Y-92437295D02*
X181571904Y-91637295D01*
X181571904Y-91637295D02*
X181495713Y-91751580D01*
X181495713Y-91751580D02*
X181419523Y-91827771D01*
X181419523Y-91827771D02*
X181343332Y-91865866D01*
X182105237Y-91713485D02*
X182143333Y-91675390D01*
X182143333Y-91675390D02*
X182219523Y-91637295D01*
X182219523Y-91637295D02*
X182409999Y-91637295D01*
X182409999Y-91637295D02*
X182486190Y-91675390D01*
X182486190Y-91675390D02*
X182524285Y-91713485D01*
X182524285Y-91713485D02*
X182562380Y-91789676D01*
X182562380Y-91789676D02*
X182562380Y-91865866D01*
X182562380Y-91865866D02*
X182524285Y-91980152D01*
X182524285Y-91980152D02*
X182067142Y-92437295D01*
X182067142Y-92437295D02*
X182562380Y-92437295D01*
X178117618Y-92208723D02*
X178498571Y-92208723D01*
X178041428Y-92437295D02*
X178308095Y-91637295D01*
X178308095Y-91637295D02*
X178574761Y-92437295D01*
X179260475Y-92437295D02*
X178803332Y-92437295D01*
X179031904Y-92437295D02*
X179031904Y-91637295D01*
X179031904Y-91637295D02*
X178955713Y-91751580D01*
X178955713Y-91751580D02*
X178879523Y-91827771D01*
X178879523Y-91827771D02*
X178803332Y-91865866D01*
X179984285Y-91637295D02*
X179603333Y-91637295D01*
X179603333Y-91637295D02*
X179565237Y-92018247D01*
X179565237Y-92018247D02*
X179603333Y-91980152D01*
X179603333Y-91980152D02*
X179679523Y-91942057D01*
X179679523Y-91942057D02*
X179869999Y-91942057D01*
X179869999Y-91942057D02*
X179946190Y-91980152D01*
X179946190Y-91980152D02*
X179984285Y-92018247D01*
X179984285Y-92018247D02*
X180022380Y-92094438D01*
X180022380Y-92094438D02*
X180022380Y-92284914D01*
X180022380Y-92284914D02*
X179984285Y-92361104D01*
X179984285Y-92361104D02*
X179946190Y-92399200D01*
X179946190Y-92399200D02*
X179869999Y-92437295D01*
X179869999Y-92437295D02*
X179679523Y-92437295D01*
X179679523Y-92437295D02*
X179603333Y-92399200D01*
X179603333Y-92399200D02*
X179565237Y-92361104D01*
X176206190Y-92018247D02*
X176320476Y-92056342D01*
X176320476Y-92056342D02*
X176358571Y-92094438D01*
X176358571Y-92094438D02*
X176396667Y-92170628D01*
X176396667Y-92170628D02*
X176396667Y-92284914D01*
X176396667Y-92284914D02*
X176358571Y-92361104D01*
X176358571Y-92361104D02*
X176320476Y-92399200D01*
X176320476Y-92399200D02*
X176244286Y-92437295D01*
X176244286Y-92437295D02*
X175939524Y-92437295D01*
X175939524Y-92437295D02*
X175939524Y-91637295D01*
X175939524Y-91637295D02*
X176206190Y-91637295D01*
X176206190Y-91637295D02*
X176282381Y-91675390D01*
X176282381Y-91675390D02*
X176320476Y-91713485D01*
X176320476Y-91713485D02*
X176358571Y-91789676D01*
X176358571Y-91789676D02*
X176358571Y-91865866D01*
X176358571Y-91865866D02*
X176320476Y-91942057D01*
X176320476Y-91942057D02*
X176282381Y-91980152D01*
X176282381Y-91980152D02*
X176206190Y-92018247D01*
X176206190Y-92018247D02*
X175939524Y-92018247D01*
X176663333Y-91637295D02*
X177158571Y-91637295D01*
X177158571Y-91637295D02*
X176891905Y-91942057D01*
X176891905Y-91942057D02*
X177006190Y-91942057D01*
X177006190Y-91942057D02*
X177082381Y-91980152D01*
X177082381Y-91980152D02*
X177120476Y-92018247D01*
X177120476Y-92018247D02*
X177158571Y-92094438D01*
X177158571Y-92094438D02*
X177158571Y-92284914D01*
X177158571Y-92284914D02*
X177120476Y-92361104D01*
X177120476Y-92361104D02*
X177082381Y-92399200D01*
X177082381Y-92399200D02*
X177006190Y-92437295D01*
X177006190Y-92437295D02*
X176777619Y-92437295D01*
X176777619Y-92437295D02*
X176701428Y-92399200D01*
X176701428Y-92399200D02*
X176663333Y-92361104D01*
X173666190Y-92018247D02*
X173780476Y-92056342D01*
X173780476Y-92056342D02*
X173818571Y-92094438D01*
X173818571Y-92094438D02*
X173856667Y-92170628D01*
X173856667Y-92170628D02*
X173856667Y-92284914D01*
X173856667Y-92284914D02*
X173818571Y-92361104D01*
X173818571Y-92361104D02*
X173780476Y-92399200D01*
X173780476Y-92399200D02*
X173704286Y-92437295D01*
X173704286Y-92437295D02*
X173399524Y-92437295D01*
X173399524Y-92437295D02*
X173399524Y-91637295D01*
X173399524Y-91637295D02*
X173666190Y-91637295D01*
X173666190Y-91637295D02*
X173742381Y-91675390D01*
X173742381Y-91675390D02*
X173780476Y-91713485D01*
X173780476Y-91713485D02*
X173818571Y-91789676D01*
X173818571Y-91789676D02*
X173818571Y-91865866D01*
X173818571Y-91865866D02*
X173780476Y-91942057D01*
X173780476Y-91942057D02*
X173742381Y-91980152D01*
X173742381Y-91980152D02*
X173666190Y-92018247D01*
X173666190Y-92018247D02*
X173399524Y-92018247D01*
X174542381Y-91903961D02*
X174542381Y-92437295D01*
X174351905Y-91599200D02*
X174161428Y-92170628D01*
X174161428Y-92170628D02*
X174656667Y-92170628D01*
X171126190Y-92018247D02*
X171240476Y-92056342D01*
X171240476Y-92056342D02*
X171278571Y-92094438D01*
X171278571Y-92094438D02*
X171316667Y-92170628D01*
X171316667Y-92170628D02*
X171316667Y-92284914D01*
X171316667Y-92284914D02*
X171278571Y-92361104D01*
X171278571Y-92361104D02*
X171240476Y-92399200D01*
X171240476Y-92399200D02*
X171164286Y-92437295D01*
X171164286Y-92437295D02*
X170859524Y-92437295D01*
X170859524Y-92437295D02*
X170859524Y-91637295D01*
X170859524Y-91637295D02*
X171126190Y-91637295D01*
X171126190Y-91637295D02*
X171202381Y-91675390D01*
X171202381Y-91675390D02*
X171240476Y-91713485D01*
X171240476Y-91713485D02*
X171278571Y-91789676D01*
X171278571Y-91789676D02*
X171278571Y-91865866D01*
X171278571Y-91865866D02*
X171240476Y-91942057D01*
X171240476Y-91942057D02*
X171202381Y-91980152D01*
X171202381Y-91980152D02*
X171126190Y-92018247D01*
X171126190Y-92018247D02*
X170859524Y-92018247D01*
X172040476Y-91637295D02*
X171659524Y-91637295D01*
X171659524Y-91637295D02*
X171621428Y-92018247D01*
X171621428Y-92018247D02*
X171659524Y-91980152D01*
X171659524Y-91980152D02*
X171735714Y-91942057D01*
X171735714Y-91942057D02*
X171926190Y-91942057D01*
X171926190Y-91942057D02*
X172002381Y-91980152D01*
X172002381Y-91980152D02*
X172040476Y-92018247D01*
X172040476Y-92018247D02*
X172078571Y-92094438D01*
X172078571Y-92094438D02*
X172078571Y-92284914D01*
X172078571Y-92284914D02*
X172040476Y-92361104D01*
X172040476Y-92361104D02*
X172002381Y-92399200D01*
X172002381Y-92399200D02*
X171926190Y-92437295D01*
X171926190Y-92437295D02*
X171735714Y-92437295D01*
X171735714Y-92437295D02*
X171659524Y-92399200D01*
X171659524Y-92399200D02*
X171621428Y-92361104D01*
X168586190Y-92018247D02*
X168700476Y-92056342D01*
X168700476Y-92056342D02*
X168738571Y-92094438D01*
X168738571Y-92094438D02*
X168776667Y-92170628D01*
X168776667Y-92170628D02*
X168776667Y-92284914D01*
X168776667Y-92284914D02*
X168738571Y-92361104D01*
X168738571Y-92361104D02*
X168700476Y-92399200D01*
X168700476Y-92399200D02*
X168624286Y-92437295D01*
X168624286Y-92437295D02*
X168319524Y-92437295D01*
X168319524Y-92437295D02*
X168319524Y-91637295D01*
X168319524Y-91637295D02*
X168586190Y-91637295D01*
X168586190Y-91637295D02*
X168662381Y-91675390D01*
X168662381Y-91675390D02*
X168700476Y-91713485D01*
X168700476Y-91713485D02*
X168738571Y-91789676D01*
X168738571Y-91789676D02*
X168738571Y-91865866D01*
X168738571Y-91865866D02*
X168700476Y-91942057D01*
X168700476Y-91942057D02*
X168662381Y-91980152D01*
X168662381Y-91980152D02*
X168586190Y-92018247D01*
X168586190Y-92018247D02*
X168319524Y-92018247D01*
X169462381Y-91637295D02*
X169310000Y-91637295D01*
X169310000Y-91637295D02*
X169233809Y-91675390D01*
X169233809Y-91675390D02*
X169195714Y-91713485D01*
X169195714Y-91713485D02*
X169119524Y-91827771D01*
X169119524Y-91827771D02*
X169081428Y-91980152D01*
X169081428Y-91980152D02*
X169081428Y-92284914D01*
X169081428Y-92284914D02*
X169119524Y-92361104D01*
X169119524Y-92361104D02*
X169157619Y-92399200D01*
X169157619Y-92399200D02*
X169233809Y-92437295D01*
X169233809Y-92437295D02*
X169386190Y-92437295D01*
X169386190Y-92437295D02*
X169462381Y-92399200D01*
X169462381Y-92399200D02*
X169500476Y-92361104D01*
X169500476Y-92361104D02*
X169538571Y-92284914D01*
X169538571Y-92284914D02*
X169538571Y-92094438D01*
X169538571Y-92094438D02*
X169500476Y-92018247D01*
X169500476Y-92018247D02*
X169462381Y-91980152D01*
X169462381Y-91980152D02*
X169386190Y-91942057D01*
X169386190Y-91942057D02*
X169233809Y-91942057D01*
X169233809Y-91942057D02*
X169157619Y-91980152D01*
X169157619Y-91980152D02*
X169119524Y-92018247D01*
X169119524Y-92018247D02*
X169081428Y-92094438D01*
X166046190Y-92018247D02*
X166160476Y-92056342D01*
X166160476Y-92056342D02*
X166198571Y-92094438D01*
X166198571Y-92094438D02*
X166236667Y-92170628D01*
X166236667Y-92170628D02*
X166236667Y-92284914D01*
X166236667Y-92284914D02*
X166198571Y-92361104D01*
X166198571Y-92361104D02*
X166160476Y-92399200D01*
X166160476Y-92399200D02*
X166084286Y-92437295D01*
X166084286Y-92437295D02*
X165779524Y-92437295D01*
X165779524Y-92437295D02*
X165779524Y-91637295D01*
X165779524Y-91637295D02*
X166046190Y-91637295D01*
X166046190Y-91637295D02*
X166122381Y-91675390D01*
X166122381Y-91675390D02*
X166160476Y-91713485D01*
X166160476Y-91713485D02*
X166198571Y-91789676D01*
X166198571Y-91789676D02*
X166198571Y-91865866D01*
X166198571Y-91865866D02*
X166160476Y-91942057D01*
X166160476Y-91942057D02*
X166122381Y-91980152D01*
X166122381Y-91980152D02*
X166046190Y-92018247D01*
X166046190Y-92018247D02*
X165779524Y-92018247D01*
X166503333Y-91637295D02*
X167036667Y-91637295D01*
X167036667Y-91637295D02*
X166693809Y-92437295D01*
X163506190Y-92018247D02*
X163620476Y-92056342D01*
X163620476Y-92056342D02*
X163658571Y-92094438D01*
X163658571Y-92094438D02*
X163696667Y-92170628D01*
X163696667Y-92170628D02*
X163696667Y-92284914D01*
X163696667Y-92284914D02*
X163658571Y-92361104D01*
X163658571Y-92361104D02*
X163620476Y-92399200D01*
X163620476Y-92399200D02*
X163544286Y-92437295D01*
X163544286Y-92437295D02*
X163239524Y-92437295D01*
X163239524Y-92437295D02*
X163239524Y-91637295D01*
X163239524Y-91637295D02*
X163506190Y-91637295D01*
X163506190Y-91637295D02*
X163582381Y-91675390D01*
X163582381Y-91675390D02*
X163620476Y-91713485D01*
X163620476Y-91713485D02*
X163658571Y-91789676D01*
X163658571Y-91789676D02*
X163658571Y-91865866D01*
X163658571Y-91865866D02*
X163620476Y-91942057D01*
X163620476Y-91942057D02*
X163582381Y-91980152D01*
X163582381Y-91980152D02*
X163506190Y-92018247D01*
X163506190Y-92018247D02*
X163239524Y-92018247D01*
X164153809Y-91980152D02*
X164077619Y-91942057D01*
X164077619Y-91942057D02*
X164039524Y-91903961D01*
X164039524Y-91903961D02*
X164001428Y-91827771D01*
X164001428Y-91827771D02*
X164001428Y-91789676D01*
X164001428Y-91789676D02*
X164039524Y-91713485D01*
X164039524Y-91713485D02*
X164077619Y-91675390D01*
X164077619Y-91675390D02*
X164153809Y-91637295D01*
X164153809Y-91637295D02*
X164306190Y-91637295D01*
X164306190Y-91637295D02*
X164382381Y-91675390D01*
X164382381Y-91675390D02*
X164420476Y-91713485D01*
X164420476Y-91713485D02*
X164458571Y-91789676D01*
X164458571Y-91789676D02*
X164458571Y-91827771D01*
X164458571Y-91827771D02*
X164420476Y-91903961D01*
X164420476Y-91903961D02*
X164382381Y-91942057D01*
X164382381Y-91942057D02*
X164306190Y-91980152D01*
X164306190Y-91980152D02*
X164153809Y-91980152D01*
X164153809Y-91980152D02*
X164077619Y-92018247D01*
X164077619Y-92018247D02*
X164039524Y-92056342D01*
X164039524Y-92056342D02*
X164001428Y-92132533D01*
X164001428Y-92132533D02*
X164001428Y-92284914D01*
X164001428Y-92284914D02*
X164039524Y-92361104D01*
X164039524Y-92361104D02*
X164077619Y-92399200D01*
X164077619Y-92399200D02*
X164153809Y-92437295D01*
X164153809Y-92437295D02*
X164306190Y-92437295D01*
X164306190Y-92437295D02*
X164382381Y-92399200D01*
X164382381Y-92399200D02*
X164420476Y-92361104D01*
X164420476Y-92361104D02*
X164458571Y-92284914D01*
X164458571Y-92284914D02*
X164458571Y-92132533D01*
X164458571Y-92132533D02*
X164420476Y-92056342D01*
X164420476Y-92056342D02*
X164382381Y-92018247D01*
X164382381Y-92018247D02*
X164306190Y-91980152D01*
X160966190Y-92018247D02*
X161080476Y-92056342D01*
X161080476Y-92056342D02*
X161118571Y-92094438D01*
X161118571Y-92094438D02*
X161156667Y-92170628D01*
X161156667Y-92170628D02*
X161156667Y-92284914D01*
X161156667Y-92284914D02*
X161118571Y-92361104D01*
X161118571Y-92361104D02*
X161080476Y-92399200D01*
X161080476Y-92399200D02*
X161004286Y-92437295D01*
X161004286Y-92437295D02*
X160699524Y-92437295D01*
X160699524Y-92437295D02*
X160699524Y-91637295D01*
X160699524Y-91637295D02*
X160966190Y-91637295D01*
X160966190Y-91637295D02*
X161042381Y-91675390D01*
X161042381Y-91675390D02*
X161080476Y-91713485D01*
X161080476Y-91713485D02*
X161118571Y-91789676D01*
X161118571Y-91789676D02*
X161118571Y-91865866D01*
X161118571Y-91865866D02*
X161080476Y-91942057D01*
X161080476Y-91942057D02*
X161042381Y-91980152D01*
X161042381Y-91980152D02*
X160966190Y-92018247D01*
X160966190Y-92018247D02*
X160699524Y-92018247D01*
X161537619Y-92437295D02*
X161690000Y-92437295D01*
X161690000Y-92437295D02*
X161766190Y-92399200D01*
X161766190Y-92399200D02*
X161804286Y-92361104D01*
X161804286Y-92361104D02*
X161880476Y-92246819D01*
X161880476Y-92246819D02*
X161918571Y-92094438D01*
X161918571Y-92094438D02*
X161918571Y-91789676D01*
X161918571Y-91789676D02*
X161880476Y-91713485D01*
X161880476Y-91713485D02*
X161842381Y-91675390D01*
X161842381Y-91675390D02*
X161766190Y-91637295D01*
X161766190Y-91637295D02*
X161613809Y-91637295D01*
X161613809Y-91637295D02*
X161537619Y-91675390D01*
X161537619Y-91675390D02*
X161499524Y-91713485D01*
X161499524Y-91713485D02*
X161461428Y-91789676D01*
X161461428Y-91789676D02*
X161461428Y-91980152D01*
X161461428Y-91980152D02*
X161499524Y-92056342D01*
X161499524Y-92056342D02*
X161537619Y-92094438D01*
X161537619Y-92094438D02*
X161613809Y-92132533D01*
X161613809Y-92132533D02*
X161766190Y-92132533D01*
X161766190Y-92132533D02*
X161842381Y-92094438D01*
X161842381Y-92094438D02*
X161880476Y-92056342D01*
X161880476Y-92056342D02*
X161918571Y-91980152D01*
X152679523Y-110687295D02*
X153174761Y-110687295D01*
X153174761Y-110687295D02*
X152908095Y-110992057D01*
X152908095Y-110992057D02*
X153022380Y-110992057D01*
X153022380Y-110992057D02*
X153098571Y-111030152D01*
X153098571Y-111030152D02*
X153136666Y-111068247D01*
X153136666Y-111068247D02*
X153174761Y-111144438D01*
X153174761Y-111144438D02*
X153174761Y-111334914D01*
X153174761Y-111334914D02*
X153136666Y-111411104D01*
X153136666Y-111411104D02*
X153098571Y-111449200D01*
X153098571Y-111449200D02*
X153022380Y-111487295D01*
X153022380Y-111487295D02*
X152793809Y-111487295D01*
X152793809Y-111487295D02*
X152717618Y-111449200D01*
X152717618Y-111449200D02*
X152679523Y-111411104D01*
X153403333Y-110687295D02*
X153670000Y-111487295D01*
X153670000Y-111487295D02*
X153936666Y-110687295D01*
X154127142Y-110687295D02*
X154622380Y-110687295D01*
X154622380Y-110687295D02*
X154355714Y-110992057D01*
X154355714Y-110992057D02*
X154469999Y-110992057D01*
X154469999Y-110992057D02*
X154546190Y-111030152D01*
X154546190Y-111030152D02*
X154584285Y-111068247D01*
X154584285Y-111068247D02*
X154622380Y-111144438D01*
X154622380Y-111144438D02*
X154622380Y-111334914D01*
X154622380Y-111334914D02*
X154584285Y-111411104D01*
X154584285Y-111411104D02*
X154546190Y-111449200D01*
X154546190Y-111449200D02*
X154469999Y-111487295D01*
X154469999Y-111487295D02*
X154241428Y-111487295D01*
X154241428Y-111487295D02*
X154165237Y-111449200D01*
X154165237Y-111449200D02*
X154127142Y-111411104D01*
X155695714Y-111411104D02*
X155657618Y-111449200D01*
X155657618Y-111449200D02*
X155543333Y-111487295D01*
X155543333Y-111487295D02*
X155467142Y-111487295D01*
X155467142Y-111487295D02*
X155352856Y-111449200D01*
X155352856Y-111449200D02*
X155276666Y-111373009D01*
X155276666Y-111373009D02*
X155238571Y-111296819D01*
X155238571Y-111296819D02*
X155200475Y-111144438D01*
X155200475Y-111144438D02*
X155200475Y-111030152D01*
X155200475Y-111030152D02*
X155238571Y-110877771D01*
X155238571Y-110877771D02*
X155276666Y-110801580D01*
X155276666Y-110801580D02*
X155352856Y-110725390D01*
X155352856Y-110725390D02*
X155467142Y-110687295D01*
X155467142Y-110687295D02*
X155543333Y-110687295D01*
X155543333Y-110687295D02*
X155657618Y-110725390D01*
X155657618Y-110725390D02*
X155695714Y-110763485D01*
X156457618Y-111487295D02*
X156000475Y-111487295D01*
X156229047Y-111487295D02*
X156229047Y-110687295D01*
X156229047Y-110687295D02*
X156152856Y-110801580D01*
X156152856Y-110801580D02*
X156076666Y-110877771D01*
X156076666Y-110877771D02*
X156000475Y-110915866D01*
X156724285Y-110687295D02*
X157219523Y-110687295D01*
X157219523Y-110687295D02*
X156952857Y-110992057D01*
X156952857Y-110992057D02*
X157067142Y-110992057D01*
X157067142Y-110992057D02*
X157143333Y-111030152D01*
X157143333Y-111030152D02*
X157181428Y-111068247D01*
X157181428Y-111068247D02*
X157219523Y-111144438D01*
X157219523Y-111144438D02*
X157219523Y-111334914D01*
X157219523Y-111334914D02*
X157181428Y-111411104D01*
X157181428Y-111411104D02*
X157143333Y-111449200D01*
X157143333Y-111449200D02*
X157067142Y-111487295D01*
X157067142Y-111487295D02*
X156838571Y-111487295D01*
X156838571Y-111487295D02*
X156762380Y-111449200D01*
X156762380Y-111449200D02*
X156724285Y-111411104D01*
X158235714Y-111411104D02*
X158197618Y-111449200D01*
X158197618Y-111449200D02*
X158083333Y-111487295D01*
X158083333Y-111487295D02*
X158007142Y-111487295D01*
X158007142Y-111487295D02*
X157892856Y-111449200D01*
X157892856Y-111449200D02*
X157816666Y-111373009D01*
X157816666Y-111373009D02*
X157778571Y-111296819D01*
X157778571Y-111296819D02*
X157740475Y-111144438D01*
X157740475Y-111144438D02*
X157740475Y-111030152D01*
X157740475Y-111030152D02*
X157778571Y-110877771D01*
X157778571Y-110877771D02*
X157816666Y-110801580D01*
X157816666Y-110801580D02*
X157892856Y-110725390D01*
X157892856Y-110725390D02*
X158007142Y-110687295D01*
X158007142Y-110687295D02*
X158083333Y-110687295D01*
X158083333Y-110687295D02*
X158197618Y-110725390D01*
X158197618Y-110725390D02*
X158235714Y-110763485D01*
X158997618Y-111487295D02*
X158540475Y-111487295D01*
X158769047Y-111487295D02*
X158769047Y-110687295D01*
X158769047Y-110687295D02*
X158692856Y-110801580D01*
X158692856Y-110801580D02*
X158616666Y-110877771D01*
X158616666Y-110877771D02*
X158540475Y-110915866D01*
X159683333Y-110953961D02*
X159683333Y-111487295D01*
X159492857Y-110649200D02*
X159302380Y-111220628D01*
X159302380Y-111220628D02*
X159797619Y-111220628D01*
X160775714Y-111411104D02*
X160737618Y-111449200D01*
X160737618Y-111449200D02*
X160623333Y-111487295D01*
X160623333Y-111487295D02*
X160547142Y-111487295D01*
X160547142Y-111487295D02*
X160432856Y-111449200D01*
X160432856Y-111449200D02*
X160356666Y-111373009D01*
X160356666Y-111373009D02*
X160318571Y-111296819D01*
X160318571Y-111296819D02*
X160280475Y-111144438D01*
X160280475Y-111144438D02*
X160280475Y-111030152D01*
X160280475Y-111030152D02*
X160318571Y-110877771D01*
X160318571Y-110877771D02*
X160356666Y-110801580D01*
X160356666Y-110801580D02*
X160432856Y-110725390D01*
X160432856Y-110725390D02*
X160547142Y-110687295D01*
X160547142Y-110687295D02*
X160623333Y-110687295D01*
X160623333Y-110687295D02*
X160737618Y-110725390D01*
X160737618Y-110725390D02*
X160775714Y-110763485D01*
X161537618Y-111487295D02*
X161080475Y-111487295D01*
X161309047Y-111487295D02*
X161309047Y-110687295D01*
X161309047Y-110687295D02*
X161232856Y-110801580D01*
X161232856Y-110801580D02*
X161156666Y-110877771D01*
X161156666Y-110877771D02*
X161080475Y-110915866D01*
X162261428Y-110687295D02*
X161880476Y-110687295D01*
X161880476Y-110687295D02*
X161842380Y-111068247D01*
X161842380Y-111068247D02*
X161880476Y-111030152D01*
X161880476Y-111030152D02*
X161956666Y-110992057D01*
X161956666Y-110992057D02*
X162147142Y-110992057D01*
X162147142Y-110992057D02*
X162223333Y-111030152D01*
X162223333Y-111030152D02*
X162261428Y-111068247D01*
X162261428Y-111068247D02*
X162299523Y-111144438D01*
X162299523Y-111144438D02*
X162299523Y-111334914D01*
X162299523Y-111334914D02*
X162261428Y-111411104D01*
X162261428Y-111411104D02*
X162223333Y-111449200D01*
X162223333Y-111449200D02*
X162147142Y-111487295D01*
X162147142Y-111487295D02*
X161956666Y-111487295D01*
X161956666Y-111487295D02*
X161880476Y-111449200D01*
X161880476Y-111449200D02*
X161842380Y-111411104D01*
X165798571Y-111258723D02*
X166179524Y-111258723D01*
X165722381Y-111487295D02*
X165989048Y-110687295D01*
X165989048Y-110687295D02*
X166255714Y-111487295D01*
X166674762Y-110687295D02*
X166750952Y-110687295D01*
X166750952Y-110687295D02*
X166827143Y-110725390D01*
X166827143Y-110725390D02*
X166865238Y-110763485D01*
X166865238Y-110763485D02*
X166903333Y-110839676D01*
X166903333Y-110839676D02*
X166941428Y-110992057D01*
X166941428Y-110992057D02*
X166941428Y-111182533D01*
X166941428Y-111182533D02*
X166903333Y-111334914D01*
X166903333Y-111334914D02*
X166865238Y-111411104D01*
X166865238Y-111411104D02*
X166827143Y-111449200D01*
X166827143Y-111449200D02*
X166750952Y-111487295D01*
X166750952Y-111487295D02*
X166674762Y-111487295D01*
X166674762Y-111487295D02*
X166598571Y-111449200D01*
X166598571Y-111449200D02*
X166560476Y-111411104D01*
X166560476Y-111411104D02*
X166522381Y-111334914D01*
X166522381Y-111334914D02*
X166484285Y-111182533D01*
X166484285Y-111182533D02*
X166484285Y-110992057D01*
X166484285Y-110992057D02*
X166522381Y-110839676D01*
X166522381Y-110839676D02*
X166560476Y-110763485D01*
X166560476Y-110763485D02*
X166598571Y-110725390D01*
X166598571Y-110725390D02*
X166674762Y-110687295D01*
X168338571Y-111258723D02*
X168719524Y-111258723D01*
X168262381Y-111487295D02*
X168529048Y-110687295D01*
X168529048Y-110687295D02*
X168795714Y-111487295D01*
X169481428Y-111487295D02*
X169024285Y-111487295D01*
X169252857Y-111487295D02*
X169252857Y-110687295D01*
X169252857Y-110687295D02*
X169176666Y-110801580D01*
X169176666Y-110801580D02*
X169100476Y-110877771D01*
X169100476Y-110877771D02*
X169024285Y-110915866D01*
X173418571Y-111258723D02*
X173799524Y-111258723D01*
X173342381Y-111487295D02*
X173609048Y-110687295D01*
X173609048Y-110687295D02*
X173875714Y-111487295D01*
X174066190Y-110687295D02*
X174561428Y-110687295D01*
X174561428Y-110687295D02*
X174294762Y-110992057D01*
X174294762Y-110992057D02*
X174409047Y-110992057D01*
X174409047Y-110992057D02*
X174485238Y-111030152D01*
X174485238Y-111030152D02*
X174523333Y-111068247D01*
X174523333Y-111068247D02*
X174561428Y-111144438D01*
X174561428Y-111144438D02*
X174561428Y-111334914D01*
X174561428Y-111334914D02*
X174523333Y-111411104D01*
X174523333Y-111411104D02*
X174485238Y-111449200D01*
X174485238Y-111449200D02*
X174409047Y-111487295D01*
X174409047Y-111487295D02*
X174180476Y-111487295D01*
X174180476Y-111487295D02*
X174104285Y-111449200D01*
X174104285Y-111449200D02*
X174066190Y-111411104D01*
X175958571Y-111258723D02*
X176339524Y-111258723D01*
X175882381Y-111487295D02*
X176149048Y-110687295D01*
X176149048Y-110687295D02*
X176415714Y-111487295D01*
X177025238Y-110953961D02*
X177025238Y-111487295D01*
X176834762Y-110649200D02*
X176644285Y-111220628D01*
X176644285Y-111220628D02*
X177139524Y-111220628D01*
X178498571Y-111258723D02*
X178879524Y-111258723D01*
X178422381Y-111487295D02*
X178689048Y-110687295D01*
X178689048Y-110687295D02*
X178955714Y-111487295D01*
X179603333Y-110687295D02*
X179222381Y-110687295D01*
X179222381Y-110687295D02*
X179184285Y-111068247D01*
X179184285Y-111068247D02*
X179222381Y-111030152D01*
X179222381Y-111030152D02*
X179298571Y-110992057D01*
X179298571Y-110992057D02*
X179489047Y-110992057D01*
X179489047Y-110992057D02*
X179565238Y-111030152D01*
X179565238Y-111030152D02*
X179603333Y-111068247D01*
X179603333Y-111068247D02*
X179641428Y-111144438D01*
X179641428Y-111144438D02*
X179641428Y-111334914D01*
X179641428Y-111334914D02*
X179603333Y-111411104D01*
X179603333Y-111411104D02*
X179565238Y-111449200D01*
X179565238Y-111449200D02*
X179489047Y-111487295D01*
X179489047Y-111487295D02*
X179298571Y-111487295D01*
X179298571Y-111487295D02*
X179222381Y-111449200D01*
X179222381Y-111449200D02*
X179184285Y-111411104D01*
X181038571Y-111258723D02*
X181419524Y-111258723D01*
X180962381Y-111487295D02*
X181229048Y-110687295D01*
X181229048Y-110687295D02*
X181495714Y-111487295D01*
X182105238Y-110687295D02*
X181952857Y-110687295D01*
X181952857Y-110687295D02*
X181876666Y-110725390D01*
X181876666Y-110725390D02*
X181838571Y-110763485D01*
X181838571Y-110763485D02*
X181762381Y-110877771D01*
X181762381Y-110877771D02*
X181724285Y-111030152D01*
X181724285Y-111030152D02*
X181724285Y-111334914D01*
X181724285Y-111334914D02*
X181762381Y-111411104D01*
X181762381Y-111411104D02*
X181800476Y-111449200D01*
X181800476Y-111449200D02*
X181876666Y-111487295D01*
X181876666Y-111487295D02*
X182029047Y-111487295D01*
X182029047Y-111487295D02*
X182105238Y-111449200D01*
X182105238Y-111449200D02*
X182143333Y-111411104D01*
X182143333Y-111411104D02*
X182181428Y-111334914D01*
X182181428Y-111334914D02*
X182181428Y-111144438D01*
X182181428Y-111144438D02*
X182143333Y-111068247D01*
X182143333Y-111068247D02*
X182105238Y-111030152D01*
X182105238Y-111030152D02*
X182029047Y-110992057D01*
X182029047Y-110992057D02*
X181876666Y-110992057D01*
X181876666Y-110992057D02*
X181800476Y-111030152D01*
X181800476Y-111030152D02*
X181762381Y-111068247D01*
X181762381Y-111068247D02*
X181724285Y-111144438D01*
X183578571Y-111258723D02*
X183959524Y-111258723D01*
X183502381Y-111487295D02*
X183769048Y-110687295D01*
X183769048Y-110687295D02*
X184035714Y-111487295D01*
X184226190Y-110687295D02*
X184759524Y-110687295D01*
X184759524Y-110687295D02*
X184416666Y-111487295D01*
X186366190Y-111068247D02*
X186480476Y-111106342D01*
X186480476Y-111106342D02*
X186518571Y-111144438D01*
X186518571Y-111144438D02*
X186556667Y-111220628D01*
X186556667Y-111220628D02*
X186556667Y-111334914D01*
X186556667Y-111334914D02*
X186518571Y-111411104D01*
X186518571Y-111411104D02*
X186480476Y-111449200D01*
X186480476Y-111449200D02*
X186404286Y-111487295D01*
X186404286Y-111487295D02*
X186099524Y-111487295D01*
X186099524Y-111487295D02*
X186099524Y-110687295D01*
X186099524Y-110687295D02*
X186366190Y-110687295D01*
X186366190Y-110687295D02*
X186442381Y-110725390D01*
X186442381Y-110725390D02*
X186480476Y-110763485D01*
X186480476Y-110763485D02*
X186518571Y-110839676D01*
X186518571Y-110839676D02*
X186518571Y-110915866D01*
X186518571Y-110915866D02*
X186480476Y-110992057D01*
X186480476Y-110992057D02*
X186442381Y-111030152D01*
X186442381Y-111030152D02*
X186366190Y-111068247D01*
X186366190Y-111068247D02*
X186099524Y-111068247D01*
X187051905Y-110687295D02*
X187128095Y-110687295D01*
X187128095Y-110687295D02*
X187204286Y-110725390D01*
X187204286Y-110725390D02*
X187242381Y-110763485D01*
X187242381Y-110763485D02*
X187280476Y-110839676D01*
X187280476Y-110839676D02*
X187318571Y-110992057D01*
X187318571Y-110992057D02*
X187318571Y-111182533D01*
X187318571Y-111182533D02*
X187280476Y-111334914D01*
X187280476Y-111334914D02*
X187242381Y-111411104D01*
X187242381Y-111411104D02*
X187204286Y-111449200D01*
X187204286Y-111449200D02*
X187128095Y-111487295D01*
X187128095Y-111487295D02*
X187051905Y-111487295D01*
X187051905Y-111487295D02*
X186975714Y-111449200D01*
X186975714Y-111449200D02*
X186937619Y-111411104D01*
X186937619Y-111411104D02*
X186899524Y-111334914D01*
X186899524Y-111334914D02*
X186861428Y-111182533D01*
X186861428Y-111182533D02*
X186861428Y-110992057D01*
X186861428Y-110992057D02*
X186899524Y-110839676D01*
X186899524Y-110839676D02*
X186937619Y-110763485D01*
X186937619Y-110763485D02*
X186975714Y-110725390D01*
X186975714Y-110725390D02*
X187051905Y-110687295D01*
X188906190Y-111068247D02*
X189020476Y-111106342D01*
X189020476Y-111106342D02*
X189058571Y-111144438D01*
X189058571Y-111144438D02*
X189096667Y-111220628D01*
X189096667Y-111220628D02*
X189096667Y-111334914D01*
X189096667Y-111334914D02*
X189058571Y-111411104D01*
X189058571Y-111411104D02*
X189020476Y-111449200D01*
X189020476Y-111449200D02*
X188944286Y-111487295D01*
X188944286Y-111487295D02*
X188639524Y-111487295D01*
X188639524Y-111487295D02*
X188639524Y-110687295D01*
X188639524Y-110687295D02*
X188906190Y-110687295D01*
X188906190Y-110687295D02*
X188982381Y-110725390D01*
X188982381Y-110725390D02*
X189020476Y-110763485D01*
X189020476Y-110763485D02*
X189058571Y-110839676D01*
X189058571Y-110839676D02*
X189058571Y-110915866D01*
X189058571Y-110915866D02*
X189020476Y-110992057D01*
X189020476Y-110992057D02*
X188982381Y-111030152D01*
X188982381Y-111030152D02*
X188906190Y-111068247D01*
X188906190Y-111068247D02*
X188639524Y-111068247D01*
X189858571Y-111487295D02*
X189401428Y-111487295D01*
X189630000Y-111487295D02*
X189630000Y-110687295D01*
X189630000Y-110687295D02*
X189553809Y-110801580D01*
X189553809Y-110801580D02*
X189477619Y-110877771D01*
X189477619Y-110877771D02*
X189401428Y-110915866D01*
X191446190Y-111068247D02*
X191560476Y-111106342D01*
X191560476Y-111106342D02*
X191598571Y-111144438D01*
X191598571Y-111144438D02*
X191636667Y-111220628D01*
X191636667Y-111220628D02*
X191636667Y-111334914D01*
X191636667Y-111334914D02*
X191598571Y-111411104D01*
X191598571Y-111411104D02*
X191560476Y-111449200D01*
X191560476Y-111449200D02*
X191484286Y-111487295D01*
X191484286Y-111487295D02*
X191179524Y-111487295D01*
X191179524Y-111487295D02*
X191179524Y-110687295D01*
X191179524Y-110687295D02*
X191446190Y-110687295D01*
X191446190Y-110687295D02*
X191522381Y-110725390D01*
X191522381Y-110725390D02*
X191560476Y-110763485D01*
X191560476Y-110763485D02*
X191598571Y-110839676D01*
X191598571Y-110839676D02*
X191598571Y-110915866D01*
X191598571Y-110915866D02*
X191560476Y-110992057D01*
X191560476Y-110992057D02*
X191522381Y-111030152D01*
X191522381Y-111030152D02*
X191446190Y-111068247D01*
X191446190Y-111068247D02*
X191179524Y-111068247D01*
X191941428Y-110763485D02*
X191979524Y-110725390D01*
X191979524Y-110725390D02*
X192055714Y-110687295D01*
X192055714Y-110687295D02*
X192246190Y-110687295D01*
X192246190Y-110687295D02*
X192322381Y-110725390D01*
X192322381Y-110725390D02*
X192360476Y-110763485D01*
X192360476Y-110763485D02*
X192398571Y-110839676D01*
X192398571Y-110839676D02*
X192398571Y-110915866D01*
X192398571Y-110915866D02*
X192360476Y-111030152D01*
X192360476Y-111030152D02*
X191903333Y-111487295D01*
X191903333Y-111487295D02*
X192398571Y-111487295D01*
X193605237Y-111068247D02*
X193719523Y-111106342D01*
X193719523Y-111106342D02*
X193757618Y-111144438D01*
X193757618Y-111144438D02*
X193795714Y-111220628D01*
X193795714Y-111220628D02*
X193795714Y-111334914D01*
X193795714Y-111334914D02*
X193757618Y-111411104D01*
X193757618Y-111411104D02*
X193719523Y-111449200D01*
X193719523Y-111449200D02*
X193643333Y-111487295D01*
X193643333Y-111487295D02*
X193338571Y-111487295D01*
X193338571Y-111487295D02*
X193338571Y-110687295D01*
X193338571Y-110687295D02*
X193605237Y-110687295D01*
X193605237Y-110687295D02*
X193681428Y-110725390D01*
X193681428Y-110725390D02*
X193719523Y-110763485D01*
X193719523Y-110763485D02*
X193757618Y-110839676D01*
X193757618Y-110839676D02*
X193757618Y-110915866D01*
X193757618Y-110915866D02*
X193719523Y-110992057D01*
X193719523Y-110992057D02*
X193681428Y-111030152D01*
X193681428Y-111030152D02*
X193605237Y-111068247D01*
X193605237Y-111068247D02*
X193338571Y-111068247D01*
X194557618Y-111487295D02*
X194100475Y-111487295D01*
X194329047Y-111487295D02*
X194329047Y-110687295D01*
X194329047Y-110687295D02*
X194252856Y-110801580D01*
X194252856Y-110801580D02*
X194176666Y-110877771D01*
X194176666Y-110877771D02*
X194100475Y-110915866D01*
X195052857Y-110687295D02*
X195129047Y-110687295D01*
X195129047Y-110687295D02*
X195205238Y-110725390D01*
X195205238Y-110725390D02*
X195243333Y-110763485D01*
X195243333Y-110763485D02*
X195281428Y-110839676D01*
X195281428Y-110839676D02*
X195319523Y-110992057D01*
X195319523Y-110992057D02*
X195319523Y-111182533D01*
X195319523Y-111182533D02*
X195281428Y-111334914D01*
X195281428Y-111334914D02*
X195243333Y-111411104D01*
X195243333Y-111411104D02*
X195205238Y-111449200D01*
X195205238Y-111449200D02*
X195129047Y-111487295D01*
X195129047Y-111487295D02*
X195052857Y-111487295D01*
X195052857Y-111487295D02*
X194976666Y-111449200D01*
X194976666Y-111449200D02*
X194938571Y-111411104D01*
X194938571Y-111411104D02*
X194900476Y-111334914D01*
X194900476Y-111334914D02*
X194862380Y-111182533D01*
X194862380Y-111182533D02*
X194862380Y-110992057D01*
X194862380Y-110992057D02*
X194900476Y-110839676D01*
X194900476Y-110839676D02*
X194938571Y-110763485D01*
X194938571Y-110763485D02*
X194976666Y-110725390D01*
X194976666Y-110725390D02*
X195052857Y-110687295D01*
X163391905Y-111487295D02*
X163125238Y-111106342D01*
X162934762Y-111487295D02*
X162934762Y-110687295D01*
X162934762Y-110687295D02*
X163239524Y-110687295D01*
X163239524Y-110687295D02*
X163315714Y-110725390D01*
X163315714Y-110725390D02*
X163353809Y-110763485D01*
X163353809Y-110763485D02*
X163391905Y-110839676D01*
X163391905Y-110839676D02*
X163391905Y-110953961D01*
X163391905Y-110953961D02*
X163353809Y-111030152D01*
X163353809Y-111030152D02*
X163315714Y-111068247D01*
X163315714Y-111068247D02*
X163239524Y-111106342D01*
X163239524Y-111106342D02*
X162934762Y-111106342D01*
X163696666Y-111449200D02*
X163810952Y-111487295D01*
X163810952Y-111487295D02*
X164001428Y-111487295D01*
X164001428Y-111487295D02*
X164077619Y-111449200D01*
X164077619Y-111449200D02*
X164115714Y-111411104D01*
X164115714Y-111411104D02*
X164153809Y-111334914D01*
X164153809Y-111334914D02*
X164153809Y-111258723D01*
X164153809Y-111258723D02*
X164115714Y-111182533D01*
X164115714Y-111182533D02*
X164077619Y-111144438D01*
X164077619Y-111144438D02*
X164001428Y-111106342D01*
X164001428Y-111106342D02*
X163849047Y-111068247D01*
X163849047Y-111068247D02*
X163772857Y-111030152D01*
X163772857Y-111030152D02*
X163734762Y-110992057D01*
X163734762Y-110992057D02*
X163696666Y-110915866D01*
X163696666Y-110915866D02*
X163696666Y-110839676D01*
X163696666Y-110839676D02*
X163734762Y-110763485D01*
X163734762Y-110763485D02*
X163772857Y-110725390D01*
X163772857Y-110725390D02*
X163849047Y-110687295D01*
X163849047Y-110687295D02*
X164039524Y-110687295D01*
X164039524Y-110687295D02*
X164153809Y-110725390D01*
X164382381Y-110687295D02*
X164839524Y-110687295D01*
X164610952Y-111487295D02*
X164610952Y-110687295D01*
X195859523Y-110687295D02*
X196354761Y-110687295D01*
X196354761Y-110687295D02*
X196088095Y-110992057D01*
X196088095Y-110992057D02*
X196202380Y-110992057D01*
X196202380Y-110992057D02*
X196278571Y-111030152D01*
X196278571Y-111030152D02*
X196316666Y-111068247D01*
X196316666Y-111068247D02*
X196354761Y-111144438D01*
X196354761Y-111144438D02*
X196354761Y-111334914D01*
X196354761Y-111334914D02*
X196316666Y-111411104D01*
X196316666Y-111411104D02*
X196278571Y-111449200D01*
X196278571Y-111449200D02*
X196202380Y-111487295D01*
X196202380Y-111487295D02*
X195973809Y-111487295D01*
X195973809Y-111487295D02*
X195897618Y-111449200D01*
X195897618Y-111449200D02*
X195859523Y-111411104D01*
X196583333Y-110687295D02*
X196850000Y-111487295D01*
X196850000Y-111487295D02*
X197116666Y-110687295D01*
X197307142Y-110687295D02*
X197802380Y-110687295D01*
X197802380Y-110687295D02*
X197535714Y-110992057D01*
X197535714Y-110992057D02*
X197649999Y-110992057D01*
X197649999Y-110992057D02*
X197726190Y-111030152D01*
X197726190Y-111030152D02*
X197764285Y-111068247D01*
X197764285Y-111068247D02*
X197802380Y-111144438D01*
X197802380Y-111144438D02*
X197802380Y-111334914D01*
X197802380Y-111334914D02*
X197764285Y-111411104D01*
X197764285Y-111411104D02*
X197726190Y-111449200D01*
X197726190Y-111449200D02*
X197649999Y-111487295D01*
X197649999Y-111487295D02*
X197421428Y-111487295D01*
X197421428Y-111487295D02*
X197345237Y-111449200D01*
X197345237Y-111449200D02*
X197307142Y-111411104D01*
X201777619Y-110687295D02*
X201396667Y-110687295D01*
X201396667Y-110687295D02*
X201358571Y-111068247D01*
X201358571Y-111068247D02*
X201396667Y-111030152D01*
X201396667Y-111030152D02*
X201472857Y-110992057D01*
X201472857Y-110992057D02*
X201663333Y-110992057D01*
X201663333Y-110992057D02*
X201739524Y-111030152D01*
X201739524Y-111030152D02*
X201777619Y-111068247D01*
X201777619Y-111068247D02*
X201815714Y-111144438D01*
X201815714Y-111144438D02*
X201815714Y-111334914D01*
X201815714Y-111334914D02*
X201777619Y-111411104D01*
X201777619Y-111411104D02*
X201739524Y-111449200D01*
X201739524Y-111449200D02*
X201663333Y-111487295D01*
X201663333Y-111487295D02*
X201472857Y-111487295D01*
X201472857Y-111487295D02*
X201396667Y-111449200D01*
X201396667Y-111449200D02*
X201358571Y-111411104D01*
X202044286Y-110687295D02*
X202310953Y-111487295D01*
X202310953Y-111487295D02*
X202577619Y-110687295D01*
X198780476Y-110725390D02*
X198704286Y-110687295D01*
X198704286Y-110687295D02*
X198590000Y-110687295D01*
X198590000Y-110687295D02*
X198475714Y-110725390D01*
X198475714Y-110725390D02*
X198399524Y-110801580D01*
X198399524Y-110801580D02*
X198361429Y-110877771D01*
X198361429Y-110877771D02*
X198323333Y-111030152D01*
X198323333Y-111030152D02*
X198323333Y-111144438D01*
X198323333Y-111144438D02*
X198361429Y-111296819D01*
X198361429Y-111296819D02*
X198399524Y-111373009D01*
X198399524Y-111373009D02*
X198475714Y-111449200D01*
X198475714Y-111449200D02*
X198590000Y-111487295D01*
X198590000Y-111487295D02*
X198666191Y-111487295D01*
X198666191Y-111487295D02*
X198780476Y-111449200D01*
X198780476Y-111449200D02*
X198818572Y-111411104D01*
X198818572Y-111411104D02*
X198818572Y-111144438D01*
X198818572Y-111144438D02*
X198666191Y-111144438D01*
X199161429Y-111487295D02*
X199161429Y-110687295D01*
X199161429Y-110687295D02*
X199618572Y-111487295D01*
X199618572Y-111487295D02*
X199618572Y-110687295D01*
X199999524Y-111487295D02*
X199999524Y-110687295D01*
X199999524Y-110687295D02*
X200190000Y-110687295D01*
X200190000Y-110687295D02*
X200304286Y-110725390D01*
X200304286Y-110725390D02*
X200380476Y-110801580D01*
X200380476Y-110801580D02*
X200418571Y-110877771D01*
X200418571Y-110877771D02*
X200456667Y-111030152D01*
X200456667Y-111030152D02*
X200456667Y-111144438D01*
X200456667Y-111144438D02*
X200418571Y-111296819D01*
X200418571Y-111296819D02*
X200380476Y-111373009D01*
X200380476Y-111373009D02*
X200304286Y-111449200D01*
X200304286Y-111449200D02*
X200190000Y-111487295D01*
X200190000Y-111487295D02*
X199999524Y-111487295D01*
X158597619Y-91637295D02*
X158216667Y-91637295D01*
X158216667Y-91637295D02*
X158178571Y-92018247D01*
X158178571Y-92018247D02*
X158216667Y-91980152D01*
X158216667Y-91980152D02*
X158292857Y-91942057D01*
X158292857Y-91942057D02*
X158483333Y-91942057D01*
X158483333Y-91942057D02*
X158559524Y-91980152D01*
X158559524Y-91980152D02*
X158597619Y-92018247D01*
X158597619Y-92018247D02*
X158635714Y-92094438D01*
X158635714Y-92094438D02*
X158635714Y-92284914D01*
X158635714Y-92284914D02*
X158597619Y-92361104D01*
X158597619Y-92361104D02*
X158559524Y-92399200D01*
X158559524Y-92399200D02*
X158483333Y-92437295D01*
X158483333Y-92437295D02*
X158292857Y-92437295D01*
X158292857Y-92437295D02*
X158216667Y-92399200D01*
X158216667Y-92399200D02*
X158178571Y-92361104D01*
X158864286Y-91637295D02*
X159130953Y-92437295D01*
X159130953Y-92437295D02*
X159397619Y-91637295D01*
X155600476Y-91675390D02*
X155524286Y-91637295D01*
X155524286Y-91637295D02*
X155410000Y-91637295D01*
X155410000Y-91637295D02*
X155295714Y-91675390D01*
X155295714Y-91675390D02*
X155219524Y-91751580D01*
X155219524Y-91751580D02*
X155181429Y-91827771D01*
X155181429Y-91827771D02*
X155143333Y-91980152D01*
X155143333Y-91980152D02*
X155143333Y-92094438D01*
X155143333Y-92094438D02*
X155181429Y-92246819D01*
X155181429Y-92246819D02*
X155219524Y-92323009D01*
X155219524Y-92323009D02*
X155295714Y-92399200D01*
X155295714Y-92399200D02*
X155410000Y-92437295D01*
X155410000Y-92437295D02*
X155486191Y-92437295D01*
X155486191Y-92437295D02*
X155600476Y-92399200D01*
X155600476Y-92399200D02*
X155638572Y-92361104D01*
X155638572Y-92361104D02*
X155638572Y-92094438D01*
X155638572Y-92094438D02*
X155486191Y-92094438D01*
X155981429Y-92437295D02*
X155981429Y-91637295D01*
X155981429Y-91637295D02*
X156438572Y-92437295D01*
X156438572Y-92437295D02*
X156438572Y-91637295D01*
X156819524Y-92437295D02*
X156819524Y-91637295D01*
X156819524Y-91637295D02*
X157010000Y-91637295D01*
X157010000Y-91637295D02*
X157124286Y-91675390D01*
X157124286Y-91675390D02*
X157200476Y-91751580D01*
X157200476Y-91751580D02*
X157238571Y-91827771D01*
X157238571Y-91827771D02*
X157276667Y-91980152D01*
X157276667Y-91980152D02*
X157276667Y-92094438D01*
X157276667Y-92094438D02*
X157238571Y-92246819D01*
X157238571Y-92246819D02*
X157200476Y-92323009D01*
X157200476Y-92323009D02*
X157124286Y-92399200D01*
X157124286Y-92399200D02*
X157010000Y-92437295D01*
X157010000Y-92437295D02*
X156819524Y-92437295D01*
X152679523Y-91637295D02*
X153174761Y-91637295D01*
X153174761Y-91637295D02*
X152908095Y-91942057D01*
X152908095Y-91942057D02*
X153022380Y-91942057D01*
X153022380Y-91942057D02*
X153098571Y-91980152D01*
X153098571Y-91980152D02*
X153136666Y-92018247D01*
X153136666Y-92018247D02*
X153174761Y-92094438D01*
X153174761Y-92094438D02*
X153174761Y-92284914D01*
X153174761Y-92284914D02*
X153136666Y-92361104D01*
X153136666Y-92361104D02*
X153098571Y-92399200D01*
X153098571Y-92399200D02*
X153022380Y-92437295D01*
X153022380Y-92437295D02*
X152793809Y-92437295D01*
X152793809Y-92437295D02*
X152717618Y-92399200D01*
X152717618Y-92399200D02*
X152679523Y-92361104D01*
X153403333Y-91637295D02*
X153670000Y-92437295D01*
X153670000Y-92437295D02*
X153936666Y-91637295D01*
X154127142Y-91637295D02*
X154622380Y-91637295D01*
X154622380Y-91637295D02*
X154355714Y-91942057D01*
X154355714Y-91942057D02*
X154469999Y-91942057D01*
X154469999Y-91942057D02*
X154546190Y-91980152D01*
X154546190Y-91980152D02*
X154584285Y-92018247D01*
X154584285Y-92018247D02*
X154622380Y-92094438D01*
X154622380Y-92094438D02*
X154622380Y-92284914D01*
X154622380Y-92284914D02*
X154584285Y-92361104D01*
X154584285Y-92361104D02*
X154546190Y-92399200D01*
X154546190Y-92399200D02*
X154469999Y-92437295D01*
X154469999Y-92437295D02*
X154241428Y-92437295D01*
X154241428Y-92437295D02*
X154165237Y-92399200D01*
X154165237Y-92399200D02*
X154127142Y-92361104D01*
X170878571Y-111258723D02*
X171259524Y-111258723D01*
X170802381Y-111487295D02*
X171069048Y-110687295D01*
X171069048Y-110687295D02*
X171335714Y-111487295D01*
X171564285Y-110763485D02*
X171602381Y-110725390D01*
X171602381Y-110725390D02*
X171678571Y-110687295D01*
X171678571Y-110687295D02*
X171869047Y-110687295D01*
X171869047Y-110687295D02*
X171945238Y-110725390D01*
X171945238Y-110725390D02*
X171983333Y-110763485D01*
X171983333Y-110763485D02*
X172021428Y-110839676D01*
X172021428Y-110839676D02*
X172021428Y-110915866D01*
X172021428Y-110915866D02*
X171983333Y-111030152D01*
X171983333Y-111030152D02*
X171526190Y-111487295D01*
X171526190Y-111487295D02*
X172021428Y-111487295D01*
X159747295Y-105213094D02*
X159366342Y-105479761D01*
X159747295Y-105670237D02*
X158947295Y-105670237D01*
X158947295Y-105670237D02*
X158947295Y-105365475D01*
X158947295Y-105365475D02*
X158985390Y-105289285D01*
X158985390Y-105289285D02*
X159023485Y-105251190D01*
X159023485Y-105251190D02*
X159099676Y-105213094D01*
X159099676Y-105213094D02*
X159213961Y-105213094D01*
X159213961Y-105213094D02*
X159290152Y-105251190D01*
X159290152Y-105251190D02*
X159328247Y-105289285D01*
X159328247Y-105289285D02*
X159366342Y-105365475D01*
X159366342Y-105365475D02*
X159366342Y-105670237D01*
X159709200Y-104908333D02*
X159747295Y-104794047D01*
X159747295Y-104794047D02*
X159747295Y-104603571D01*
X159747295Y-104603571D02*
X159709200Y-104527380D01*
X159709200Y-104527380D02*
X159671104Y-104489285D01*
X159671104Y-104489285D02*
X159594914Y-104451190D01*
X159594914Y-104451190D02*
X159518723Y-104451190D01*
X159518723Y-104451190D02*
X159442533Y-104489285D01*
X159442533Y-104489285D02*
X159404438Y-104527380D01*
X159404438Y-104527380D02*
X159366342Y-104603571D01*
X159366342Y-104603571D02*
X159328247Y-104755952D01*
X159328247Y-104755952D02*
X159290152Y-104832142D01*
X159290152Y-104832142D02*
X159252057Y-104870237D01*
X159252057Y-104870237D02*
X159175866Y-104908333D01*
X159175866Y-104908333D02*
X159099676Y-104908333D01*
X159099676Y-104908333D02*
X159023485Y-104870237D01*
X159023485Y-104870237D02*
X158985390Y-104832142D01*
X158985390Y-104832142D02*
X158947295Y-104755952D01*
X158947295Y-104755952D02*
X158947295Y-104565475D01*
X158947295Y-104565475D02*
X158985390Y-104451190D01*
X158947295Y-104222618D02*
X158947295Y-103765475D01*
X159747295Y-103994047D02*
X158947295Y-103994047D01*
X184839173Y-101886104D02*
X184801077Y-101924200D01*
X184801077Y-101924200D02*
X184686792Y-101962295D01*
X184686792Y-101962295D02*
X184610601Y-101962295D01*
X184610601Y-101962295D02*
X184496315Y-101924200D01*
X184496315Y-101924200D02*
X184420125Y-101848009D01*
X184420125Y-101848009D02*
X184382030Y-101771819D01*
X184382030Y-101771819D02*
X184343934Y-101619438D01*
X184343934Y-101619438D02*
X184343934Y-101505152D01*
X184343934Y-101505152D02*
X184382030Y-101352771D01*
X184382030Y-101352771D02*
X184420125Y-101276580D01*
X184420125Y-101276580D02*
X184496315Y-101200390D01*
X184496315Y-101200390D02*
X184610601Y-101162295D01*
X184610601Y-101162295D02*
X184686792Y-101162295D01*
X184686792Y-101162295D02*
X184801077Y-101200390D01*
X184801077Y-101200390D02*
X184839173Y-101238485D01*
X185601077Y-101962295D02*
X185143934Y-101962295D01*
X185372506Y-101962295D02*
X185372506Y-101162295D01*
X185372506Y-101162295D02*
X185296315Y-101276580D01*
X185296315Y-101276580D02*
X185220125Y-101352771D01*
X185220125Y-101352771D02*
X185143934Y-101390866D01*
X185867744Y-101162295D02*
X186362982Y-101162295D01*
X186362982Y-101162295D02*
X186096316Y-101467057D01*
X186096316Y-101467057D02*
X186210601Y-101467057D01*
X186210601Y-101467057D02*
X186286792Y-101505152D01*
X186286792Y-101505152D02*
X186324887Y-101543247D01*
X186324887Y-101543247D02*
X186362982Y-101619438D01*
X186362982Y-101619438D02*
X186362982Y-101809914D01*
X186362982Y-101809914D02*
X186324887Y-101886104D01*
X186324887Y-101886104D02*
X186286792Y-101924200D01*
X186286792Y-101924200D02*
X186210601Y-101962295D01*
X186210601Y-101962295D02*
X185982030Y-101962295D01*
X185982030Y-101962295D02*
X185905839Y-101924200D01*
X185905839Y-101924200D02*
X185867744Y-101886104D01*
X186705840Y-101657533D02*
X187315364Y-101657533D01*
X187696316Y-101428961D02*
X188305840Y-101657533D01*
X188305840Y-101657533D02*
X187696316Y-101886104D01*
X159328247Y-98748809D02*
X159366342Y-98634523D01*
X159366342Y-98634523D02*
X159404438Y-98596428D01*
X159404438Y-98596428D02*
X159480628Y-98558332D01*
X159480628Y-98558332D02*
X159594914Y-98558332D01*
X159594914Y-98558332D02*
X159671104Y-98596428D01*
X159671104Y-98596428D02*
X159709200Y-98634523D01*
X159709200Y-98634523D02*
X159747295Y-98710713D01*
X159747295Y-98710713D02*
X159747295Y-99015475D01*
X159747295Y-99015475D02*
X158947295Y-99015475D01*
X158947295Y-99015475D02*
X158947295Y-98748809D01*
X158947295Y-98748809D02*
X158985390Y-98672618D01*
X158985390Y-98672618D02*
X159023485Y-98634523D01*
X159023485Y-98634523D02*
X159099676Y-98596428D01*
X159099676Y-98596428D02*
X159175866Y-98596428D01*
X159175866Y-98596428D02*
X159252057Y-98634523D01*
X159252057Y-98634523D02*
X159290152Y-98672618D01*
X159290152Y-98672618D02*
X159328247Y-98748809D01*
X159328247Y-98748809D02*
X159328247Y-99015475D01*
X158947295Y-98063094D02*
X158947295Y-97986904D01*
X158947295Y-97986904D02*
X158985390Y-97910713D01*
X158985390Y-97910713D02*
X159023485Y-97872618D01*
X159023485Y-97872618D02*
X159099676Y-97834523D01*
X159099676Y-97834523D02*
X159252057Y-97796428D01*
X159252057Y-97796428D02*
X159442533Y-97796428D01*
X159442533Y-97796428D02*
X159594914Y-97834523D01*
X159594914Y-97834523D02*
X159671104Y-97872618D01*
X159671104Y-97872618D02*
X159709200Y-97910713D01*
X159709200Y-97910713D02*
X159747295Y-97986904D01*
X159747295Y-97986904D02*
X159747295Y-98063094D01*
X159747295Y-98063094D02*
X159709200Y-98139285D01*
X159709200Y-98139285D02*
X159671104Y-98177380D01*
X159671104Y-98177380D02*
X159594914Y-98215475D01*
X159594914Y-98215475D02*
X159442533Y-98253571D01*
X159442533Y-98253571D02*
X159252057Y-98253571D01*
X159252057Y-98253571D02*
X159099676Y-98215475D01*
X159099676Y-98215475D02*
X159023485Y-98177380D01*
X159023485Y-98177380D02*
X158985390Y-98139285D01*
X158985390Y-98139285D02*
X158947295Y-98063094D01*
X191198571Y-92208723D02*
X191579524Y-92208723D01*
X191122381Y-92437295D02*
X191389048Y-91637295D01*
X191389048Y-91637295D02*
X191655714Y-92437295D01*
X192036666Y-91980152D02*
X191960476Y-91942057D01*
X191960476Y-91942057D02*
X191922381Y-91903961D01*
X191922381Y-91903961D02*
X191884285Y-91827771D01*
X191884285Y-91827771D02*
X191884285Y-91789676D01*
X191884285Y-91789676D02*
X191922381Y-91713485D01*
X191922381Y-91713485D02*
X191960476Y-91675390D01*
X191960476Y-91675390D02*
X192036666Y-91637295D01*
X192036666Y-91637295D02*
X192189047Y-91637295D01*
X192189047Y-91637295D02*
X192265238Y-91675390D01*
X192265238Y-91675390D02*
X192303333Y-91713485D01*
X192303333Y-91713485D02*
X192341428Y-91789676D01*
X192341428Y-91789676D02*
X192341428Y-91827771D01*
X192341428Y-91827771D02*
X192303333Y-91903961D01*
X192303333Y-91903961D02*
X192265238Y-91942057D01*
X192265238Y-91942057D02*
X192189047Y-91980152D01*
X192189047Y-91980152D02*
X192036666Y-91980152D01*
X192036666Y-91980152D02*
X191960476Y-92018247D01*
X191960476Y-92018247D02*
X191922381Y-92056342D01*
X191922381Y-92056342D02*
X191884285Y-92132533D01*
X191884285Y-92132533D02*
X191884285Y-92284914D01*
X191884285Y-92284914D02*
X191922381Y-92361104D01*
X191922381Y-92361104D02*
X191960476Y-92399200D01*
X191960476Y-92399200D02*
X192036666Y-92437295D01*
X192036666Y-92437295D02*
X192189047Y-92437295D01*
X192189047Y-92437295D02*
X192265238Y-92399200D01*
X192265238Y-92399200D02*
X192303333Y-92361104D01*
X192303333Y-92361104D02*
X192341428Y-92284914D01*
X192341428Y-92284914D02*
X192341428Y-92132533D01*
X192341428Y-92132533D02*
X192303333Y-92056342D01*
X192303333Y-92056342D02*
X192265238Y-92018247D01*
X192265238Y-92018247D02*
X192189047Y-91980152D01*
X190786104Y-106813332D02*
X190824200Y-106851428D01*
X190824200Y-106851428D02*
X190862295Y-106965713D01*
X190862295Y-106965713D02*
X190862295Y-107041904D01*
X190862295Y-107041904D02*
X190824200Y-107156190D01*
X190824200Y-107156190D02*
X190748009Y-107232380D01*
X190748009Y-107232380D02*
X190671819Y-107270475D01*
X190671819Y-107270475D02*
X190519438Y-107308571D01*
X190519438Y-107308571D02*
X190405152Y-107308571D01*
X190405152Y-107308571D02*
X190252771Y-107270475D01*
X190252771Y-107270475D02*
X190176580Y-107232380D01*
X190176580Y-107232380D02*
X190100390Y-107156190D01*
X190100390Y-107156190D02*
X190062295Y-107041904D01*
X190062295Y-107041904D02*
X190062295Y-106965713D01*
X190062295Y-106965713D02*
X190100390Y-106851428D01*
X190100390Y-106851428D02*
X190138485Y-106813332D01*
X190862295Y-106051428D02*
X190862295Y-106508571D01*
X190862295Y-106279999D02*
X190062295Y-106279999D01*
X190062295Y-106279999D02*
X190176580Y-106356190D01*
X190176580Y-106356190D02*
X190252771Y-106432380D01*
X190252771Y-106432380D02*
X190290866Y-106508571D01*
X188639524Y-97517295D02*
X188639524Y-96717295D01*
X188639524Y-96717295D02*
X188830000Y-96717295D01*
X188830000Y-96717295D02*
X188944286Y-96755390D01*
X188944286Y-96755390D02*
X189020476Y-96831580D01*
X189020476Y-96831580D02*
X189058571Y-96907771D01*
X189058571Y-96907771D02*
X189096667Y-97060152D01*
X189096667Y-97060152D02*
X189096667Y-97174438D01*
X189096667Y-97174438D02*
X189058571Y-97326819D01*
X189058571Y-97326819D02*
X189020476Y-97403009D01*
X189020476Y-97403009D02*
X188944286Y-97479200D01*
X188944286Y-97479200D02*
X188830000Y-97517295D01*
X188830000Y-97517295D02*
X188639524Y-97517295D01*
X189401428Y-96793485D02*
X189439524Y-96755390D01*
X189439524Y-96755390D02*
X189515714Y-96717295D01*
X189515714Y-96717295D02*
X189706190Y-96717295D01*
X189706190Y-96717295D02*
X189782381Y-96755390D01*
X189782381Y-96755390D02*
X189820476Y-96793485D01*
X189820476Y-96793485D02*
X189858571Y-96869676D01*
X189858571Y-96869676D02*
X189858571Y-96945866D01*
X189858571Y-96945866D02*
X189820476Y-97060152D01*
X189820476Y-97060152D02*
X189363333Y-97517295D01*
X189363333Y-97517295D02*
X189858571Y-97517295D01*
X153536667Y-108058295D02*
X153270000Y-107677342D01*
X153079524Y-108058295D02*
X153079524Y-107258295D01*
X153079524Y-107258295D02*
X153384286Y-107258295D01*
X153384286Y-107258295D02*
X153460476Y-107296390D01*
X153460476Y-107296390D02*
X153498571Y-107334485D01*
X153498571Y-107334485D02*
X153536667Y-107410676D01*
X153536667Y-107410676D02*
X153536667Y-107524961D01*
X153536667Y-107524961D02*
X153498571Y-107601152D01*
X153498571Y-107601152D02*
X153460476Y-107639247D01*
X153460476Y-107639247D02*
X153384286Y-107677342D01*
X153384286Y-107677342D02*
X153079524Y-107677342D01*
X154298571Y-108058295D02*
X153841428Y-108058295D01*
X154070000Y-108058295D02*
X154070000Y-107258295D01*
X154070000Y-107258295D02*
X153993809Y-107372580D01*
X153993809Y-107372580D02*
X153917619Y-107448771D01*
X153917619Y-107448771D02*
X153841428Y-107486866D01*
X186556667Y-99803295D02*
X186290000Y-99422342D01*
X186099524Y-99803295D02*
X186099524Y-99003295D01*
X186099524Y-99003295D02*
X186404286Y-99003295D01*
X186404286Y-99003295D02*
X186480476Y-99041390D01*
X186480476Y-99041390D02*
X186518571Y-99079485D01*
X186518571Y-99079485D02*
X186556667Y-99155676D01*
X186556667Y-99155676D02*
X186556667Y-99269961D01*
X186556667Y-99269961D02*
X186518571Y-99346152D01*
X186518571Y-99346152D02*
X186480476Y-99384247D01*
X186480476Y-99384247D02*
X186404286Y-99422342D01*
X186404286Y-99422342D02*
X186099524Y-99422342D01*
X186937619Y-99803295D02*
X187090000Y-99803295D01*
X187090000Y-99803295D02*
X187166190Y-99765200D01*
X187166190Y-99765200D02*
X187204286Y-99727104D01*
X187204286Y-99727104D02*
X187280476Y-99612819D01*
X187280476Y-99612819D02*
X187318571Y-99460438D01*
X187318571Y-99460438D02*
X187318571Y-99155676D01*
X187318571Y-99155676D02*
X187280476Y-99079485D01*
X187280476Y-99079485D02*
X187242381Y-99041390D01*
X187242381Y-99041390D02*
X187166190Y-99003295D01*
X187166190Y-99003295D02*
X187013809Y-99003295D01*
X187013809Y-99003295D02*
X186937619Y-99041390D01*
X186937619Y-99041390D02*
X186899524Y-99079485D01*
X186899524Y-99079485D02*
X186861428Y-99155676D01*
X186861428Y-99155676D02*
X186861428Y-99346152D01*
X186861428Y-99346152D02*
X186899524Y-99422342D01*
X186899524Y-99422342D02*
X186937619Y-99460438D01*
X186937619Y-99460438D02*
X187013809Y-99498533D01*
X187013809Y-99498533D02*
X187166190Y-99498533D01*
X187166190Y-99498533D02*
X187242381Y-99460438D01*
X187242381Y-99460438D02*
X187280476Y-99422342D01*
X187280476Y-99422342D02*
X187318571Y-99346152D01*
X164370104Y-104273332D02*
X164408200Y-104311428D01*
X164408200Y-104311428D02*
X164446295Y-104425713D01*
X164446295Y-104425713D02*
X164446295Y-104501904D01*
X164446295Y-104501904D02*
X164408200Y-104616190D01*
X164408200Y-104616190D02*
X164332009Y-104692380D01*
X164332009Y-104692380D02*
X164255819Y-104730475D01*
X164255819Y-104730475D02*
X164103438Y-104768571D01*
X164103438Y-104768571D02*
X163989152Y-104768571D01*
X163989152Y-104768571D02*
X163836771Y-104730475D01*
X163836771Y-104730475D02*
X163760580Y-104692380D01*
X163760580Y-104692380D02*
X163684390Y-104616190D01*
X163684390Y-104616190D02*
X163646295Y-104501904D01*
X163646295Y-104501904D02*
X163646295Y-104425713D01*
X163646295Y-104425713D02*
X163684390Y-104311428D01*
X163684390Y-104311428D02*
X163722485Y-104273332D01*
X163989152Y-103816190D02*
X163951057Y-103892380D01*
X163951057Y-103892380D02*
X163912961Y-103930475D01*
X163912961Y-103930475D02*
X163836771Y-103968571D01*
X163836771Y-103968571D02*
X163798676Y-103968571D01*
X163798676Y-103968571D02*
X163722485Y-103930475D01*
X163722485Y-103930475D02*
X163684390Y-103892380D01*
X163684390Y-103892380D02*
X163646295Y-103816190D01*
X163646295Y-103816190D02*
X163646295Y-103663809D01*
X163646295Y-103663809D02*
X163684390Y-103587618D01*
X163684390Y-103587618D02*
X163722485Y-103549523D01*
X163722485Y-103549523D02*
X163798676Y-103511428D01*
X163798676Y-103511428D02*
X163836771Y-103511428D01*
X163836771Y-103511428D02*
X163912961Y-103549523D01*
X163912961Y-103549523D02*
X163951057Y-103587618D01*
X163951057Y-103587618D02*
X163989152Y-103663809D01*
X163989152Y-103663809D02*
X163989152Y-103816190D01*
X163989152Y-103816190D02*
X164027247Y-103892380D01*
X164027247Y-103892380D02*
X164065342Y-103930475D01*
X164065342Y-103930475D02*
X164141533Y-103968571D01*
X164141533Y-103968571D02*
X164293914Y-103968571D01*
X164293914Y-103968571D02*
X164370104Y-103930475D01*
X164370104Y-103930475D02*
X164408200Y-103892380D01*
X164408200Y-103892380D02*
X164446295Y-103816190D01*
X164446295Y-103816190D02*
X164446295Y-103663809D01*
X164446295Y-103663809D02*
X164408200Y-103587618D01*
X164408200Y-103587618D02*
X164370104Y-103549523D01*
X164370104Y-103549523D02*
X164293914Y-103511428D01*
X164293914Y-103511428D02*
X164141533Y-103511428D01*
X164141533Y-103511428D02*
X164065342Y-103549523D01*
X164065342Y-103549523D02*
X164027247Y-103587618D01*
X164027247Y-103587618D02*
X163989152Y-103663809D01*
X164370104Y-106178332D02*
X164408200Y-106216428D01*
X164408200Y-106216428D02*
X164446295Y-106330713D01*
X164446295Y-106330713D02*
X164446295Y-106406904D01*
X164446295Y-106406904D02*
X164408200Y-106521190D01*
X164408200Y-106521190D02*
X164332009Y-106597380D01*
X164332009Y-106597380D02*
X164255819Y-106635475D01*
X164255819Y-106635475D02*
X164103438Y-106673571D01*
X164103438Y-106673571D02*
X163989152Y-106673571D01*
X163989152Y-106673571D02*
X163836771Y-106635475D01*
X163836771Y-106635475D02*
X163760580Y-106597380D01*
X163760580Y-106597380D02*
X163684390Y-106521190D01*
X163684390Y-106521190D02*
X163646295Y-106406904D01*
X163646295Y-106406904D02*
X163646295Y-106330713D01*
X163646295Y-106330713D02*
X163684390Y-106216428D01*
X163684390Y-106216428D02*
X163722485Y-106178332D01*
X164446295Y-105797380D02*
X164446295Y-105644999D01*
X164446295Y-105644999D02*
X164408200Y-105568809D01*
X164408200Y-105568809D02*
X164370104Y-105530713D01*
X164370104Y-105530713D02*
X164255819Y-105454523D01*
X164255819Y-105454523D02*
X164103438Y-105416428D01*
X164103438Y-105416428D02*
X163798676Y-105416428D01*
X163798676Y-105416428D02*
X163722485Y-105454523D01*
X163722485Y-105454523D02*
X163684390Y-105492618D01*
X163684390Y-105492618D02*
X163646295Y-105568809D01*
X163646295Y-105568809D02*
X163646295Y-105721190D01*
X163646295Y-105721190D02*
X163684390Y-105797380D01*
X163684390Y-105797380D02*
X163722485Y-105835475D01*
X163722485Y-105835475D02*
X163798676Y-105873571D01*
X163798676Y-105873571D02*
X163989152Y-105873571D01*
X163989152Y-105873571D02*
X164065342Y-105835475D01*
X164065342Y-105835475D02*
X164103438Y-105797380D01*
X164103438Y-105797380D02*
X164141533Y-105721190D01*
X164141533Y-105721190D02*
X164141533Y-105568809D01*
X164141533Y-105568809D02*
X164103438Y-105492618D01*
X164103438Y-105492618D02*
X164065342Y-105454523D01*
X164065342Y-105454523D02*
X163989152Y-105416428D01*
X185706104Y-106813332D02*
X185744200Y-106851428D01*
X185744200Y-106851428D02*
X185782295Y-106965713D01*
X185782295Y-106965713D02*
X185782295Y-107041904D01*
X185782295Y-107041904D02*
X185744200Y-107156190D01*
X185744200Y-107156190D02*
X185668009Y-107232380D01*
X185668009Y-107232380D02*
X185591819Y-107270475D01*
X185591819Y-107270475D02*
X185439438Y-107308571D01*
X185439438Y-107308571D02*
X185325152Y-107308571D01*
X185325152Y-107308571D02*
X185172771Y-107270475D01*
X185172771Y-107270475D02*
X185096580Y-107232380D01*
X185096580Y-107232380D02*
X185020390Y-107156190D01*
X185020390Y-107156190D02*
X184982295Y-107041904D01*
X184982295Y-107041904D02*
X184982295Y-106965713D01*
X184982295Y-106965713D02*
X185020390Y-106851428D01*
X185020390Y-106851428D02*
X185058485Y-106813332D01*
X184982295Y-106546666D02*
X184982295Y-106051428D01*
X184982295Y-106051428D02*
X185287057Y-106318094D01*
X185287057Y-106318094D02*
X185287057Y-106203809D01*
X185287057Y-106203809D02*
X185325152Y-106127618D01*
X185325152Y-106127618D02*
X185363247Y-106089523D01*
X185363247Y-106089523D02*
X185439438Y-106051428D01*
X185439438Y-106051428D02*
X185629914Y-106051428D01*
X185629914Y-106051428D02*
X185706104Y-106089523D01*
X185706104Y-106089523D02*
X185744200Y-106127618D01*
X185744200Y-106127618D02*
X185782295Y-106203809D01*
X185782295Y-106203809D02*
X185782295Y-106432380D01*
X185782295Y-106432380D02*
X185744200Y-106508571D01*
X185744200Y-106508571D02*
X185706104Y-106546666D01*
X188639524Y-101962295D02*
X188639524Y-101162295D01*
X188639524Y-101162295D02*
X188830000Y-101162295D01*
X188830000Y-101162295D02*
X188944286Y-101200390D01*
X188944286Y-101200390D02*
X189020476Y-101276580D01*
X189020476Y-101276580D02*
X189058571Y-101352771D01*
X189058571Y-101352771D02*
X189096667Y-101505152D01*
X189096667Y-101505152D02*
X189096667Y-101619438D01*
X189096667Y-101619438D02*
X189058571Y-101771819D01*
X189058571Y-101771819D02*
X189020476Y-101848009D01*
X189020476Y-101848009D02*
X188944286Y-101924200D01*
X188944286Y-101924200D02*
X188830000Y-101962295D01*
X188830000Y-101962295D02*
X188639524Y-101962295D01*
X189363333Y-101162295D02*
X189858571Y-101162295D01*
X189858571Y-101162295D02*
X189591905Y-101467057D01*
X189591905Y-101467057D02*
X189706190Y-101467057D01*
X189706190Y-101467057D02*
X189782381Y-101505152D01*
X189782381Y-101505152D02*
X189820476Y-101543247D01*
X189820476Y-101543247D02*
X189858571Y-101619438D01*
X189858571Y-101619438D02*
X189858571Y-101809914D01*
X189858571Y-101809914D02*
X189820476Y-101886104D01*
X189820476Y-101886104D02*
X189782381Y-101924200D01*
X189782381Y-101924200D02*
X189706190Y-101962295D01*
X189706190Y-101962295D02*
X189477619Y-101962295D01*
X189477619Y-101962295D02*
X189401428Y-101924200D01*
X189401428Y-101924200D02*
X189363333Y-101886104D01*
X191636667Y-102597295D02*
X191370000Y-102216342D01*
X191179524Y-102597295D02*
X191179524Y-101797295D01*
X191179524Y-101797295D02*
X191484286Y-101797295D01*
X191484286Y-101797295D02*
X191560476Y-101835390D01*
X191560476Y-101835390D02*
X191598571Y-101873485D01*
X191598571Y-101873485D02*
X191636667Y-101949676D01*
X191636667Y-101949676D02*
X191636667Y-102063961D01*
X191636667Y-102063961D02*
X191598571Y-102140152D01*
X191598571Y-102140152D02*
X191560476Y-102178247D01*
X191560476Y-102178247D02*
X191484286Y-102216342D01*
X191484286Y-102216342D02*
X191179524Y-102216342D01*
X191903333Y-101797295D02*
X192436667Y-101797295D01*
X192436667Y-101797295D02*
X192093809Y-102597295D01*
X187522295Y-107289523D02*
X188169914Y-107289523D01*
X188169914Y-107289523D02*
X188246104Y-107251428D01*
X188246104Y-107251428D02*
X188284200Y-107213333D01*
X188284200Y-107213333D02*
X188322295Y-107137142D01*
X188322295Y-107137142D02*
X188322295Y-106984761D01*
X188322295Y-106984761D02*
X188284200Y-106908571D01*
X188284200Y-106908571D02*
X188246104Y-106870476D01*
X188246104Y-106870476D02*
X188169914Y-106832380D01*
X188169914Y-106832380D02*
X187522295Y-106832380D01*
X188322295Y-106032381D02*
X188322295Y-106489524D01*
X188322295Y-106260952D02*
X187522295Y-106260952D01*
X187522295Y-106260952D02*
X187636580Y-106337143D01*
X187636580Y-106337143D02*
X187712771Y-106413333D01*
X187712771Y-106413333D02*
X187750866Y-106489524D01*
X171228104Y-103638332D02*
X171266200Y-103676428D01*
X171266200Y-103676428D02*
X171304295Y-103790713D01*
X171304295Y-103790713D02*
X171304295Y-103866904D01*
X171304295Y-103866904D02*
X171266200Y-103981190D01*
X171266200Y-103981190D02*
X171190009Y-104057380D01*
X171190009Y-104057380D02*
X171113819Y-104095475D01*
X171113819Y-104095475D02*
X170961438Y-104133571D01*
X170961438Y-104133571D02*
X170847152Y-104133571D01*
X170847152Y-104133571D02*
X170694771Y-104095475D01*
X170694771Y-104095475D02*
X170618580Y-104057380D01*
X170618580Y-104057380D02*
X170542390Y-103981190D01*
X170542390Y-103981190D02*
X170504295Y-103866904D01*
X170504295Y-103866904D02*
X170504295Y-103790713D01*
X170504295Y-103790713D02*
X170542390Y-103676428D01*
X170542390Y-103676428D02*
X170580485Y-103638332D01*
X170504295Y-103371666D02*
X170504295Y-102838332D01*
X170504295Y-102838332D02*
X171304295Y-103181190D01*
X191636667Y-101327295D02*
X191370000Y-100946342D01*
X191179524Y-101327295D02*
X191179524Y-100527295D01*
X191179524Y-100527295D02*
X191484286Y-100527295D01*
X191484286Y-100527295D02*
X191560476Y-100565390D01*
X191560476Y-100565390D02*
X191598571Y-100603485D01*
X191598571Y-100603485D02*
X191636667Y-100679676D01*
X191636667Y-100679676D02*
X191636667Y-100793961D01*
X191636667Y-100793961D02*
X191598571Y-100870152D01*
X191598571Y-100870152D02*
X191560476Y-100908247D01*
X191560476Y-100908247D02*
X191484286Y-100946342D01*
X191484286Y-100946342D02*
X191179524Y-100946342D01*
X191941428Y-100603485D02*
X191979524Y-100565390D01*
X191979524Y-100565390D02*
X192055714Y-100527295D01*
X192055714Y-100527295D02*
X192246190Y-100527295D01*
X192246190Y-100527295D02*
X192322381Y-100565390D01*
X192322381Y-100565390D02*
X192360476Y-100603485D01*
X192360476Y-100603485D02*
X192398571Y-100679676D01*
X192398571Y-100679676D02*
X192398571Y-100755866D01*
X192398571Y-100755866D02*
X192360476Y-100870152D01*
X192360476Y-100870152D02*
X191903333Y-101327295D01*
X191903333Y-101327295D02*
X192398571Y-101327295D01*
X191636667Y-98787295D02*
X191370000Y-98406342D01*
X191179524Y-98787295D02*
X191179524Y-97987295D01*
X191179524Y-97987295D02*
X191484286Y-97987295D01*
X191484286Y-97987295D02*
X191560476Y-98025390D01*
X191560476Y-98025390D02*
X191598571Y-98063485D01*
X191598571Y-98063485D02*
X191636667Y-98139676D01*
X191636667Y-98139676D02*
X191636667Y-98253961D01*
X191636667Y-98253961D02*
X191598571Y-98330152D01*
X191598571Y-98330152D02*
X191560476Y-98368247D01*
X191560476Y-98368247D02*
X191484286Y-98406342D01*
X191484286Y-98406342D02*
X191179524Y-98406342D01*
X192322381Y-98253961D02*
X192322381Y-98787295D01*
X192131905Y-97949200D02*
X191941428Y-98520628D01*
X191941428Y-98520628D02*
X192436667Y-98520628D01*
X191636667Y-100057295D02*
X191370000Y-99676342D01*
X191179524Y-100057295D02*
X191179524Y-99257295D01*
X191179524Y-99257295D02*
X191484286Y-99257295D01*
X191484286Y-99257295D02*
X191560476Y-99295390D01*
X191560476Y-99295390D02*
X191598571Y-99333485D01*
X191598571Y-99333485D02*
X191636667Y-99409676D01*
X191636667Y-99409676D02*
X191636667Y-99523961D01*
X191636667Y-99523961D02*
X191598571Y-99600152D01*
X191598571Y-99600152D02*
X191560476Y-99638247D01*
X191560476Y-99638247D02*
X191484286Y-99676342D01*
X191484286Y-99676342D02*
X191179524Y-99676342D01*
X191903333Y-99257295D02*
X192398571Y-99257295D01*
X192398571Y-99257295D02*
X192131905Y-99562057D01*
X192131905Y-99562057D02*
X192246190Y-99562057D01*
X192246190Y-99562057D02*
X192322381Y-99600152D01*
X192322381Y-99600152D02*
X192360476Y-99638247D01*
X192360476Y-99638247D02*
X192398571Y-99714438D01*
X192398571Y-99714438D02*
X192398571Y-99904914D01*
X192398571Y-99904914D02*
X192360476Y-99981104D01*
X192360476Y-99981104D02*
X192322381Y-100019200D01*
X192322381Y-100019200D02*
X192246190Y-100057295D01*
X192246190Y-100057295D02*
X192017619Y-100057295D01*
X192017619Y-100057295D02*
X191941428Y-100019200D01*
X191941428Y-100019200D02*
X191903333Y-99981104D01*
X186556667Y-97771295D02*
X186290000Y-97390342D01*
X186099524Y-97771295D02*
X186099524Y-96971295D01*
X186099524Y-96971295D02*
X186404286Y-96971295D01*
X186404286Y-96971295D02*
X186480476Y-97009390D01*
X186480476Y-97009390D02*
X186518571Y-97047485D01*
X186518571Y-97047485D02*
X186556667Y-97123676D01*
X186556667Y-97123676D02*
X186556667Y-97237961D01*
X186556667Y-97237961D02*
X186518571Y-97314152D01*
X186518571Y-97314152D02*
X186480476Y-97352247D01*
X186480476Y-97352247D02*
X186404286Y-97390342D01*
X186404286Y-97390342D02*
X186099524Y-97390342D01*
X187013809Y-97314152D02*
X186937619Y-97276057D01*
X186937619Y-97276057D02*
X186899524Y-97237961D01*
X186899524Y-97237961D02*
X186861428Y-97161771D01*
X186861428Y-97161771D02*
X186861428Y-97123676D01*
X186861428Y-97123676D02*
X186899524Y-97047485D01*
X186899524Y-97047485D02*
X186937619Y-97009390D01*
X186937619Y-97009390D02*
X187013809Y-96971295D01*
X187013809Y-96971295D02*
X187166190Y-96971295D01*
X187166190Y-96971295D02*
X187242381Y-97009390D01*
X187242381Y-97009390D02*
X187280476Y-97047485D01*
X187280476Y-97047485D02*
X187318571Y-97123676D01*
X187318571Y-97123676D02*
X187318571Y-97161771D01*
X187318571Y-97161771D02*
X187280476Y-97237961D01*
X187280476Y-97237961D02*
X187242381Y-97276057D01*
X187242381Y-97276057D02*
X187166190Y-97314152D01*
X187166190Y-97314152D02*
X187013809Y-97314152D01*
X187013809Y-97314152D02*
X186937619Y-97352247D01*
X186937619Y-97352247D02*
X186899524Y-97390342D01*
X186899524Y-97390342D02*
X186861428Y-97466533D01*
X186861428Y-97466533D02*
X186861428Y-97618914D01*
X186861428Y-97618914D02*
X186899524Y-97695104D01*
X186899524Y-97695104D02*
X186937619Y-97733200D01*
X186937619Y-97733200D02*
X187013809Y-97771295D01*
X187013809Y-97771295D02*
X187166190Y-97771295D01*
X187166190Y-97771295D02*
X187242381Y-97733200D01*
X187242381Y-97733200D02*
X187280476Y-97695104D01*
X187280476Y-97695104D02*
X187318571Y-97618914D01*
X187318571Y-97618914D02*
X187318571Y-97466533D01*
X187318571Y-97466533D02*
X187280476Y-97390342D01*
X187280476Y-97390342D02*
X187242381Y-97352247D01*
X187242381Y-97352247D02*
X187166190Y-97314152D01*
X183801104Y-99828332D02*
X183839200Y-99866428D01*
X183839200Y-99866428D02*
X183877295Y-99980713D01*
X183877295Y-99980713D02*
X183877295Y-100056904D01*
X183877295Y-100056904D02*
X183839200Y-100171190D01*
X183839200Y-100171190D02*
X183763009Y-100247380D01*
X183763009Y-100247380D02*
X183686819Y-100285475D01*
X183686819Y-100285475D02*
X183534438Y-100323571D01*
X183534438Y-100323571D02*
X183420152Y-100323571D01*
X183420152Y-100323571D02*
X183267771Y-100285475D01*
X183267771Y-100285475D02*
X183191580Y-100247380D01*
X183191580Y-100247380D02*
X183115390Y-100171190D01*
X183115390Y-100171190D02*
X183077295Y-100056904D01*
X183077295Y-100056904D02*
X183077295Y-99980713D01*
X183077295Y-99980713D02*
X183115390Y-99866428D01*
X183115390Y-99866428D02*
X183153485Y-99828332D01*
X183343961Y-99142618D02*
X183877295Y-99142618D01*
X183039200Y-99333094D02*
X183610628Y-99523571D01*
X183610628Y-99523571D02*
X183610628Y-99028332D01*
X170681667Y-106331104D02*
X170643571Y-106369200D01*
X170643571Y-106369200D02*
X170529286Y-106407295D01*
X170529286Y-106407295D02*
X170453095Y-106407295D01*
X170453095Y-106407295D02*
X170338809Y-106369200D01*
X170338809Y-106369200D02*
X170262619Y-106293009D01*
X170262619Y-106293009D02*
X170224524Y-106216819D01*
X170224524Y-106216819D02*
X170186428Y-106064438D01*
X170186428Y-106064438D02*
X170186428Y-105950152D01*
X170186428Y-105950152D02*
X170224524Y-105797771D01*
X170224524Y-105797771D02*
X170262619Y-105721580D01*
X170262619Y-105721580D02*
X170338809Y-105645390D01*
X170338809Y-105645390D02*
X170453095Y-105607295D01*
X170453095Y-105607295D02*
X170529286Y-105607295D01*
X170529286Y-105607295D02*
X170643571Y-105645390D01*
X170643571Y-105645390D02*
X170681667Y-105683485D01*
X171367381Y-105607295D02*
X171215000Y-105607295D01*
X171215000Y-105607295D02*
X171138809Y-105645390D01*
X171138809Y-105645390D02*
X171100714Y-105683485D01*
X171100714Y-105683485D02*
X171024524Y-105797771D01*
X171024524Y-105797771D02*
X170986428Y-105950152D01*
X170986428Y-105950152D02*
X170986428Y-106254914D01*
X170986428Y-106254914D02*
X171024524Y-106331104D01*
X171024524Y-106331104D02*
X171062619Y-106369200D01*
X171062619Y-106369200D02*
X171138809Y-106407295D01*
X171138809Y-106407295D02*
X171291190Y-106407295D01*
X171291190Y-106407295D02*
X171367381Y-106369200D01*
X171367381Y-106369200D02*
X171405476Y-106331104D01*
X171405476Y-106331104D02*
X171443571Y-106254914D01*
X171443571Y-106254914D02*
X171443571Y-106064438D01*
X171443571Y-106064438D02*
X171405476Y-105988247D01*
X171405476Y-105988247D02*
X171367381Y-105950152D01*
X171367381Y-105950152D02*
X171291190Y-105912057D01*
X171291190Y-105912057D02*
X171138809Y-105912057D01*
X171138809Y-105912057D02*
X171062619Y-105950152D01*
X171062619Y-105950152D02*
X171024524Y-105988247D01*
X171024524Y-105988247D02*
X170986428Y-106064438D01*
X156076667Y-107982104D02*
X156038571Y-108020200D01*
X156038571Y-108020200D02*
X155924286Y-108058295D01*
X155924286Y-108058295D02*
X155848095Y-108058295D01*
X155848095Y-108058295D02*
X155733809Y-108020200D01*
X155733809Y-108020200D02*
X155657619Y-107944009D01*
X155657619Y-107944009D02*
X155619524Y-107867819D01*
X155619524Y-107867819D02*
X155581428Y-107715438D01*
X155581428Y-107715438D02*
X155581428Y-107601152D01*
X155581428Y-107601152D02*
X155619524Y-107448771D01*
X155619524Y-107448771D02*
X155657619Y-107372580D01*
X155657619Y-107372580D02*
X155733809Y-107296390D01*
X155733809Y-107296390D02*
X155848095Y-107258295D01*
X155848095Y-107258295D02*
X155924286Y-107258295D01*
X155924286Y-107258295D02*
X156038571Y-107296390D01*
X156038571Y-107296390D02*
X156076667Y-107334485D01*
X156381428Y-107334485D02*
X156419524Y-107296390D01*
X156419524Y-107296390D02*
X156495714Y-107258295D01*
X156495714Y-107258295D02*
X156686190Y-107258295D01*
X156686190Y-107258295D02*
X156762381Y-107296390D01*
X156762381Y-107296390D02*
X156800476Y-107334485D01*
X156800476Y-107334485D02*
X156838571Y-107410676D01*
X156838571Y-107410676D02*
X156838571Y-107486866D01*
X156838571Y-107486866D02*
X156800476Y-107601152D01*
X156800476Y-107601152D02*
X156343333Y-108058295D01*
X156343333Y-108058295D02*
X156838571Y-108058295D01*
X199587295Y-101866666D02*
X200158723Y-101866666D01*
X200158723Y-101866666D02*
X200273009Y-101904761D01*
X200273009Y-101904761D02*
X200349200Y-101980952D01*
X200349200Y-101980952D02*
X200387295Y-102095237D01*
X200387295Y-102095237D02*
X200387295Y-102171428D01*
X200387295Y-101066666D02*
X200387295Y-101523809D01*
X200387295Y-101295237D02*
X199587295Y-101295237D01*
X199587295Y-101295237D02*
X199701580Y-101371428D01*
X199701580Y-101371428D02*
X199777771Y-101447618D01*
X199777771Y-101447618D02*
X199815866Y-101523809D01*
X192132295Y-106000475D02*
X191332295Y-106000475D01*
X191332295Y-106000475D02*
X191332295Y-105809999D01*
X191332295Y-105809999D02*
X191370390Y-105695713D01*
X191370390Y-105695713D02*
X191446580Y-105619523D01*
X191446580Y-105619523D02*
X191522771Y-105581428D01*
X191522771Y-105581428D02*
X191675152Y-105543332D01*
X191675152Y-105543332D02*
X191789438Y-105543332D01*
X191789438Y-105543332D02*
X191941819Y-105581428D01*
X191941819Y-105581428D02*
X192018009Y-105619523D01*
X192018009Y-105619523D02*
X192094200Y-105695713D01*
X192094200Y-105695713D02*
X192132295Y-105809999D01*
X192132295Y-105809999D02*
X192132295Y-106000475D01*
X192132295Y-104781428D02*
X192132295Y-105238571D01*
X192132295Y-105009999D02*
X191332295Y-105009999D01*
X191332295Y-105009999D02*
X191446580Y-105086190D01*
X191446580Y-105086190D02*
X191522771Y-105162380D01*
X191522771Y-105162380D02*
X191560866Y-105238571D01*
X172287922Y-97584919D02*
X172745858Y-98042855D01*
X172745858Y-98042855D02*
X172826670Y-98069792D01*
X172826670Y-98069792D02*
X172880545Y-98069792D01*
X172880545Y-98069792D02*
X172961357Y-98042855D01*
X172961357Y-98042855D02*
X173069107Y-97935105D01*
X173069107Y-97935105D02*
X173096044Y-97854293D01*
X173096044Y-97854293D02*
X173096044Y-97800418D01*
X173096044Y-97800418D02*
X173069107Y-97719606D01*
X173069107Y-97719606D02*
X172611171Y-97261670D01*
X172907482Y-97073108D02*
X172907482Y-97019234D01*
X172907482Y-97019234D02*
X172934420Y-96938421D01*
X172934420Y-96938421D02*
X173069107Y-96803734D01*
X173069107Y-96803734D02*
X173149919Y-96776797D01*
X173149919Y-96776797D02*
X173203794Y-96776797D01*
X173203794Y-96776797D02*
X173284606Y-96803734D01*
X173284606Y-96803734D02*
X173338481Y-96857609D01*
X173338481Y-96857609D02*
X173392355Y-96965359D01*
X173392355Y-96965359D02*
X173392355Y-97611856D01*
X173392355Y-97611856D02*
X173742542Y-97261670D01*
X182111667Y-96171104D02*
X182073571Y-96209200D01*
X182073571Y-96209200D02*
X181959286Y-96247295D01*
X181959286Y-96247295D02*
X181883095Y-96247295D01*
X181883095Y-96247295D02*
X181768809Y-96209200D01*
X181768809Y-96209200D02*
X181692619Y-96133009D01*
X181692619Y-96133009D02*
X181654524Y-96056819D01*
X181654524Y-96056819D02*
X181616428Y-95904438D01*
X181616428Y-95904438D02*
X181616428Y-95790152D01*
X181616428Y-95790152D02*
X181654524Y-95637771D01*
X181654524Y-95637771D02*
X181692619Y-95561580D01*
X181692619Y-95561580D02*
X181768809Y-95485390D01*
X181768809Y-95485390D02*
X181883095Y-95447295D01*
X181883095Y-95447295D02*
X181959286Y-95447295D01*
X181959286Y-95447295D02*
X182073571Y-95485390D01*
X182073571Y-95485390D02*
X182111667Y-95523485D01*
X182835476Y-95447295D02*
X182454524Y-95447295D01*
X182454524Y-95447295D02*
X182416428Y-95828247D01*
X182416428Y-95828247D02*
X182454524Y-95790152D01*
X182454524Y-95790152D02*
X182530714Y-95752057D01*
X182530714Y-95752057D02*
X182721190Y-95752057D01*
X182721190Y-95752057D02*
X182797381Y-95790152D01*
X182797381Y-95790152D02*
X182835476Y-95828247D01*
X182835476Y-95828247D02*
X182873571Y-95904438D01*
X182873571Y-95904438D02*
X182873571Y-96094914D01*
X182873571Y-96094914D02*
X182835476Y-96171104D01*
X182835476Y-96171104D02*
X182797381Y-96209200D01*
X182797381Y-96209200D02*
X182721190Y-96247295D01*
X182721190Y-96247295D02*
X182530714Y-96247295D01*
X182530714Y-96247295D02*
X182454524Y-96209200D01*
X182454524Y-96209200D02*
X182416428Y-96171104D01*
X191636667Y-97517295D02*
X191370000Y-97136342D01*
X191179524Y-97517295D02*
X191179524Y-96717295D01*
X191179524Y-96717295D02*
X191484286Y-96717295D01*
X191484286Y-96717295D02*
X191560476Y-96755390D01*
X191560476Y-96755390D02*
X191598571Y-96793485D01*
X191598571Y-96793485D02*
X191636667Y-96869676D01*
X191636667Y-96869676D02*
X191636667Y-96983961D01*
X191636667Y-96983961D02*
X191598571Y-97060152D01*
X191598571Y-97060152D02*
X191560476Y-97098247D01*
X191560476Y-97098247D02*
X191484286Y-97136342D01*
X191484286Y-97136342D02*
X191179524Y-97136342D01*
X192322381Y-96717295D02*
X192170000Y-96717295D01*
X192170000Y-96717295D02*
X192093809Y-96755390D01*
X192093809Y-96755390D02*
X192055714Y-96793485D01*
X192055714Y-96793485D02*
X191979524Y-96907771D01*
X191979524Y-96907771D02*
X191941428Y-97060152D01*
X191941428Y-97060152D02*
X191941428Y-97364914D01*
X191941428Y-97364914D02*
X191979524Y-97441104D01*
X191979524Y-97441104D02*
X192017619Y-97479200D01*
X192017619Y-97479200D02*
X192093809Y-97517295D01*
X192093809Y-97517295D02*
X192246190Y-97517295D01*
X192246190Y-97517295D02*
X192322381Y-97479200D01*
X192322381Y-97479200D02*
X192360476Y-97441104D01*
X192360476Y-97441104D02*
X192398571Y-97364914D01*
X192398571Y-97364914D02*
X192398571Y-97174438D01*
X192398571Y-97174438D02*
X192360476Y-97098247D01*
X192360476Y-97098247D02*
X192322381Y-97060152D01*
X192322381Y-97060152D02*
X192246190Y-97022057D01*
X192246190Y-97022057D02*
X192093809Y-97022057D01*
X192093809Y-97022057D02*
X192017619Y-97060152D01*
X192017619Y-97060152D02*
X191979524Y-97098247D01*
X191979524Y-97098247D02*
X191941428Y-97174438D01*
X162820476Y-102337295D02*
X162820476Y-102984914D01*
X162820476Y-102984914D02*
X162858571Y-103061104D01*
X162858571Y-103061104D02*
X162896666Y-103099200D01*
X162896666Y-103099200D02*
X162972857Y-103137295D01*
X162972857Y-103137295D02*
X163125238Y-103137295D01*
X163125238Y-103137295D02*
X163201428Y-103099200D01*
X163201428Y-103099200D02*
X163239523Y-103061104D01*
X163239523Y-103061104D02*
X163277619Y-102984914D01*
X163277619Y-102984914D02*
X163277619Y-102337295D01*
X163582380Y-102337295D02*
X164077618Y-102337295D01*
X164077618Y-102337295D02*
X163810952Y-102642057D01*
X163810952Y-102642057D02*
X163925237Y-102642057D01*
X163925237Y-102642057D02*
X164001428Y-102680152D01*
X164001428Y-102680152D02*
X164039523Y-102718247D01*
X164039523Y-102718247D02*
X164077618Y-102794438D01*
X164077618Y-102794438D02*
X164077618Y-102984914D01*
X164077618Y-102984914D02*
X164039523Y-103061104D01*
X164039523Y-103061104D02*
X164001428Y-103099200D01*
X164001428Y-103099200D02*
X163925237Y-103137295D01*
X163925237Y-103137295D02*
X163696666Y-103137295D01*
X163696666Y-103137295D02*
X163620475Y-103099200D01*
X163620475Y-103099200D02*
X163582380Y-103061104D01*
X153536667Y-96882295D02*
X153270000Y-96501342D01*
X153079524Y-96882295D02*
X153079524Y-96082295D01*
X153079524Y-96082295D02*
X153384286Y-96082295D01*
X153384286Y-96082295D02*
X153460476Y-96120390D01*
X153460476Y-96120390D02*
X153498571Y-96158485D01*
X153498571Y-96158485D02*
X153536667Y-96234676D01*
X153536667Y-96234676D02*
X153536667Y-96348961D01*
X153536667Y-96348961D02*
X153498571Y-96425152D01*
X153498571Y-96425152D02*
X153460476Y-96463247D01*
X153460476Y-96463247D02*
X153384286Y-96501342D01*
X153384286Y-96501342D02*
X153079524Y-96501342D01*
X154260476Y-96082295D02*
X153879524Y-96082295D01*
X153879524Y-96082295D02*
X153841428Y-96463247D01*
X153841428Y-96463247D02*
X153879524Y-96425152D01*
X153879524Y-96425152D02*
X153955714Y-96387057D01*
X153955714Y-96387057D02*
X154146190Y-96387057D01*
X154146190Y-96387057D02*
X154222381Y-96425152D01*
X154222381Y-96425152D02*
X154260476Y-96463247D01*
X154260476Y-96463247D02*
X154298571Y-96539438D01*
X154298571Y-96539438D02*
X154298571Y-96729914D01*
X154298571Y-96729914D02*
X154260476Y-96806104D01*
X154260476Y-96806104D02*
X154222381Y-96844200D01*
X154222381Y-96844200D02*
X154146190Y-96882295D01*
X154146190Y-96882295D02*
X153955714Y-96882295D01*
X153955714Y-96882295D02*
X153879524Y-96844200D01*
X153879524Y-96844200D02*
X153841428Y-96806104D01*
X167259048Y-107296342D02*
X167259048Y-107677295D01*
X166992381Y-106877295D02*
X167259048Y-107296342D01*
X167259048Y-107296342D02*
X167525714Y-106877295D01*
X168211428Y-107677295D02*
X167754285Y-107677295D01*
X167982857Y-107677295D02*
X167982857Y-106877295D01*
X167982857Y-106877295D02*
X167906666Y-106991580D01*
X167906666Y-106991580D02*
X167830476Y-107067771D01*
X167830476Y-107067771D02*
X167754285Y-107105866D01*
D11*
G04 #@! TO.C,C1*
X189990000Y-104280580D02*
X189990000Y-103999420D01*
X191010000Y-104280580D02*
X191010000Y-103999420D01*
G04 #@! TO.C,D2*
X187745000Y-97690000D02*
X187745000Y-99160000D01*
X187745000Y-99160000D02*
X190030000Y-99160000D01*
X190030000Y-97690000D02*
X187745000Y-97690000D01*
G04 #@! TO.C,R1*
X153516359Y-106300000D02*
X153823641Y-106300000D01*
X153516359Y-107060000D02*
X153823641Y-107060000D01*
G04 #@! TO.C,R9*
X186843641Y-99950000D02*
X186536359Y-99950000D01*
X186843641Y-100710000D02*
X186536359Y-100710000D01*
G04 #@! TO.C,C8*
X164740000Y-104032164D02*
X164740000Y-104247836D01*
X165460000Y-104032164D02*
X165460000Y-104247836D01*
G04 #@! TO.C,C9*
X164740000Y-106152836D02*
X164740000Y-105937164D01*
X165460000Y-106152836D02*
X165460000Y-105937164D01*
G04 #@! TO.C,C3*
X184910000Y-103999420D02*
X184910000Y-104280580D01*
X185930000Y-103999420D02*
X185930000Y-104280580D01*
G04 #@! TO.C,D3*
X187745000Y-99595000D02*
X187745000Y-101065000D01*
X187745000Y-101065000D02*
X190030000Y-101065000D01*
X190030000Y-99595000D02*
X187745000Y-99595000D01*
G04 #@! TO.C,R7*
X193828641Y-101855000D02*
X193521359Y-101855000D01*
X193828641Y-102615000D02*
X193521359Y-102615000D01*
G04 #@! TO.C,U1*
X186400000Y-104140000D02*
X186400000Y-103490000D01*
X186400000Y-104140000D02*
X186400000Y-104790000D01*
X189520000Y-104140000D02*
X189520000Y-103490000D01*
X189520000Y-104140000D02*
X189520000Y-104790000D01*
X189800000Y-103217500D02*
X189470000Y-102977500D01*
X189800000Y-102737500D01*
X189800000Y-103217500D01*
G36*
X189800000Y-103217500D02*
G01*
X189470000Y-102977500D01*
X189800000Y-102737500D01*
X189800000Y-103217500D01*
G37*
G04 #@! TO.C,C7*
X170582000Y-101707836D02*
X170582000Y-101492164D01*
X171302000Y-101707836D02*
X171302000Y-101492164D01*
G04 #@! TO.C,R2*
X193828641Y-100585000D02*
X193521359Y-100585000D01*
X193828641Y-101345000D02*
X193521359Y-101345000D01*
G04 #@! TO.C,R4*
X193828641Y-98045000D02*
X193521359Y-98045000D01*
X193828641Y-98805000D02*
X193521359Y-98805000D01*
G04 #@! TO.C,R3*
X193828641Y-99315000D02*
X193521359Y-99315000D01*
X193828641Y-100075000D02*
X193521359Y-100075000D01*
G04 #@! TO.C,R8*
X186843641Y-98045000D02*
X186536359Y-98045000D01*
X186843641Y-98805000D02*
X186536359Y-98805000D01*
G04 #@! TO.C,C4*
X183155000Y-101707836D02*
X183155000Y-101492164D01*
X183875000Y-101707836D02*
X183875000Y-101492164D01*
G04 #@! TO.C,J2*
X142935000Y-98680000D02*
X148935000Y-98680000D01*
X142935000Y-99440000D02*
X142935000Y-98680000D01*
X142935000Y-101220000D02*
X148935000Y-101220000D01*
X142935000Y-101980000D02*
X142935000Y-101220000D01*
X142935000Y-103760000D02*
X148935000Y-103760000D01*
X142935000Y-104520000D02*
X142935000Y-103760000D01*
X148935000Y-97730000D02*
X148935000Y-105470000D01*
X148935000Y-99440000D02*
X142935000Y-99440000D01*
X148935000Y-101980000D02*
X142935000Y-101980000D01*
X148935000Y-103860000D02*
X142935000Y-103860000D01*
X148935000Y-103980000D02*
X142935000Y-103980000D01*
X148935000Y-104100000D02*
X142935000Y-104100000D01*
X148935000Y-104220000D02*
X142935000Y-104220000D01*
X148935000Y-104340000D02*
X142935000Y-104340000D01*
X148935000Y-104460000D02*
X142935000Y-104460000D01*
X148935000Y-104520000D02*
X142935000Y-104520000D01*
X148935000Y-105470000D02*
X151595000Y-105470000D01*
X151595000Y-97730000D02*
X148935000Y-97730000D01*
X151595000Y-100330000D02*
X148935000Y-100330000D01*
X151595000Y-102870000D02*
X148935000Y-102870000D01*
X151595000Y-105470000D02*
X151595000Y-97730000D01*
X151992071Y-98680000D02*
X151595000Y-98680000D01*
X151992071Y-99440000D02*
X151595000Y-99440000D01*
X151992071Y-101220000D02*
X151595000Y-101220000D01*
X151992071Y-101980000D02*
X151595000Y-101980000D01*
X151992071Y-103760000D02*
X151595000Y-103760000D01*
X151992071Y-104520000D02*
X151595000Y-104520000D01*
X154465000Y-103760000D02*
X154077929Y-103760000D01*
X154465000Y-104520000D02*
X154077929Y-104520000D01*
X154532071Y-98680000D02*
X154077929Y-98680000D01*
X154532071Y-99440000D02*
X154077929Y-99440000D01*
X154532071Y-101220000D02*
X154077929Y-101220000D01*
X154532071Y-101980000D02*
X154077929Y-101980000D01*
X156845000Y-104140000D02*
X156845000Y-105410000D01*
X156845000Y-105410000D02*
X155575000Y-105410000D01*
G04 #@! TO.C,C6*
X172827836Y-105685000D02*
X172612164Y-105685000D01*
X172827836Y-106405000D02*
X172612164Y-106405000D01*
G04 #@! TO.C,C2*
X156102164Y-106320000D02*
X156317836Y-106320000D01*
X156102164Y-107040000D02*
X156317836Y-107040000D01*
G04 #@! TO.C,J1*
X198125000Y-96900000D02*
X200125000Y-96900000D01*
X198125000Y-106300000D02*
X200125000Y-106300000D01*
X202025000Y-96900000D02*
X203925000Y-96900000D01*
X202025000Y-106300000D02*
X203925000Y-106300000D01*
X203925000Y-106300000D02*
X203925000Y-96900000D01*
G04 #@! TO.C,D1*
X192040000Y-107770000D02*
X192040000Y-103760000D01*
X192040000Y-107770000D02*
X194040000Y-107770000D01*
X194040000Y-107770000D02*
X194040000Y-103760000D01*
G04 #@! TO.C,U2*
X172059689Y-101600000D02*
X172377887Y-101918198D01*
X172377887Y-101281802D02*
X172059689Y-101600000D01*
X176846802Y-96812887D02*
X177165000Y-96494689D01*
X177165000Y-96494689D02*
X177483198Y-96812887D01*
X177165000Y-106705311D02*
X176846802Y-106387113D01*
X177483198Y-106387113D02*
X177165000Y-106705311D01*
X181952113Y-101918198D02*
X182270311Y-101600000D01*
X182270311Y-101600000D02*
X181952113Y-101281802D01*
X171960694Y-102335391D02*
X171387938Y-102243467D01*
X171868770Y-101762635D01*
X171960694Y-102335391D01*
G36*
X171960694Y-102335391D02*
G01*
X171387938Y-102243467D01*
X171868770Y-101762635D01*
X171960694Y-102335391D01*
G37*
G04 #@! TO.C,C5*
X180232164Y-95525000D02*
X180447836Y-95525000D01*
X180232164Y-96245000D02*
X180447836Y-96245000D01*
G04 #@! TO.C,R6*
X193828641Y-96775000D02*
X193521359Y-96775000D01*
X193828641Y-97535000D02*
X193521359Y-97535000D01*
D10*
G04 #@! TO.C,SW2*
X157885000Y-100925000D02*
X157885000Y-95925000D01*
X160885000Y-95925000D02*
X160885000Y-100925000D01*
G04 #@! TO.C,SW1*
X157885000Y-107275000D02*
X157885000Y-102275000D01*
X160885000Y-102275000D02*
X160885000Y-107275000D01*
D11*
G04 #@! TO.C,U3*
X162975000Y-96300000D02*
X162975000Y-96570000D01*
X162975000Y-101820000D02*
X162975000Y-101550000D01*
X165735000Y-96300000D02*
X162975000Y-96300000D01*
X165735000Y-96300000D02*
X168495000Y-96300000D01*
X165735000Y-101820000D02*
X162975000Y-101820000D01*
X165735000Y-101820000D02*
X168495000Y-101820000D01*
X168495000Y-96300000D02*
X168495000Y-96570000D01*
X168495000Y-101820000D02*
X168495000Y-101550000D01*
X169500000Y-101880000D02*
X169020000Y-101880000D01*
X169260000Y-101550000D01*
X169500000Y-101880000D01*
G36*
X169500000Y-101880000D02*
G01*
X169020000Y-101880000D01*
X169260000Y-101550000D01*
X169500000Y-101880000D01*
G37*
G04 #@! TO.C,R5*
X155728641Y-96140000D02*
X155421359Y-96140000D01*
X155728641Y-96900000D02*
X155421359Y-96900000D01*
G04 #@! TO.C,Y1*
X165990000Y-102775000D02*
X165990000Y-106775000D01*
X169290000Y-102775000D02*
X165990000Y-102775000D01*
G04 #@! TD*
M02*
