G04 #@! TF.GenerationSoftware,KiCad,Pcbnew,9.0.0+dfsg-1*
G04 #@! TF.CreationDate,2025-03-10T08:37:07+08:00*
G04 #@! TF.ProjectId,gp,67702e6b-6963-4616-945f-706362585858,d*
G04 #@! TF.SameCoordinates,Original*
G04 #@! TF.FileFunction,Copper,L2,Inr*
G04 #@! TF.FilePolarity,Positive*
%FSLAX46Y46*%
G04 Gerber Fmt 4.6, Leading zero omitted, Abs format (unit mm)*
G04 Created by KiCad (PCBNEW 9.0.0+dfsg-1) date 2025-03-10 08:37:07*
%MOMM*%
%LPD*%
G01*
G04 APERTURE LIST*
G04 #@! TA.AperFunction,ComponentPad*
%ADD10R,1.700000X1.700000*%
G04 #@! TD*
G04 #@! TA.AperFunction,ComponentPad*
%ADD11O,1.700000X1.700000*%
G04 #@! TD*
G04 #@! TA.AperFunction,ComponentPad*
%ADD12O,2.100000X1.000000*%
G04 #@! TD*
G04 #@! TA.AperFunction,ComponentPad*
%ADD13O,1.600000X1.000000*%
G04 #@! TD*
G04 #@! TA.AperFunction,ViaPad*
%ADD14C,0.700000*%
G04 #@! TD*
G04 APERTURE END LIST*
D10*
G04 #@! TO.N,RST*
G04 #@! TO.C,J2*
X155575000Y-104140000D03*
D11*
G04 #@! TO.N,+3V3*
X153035000Y-104140000D03*
G04 #@! TO.N,SWCLK*
X155575000Y-101600000D03*
G04 #@! TO.N,SWDIO*
X153035000Y-101600000D03*
G04 #@! TO.N,GND*
X155575000Y-99060000D03*
G04 #@! TO.N,B3*
X153035000Y-99060000D03*
G04 #@! TD*
D12*
G04 #@! TO.N,GND*
G04 #@! TO.C,J1*
X196895000Y-105920000D03*
D13*
X201075000Y-105920000D03*
D12*
X196895000Y-97280000D03*
D13*
X201075000Y-97280000D03*
G04 #@! TD*
D10*
G04 #@! TO.N,+3V3*
G04 #@! TO.C,J4*
X153670000Y-93980000D03*
D11*
G04 #@! TO.N,GND*
X156210000Y-93980000D03*
G04 #@! TO.N,+5V*
X158750000Y-93980000D03*
G04 #@! TO.N,B9*
X161290000Y-93980000D03*
G04 #@! TO.N,B8*
X163830000Y-93980000D03*
G04 #@! TO.N,B7*
X166370000Y-93980000D03*
G04 #@! TO.N,B6*
X168910000Y-93980000D03*
G04 #@! TO.N,B5*
X171450000Y-93980000D03*
G04 #@! TO.N,B4*
X173990000Y-93980000D03*
G04 #@! TO.N,B3*
X176530000Y-93980000D03*
G04 #@! TO.N,A15*
X179070000Y-93980000D03*
G04 #@! TO.N,A12*
X181610000Y-93980000D03*
G04 #@! TO.N,A11*
X184150000Y-93980000D03*
G04 #@! TO.N,A10*
X186690000Y-93980000D03*
G04 #@! TO.N,A9*
X189230000Y-93980000D03*
G04 #@! TO.N,A8*
X191770000Y-93980000D03*
G04 #@! TO.N,B15*
X194310000Y-93980000D03*
G04 #@! TO.N,B14*
X196850000Y-93980000D03*
G04 #@! TO.N,B13*
X199390000Y-93980000D03*
G04 #@! TO.N,B12*
X201930000Y-93980000D03*
G04 #@! TD*
D10*
G04 #@! TO.N,+3V3*
G04 #@! TO.C,J3*
X153670000Y-109220000D03*
D11*
G04 #@! TO.N,C13*
X156210000Y-109220000D03*
G04 #@! TO.N,C14*
X158750000Y-109220000D03*
G04 #@! TO.N,C15*
X161290000Y-109220000D03*
G04 #@! TO.N,RST*
X163830000Y-109220000D03*
G04 #@! TO.N,A0*
X166370000Y-109220000D03*
G04 #@! TO.N,A1*
X168910000Y-109220000D03*
G04 #@! TO.N,A2*
X171450000Y-109220000D03*
G04 #@! TO.N,A3*
X173990000Y-109220000D03*
G04 #@! TO.N,A4*
X176530000Y-109220000D03*
G04 #@! TO.N,A5*
X179070000Y-109220000D03*
G04 #@! TO.N,A6*
X181610000Y-109220000D03*
G04 #@! TO.N,A7*
X184150000Y-109220000D03*
G04 #@! TO.N,B0*
X186690000Y-109220000D03*
G04 #@! TO.N,B1*
X189230000Y-109220000D03*
G04 #@! TO.N,B2*
X191770000Y-109220000D03*
G04 #@! TO.N,B10*
X194310000Y-109220000D03*
G04 #@! TO.N,+3V3*
X196850000Y-109220000D03*
G04 #@! TO.N,GND*
X199390000Y-109220000D03*
G04 #@! TO.N,+5V*
X201930000Y-109220000D03*
G04 #@! TD*
D14*
G04 #@! TO.N,GND*
X186690000Y-105410000D03*
X199390000Y-102870000D03*
X201295000Y-102870000D03*
X169545000Y-103505000D03*
X197485000Y-100330000D03*
X159385000Y-104140000D03*
X187960000Y-103505000D03*
X197485000Y-102870000D03*
X175895000Y-102870000D03*
X170815000Y-99060000D03*
X171450000Y-106045000D03*
X201295000Y-100330000D03*
X199390000Y-100330000D03*
X188976000Y-104648000D03*
X188976000Y-105410000D03*
X187960000Y-102616000D03*
G04 #@! TO.N,VBUS*
X192405000Y-104775000D03*
X193040000Y-105410000D03*
X193675000Y-104775000D03*
G04 #@! TO.N,+3V3*
X179070000Y-95885000D03*
X172085000Y-101600000D03*
X176143883Y-104388883D03*
X187325000Y-101600000D03*
X159385000Y-99695000D03*
X184150000Y-103365000D03*
G04 #@! TO.N,C13*
X185420000Y-100330000D03*
X173990000Y-102235000D03*
G04 #@! TO.N,A12*
X192405000Y-99695000D03*
G04 #@! TO.N,A11*
X192405000Y-100965000D03*
G04 #@! TO.N,A7*
X179705000Y-102870000D03*
X166370000Y-98425000D03*
G04 #@! TO.N,A6*
X165735000Y-99060000D03*
X178435000Y-102870000D03*
G04 #@! TO.N,A5*
X165100000Y-99695000D03*
X177800000Y-104140000D03*
G04 #@! TO.N,A4*
X167640000Y-101075700D03*
X177165000Y-104775000D03*
G04 #@! TO.N,BO0*
X172085000Y-96520000D03*
X183515000Y-104140000D03*
X157480000Y-96520000D03*
G04 #@! TO.N,SWCLK*
X175895000Y-99060000D03*
G04 #@! TO.N,SWDIO*
X178435000Y-99060000D03*
G04 #@! TD*
G04 #@! TA.AperFunction,Conductor*
G04 #@! TO.N,+3V3*
G36*
X202567947Y-91465731D02*
G01*
X202753791Y-91480358D01*
X202765430Y-91482201D01*
X202943817Y-91525028D01*
X202955033Y-91528672D01*
X203124528Y-91598879D01*
X203135036Y-91604234D01*
X203291455Y-91700088D01*
X203301002Y-91707024D01*
X203440498Y-91826166D01*
X203448837Y-91834505D01*
X203567975Y-91973997D01*
X203574911Y-91983544D01*
X203670765Y-92139963D01*
X203676123Y-92150477D01*
X203746326Y-92319963D01*
X203749972Y-92331186D01*
X203792796Y-92509561D01*
X203794642Y-92521216D01*
X203809268Y-92707052D01*
X203809500Y-92712952D01*
X203809500Y-110487047D01*
X203809268Y-110492947D01*
X203794642Y-110678783D01*
X203792796Y-110690438D01*
X203749972Y-110868813D01*
X203746326Y-110880036D01*
X203676123Y-111049522D01*
X203670765Y-111060036D01*
X203574911Y-111216455D01*
X203567975Y-111226002D01*
X203448837Y-111365494D01*
X203440494Y-111373837D01*
X203301002Y-111492975D01*
X203291455Y-111499911D01*
X203135036Y-111595765D01*
X203124522Y-111601123D01*
X202955036Y-111671326D01*
X202943813Y-111674972D01*
X202765438Y-111717796D01*
X202753783Y-111719642D01*
X202567948Y-111734268D01*
X202562048Y-111734500D01*
X153037952Y-111734500D01*
X153032052Y-111734268D01*
X152846216Y-111719642D01*
X152834561Y-111717796D01*
X152656186Y-111674972D01*
X152644963Y-111671326D01*
X152475477Y-111601123D01*
X152464963Y-111595765D01*
X152308544Y-111499911D01*
X152298997Y-111492975D01*
X152259027Y-111458838D01*
X152159501Y-111373833D01*
X152151166Y-111365498D01*
X152032024Y-111226002D01*
X152025088Y-111216455D01*
X151929234Y-111060036D01*
X151923879Y-111049528D01*
X151853672Y-110880033D01*
X151850027Y-110868813D01*
X151807201Y-110690430D01*
X151805358Y-110678791D01*
X151790732Y-110492947D01*
X151790500Y-110487047D01*
X151790500Y-108354987D01*
X152667600Y-108354987D01*
X152667600Y-109067600D01*
X153193198Y-109067600D01*
X153170000Y-109154174D01*
X153170000Y-109285826D01*
X153193198Y-109372400D01*
X152667600Y-109372400D01*
X152667600Y-110085012D01*
X152676441Y-110129462D01*
X152676442Y-110129464D01*
X152710126Y-110179873D01*
X152760535Y-110213557D01*
X152760537Y-110213558D01*
X152804987Y-110222400D01*
X153517600Y-110222400D01*
X153517600Y-109696802D01*
X153604174Y-109720000D01*
X153735826Y-109720000D01*
X153822400Y-109696802D01*
X153822400Y-110222400D01*
X154535013Y-110222400D01*
X154579462Y-110213558D01*
X154579464Y-110213557D01*
X154629873Y-110179873D01*
X154663557Y-110129464D01*
X154663558Y-110129462D01*
X154672400Y-110085012D01*
X154672400Y-109372400D01*
X154146802Y-109372400D01*
X154170000Y-109285826D01*
X154170000Y-109154174D01*
X154161170Y-109121222D01*
X155207100Y-109121222D01*
X155207100Y-109318777D01*
X155245641Y-109512537D01*
X155245642Y-109512538D01*
X155321241Y-109695051D01*
X155430996Y-109859312D01*
X155430997Y-109859313D01*
X155431000Y-109859317D01*
X155570682Y-109998999D01*
X155570685Y-109999001D01*
X155570688Y-109999004D01*
X155734949Y-110108759D01*
X155917461Y-110184357D01*
X155917462Y-110184358D01*
X155917463Y-110184358D01*
X155917465Y-110184359D01*
X156047218Y-110210168D01*
X156111222Y-110222900D01*
X156111223Y-110222900D01*
X156308778Y-110222900D01*
X156364967Y-110211723D01*
X156502535Y-110184359D01*
X156685051Y-110108759D01*
X156849312Y-109999004D01*
X156989004Y-109859312D01*
X157098759Y-109695051D01*
X157174359Y-109512535D01*
X157212900Y-109318777D01*
X157212900Y-109121223D01*
X157212900Y-109121222D01*
X157747100Y-109121222D01*
X157747100Y-109318777D01*
X157785641Y-109512537D01*
X157785642Y-109512538D01*
X157861241Y-109695051D01*
X157970996Y-109859312D01*
X157970997Y-109859313D01*
X157971000Y-109859317D01*
X158110682Y-109998999D01*
X158110685Y-109999001D01*
X158110688Y-109999004D01*
X158274949Y-110108759D01*
X158457461Y-110184357D01*
X158457462Y-110184358D01*
X158457463Y-110184358D01*
X158457465Y-110184359D01*
X158587218Y-110210168D01*
X158651222Y-110222900D01*
X158651223Y-110222900D01*
X158848778Y-110222900D01*
X158904967Y-110211723D01*
X159042535Y-110184359D01*
X159225051Y-110108759D01*
X159389312Y-109999004D01*
X159529004Y-109859312D01*
X159638759Y-109695051D01*
X159714359Y-109512535D01*
X159752900Y-109318777D01*
X159752900Y-109121223D01*
X159752900Y-109121222D01*
X160287100Y-109121222D01*
X160287100Y-109318777D01*
X160325641Y-109512537D01*
X160325642Y-109512538D01*
X160401241Y-109695051D01*
X160510996Y-109859312D01*
X160510997Y-109859313D01*
X160511000Y-109859317D01*
X160650682Y-109998999D01*
X160650685Y-109999001D01*
X160650688Y-109999004D01*
X160814949Y-110108759D01*
X160997461Y-110184357D01*
X160997462Y-110184358D01*
X160997463Y-110184358D01*
X160997465Y-110184359D01*
X161127218Y-110210168D01*
X161191222Y-110222900D01*
X161191223Y-110222900D01*
X161388778Y-110222900D01*
X161444967Y-110211723D01*
X161582535Y-110184359D01*
X161765051Y-110108759D01*
X161929312Y-109999004D01*
X162069004Y-109859312D01*
X162178759Y-109695051D01*
X162254359Y-109512535D01*
X162292900Y-109318777D01*
X162292900Y-109121223D01*
X162292900Y-109121222D01*
X162827100Y-109121222D01*
X162827100Y-109318777D01*
X162865641Y-109512537D01*
X162865642Y-109512538D01*
X162941241Y-109695051D01*
X163050996Y-109859312D01*
X163050997Y-109859313D01*
X163051000Y-109859317D01*
X163190682Y-109998999D01*
X163190685Y-109999001D01*
X163190688Y-109999004D01*
X163354949Y-110108759D01*
X163537461Y-110184357D01*
X163537462Y-110184358D01*
X163537463Y-110184358D01*
X163537465Y-110184359D01*
X163667218Y-110210168D01*
X163731222Y-110222900D01*
X163731223Y-110222900D01*
X163928778Y-110222900D01*
X163984967Y-110211723D01*
X164122535Y-110184359D01*
X164305051Y-110108759D01*
X164469312Y-109999004D01*
X164609004Y-109859312D01*
X164718759Y-109695051D01*
X164794359Y-109512535D01*
X164832900Y-109318777D01*
X164832900Y-109121223D01*
X164832900Y-109121222D01*
X165367100Y-109121222D01*
X165367100Y-109318777D01*
X165405641Y-109512537D01*
X165405642Y-109512538D01*
X165481241Y-109695051D01*
X165590996Y-109859312D01*
X165590997Y-109859313D01*
X165591000Y-109859317D01*
X165730682Y-109998999D01*
X165730685Y-109999001D01*
X165730688Y-109999004D01*
X165894949Y-110108759D01*
X166077461Y-110184357D01*
X166077462Y-110184358D01*
X166077463Y-110184358D01*
X166077465Y-110184359D01*
X166207218Y-110210168D01*
X166271222Y-110222900D01*
X166271223Y-110222900D01*
X166468778Y-110222900D01*
X166524967Y-110211723D01*
X166662535Y-110184359D01*
X166845051Y-110108759D01*
X167009312Y-109999004D01*
X167149004Y-109859312D01*
X167258759Y-109695051D01*
X167334359Y-109512535D01*
X167372900Y-109318777D01*
X167372900Y-109121223D01*
X167372900Y-109121222D01*
X167907100Y-109121222D01*
X167907100Y-109318777D01*
X167945641Y-109512537D01*
X167945642Y-109512538D01*
X168021241Y-109695051D01*
X168130996Y-109859312D01*
X168130997Y-109859313D01*
X168131000Y-109859317D01*
X168270682Y-109998999D01*
X168270685Y-109999001D01*
X168270688Y-109999004D01*
X168434949Y-110108759D01*
X168617461Y-110184357D01*
X168617462Y-110184358D01*
X168617463Y-110184358D01*
X168617465Y-110184359D01*
X168747218Y-110210168D01*
X168811222Y-110222900D01*
X168811223Y-110222900D01*
X169008778Y-110222900D01*
X169064967Y-110211723D01*
X169202535Y-110184359D01*
X169385051Y-110108759D01*
X169549312Y-109999004D01*
X169689004Y-109859312D01*
X169798759Y-109695051D01*
X169874359Y-109512535D01*
X169912900Y-109318777D01*
X169912900Y-109121223D01*
X169912900Y-109121222D01*
X170447100Y-109121222D01*
X170447100Y-109318777D01*
X170485641Y-109512537D01*
X170485642Y-109512538D01*
X170561241Y-109695051D01*
X170670996Y-109859312D01*
X170670997Y-109859313D01*
X170671000Y-109859317D01*
X170810682Y-109998999D01*
X170810685Y-109999001D01*
X170810688Y-109999004D01*
X170974949Y-110108759D01*
X171157461Y-110184357D01*
X171157462Y-110184358D01*
X171157463Y-110184358D01*
X171157465Y-110184359D01*
X171287218Y-110210168D01*
X171351222Y-110222900D01*
X171351223Y-110222900D01*
X171548778Y-110222900D01*
X171604967Y-110211723D01*
X171742535Y-110184359D01*
X171925051Y-110108759D01*
X172089312Y-109999004D01*
X172229004Y-109859312D01*
X172338759Y-109695051D01*
X172414359Y-109512535D01*
X172452900Y-109318777D01*
X172452900Y-109121223D01*
X172452900Y-109121222D01*
X172987100Y-109121222D01*
X172987100Y-109318777D01*
X173025641Y-109512537D01*
X173025642Y-109512538D01*
X173101241Y-109695051D01*
X173210996Y-109859312D01*
X173210997Y-109859313D01*
X173211000Y-109859317D01*
X173350682Y-109998999D01*
X173350685Y-109999001D01*
X173350688Y-109999004D01*
X173514949Y-110108759D01*
X173697461Y-110184357D01*
X173697462Y-110184358D01*
X173697463Y-110184358D01*
X173697465Y-110184359D01*
X173827218Y-110210168D01*
X173891222Y-110222900D01*
X173891223Y-110222900D01*
X174088778Y-110222900D01*
X174144967Y-110211723D01*
X174282535Y-110184359D01*
X174465051Y-110108759D01*
X174629312Y-109999004D01*
X174769004Y-109859312D01*
X174878759Y-109695051D01*
X174954359Y-109512535D01*
X174992900Y-109318777D01*
X174992900Y-109121223D01*
X174992900Y-109121222D01*
X175527100Y-109121222D01*
X175527100Y-109318777D01*
X175565641Y-109512537D01*
X175565642Y-109512538D01*
X175641241Y-109695051D01*
X175750996Y-109859312D01*
X175750997Y-109859313D01*
X175751000Y-109859317D01*
X175890682Y-109998999D01*
X175890685Y-109999001D01*
X175890688Y-109999004D01*
X176054949Y-110108759D01*
X176237461Y-110184357D01*
X176237462Y-110184358D01*
X176237463Y-110184358D01*
X176237465Y-110184359D01*
X176367218Y-110210168D01*
X176431222Y-110222900D01*
X176431223Y-110222900D01*
X176628778Y-110222900D01*
X176684967Y-110211723D01*
X176822535Y-110184359D01*
X177005051Y-110108759D01*
X177169312Y-109999004D01*
X177309004Y-109859312D01*
X177418759Y-109695051D01*
X177494359Y-109512535D01*
X177532900Y-109318777D01*
X177532900Y-109121223D01*
X177532900Y-109121222D01*
X178067100Y-109121222D01*
X178067100Y-109318777D01*
X178105641Y-109512537D01*
X178105642Y-109512538D01*
X178181241Y-109695051D01*
X178290996Y-109859312D01*
X178290997Y-109859313D01*
X178291000Y-109859317D01*
X178430682Y-109998999D01*
X178430685Y-109999001D01*
X178430688Y-109999004D01*
X178594949Y-110108759D01*
X178777461Y-110184357D01*
X178777462Y-110184358D01*
X178777463Y-110184358D01*
X178777465Y-110184359D01*
X178907218Y-110210168D01*
X178971222Y-110222900D01*
X178971223Y-110222900D01*
X179168778Y-110222900D01*
X179224967Y-110211723D01*
X179362535Y-110184359D01*
X179545051Y-110108759D01*
X179709312Y-109999004D01*
X179849004Y-109859312D01*
X179958759Y-109695051D01*
X180034359Y-109512535D01*
X180072900Y-109318777D01*
X180072900Y-109121223D01*
X180072900Y-109121222D01*
X180607100Y-109121222D01*
X180607100Y-109318777D01*
X180645641Y-109512537D01*
X180645642Y-109512538D01*
X180721241Y-109695051D01*
X180830996Y-109859312D01*
X180830997Y-109859313D01*
X180831000Y-109859317D01*
X180970682Y-109998999D01*
X180970685Y-109999001D01*
X180970688Y-109999004D01*
X181134949Y-110108759D01*
X181317461Y-110184357D01*
X181317462Y-110184358D01*
X181317463Y-110184358D01*
X181317465Y-110184359D01*
X181447218Y-110210168D01*
X181511222Y-110222900D01*
X181511223Y-110222900D01*
X181708778Y-110222900D01*
X181764967Y-110211723D01*
X181902535Y-110184359D01*
X182085051Y-110108759D01*
X182249312Y-109999004D01*
X182389004Y-109859312D01*
X182498759Y-109695051D01*
X182574359Y-109512535D01*
X182612900Y-109318777D01*
X182612900Y-109121223D01*
X182612900Y-109121222D01*
X183147100Y-109121222D01*
X183147100Y-109318777D01*
X183185641Y-109512537D01*
X183185642Y-109512538D01*
X183261241Y-109695051D01*
X183370996Y-109859312D01*
X183370997Y-109859313D01*
X183371000Y-109859317D01*
X183510682Y-109998999D01*
X183510685Y-109999001D01*
X183510688Y-109999004D01*
X183674949Y-110108759D01*
X183857461Y-110184357D01*
X183857462Y-110184358D01*
X183857463Y-110184358D01*
X183857465Y-110184359D01*
X183987218Y-110210168D01*
X184051222Y-110222900D01*
X184051223Y-110222900D01*
X184248778Y-110222900D01*
X184304967Y-110211723D01*
X184442535Y-110184359D01*
X184625051Y-110108759D01*
X184789312Y-109999004D01*
X184929004Y-109859312D01*
X185038759Y-109695051D01*
X185114359Y-109512535D01*
X185152900Y-109318777D01*
X185152900Y-109121223D01*
X185152900Y-109121222D01*
X185687100Y-109121222D01*
X185687100Y-109318777D01*
X185725641Y-109512537D01*
X185725642Y-109512538D01*
X185801241Y-109695051D01*
X185910996Y-109859312D01*
X185910997Y-109859313D01*
X185911000Y-109859317D01*
X186050682Y-109998999D01*
X186050685Y-109999001D01*
X186050688Y-109999004D01*
X186214949Y-110108759D01*
X186397461Y-110184357D01*
X186397462Y-110184358D01*
X186397463Y-110184358D01*
X186397465Y-110184359D01*
X186527218Y-110210168D01*
X186591222Y-110222900D01*
X186591223Y-110222900D01*
X186788778Y-110222900D01*
X186844967Y-110211723D01*
X186982535Y-110184359D01*
X187165051Y-110108759D01*
X187329312Y-109999004D01*
X187469004Y-109859312D01*
X187578759Y-109695051D01*
X187654359Y-109512535D01*
X187692900Y-109318777D01*
X187692900Y-109121223D01*
X187692900Y-109121222D01*
X188227100Y-109121222D01*
X188227100Y-109318777D01*
X188265641Y-109512537D01*
X188265642Y-109512538D01*
X188341241Y-109695051D01*
X188450996Y-109859312D01*
X188450997Y-109859313D01*
X188451000Y-109859317D01*
X188590682Y-109998999D01*
X188590685Y-109999001D01*
X188590688Y-109999004D01*
X188754949Y-110108759D01*
X188937461Y-110184357D01*
X188937462Y-110184358D01*
X188937463Y-110184358D01*
X188937465Y-110184359D01*
X189067218Y-110210168D01*
X189131222Y-110222900D01*
X189131223Y-110222900D01*
X189328778Y-110222900D01*
X189384967Y-110211723D01*
X189522535Y-110184359D01*
X189705051Y-110108759D01*
X189869312Y-109999004D01*
X190009004Y-109859312D01*
X190118759Y-109695051D01*
X190194359Y-109512535D01*
X190232900Y-109318777D01*
X190232900Y-109121223D01*
X190232900Y-109121222D01*
X190767100Y-109121222D01*
X190767100Y-109318777D01*
X190805641Y-109512537D01*
X190805642Y-109512538D01*
X190881241Y-109695051D01*
X190990996Y-109859312D01*
X190990997Y-109859313D01*
X190991000Y-109859317D01*
X191130682Y-109998999D01*
X191130685Y-109999001D01*
X191130688Y-109999004D01*
X191294949Y-110108759D01*
X191477461Y-110184357D01*
X191477462Y-110184358D01*
X191477463Y-110184358D01*
X191477465Y-110184359D01*
X191607218Y-110210168D01*
X191671222Y-110222900D01*
X191671223Y-110222900D01*
X191868778Y-110222900D01*
X191924967Y-110211723D01*
X192062535Y-110184359D01*
X192245051Y-110108759D01*
X192409312Y-109999004D01*
X192549004Y-109859312D01*
X192658759Y-109695051D01*
X192734359Y-109512535D01*
X192772900Y-109318777D01*
X192772900Y-109121223D01*
X192772900Y-109121222D01*
X193307100Y-109121222D01*
X193307100Y-109318777D01*
X193345641Y-109512537D01*
X193345642Y-109512538D01*
X193421241Y-109695051D01*
X193530996Y-109859312D01*
X193530997Y-109859313D01*
X193531000Y-109859317D01*
X193670682Y-109998999D01*
X193670685Y-109999001D01*
X193670688Y-109999004D01*
X193834949Y-110108759D01*
X194017461Y-110184357D01*
X194017462Y-110184358D01*
X194017463Y-110184358D01*
X194017465Y-110184359D01*
X194147218Y-110210168D01*
X194211222Y-110222900D01*
X194211223Y-110222900D01*
X194408778Y-110222900D01*
X194464967Y-110211723D01*
X194602535Y-110184359D01*
X194785051Y-110108759D01*
X194949312Y-109999004D01*
X195089004Y-109859312D01*
X195198759Y-109695051D01*
X195274359Y-109512535D01*
X195312900Y-109318777D01*
X195312900Y-109121223D01*
X195311446Y-109113914D01*
X195309173Y-109102483D01*
X195302234Y-109067600D01*
X195858276Y-109067600D01*
X196373198Y-109067600D01*
X196350000Y-109154174D01*
X196350000Y-109285826D01*
X196373198Y-109372400D01*
X195858276Y-109372400D01*
X195886121Y-109512385D01*
X195886122Y-109512388D01*
X195961684Y-109694812D01*
X196071389Y-109858998D01*
X196211001Y-109998610D01*
X196375187Y-110108315D01*
X196557607Y-110183876D01*
X196557608Y-110183877D01*
X196697599Y-110211723D01*
X196697600Y-110211723D01*
X196697600Y-109696802D01*
X196784174Y-109720000D01*
X196915826Y-109720000D01*
X197002400Y-109696802D01*
X197002400Y-110211723D01*
X197142391Y-110183877D01*
X197142392Y-110183876D01*
X197324812Y-110108315D01*
X197488998Y-109998610D01*
X197628610Y-109858998D01*
X197738315Y-109694812D01*
X197813877Y-109512388D01*
X197813878Y-109512385D01*
X197841724Y-109372400D01*
X197326802Y-109372400D01*
X197350000Y-109285826D01*
X197350000Y-109154174D01*
X197341170Y-109121222D01*
X198387100Y-109121222D01*
X198387100Y-109318777D01*
X198425641Y-109512537D01*
X198425642Y-109512538D01*
X198501241Y-109695051D01*
X198610996Y-109859312D01*
X198610997Y-109859313D01*
X198611000Y-109859317D01*
X198750682Y-109998999D01*
X198750685Y-109999001D01*
X198750688Y-109999004D01*
X198914949Y-110108759D01*
X199097461Y-110184357D01*
X199097462Y-110184358D01*
X199097463Y-110184358D01*
X199097465Y-110184359D01*
X199227218Y-110210168D01*
X199291222Y-110222900D01*
X199291223Y-110222900D01*
X199488778Y-110222900D01*
X199544967Y-110211723D01*
X199682535Y-110184359D01*
X199865051Y-110108759D01*
X200029312Y-109999004D01*
X200169004Y-109859312D01*
X200278759Y-109695051D01*
X200354359Y-109512535D01*
X200392900Y-109318777D01*
X200392900Y-109121223D01*
X200392900Y-109121222D01*
X200927100Y-109121222D01*
X200927100Y-109318777D01*
X200965641Y-109512537D01*
X200965642Y-109512538D01*
X201041241Y-109695051D01*
X201150996Y-109859312D01*
X201150997Y-109859313D01*
X201151000Y-109859317D01*
X201290682Y-109998999D01*
X201290685Y-109999001D01*
X201290688Y-109999004D01*
X201454949Y-110108759D01*
X201637461Y-110184357D01*
X201637462Y-110184358D01*
X201637463Y-110184358D01*
X201637465Y-110184359D01*
X201767218Y-110210168D01*
X201831222Y-110222900D01*
X201831223Y-110222900D01*
X202028778Y-110222900D01*
X202084967Y-110211723D01*
X202222535Y-110184359D01*
X202405051Y-110108759D01*
X202569312Y-109999004D01*
X202709004Y-109859312D01*
X202818759Y-109695051D01*
X202894359Y-109512535D01*
X202932900Y-109318777D01*
X202932900Y-109121223D01*
X202932899Y-109121220D01*
X202914159Y-109027007D01*
X202894359Y-108927465D01*
X202818759Y-108744949D01*
X202709004Y-108580688D01*
X202709001Y-108580685D01*
X202708999Y-108580682D01*
X202569317Y-108441000D01*
X202569313Y-108440997D01*
X202569312Y-108440996D01*
X202405051Y-108331241D01*
X202233363Y-108260126D01*
X202222538Y-108255642D01*
X202222537Y-108255641D01*
X202028778Y-108217100D01*
X202028777Y-108217100D01*
X201831223Y-108217100D01*
X201831222Y-108217100D01*
X201637462Y-108255641D01*
X201637461Y-108255642D01*
X201454950Y-108331240D01*
X201290682Y-108441000D01*
X201151000Y-108580682D01*
X201041240Y-108744950D01*
X200965642Y-108927461D01*
X200965641Y-108927462D01*
X200927100Y-109121222D01*
X200392900Y-109121222D01*
X200392899Y-109121220D01*
X200374159Y-109027007D01*
X200354359Y-108927465D01*
X200278759Y-108744949D01*
X200169004Y-108580688D01*
X200169001Y-108580685D01*
X200168999Y-108580682D01*
X200029317Y-108441000D01*
X200029313Y-108440997D01*
X200029312Y-108440996D01*
X199865051Y-108331241D01*
X199693363Y-108260126D01*
X199682538Y-108255642D01*
X199682537Y-108255641D01*
X199488778Y-108217100D01*
X199488777Y-108217100D01*
X199291223Y-108217100D01*
X199291222Y-108217100D01*
X199097462Y-108255641D01*
X199097461Y-108255642D01*
X198914950Y-108331240D01*
X198750682Y-108441000D01*
X198611000Y-108580682D01*
X198501240Y-108744950D01*
X198425642Y-108927461D01*
X198425641Y-108927462D01*
X198387100Y-109121222D01*
X197341170Y-109121222D01*
X197326802Y-109067600D01*
X197841724Y-109067600D01*
X197813878Y-108927614D01*
X197813877Y-108927611D01*
X197738315Y-108745187D01*
X197628610Y-108581001D01*
X197488998Y-108441389D01*
X197324812Y-108331684D01*
X197142388Y-108256122D01*
X197142385Y-108256121D01*
X197002400Y-108228276D01*
X197002400Y-108743197D01*
X196915826Y-108720000D01*
X196784174Y-108720000D01*
X196697600Y-108743197D01*
X196697600Y-108228276D01*
X196557614Y-108256121D01*
X196557611Y-108256122D01*
X196375187Y-108331684D01*
X196211001Y-108441389D01*
X196071389Y-108581001D01*
X195961684Y-108745187D01*
X195886122Y-108927611D01*
X195886121Y-108927614D01*
X195858276Y-109067600D01*
X195302234Y-109067600D01*
X195291357Y-109012922D01*
X195274359Y-108927465D01*
X195198759Y-108744949D01*
X195089004Y-108580688D01*
X195089001Y-108580685D01*
X195088999Y-108580682D01*
X194949317Y-108441000D01*
X194949313Y-108440997D01*
X194949312Y-108440996D01*
X194785051Y-108331241D01*
X194613363Y-108260126D01*
X194602538Y-108255642D01*
X194602537Y-108255641D01*
X194408778Y-108217100D01*
X194408777Y-108217100D01*
X194211223Y-108217100D01*
X194211222Y-108217100D01*
X194017462Y-108255641D01*
X194017461Y-108255642D01*
X193834950Y-108331240D01*
X193670682Y-108441000D01*
X193531000Y-108580682D01*
X193421240Y-108744950D01*
X193345642Y-108927461D01*
X193345641Y-108927462D01*
X193307100Y-109121222D01*
X192772900Y-109121222D01*
X192772899Y-109121220D01*
X192754159Y-109027007D01*
X192734359Y-108927465D01*
X192658759Y-108744949D01*
X192549004Y-108580688D01*
X192549001Y-108580685D01*
X192548999Y-108580682D01*
X192409317Y-108441000D01*
X192409313Y-108440997D01*
X192409312Y-108440996D01*
X192245051Y-108331241D01*
X192073363Y-108260126D01*
X192062538Y-108255642D01*
X192062537Y-108255641D01*
X191868778Y-108217100D01*
X191868777Y-108217100D01*
X191671223Y-108217100D01*
X191671222Y-108217100D01*
X191477462Y-108255641D01*
X191477461Y-108255642D01*
X191294950Y-108331240D01*
X191130682Y-108441000D01*
X190991000Y-108580682D01*
X190881240Y-108744950D01*
X190805642Y-108927461D01*
X190805641Y-108927462D01*
X190767100Y-109121222D01*
X190232900Y-109121222D01*
X190232899Y-109121220D01*
X190214159Y-109027007D01*
X190194359Y-108927465D01*
X190118759Y-108744949D01*
X190009004Y-108580688D01*
X190009001Y-108580685D01*
X190008999Y-108580682D01*
X189869317Y-108441000D01*
X189869313Y-108440997D01*
X189869312Y-108440996D01*
X189705051Y-108331241D01*
X189533363Y-108260126D01*
X189522538Y-108255642D01*
X189522537Y-108255641D01*
X189328778Y-108217100D01*
X189328777Y-108217100D01*
X189131223Y-108217100D01*
X189131222Y-108217100D01*
X188937462Y-108255641D01*
X188937461Y-108255642D01*
X188754950Y-108331240D01*
X188590682Y-108441000D01*
X188451000Y-108580682D01*
X188341240Y-108744950D01*
X188265642Y-108927461D01*
X188265641Y-108927462D01*
X188227100Y-109121222D01*
X187692900Y-109121222D01*
X187692899Y-109121220D01*
X187674159Y-109027007D01*
X187654359Y-108927465D01*
X187578759Y-108744949D01*
X187469004Y-108580688D01*
X187469001Y-108580685D01*
X187468999Y-108580682D01*
X187329317Y-108441000D01*
X187329313Y-108440997D01*
X187329312Y-108440996D01*
X187165051Y-108331241D01*
X186993363Y-108260126D01*
X186982538Y-108255642D01*
X186982537Y-108255641D01*
X186788778Y-108217100D01*
X186788777Y-108217100D01*
X186591223Y-108217100D01*
X186591222Y-108217100D01*
X186397462Y-108255641D01*
X186397461Y-108255642D01*
X186214950Y-108331240D01*
X186050682Y-108441000D01*
X185911000Y-108580682D01*
X185801240Y-108744950D01*
X185725642Y-108927461D01*
X185725641Y-108927462D01*
X185687100Y-109121222D01*
X185152900Y-109121222D01*
X185152899Y-109121220D01*
X185134159Y-109027007D01*
X185114359Y-108927465D01*
X185038759Y-108744949D01*
X184929004Y-108580688D01*
X184929001Y-108580685D01*
X184928999Y-108580682D01*
X184789317Y-108441000D01*
X184789313Y-108440997D01*
X184789312Y-108440996D01*
X184625051Y-108331241D01*
X184453363Y-108260126D01*
X184442538Y-108255642D01*
X184442537Y-108255641D01*
X184248778Y-108217100D01*
X184248777Y-108217100D01*
X184051223Y-108217100D01*
X184051222Y-108217100D01*
X183857462Y-108255641D01*
X183857461Y-108255642D01*
X183674950Y-108331240D01*
X183510682Y-108441000D01*
X183371000Y-108580682D01*
X183261240Y-108744950D01*
X183185642Y-108927461D01*
X183185641Y-108927462D01*
X183147100Y-109121222D01*
X182612900Y-109121222D01*
X182612899Y-109121220D01*
X182594159Y-109027007D01*
X182574359Y-108927465D01*
X182498759Y-108744949D01*
X182389004Y-108580688D01*
X182389001Y-108580685D01*
X182388999Y-108580682D01*
X182249317Y-108441000D01*
X182249313Y-108440997D01*
X182249312Y-108440996D01*
X182085051Y-108331241D01*
X181913363Y-108260126D01*
X181902538Y-108255642D01*
X181902537Y-108255641D01*
X181708778Y-108217100D01*
X181708777Y-108217100D01*
X181511223Y-108217100D01*
X181511222Y-108217100D01*
X181317462Y-108255641D01*
X181317461Y-108255642D01*
X181134950Y-108331240D01*
X180970682Y-108441000D01*
X180831000Y-108580682D01*
X180721240Y-108744950D01*
X180645642Y-108927461D01*
X180645641Y-108927462D01*
X180607100Y-109121222D01*
X180072900Y-109121222D01*
X180072899Y-109121220D01*
X180054159Y-109027007D01*
X180034359Y-108927465D01*
X179958759Y-108744949D01*
X179849004Y-108580688D01*
X179849001Y-108580685D01*
X179848999Y-108580682D01*
X179709317Y-108441000D01*
X179709313Y-108440997D01*
X179709312Y-108440996D01*
X179545051Y-108331241D01*
X179373363Y-108260126D01*
X179362538Y-108255642D01*
X179362537Y-108255641D01*
X179168778Y-108217100D01*
X179168777Y-108217100D01*
X178971223Y-108217100D01*
X178971222Y-108217100D01*
X178777462Y-108255641D01*
X178777461Y-108255642D01*
X178594950Y-108331240D01*
X178430682Y-108441000D01*
X178291000Y-108580682D01*
X178181240Y-108744950D01*
X178105642Y-108927461D01*
X178105641Y-108927462D01*
X178067100Y-109121222D01*
X177532900Y-109121222D01*
X177532899Y-109121220D01*
X177514159Y-109027007D01*
X177494359Y-108927465D01*
X177418759Y-108744949D01*
X177309004Y-108580688D01*
X177309001Y-108580685D01*
X177308999Y-108580682D01*
X177169317Y-108441000D01*
X177169313Y-108440997D01*
X177169312Y-108440996D01*
X177005051Y-108331241D01*
X176833363Y-108260126D01*
X176822538Y-108255642D01*
X176822537Y-108255641D01*
X176628778Y-108217100D01*
X176628777Y-108217100D01*
X176431223Y-108217100D01*
X176431222Y-108217100D01*
X176237462Y-108255641D01*
X176237461Y-108255642D01*
X176054950Y-108331240D01*
X175890682Y-108441000D01*
X175751000Y-108580682D01*
X175641240Y-108744950D01*
X175565642Y-108927461D01*
X175565641Y-108927462D01*
X175527100Y-109121222D01*
X174992900Y-109121222D01*
X174992899Y-109121220D01*
X174974159Y-109027007D01*
X174954359Y-108927465D01*
X174878759Y-108744949D01*
X174769004Y-108580688D01*
X174769001Y-108580685D01*
X174768999Y-108580682D01*
X174629317Y-108441000D01*
X174629313Y-108440997D01*
X174629312Y-108440996D01*
X174465051Y-108331241D01*
X174293363Y-108260126D01*
X174282538Y-108255642D01*
X174282537Y-108255641D01*
X174088778Y-108217100D01*
X174088777Y-108217100D01*
X173891223Y-108217100D01*
X173891222Y-108217100D01*
X173697462Y-108255641D01*
X173697461Y-108255642D01*
X173514950Y-108331240D01*
X173350682Y-108441000D01*
X173211000Y-108580682D01*
X173101240Y-108744950D01*
X173025642Y-108927461D01*
X173025641Y-108927462D01*
X172987100Y-109121222D01*
X172452900Y-109121222D01*
X172452899Y-109121220D01*
X172434159Y-109027007D01*
X172414359Y-108927465D01*
X172338759Y-108744949D01*
X172229004Y-108580688D01*
X172229001Y-108580685D01*
X172228999Y-108580682D01*
X172089317Y-108441000D01*
X172089313Y-108440997D01*
X172089312Y-108440996D01*
X171925051Y-108331241D01*
X171753363Y-108260126D01*
X171742538Y-108255642D01*
X171742537Y-108255641D01*
X171548778Y-108217100D01*
X171548777Y-108217100D01*
X171351223Y-108217100D01*
X171351222Y-108217100D01*
X171157462Y-108255641D01*
X171157461Y-108255642D01*
X170974950Y-108331240D01*
X170810682Y-108441000D01*
X170671000Y-108580682D01*
X170561240Y-108744950D01*
X170485642Y-108927461D01*
X170485641Y-108927462D01*
X170447100Y-109121222D01*
X169912900Y-109121222D01*
X169912899Y-109121220D01*
X169894159Y-109027007D01*
X169874359Y-108927465D01*
X169798759Y-108744949D01*
X169689004Y-108580688D01*
X169689001Y-108580685D01*
X169688999Y-108580682D01*
X169549317Y-108441000D01*
X169549313Y-108440997D01*
X169549312Y-108440996D01*
X169385051Y-108331241D01*
X169213363Y-108260126D01*
X169202538Y-108255642D01*
X169202537Y-108255641D01*
X169008778Y-108217100D01*
X169008777Y-108217100D01*
X168811223Y-108217100D01*
X168811222Y-108217100D01*
X168617462Y-108255641D01*
X168617461Y-108255642D01*
X168434950Y-108331240D01*
X168270682Y-108441000D01*
X168131000Y-108580682D01*
X168021240Y-108744950D01*
X167945642Y-108927461D01*
X167945641Y-108927462D01*
X167907100Y-109121222D01*
X167372900Y-109121222D01*
X167372899Y-109121220D01*
X167354159Y-109027007D01*
X167334359Y-108927465D01*
X167258759Y-108744949D01*
X167149004Y-108580688D01*
X167149001Y-108580685D01*
X167148999Y-108580682D01*
X167009317Y-108441000D01*
X167009313Y-108440997D01*
X167009312Y-108440996D01*
X166845051Y-108331241D01*
X166673363Y-108260126D01*
X166662538Y-108255642D01*
X166662537Y-108255641D01*
X166468778Y-108217100D01*
X166468777Y-108217100D01*
X166271223Y-108217100D01*
X166271222Y-108217100D01*
X166077462Y-108255641D01*
X166077461Y-108255642D01*
X165894950Y-108331240D01*
X165730682Y-108441000D01*
X165591000Y-108580682D01*
X165481240Y-108744950D01*
X165405642Y-108927461D01*
X165405641Y-108927462D01*
X165367100Y-109121222D01*
X164832900Y-109121222D01*
X164832899Y-109121220D01*
X164814159Y-109027007D01*
X164794359Y-108927465D01*
X164718759Y-108744949D01*
X164609004Y-108580688D01*
X164609001Y-108580685D01*
X164608999Y-108580682D01*
X164469317Y-108441000D01*
X164469313Y-108440997D01*
X164469312Y-108440996D01*
X164305051Y-108331241D01*
X164133363Y-108260126D01*
X164122538Y-108255642D01*
X164122537Y-108255641D01*
X163928778Y-108217100D01*
X163928777Y-108217100D01*
X163731223Y-108217100D01*
X163731222Y-108217100D01*
X163537462Y-108255641D01*
X163537461Y-108255642D01*
X163354950Y-108331240D01*
X163190682Y-108441000D01*
X163051000Y-108580682D01*
X162941240Y-108744950D01*
X162865642Y-108927461D01*
X162865641Y-108927462D01*
X162827100Y-109121222D01*
X162292900Y-109121222D01*
X162292899Y-109121220D01*
X162274159Y-109027007D01*
X162254359Y-108927465D01*
X162178759Y-108744949D01*
X162069004Y-108580688D01*
X162069001Y-108580685D01*
X162068999Y-108580682D01*
X161929317Y-108441000D01*
X161929313Y-108440997D01*
X161929312Y-108440996D01*
X161765051Y-108331241D01*
X161593363Y-108260126D01*
X161582538Y-108255642D01*
X161582537Y-108255641D01*
X161388778Y-108217100D01*
X161388777Y-108217100D01*
X161191223Y-108217100D01*
X161191222Y-108217100D01*
X160997462Y-108255641D01*
X160997461Y-108255642D01*
X160814950Y-108331240D01*
X160650682Y-108441000D01*
X160511000Y-108580682D01*
X160401240Y-108744950D01*
X160325642Y-108927461D01*
X160325641Y-108927462D01*
X160287100Y-109121222D01*
X159752900Y-109121222D01*
X159752899Y-109121220D01*
X159734159Y-109027007D01*
X159714359Y-108927465D01*
X159638759Y-108744949D01*
X159529004Y-108580688D01*
X159529001Y-108580685D01*
X159528999Y-108580682D01*
X159389317Y-108441000D01*
X159389313Y-108440997D01*
X159389312Y-108440996D01*
X159225051Y-108331241D01*
X159053363Y-108260126D01*
X159042538Y-108255642D01*
X159042537Y-108255641D01*
X158848778Y-108217100D01*
X158848777Y-108217100D01*
X158651223Y-108217100D01*
X158651222Y-108217100D01*
X158457462Y-108255641D01*
X158457461Y-108255642D01*
X158274950Y-108331240D01*
X158110682Y-108441000D01*
X157971000Y-108580682D01*
X157861240Y-108744950D01*
X157785642Y-108927461D01*
X157785641Y-108927462D01*
X157747100Y-109121222D01*
X157212900Y-109121222D01*
X157212899Y-109121220D01*
X157194159Y-109027007D01*
X157174359Y-108927465D01*
X157098759Y-108744949D01*
X156989004Y-108580688D01*
X156989001Y-108580685D01*
X156988999Y-108580682D01*
X156849317Y-108441000D01*
X156849313Y-108440997D01*
X156849312Y-108440996D01*
X156685051Y-108331241D01*
X156513363Y-108260126D01*
X156502538Y-108255642D01*
X156502537Y-108255641D01*
X156308778Y-108217100D01*
X156308777Y-108217100D01*
X156111223Y-108217100D01*
X156111222Y-108217100D01*
X155917462Y-108255641D01*
X155917461Y-108255642D01*
X155734950Y-108331240D01*
X155570682Y-108441000D01*
X155431000Y-108580682D01*
X155321240Y-108744950D01*
X155245642Y-108927461D01*
X155245641Y-108927462D01*
X155207100Y-109121222D01*
X154161170Y-109121222D01*
X154146802Y-109067600D01*
X154672400Y-109067600D01*
X154672400Y-108354987D01*
X154663558Y-108310537D01*
X154663557Y-108310535D01*
X154629873Y-108260126D01*
X154579464Y-108226442D01*
X154579462Y-108226441D01*
X154535013Y-108217600D01*
X153822400Y-108217600D01*
X153822400Y-108743197D01*
X153735826Y-108720000D01*
X153604174Y-108720000D01*
X153517600Y-108743197D01*
X153517600Y-108217600D01*
X152804987Y-108217600D01*
X152760537Y-108226441D01*
X152760535Y-108226442D01*
X152710126Y-108260126D01*
X152676442Y-108310535D01*
X152676441Y-108310537D01*
X152667600Y-108354987D01*
X151790500Y-108354987D01*
X151790500Y-105978792D01*
X170947100Y-105978792D01*
X170947100Y-106111208D01*
X170967662Y-106187950D01*
X170981371Y-106239114D01*
X171047578Y-106353786D01*
X171047582Y-106353792D01*
X171141207Y-106447417D01*
X171141210Y-106447419D01*
X171141212Y-106447421D01*
X171191775Y-106476613D01*
X171255885Y-106513628D01*
X171255887Y-106513628D01*
X171255888Y-106513629D01*
X171383792Y-106547900D01*
X171383794Y-106547900D01*
X171516206Y-106547900D01*
X171516208Y-106547900D01*
X171644112Y-106513629D01*
X171758788Y-106447421D01*
X171852421Y-106353788D01*
X171918629Y-106239112D01*
X171952900Y-106111208D01*
X171952900Y-105978792D01*
X171918629Y-105850888D01*
X171918628Y-105850887D01*
X171918628Y-105850885D01*
X171881613Y-105786775D01*
X171852421Y-105736212D01*
X171852419Y-105736210D01*
X171852417Y-105736207D01*
X171758792Y-105642582D01*
X171758786Y-105642578D01*
X171644114Y-105576371D01*
X171580160Y-105559235D01*
X171516208Y-105542100D01*
X171383792Y-105542100D01*
X171332630Y-105555808D01*
X171255885Y-105576371D01*
X171141213Y-105642578D01*
X171141207Y-105642582D01*
X171047582Y-105736207D01*
X171047578Y-105736213D01*
X170981371Y-105850885D01*
X170964755Y-105912900D01*
X170947100Y-105978792D01*
X151790500Y-105978792D01*
X151790500Y-105343792D01*
X186187100Y-105343792D01*
X186187100Y-105476208D01*
X186204755Y-105542100D01*
X186221371Y-105604114D01*
X186287578Y-105718786D01*
X186287582Y-105718792D01*
X186381207Y-105812417D01*
X186381210Y-105812419D01*
X186381212Y-105812421D01*
X186431775Y-105841613D01*
X186495885Y-105878628D01*
X186495887Y-105878628D01*
X186495888Y-105878629D01*
X186623792Y-105912900D01*
X186623794Y-105912900D01*
X186756206Y-105912900D01*
X186756208Y-105912900D01*
X186884112Y-105878629D01*
X186998788Y-105812421D01*
X187092421Y-105718788D01*
X187158629Y-105604112D01*
X187192900Y-105476208D01*
X187192900Y-105343792D01*
X187158629Y-105215888D01*
X187158628Y-105215887D01*
X187158628Y-105215885D01*
X187111367Y-105134028D01*
X187092421Y-105101212D01*
X187092419Y-105101210D01*
X187092417Y-105101207D01*
X186998792Y-105007582D01*
X186998786Y-105007578D01*
X186884114Y-104941371D01*
X186820160Y-104924235D01*
X186756208Y-104907100D01*
X186623792Y-104907100D01*
X186580835Y-104918610D01*
X186495885Y-104941371D01*
X186381213Y-105007578D01*
X186381207Y-105007582D01*
X186287582Y-105101207D01*
X186287578Y-105101213D01*
X186221371Y-105215885D01*
X186207883Y-105266226D01*
X186187100Y-105343792D01*
X151790500Y-105343792D01*
X151790500Y-103987600D01*
X152043276Y-103987600D01*
X152558198Y-103987600D01*
X152535000Y-104074174D01*
X152535000Y-104205826D01*
X152558198Y-104292400D01*
X152043276Y-104292400D01*
X152071121Y-104432385D01*
X152071122Y-104432388D01*
X152146684Y-104614812D01*
X152256389Y-104778998D01*
X152396001Y-104918610D01*
X152560187Y-105028315D01*
X152742607Y-105103876D01*
X152742608Y-105103877D01*
X152882599Y-105131723D01*
X152882600Y-105131723D01*
X152882600Y-104616802D01*
X152969174Y-104640000D01*
X153100826Y-104640000D01*
X153187400Y-104616802D01*
X153187400Y-105131723D01*
X153327391Y-105103877D01*
X153327392Y-105103876D01*
X153509812Y-105028315D01*
X153673998Y-104918610D01*
X153813610Y-104778998D01*
X153923315Y-104614812D01*
X153998877Y-104432388D01*
X153998878Y-104432385D01*
X154026724Y-104292400D01*
X153511802Y-104292400D01*
X153535000Y-104205826D01*
X153535000Y-104074174D01*
X153511802Y-103987600D01*
X154026723Y-103987600D01*
X153998878Y-103847614D01*
X153998877Y-103847611D01*
X153923315Y-103665187D01*
X153813610Y-103501001D01*
X153673999Y-103361390D01*
X153673994Y-103361386D01*
X153632672Y-103333776D01*
X153632671Y-103333776D01*
X153544620Y-103274942D01*
X154572100Y-103274942D01*
X154572100Y-105005055D01*
X154572101Y-105005057D01*
X154580972Y-105049659D01*
X154614764Y-105100232D01*
X154614765Y-105100232D01*
X154614766Y-105100234D01*
X154665342Y-105134028D01*
X154709943Y-105142900D01*
X156440056Y-105142899D01*
X156484658Y-105134028D01*
X156535234Y-105100234D01*
X156569028Y-105049658D01*
X156577900Y-105005057D01*
X156577900Y-104708792D01*
X176662100Y-104708792D01*
X176662100Y-104841208D01*
X176678540Y-104902565D01*
X176696371Y-104969114D01*
X176762578Y-105083786D01*
X176762582Y-105083792D01*
X176856207Y-105177417D01*
X176856210Y-105177419D01*
X176856212Y-105177421D01*
X176906775Y-105206613D01*
X176970885Y-105243628D01*
X176970887Y-105243628D01*
X176970888Y-105243629D01*
X177098792Y-105277900D01*
X177098794Y-105277900D01*
X177231207Y-105277900D01*
X177231208Y-105277900D01*
X177359112Y-105243629D01*
X177473788Y-105177421D01*
X177567421Y-105083788D01*
X177633629Y-104969112D01*
X177667900Y-104841208D01*
X177667900Y-104718100D01*
X177685493Y-104669762D01*
X177730042Y-104644042D01*
X177743100Y-104642900D01*
X177866206Y-104642900D01*
X177866208Y-104642900D01*
X177994112Y-104608629D01*
X177998796Y-104605925D01*
X178007661Y-104600806D01*
X178108788Y-104542421D01*
X178202421Y-104448788D01*
X178265685Y-104339212D01*
X178268628Y-104334114D01*
X178268629Y-104334112D01*
X178302900Y-104206208D01*
X178302900Y-104073792D01*
X183012100Y-104073792D01*
X183012100Y-104206208D01*
X183028621Y-104267865D01*
X183046371Y-104334114D01*
X183112578Y-104448786D01*
X183112582Y-104448792D01*
X183206207Y-104542417D01*
X183206210Y-104542419D01*
X183206212Y-104542421D01*
X183246642Y-104565763D01*
X183320885Y-104608628D01*
X183320887Y-104608628D01*
X183320888Y-104608629D01*
X183448792Y-104642900D01*
X183448794Y-104642900D01*
X183581206Y-104642900D01*
X183581208Y-104642900D01*
X183709112Y-104608629D01*
X183713796Y-104605925D01*
X183722661Y-104600806D01*
X183755595Y-104581792D01*
X188473100Y-104581792D01*
X188473100Y-104714208D01*
X188490460Y-104778998D01*
X188507371Y-104842114D01*
X188564678Y-104941371D01*
X188573578Y-104956787D01*
X188573582Y-104956792D01*
X188592616Y-104975826D01*
X188614356Y-105022446D01*
X188601042Y-105072133D01*
X188592616Y-105082174D01*
X188573582Y-105101207D01*
X188573578Y-105101213D01*
X188507371Y-105215885D01*
X188493883Y-105266226D01*
X188473100Y-105343792D01*
X188473100Y-105476208D01*
X188490755Y-105542100D01*
X188507371Y-105604114D01*
X188573578Y-105718786D01*
X188573582Y-105718792D01*
X188667207Y-105812417D01*
X188667210Y-105812419D01*
X188667212Y-105812421D01*
X188717775Y-105841613D01*
X188781885Y-105878628D01*
X188781887Y-105878628D01*
X188781888Y-105878629D01*
X188909792Y-105912900D01*
X188909794Y-105912900D01*
X189042206Y-105912900D01*
X189042208Y-105912900D01*
X189170112Y-105878629D01*
X189284788Y-105812421D01*
X189378421Y-105718788D01*
X189444629Y-105604112D01*
X189478900Y-105476208D01*
X189478900Y-105343792D01*
X189444629Y-105215888D01*
X189444628Y-105215887D01*
X189444628Y-105215885D01*
X189397367Y-105134028D01*
X189378421Y-105101212D01*
X189359383Y-105082174D01*
X189337643Y-105035556D01*
X189350956Y-104985868D01*
X189359378Y-104975830D01*
X189378421Y-104956788D01*
X189444629Y-104842112D01*
X189478900Y-104714208D01*
X189478900Y-104708792D01*
X191902100Y-104708792D01*
X191902100Y-104841208D01*
X191918540Y-104902565D01*
X191936371Y-104969114D01*
X192002578Y-105083786D01*
X192002582Y-105083792D01*
X192096207Y-105177417D01*
X192096210Y-105177419D01*
X192096212Y-105177421D01*
X192146775Y-105206613D01*
X192210885Y-105243628D01*
X192210887Y-105243628D01*
X192210888Y-105243629D01*
X192338792Y-105277900D01*
X192338794Y-105277900D01*
X192461900Y-105277900D01*
X192510238Y-105295493D01*
X192535958Y-105340042D01*
X192537100Y-105353100D01*
X192537100Y-105476208D01*
X192554755Y-105542100D01*
X192571371Y-105604114D01*
X192637578Y-105718786D01*
X192637582Y-105718792D01*
X192731207Y-105812417D01*
X192731210Y-105812419D01*
X192731212Y-105812421D01*
X192781775Y-105841613D01*
X192845885Y-105878628D01*
X192845887Y-105878628D01*
X192845888Y-105878629D01*
X192973792Y-105912900D01*
X192973794Y-105912900D01*
X193106206Y-105912900D01*
X193106208Y-105912900D01*
X193234112Y-105878629D01*
X193273835Y-105855695D01*
X195692100Y-105855695D01*
X195692100Y-105984305D01*
X195717191Y-106110444D01*
X195766408Y-106229264D01*
X195837860Y-106336199D01*
X195837862Y-106336201D01*
X195837864Y-106336204D01*
X195928795Y-106427135D01*
X195928798Y-106427137D01*
X195928801Y-106427140D01*
X196035736Y-106498592D01*
X196154556Y-106547809D01*
X196230239Y-106562863D01*
X196280693Y-106572900D01*
X196280695Y-106572900D01*
X197509307Y-106572900D01*
X197551351Y-106564536D01*
X197635444Y-106547809D01*
X197754264Y-106498592D01*
X197861199Y-106427140D01*
X197952140Y-106336199D01*
X198023592Y-106229264D01*
X198072809Y-106110444D01*
X198097900Y-105984305D01*
X198097900Y-105855695D01*
X200122100Y-105855695D01*
X200122100Y-105984305D01*
X200147191Y-106110444D01*
X200196408Y-106229264D01*
X200267860Y-106336199D01*
X200267862Y-106336201D01*
X200267864Y-106336204D01*
X200358795Y-106427135D01*
X200358798Y-106427137D01*
X200358801Y-106427140D01*
X200465736Y-106498592D01*
X200584556Y-106547809D01*
X200660239Y-106562863D01*
X200710693Y-106572900D01*
X200710695Y-106572900D01*
X201439307Y-106572900D01*
X201481351Y-106564536D01*
X201565444Y-106547809D01*
X201684264Y-106498592D01*
X201791199Y-106427140D01*
X201882140Y-106336199D01*
X201953592Y-106229264D01*
X202002809Y-106110444D01*
X202027900Y-105984305D01*
X202027900Y-105855695D01*
X202026943Y-105850885D01*
X202004133Y-105736213D01*
X202002809Y-105729556D01*
X201953592Y-105610736D01*
X201882140Y-105503801D01*
X201882137Y-105503798D01*
X201882135Y-105503795D01*
X201791204Y-105412864D01*
X201791201Y-105412862D01*
X201791199Y-105412860D01*
X201684264Y-105341408D01*
X201680966Y-105340042D01*
X201649461Y-105326992D01*
X201565444Y-105292191D01*
X201565441Y-105292190D01*
X201565440Y-105292190D01*
X201439307Y-105267100D01*
X201439305Y-105267100D01*
X200710695Y-105267100D01*
X200710693Y-105267100D01*
X200584559Y-105292190D01*
X200584556Y-105292191D01*
X200465737Y-105341407D01*
X200358798Y-105412862D01*
X200358795Y-105412864D01*
X200267864Y-105503795D01*
X200267862Y-105503798D01*
X200196407Y-105610737D01*
X200147191Y-105729556D01*
X200147190Y-105729559D01*
X200123056Y-105850888D01*
X200122100Y-105855695D01*
X198097900Y-105855695D01*
X198096943Y-105850885D01*
X198074133Y-105736213D01*
X198072809Y-105729556D01*
X198023592Y-105610736D01*
X197952140Y-105503801D01*
X197952137Y-105503798D01*
X197952135Y-105503795D01*
X197861204Y-105412864D01*
X197861201Y-105412862D01*
X197861199Y-105412860D01*
X197754264Y-105341408D01*
X197750966Y-105340042D01*
X197719461Y-105326992D01*
X197635444Y-105292191D01*
X197635441Y-105292190D01*
X197635440Y-105292190D01*
X197509307Y-105267100D01*
X197509305Y-105267100D01*
X196280695Y-105267100D01*
X196280693Y-105267100D01*
X196154559Y-105292190D01*
X196154556Y-105292191D01*
X196035737Y-105341407D01*
X195928798Y-105412862D01*
X195928795Y-105412864D01*
X195837864Y-105503795D01*
X195837862Y-105503798D01*
X195766407Y-105610737D01*
X195717191Y-105729556D01*
X195717190Y-105729559D01*
X195693056Y-105850888D01*
X195692100Y-105855695D01*
X193273835Y-105855695D01*
X193348788Y-105812421D01*
X193348792Y-105812417D01*
X193362383Y-105798827D01*
X193442417Y-105718792D01*
X193442421Y-105718788D01*
X193508629Y-105604112D01*
X193542900Y-105476208D01*
X193542900Y-105353100D01*
X193560493Y-105304762D01*
X193605042Y-105279042D01*
X193618100Y-105277900D01*
X193741206Y-105277900D01*
X193741208Y-105277900D01*
X193869112Y-105243629D01*
X193983788Y-105177421D01*
X194077421Y-105083788D01*
X194143629Y-104969112D01*
X194177900Y-104841208D01*
X194177900Y-104708792D01*
X194143629Y-104580888D01*
X194143628Y-104580887D01*
X194143628Y-104580885D01*
X194106613Y-104516775D01*
X194077421Y-104466212D01*
X194077419Y-104466210D01*
X194077417Y-104466207D01*
X194025444Y-104414234D01*
X196849500Y-104414234D01*
X196849500Y-104565766D01*
X196887824Y-104708794D01*
X196888719Y-104712134D01*
X196888722Y-104712142D01*
X196964484Y-104843365D01*
X197071634Y-104950515D01*
X197202857Y-105026277D01*
X197202860Y-105026278D01*
X197202865Y-105026281D01*
X197349234Y-105065500D01*
X197349237Y-105065500D01*
X197500763Y-105065500D01*
X197500766Y-105065500D01*
X197647135Y-105026281D01*
X197679523Y-105007582D01*
X197778365Y-104950515D01*
X197885515Y-104843365D01*
X197961277Y-104712142D01*
X197961277Y-104712141D01*
X197961281Y-104712135D01*
X198000500Y-104565766D01*
X198000500Y-104414234D01*
X197961281Y-104267865D01*
X197961278Y-104267860D01*
X197961277Y-104267857D01*
X197885515Y-104136634D01*
X197778365Y-104029484D01*
X197647142Y-103953722D01*
X197647136Y-103953720D01*
X197647135Y-103953719D01*
X197500766Y-103914500D01*
X197349234Y-103914500D01*
X197227915Y-103947007D01*
X197202865Y-103953719D01*
X197202857Y-103953722D01*
X197071634Y-104029484D01*
X196964484Y-104136634D01*
X196888722Y-104267857D01*
X196888719Y-104267865D01*
X196849500Y-104414234D01*
X194025444Y-104414234D01*
X193983792Y-104372582D01*
X193983786Y-104372578D01*
X193869114Y-104306371D01*
X193805160Y-104289235D01*
X193741208Y-104272100D01*
X193608792Y-104272100D01*
X193557630Y-104285808D01*
X193480885Y-104306371D01*
X193366213Y-104372578D01*
X193366207Y-104372582D01*
X193272582Y-104466207D01*
X193272578Y-104466213D01*
X193206371Y-104580885D01*
X193192883Y-104631226D01*
X193172100Y-104708792D01*
X193172100Y-104708794D01*
X193172100Y-104831900D01*
X193165417Y-104850259D01*
X193162025Y-104869500D01*
X193156828Y-104873860D01*
X193154507Y-104880238D01*
X193137584Y-104890007D01*
X193122620Y-104902565D01*
X193112851Y-104904287D01*
X193109958Y-104905958D01*
X193096900Y-104907100D01*
X192983100Y-104907100D01*
X192934762Y-104889507D01*
X192909042Y-104844958D01*
X192907900Y-104831900D01*
X192907900Y-104708794D01*
X192907900Y-104708792D01*
X192873629Y-104580888D01*
X192873628Y-104580887D01*
X192873628Y-104580885D01*
X192836613Y-104516775D01*
X192807421Y-104466212D01*
X192807419Y-104466210D01*
X192807417Y-104466207D01*
X192713792Y-104372582D01*
X192713786Y-104372578D01*
X192599114Y-104306371D01*
X192535160Y-104289235D01*
X192471208Y-104272100D01*
X192338792Y-104272100D01*
X192287630Y-104285808D01*
X192210885Y-104306371D01*
X192096213Y-104372578D01*
X192096207Y-104372582D01*
X192002582Y-104466207D01*
X192002578Y-104466213D01*
X191936371Y-104580885D01*
X191922883Y-104631226D01*
X191902100Y-104708792D01*
X189478900Y-104708792D01*
X189478900Y-104581792D01*
X189444629Y-104453888D01*
X189444628Y-104453887D01*
X189444628Y-104453885D01*
X189397685Y-104372578D01*
X189378421Y-104339212D01*
X189378419Y-104339210D01*
X189378417Y-104339207D01*
X189284792Y-104245582D01*
X189284786Y-104245578D01*
X189170114Y-104179371D01*
X189106160Y-104162235D01*
X189042208Y-104145100D01*
X188909792Y-104145100D01*
X188858630Y-104158808D01*
X188781885Y-104179371D01*
X188667213Y-104245578D01*
X188667207Y-104245582D01*
X188573582Y-104339207D01*
X188573578Y-104339213D01*
X188507371Y-104453885D01*
X188488668Y-104523689D01*
X188473100Y-104581792D01*
X183755595Y-104581792D01*
X183823788Y-104542421D01*
X183826110Y-104540099D01*
X183842521Y-104523689D01*
X183917417Y-104448792D01*
X183917421Y-104448788D01*
X183980685Y-104339212D01*
X183983628Y-104334114D01*
X183983629Y-104334112D01*
X184017900Y-104206208D01*
X184017900Y-104073792D01*
X183983629Y-103945888D01*
X183983628Y-103945887D01*
X183983628Y-103945885D01*
X183946613Y-103881775D01*
X183917421Y-103831212D01*
X183917419Y-103831210D01*
X183917417Y-103831207D01*
X183823792Y-103737582D01*
X183823786Y-103737578D01*
X183709114Y-103671371D01*
X183645160Y-103654235D01*
X183581208Y-103637100D01*
X183448792Y-103637100D01*
X183397630Y-103650808D01*
X183320885Y-103671371D01*
X183206213Y-103737578D01*
X183206207Y-103737582D01*
X183112582Y-103831207D01*
X183112578Y-103831213D01*
X183046371Y-103945885D01*
X183029755Y-104007900D01*
X183012100Y-104073792D01*
X178302900Y-104073792D01*
X178268629Y-103945888D01*
X178268628Y-103945887D01*
X178268628Y-103945885D01*
X178231613Y-103881775D01*
X178202421Y-103831212D01*
X178202419Y-103831210D01*
X178202417Y-103831207D01*
X178108792Y-103737582D01*
X178108786Y-103737578D01*
X177994114Y-103671371D01*
X177930160Y-103654235D01*
X177866208Y-103637100D01*
X177733792Y-103637100D01*
X177682630Y-103650808D01*
X177605885Y-103671371D01*
X177491213Y-103737578D01*
X177491207Y-103737582D01*
X177397582Y-103831207D01*
X177397578Y-103831213D01*
X177331371Y-103945885D01*
X177314755Y-104007900D01*
X177297100Y-104073792D01*
X177297100Y-104073794D01*
X177297100Y-104196900D01*
X177279507Y-104245238D01*
X177234958Y-104270958D01*
X177221900Y-104272100D01*
X177098792Y-104272100D01*
X177047630Y-104285808D01*
X176970885Y-104306371D01*
X176856213Y-104372578D01*
X176856207Y-104372582D01*
X176762582Y-104466207D01*
X176762578Y-104466213D01*
X176696371Y-104580885D01*
X176682883Y-104631226D01*
X176662100Y-104708792D01*
X156577900Y-104708792D01*
X156577899Y-104073792D01*
X158882100Y-104073792D01*
X158882100Y-104206208D01*
X158898621Y-104267865D01*
X158916371Y-104334114D01*
X158982578Y-104448786D01*
X158982582Y-104448792D01*
X159076207Y-104542417D01*
X159076210Y-104542419D01*
X159076212Y-104542421D01*
X159116642Y-104565763D01*
X159190885Y-104608628D01*
X159190887Y-104608628D01*
X159190888Y-104608629D01*
X159318792Y-104642900D01*
X159318794Y-104642900D01*
X159451207Y-104642900D01*
X159451208Y-104642900D01*
X159579112Y-104608629D01*
X159583796Y-104605925D01*
X159592661Y-104600806D01*
X159693788Y-104542421D01*
X159787421Y-104448788D01*
X159850685Y-104339212D01*
X159853628Y-104334114D01*
X159853629Y-104334112D01*
X159887900Y-104206208D01*
X159887900Y-104073792D01*
X159853629Y-103945888D01*
X159853628Y-103945887D01*
X159853628Y-103945885D01*
X159816613Y-103881775D01*
X159787421Y-103831212D01*
X159787419Y-103831210D01*
X159787417Y-103831207D01*
X159693792Y-103737582D01*
X159693786Y-103737578D01*
X159579114Y-103671371D01*
X159515160Y-103654235D01*
X159451208Y-103637100D01*
X159318792Y-103637100D01*
X159267630Y-103650808D01*
X159190885Y-103671371D01*
X159076213Y-103737578D01*
X159076207Y-103737582D01*
X158982582Y-103831207D01*
X158982578Y-103831213D01*
X158916371Y-103945885D01*
X158899755Y-104007900D01*
X158882100Y-104073792D01*
X156577899Y-104073792D01*
X156577899Y-103438792D01*
X169042100Y-103438792D01*
X169042100Y-103571208D01*
X169059755Y-103637100D01*
X169076371Y-103699114D01*
X169142578Y-103813786D01*
X169142582Y-103813792D01*
X169236207Y-103907417D01*
X169236210Y-103907419D01*
X169236212Y-103907421D01*
X169286775Y-103936613D01*
X169350885Y-103973628D01*
X169350887Y-103973628D01*
X169350888Y-103973629D01*
X169478792Y-104007900D01*
X169478794Y-104007900D01*
X169611206Y-104007900D01*
X169611208Y-104007900D01*
X169739112Y-103973629D01*
X169853788Y-103907421D01*
X169947421Y-103813788D01*
X170013629Y-103699112D01*
X170047900Y-103571208D01*
X170047900Y-103438792D01*
X170013629Y-103310888D01*
X170013628Y-103310887D01*
X170013628Y-103310885D01*
X169967125Y-103230340D01*
X169947421Y-103196212D01*
X169947419Y-103196210D01*
X169947417Y-103196207D01*
X169853792Y-103102582D01*
X169853786Y-103102578D01*
X169739114Y-103036371D01*
X169672120Y-103018421D01*
X169611208Y-103002100D01*
X169478792Y-103002100D01*
X169427630Y-103015808D01*
X169350885Y-103036371D01*
X169236213Y-103102578D01*
X169236207Y-103102582D01*
X169142582Y-103196207D01*
X169142578Y-103196213D01*
X169076371Y-103310885D01*
X169062839Y-103361390D01*
X169042100Y-103438792D01*
X156577899Y-103438792D01*
X156577899Y-103274944D01*
X156569028Y-103230342D01*
X156535234Y-103179766D01*
X156484658Y-103145972D01*
X156484656Y-103145971D01*
X156440057Y-103137100D01*
X154709944Y-103137100D01*
X154709942Y-103137101D01*
X154665340Y-103145972D01*
X154614767Y-103179764D01*
X154580972Y-103230342D01*
X154580971Y-103230343D01*
X154572100Y-103274942D01*
X153544620Y-103274942D01*
X153509812Y-103251684D01*
X153327388Y-103176122D01*
X153327385Y-103176121D01*
X153187400Y-103148276D01*
X153187400Y-103663197D01*
X153100826Y-103640000D01*
X152969174Y-103640000D01*
X152882600Y-103663197D01*
X152882600Y-103148276D01*
X152742614Y-103176121D01*
X152742611Y-103176122D01*
X152560187Y-103251684D01*
X152396001Y-103361389D01*
X152256389Y-103501001D01*
X152146684Y-103665187D01*
X152071122Y-103847611D01*
X152071121Y-103847614D01*
X152043276Y-103987600D01*
X151790500Y-103987600D01*
X151790500Y-102803792D01*
X175392100Y-102803792D01*
X175392100Y-102936208D01*
X175409755Y-103002100D01*
X175426371Y-103064114D01*
X175492578Y-103178786D01*
X175492582Y-103178792D01*
X175586207Y-103272417D01*
X175586210Y-103272419D01*
X175586212Y-103272421D01*
X175636775Y-103301613D01*
X175700885Y-103338628D01*
X175700887Y-103338628D01*
X175700888Y-103338629D01*
X175828792Y-103372900D01*
X175828794Y-103372900D01*
X175961206Y-103372900D01*
X175961208Y-103372900D01*
X176089112Y-103338629D01*
X176203788Y-103272421D01*
X176297421Y-103178788D01*
X176355806Y-103077661D01*
X176363628Y-103064114D01*
X176363629Y-103064112D01*
X176397900Y-102936208D01*
X176397900Y-102803792D01*
X177932100Y-102803792D01*
X177932100Y-102936208D01*
X177949755Y-103002100D01*
X177966371Y-103064114D01*
X178032578Y-103178786D01*
X178032582Y-103178792D01*
X178126207Y-103272417D01*
X178126210Y-103272419D01*
X178126212Y-103272421D01*
X178176775Y-103301613D01*
X178240885Y-103338628D01*
X178240887Y-103338628D01*
X178240888Y-103338629D01*
X178368792Y-103372900D01*
X178368794Y-103372900D01*
X178501206Y-103372900D01*
X178501208Y-103372900D01*
X178629112Y-103338629D01*
X178743788Y-103272421D01*
X178837421Y-103178788D01*
X178895806Y-103077661D01*
X178903628Y-103064114D01*
X178903629Y-103064112D01*
X178937900Y-102936208D01*
X178937900Y-102803792D01*
X179202100Y-102803792D01*
X179202100Y-102936208D01*
X179219755Y-103002100D01*
X179236371Y-103064114D01*
X179302578Y-103178786D01*
X179302582Y-103178792D01*
X179396207Y-103272417D01*
X179396210Y-103272419D01*
X179396212Y-103272421D01*
X179446775Y-103301613D01*
X179510885Y-103338628D01*
X179510887Y-103338628D01*
X179510888Y-103338629D01*
X179638792Y-103372900D01*
X179638794Y-103372900D01*
X179771206Y-103372900D01*
X179771208Y-103372900D01*
X179899112Y-103338629D01*
X180013788Y-103272421D01*
X180107421Y-103178788D01*
X180165806Y-103077661D01*
X180173628Y-103064114D01*
X180173629Y-103064112D01*
X180207900Y-102936208D01*
X180207900Y-102803792D01*
X180173629Y-102675888D01*
X180107421Y-102561212D01*
X180107419Y-102561210D01*
X180107417Y-102561207D01*
X180096002Y-102549792D01*
X187457100Y-102549792D01*
X187457100Y-102682208D01*
X187477662Y-102758950D01*
X187491371Y-102810114D01*
X187557578Y-102924786D01*
X187557582Y-102924792D01*
X187640116Y-103007326D01*
X187661856Y-103053946D01*
X187648542Y-103103633D01*
X187640116Y-103113674D01*
X187557582Y-103196207D01*
X187557578Y-103196213D01*
X187491371Y-103310885D01*
X187477839Y-103361390D01*
X187457100Y-103438792D01*
X187457100Y-103571208D01*
X187474755Y-103637100D01*
X187491371Y-103699114D01*
X187557578Y-103813786D01*
X187557582Y-103813792D01*
X187651207Y-103907417D01*
X187651210Y-103907419D01*
X187651212Y-103907421D01*
X187701775Y-103936613D01*
X187765885Y-103973628D01*
X187765887Y-103973628D01*
X187765888Y-103973629D01*
X187893792Y-104007900D01*
X187893794Y-104007900D01*
X188026206Y-104007900D01*
X188026208Y-104007900D01*
X188154112Y-103973629D01*
X188268788Y-103907421D01*
X188362421Y-103813788D01*
X188428629Y-103699112D01*
X188462900Y-103571208D01*
X188462900Y-103438792D01*
X188428629Y-103310888D01*
X188428628Y-103310887D01*
X188428628Y-103310885D01*
X188382125Y-103230340D01*
X188362421Y-103196212D01*
X188362419Y-103196210D01*
X188362417Y-103196207D01*
X188279884Y-103113674D01*
X188258144Y-103067054D01*
X188271458Y-103017367D01*
X188279884Y-103007326D01*
X188362417Y-102924792D01*
X188362421Y-102924788D01*
X188428629Y-102810112D01*
X188430322Y-102803792D01*
X196982100Y-102803792D01*
X196982100Y-102936208D01*
X196999755Y-103002100D01*
X197016371Y-103064114D01*
X197082578Y-103178786D01*
X197082582Y-103178792D01*
X197176207Y-103272417D01*
X197176210Y-103272419D01*
X197176212Y-103272421D01*
X197226775Y-103301613D01*
X197290885Y-103338628D01*
X197290887Y-103338628D01*
X197290888Y-103338629D01*
X197418792Y-103372900D01*
X197418794Y-103372900D01*
X197551206Y-103372900D01*
X197551208Y-103372900D01*
X197679112Y-103338629D01*
X197793788Y-103272421D01*
X197887421Y-103178788D01*
X197945806Y-103077661D01*
X197953628Y-103064114D01*
X197953629Y-103064112D01*
X197987900Y-102936208D01*
X197987900Y-102803792D01*
X198887100Y-102803792D01*
X198887100Y-102936208D01*
X198904755Y-103002100D01*
X198921371Y-103064114D01*
X198987578Y-103178786D01*
X198987582Y-103178792D01*
X199081207Y-103272417D01*
X199081210Y-103272419D01*
X199081212Y-103272421D01*
X199131775Y-103301613D01*
X199195885Y-103338628D01*
X199195887Y-103338628D01*
X199195888Y-103338629D01*
X199323792Y-103372900D01*
X199323794Y-103372900D01*
X199456206Y-103372900D01*
X199456208Y-103372900D01*
X199584112Y-103338629D01*
X199698788Y-103272421D01*
X199792421Y-103178788D01*
X199850806Y-103077661D01*
X199858628Y-103064114D01*
X199858629Y-103064112D01*
X199892900Y-102936208D01*
X199892900Y-102803792D01*
X200792100Y-102803792D01*
X200792100Y-102936208D01*
X200809755Y-103002100D01*
X200826371Y-103064114D01*
X200892578Y-103178786D01*
X200892582Y-103178792D01*
X200986207Y-103272417D01*
X200986210Y-103272419D01*
X200986212Y-103272421D01*
X201036775Y-103301613D01*
X201100885Y-103338628D01*
X201100887Y-103338628D01*
X201100888Y-103338629D01*
X201228792Y-103372900D01*
X201228794Y-103372900D01*
X201361206Y-103372900D01*
X201361208Y-103372900D01*
X201489112Y-103338629D01*
X201603788Y-103272421D01*
X201697421Y-103178788D01*
X201755806Y-103077661D01*
X201763628Y-103064114D01*
X201763629Y-103064112D01*
X201797900Y-102936208D01*
X201797900Y-102803792D01*
X201763629Y-102675888D01*
X201763628Y-102675886D01*
X201763628Y-102675885D01*
X201709690Y-102582463D01*
X201697421Y-102561212D01*
X201697419Y-102561210D01*
X201697417Y-102561207D01*
X201603792Y-102467582D01*
X201603786Y-102467578D01*
X201489114Y-102401371D01*
X201405635Y-102379004D01*
X201361208Y-102367100D01*
X201228792Y-102367100D01*
X201184365Y-102379004D01*
X201100885Y-102401371D01*
X200986213Y-102467578D01*
X200986207Y-102467582D01*
X200892582Y-102561207D01*
X200892578Y-102561213D01*
X200826371Y-102675885D01*
X200812883Y-102726226D01*
X200792100Y-102803792D01*
X199892900Y-102803792D01*
X199858629Y-102675888D01*
X199858628Y-102675886D01*
X199858628Y-102675885D01*
X199804690Y-102582463D01*
X199792421Y-102561212D01*
X199792419Y-102561210D01*
X199792417Y-102561207D01*
X199698792Y-102467582D01*
X199698786Y-102467578D01*
X199584114Y-102401371D01*
X199500635Y-102379004D01*
X199456208Y-102367100D01*
X199323792Y-102367100D01*
X199279365Y-102379004D01*
X199195885Y-102401371D01*
X199081213Y-102467578D01*
X199081207Y-102467582D01*
X198987582Y-102561207D01*
X198987578Y-102561213D01*
X198921371Y-102675885D01*
X198907883Y-102726226D01*
X198887100Y-102803792D01*
X197987900Y-102803792D01*
X197953629Y-102675888D01*
X197953628Y-102675886D01*
X197953628Y-102675885D01*
X197899690Y-102582463D01*
X197887421Y-102561212D01*
X197887419Y-102561210D01*
X197887417Y-102561207D01*
X197793792Y-102467582D01*
X197793786Y-102467578D01*
X197679114Y-102401371D01*
X197595635Y-102379004D01*
X197551208Y-102367100D01*
X197418792Y-102367100D01*
X197374365Y-102379004D01*
X197290885Y-102401371D01*
X197176213Y-102467578D01*
X197176207Y-102467582D01*
X197082582Y-102561207D01*
X197082578Y-102561213D01*
X197016371Y-102675885D01*
X197002883Y-102726226D01*
X196982100Y-102803792D01*
X188430322Y-102803792D01*
X188462900Y-102682208D01*
X188462900Y-102549792D01*
X188428629Y-102421888D01*
X188428628Y-102421887D01*
X188428628Y-102421885D01*
X188391613Y-102357775D01*
X188362421Y-102307212D01*
X188362419Y-102307210D01*
X188362417Y-102307207D01*
X188268792Y-102213582D01*
X188268786Y-102213578D01*
X188154114Y-102147371D01*
X188090160Y-102130235D01*
X188026208Y-102113100D01*
X187893792Y-102113100D01*
X187842630Y-102126808D01*
X187765885Y-102147371D01*
X187651213Y-102213578D01*
X187651207Y-102213582D01*
X187557582Y-102307207D01*
X187557578Y-102307213D01*
X187491371Y-102421885D01*
X187473453Y-102488759D01*
X187457100Y-102549792D01*
X180096002Y-102549792D01*
X180013792Y-102467582D01*
X180013786Y-102467578D01*
X179899114Y-102401371D01*
X179815635Y-102379004D01*
X179771208Y-102367100D01*
X179638792Y-102367100D01*
X179594365Y-102379004D01*
X179510885Y-102401371D01*
X179396213Y-102467578D01*
X179396207Y-102467582D01*
X179302582Y-102561207D01*
X179302578Y-102561213D01*
X179236371Y-102675885D01*
X179222883Y-102726226D01*
X179202100Y-102803792D01*
X178937900Y-102803792D01*
X178903629Y-102675888D01*
X178903628Y-102675886D01*
X178903628Y-102675885D01*
X178849690Y-102582463D01*
X178837421Y-102561212D01*
X178837419Y-102561210D01*
X178837417Y-102561207D01*
X178743792Y-102467582D01*
X178743786Y-102467578D01*
X178629114Y-102401371D01*
X178545635Y-102379004D01*
X178501208Y-102367100D01*
X178368792Y-102367100D01*
X178324365Y-102379004D01*
X178240885Y-102401371D01*
X178126213Y-102467578D01*
X178126207Y-102467582D01*
X178032582Y-102561207D01*
X178032578Y-102561213D01*
X177966371Y-102675885D01*
X177952883Y-102726226D01*
X177932100Y-102803792D01*
X176397900Y-102803792D01*
X176363629Y-102675888D01*
X176363628Y-102675886D01*
X176363628Y-102675885D01*
X176309690Y-102582463D01*
X176297421Y-102561212D01*
X176297419Y-102561210D01*
X176297417Y-102561207D01*
X176203792Y-102467582D01*
X176203786Y-102467578D01*
X176089114Y-102401371D01*
X176005635Y-102379004D01*
X175961208Y-102367100D01*
X175828792Y-102367100D01*
X175784365Y-102379004D01*
X175700885Y-102401371D01*
X175586213Y-102467578D01*
X175586207Y-102467582D01*
X175492582Y-102561207D01*
X175492578Y-102561213D01*
X175426371Y-102675885D01*
X175412883Y-102726226D01*
X175392100Y-102803792D01*
X151790500Y-102803792D01*
X151790500Y-101501222D01*
X152032100Y-101501222D01*
X152032100Y-101698777D01*
X152070641Y-101892537D01*
X152070642Y-101892538D01*
X152146241Y-102075051D01*
X152255996Y-102239312D01*
X152255997Y-102239313D01*
X152256000Y-102239317D01*
X152395682Y-102378999D01*
X152395685Y-102379001D01*
X152395688Y-102379004D01*
X152559949Y-102488759D01*
X152742461Y-102564357D01*
X152742462Y-102564358D01*
X152742463Y-102564358D01*
X152742465Y-102564359D01*
X152833475Y-102582462D01*
X152936222Y-102602900D01*
X152936223Y-102602900D01*
X153133778Y-102602900D01*
X153181889Y-102593329D01*
X153327535Y-102564359D01*
X153510051Y-102488759D01*
X153674312Y-102379004D01*
X153814004Y-102239312D01*
X153923759Y-102075051D01*
X153999359Y-101892535D01*
X154037900Y-101698777D01*
X154037900Y-101501223D01*
X154037900Y-101501222D01*
X154572100Y-101501222D01*
X154572100Y-101698777D01*
X154610641Y-101892537D01*
X154610642Y-101892538D01*
X154686241Y-102075051D01*
X154795996Y-102239312D01*
X154795997Y-102239313D01*
X154796000Y-102239317D01*
X154935682Y-102378999D01*
X154935685Y-102379001D01*
X154935688Y-102379004D01*
X155099949Y-102488759D01*
X155282461Y-102564357D01*
X155282462Y-102564358D01*
X155282463Y-102564358D01*
X155282465Y-102564359D01*
X155373475Y-102582462D01*
X155476222Y-102602900D01*
X155476223Y-102602900D01*
X155673778Y-102602900D01*
X155721889Y-102593329D01*
X155867535Y-102564359D01*
X156050051Y-102488759D01*
X156214312Y-102379004D01*
X156354004Y-102239312D01*
X156401124Y-102168792D01*
X173487100Y-102168792D01*
X173487100Y-102301208D01*
X173504755Y-102367100D01*
X173521371Y-102429114D01*
X173587578Y-102543786D01*
X173587582Y-102543792D01*
X173681207Y-102637417D01*
X173681210Y-102637419D01*
X173681212Y-102637421D01*
X173731775Y-102666613D01*
X173795885Y-102703628D01*
X173795887Y-102703628D01*
X173795888Y-102703629D01*
X173923792Y-102737900D01*
X173923794Y-102737900D01*
X174056207Y-102737900D01*
X174056208Y-102737900D01*
X174184112Y-102703629D01*
X174298788Y-102637421D01*
X174392421Y-102543788D01*
X174458629Y-102429112D01*
X174492900Y-102301208D01*
X174492900Y-102168792D01*
X174458629Y-102040888D01*
X174458628Y-102040887D01*
X174458628Y-102040885D01*
X174421613Y-101976775D01*
X174392421Y-101926212D01*
X174392419Y-101926210D01*
X174392417Y-101926207D01*
X174298792Y-101832582D01*
X174298786Y-101832578D01*
X174184114Y-101766371D01*
X174120160Y-101749235D01*
X174056208Y-101732100D01*
X173923792Y-101732100D01*
X173872630Y-101745808D01*
X173795885Y-101766371D01*
X173681213Y-101832578D01*
X173681207Y-101832582D01*
X173587582Y-101926207D01*
X173587578Y-101926213D01*
X173521371Y-102040885D01*
X173512217Y-102075051D01*
X173487100Y-102168792D01*
X156401124Y-102168792D01*
X156463759Y-102075051D01*
X156539359Y-101892535D01*
X156577900Y-101698777D01*
X156577900Y-101501223D01*
X156539359Y-101307465D01*
X156463759Y-101124949D01*
X156386614Y-101009492D01*
X167137100Y-101009492D01*
X167137100Y-101141908D01*
X167157662Y-101218650D01*
X167171371Y-101269814D01*
X167237578Y-101384486D01*
X167237582Y-101384492D01*
X167331207Y-101478117D01*
X167331210Y-101478119D01*
X167331212Y-101478121D01*
X167371224Y-101501222D01*
X167445885Y-101544328D01*
X167445887Y-101544328D01*
X167445888Y-101544329D01*
X167573792Y-101578600D01*
X167573794Y-101578600D01*
X167706206Y-101578600D01*
X167706208Y-101578600D01*
X167834112Y-101544329D01*
X167948788Y-101478121D01*
X168042421Y-101384488D01*
X168106331Y-101273792D01*
X168108628Y-101269814D01*
X168108629Y-101269812D01*
X168142900Y-101141908D01*
X168142900Y-101009492D01*
X168113239Y-100898792D01*
X191902100Y-100898792D01*
X191902100Y-101031208D01*
X191922662Y-101107950D01*
X191936371Y-101159114D01*
X191994756Y-101260238D01*
X192000283Y-101269812D01*
X192002578Y-101273786D01*
X192002582Y-101273792D01*
X192096207Y-101367417D01*
X192096210Y-101367419D01*
X192096212Y-101367421D01*
X192125770Y-101384486D01*
X192210885Y-101433628D01*
X192210887Y-101433628D01*
X192210888Y-101433629D01*
X192338792Y-101467900D01*
X192338794Y-101467900D01*
X192471206Y-101467900D01*
X192471208Y-101467900D01*
X192599112Y-101433629D01*
X192713788Y-101367421D01*
X192807421Y-101273788D01*
X192873629Y-101159112D01*
X192907900Y-101031208D01*
X192907900Y-100898792D01*
X192873629Y-100770888D01*
X192873628Y-100770887D01*
X192873628Y-100770885D01*
X192817276Y-100673282D01*
X192807421Y-100656212D01*
X192807419Y-100656210D01*
X192807417Y-100656207D01*
X192713792Y-100562582D01*
X192713786Y-100562578D01*
X192599114Y-100496371D01*
X192535160Y-100479235D01*
X192471208Y-100462100D01*
X192338792Y-100462100D01*
X192287630Y-100475808D01*
X192210885Y-100496371D01*
X192096213Y-100562578D01*
X192096207Y-100562582D01*
X192002582Y-100656207D01*
X192002578Y-100656213D01*
X191936371Y-100770885D01*
X191922883Y-100821226D01*
X191902100Y-100898792D01*
X168113239Y-100898792D01*
X168108629Y-100881588D01*
X168108628Y-100881587D01*
X168108628Y-100881585D01*
X168060732Y-100798628D01*
X168042421Y-100766912D01*
X168042419Y-100766910D01*
X168042417Y-100766907D01*
X167948792Y-100673282D01*
X167948786Y-100673278D01*
X167834114Y-100607071D01*
X167770160Y-100589935D01*
X167706208Y-100572800D01*
X167573792Y-100572800D01*
X167522630Y-100586508D01*
X167445885Y-100607071D01*
X167331213Y-100673278D01*
X167331207Y-100673282D01*
X167237582Y-100766907D01*
X167237578Y-100766913D01*
X167171371Y-100881585D01*
X167150808Y-100958330D01*
X167137100Y-101009492D01*
X156386614Y-101009492D01*
X156354004Y-100960688D01*
X156354001Y-100960685D01*
X156353999Y-100960682D01*
X156214317Y-100821000D01*
X156214313Y-100820997D01*
X156214312Y-100820996D01*
X156050051Y-100711241D01*
X156050049Y-100711240D01*
X155867538Y-100635642D01*
X155867537Y-100635641D01*
X155673778Y-100597100D01*
X155673777Y-100597100D01*
X155476223Y-100597100D01*
X155476222Y-100597100D01*
X155282462Y-100635641D01*
X155282461Y-100635642D01*
X155099950Y-100711240D01*
X154935682Y-100821000D01*
X154796000Y-100960682D01*
X154686240Y-101124950D01*
X154610642Y-101307461D01*
X154610641Y-101307462D01*
X154572100Y-101501222D01*
X154037900Y-101501222D01*
X153999359Y-101307465D01*
X153923759Y-101124949D01*
X153814004Y-100960688D01*
X153814001Y-100960685D01*
X153813999Y-100960682D01*
X153674317Y-100821000D01*
X153674313Y-100820997D01*
X153674312Y-100820996D01*
X153510051Y-100711241D01*
X153510049Y-100711240D01*
X153327538Y-100635642D01*
X153327537Y-100635641D01*
X153133778Y-100597100D01*
X153133777Y-100597100D01*
X152936223Y-100597100D01*
X152936222Y-100597100D01*
X152742462Y-100635641D01*
X152742461Y-100635642D01*
X152559950Y-100711240D01*
X152395682Y-100821000D01*
X152256000Y-100960682D01*
X152146240Y-101124950D01*
X152070642Y-101307461D01*
X152070641Y-101307462D01*
X152032100Y-101501222D01*
X151790500Y-101501222D01*
X151790500Y-100263792D01*
X184917100Y-100263792D01*
X184917100Y-100396208D01*
X184934755Y-100462100D01*
X184951371Y-100524114D01*
X185017578Y-100638786D01*
X185017582Y-100638792D01*
X185111207Y-100732417D01*
X185111210Y-100732419D01*
X185111212Y-100732421D01*
X185161775Y-100761613D01*
X185225885Y-100798628D01*
X185225887Y-100798628D01*
X185225888Y-100798629D01*
X185353792Y-100832900D01*
X185353794Y-100832900D01*
X185486207Y-100832900D01*
X185486208Y-100832900D01*
X185614112Y-100798629D01*
X185728788Y-100732421D01*
X185822421Y-100638788D01*
X185888629Y-100524112D01*
X185922900Y-100396208D01*
X185922900Y-100263792D01*
X196982100Y-100263792D01*
X196982100Y-100396208D01*
X196999755Y-100462100D01*
X197016371Y-100524114D01*
X197082578Y-100638786D01*
X197082582Y-100638792D01*
X197176207Y-100732417D01*
X197176210Y-100732419D01*
X197176212Y-100732421D01*
X197226775Y-100761613D01*
X197290885Y-100798628D01*
X197290887Y-100798628D01*
X197290888Y-100798629D01*
X197418792Y-100832900D01*
X197418794Y-100832900D01*
X197551206Y-100832900D01*
X197551208Y-100832900D01*
X197679112Y-100798629D01*
X197793788Y-100732421D01*
X197887421Y-100638788D01*
X197953629Y-100524112D01*
X197987900Y-100396208D01*
X197987900Y-100263792D01*
X198887100Y-100263792D01*
X198887100Y-100396208D01*
X198904755Y-100462100D01*
X198921371Y-100524114D01*
X198987578Y-100638786D01*
X198987582Y-100638792D01*
X199081207Y-100732417D01*
X199081210Y-100732419D01*
X199081212Y-100732421D01*
X199131775Y-100761613D01*
X199195885Y-100798628D01*
X199195887Y-100798628D01*
X199195888Y-100798629D01*
X199323792Y-100832900D01*
X199323794Y-100832900D01*
X199456206Y-100832900D01*
X199456208Y-100832900D01*
X199584112Y-100798629D01*
X199698788Y-100732421D01*
X199792421Y-100638788D01*
X199858629Y-100524112D01*
X199892900Y-100396208D01*
X199892900Y-100263792D01*
X200792100Y-100263792D01*
X200792100Y-100396208D01*
X200809755Y-100462100D01*
X200826371Y-100524114D01*
X200892578Y-100638786D01*
X200892582Y-100638792D01*
X200986207Y-100732417D01*
X200986210Y-100732419D01*
X200986212Y-100732421D01*
X201036775Y-100761613D01*
X201100885Y-100798628D01*
X201100887Y-100798628D01*
X201100888Y-100798629D01*
X201228792Y-100832900D01*
X201228794Y-100832900D01*
X201361206Y-100832900D01*
X201361208Y-100832900D01*
X201489112Y-100798629D01*
X201603788Y-100732421D01*
X201697421Y-100638788D01*
X201763629Y-100524112D01*
X201797900Y-100396208D01*
X201797900Y-100263792D01*
X201763629Y-100135888D01*
X201763628Y-100135887D01*
X201763628Y-100135885D01*
X201721489Y-100062900D01*
X201697421Y-100021212D01*
X201697419Y-100021210D01*
X201697417Y-100021207D01*
X201603792Y-99927582D01*
X201603786Y-99927578D01*
X201489114Y-99861371D01*
X201405635Y-99839004D01*
X201361208Y-99827100D01*
X201228792Y-99827100D01*
X201184365Y-99839004D01*
X201100885Y-99861371D01*
X200986213Y-99927578D01*
X200986207Y-99927582D01*
X200892582Y-100021207D01*
X200892578Y-100021213D01*
X200826371Y-100135885D01*
X200812883Y-100186226D01*
X200792100Y-100263792D01*
X199892900Y-100263792D01*
X199858629Y-100135888D01*
X199858628Y-100135887D01*
X199858628Y-100135885D01*
X199816489Y-100062900D01*
X199792421Y-100021212D01*
X199792419Y-100021210D01*
X199792417Y-100021207D01*
X199698792Y-99927582D01*
X199698786Y-99927578D01*
X199584114Y-99861371D01*
X199500635Y-99839004D01*
X199456208Y-99827100D01*
X199323792Y-99827100D01*
X199279365Y-99839004D01*
X199195885Y-99861371D01*
X199081213Y-99927578D01*
X199081207Y-99927582D01*
X198987582Y-100021207D01*
X198987578Y-100021213D01*
X198921371Y-100135885D01*
X198907883Y-100186226D01*
X198887100Y-100263792D01*
X197987900Y-100263792D01*
X197953629Y-100135888D01*
X197953628Y-100135887D01*
X197953628Y-100135885D01*
X197911489Y-100062900D01*
X197887421Y-100021212D01*
X197887419Y-100021210D01*
X197887417Y-100021207D01*
X197793792Y-99927582D01*
X197793786Y-99927578D01*
X197679114Y-99861371D01*
X197595635Y-99839004D01*
X197551208Y-99827100D01*
X197418792Y-99827100D01*
X197374365Y-99839004D01*
X197290885Y-99861371D01*
X197176213Y-99927578D01*
X197176207Y-99927582D01*
X197082582Y-100021207D01*
X197082578Y-100021213D01*
X197016371Y-100135885D01*
X197002883Y-100186226D01*
X196982100Y-100263792D01*
X185922900Y-100263792D01*
X185888629Y-100135888D01*
X185888628Y-100135887D01*
X185888628Y-100135885D01*
X185846489Y-100062900D01*
X185822421Y-100021212D01*
X185822419Y-100021210D01*
X185822417Y-100021207D01*
X185728792Y-99927582D01*
X185728786Y-99927578D01*
X185614114Y-99861371D01*
X185530635Y-99839004D01*
X185486208Y-99827100D01*
X185353792Y-99827100D01*
X185309365Y-99839004D01*
X185225885Y-99861371D01*
X185111213Y-99927578D01*
X185111207Y-99927582D01*
X185017582Y-100021207D01*
X185017578Y-100021213D01*
X184951371Y-100135885D01*
X184937883Y-100186226D01*
X184917100Y-100263792D01*
X151790500Y-100263792D01*
X151790500Y-98961222D01*
X152032100Y-98961222D01*
X152032100Y-99158777D01*
X152070641Y-99352537D01*
X152070642Y-99352538D01*
X152143581Y-99528629D01*
X152146241Y-99535051D01*
X152255996Y-99699312D01*
X152255997Y-99699313D01*
X152256000Y-99699317D01*
X152395682Y-99838999D01*
X152395685Y-99839001D01*
X152395688Y-99839004D01*
X152559949Y-99948759D01*
X152742461Y-100024357D01*
X152742462Y-100024358D01*
X152742463Y-100024358D01*
X152742465Y-100024359D01*
X152872218Y-100050168D01*
X152936222Y-100062900D01*
X152936223Y-100062900D01*
X153133778Y-100062900D01*
X153181889Y-100053329D01*
X153327535Y-100024359D01*
X153510051Y-99948759D01*
X153674312Y-99839004D01*
X153814004Y-99699312D01*
X153923759Y-99535051D01*
X153999359Y-99352535D01*
X154037900Y-99158777D01*
X154037900Y-98961223D01*
X154037900Y-98961222D01*
X154572100Y-98961222D01*
X154572100Y-99158777D01*
X154610641Y-99352537D01*
X154610642Y-99352538D01*
X154683581Y-99528629D01*
X154686241Y-99535051D01*
X154795996Y-99699312D01*
X154795997Y-99699313D01*
X154796000Y-99699317D01*
X154935682Y-99838999D01*
X154935685Y-99839001D01*
X154935688Y-99839004D01*
X155099949Y-99948759D01*
X155282461Y-100024357D01*
X155282462Y-100024358D01*
X155282463Y-100024358D01*
X155282465Y-100024359D01*
X155412218Y-100050168D01*
X155476222Y-100062900D01*
X155476223Y-100062900D01*
X155673778Y-100062900D01*
X155721889Y-100053329D01*
X155867535Y-100024359D01*
X156050051Y-99948759D01*
X156214312Y-99839004D01*
X156354004Y-99699312D01*
X156401124Y-99628792D01*
X164597100Y-99628792D01*
X164597100Y-99761208D01*
X164614755Y-99827100D01*
X164631371Y-99889114D01*
X164697578Y-100003786D01*
X164697582Y-100003792D01*
X164791207Y-100097417D01*
X164791210Y-100097419D01*
X164791212Y-100097421D01*
X164841775Y-100126613D01*
X164905885Y-100163628D01*
X164905887Y-100163628D01*
X164905888Y-100163629D01*
X165033792Y-100197900D01*
X165033794Y-100197900D01*
X165166207Y-100197900D01*
X165166208Y-100197900D01*
X165294112Y-100163629D01*
X165408788Y-100097421D01*
X165502421Y-100003788D01*
X165568629Y-99889112D01*
X165602900Y-99761208D01*
X165602900Y-99638100D01*
X165606288Y-99628792D01*
X191902100Y-99628792D01*
X191902100Y-99761208D01*
X191919755Y-99827100D01*
X191936371Y-99889114D01*
X192002578Y-100003786D01*
X192002582Y-100003792D01*
X192096207Y-100097417D01*
X192096210Y-100097419D01*
X192096212Y-100097421D01*
X192146775Y-100126613D01*
X192210885Y-100163628D01*
X192210887Y-100163628D01*
X192210888Y-100163629D01*
X192338792Y-100197900D01*
X192338794Y-100197900D01*
X192471207Y-100197900D01*
X192471208Y-100197900D01*
X192599112Y-100163629D01*
X192713788Y-100097421D01*
X192807421Y-100003788D01*
X192873629Y-99889112D01*
X192907900Y-99761208D01*
X192907900Y-99628792D01*
X192873629Y-99500888D01*
X192873628Y-99500887D01*
X192873628Y-99500885D01*
X192836613Y-99436775D01*
X192807421Y-99386212D01*
X192807419Y-99386210D01*
X192807417Y-99386207D01*
X192713792Y-99292582D01*
X192713786Y-99292578D01*
X192599114Y-99226371D01*
X192535160Y-99209235D01*
X192471208Y-99192100D01*
X192338792Y-99192100D01*
X192287630Y-99205808D01*
X192210885Y-99226371D01*
X192096213Y-99292578D01*
X192096207Y-99292582D01*
X192002582Y-99386207D01*
X192002578Y-99386213D01*
X191936371Y-99500885D01*
X191922883Y-99551226D01*
X191902100Y-99628792D01*
X165606288Y-99628792D01*
X165620493Y-99589762D01*
X165665042Y-99564042D01*
X165678100Y-99562900D01*
X165801206Y-99562900D01*
X165801208Y-99562900D01*
X165929112Y-99528629D01*
X166043788Y-99462421D01*
X166137421Y-99368788D01*
X166203629Y-99254112D01*
X166237900Y-99126208D01*
X166237900Y-99003100D01*
X166241288Y-98993792D01*
X170312100Y-98993792D01*
X170312100Y-99126208D01*
X170320827Y-99158777D01*
X170346371Y-99254114D01*
X170412578Y-99368786D01*
X170412582Y-99368792D01*
X170506207Y-99462417D01*
X170506210Y-99462419D01*
X170506212Y-99462421D01*
X170556775Y-99491613D01*
X170620885Y-99528628D01*
X170620887Y-99528628D01*
X170620888Y-99528629D01*
X170748792Y-99562900D01*
X170748794Y-99562900D01*
X170881206Y-99562900D01*
X170881208Y-99562900D01*
X171009112Y-99528629D01*
X171123788Y-99462421D01*
X171217421Y-99368788D01*
X171283629Y-99254112D01*
X171317900Y-99126208D01*
X171317900Y-98993792D01*
X175392100Y-98993792D01*
X175392100Y-99126208D01*
X175400827Y-99158777D01*
X175426371Y-99254114D01*
X175492578Y-99368786D01*
X175492582Y-99368792D01*
X175586207Y-99462417D01*
X175586210Y-99462419D01*
X175586212Y-99462421D01*
X175636775Y-99491613D01*
X175700885Y-99528628D01*
X175700887Y-99528628D01*
X175700888Y-99528629D01*
X175828792Y-99562900D01*
X175828794Y-99562900D01*
X175961206Y-99562900D01*
X175961208Y-99562900D01*
X176089112Y-99528629D01*
X176203788Y-99462421D01*
X176297421Y-99368788D01*
X176363629Y-99254112D01*
X176397900Y-99126208D01*
X176397900Y-98993792D01*
X177932100Y-98993792D01*
X177932100Y-99126208D01*
X177940827Y-99158777D01*
X177966371Y-99254114D01*
X178032578Y-99368786D01*
X178032582Y-99368792D01*
X178126207Y-99462417D01*
X178126210Y-99462419D01*
X178126212Y-99462421D01*
X178176775Y-99491613D01*
X178240885Y-99528628D01*
X178240887Y-99528628D01*
X178240888Y-99528629D01*
X178368792Y-99562900D01*
X178368794Y-99562900D01*
X178501207Y-99562900D01*
X178501208Y-99562900D01*
X178629112Y-99528629D01*
X178743788Y-99462421D01*
X178837421Y-99368788D01*
X178903629Y-99254112D01*
X178937900Y-99126208D01*
X178937900Y-98993792D01*
X178903629Y-98865888D01*
X178903628Y-98865887D01*
X178903628Y-98865885D01*
X178857369Y-98785763D01*
X178837421Y-98751212D01*
X178837419Y-98751210D01*
X178837417Y-98751207D01*
X178743792Y-98657582D01*
X178743786Y-98657578D01*
X178703354Y-98634234D01*
X196849500Y-98634234D01*
X196849500Y-98785766D01*
X196888719Y-98932134D01*
X196888722Y-98932142D01*
X196964484Y-99063365D01*
X197071634Y-99170515D01*
X197202857Y-99246277D01*
X197202860Y-99246278D01*
X197202865Y-99246281D01*
X197349234Y-99285500D01*
X197349237Y-99285500D01*
X197500763Y-99285500D01*
X197500766Y-99285500D01*
X197647135Y-99246281D01*
X197778365Y-99170515D01*
X197885515Y-99063365D01*
X197961281Y-98932135D01*
X198000500Y-98785766D01*
X198000500Y-98634234D01*
X197961281Y-98487865D01*
X197961278Y-98487860D01*
X197961277Y-98487857D01*
X197885515Y-98356634D01*
X197778365Y-98249484D01*
X197647142Y-98173722D01*
X197647136Y-98173720D01*
X197647135Y-98173719D01*
X197500766Y-98134500D01*
X197349234Y-98134500D01*
X197212117Y-98171240D01*
X197202865Y-98173719D01*
X197202857Y-98173722D01*
X197071634Y-98249484D01*
X196964484Y-98356634D01*
X196888722Y-98487857D01*
X196888719Y-98487865D01*
X196849500Y-98634234D01*
X178703354Y-98634234D01*
X178629114Y-98591371D01*
X178565160Y-98574235D01*
X178501208Y-98557100D01*
X178368792Y-98557100D01*
X178317630Y-98570808D01*
X178240885Y-98591371D01*
X178126213Y-98657578D01*
X178126207Y-98657582D01*
X178032582Y-98751207D01*
X178032578Y-98751213D01*
X177966371Y-98865885D01*
X177948619Y-98932142D01*
X177932100Y-98993792D01*
X176397900Y-98993792D01*
X176363629Y-98865888D01*
X176363628Y-98865887D01*
X176363628Y-98865885D01*
X176317369Y-98785763D01*
X176297421Y-98751212D01*
X176297419Y-98751210D01*
X176297417Y-98751207D01*
X176203792Y-98657582D01*
X176203786Y-98657578D01*
X176089114Y-98591371D01*
X176025160Y-98574235D01*
X175961208Y-98557100D01*
X175828792Y-98557100D01*
X175777630Y-98570808D01*
X175700885Y-98591371D01*
X175586213Y-98657578D01*
X175586207Y-98657582D01*
X175492582Y-98751207D01*
X175492578Y-98751213D01*
X175426371Y-98865885D01*
X175408619Y-98932142D01*
X175392100Y-98993792D01*
X171317900Y-98993792D01*
X171283629Y-98865888D01*
X171283628Y-98865887D01*
X171283628Y-98865885D01*
X171237369Y-98785763D01*
X171217421Y-98751212D01*
X171217419Y-98751210D01*
X171217417Y-98751207D01*
X171123792Y-98657582D01*
X171123786Y-98657578D01*
X171009114Y-98591371D01*
X170945160Y-98574235D01*
X170881208Y-98557100D01*
X170748792Y-98557100D01*
X170697630Y-98570808D01*
X170620885Y-98591371D01*
X170506213Y-98657578D01*
X170506207Y-98657582D01*
X170412582Y-98751207D01*
X170412578Y-98751213D01*
X170346371Y-98865885D01*
X170328619Y-98932142D01*
X170312100Y-98993792D01*
X166241288Y-98993792D01*
X166255493Y-98954762D01*
X166300042Y-98929042D01*
X166313100Y-98927900D01*
X166436207Y-98927900D01*
X166436208Y-98927900D01*
X166564112Y-98893629D01*
X166678788Y-98827421D01*
X166772421Y-98733788D01*
X166838629Y-98619112D01*
X166872900Y-98491208D01*
X166872900Y-98358792D01*
X166838629Y-98230888D01*
X166838628Y-98230887D01*
X166838628Y-98230885D01*
X166801613Y-98166775D01*
X166772421Y-98116212D01*
X166772419Y-98116210D01*
X166772417Y-98116207D01*
X166678792Y-98022582D01*
X166678786Y-98022578D01*
X166564114Y-97956371D01*
X166500160Y-97939235D01*
X166436208Y-97922100D01*
X166303792Y-97922100D01*
X166263485Y-97932900D01*
X166175885Y-97956371D01*
X166061213Y-98022578D01*
X166061207Y-98022582D01*
X165967582Y-98116207D01*
X165967578Y-98116213D01*
X165901371Y-98230885D01*
X165887945Y-98280996D01*
X165867100Y-98358792D01*
X165867100Y-98358794D01*
X165867100Y-98481900D01*
X165849507Y-98530238D01*
X165804958Y-98555958D01*
X165791900Y-98557100D01*
X165668792Y-98557100D01*
X165617630Y-98570808D01*
X165540885Y-98591371D01*
X165426213Y-98657578D01*
X165426207Y-98657582D01*
X165332582Y-98751207D01*
X165332578Y-98751213D01*
X165266371Y-98865885D01*
X165248619Y-98932142D01*
X165232100Y-98993792D01*
X165232100Y-98993794D01*
X165232100Y-99116900D01*
X165214507Y-99165238D01*
X165169958Y-99190958D01*
X165156900Y-99192100D01*
X165033792Y-99192100D01*
X164982630Y-99205808D01*
X164905885Y-99226371D01*
X164791213Y-99292578D01*
X164791207Y-99292582D01*
X164697582Y-99386207D01*
X164697578Y-99386213D01*
X164631371Y-99500885D01*
X164617883Y-99551226D01*
X164597100Y-99628792D01*
X156401124Y-99628792D01*
X156463759Y-99535051D01*
X156539359Y-99352535D01*
X156577900Y-99158777D01*
X156577900Y-98961223D01*
X156572115Y-98932142D01*
X156542999Y-98785766D01*
X156539359Y-98767465D01*
X156463759Y-98584949D01*
X156354004Y-98420688D01*
X156354001Y-98420685D01*
X156353999Y-98420682D01*
X156214317Y-98281000D01*
X156214313Y-98280997D01*
X156214312Y-98280996D01*
X156050051Y-98171241D01*
X155917201Y-98116213D01*
X155867538Y-98095642D01*
X155867537Y-98095641D01*
X155673778Y-98057100D01*
X155673777Y-98057100D01*
X155476223Y-98057100D01*
X155476222Y-98057100D01*
X155282462Y-98095641D01*
X155282461Y-98095642D01*
X155099950Y-98171240D01*
X154935682Y-98281000D01*
X154796000Y-98420682D01*
X154686240Y-98584950D01*
X154610642Y-98767461D01*
X154610641Y-98767462D01*
X154572100Y-98961222D01*
X154037900Y-98961222D01*
X154032115Y-98932142D01*
X154002999Y-98785766D01*
X153999359Y-98767465D01*
X153923759Y-98584949D01*
X153814004Y-98420688D01*
X153814001Y-98420685D01*
X153813999Y-98420682D01*
X153674317Y-98281000D01*
X153674313Y-98280997D01*
X153674312Y-98280996D01*
X153510051Y-98171241D01*
X153377201Y-98116213D01*
X153327538Y-98095642D01*
X153327537Y-98095641D01*
X153133778Y-98057100D01*
X153133777Y-98057100D01*
X152936223Y-98057100D01*
X152936222Y-98057100D01*
X152742462Y-98095641D01*
X152742461Y-98095642D01*
X152559950Y-98171240D01*
X152395682Y-98281000D01*
X152256000Y-98420682D01*
X152146240Y-98584950D01*
X152070642Y-98767461D01*
X152070641Y-98767462D01*
X152032100Y-98961222D01*
X151790500Y-98961222D01*
X151790500Y-97215695D01*
X195692100Y-97215695D01*
X195692100Y-97344305D01*
X195717191Y-97470444D01*
X195766408Y-97589264D01*
X195837860Y-97696199D01*
X195837862Y-97696201D01*
X195837864Y-97696204D01*
X195928795Y-97787135D01*
X195928798Y-97787137D01*
X195928801Y-97787140D01*
X196035736Y-97858592D01*
X196154556Y-97907809D01*
X196226401Y-97922100D01*
X196280693Y-97932900D01*
X196280695Y-97932900D01*
X197509307Y-97932900D01*
X197563599Y-97922100D01*
X197635444Y-97907809D01*
X197754264Y-97858592D01*
X197861199Y-97787140D01*
X197952140Y-97696199D01*
X198023592Y-97589264D01*
X198072809Y-97470444D01*
X198097900Y-97344305D01*
X198097900Y-97215695D01*
X200122100Y-97215695D01*
X200122100Y-97344305D01*
X200147191Y-97470444D01*
X200196408Y-97589264D01*
X200267860Y-97696199D01*
X200267862Y-97696201D01*
X200267864Y-97696204D01*
X200358795Y-97787135D01*
X200358798Y-97787137D01*
X200358801Y-97787140D01*
X200465736Y-97858592D01*
X200584556Y-97907809D01*
X200656401Y-97922100D01*
X200710693Y-97932900D01*
X200710695Y-97932900D01*
X201439307Y-97932900D01*
X201493599Y-97922100D01*
X201565444Y-97907809D01*
X201684264Y-97858592D01*
X201791199Y-97787140D01*
X201882140Y-97696199D01*
X201953592Y-97589264D01*
X202002809Y-97470444D01*
X202027900Y-97344305D01*
X202027900Y-97215695D01*
X202002809Y-97089556D01*
X201953592Y-96970736D01*
X201882140Y-96863801D01*
X201882137Y-96863798D01*
X201882135Y-96863795D01*
X201791204Y-96772864D01*
X201791201Y-96772862D01*
X201791199Y-96772860D01*
X201684264Y-96701408D01*
X201565444Y-96652191D01*
X201565441Y-96652190D01*
X201565440Y-96652190D01*
X201439307Y-96627100D01*
X201439305Y-96627100D01*
X200710695Y-96627100D01*
X200710693Y-96627100D01*
X200584559Y-96652190D01*
X200584556Y-96652191D01*
X200465737Y-96701407D01*
X200358798Y-96772862D01*
X200358795Y-96772864D01*
X200267864Y-96863795D01*
X200267862Y-96863798D01*
X200196407Y-96970737D01*
X200188996Y-96988629D01*
X200147191Y-97089556D01*
X200122100Y-97215695D01*
X198097900Y-97215695D01*
X198072809Y-97089556D01*
X198023592Y-96970736D01*
X197952140Y-96863801D01*
X197952137Y-96863798D01*
X197952135Y-96863795D01*
X197861204Y-96772864D01*
X197861201Y-96772862D01*
X197861199Y-96772860D01*
X197754264Y-96701408D01*
X197635444Y-96652191D01*
X197635441Y-96652190D01*
X197635440Y-96652190D01*
X197509307Y-96627100D01*
X197509305Y-96627100D01*
X196280695Y-96627100D01*
X196280693Y-96627100D01*
X196154559Y-96652190D01*
X196154556Y-96652191D01*
X196035737Y-96701407D01*
X195928798Y-96772862D01*
X195928795Y-96772864D01*
X195837864Y-96863795D01*
X195837862Y-96863798D01*
X195766407Y-96970737D01*
X195758996Y-96988629D01*
X195717191Y-97089556D01*
X195692100Y-97215695D01*
X151790500Y-97215695D01*
X151790500Y-96453792D01*
X156977100Y-96453792D01*
X156977100Y-96586208D01*
X156994780Y-96652191D01*
X157011371Y-96714114D01*
X157077578Y-96828786D01*
X157077582Y-96828792D01*
X157171207Y-96922417D01*
X157171210Y-96922419D01*
X157171212Y-96922421D01*
X157221775Y-96951613D01*
X157285885Y-96988628D01*
X157285887Y-96988628D01*
X157285888Y-96988629D01*
X157413792Y-97022900D01*
X157413794Y-97022900D01*
X157546206Y-97022900D01*
X157546208Y-97022900D01*
X157674112Y-96988629D01*
X157788788Y-96922421D01*
X157882421Y-96828788D01*
X157948629Y-96714112D01*
X157982900Y-96586208D01*
X157982900Y-96453792D01*
X171582100Y-96453792D01*
X171582100Y-96586208D01*
X171599780Y-96652191D01*
X171616371Y-96714114D01*
X171682578Y-96828786D01*
X171682582Y-96828792D01*
X171776207Y-96922417D01*
X171776210Y-96922419D01*
X171776212Y-96922421D01*
X171826775Y-96951613D01*
X171890885Y-96988628D01*
X171890887Y-96988628D01*
X171890888Y-96988629D01*
X172018792Y-97022900D01*
X172018794Y-97022900D01*
X172151206Y-97022900D01*
X172151208Y-97022900D01*
X172279112Y-96988629D01*
X172393788Y-96922421D01*
X172487421Y-96828788D01*
X172553629Y-96714112D01*
X172587900Y-96586208D01*
X172587900Y-96453792D01*
X172553629Y-96325888D01*
X172553628Y-96325887D01*
X172553628Y-96325885D01*
X172516613Y-96261775D01*
X172487421Y-96211212D01*
X172487419Y-96211210D01*
X172487417Y-96211207D01*
X172393792Y-96117582D01*
X172393786Y-96117578D01*
X172279114Y-96051371D01*
X172215160Y-96034235D01*
X172151208Y-96017100D01*
X172018792Y-96017100D01*
X171967630Y-96030808D01*
X171890885Y-96051371D01*
X171776213Y-96117578D01*
X171776207Y-96117582D01*
X171682582Y-96211207D01*
X171682578Y-96211213D01*
X171616371Y-96325885D01*
X171595808Y-96402630D01*
X171582100Y-96453792D01*
X157982900Y-96453792D01*
X157948629Y-96325888D01*
X157948628Y-96325887D01*
X157948628Y-96325885D01*
X157911613Y-96261775D01*
X157882421Y-96211212D01*
X157882419Y-96211210D01*
X157882417Y-96211207D01*
X157788792Y-96117582D01*
X157788786Y-96117578D01*
X157674114Y-96051371D01*
X157610160Y-96034235D01*
X157546208Y-96017100D01*
X157413792Y-96017100D01*
X157362630Y-96030808D01*
X157285885Y-96051371D01*
X157171213Y-96117578D01*
X157171207Y-96117582D01*
X157077582Y-96211207D01*
X157077578Y-96211213D01*
X157011371Y-96325885D01*
X156990808Y-96402630D01*
X156977100Y-96453792D01*
X151790500Y-96453792D01*
X151790500Y-93114987D01*
X152667600Y-93114987D01*
X152667600Y-93827600D01*
X153193198Y-93827600D01*
X153170000Y-93914174D01*
X153170000Y-94045826D01*
X153193198Y-94132400D01*
X152667600Y-94132400D01*
X152667600Y-94845012D01*
X152676441Y-94889462D01*
X152676442Y-94889464D01*
X152710126Y-94939873D01*
X152760535Y-94973557D01*
X152760537Y-94973558D01*
X152804987Y-94982400D01*
X153517600Y-94982400D01*
X153517600Y-94456802D01*
X153604174Y-94480000D01*
X153735826Y-94480000D01*
X153822400Y-94456802D01*
X153822400Y-94982400D01*
X154535013Y-94982400D01*
X154579462Y-94973558D01*
X154579464Y-94973557D01*
X154629873Y-94939873D01*
X154663557Y-94889464D01*
X154663558Y-94889462D01*
X154672400Y-94845012D01*
X154672400Y-94132400D01*
X154146802Y-94132400D01*
X154170000Y-94045826D01*
X154170000Y-93914174D01*
X154161170Y-93881222D01*
X155207100Y-93881222D01*
X155207100Y-94078777D01*
X155245641Y-94272537D01*
X155245642Y-94272538D01*
X155321241Y-94455051D01*
X155430996Y-94619312D01*
X155430997Y-94619313D01*
X155431000Y-94619317D01*
X155570682Y-94758999D01*
X155570685Y-94759001D01*
X155570688Y-94759004D01*
X155734949Y-94868759D01*
X155917461Y-94944357D01*
X155917462Y-94944358D01*
X155917463Y-94944358D01*
X155917465Y-94944359D01*
X156047218Y-94970168D01*
X156111222Y-94982900D01*
X156111223Y-94982900D01*
X156308778Y-94982900D01*
X156356889Y-94973329D01*
X156502535Y-94944359D01*
X156685051Y-94868759D01*
X156849312Y-94759004D01*
X156989004Y-94619312D01*
X157098759Y-94455051D01*
X157174359Y-94272535D01*
X157212900Y-94078777D01*
X157212900Y-93881223D01*
X157212900Y-93881222D01*
X157747100Y-93881222D01*
X157747100Y-94078777D01*
X157785641Y-94272537D01*
X157785642Y-94272538D01*
X157861241Y-94455051D01*
X157970996Y-94619312D01*
X157970997Y-94619313D01*
X157971000Y-94619317D01*
X158110682Y-94758999D01*
X158110685Y-94759001D01*
X158110688Y-94759004D01*
X158274949Y-94868759D01*
X158457461Y-94944357D01*
X158457462Y-94944358D01*
X158457463Y-94944358D01*
X158457465Y-94944359D01*
X158587218Y-94970168D01*
X158651222Y-94982900D01*
X158651223Y-94982900D01*
X158848778Y-94982900D01*
X158896889Y-94973329D01*
X159042535Y-94944359D01*
X159225051Y-94868759D01*
X159389312Y-94759004D01*
X159529004Y-94619312D01*
X159638759Y-94455051D01*
X159714359Y-94272535D01*
X159752900Y-94078777D01*
X159752900Y-93881223D01*
X159752900Y-93881222D01*
X160287100Y-93881222D01*
X160287100Y-94078777D01*
X160325641Y-94272537D01*
X160325642Y-94272538D01*
X160401241Y-94455051D01*
X160510996Y-94619312D01*
X160510997Y-94619313D01*
X160511000Y-94619317D01*
X160650682Y-94758999D01*
X160650685Y-94759001D01*
X160650688Y-94759004D01*
X160814949Y-94868759D01*
X160997461Y-94944357D01*
X160997462Y-94944358D01*
X160997463Y-94944358D01*
X160997465Y-94944359D01*
X161127218Y-94970168D01*
X161191222Y-94982900D01*
X161191223Y-94982900D01*
X161388778Y-94982900D01*
X161436889Y-94973329D01*
X161582535Y-94944359D01*
X161765051Y-94868759D01*
X161929312Y-94759004D01*
X162069004Y-94619312D01*
X162178759Y-94455051D01*
X162254359Y-94272535D01*
X162292900Y-94078777D01*
X162292900Y-93881223D01*
X162292900Y-93881222D01*
X162827100Y-93881222D01*
X162827100Y-94078777D01*
X162865641Y-94272537D01*
X162865642Y-94272538D01*
X162941241Y-94455051D01*
X163050996Y-94619312D01*
X163050997Y-94619313D01*
X163051000Y-94619317D01*
X163190682Y-94758999D01*
X163190685Y-94759001D01*
X163190688Y-94759004D01*
X163354949Y-94868759D01*
X163537461Y-94944357D01*
X163537462Y-94944358D01*
X163537463Y-94944358D01*
X163537465Y-94944359D01*
X163667218Y-94970168D01*
X163731222Y-94982900D01*
X163731223Y-94982900D01*
X163928778Y-94982900D01*
X163976889Y-94973329D01*
X164122535Y-94944359D01*
X164305051Y-94868759D01*
X164469312Y-94759004D01*
X164609004Y-94619312D01*
X164718759Y-94455051D01*
X164794359Y-94272535D01*
X164832900Y-94078777D01*
X164832900Y-93881223D01*
X164832900Y-93881222D01*
X165367100Y-93881222D01*
X165367100Y-94078777D01*
X165405641Y-94272537D01*
X165405642Y-94272538D01*
X165481241Y-94455051D01*
X165590996Y-94619312D01*
X165590997Y-94619313D01*
X165591000Y-94619317D01*
X165730682Y-94758999D01*
X165730685Y-94759001D01*
X165730688Y-94759004D01*
X165894949Y-94868759D01*
X166077461Y-94944357D01*
X166077462Y-94944358D01*
X166077463Y-94944358D01*
X166077465Y-94944359D01*
X166207218Y-94970168D01*
X166271222Y-94982900D01*
X166271223Y-94982900D01*
X166468778Y-94982900D01*
X166516889Y-94973329D01*
X166662535Y-94944359D01*
X166845051Y-94868759D01*
X167009312Y-94759004D01*
X167149004Y-94619312D01*
X167258759Y-94455051D01*
X167334359Y-94272535D01*
X167372900Y-94078777D01*
X167372900Y-93881223D01*
X167372900Y-93881222D01*
X167907100Y-93881222D01*
X167907100Y-94078777D01*
X167945641Y-94272537D01*
X167945642Y-94272538D01*
X168021241Y-94455051D01*
X168130996Y-94619312D01*
X168130997Y-94619313D01*
X168131000Y-94619317D01*
X168270682Y-94758999D01*
X168270685Y-94759001D01*
X168270688Y-94759004D01*
X168434949Y-94868759D01*
X168617461Y-94944357D01*
X168617462Y-94944358D01*
X168617463Y-94944358D01*
X168617465Y-94944359D01*
X168747218Y-94970168D01*
X168811222Y-94982900D01*
X168811223Y-94982900D01*
X169008778Y-94982900D01*
X169056889Y-94973329D01*
X169202535Y-94944359D01*
X169385051Y-94868759D01*
X169549312Y-94759004D01*
X169689004Y-94619312D01*
X169798759Y-94455051D01*
X169874359Y-94272535D01*
X169912900Y-94078777D01*
X169912900Y-93881223D01*
X169912900Y-93881222D01*
X170447100Y-93881222D01*
X170447100Y-94078777D01*
X170485641Y-94272537D01*
X170485642Y-94272538D01*
X170561241Y-94455051D01*
X170670996Y-94619312D01*
X170670997Y-94619313D01*
X170671000Y-94619317D01*
X170810682Y-94758999D01*
X170810685Y-94759001D01*
X170810688Y-94759004D01*
X170974949Y-94868759D01*
X171157461Y-94944357D01*
X171157462Y-94944358D01*
X171157463Y-94944358D01*
X171157465Y-94944359D01*
X171287218Y-94970168D01*
X171351222Y-94982900D01*
X171351223Y-94982900D01*
X171548778Y-94982900D01*
X171596889Y-94973329D01*
X171742535Y-94944359D01*
X171925051Y-94868759D01*
X172089312Y-94759004D01*
X172229004Y-94619312D01*
X172338759Y-94455051D01*
X172414359Y-94272535D01*
X172452900Y-94078777D01*
X172452900Y-93881223D01*
X172452900Y-93881222D01*
X172987100Y-93881222D01*
X172987100Y-94078777D01*
X173025641Y-94272537D01*
X173025642Y-94272538D01*
X173101241Y-94455051D01*
X173210996Y-94619312D01*
X173210997Y-94619313D01*
X173211000Y-94619317D01*
X173350682Y-94758999D01*
X173350685Y-94759001D01*
X173350688Y-94759004D01*
X173514949Y-94868759D01*
X173697461Y-94944357D01*
X173697462Y-94944358D01*
X173697463Y-94944358D01*
X173697465Y-94944359D01*
X173827218Y-94970168D01*
X173891222Y-94982900D01*
X173891223Y-94982900D01*
X174088778Y-94982900D01*
X174136889Y-94973329D01*
X174282535Y-94944359D01*
X174465051Y-94868759D01*
X174629312Y-94759004D01*
X174769004Y-94619312D01*
X174878759Y-94455051D01*
X174954359Y-94272535D01*
X174992900Y-94078777D01*
X174992900Y-93881223D01*
X174992900Y-93881222D01*
X175527100Y-93881222D01*
X175527100Y-94078777D01*
X175565641Y-94272537D01*
X175565642Y-94272538D01*
X175641241Y-94455051D01*
X175750996Y-94619312D01*
X175750997Y-94619313D01*
X175751000Y-94619317D01*
X175890682Y-94758999D01*
X175890685Y-94759001D01*
X175890688Y-94759004D01*
X176054949Y-94868759D01*
X176237461Y-94944357D01*
X176237462Y-94944358D01*
X176237463Y-94944358D01*
X176237465Y-94944359D01*
X176367218Y-94970168D01*
X176431222Y-94982900D01*
X176431223Y-94982900D01*
X176628778Y-94982900D01*
X176676889Y-94973329D01*
X176822535Y-94944359D01*
X177005051Y-94868759D01*
X177169312Y-94759004D01*
X177309004Y-94619312D01*
X177418759Y-94455051D01*
X177494359Y-94272535D01*
X177532900Y-94078777D01*
X177532900Y-93881223D01*
X177532900Y-93881222D01*
X178067100Y-93881222D01*
X178067100Y-94078777D01*
X178105641Y-94272537D01*
X178105642Y-94272538D01*
X178181241Y-94455051D01*
X178290996Y-94619312D01*
X178290997Y-94619313D01*
X178291000Y-94619317D01*
X178430682Y-94758999D01*
X178430685Y-94759001D01*
X178430688Y-94759004D01*
X178594949Y-94868759D01*
X178777461Y-94944357D01*
X178777462Y-94944358D01*
X178777463Y-94944358D01*
X178777465Y-94944359D01*
X178907218Y-94970168D01*
X178971222Y-94982900D01*
X178971223Y-94982900D01*
X179168778Y-94982900D01*
X179216889Y-94973329D01*
X179362535Y-94944359D01*
X179545051Y-94868759D01*
X179709312Y-94759004D01*
X179849004Y-94619312D01*
X179958759Y-94455051D01*
X180034359Y-94272535D01*
X180072900Y-94078777D01*
X180072900Y-93881223D01*
X180072900Y-93881222D01*
X180607100Y-93881222D01*
X180607100Y-94078777D01*
X180645641Y-94272537D01*
X180645642Y-94272538D01*
X180721241Y-94455051D01*
X180830996Y-94619312D01*
X180830997Y-94619313D01*
X180831000Y-94619317D01*
X180970682Y-94758999D01*
X180970685Y-94759001D01*
X180970688Y-94759004D01*
X181134949Y-94868759D01*
X181317461Y-94944357D01*
X181317462Y-94944358D01*
X181317463Y-94944358D01*
X181317465Y-94944359D01*
X181447218Y-94970168D01*
X181511222Y-94982900D01*
X181511223Y-94982900D01*
X181708778Y-94982900D01*
X181756889Y-94973329D01*
X181902535Y-94944359D01*
X182085051Y-94868759D01*
X182249312Y-94759004D01*
X182389004Y-94619312D01*
X182498759Y-94455051D01*
X182574359Y-94272535D01*
X182612900Y-94078777D01*
X182612900Y-93881223D01*
X182612900Y-93881222D01*
X183147100Y-93881222D01*
X183147100Y-94078777D01*
X183185641Y-94272537D01*
X183185642Y-94272538D01*
X183261241Y-94455051D01*
X183370996Y-94619312D01*
X183370997Y-94619313D01*
X183371000Y-94619317D01*
X183510682Y-94758999D01*
X183510685Y-94759001D01*
X183510688Y-94759004D01*
X183674949Y-94868759D01*
X183857461Y-94944357D01*
X183857462Y-94944358D01*
X183857463Y-94944358D01*
X183857465Y-94944359D01*
X183987218Y-94970168D01*
X184051222Y-94982900D01*
X184051223Y-94982900D01*
X184248778Y-94982900D01*
X184296889Y-94973329D01*
X184442535Y-94944359D01*
X184625051Y-94868759D01*
X184789312Y-94759004D01*
X184929004Y-94619312D01*
X185038759Y-94455051D01*
X185114359Y-94272535D01*
X185152900Y-94078777D01*
X185152900Y-93881223D01*
X185152900Y-93881222D01*
X185687100Y-93881222D01*
X185687100Y-94078777D01*
X185725641Y-94272537D01*
X185725642Y-94272538D01*
X185801241Y-94455051D01*
X185910996Y-94619312D01*
X185910997Y-94619313D01*
X185911000Y-94619317D01*
X186050682Y-94758999D01*
X186050685Y-94759001D01*
X186050688Y-94759004D01*
X186214949Y-94868759D01*
X186397461Y-94944357D01*
X186397462Y-94944358D01*
X186397463Y-94944358D01*
X186397465Y-94944359D01*
X186527218Y-94970168D01*
X186591222Y-94982900D01*
X186591223Y-94982900D01*
X186788778Y-94982900D01*
X186836889Y-94973329D01*
X186982535Y-94944359D01*
X187165051Y-94868759D01*
X187329312Y-94759004D01*
X187469004Y-94619312D01*
X187578759Y-94455051D01*
X187654359Y-94272535D01*
X187692900Y-94078777D01*
X187692900Y-93881223D01*
X187692900Y-93881222D01*
X188227100Y-93881222D01*
X188227100Y-94078777D01*
X188265641Y-94272537D01*
X188265642Y-94272538D01*
X188341241Y-94455051D01*
X188450996Y-94619312D01*
X188450997Y-94619313D01*
X188451000Y-94619317D01*
X188590682Y-94758999D01*
X188590685Y-94759001D01*
X188590688Y-94759004D01*
X188754949Y-94868759D01*
X188937461Y-94944357D01*
X188937462Y-94944358D01*
X188937463Y-94944358D01*
X188937465Y-94944359D01*
X189067218Y-94970168D01*
X189131222Y-94982900D01*
X189131223Y-94982900D01*
X189328778Y-94982900D01*
X189376889Y-94973329D01*
X189522535Y-94944359D01*
X189705051Y-94868759D01*
X189869312Y-94759004D01*
X190009004Y-94619312D01*
X190118759Y-94455051D01*
X190194359Y-94272535D01*
X190232900Y-94078777D01*
X190232900Y-93881223D01*
X190232900Y-93881222D01*
X190767100Y-93881222D01*
X190767100Y-94078777D01*
X190805641Y-94272537D01*
X190805642Y-94272538D01*
X190881241Y-94455051D01*
X190990996Y-94619312D01*
X190990997Y-94619313D01*
X190991000Y-94619317D01*
X191130682Y-94758999D01*
X191130685Y-94759001D01*
X191130688Y-94759004D01*
X191294949Y-94868759D01*
X191477461Y-94944357D01*
X191477462Y-94944358D01*
X191477463Y-94944358D01*
X191477465Y-94944359D01*
X191607218Y-94970168D01*
X191671222Y-94982900D01*
X191671223Y-94982900D01*
X191868778Y-94982900D01*
X191916889Y-94973329D01*
X192062535Y-94944359D01*
X192245051Y-94868759D01*
X192409312Y-94759004D01*
X192549004Y-94619312D01*
X192658759Y-94455051D01*
X192734359Y-94272535D01*
X192772900Y-94078777D01*
X192772900Y-93881223D01*
X192772900Y-93881222D01*
X193307100Y-93881222D01*
X193307100Y-94078777D01*
X193345641Y-94272537D01*
X193345642Y-94272538D01*
X193421241Y-94455051D01*
X193530996Y-94619312D01*
X193530997Y-94619313D01*
X193531000Y-94619317D01*
X193670682Y-94758999D01*
X193670685Y-94759001D01*
X193670688Y-94759004D01*
X193834949Y-94868759D01*
X194017461Y-94944357D01*
X194017462Y-94944358D01*
X194017463Y-94944358D01*
X194017465Y-94944359D01*
X194147218Y-94970168D01*
X194211222Y-94982900D01*
X194211223Y-94982900D01*
X194408778Y-94982900D01*
X194456889Y-94973329D01*
X194602535Y-94944359D01*
X194785051Y-94868759D01*
X194949312Y-94759004D01*
X195089004Y-94619312D01*
X195198759Y-94455051D01*
X195274359Y-94272535D01*
X195312900Y-94078777D01*
X195312900Y-93881223D01*
X195312900Y-93881222D01*
X195847100Y-93881222D01*
X195847100Y-94078777D01*
X195885641Y-94272537D01*
X195885642Y-94272538D01*
X195961241Y-94455051D01*
X196070996Y-94619312D01*
X196070997Y-94619313D01*
X196071000Y-94619317D01*
X196210682Y-94758999D01*
X196210685Y-94759001D01*
X196210688Y-94759004D01*
X196374949Y-94868759D01*
X196557461Y-94944357D01*
X196557462Y-94944358D01*
X196557463Y-94944358D01*
X196557465Y-94944359D01*
X196687218Y-94970168D01*
X196751222Y-94982900D01*
X196751223Y-94982900D01*
X196948778Y-94982900D01*
X196996889Y-94973329D01*
X197142535Y-94944359D01*
X197325051Y-94868759D01*
X197489312Y-94759004D01*
X197629004Y-94619312D01*
X197738759Y-94455051D01*
X197814359Y-94272535D01*
X197852900Y-94078777D01*
X197852900Y-93881223D01*
X197852900Y-93881222D01*
X198387100Y-93881222D01*
X198387100Y-94078777D01*
X198425641Y-94272537D01*
X198425642Y-94272538D01*
X198501241Y-94455051D01*
X198610996Y-94619312D01*
X198610997Y-94619313D01*
X198611000Y-94619317D01*
X198750682Y-94758999D01*
X198750685Y-94759001D01*
X198750688Y-94759004D01*
X198914949Y-94868759D01*
X199097461Y-94944357D01*
X199097462Y-94944358D01*
X199097463Y-94944358D01*
X199097465Y-94944359D01*
X199227218Y-94970168D01*
X199291222Y-94982900D01*
X199291223Y-94982900D01*
X199488778Y-94982900D01*
X199536889Y-94973329D01*
X199682535Y-94944359D01*
X199865051Y-94868759D01*
X200029312Y-94759004D01*
X200169004Y-94619312D01*
X200278759Y-94455051D01*
X200354359Y-94272535D01*
X200392900Y-94078777D01*
X200392900Y-93881223D01*
X200392900Y-93881222D01*
X200927100Y-93881222D01*
X200927100Y-94078777D01*
X200965641Y-94272537D01*
X200965642Y-94272538D01*
X201041241Y-94455051D01*
X201150996Y-94619312D01*
X201150997Y-94619313D01*
X201151000Y-94619317D01*
X201290682Y-94758999D01*
X201290685Y-94759001D01*
X201290688Y-94759004D01*
X201454949Y-94868759D01*
X201637461Y-94944357D01*
X201637462Y-94944358D01*
X201637463Y-94944358D01*
X201637465Y-94944359D01*
X201767218Y-94970168D01*
X201831222Y-94982900D01*
X201831223Y-94982900D01*
X202028778Y-94982900D01*
X202076889Y-94973329D01*
X202222535Y-94944359D01*
X202405051Y-94868759D01*
X202569312Y-94759004D01*
X202709004Y-94619312D01*
X202818759Y-94455051D01*
X202894359Y-94272535D01*
X202932900Y-94078777D01*
X202932900Y-93881223D01*
X202894359Y-93687465D01*
X202818759Y-93504949D01*
X202709004Y-93340688D01*
X202709001Y-93340685D01*
X202708999Y-93340682D01*
X202569317Y-93201000D01*
X202569313Y-93200997D01*
X202569312Y-93200996D01*
X202405051Y-93091241D01*
X202233363Y-93020126D01*
X202222538Y-93015642D01*
X202222537Y-93015641D01*
X202028778Y-92977100D01*
X202028777Y-92977100D01*
X201831223Y-92977100D01*
X201831222Y-92977100D01*
X201637462Y-93015641D01*
X201637461Y-93015642D01*
X201454950Y-93091240D01*
X201290682Y-93201000D01*
X201151000Y-93340682D01*
X201041240Y-93504950D01*
X200965642Y-93687461D01*
X200965641Y-93687462D01*
X200927100Y-93881222D01*
X200392900Y-93881222D01*
X200354359Y-93687465D01*
X200278759Y-93504949D01*
X200169004Y-93340688D01*
X200169001Y-93340685D01*
X200168999Y-93340682D01*
X200029317Y-93201000D01*
X200029313Y-93200997D01*
X200029312Y-93200996D01*
X199865051Y-93091241D01*
X199693363Y-93020126D01*
X199682538Y-93015642D01*
X199682537Y-93015641D01*
X199488778Y-92977100D01*
X199488777Y-92977100D01*
X199291223Y-92977100D01*
X199291222Y-92977100D01*
X199097462Y-93015641D01*
X199097461Y-93015642D01*
X198914950Y-93091240D01*
X198750682Y-93201000D01*
X198611000Y-93340682D01*
X198501240Y-93504950D01*
X198425642Y-93687461D01*
X198425641Y-93687462D01*
X198387100Y-93881222D01*
X197852900Y-93881222D01*
X197814359Y-93687465D01*
X197738759Y-93504949D01*
X197629004Y-93340688D01*
X197629001Y-93340685D01*
X197628999Y-93340682D01*
X197489317Y-93201000D01*
X197489313Y-93200997D01*
X197489312Y-93200996D01*
X197325051Y-93091241D01*
X197153363Y-93020126D01*
X197142538Y-93015642D01*
X197142537Y-93015641D01*
X196948778Y-92977100D01*
X196948777Y-92977100D01*
X196751223Y-92977100D01*
X196751222Y-92977100D01*
X196557462Y-93015641D01*
X196557461Y-93015642D01*
X196374950Y-93091240D01*
X196210682Y-93201000D01*
X196071000Y-93340682D01*
X195961240Y-93504950D01*
X195885642Y-93687461D01*
X195885641Y-93687462D01*
X195847100Y-93881222D01*
X195312900Y-93881222D01*
X195274359Y-93687465D01*
X195198759Y-93504949D01*
X195089004Y-93340688D01*
X195089001Y-93340685D01*
X195088999Y-93340682D01*
X194949317Y-93201000D01*
X194949313Y-93200997D01*
X194949312Y-93200996D01*
X194785051Y-93091241D01*
X194613363Y-93020126D01*
X194602538Y-93015642D01*
X194602537Y-93015641D01*
X194408778Y-92977100D01*
X194408777Y-92977100D01*
X194211223Y-92977100D01*
X194211222Y-92977100D01*
X194017462Y-93015641D01*
X194017461Y-93015642D01*
X193834950Y-93091240D01*
X193670682Y-93201000D01*
X193531000Y-93340682D01*
X193421240Y-93504950D01*
X193345642Y-93687461D01*
X193345641Y-93687462D01*
X193307100Y-93881222D01*
X192772900Y-93881222D01*
X192734359Y-93687465D01*
X192658759Y-93504949D01*
X192549004Y-93340688D01*
X192549001Y-93340685D01*
X192548999Y-93340682D01*
X192409317Y-93201000D01*
X192409313Y-93200997D01*
X192409312Y-93200996D01*
X192245051Y-93091241D01*
X192073363Y-93020126D01*
X192062538Y-93015642D01*
X192062537Y-93015641D01*
X191868778Y-92977100D01*
X191868777Y-92977100D01*
X191671223Y-92977100D01*
X191671222Y-92977100D01*
X191477462Y-93015641D01*
X191477461Y-93015642D01*
X191294950Y-93091240D01*
X191130682Y-93201000D01*
X190991000Y-93340682D01*
X190881240Y-93504950D01*
X190805642Y-93687461D01*
X190805641Y-93687462D01*
X190767100Y-93881222D01*
X190232900Y-93881222D01*
X190194359Y-93687465D01*
X190118759Y-93504949D01*
X190009004Y-93340688D01*
X190009001Y-93340685D01*
X190008999Y-93340682D01*
X189869317Y-93201000D01*
X189869313Y-93200997D01*
X189869312Y-93200996D01*
X189705051Y-93091241D01*
X189533363Y-93020126D01*
X189522538Y-93015642D01*
X189522537Y-93015641D01*
X189328778Y-92977100D01*
X189328777Y-92977100D01*
X189131223Y-92977100D01*
X189131222Y-92977100D01*
X188937462Y-93015641D01*
X188937461Y-93015642D01*
X188754950Y-93091240D01*
X188590682Y-93201000D01*
X188451000Y-93340682D01*
X188341240Y-93504950D01*
X188265642Y-93687461D01*
X188265641Y-93687462D01*
X188227100Y-93881222D01*
X187692900Y-93881222D01*
X187654359Y-93687465D01*
X187578759Y-93504949D01*
X187469004Y-93340688D01*
X187469001Y-93340685D01*
X187468999Y-93340682D01*
X187329317Y-93201000D01*
X187329313Y-93200997D01*
X187329312Y-93200996D01*
X187165051Y-93091241D01*
X186993363Y-93020126D01*
X186982538Y-93015642D01*
X186982537Y-93015641D01*
X186788778Y-92977100D01*
X186788777Y-92977100D01*
X186591223Y-92977100D01*
X186591222Y-92977100D01*
X186397462Y-93015641D01*
X186397461Y-93015642D01*
X186214950Y-93091240D01*
X186050682Y-93201000D01*
X185911000Y-93340682D01*
X185801240Y-93504950D01*
X185725642Y-93687461D01*
X185725641Y-93687462D01*
X185687100Y-93881222D01*
X185152900Y-93881222D01*
X185114359Y-93687465D01*
X185038759Y-93504949D01*
X184929004Y-93340688D01*
X184929001Y-93340685D01*
X184928999Y-93340682D01*
X184789317Y-93201000D01*
X184789313Y-93200997D01*
X184789312Y-93200996D01*
X184625051Y-93091241D01*
X184453363Y-93020126D01*
X184442538Y-93015642D01*
X184442537Y-93015641D01*
X184248778Y-92977100D01*
X184248777Y-92977100D01*
X184051223Y-92977100D01*
X184051222Y-92977100D01*
X183857462Y-93015641D01*
X183857461Y-93015642D01*
X183674950Y-93091240D01*
X183510682Y-93201000D01*
X183371000Y-93340682D01*
X183261240Y-93504950D01*
X183185642Y-93687461D01*
X183185641Y-93687462D01*
X183147100Y-93881222D01*
X182612900Y-93881222D01*
X182574359Y-93687465D01*
X182498759Y-93504949D01*
X182389004Y-93340688D01*
X182389001Y-93340685D01*
X182388999Y-93340682D01*
X182249317Y-93201000D01*
X182249313Y-93200997D01*
X182249312Y-93200996D01*
X182085051Y-93091241D01*
X181913363Y-93020126D01*
X181902538Y-93015642D01*
X181902537Y-93015641D01*
X181708778Y-92977100D01*
X181708777Y-92977100D01*
X181511223Y-92977100D01*
X181511222Y-92977100D01*
X181317462Y-93015641D01*
X181317461Y-93015642D01*
X181134950Y-93091240D01*
X180970682Y-93201000D01*
X180831000Y-93340682D01*
X180721240Y-93504950D01*
X180645642Y-93687461D01*
X180645641Y-93687462D01*
X180607100Y-93881222D01*
X180072900Y-93881222D01*
X180034359Y-93687465D01*
X179958759Y-93504949D01*
X179849004Y-93340688D01*
X179849001Y-93340685D01*
X179848999Y-93340682D01*
X179709317Y-93201000D01*
X179709313Y-93200997D01*
X179709312Y-93200996D01*
X179545051Y-93091241D01*
X179373363Y-93020126D01*
X179362538Y-93015642D01*
X179362537Y-93015641D01*
X179168778Y-92977100D01*
X179168777Y-92977100D01*
X178971223Y-92977100D01*
X178971222Y-92977100D01*
X178777462Y-93015641D01*
X178777461Y-93015642D01*
X178594950Y-93091240D01*
X178430682Y-93201000D01*
X178291000Y-93340682D01*
X178181240Y-93504950D01*
X178105642Y-93687461D01*
X178105641Y-93687462D01*
X178067100Y-93881222D01*
X177532900Y-93881222D01*
X177494359Y-93687465D01*
X177418759Y-93504949D01*
X177309004Y-93340688D01*
X177309001Y-93340685D01*
X177308999Y-93340682D01*
X177169317Y-93201000D01*
X177169313Y-93200997D01*
X177169312Y-93200996D01*
X177005051Y-93091241D01*
X176833363Y-93020126D01*
X176822538Y-93015642D01*
X176822537Y-93015641D01*
X176628778Y-92977100D01*
X176628777Y-92977100D01*
X176431223Y-92977100D01*
X176431222Y-92977100D01*
X176237462Y-93015641D01*
X176237461Y-93015642D01*
X176054950Y-93091240D01*
X175890682Y-93201000D01*
X175751000Y-93340682D01*
X175641240Y-93504950D01*
X175565642Y-93687461D01*
X175565641Y-93687462D01*
X175527100Y-93881222D01*
X174992900Y-93881222D01*
X174954359Y-93687465D01*
X174878759Y-93504949D01*
X174769004Y-93340688D01*
X174769001Y-93340685D01*
X174768999Y-93340682D01*
X174629317Y-93201000D01*
X174629313Y-93200997D01*
X174629312Y-93200996D01*
X174465051Y-93091241D01*
X174293363Y-93020126D01*
X174282538Y-93015642D01*
X174282537Y-93015641D01*
X174088778Y-92977100D01*
X174088777Y-92977100D01*
X173891223Y-92977100D01*
X173891222Y-92977100D01*
X173697462Y-93015641D01*
X173697461Y-93015642D01*
X173514950Y-93091240D01*
X173350682Y-93201000D01*
X173211000Y-93340682D01*
X173101240Y-93504950D01*
X173025642Y-93687461D01*
X173025641Y-93687462D01*
X172987100Y-93881222D01*
X172452900Y-93881222D01*
X172414359Y-93687465D01*
X172338759Y-93504949D01*
X172229004Y-93340688D01*
X172229001Y-93340685D01*
X172228999Y-93340682D01*
X172089317Y-93201000D01*
X172089313Y-93200997D01*
X172089312Y-93200996D01*
X171925051Y-93091241D01*
X171753363Y-93020126D01*
X171742538Y-93015642D01*
X171742537Y-93015641D01*
X171548778Y-92977100D01*
X171548777Y-92977100D01*
X171351223Y-92977100D01*
X171351222Y-92977100D01*
X171157462Y-93015641D01*
X171157461Y-93015642D01*
X170974950Y-93091240D01*
X170810682Y-93201000D01*
X170671000Y-93340682D01*
X170561240Y-93504950D01*
X170485642Y-93687461D01*
X170485641Y-93687462D01*
X170447100Y-93881222D01*
X169912900Y-93881222D01*
X169874359Y-93687465D01*
X169798759Y-93504949D01*
X169689004Y-93340688D01*
X169689001Y-93340685D01*
X169688999Y-93340682D01*
X169549317Y-93201000D01*
X169549313Y-93200997D01*
X169549312Y-93200996D01*
X169385051Y-93091241D01*
X169213363Y-93020126D01*
X169202538Y-93015642D01*
X169202537Y-93015641D01*
X169008778Y-92977100D01*
X169008777Y-92977100D01*
X168811223Y-92977100D01*
X168811222Y-92977100D01*
X168617462Y-93015641D01*
X168617461Y-93015642D01*
X168434950Y-93091240D01*
X168270682Y-93201000D01*
X168131000Y-93340682D01*
X168021240Y-93504950D01*
X167945642Y-93687461D01*
X167945641Y-93687462D01*
X167907100Y-93881222D01*
X167372900Y-93881222D01*
X167334359Y-93687465D01*
X167258759Y-93504949D01*
X167149004Y-93340688D01*
X167149001Y-93340685D01*
X167148999Y-93340682D01*
X167009317Y-93201000D01*
X167009313Y-93200997D01*
X167009312Y-93200996D01*
X166845051Y-93091241D01*
X166673363Y-93020126D01*
X166662538Y-93015642D01*
X166662537Y-93015641D01*
X166468778Y-92977100D01*
X166468777Y-92977100D01*
X166271223Y-92977100D01*
X166271222Y-92977100D01*
X166077462Y-93015641D01*
X166077461Y-93015642D01*
X165894950Y-93091240D01*
X165730682Y-93201000D01*
X165591000Y-93340682D01*
X165481240Y-93504950D01*
X165405642Y-93687461D01*
X165405641Y-93687462D01*
X165367100Y-93881222D01*
X164832900Y-93881222D01*
X164794359Y-93687465D01*
X164718759Y-93504949D01*
X164609004Y-93340688D01*
X164609001Y-93340685D01*
X164608999Y-93340682D01*
X164469317Y-93201000D01*
X164469313Y-93200997D01*
X164469312Y-93200996D01*
X164305051Y-93091241D01*
X164133363Y-93020126D01*
X164122538Y-93015642D01*
X164122537Y-93015641D01*
X163928778Y-92977100D01*
X163928777Y-92977100D01*
X163731223Y-92977100D01*
X163731222Y-92977100D01*
X163537462Y-93015641D01*
X163537461Y-93015642D01*
X163354950Y-93091240D01*
X163190682Y-93201000D01*
X163051000Y-93340682D01*
X162941240Y-93504950D01*
X162865642Y-93687461D01*
X162865641Y-93687462D01*
X162827100Y-93881222D01*
X162292900Y-93881222D01*
X162254359Y-93687465D01*
X162178759Y-93504949D01*
X162069004Y-93340688D01*
X162069001Y-93340685D01*
X162068999Y-93340682D01*
X161929317Y-93201000D01*
X161929313Y-93200997D01*
X161929312Y-93200996D01*
X161765051Y-93091241D01*
X161593363Y-93020126D01*
X161582538Y-93015642D01*
X161582537Y-93015641D01*
X161388778Y-92977100D01*
X161388777Y-92977100D01*
X161191223Y-92977100D01*
X161191222Y-92977100D01*
X160997462Y-93015641D01*
X160997461Y-93015642D01*
X160814950Y-93091240D01*
X160650682Y-93201000D01*
X160511000Y-93340682D01*
X160401240Y-93504950D01*
X160325642Y-93687461D01*
X160325641Y-93687462D01*
X160287100Y-93881222D01*
X159752900Y-93881222D01*
X159714359Y-93687465D01*
X159638759Y-93504949D01*
X159529004Y-93340688D01*
X159529001Y-93340685D01*
X159528999Y-93340682D01*
X159389317Y-93201000D01*
X159389313Y-93200997D01*
X159389312Y-93200996D01*
X159225051Y-93091241D01*
X159053363Y-93020126D01*
X159042538Y-93015642D01*
X159042537Y-93015641D01*
X158848778Y-92977100D01*
X158848777Y-92977100D01*
X158651223Y-92977100D01*
X158651222Y-92977100D01*
X158457462Y-93015641D01*
X158457461Y-93015642D01*
X158274950Y-93091240D01*
X158110682Y-93201000D01*
X157971000Y-93340682D01*
X157861240Y-93504950D01*
X157785642Y-93687461D01*
X157785641Y-93687462D01*
X157747100Y-93881222D01*
X157212900Y-93881222D01*
X157174359Y-93687465D01*
X157098759Y-93504949D01*
X156989004Y-93340688D01*
X156989001Y-93340685D01*
X156988999Y-93340682D01*
X156849317Y-93201000D01*
X156849313Y-93200997D01*
X156849312Y-93200996D01*
X156685051Y-93091241D01*
X156513363Y-93020126D01*
X156502538Y-93015642D01*
X156502537Y-93015641D01*
X156308778Y-92977100D01*
X156308777Y-92977100D01*
X156111223Y-92977100D01*
X156111222Y-92977100D01*
X155917462Y-93015641D01*
X155917461Y-93015642D01*
X155734950Y-93091240D01*
X155570682Y-93201000D01*
X155431000Y-93340682D01*
X155321240Y-93504950D01*
X155245642Y-93687461D01*
X155245641Y-93687462D01*
X155207100Y-93881222D01*
X154161170Y-93881222D01*
X154146802Y-93827600D01*
X154672400Y-93827600D01*
X154672400Y-93114987D01*
X154663558Y-93070537D01*
X154663557Y-93070535D01*
X154629873Y-93020126D01*
X154579464Y-92986442D01*
X154579462Y-92986441D01*
X154535013Y-92977600D01*
X153822400Y-92977600D01*
X153822400Y-93503197D01*
X153735826Y-93480000D01*
X153604174Y-93480000D01*
X153517600Y-93503197D01*
X153517600Y-92977600D01*
X152804987Y-92977600D01*
X152760537Y-92986441D01*
X152760535Y-92986442D01*
X152710126Y-93020126D01*
X152676442Y-93070535D01*
X152676441Y-93070537D01*
X152667600Y-93114987D01*
X151790500Y-93114987D01*
X151790500Y-92712952D01*
X151790732Y-92707052D01*
X151798524Y-92608042D01*
X151805358Y-92521206D01*
X151807201Y-92509571D01*
X151850029Y-92331178D01*
X151853670Y-92319970D01*
X151923881Y-92150465D01*
X151929234Y-92139963D01*
X152025088Y-91983544D01*
X152032019Y-91974003D01*
X152151171Y-91834495D01*
X152159495Y-91826171D01*
X152299003Y-91707019D01*
X152308544Y-91700088D01*
X152464963Y-91604234D01*
X152475465Y-91598881D01*
X152644970Y-91528670D01*
X152656178Y-91525029D01*
X152834571Y-91482201D01*
X152846206Y-91480358D01*
X153032052Y-91465731D01*
X153037952Y-91465500D01*
X153043285Y-91465500D01*
X202556715Y-91465500D01*
X202562048Y-91465500D01*
X202567947Y-91465731D01*
G37*
G04 #@! TD.AperFunction*
G04 #@! TD*
M02*
