M48
; DRILL file {KiCad 9.0.0+dfsg-1} date 2025-03-10T08:37:13+0800
; FORMAT={-:-/ absolute / metric / decimal}
; #@! TF.CreationDate,2025-03-10T08:37:13+08:00
; #@! TF.GenerationSoftware,Kicad,Pcbnew,9.0.0+dfsg-1
; #@! TF.FileFunction,Plated,1,4,PTH
FMAT,2
METRIC
; #@! TA.AperFunction,Plated,PTH,ViaDrill
T1C0.350
; #@! TA.AperFunction,Plated,PTH,ComponentDrill
T2C0.600
; #@! TA.AperFunction,Plated,PTH,ComponentDrill
T3C1.000
%
G90
G05
T1
X157.48Y-96.52
X159.385Y-99.695
X159.385Y-104.14
X165.1Y-99.695
X165.735Y-99.06
X166.37Y-98.425
X167.64Y-101.076
X169.545Y-103.505
X170.815Y-99.06
X171.45Y-106.045
X172.085Y-96.52
X172.085Y-101.6
X173.99Y-102.235
X175.895Y-99.06
X175.895Y-102.87
X176.144Y-104.389
X177.165Y-104.775
X177.8Y-104.14
X178.435Y-99.06
X178.435Y-102.87
X179.07Y-95.885
X179.705Y-102.87
X183.515Y-104.14
X184.15Y-103.365
X185.42Y-100.33
X186.69Y-105.41
X187.325Y-101.6
X187.96Y-102.616
X187.96Y-103.505
X188.976Y-104.648
X188.976Y-105.41
X192.405Y-99.695
X192.405Y-100.965
X192.405Y-104.775
X193.04Y-105.41
X193.675Y-104.775
X197.485Y-100.33
X197.485Y-102.87
X199.39Y-100.33
X199.39Y-102.87
X201.295Y-100.33
X201.295Y-102.87
T3
X153.035Y-99.06
X153.035Y-101.6
X153.035Y-104.14
X153.67Y-93.98
X153.67Y-109.22
X155.575Y-99.06
X155.575Y-101.6
X155.575Y-104.14
X156.21Y-93.98
X156.21Y-109.22
X158.75Y-93.98
X158.75Y-109.22
X161.29Y-93.98
X161.29Y-109.22
X163.83Y-93.98
X163.83Y-109.22
X166.37Y-93.98
X166.37Y-109.22
X168.91Y-93.98
X168.91Y-109.22
X171.45Y-93.98
X171.45Y-109.22
X173.99Y-93.98
X173.99Y-109.22
X176.53Y-93.98
X176.53Y-109.22
X179.07Y-93.98
X179.07Y-109.22
X181.61Y-93.98
X181.61Y-109.22
X184.15Y-93.98
X184.15Y-109.22
X186.69Y-93.98
X186.69Y-109.22
X189.23Y-93.98
X189.23Y-109.22
X191.77Y-93.98
X191.77Y-109.22
X194.31Y-93.98
X194.31Y-109.22
X196.85Y-93.98
X196.85Y-109.22
X199.39Y-93.98
X199.39Y-109.22
X201.93Y-93.98
X201.93Y-109.22
T2
G00X196.345Y-97.28
M15
G01X197.445Y-97.28
M16
G05
G00X196.345Y-105.92
M15
G01X197.445Y-105.92
M16
G05
G00X200.775Y-97.28
M15
G01X201.375Y-97.28
M16
G05
G00X200.775Y-105.92
M15
G01X201.375Y-105.92
M16
G05
M30
