%TF.GenerationSoftware,KiCad,Pcbnew,5.1.7+dfsg1-1*%
%TF.CreationDate,2020-10-11T16:52:52+08:00*%
%TF.ProjectId,gp,67702e6b-6963-4616-945f-706362585858,c*%
%TF.SameCoordinates,Original*%
%TF.FileFunction,Copper,L2,Bot*%
%TF.FilePolarity,Positive*%
%FSLAX46Y46*%
G04 Gerber Fmt 4.6, Leading zero omitted, Abs format (unit mm)*
G04 Created by KiCad (PCBNEW 5.1.7+dfsg1-1) date 2020-10-11 16:52:52*
%MOMM*%
%LPD*%
G01*
G04 APERTURE LIST*
%TA.AperFunction,ComponentPad*%
%ADD10O,1.700000X1.700000*%
%TD*%
%TA.AperFunction,ComponentPad*%
%ADD11R,1.700000X1.700000*%
%TD*%
%TA.AperFunction,SMDPad,CuDef*%
%ADD12R,1.450000X0.600000*%
%TD*%
%TA.AperFunction,SMDPad,CuDef*%
%ADD13R,1.450000X0.300000*%
%TD*%
%TA.AperFunction,ComponentPad*%
%ADD14O,2.100000X1.000000*%
%TD*%
%TA.AperFunction,ComponentPad*%
%ADD15O,1.600000X1.000000*%
%TD*%
%TA.AperFunction,ViaPad*%
%ADD16C,0.700000*%
%TD*%
%TA.AperFunction,Conductor*%
%ADD17C,0.381000*%
%TD*%
%TA.AperFunction,Conductor*%
%ADD18C,0.228600*%
%TD*%
%TA.AperFunction,Conductor*%
%ADD19C,0.304800*%
%TD*%
%TA.AperFunction,Conductor*%
%ADD20C,0.152400*%
%TD*%
%TA.AperFunction,Conductor*%
%ADD21C,0.100000*%
%TD*%
G04 APERTURE END LIST*
D10*
%TO.P,J2,6*%
%TO.N,B3*%
X153035000Y-99060000D03*
%TO.P,J2,5*%
%TO.N,GND*%
X155575000Y-99060000D03*
%TO.P,J2,4*%
%TO.N,SWDIO*%
X153035000Y-101600000D03*
%TO.P,J2,3*%
%TO.N,SWCLK*%
X155575000Y-101600000D03*
%TO.P,J2,2*%
%TO.N,+3V3*%
X153035000Y-104140000D03*
D11*
%TO.P,J2,1*%
%TO.N,RST*%
X155575000Y-104140000D03*
%TD*%
D12*
%TO.P,J1,B1*%
%TO.N,GND*%
X197250000Y-104850000D03*
%TO.P,J1,A9*%
%TO.N,VBUS*%
X197250000Y-104050000D03*
%TO.P,J1,B9*%
X197250000Y-99150000D03*
%TO.P,J1,B12*%
%TO.N,GND*%
X197250000Y-98350000D03*
%TO.P,J1,A1*%
X197250000Y-98350000D03*
%TO.P,J1,A4*%
%TO.N,VBUS*%
X197250000Y-99150000D03*
%TO.P,J1,B4*%
X197250000Y-104050000D03*
%TO.P,J1,A12*%
%TO.N,GND*%
X197250000Y-104850000D03*
D13*
%TO.P,J1,B8*%
%TO.N,Net-(J1-PadB8)*%
X197250000Y-99850000D03*
%TO.P,J1,A5*%
%TO.N,Net-(J1-PadA5)*%
X197250000Y-100350000D03*
%TO.P,J1,B7*%
%TO.N,Net-(J1-PadA7)*%
X197250000Y-100850000D03*
%TO.P,J1,A7*%
X197250000Y-101850000D03*
%TO.P,J1,B6*%
%TO.N,Net-(J1-PadA6)*%
X197250000Y-102350000D03*
%TO.P,J1,A8*%
%TO.N,Net-(J1-PadA8)*%
X197250000Y-102850000D03*
%TO.P,J1,B5*%
%TO.N,Net-(J1-PadB5)*%
X197250000Y-103350000D03*
%TO.P,J1,A6*%
%TO.N,Net-(J1-PadA6)*%
X197250000Y-101350000D03*
D14*
%TO.P,J1,S1*%
%TO.N,GND*%
X198165000Y-105920000D03*
X198165000Y-97280000D03*
D15*
X202345000Y-97280000D03*
X202345000Y-105920000D03*
%TD*%
D10*
%TO.P,J4,20*%
%TO.N,B12*%
X201930000Y-93980000D03*
%TO.P,J4,19*%
%TO.N,B13*%
X199390000Y-93980000D03*
%TO.P,J4,18*%
%TO.N,B14*%
X196850000Y-93980000D03*
%TO.P,J4,17*%
%TO.N,B15*%
X194310000Y-93980000D03*
%TO.P,J4,16*%
%TO.N,A8*%
X191770000Y-93980000D03*
%TO.P,J4,15*%
%TO.N,A9*%
X189230000Y-93980000D03*
%TO.P,J4,14*%
%TO.N,A10*%
X186690000Y-93980000D03*
%TO.P,J4,13*%
%TO.N,A11*%
X184150000Y-93980000D03*
%TO.P,J4,12*%
%TO.N,A12*%
X181610000Y-93980000D03*
%TO.P,J4,11*%
%TO.N,A15*%
X179070000Y-93980000D03*
%TO.P,J4,10*%
%TO.N,B3*%
X176530000Y-93980000D03*
%TO.P,J4,9*%
%TO.N,B4*%
X173990000Y-93980000D03*
%TO.P,J4,8*%
%TO.N,B5*%
X171450000Y-93980000D03*
%TO.P,J4,7*%
%TO.N,B6*%
X168910000Y-93980000D03*
%TO.P,J4,6*%
%TO.N,B7*%
X166370000Y-93980000D03*
%TO.P,J4,5*%
%TO.N,B8*%
X163830000Y-93980000D03*
%TO.P,J4,4*%
%TO.N,B9*%
X161290000Y-93980000D03*
%TO.P,J4,3*%
%TO.N,BO0*%
X158750000Y-93980000D03*
%TO.P,J4,2*%
%TO.N,RST*%
X156210000Y-93980000D03*
D11*
%TO.P,J4,1*%
%TO.N,GND*%
X153670000Y-93980000D03*
%TD*%
D10*
%TO.P,J3,20*%
%TO.N,GND*%
X201930000Y-109220000D03*
%TO.P,J3,19*%
%TO.N,+5V*%
X199390000Y-109220000D03*
%TO.P,J3,18*%
%TO.N,+3V3*%
X196850000Y-109220000D03*
%TO.P,J3,17*%
%TO.N,B11*%
X194310000Y-109220000D03*
%TO.P,J3,16*%
%TO.N,B10*%
X191770000Y-109220000D03*
%TO.P,J3,15*%
%TO.N,B2*%
X189230000Y-109220000D03*
%TO.P,J3,14*%
%TO.N,B1*%
X186690000Y-109220000D03*
%TO.P,J3,13*%
%TO.N,B0*%
X184150000Y-109220000D03*
%TO.P,J3,12*%
%TO.N,A7*%
X181610000Y-109220000D03*
%TO.P,J3,11*%
%TO.N,A6*%
X179070000Y-109220000D03*
%TO.P,J3,10*%
%TO.N,A5*%
X176530000Y-109220000D03*
%TO.P,J3,9*%
%TO.N,A4*%
X173990000Y-109220000D03*
%TO.P,J3,8*%
%TO.N,A3*%
X171450000Y-109220000D03*
%TO.P,J3,7*%
%TO.N,A2*%
X168910000Y-109220000D03*
%TO.P,J3,6*%
%TO.N,A1*%
X166370000Y-109220000D03*
%TO.P,J3,5*%
%TO.N,A0*%
X163830000Y-109220000D03*
%TO.P,J3,4*%
%TO.N,C15*%
X161290000Y-109220000D03*
%TO.P,J3,3*%
%TO.N,C14*%
X158750000Y-109220000D03*
%TO.P,J3,2*%
%TO.N,C13*%
X156210000Y-109220000D03*
D11*
%TO.P,J3,1*%
%TO.N,GND*%
X153670000Y-109220000D03*
%TD*%
D16*
%TO.N,GND*%
X193675000Y-104775000D03*
X191135000Y-104775000D03*
X191135000Y-106045000D03*
X179070000Y-100330000D03*
X181610000Y-102870000D03*
X181610000Y-100330000D03*
X179070000Y-102870000D03*
X170180000Y-103505000D03*
X170180000Y-98425000D03*
X174625000Y-106045000D03*
X173990000Y-99060000D03*
X193675000Y-106045000D03*
X192405000Y-104775000D03*
X163195000Y-102870000D03*
X158750000Y-104775000D03*
X180340000Y-106680000D03*
%TO.N,VBUS*%
X194310000Y-99060000D03*
X195580000Y-99060000D03*
%TO.N,+3V3*%
X180340000Y-101600000D03*
X192405000Y-102235000D03*
X201930000Y-102870000D03*
%TO.N,C13*%
X177800000Y-102870000D03*
X188976000Y-102616000D03*
%TO.N,B3*%
X175895000Y-95250000D03*
%TO.N,A12*%
X201930000Y-101600000D03*
X183515000Y-95885000D03*
%TO.N,A11*%
X201930000Y-100330000D03*
X184785000Y-95885000D03*
%TO.N,A5*%
X181610000Y-104140000D03*
%TO.N,A4*%
X180340000Y-104140000D03*
%TO.N,BO0*%
X175260000Y-97790000D03*
X161925000Y-96520000D03*
%TO.N,SWCLK*%
X179070000Y-99060000D03*
%TO.N,SWDIO*%
X181610000Y-99060000D03*
%TO.N,RST*%
X173355000Y-106045000D03*
X163195000Y-106680000D03*
X160655000Y-106680000D03*
X160655000Y-99060000D03*
%TO.N,Net-(J1-PadA5)*%
X198755000Y-99695000D03*
%TO.N,Net-(J1-PadB5)*%
X198755000Y-103505000D03*
%TO.N,Net-(J1-PadA7)*%
X198755000Y-100965000D03*
%TO.N,Net-(J1-PadA6)*%
X198755000Y-102235000D03*
%TD*%
D17*
%TO.N,VBUS*%
X195580000Y-103486000D02*
X195580000Y-100330000D01*
X196144000Y-104050000D02*
X195580000Y-103486000D01*
X197250000Y-104050000D02*
X196144000Y-104050000D01*
X195670000Y-99150000D02*
X195580000Y-99060000D01*
X197250000Y-99150000D02*
X195670000Y-99150000D01*
X195580000Y-100330000D02*
X194310000Y-99060000D01*
X194310000Y-99060000D02*
X195580000Y-99060000D01*
D18*
%TO.N,+3V3*%
X196850000Y-108869291D02*
X196850000Y-109220000D01*
X201930000Y-103789291D02*
X196850000Y-108869291D01*
X201930000Y-102870000D02*
X201930000Y-103789291D01*
D19*
X191770000Y-101600000D02*
X180340000Y-101600000D01*
X191770000Y-101600000D02*
X192405000Y-102235000D01*
X152400000Y-104775000D02*
X153035000Y-104140000D01*
X153080000Y-111170000D02*
X152400000Y-110490000D01*
X194900000Y-111170000D02*
X153080000Y-111170000D01*
X152400000Y-110490000D02*
X152400000Y-104775000D01*
X196850000Y-109220000D02*
X194900000Y-111170000D01*
X194329801Y-104159801D02*
X194329801Y-104179801D01*
X192405000Y-102235000D02*
X194329801Y-104159801D01*
X194329801Y-104179801D02*
X195640000Y-105490000D01*
X195640000Y-108010000D02*
X196850000Y-109220000D01*
X195640000Y-105490000D02*
X195640000Y-108010000D01*
D18*
%TO.N,C13*%
X181906017Y-103486701D02*
X178416701Y-103486701D01*
X182776718Y-102616000D02*
X181906017Y-103486701D01*
X188976000Y-102616000D02*
X182776718Y-102616000D01*
X178416701Y-103486701D02*
X177800000Y-102870000D01*
X177292000Y-103378000D02*
X177800000Y-102870000D01*
X177292000Y-104798000D02*
X177292000Y-103378000D01*
X174793299Y-107296701D02*
X175670000Y-106420000D01*
X158133299Y-107296701D02*
X174793299Y-107296701D01*
D19*
X177292000Y-104798000D02*
X175670000Y-106420000D01*
D18*
X158133299Y-107296701D02*
X156210000Y-109220000D01*
%TO.N,B3*%
X175895000Y-95250000D02*
X175525000Y-95620000D01*
X156475000Y-95620000D02*
X153035000Y-99060000D01*
X175525000Y-95620000D02*
X156475000Y-95620000D01*
%TO.N,A12*%
X202692000Y-99568002D02*
X198912990Y-95788991D01*
X202692000Y-100838000D02*
X202692000Y-99568002D01*
X201930000Y-101600000D02*
X202692000Y-100838000D01*
X198912990Y-95788991D02*
X185738991Y-95788991D01*
X185738991Y-95788991D02*
X185140000Y-95190000D01*
X184210000Y-95190000D02*
X183515000Y-95885000D01*
X185140000Y-95190000D02*
X184210000Y-95190000D01*
%TO.N,A11*%
X201930000Y-100330000D02*
X201930000Y-99344830D01*
X201930000Y-99344830D02*
X198755171Y-96170001D01*
X185070001Y-96170001D02*
X184785000Y-95885000D01*
X198755171Y-96170001D02*
X185070001Y-96170001D01*
%TO.N,A5*%
X176530000Y-109220000D02*
X181610000Y-104140000D01*
%TO.N,A4*%
X179070000Y-104140000D02*
X180340000Y-104140000D01*
X173990000Y-109220000D02*
X179070000Y-104140000D01*
%TO.N,BO0*%
X173990000Y-96520000D02*
X175260000Y-97790000D01*
X161925000Y-96520000D02*
X173990000Y-96520000D01*
%TO.N,SWCLK*%
X179070000Y-99060000D02*
X176960000Y-99060000D01*
X176960000Y-99060000D02*
X175280000Y-100740000D01*
X175280000Y-100740000D02*
X164880000Y-100740000D01*
X164880000Y-100740000D02*
X162110000Y-97970000D01*
X162110000Y-97970000D02*
X160000000Y-97970000D01*
X156370000Y-101600000D02*
X155575000Y-101600000D01*
X160000000Y-97970000D02*
X156370000Y-101600000D01*
%TO.N,SWDIO*%
X153035000Y-101600000D02*
X154151701Y-100483299D01*
X154151701Y-100483299D02*
X156947871Y-100483299D01*
X159902179Y-97528991D02*
X162327821Y-97528991D01*
X162327821Y-97528991D02*
X165157819Y-100358989D01*
X165157819Y-100358989D02*
X175122181Y-100358989D01*
X175122181Y-100358989D02*
X177037871Y-98443299D01*
X177037871Y-98443299D02*
X180993299Y-98443299D01*
X156947871Y-100483299D02*
X159902179Y-97528991D01*
X180993299Y-98443299D02*
X181610000Y-99060000D01*
%TO.N,RST*%
X163830000Y-106045000D02*
X163195000Y-106680000D01*
X173355000Y-106045000D02*
X163830000Y-106045000D01*
X163195000Y-106680000D02*
X160655000Y-106680000D01*
X160655000Y-106680000D02*
X160655000Y-99060000D01*
%TO.N,Net-(J1-PadA5)*%
X198100000Y-100350000D02*
X198755000Y-99695000D01*
X197250000Y-100350000D02*
X198100000Y-100350000D01*
%TO.N,Net-(J1-PadB5)*%
X198600000Y-103350000D02*
X198755000Y-103505000D01*
X197250000Y-103350000D02*
X198600000Y-103350000D01*
%TO.N,Net-(J1-PadA7)*%
X198203600Y-100850000D02*
X197250000Y-100850000D01*
X198241701Y-100888101D02*
X198203600Y-100850000D01*
X198241701Y-101811899D02*
X198241701Y-100888101D01*
X198203600Y-101850000D02*
X198241701Y-101811899D01*
X197250000Y-101850000D02*
X198203600Y-101850000D01*
X198640000Y-100850000D02*
X198755000Y-100965000D01*
X198203600Y-100850000D02*
X198640000Y-100850000D01*
%TO.N,Net-(J1-PadA6)*%
X196296400Y-102350000D02*
X197250000Y-102350000D01*
X196258299Y-102311899D02*
X196296400Y-102350000D01*
X196258299Y-101388101D02*
X196258299Y-102311899D01*
X196296400Y-101350000D02*
X196258299Y-101388101D01*
X197250000Y-101350000D02*
X196296400Y-101350000D01*
X198640000Y-102350000D02*
X198755000Y-102235000D01*
X197250000Y-102350000D02*
X198640000Y-102350000D01*
%TD*%
D20*
%TO.N,GND*%
X202762186Y-91714151D02*
X202951854Y-91771415D01*
X203126795Y-91864433D01*
X203280334Y-91989656D01*
X203406626Y-92142317D01*
X203500861Y-92316602D01*
X203559449Y-92505866D01*
X203581400Y-92714721D01*
X203581401Y-110477583D01*
X203560849Y-110687186D01*
X203503584Y-110876856D01*
X203410566Y-111051797D01*
X203285344Y-111205334D01*
X203132683Y-111331626D01*
X202958398Y-111425861D01*
X202769134Y-111484449D01*
X202560279Y-111506400D01*
X195078875Y-111506400D01*
X195112696Y-111488322D01*
X195170711Y-111440711D01*
X195182646Y-111426168D01*
X196405475Y-110203340D01*
X196535384Y-110257150D01*
X196743767Y-110298600D01*
X196956233Y-110298600D01*
X197164616Y-110257150D01*
X197360909Y-110175843D01*
X197537567Y-110057803D01*
X197687803Y-109907567D01*
X197805843Y-109730909D01*
X197887150Y-109534616D01*
X197928600Y-109326233D01*
X197928600Y-109113767D01*
X198311400Y-109113767D01*
X198311400Y-109326233D01*
X198352850Y-109534616D01*
X198434157Y-109730909D01*
X198552197Y-109907567D01*
X198702433Y-110057803D01*
X198879091Y-110175843D01*
X199075384Y-110257150D01*
X199283767Y-110298600D01*
X199496233Y-110298600D01*
X199704616Y-110257150D01*
X199900909Y-110175843D01*
X200077567Y-110057803D01*
X200227803Y-109907567D01*
X200345843Y-109730909D01*
X200427150Y-109534616D01*
X200441281Y-109463571D01*
X200879258Y-109463571D01*
X200946966Y-109663880D01*
X201052451Y-109847131D01*
X201191660Y-110006282D01*
X201359243Y-110135217D01*
X201548760Y-110228981D01*
X201686430Y-110270739D01*
X201853800Y-110238604D01*
X201853800Y-109296200D01*
X202006200Y-109296200D01*
X202006200Y-110238604D01*
X202173570Y-110270739D01*
X202311240Y-110228981D01*
X202500757Y-110135217D01*
X202668340Y-110006282D01*
X202807549Y-109847131D01*
X202913034Y-109663880D01*
X202980742Y-109463571D01*
X202948759Y-109296200D01*
X202006200Y-109296200D01*
X201853800Y-109296200D01*
X200911241Y-109296200D01*
X200879258Y-109463571D01*
X200441281Y-109463571D01*
X200468600Y-109326233D01*
X200468600Y-109113767D01*
X200441282Y-108976429D01*
X200879258Y-108976429D01*
X200911241Y-109143800D01*
X201853800Y-109143800D01*
X201853800Y-108201396D01*
X202006200Y-108201396D01*
X202006200Y-109143800D01*
X202948759Y-109143800D01*
X202980742Y-108976429D01*
X202913034Y-108776120D01*
X202807549Y-108592869D01*
X202668340Y-108433718D01*
X202500757Y-108304783D01*
X202311240Y-108211019D01*
X202173570Y-108169261D01*
X202006200Y-108201396D01*
X201853800Y-108201396D01*
X201686430Y-108169261D01*
X201548760Y-108211019D01*
X201359243Y-108304783D01*
X201191660Y-108433718D01*
X201052451Y-108592869D01*
X200946966Y-108776120D01*
X200879258Y-108976429D01*
X200441282Y-108976429D01*
X200427150Y-108905384D01*
X200345843Y-108709091D01*
X200227803Y-108532433D01*
X200077567Y-108382197D01*
X199900909Y-108264157D01*
X199704616Y-108182850D01*
X199496233Y-108141400D01*
X199283767Y-108141400D01*
X199075384Y-108182850D01*
X198879091Y-108264157D01*
X198702433Y-108382197D01*
X198552197Y-108532433D01*
X198434157Y-108709091D01*
X198352850Y-108905384D01*
X198311400Y-109113767D01*
X197928600Y-109113767D01*
X197887150Y-108905384D01*
X197805843Y-108709091D01*
X197687803Y-108532433D01*
X197679797Y-108524427D01*
X200095609Y-106108615D01*
X201341237Y-106108615D01*
X201342700Y-106128423D01*
X201396856Y-106261430D01*
X201475920Y-106381316D01*
X201576853Y-106483474D01*
X201695777Y-106563978D01*
X201828121Y-106619734D01*
X201968800Y-106648600D01*
X202268800Y-106648600D01*
X202268800Y-105996200D01*
X202421200Y-105996200D01*
X202421200Y-106648600D01*
X202721200Y-106648600D01*
X202861879Y-106619734D01*
X202994223Y-106563978D01*
X203113147Y-106483474D01*
X203214080Y-106381316D01*
X203293144Y-106261430D01*
X203347300Y-106128423D01*
X203348763Y-106108615D01*
X203312112Y-105996200D01*
X202421200Y-105996200D01*
X202268800Y-105996200D01*
X201377888Y-105996200D01*
X201341237Y-106108615D01*
X200095609Y-106108615D01*
X200472839Y-105731385D01*
X201341237Y-105731385D01*
X201377888Y-105843800D01*
X202268800Y-105843800D01*
X202268800Y-105191400D01*
X202421200Y-105191400D01*
X202421200Y-105843800D01*
X203312112Y-105843800D01*
X203348763Y-105731385D01*
X203347300Y-105711577D01*
X203293144Y-105578570D01*
X203214080Y-105458684D01*
X203113147Y-105356526D01*
X202994223Y-105276022D01*
X202861879Y-105220266D01*
X202721200Y-105191400D01*
X202421200Y-105191400D01*
X202268800Y-105191400D01*
X201968800Y-105191400D01*
X201828121Y-105220266D01*
X201695777Y-105276022D01*
X201576853Y-105356526D01*
X201475920Y-105458684D01*
X201396856Y-105578570D01*
X201342700Y-105711577D01*
X201341237Y-105731385D01*
X200472839Y-105731385D01*
X202160557Y-104043668D01*
X202173640Y-104032931D01*
X202216490Y-103980718D01*
X202248331Y-103921148D01*
X202267938Y-103856511D01*
X202272900Y-103806134D01*
X202274559Y-103789291D01*
X202272900Y-103772448D01*
X202272900Y-103336758D01*
X202298836Y-103319428D01*
X202379428Y-103238836D01*
X202442749Y-103144070D01*
X202486365Y-103038772D01*
X202508600Y-102926987D01*
X202508600Y-102813013D01*
X202486365Y-102701228D01*
X202442749Y-102595930D01*
X202379428Y-102501164D01*
X202298836Y-102420572D01*
X202204070Y-102357251D01*
X202098772Y-102313635D01*
X201986987Y-102291400D01*
X201873013Y-102291400D01*
X201761228Y-102313635D01*
X201655930Y-102357251D01*
X201561164Y-102420572D01*
X201480572Y-102501164D01*
X201417251Y-102595930D01*
X201373635Y-102701228D01*
X201351400Y-102813013D01*
X201351400Y-102926987D01*
X201373635Y-103038772D01*
X201417251Y-103144070D01*
X201480572Y-103238836D01*
X201561164Y-103319428D01*
X201587101Y-103336758D01*
X201587101Y-103647256D01*
X199390559Y-105843798D01*
X199382113Y-105843798D01*
X199418763Y-105731385D01*
X199417300Y-105711577D01*
X199363144Y-105578570D01*
X199284080Y-105458684D01*
X199183147Y-105356526D01*
X199064223Y-105276022D01*
X198931879Y-105220266D01*
X198791200Y-105191400D01*
X198200628Y-105191400D01*
X198204706Y-105150000D01*
X198203600Y-104983350D01*
X198146450Y-104926200D01*
X197326200Y-104926200D01*
X197326200Y-104946200D01*
X197173800Y-104946200D01*
X197173800Y-104926200D01*
X196353550Y-104926200D01*
X196296400Y-104983350D01*
X196295294Y-105150000D01*
X196299708Y-105194813D01*
X196312779Y-105237905D01*
X196334006Y-105277618D01*
X196362573Y-105312427D01*
X196397382Y-105340994D01*
X196437095Y-105362221D01*
X196480187Y-105375292D01*
X196525000Y-105379706D01*
X197116650Y-105378600D01*
X197173798Y-105321452D01*
X197173798Y-105338286D01*
X197146853Y-105356526D01*
X197045920Y-105458684D01*
X196966856Y-105578570D01*
X196912700Y-105711577D01*
X196911237Y-105731385D01*
X196947888Y-105843800D01*
X198088800Y-105843800D01*
X198088800Y-105823800D01*
X198241200Y-105823800D01*
X198241200Y-105843800D01*
X198261200Y-105843800D01*
X198261200Y-105996200D01*
X198241200Y-105996200D01*
X198241200Y-106648600D01*
X198585758Y-106648600D01*
X197070274Y-108164084D01*
X196956233Y-108141400D01*
X196743767Y-108141400D01*
X196535384Y-108182850D01*
X196405475Y-108236660D01*
X196021000Y-107852186D01*
X196021000Y-106108615D01*
X196911237Y-106108615D01*
X196912700Y-106128423D01*
X196966856Y-106261430D01*
X197045920Y-106381316D01*
X197146853Y-106483474D01*
X197265777Y-106563978D01*
X197398121Y-106619734D01*
X197538800Y-106648600D01*
X198088800Y-106648600D01*
X198088800Y-105996200D01*
X196947888Y-105996200D01*
X196911237Y-106108615D01*
X196021000Y-106108615D01*
X196021000Y-105508709D01*
X196022843Y-105489999D01*
X196021000Y-105471287D01*
X196015487Y-105415311D01*
X195993701Y-105343492D01*
X195958323Y-105277305D01*
X195958322Y-105277303D01*
X195934250Y-105247972D01*
X195910711Y-105219289D01*
X195896175Y-105207360D01*
X194662138Y-103973324D01*
X194648123Y-103947104D01*
X194612440Y-103903625D01*
X194600512Y-103889090D01*
X194585976Y-103877161D01*
X192983600Y-102274786D01*
X192983600Y-102178013D01*
X192961365Y-102066228D01*
X192917749Y-101960930D01*
X192854428Y-101866164D01*
X192773836Y-101785572D01*
X192679070Y-101722251D01*
X192573772Y-101678635D01*
X192461987Y-101656400D01*
X192365215Y-101656400D01*
X192052645Y-101343831D01*
X192040711Y-101329289D01*
X191982696Y-101281678D01*
X191916508Y-101246299D01*
X191844689Y-101224513D01*
X191788713Y-101219000D01*
X191788710Y-101219000D01*
X191770000Y-101217157D01*
X191751290Y-101219000D01*
X180777264Y-101219000D01*
X180708836Y-101150572D01*
X180614070Y-101087251D01*
X180508772Y-101043635D01*
X180396987Y-101021400D01*
X180283013Y-101021400D01*
X180171228Y-101043635D01*
X180065930Y-101087251D01*
X179971164Y-101150572D01*
X179890572Y-101231164D01*
X179827251Y-101325930D01*
X179783635Y-101431228D01*
X179761400Y-101543013D01*
X179761400Y-101656987D01*
X179783635Y-101768772D01*
X179827251Y-101874070D01*
X179890572Y-101968836D01*
X179971164Y-102049428D01*
X180065930Y-102112749D01*
X180171228Y-102156365D01*
X180283013Y-102178600D01*
X180396987Y-102178600D01*
X180508772Y-102156365D01*
X180614070Y-102112749D01*
X180708836Y-102049428D01*
X180777264Y-101981000D01*
X191612186Y-101981000D01*
X191826400Y-102195215D01*
X191826400Y-102291987D01*
X191848635Y-102403772D01*
X191892251Y-102509070D01*
X191955572Y-102603836D01*
X192036164Y-102684428D01*
X192130930Y-102747749D01*
X192236228Y-102791365D01*
X192348013Y-102813600D01*
X192444786Y-102813600D01*
X193997466Y-104366281D01*
X194011479Y-104392497D01*
X194059090Y-104450512D01*
X194073632Y-104462446D01*
X195259000Y-105647815D01*
X195259001Y-107991280D01*
X195257157Y-108010000D01*
X195264514Y-108084688D01*
X195286299Y-108156507D01*
X195321678Y-108222696D01*
X195351010Y-108258437D01*
X195369290Y-108280711D01*
X195383827Y-108292641D01*
X195866660Y-108775475D01*
X195812850Y-108905384D01*
X195771400Y-109113767D01*
X195771400Y-109326233D01*
X195812850Y-109534616D01*
X195866660Y-109664525D01*
X194742186Y-110789000D01*
X153237815Y-110789000D01*
X152781000Y-110332186D01*
X152781000Y-110295865D01*
X152820000Y-110299706D01*
X153536650Y-110298600D01*
X153593800Y-110241450D01*
X153593800Y-109296200D01*
X153746200Y-109296200D01*
X153746200Y-110241450D01*
X153803350Y-110298600D01*
X154520000Y-110299706D01*
X154564813Y-110295292D01*
X154607905Y-110282221D01*
X154647618Y-110260994D01*
X154682427Y-110232427D01*
X154710994Y-110197618D01*
X154732221Y-110157905D01*
X154745292Y-110114813D01*
X154749706Y-110070000D01*
X154748600Y-109353350D01*
X154691450Y-109296200D01*
X153746200Y-109296200D01*
X153593800Y-109296200D01*
X153573800Y-109296200D01*
X153573800Y-109143800D01*
X153593800Y-109143800D01*
X153593800Y-108198550D01*
X153746200Y-108198550D01*
X153746200Y-109143800D01*
X154691450Y-109143800D01*
X154721483Y-109113767D01*
X155131400Y-109113767D01*
X155131400Y-109326233D01*
X155172850Y-109534616D01*
X155254157Y-109730909D01*
X155372197Y-109907567D01*
X155522433Y-110057803D01*
X155699091Y-110175843D01*
X155895384Y-110257150D01*
X156103767Y-110298600D01*
X156316233Y-110298600D01*
X156524616Y-110257150D01*
X156720909Y-110175843D01*
X156897567Y-110057803D01*
X157047803Y-109907567D01*
X157165843Y-109730909D01*
X157247150Y-109534616D01*
X157288600Y-109326233D01*
X157288600Y-109113767D01*
X157671400Y-109113767D01*
X157671400Y-109326233D01*
X157712850Y-109534616D01*
X157794157Y-109730909D01*
X157912197Y-109907567D01*
X158062433Y-110057803D01*
X158239091Y-110175843D01*
X158435384Y-110257150D01*
X158643767Y-110298600D01*
X158856233Y-110298600D01*
X159064616Y-110257150D01*
X159260909Y-110175843D01*
X159437567Y-110057803D01*
X159587803Y-109907567D01*
X159705843Y-109730909D01*
X159787150Y-109534616D01*
X159828600Y-109326233D01*
X159828600Y-109113767D01*
X160211400Y-109113767D01*
X160211400Y-109326233D01*
X160252850Y-109534616D01*
X160334157Y-109730909D01*
X160452197Y-109907567D01*
X160602433Y-110057803D01*
X160779091Y-110175843D01*
X160975384Y-110257150D01*
X161183767Y-110298600D01*
X161396233Y-110298600D01*
X161604616Y-110257150D01*
X161800909Y-110175843D01*
X161977567Y-110057803D01*
X162127803Y-109907567D01*
X162245843Y-109730909D01*
X162327150Y-109534616D01*
X162368600Y-109326233D01*
X162368600Y-109113767D01*
X162751400Y-109113767D01*
X162751400Y-109326233D01*
X162792850Y-109534616D01*
X162874157Y-109730909D01*
X162992197Y-109907567D01*
X163142433Y-110057803D01*
X163319091Y-110175843D01*
X163515384Y-110257150D01*
X163723767Y-110298600D01*
X163936233Y-110298600D01*
X164144616Y-110257150D01*
X164340909Y-110175843D01*
X164517567Y-110057803D01*
X164667803Y-109907567D01*
X164785843Y-109730909D01*
X164867150Y-109534616D01*
X164908600Y-109326233D01*
X164908600Y-109113767D01*
X165291400Y-109113767D01*
X165291400Y-109326233D01*
X165332850Y-109534616D01*
X165414157Y-109730909D01*
X165532197Y-109907567D01*
X165682433Y-110057803D01*
X165859091Y-110175843D01*
X166055384Y-110257150D01*
X166263767Y-110298600D01*
X166476233Y-110298600D01*
X166684616Y-110257150D01*
X166880909Y-110175843D01*
X167057567Y-110057803D01*
X167207803Y-109907567D01*
X167325843Y-109730909D01*
X167407150Y-109534616D01*
X167448600Y-109326233D01*
X167448600Y-109113767D01*
X167831400Y-109113767D01*
X167831400Y-109326233D01*
X167872850Y-109534616D01*
X167954157Y-109730909D01*
X168072197Y-109907567D01*
X168222433Y-110057803D01*
X168399091Y-110175843D01*
X168595384Y-110257150D01*
X168803767Y-110298600D01*
X169016233Y-110298600D01*
X169224616Y-110257150D01*
X169420909Y-110175843D01*
X169597567Y-110057803D01*
X169747803Y-109907567D01*
X169865843Y-109730909D01*
X169947150Y-109534616D01*
X169988600Y-109326233D01*
X169988600Y-109113767D01*
X170371400Y-109113767D01*
X170371400Y-109326233D01*
X170412850Y-109534616D01*
X170494157Y-109730909D01*
X170612197Y-109907567D01*
X170762433Y-110057803D01*
X170939091Y-110175843D01*
X171135384Y-110257150D01*
X171343767Y-110298600D01*
X171556233Y-110298600D01*
X171764616Y-110257150D01*
X171960909Y-110175843D01*
X172137567Y-110057803D01*
X172287803Y-109907567D01*
X172405843Y-109730909D01*
X172487150Y-109534616D01*
X172528600Y-109326233D01*
X172528600Y-109113767D01*
X172487150Y-108905384D01*
X172405843Y-108709091D01*
X172287803Y-108532433D01*
X172137567Y-108382197D01*
X171960909Y-108264157D01*
X171764616Y-108182850D01*
X171556233Y-108141400D01*
X171343767Y-108141400D01*
X171135384Y-108182850D01*
X170939091Y-108264157D01*
X170762433Y-108382197D01*
X170612197Y-108532433D01*
X170494157Y-108709091D01*
X170412850Y-108905384D01*
X170371400Y-109113767D01*
X169988600Y-109113767D01*
X169947150Y-108905384D01*
X169865843Y-108709091D01*
X169747803Y-108532433D01*
X169597567Y-108382197D01*
X169420909Y-108264157D01*
X169224616Y-108182850D01*
X169016233Y-108141400D01*
X168803767Y-108141400D01*
X168595384Y-108182850D01*
X168399091Y-108264157D01*
X168222433Y-108382197D01*
X168072197Y-108532433D01*
X167954157Y-108709091D01*
X167872850Y-108905384D01*
X167831400Y-109113767D01*
X167448600Y-109113767D01*
X167407150Y-108905384D01*
X167325843Y-108709091D01*
X167207803Y-108532433D01*
X167057567Y-108382197D01*
X166880909Y-108264157D01*
X166684616Y-108182850D01*
X166476233Y-108141400D01*
X166263767Y-108141400D01*
X166055384Y-108182850D01*
X165859091Y-108264157D01*
X165682433Y-108382197D01*
X165532197Y-108532433D01*
X165414157Y-108709091D01*
X165332850Y-108905384D01*
X165291400Y-109113767D01*
X164908600Y-109113767D01*
X164867150Y-108905384D01*
X164785843Y-108709091D01*
X164667803Y-108532433D01*
X164517567Y-108382197D01*
X164340909Y-108264157D01*
X164144616Y-108182850D01*
X163936233Y-108141400D01*
X163723767Y-108141400D01*
X163515384Y-108182850D01*
X163319091Y-108264157D01*
X163142433Y-108382197D01*
X162992197Y-108532433D01*
X162874157Y-108709091D01*
X162792850Y-108905384D01*
X162751400Y-109113767D01*
X162368600Y-109113767D01*
X162327150Y-108905384D01*
X162245843Y-108709091D01*
X162127803Y-108532433D01*
X161977567Y-108382197D01*
X161800909Y-108264157D01*
X161604616Y-108182850D01*
X161396233Y-108141400D01*
X161183767Y-108141400D01*
X160975384Y-108182850D01*
X160779091Y-108264157D01*
X160602433Y-108382197D01*
X160452197Y-108532433D01*
X160334157Y-108709091D01*
X160252850Y-108905384D01*
X160211400Y-109113767D01*
X159828600Y-109113767D01*
X159787150Y-108905384D01*
X159705843Y-108709091D01*
X159587803Y-108532433D01*
X159437567Y-108382197D01*
X159260909Y-108264157D01*
X159064616Y-108182850D01*
X158856233Y-108141400D01*
X158643767Y-108141400D01*
X158435384Y-108182850D01*
X158239091Y-108264157D01*
X158062433Y-108382197D01*
X157912197Y-108532433D01*
X157794157Y-108709091D01*
X157712850Y-108905384D01*
X157671400Y-109113767D01*
X157288600Y-109113767D01*
X157247150Y-108905384D01*
X157177559Y-108737375D01*
X158275333Y-107639601D01*
X174776464Y-107639601D01*
X174793299Y-107641259D01*
X174810134Y-107639601D01*
X174810142Y-107639601D01*
X174860519Y-107634639D01*
X174925156Y-107615032D01*
X174984726Y-107583191D01*
X175036939Y-107540341D01*
X175047680Y-107527253D01*
X175794582Y-106780351D01*
X175816507Y-106773701D01*
X175882696Y-106738322D01*
X175926175Y-106702639D01*
X177574639Y-105054176D01*
X177610322Y-105010697D01*
X177645700Y-104944508D01*
X177667486Y-104872690D01*
X177674842Y-104798001D01*
X177667486Y-104723312D01*
X177645700Y-104651493D01*
X177634900Y-104631287D01*
X177634900Y-103520033D01*
X177712419Y-103442515D01*
X177743013Y-103448600D01*
X177856987Y-103448600D01*
X177887581Y-103442515D01*
X178162324Y-103717258D01*
X178173061Y-103730341D01*
X178208440Y-103759376D01*
X178225274Y-103773191D01*
X178284844Y-103805032D01*
X178349481Y-103824639D01*
X178416701Y-103831260D01*
X178433544Y-103829601D01*
X178923303Y-103829601D01*
X178878573Y-103853510D01*
X178826360Y-103896360D01*
X178815623Y-103909443D01*
X174472625Y-108252442D01*
X174304616Y-108182850D01*
X174096233Y-108141400D01*
X173883767Y-108141400D01*
X173675384Y-108182850D01*
X173479091Y-108264157D01*
X173302433Y-108382197D01*
X173152197Y-108532433D01*
X173034157Y-108709091D01*
X172952850Y-108905384D01*
X172911400Y-109113767D01*
X172911400Y-109326233D01*
X172952850Y-109534616D01*
X173034157Y-109730909D01*
X173152197Y-109907567D01*
X173302433Y-110057803D01*
X173479091Y-110175843D01*
X173675384Y-110257150D01*
X173883767Y-110298600D01*
X174096233Y-110298600D01*
X174304616Y-110257150D01*
X174500909Y-110175843D01*
X174677567Y-110057803D01*
X174827803Y-109907567D01*
X174945843Y-109730909D01*
X175027150Y-109534616D01*
X175068600Y-109326233D01*
X175068600Y-109113767D01*
X175027150Y-108905384D01*
X174957558Y-108737375D01*
X179212034Y-104482900D01*
X179873242Y-104482900D01*
X179890572Y-104508836D01*
X179971164Y-104589428D01*
X180065930Y-104652749D01*
X180171228Y-104696365D01*
X180283013Y-104718600D01*
X180396987Y-104718600D01*
X180508772Y-104696365D01*
X180611078Y-104653988D01*
X177012625Y-108252442D01*
X176844616Y-108182850D01*
X176636233Y-108141400D01*
X176423767Y-108141400D01*
X176215384Y-108182850D01*
X176019091Y-108264157D01*
X175842433Y-108382197D01*
X175692197Y-108532433D01*
X175574157Y-108709091D01*
X175492850Y-108905384D01*
X175451400Y-109113767D01*
X175451400Y-109326233D01*
X175492850Y-109534616D01*
X175574157Y-109730909D01*
X175692197Y-109907567D01*
X175842433Y-110057803D01*
X176019091Y-110175843D01*
X176215384Y-110257150D01*
X176423767Y-110298600D01*
X176636233Y-110298600D01*
X176844616Y-110257150D01*
X177040909Y-110175843D01*
X177217567Y-110057803D01*
X177367803Y-109907567D01*
X177485843Y-109730909D01*
X177567150Y-109534616D01*
X177608600Y-109326233D01*
X177608600Y-109113767D01*
X177991400Y-109113767D01*
X177991400Y-109326233D01*
X178032850Y-109534616D01*
X178114157Y-109730909D01*
X178232197Y-109907567D01*
X178382433Y-110057803D01*
X178559091Y-110175843D01*
X178755384Y-110257150D01*
X178963767Y-110298600D01*
X179176233Y-110298600D01*
X179384616Y-110257150D01*
X179580909Y-110175843D01*
X179757567Y-110057803D01*
X179907803Y-109907567D01*
X180025843Y-109730909D01*
X180107150Y-109534616D01*
X180148600Y-109326233D01*
X180148600Y-109113767D01*
X180531400Y-109113767D01*
X180531400Y-109326233D01*
X180572850Y-109534616D01*
X180654157Y-109730909D01*
X180772197Y-109907567D01*
X180922433Y-110057803D01*
X181099091Y-110175843D01*
X181295384Y-110257150D01*
X181503767Y-110298600D01*
X181716233Y-110298600D01*
X181924616Y-110257150D01*
X182120909Y-110175843D01*
X182297567Y-110057803D01*
X182447803Y-109907567D01*
X182565843Y-109730909D01*
X182647150Y-109534616D01*
X182688600Y-109326233D01*
X182688600Y-109113767D01*
X183071400Y-109113767D01*
X183071400Y-109326233D01*
X183112850Y-109534616D01*
X183194157Y-109730909D01*
X183312197Y-109907567D01*
X183462433Y-110057803D01*
X183639091Y-110175843D01*
X183835384Y-110257150D01*
X184043767Y-110298600D01*
X184256233Y-110298600D01*
X184464616Y-110257150D01*
X184660909Y-110175843D01*
X184837567Y-110057803D01*
X184987803Y-109907567D01*
X185105843Y-109730909D01*
X185187150Y-109534616D01*
X185228600Y-109326233D01*
X185228600Y-109113767D01*
X185611400Y-109113767D01*
X185611400Y-109326233D01*
X185652850Y-109534616D01*
X185734157Y-109730909D01*
X185852197Y-109907567D01*
X186002433Y-110057803D01*
X186179091Y-110175843D01*
X186375384Y-110257150D01*
X186583767Y-110298600D01*
X186796233Y-110298600D01*
X187004616Y-110257150D01*
X187200909Y-110175843D01*
X187377567Y-110057803D01*
X187527803Y-109907567D01*
X187645843Y-109730909D01*
X187727150Y-109534616D01*
X187768600Y-109326233D01*
X187768600Y-109113767D01*
X188151400Y-109113767D01*
X188151400Y-109326233D01*
X188192850Y-109534616D01*
X188274157Y-109730909D01*
X188392197Y-109907567D01*
X188542433Y-110057803D01*
X188719091Y-110175843D01*
X188915384Y-110257150D01*
X189123767Y-110298600D01*
X189336233Y-110298600D01*
X189544616Y-110257150D01*
X189740909Y-110175843D01*
X189917567Y-110057803D01*
X190067803Y-109907567D01*
X190185843Y-109730909D01*
X190267150Y-109534616D01*
X190308600Y-109326233D01*
X190308600Y-109113767D01*
X190691400Y-109113767D01*
X190691400Y-109326233D01*
X190732850Y-109534616D01*
X190814157Y-109730909D01*
X190932197Y-109907567D01*
X191082433Y-110057803D01*
X191259091Y-110175843D01*
X191455384Y-110257150D01*
X191663767Y-110298600D01*
X191876233Y-110298600D01*
X192084616Y-110257150D01*
X192280909Y-110175843D01*
X192457567Y-110057803D01*
X192607803Y-109907567D01*
X192725843Y-109730909D01*
X192807150Y-109534616D01*
X192848600Y-109326233D01*
X192848600Y-109113767D01*
X193231400Y-109113767D01*
X193231400Y-109326233D01*
X193272850Y-109534616D01*
X193354157Y-109730909D01*
X193472197Y-109907567D01*
X193622433Y-110057803D01*
X193799091Y-110175843D01*
X193995384Y-110257150D01*
X194203767Y-110298600D01*
X194416233Y-110298600D01*
X194624616Y-110257150D01*
X194820909Y-110175843D01*
X194997567Y-110057803D01*
X195147803Y-109907567D01*
X195265843Y-109730909D01*
X195347150Y-109534616D01*
X195388600Y-109326233D01*
X195388600Y-109113767D01*
X195347150Y-108905384D01*
X195265843Y-108709091D01*
X195147803Y-108532433D01*
X194997567Y-108382197D01*
X194820909Y-108264157D01*
X194624616Y-108182850D01*
X194416233Y-108141400D01*
X194203767Y-108141400D01*
X193995384Y-108182850D01*
X193799091Y-108264157D01*
X193622433Y-108382197D01*
X193472197Y-108532433D01*
X193354157Y-108709091D01*
X193272850Y-108905384D01*
X193231400Y-109113767D01*
X192848600Y-109113767D01*
X192807150Y-108905384D01*
X192725843Y-108709091D01*
X192607803Y-108532433D01*
X192457567Y-108382197D01*
X192280909Y-108264157D01*
X192084616Y-108182850D01*
X191876233Y-108141400D01*
X191663767Y-108141400D01*
X191455384Y-108182850D01*
X191259091Y-108264157D01*
X191082433Y-108382197D01*
X190932197Y-108532433D01*
X190814157Y-108709091D01*
X190732850Y-108905384D01*
X190691400Y-109113767D01*
X190308600Y-109113767D01*
X190267150Y-108905384D01*
X190185843Y-108709091D01*
X190067803Y-108532433D01*
X189917567Y-108382197D01*
X189740909Y-108264157D01*
X189544616Y-108182850D01*
X189336233Y-108141400D01*
X189123767Y-108141400D01*
X188915384Y-108182850D01*
X188719091Y-108264157D01*
X188542433Y-108382197D01*
X188392197Y-108532433D01*
X188274157Y-108709091D01*
X188192850Y-108905384D01*
X188151400Y-109113767D01*
X187768600Y-109113767D01*
X187727150Y-108905384D01*
X187645843Y-108709091D01*
X187527803Y-108532433D01*
X187377567Y-108382197D01*
X187200909Y-108264157D01*
X187004616Y-108182850D01*
X186796233Y-108141400D01*
X186583767Y-108141400D01*
X186375384Y-108182850D01*
X186179091Y-108264157D01*
X186002433Y-108382197D01*
X185852197Y-108532433D01*
X185734157Y-108709091D01*
X185652850Y-108905384D01*
X185611400Y-109113767D01*
X185228600Y-109113767D01*
X185187150Y-108905384D01*
X185105843Y-108709091D01*
X184987803Y-108532433D01*
X184837567Y-108382197D01*
X184660909Y-108264157D01*
X184464616Y-108182850D01*
X184256233Y-108141400D01*
X184043767Y-108141400D01*
X183835384Y-108182850D01*
X183639091Y-108264157D01*
X183462433Y-108382197D01*
X183312197Y-108532433D01*
X183194157Y-108709091D01*
X183112850Y-108905384D01*
X183071400Y-109113767D01*
X182688600Y-109113767D01*
X182647150Y-108905384D01*
X182565843Y-108709091D01*
X182447803Y-108532433D01*
X182297567Y-108382197D01*
X182120909Y-108264157D01*
X181924616Y-108182850D01*
X181716233Y-108141400D01*
X181503767Y-108141400D01*
X181295384Y-108182850D01*
X181099091Y-108264157D01*
X180922433Y-108382197D01*
X180772197Y-108532433D01*
X180654157Y-108709091D01*
X180572850Y-108905384D01*
X180531400Y-109113767D01*
X180148600Y-109113767D01*
X180107150Y-108905384D01*
X180025843Y-108709091D01*
X179907803Y-108532433D01*
X179757567Y-108382197D01*
X179580909Y-108264157D01*
X179384616Y-108182850D01*
X179176233Y-108141400D01*
X178963767Y-108141400D01*
X178755384Y-108182850D01*
X178559091Y-108264157D01*
X178382433Y-108382197D01*
X178232197Y-108532433D01*
X178114157Y-108709091D01*
X178032850Y-108905384D01*
X177991400Y-109113767D01*
X177608600Y-109113767D01*
X177567150Y-108905384D01*
X177497558Y-108737375D01*
X181522419Y-104712515D01*
X181553013Y-104718600D01*
X181666987Y-104718600D01*
X181778772Y-104696365D01*
X181884070Y-104652749D01*
X181978836Y-104589428D01*
X182059428Y-104508836D01*
X182122749Y-104414070D01*
X182166365Y-104308772D01*
X182188600Y-104196987D01*
X182188600Y-104083013D01*
X182166365Y-103971228D01*
X182122749Y-103865930D01*
X182070430Y-103787630D01*
X182097444Y-103773191D01*
X182149657Y-103730341D01*
X182160398Y-103717253D01*
X182918752Y-102958900D01*
X188509242Y-102958900D01*
X188526572Y-102984836D01*
X188607164Y-103065428D01*
X188701930Y-103128749D01*
X188807228Y-103172365D01*
X188919013Y-103194600D01*
X189032987Y-103194600D01*
X189144772Y-103172365D01*
X189250070Y-103128749D01*
X189344836Y-103065428D01*
X189425428Y-102984836D01*
X189488749Y-102890070D01*
X189532365Y-102784772D01*
X189554600Y-102672987D01*
X189554600Y-102559013D01*
X189532365Y-102447228D01*
X189488749Y-102341930D01*
X189425428Y-102247164D01*
X189344836Y-102166572D01*
X189250070Y-102103251D01*
X189144772Y-102059635D01*
X189032987Y-102037400D01*
X188919013Y-102037400D01*
X188807228Y-102059635D01*
X188701930Y-102103251D01*
X188607164Y-102166572D01*
X188526572Y-102247164D01*
X188509242Y-102273100D01*
X182793552Y-102273100D01*
X182776717Y-102271442D01*
X182759882Y-102273100D01*
X182759875Y-102273100D01*
X182709498Y-102278062D01*
X182644861Y-102297669D01*
X182585291Y-102329510D01*
X182533078Y-102372360D01*
X182522341Y-102385443D01*
X181763984Y-103143801D01*
X178558735Y-103143801D01*
X178372515Y-102957581D01*
X178378600Y-102926987D01*
X178378600Y-102813013D01*
X178356365Y-102701228D01*
X178312749Y-102595930D01*
X178249428Y-102501164D01*
X178168836Y-102420572D01*
X178074070Y-102357251D01*
X177968772Y-102313635D01*
X177856987Y-102291400D01*
X177743013Y-102291400D01*
X177631228Y-102313635D01*
X177525930Y-102357251D01*
X177431164Y-102420572D01*
X177350572Y-102501164D01*
X177287251Y-102595930D01*
X177243635Y-102701228D01*
X177221400Y-102813013D01*
X177221400Y-102926987D01*
X177227485Y-102957581D01*
X177061443Y-103123624D01*
X177048361Y-103134360D01*
X177005511Y-103186573D01*
X176984815Y-103225292D01*
X176973670Y-103246143D01*
X176954062Y-103310781D01*
X176947442Y-103378000D01*
X176949101Y-103394845D01*
X176949100Y-104602085D01*
X175387361Y-106163825D01*
X175351678Y-106207304D01*
X175316299Y-106273493D01*
X175309649Y-106295418D01*
X174651266Y-106953801D01*
X163707860Y-106953801D01*
X163751365Y-106848772D01*
X163773600Y-106736987D01*
X163773600Y-106623013D01*
X163767514Y-106592419D01*
X163972033Y-106387900D01*
X172888242Y-106387900D01*
X172905572Y-106413836D01*
X172986164Y-106494428D01*
X173080930Y-106557749D01*
X173186228Y-106601365D01*
X173298013Y-106623600D01*
X173411987Y-106623600D01*
X173523772Y-106601365D01*
X173629070Y-106557749D01*
X173723836Y-106494428D01*
X173804428Y-106413836D01*
X173867749Y-106319070D01*
X173911365Y-106213772D01*
X173933600Y-106101987D01*
X173933600Y-105988013D01*
X173911365Y-105876228D01*
X173867749Y-105770930D01*
X173804428Y-105676164D01*
X173723836Y-105595572D01*
X173629070Y-105532251D01*
X173523772Y-105488635D01*
X173411987Y-105466400D01*
X173298013Y-105466400D01*
X173186228Y-105488635D01*
X173080930Y-105532251D01*
X172986164Y-105595572D01*
X172905572Y-105676164D01*
X172888242Y-105702100D01*
X163846843Y-105702100D01*
X163830000Y-105700441D01*
X163813157Y-105702100D01*
X163762780Y-105707062D01*
X163698143Y-105726669D01*
X163638573Y-105758510D01*
X163586360Y-105801360D01*
X163575619Y-105814448D01*
X163282581Y-106107486D01*
X163251987Y-106101400D01*
X163138013Y-106101400D01*
X163026228Y-106123635D01*
X162920930Y-106167251D01*
X162826164Y-106230572D01*
X162745572Y-106311164D01*
X162728242Y-106337100D01*
X161121758Y-106337100D01*
X161104428Y-106311164D01*
X161023836Y-106230572D01*
X160997900Y-106213242D01*
X160997900Y-99526758D01*
X161023836Y-99509428D01*
X161104428Y-99428836D01*
X161167749Y-99334070D01*
X161211365Y-99228772D01*
X161233600Y-99116987D01*
X161233600Y-99003013D01*
X161211365Y-98891228D01*
X161167749Y-98785930D01*
X161104428Y-98691164D01*
X161023836Y-98610572D01*
X160929070Y-98547251D01*
X160823772Y-98503635D01*
X160711987Y-98481400D01*
X160598013Y-98481400D01*
X160486228Y-98503635D01*
X160380930Y-98547251D01*
X160286164Y-98610572D01*
X160205572Y-98691164D01*
X160142251Y-98785930D01*
X160098635Y-98891228D01*
X160076400Y-99003013D01*
X160076400Y-99116987D01*
X160098635Y-99228772D01*
X160142251Y-99334070D01*
X160205572Y-99428836D01*
X160286164Y-99509428D01*
X160312101Y-99526759D01*
X160312100Y-106213242D01*
X160286164Y-106230572D01*
X160205572Y-106311164D01*
X160142251Y-106405930D01*
X160098635Y-106511228D01*
X160076400Y-106623013D01*
X160076400Y-106736987D01*
X160098635Y-106848772D01*
X160142140Y-106953801D01*
X158150142Y-106953801D01*
X158133299Y-106952142D01*
X158116456Y-106953801D01*
X158066079Y-106958763D01*
X158001442Y-106978370D01*
X157941872Y-107010211D01*
X157889659Y-107053061D01*
X157878922Y-107066144D01*
X156692625Y-108252441D01*
X156524616Y-108182850D01*
X156316233Y-108141400D01*
X156103767Y-108141400D01*
X155895384Y-108182850D01*
X155699091Y-108264157D01*
X155522433Y-108382197D01*
X155372197Y-108532433D01*
X155254157Y-108709091D01*
X155172850Y-108905384D01*
X155131400Y-109113767D01*
X154721483Y-109113767D01*
X154748600Y-109086650D01*
X154749706Y-108370000D01*
X154745292Y-108325187D01*
X154732221Y-108282095D01*
X154710994Y-108242382D01*
X154682427Y-108207573D01*
X154647618Y-108179006D01*
X154607905Y-108157779D01*
X154564813Y-108144708D01*
X154520000Y-108140294D01*
X153803350Y-108141400D01*
X153746200Y-108198550D01*
X153593800Y-108198550D01*
X153536650Y-108141400D01*
X152820000Y-108140294D01*
X152781000Y-108144135D01*
X152781000Y-105189207D01*
X152928767Y-105218600D01*
X153141233Y-105218600D01*
X153349616Y-105177150D01*
X153545909Y-105095843D01*
X153722567Y-104977803D01*
X153872803Y-104827567D01*
X153990843Y-104650909D01*
X154072150Y-104454616D01*
X154113600Y-104246233D01*
X154113600Y-104033767D01*
X154072150Y-103825384D01*
X153990843Y-103629091D01*
X153872803Y-103452433D01*
X153722567Y-103302197D01*
X153704314Y-103290000D01*
X154495294Y-103290000D01*
X154495294Y-104990000D01*
X154499708Y-105034813D01*
X154512779Y-105077905D01*
X154534006Y-105117618D01*
X154562573Y-105152427D01*
X154597382Y-105180994D01*
X154637095Y-105202221D01*
X154680187Y-105215292D01*
X154725000Y-105219706D01*
X156425000Y-105219706D01*
X156469813Y-105215292D01*
X156512905Y-105202221D01*
X156552618Y-105180994D01*
X156587427Y-105152427D01*
X156615994Y-105117618D01*
X156637221Y-105077905D01*
X156650292Y-105034813D01*
X156654706Y-104990000D01*
X156654706Y-103290000D01*
X156650292Y-103245187D01*
X156637221Y-103202095D01*
X156615994Y-103162382D01*
X156587427Y-103127573D01*
X156552618Y-103099006D01*
X156512905Y-103077779D01*
X156469813Y-103064708D01*
X156425000Y-103060294D01*
X154725000Y-103060294D01*
X154680187Y-103064708D01*
X154637095Y-103077779D01*
X154597382Y-103099006D01*
X154562573Y-103127573D01*
X154534006Y-103162382D01*
X154512779Y-103202095D01*
X154499708Y-103245187D01*
X154495294Y-103290000D01*
X153704314Y-103290000D01*
X153545909Y-103184157D01*
X153349616Y-103102850D01*
X153141233Y-103061400D01*
X152928767Y-103061400D01*
X152720384Y-103102850D01*
X152524091Y-103184157D01*
X152347433Y-103302197D01*
X152197197Y-103452433D01*
X152079157Y-103629091D01*
X152018600Y-103775289D01*
X152018600Y-101964711D01*
X152079157Y-102110909D01*
X152197197Y-102287567D01*
X152347433Y-102437803D01*
X152524091Y-102555843D01*
X152720384Y-102637150D01*
X152928767Y-102678600D01*
X153141233Y-102678600D01*
X153349616Y-102637150D01*
X153545909Y-102555843D01*
X153722567Y-102437803D01*
X153872803Y-102287567D01*
X153990843Y-102110909D01*
X154072150Y-101914616D01*
X154113600Y-101706233D01*
X154113600Y-101493767D01*
X154072150Y-101285384D01*
X154002558Y-101117375D01*
X154293734Y-100826199D01*
X154823431Y-100826199D01*
X154737197Y-100912433D01*
X154619157Y-101089091D01*
X154537850Y-101285384D01*
X154496400Y-101493767D01*
X154496400Y-101706233D01*
X154537850Y-101914616D01*
X154619157Y-102110909D01*
X154737197Y-102287567D01*
X154887433Y-102437803D01*
X155064091Y-102555843D01*
X155260384Y-102637150D01*
X155468767Y-102678600D01*
X155681233Y-102678600D01*
X155889616Y-102637150D01*
X156085909Y-102555843D01*
X156262567Y-102437803D01*
X156412803Y-102287567D01*
X156530843Y-102110909D01*
X156612150Y-101914616D01*
X156629986Y-101824947D01*
X160142034Y-98312900D01*
X161967967Y-98312900D01*
X164625623Y-100970557D01*
X164636360Y-100983640D01*
X164649442Y-100994376D01*
X164649443Y-100994377D01*
X164688573Y-101026490D01*
X164748143Y-101058331D01*
X164812780Y-101077938D01*
X164880000Y-101084559D01*
X164896843Y-101082900D01*
X175263165Y-101082900D01*
X175280000Y-101084558D01*
X175296835Y-101082900D01*
X175296843Y-101082900D01*
X175347220Y-101077938D01*
X175411857Y-101058331D01*
X175471427Y-101026490D01*
X175523640Y-100983640D01*
X175534381Y-100970552D01*
X177102033Y-99402900D01*
X178603242Y-99402900D01*
X178620572Y-99428836D01*
X178701164Y-99509428D01*
X178795930Y-99572749D01*
X178901228Y-99616365D01*
X179013013Y-99638600D01*
X179126987Y-99638600D01*
X179238772Y-99616365D01*
X179344070Y-99572749D01*
X179438836Y-99509428D01*
X179519428Y-99428836D01*
X179582749Y-99334070D01*
X179626365Y-99228772D01*
X179648600Y-99116987D01*
X179648600Y-99003013D01*
X179626365Y-98891228D01*
X179582860Y-98786199D01*
X180851266Y-98786199D01*
X181037485Y-98972419D01*
X181031400Y-99003013D01*
X181031400Y-99116987D01*
X181053635Y-99228772D01*
X181097251Y-99334070D01*
X181160572Y-99428836D01*
X181241164Y-99509428D01*
X181335930Y-99572749D01*
X181441228Y-99616365D01*
X181553013Y-99638600D01*
X181666987Y-99638600D01*
X181778772Y-99616365D01*
X181884070Y-99572749D01*
X181978836Y-99509428D01*
X182059428Y-99428836D01*
X182122749Y-99334070D01*
X182166365Y-99228772D01*
X182188600Y-99116987D01*
X182188600Y-99003013D01*
X182166365Y-98891228D01*
X182122749Y-98785930D01*
X182059428Y-98691164D01*
X181978836Y-98610572D01*
X181884070Y-98547251D01*
X181778772Y-98503635D01*
X181666987Y-98481400D01*
X181553013Y-98481400D01*
X181522419Y-98487485D01*
X181247680Y-98212747D01*
X181236939Y-98199659D01*
X181184726Y-98156809D01*
X181125156Y-98124968D01*
X181060519Y-98105361D01*
X181010142Y-98100399D01*
X181010134Y-98100399D01*
X180993299Y-98098741D01*
X180976464Y-98100399D01*
X177054714Y-98100399D01*
X177037871Y-98098740D01*
X177021028Y-98100399D01*
X176970651Y-98105361D01*
X176906014Y-98124968D01*
X176846444Y-98156809D01*
X176794231Y-98199659D01*
X176783490Y-98212747D01*
X174980148Y-100016089D01*
X165299853Y-100016089D01*
X162582202Y-97298439D01*
X162571461Y-97285351D01*
X162519248Y-97242501D01*
X162459678Y-97210660D01*
X162395041Y-97191053D01*
X162344664Y-97186091D01*
X162344656Y-97186091D01*
X162327821Y-97184433D01*
X162310986Y-97186091D01*
X159919013Y-97186091D01*
X159902178Y-97184433D01*
X159885343Y-97186091D01*
X159885336Y-97186091D01*
X159841642Y-97190395D01*
X159834958Y-97191053D01*
X159815351Y-97197001D01*
X159770322Y-97210660D01*
X159710752Y-97242501D01*
X159658539Y-97285351D01*
X159647802Y-97298434D01*
X156805838Y-100140399D01*
X154168544Y-100140399D01*
X154151701Y-100138740D01*
X154134858Y-100140399D01*
X154084481Y-100145361D01*
X154019844Y-100164968D01*
X153960274Y-100196809D01*
X153908061Y-100239659D01*
X153897320Y-100252747D01*
X153517625Y-100632442D01*
X153349616Y-100562850D01*
X153141233Y-100521400D01*
X152928767Y-100521400D01*
X152720384Y-100562850D01*
X152524091Y-100644157D01*
X152347433Y-100762197D01*
X152197197Y-100912433D01*
X152079157Y-101089091D01*
X152018600Y-101235289D01*
X152018600Y-99424711D01*
X152079157Y-99570909D01*
X152197197Y-99747567D01*
X152347433Y-99897803D01*
X152524091Y-100015843D01*
X152720384Y-100097150D01*
X152928767Y-100138600D01*
X153141233Y-100138600D01*
X153349616Y-100097150D01*
X153545909Y-100015843D01*
X153722567Y-99897803D01*
X153872803Y-99747567D01*
X153990843Y-99570909D01*
X154072150Y-99374616D01*
X154086281Y-99303570D01*
X154524261Y-99303570D01*
X154566019Y-99441240D01*
X154659783Y-99630757D01*
X154788718Y-99798340D01*
X154947869Y-99937549D01*
X155131120Y-100043034D01*
X155331429Y-100110742D01*
X155498800Y-100078759D01*
X155498800Y-99136200D01*
X155651200Y-99136200D01*
X155651200Y-100078759D01*
X155818571Y-100110742D01*
X156018880Y-100043034D01*
X156202131Y-99937549D01*
X156361282Y-99798340D01*
X156490217Y-99630757D01*
X156583981Y-99441240D01*
X156625739Y-99303570D01*
X156593604Y-99136200D01*
X155651200Y-99136200D01*
X155498800Y-99136200D01*
X154556396Y-99136200D01*
X154524261Y-99303570D01*
X154086281Y-99303570D01*
X154113600Y-99166233D01*
X154113600Y-98953767D01*
X154086282Y-98816430D01*
X154524261Y-98816430D01*
X154556396Y-98983800D01*
X155498800Y-98983800D01*
X155498800Y-98041241D01*
X155651200Y-98041241D01*
X155651200Y-98983800D01*
X156593604Y-98983800D01*
X156625739Y-98816430D01*
X156583981Y-98678760D01*
X156490217Y-98489243D01*
X156361282Y-98321660D01*
X156202131Y-98182451D01*
X156018880Y-98076966D01*
X155818571Y-98009258D01*
X155651200Y-98041241D01*
X155498800Y-98041241D01*
X155331429Y-98009258D01*
X155131120Y-98076966D01*
X154947869Y-98182451D01*
X154788718Y-98321660D01*
X154659783Y-98489243D01*
X154566019Y-98678760D01*
X154524261Y-98816430D01*
X154086282Y-98816430D01*
X154072150Y-98745384D01*
X154002558Y-98577375D01*
X156617033Y-95962900D01*
X161759923Y-95962900D01*
X161756228Y-95963635D01*
X161650930Y-96007251D01*
X161556164Y-96070572D01*
X161475572Y-96151164D01*
X161412251Y-96245930D01*
X161368635Y-96351228D01*
X161346400Y-96463013D01*
X161346400Y-96576987D01*
X161368635Y-96688772D01*
X161412251Y-96794070D01*
X161475572Y-96888836D01*
X161556164Y-96969428D01*
X161650930Y-97032749D01*
X161756228Y-97076365D01*
X161868013Y-97098600D01*
X161981987Y-97098600D01*
X162093772Y-97076365D01*
X162199070Y-97032749D01*
X162293836Y-96969428D01*
X162374428Y-96888836D01*
X162391758Y-96862900D01*
X173847967Y-96862900D01*
X174687485Y-97702419D01*
X174681400Y-97733013D01*
X174681400Y-97846987D01*
X174703635Y-97958772D01*
X174747251Y-98064070D01*
X174810572Y-98158836D01*
X174891164Y-98239428D01*
X174985930Y-98302749D01*
X175091228Y-98346365D01*
X175203013Y-98368600D01*
X175316987Y-98368600D01*
X175428772Y-98346365D01*
X175534070Y-98302749D01*
X175628836Y-98239428D01*
X175709428Y-98158836D01*
X175772749Y-98064070D01*
X175816365Y-97958772D01*
X175838600Y-97846987D01*
X175838600Y-97733013D01*
X175816365Y-97621228D01*
X175772749Y-97515930D01*
X175709428Y-97421164D01*
X175628836Y-97340572D01*
X175534070Y-97277251D01*
X175428772Y-97233635D01*
X175316987Y-97211400D01*
X175203013Y-97211400D01*
X175172419Y-97217485D01*
X175046319Y-97091385D01*
X196911237Y-97091385D01*
X196947888Y-97203800D01*
X198088800Y-97203800D01*
X198088800Y-96551400D01*
X197538800Y-96551400D01*
X197398121Y-96580266D01*
X197265777Y-96636022D01*
X197146853Y-96716526D01*
X197045920Y-96818684D01*
X196966856Y-96938570D01*
X196912700Y-97071577D01*
X196911237Y-97091385D01*
X175046319Y-97091385D01*
X174244381Y-96289448D01*
X174233640Y-96276360D01*
X174181427Y-96233510D01*
X174121857Y-96201669D01*
X174057220Y-96182062D01*
X174006843Y-96177100D01*
X174006835Y-96177100D01*
X173990000Y-96175442D01*
X173973165Y-96177100D01*
X162391758Y-96177100D01*
X162374428Y-96151164D01*
X162293836Y-96070572D01*
X162199070Y-96007251D01*
X162093772Y-95963635D01*
X162090077Y-95962900D01*
X175508165Y-95962900D01*
X175525000Y-95964558D01*
X175541835Y-95962900D01*
X175541843Y-95962900D01*
X175592220Y-95957938D01*
X175656857Y-95938331D01*
X175716427Y-95906490D01*
X175768640Y-95863640D01*
X175779381Y-95850552D01*
X175807419Y-95822515D01*
X175838013Y-95828600D01*
X175951987Y-95828600D01*
X175954938Y-95828013D01*
X182936400Y-95828013D01*
X182936400Y-95941987D01*
X182958635Y-96053772D01*
X183002251Y-96159070D01*
X183065572Y-96253836D01*
X183146164Y-96334428D01*
X183240930Y-96397749D01*
X183346228Y-96441365D01*
X183458013Y-96463600D01*
X183571987Y-96463600D01*
X183683772Y-96441365D01*
X183789070Y-96397749D01*
X183883836Y-96334428D01*
X183964428Y-96253836D01*
X184027749Y-96159070D01*
X184071365Y-96053772D01*
X184093600Y-95941987D01*
X184093600Y-95828013D01*
X184087515Y-95797419D01*
X184271012Y-95613922D01*
X184228635Y-95716228D01*
X184206400Y-95828013D01*
X184206400Y-95941987D01*
X184228635Y-96053772D01*
X184272251Y-96159070D01*
X184335572Y-96253836D01*
X184416164Y-96334428D01*
X184510930Y-96397749D01*
X184616228Y-96441365D01*
X184728013Y-96463600D01*
X184841987Y-96463600D01*
X184878409Y-96456355D01*
X184878574Y-96456491D01*
X184938144Y-96488332D01*
X185002781Y-96507939D01*
X185053158Y-96512901D01*
X185053165Y-96512901D01*
X185070000Y-96514559D01*
X185086835Y-96512901D01*
X198613138Y-96512901D01*
X198651637Y-96551400D01*
X198241200Y-96551400D01*
X198241200Y-97203800D01*
X198261200Y-97203800D01*
X198261200Y-97356200D01*
X198241200Y-97356200D01*
X198241200Y-97376200D01*
X198088800Y-97376200D01*
X198088800Y-97356200D01*
X196947888Y-97356200D01*
X196911237Y-97468615D01*
X196912700Y-97488423D01*
X196966856Y-97621430D01*
X197045920Y-97741316D01*
X197146853Y-97843474D01*
X197173798Y-97861714D01*
X197173798Y-97878548D01*
X197116650Y-97821400D01*
X196525000Y-97820294D01*
X196480187Y-97824708D01*
X196437095Y-97837779D01*
X196397382Y-97859006D01*
X196362573Y-97887573D01*
X196334006Y-97922382D01*
X196316600Y-97954946D01*
X196316600Y-97536000D01*
X196312208Y-97491402D01*
X196299199Y-97448519D01*
X196278074Y-97408997D01*
X196249645Y-97374355D01*
X196215003Y-97345926D01*
X196175481Y-97324801D01*
X196132598Y-97311792D01*
X196088000Y-97307400D01*
X190500000Y-97307400D01*
X190455402Y-97311792D01*
X190412519Y-97324801D01*
X190372997Y-97345926D01*
X190338355Y-97374355D01*
X190309926Y-97408997D01*
X190288801Y-97448519D01*
X190275792Y-97491402D01*
X190271400Y-97536000D01*
X190271400Y-100584000D01*
X190275792Y-100628598D01*
X190288801Y-100671481D01*
X190309926Y-100711003D01*
X190338355Y-100745645D01*
X190372997Y-100774074D01*
X190412519Y-100795199D01*
X190455402Y-100808208D01*
X190500000Y-100812600D01*
X195160901Y-100812600D01*
X195160900Y-103465420D01*
X195158873Y-103486000D01*
X195160900Y-103506579D01*
X195166965Y-103568157D01*
X195190929Y-103647157D01*
X195229846Y-103719965D01*
X195282218Y-103783782D01*
X195298211Y-103796907D01*
X195833097Y-104331794D01*
X195846218Y-104347782D01*
X195894704Y-104387573D01*
X195910034Y-104400154D01*
X195980661Y-104437905D01*
X195982842Y-104439071D01*
X196061842Y-104463035D01*
X196123420Y-104469100D01*
X196123422Y-104469100D01*
X196143999Y-104471127D01*
X196164577Y-104469100D01*
X196310654Y-104469100D01*
X196299708Y-104505187D01*
X196295294Y-104550000D01*
X196296400Y-104716650D01*
X196353550Y-104773800D01*
X197173800Y-104773800D01*
X197173800Y-104753800D01*
X197326200Y-104753800D01*
X197326200Y-104773800D01*
X198146450Y-104773800D01*
X198193749Y-104726501D01*
X198204406Y-104752228D01*
X198264991Y-104842900D01*
X198342100Y-104920009D01*
X198432772Y-104980594D01*
X198533521Y-105022326D01*
X198640475Y-105043600D01*
X198749525Y-105043600D01*
X198856479Y-105022326D01*
X198957228Y-104980594D01*
X199047900Y-104920009D01*
X199125009Y-104842900D01*
X199185594Y-104752228D01*
X199227326Y-104651479D01*
X199248600Y-104544525D01*
X199248600Y-104435475D01*
X199227326Y-104328521D01*
X199185594Y-104227772D01*
X199125009Y-104137100D01*
X199047900Y-104059991D01*
X199001668Y-104029100D01*
X199029070Y-104017749D01*
X199123836Y-103954428D01*
X199204428Y-103873836D01*
X199267749Y-103779070D01*
X199311365Y-103673772D01*
X199333600Y-103561987D01*
X199333600Y-103448013D01*
X199311365Y-103336228D01*
X199267749Y-103230930D01*
X199204428Y-103136164D01*
X199123836Y-103055572D01*
X199029070Y-102992251D01*
X198923772Y-102948635D01*
X198811987Y-102926400D01*
X198698013Y-102926400D01*
X198586228Y-102948635D01*
X198480930Y-102992251D01*
X198458707Y-103007100D01*
X198204007Y-103007100D01*
X198204706Y-103000000D01*
X198204706Y-102700000D01*
X198204007Y-102692900D01*
X198398843Y-102692900D01*
X198480930Y-102747749D01*
X198586228Y-102791365D01*
X198698013Y-102813600D01*
X198811987Y-102813600D01*
X198923772Y-102791365D01*
X199029070Y-102747749D01*
X199123836Y-102684428D01*
X199204428Y-102603836D01*
X199267749Y-102509070D01*
X199311365Y-102403772D01*
X199333600Y-102291987D01*
X199333600Y-102178013D01*
X199311365Y-102066228D01*
X199267749Y-101960930D01*
X199204428Y-101866164D01*
X199123836Y-101785572D01*
X199029070Y-101722251D01*
X198923772Y-101678635D01*
X198811987Y-101656400D01*
X198698013Y-101656400D01*
X198586228Y-101678635D01*
X198584601Y-101679309D01*
X198584601Y-101520691D01*
X198586228Y-101521365D01*
X198698013Y-101543600D01*
X198811987Y-101543600D01*
X198923772Y-101521365D01*
X199029070Y-101477749D01*
X199123836Y-101414428D01*
X199204428Y-101333836D01*
X199267749Y-101239070D01*
X199311365Y-101133772D01*
X199333600Y-101021987D01*
X199333600Y-100908013D01*
X199311365Y-100796228D01*
X199267749Y-100690930D01*
X199204428Y-100596164D01*
X199123836Y-100515572D01*
X199029070Y-100452251D01*
X198923772Y-100408635D01*
X198811987Y-100386400D01*
X198698013Y-100386400D01*
X198586228Y-100408635D01*
X198483921Y-100451012D01*
X198667419Y-100267515D01*
X198698013Y-100273600D01*
X198811987Y-100273600D01*
X198923772Y-100251365D01*
X199029070Y-100207749D01*
X199123836Y-100144428D01*
X199204428Y-100063836D01*
X199267749Y-99969070D01*
X199311365Y-99863772D01*
X199333600Y-99751987D01*
X199333600Y-99638013D01*
X199311365Y-99526228D01*
X199267749Y-99420930D01*
X199204428Y-99326164D01*
X199123836Y-99245572D01*
X199029070Y-99182251D01*
X199001668Y-99170900D01*
X199047900Y-99140009D01*
X199125009Y-99062900D01*
X199185594Y-98972228D01*
X199227326Y-98871479D01*
X199248600Y-98764525D01*
X199248600Y-98655475D01*
X199227326Y-98548521D01*
X199185594Y-98447772D01*
X199125009Y-98357100D01*
X199047900Y-98279991D01*
X198957228Y-98219406D01*
X198856479Y-98177674D01*
X198749525Y-98156400D01*
X198640475Y-98156400D01*
X198533521Y-98177674D01*
X198432772Y-98219406D01*
X198342100Y-98279991D01*
X198264991Y-98357100D01*
X198204406Y-98447772D01*
X198193749Y-98473499D01*
X198146450Y-98426200D01*
X197326200Y-98426200D01*
X197326200Y-98446200D01*
X197173800Y-98446200D01*
X197173800Y-98426200D01*
X197153800Y-98426200D01*
X197153800Y-98273800D01*
X197173800Y-98273800D01*
X197173800Y-98253800D01*
X197326200Y-98253800D01*
X197326200Y-98273800D01*
X198146450Y-98273800D01*
X198203600Y-98216650D01*
X198204706Y-98050000D01*
X198200628Y-98008600D01*
X198791200Y-98008600D01*
X198931879Y-97979734D01*
X199064223Y-97923978D01*
X199183147Y-97843474D01*
X199284080Y-97741316D01*
X199363144Y-97621430D01*
X199417300Y-97488423D01*
X199418763Y-97468615D01*
X199382113Y-97356202D01*
X199443600Y-97356202D01*
X199443600Y-97343363D01*
X201587101Y-99486865D01*
X201587100Y-99863242D01*
X201561164Y-99880572D01*
X201480572Y-99961164D01*
X201417251Y-100055930D01*
X201373635Y-100161228D01*
X201351400Y-100273013D01*
X201351400Y-100386987D01*
X201373635Y-100498772D01*
X201417251Y-100604070D01*
X201480572Y-100698836D01*
X201561164Y-100779428D01*
X201655930Y-100842749D01*
X201761228Y-100886365D01*
X201873013Y-100908600D01*
X201986987Y-100908600D01*
X202098772Y-100886365D01*
X202201079Y-100843988D01*
X202017581Y-101027486D01*
X201986987Y-101021400D01*
X201873013Y-101021400D01*
X201761228Y-101043635D01*
X201655930Y-101087251D01*
X201561164Y-101150572D01*
X201480572Y-101231164D01*
X201417251Y-101325930D01*
X201373635Y-101431228D01*
X201351400Y-101543013D01*
X201351400Y-101656987D01*
X201373635Y-101768772D01*
X201417251Y-101874070D01*
X201480572Y-101968836D01*
X201561164Y-102049428D01*
X201655930Y-102112749D01*
X201761228Y-102156365D01*
X201873013Y-102178600D01*
X201986987Y-102178600D01*
X202098772Y-102156365D01*
X202204070Y-102112749D01*
X202298836Y-102049428D01*
X202379428Y-101968836D01*
X202442749Y-101874070D01*
X202486365Y-101768772D01*
X202508600Y-101656987D01*
X202508600Y-101543013D01*
X202502514Y-101512419D01*
X202922556Y-101092377D01*
X202935639Y-101081640D01*
X202978490Y-101029427D01*
X203010331Y-100969857D01*
X203029938Y-100905220D01*
X203034900Y-100854843D01*
X203034900Y-100854842D01*
X203036559Y-100838000D01*
X203034900Y-100821157D01*
X203034900Y-99584845D01*
X203036559Y-99568002D01*
X203029938Y-99500782D01*
X203010331Y-99436145D01*
X202978490Y-99376575D01*
X202946376Y-99337444D01*
X202935640Y-99324362D01*
X202922557Y-99313625D01*
X201077547Y-97468615D01*
X201341237Y-97468615D01*
X201342700Y-97488423D01*
X201396856Y-97621430D01*
X201475920Y-97741316D01*
X201576853Y-97843474D01*
X201695777Y-97923978D01*
X201828121Y-97979734D01*
X201968800Y-98008600D01*
X202268800Y-98008600D01*
X202268800Y-97356200D01*
X202421200Y-97356200D01*
X202421200Y-98008600D01*
X202721200Y-98008600D01*
X202861879Y-97979734D01*
X202994223Y-97923978D01*
X203113147Y-97843474D01*
X203214080Y-97741316D01*
X203293144Y-97621430D01*
X203347300Y-97488423D01*
X203348763Y-97468615D01*
X203312112Y-97356200D01*
X202421200Y-97356200D01*
X202268800Y-97356200D01*
X201377888Y-97356200D01*
X201341237Y-97468615D01*
X201077547Y-97468615D01*
X200700317Y-97091385D01*
X201341237Y-97091385D01*
X201377888Y-97203800D01*
X202268800Y-97203800D01*
X202268800Y-96551400D01*
X202421200Y-96551400D01*
X202421200Y-97203800D01*
X203312112Y-97203800D01*
X203348763Y-97091385D01*
X203347300Y-97071577D01*
X203293144Y-96938570D01*
X203214080Y-96818684D01*
X203113147Y-96716526D01*
X202994223Y-96636022D01*
X202861879Y-96580266D01*
X202721200Y-96551400D01*
X202421200Y-96551400D01*
X202268800Y-96551400D01*
X201968800Y-96551400D01*
X201828121Y-96580266D01*
X201695777Y-96636022D01*
X201576853Y-96716526D01*
X201475920Y-96818684D01*
X201396856Y-96938570D01*
X201342700Y-97071577D01*
X201341237Y-97091385D01*
X200700317Y-97091385D01*
X199167371Y-95558439D01*
X199156630Y-95545351D01*
X199104417Y-95502501D01*
X199044847Y-95470660D01*
X198980210Y-95451053D01*
X198929833Y-95446091D01*
X198929825Y-95446091D01*
X198912990Y-95444433D01*
X198896155Y-95446091D01*
X185881025Y-95446091D01*
X185394381Y-94959448D01*
X185383640Y-94946360D01*
X185331427Y-94903510D01*
X185271857Y-94871669D01*
X185207220Y-94852062D01*
X185156843Y-94847100D01*
X185156835Y-94847100D01*
X185140000Y-94845442D01*
X185123165Y-94847100D01*
X184793721Y-94847100D01*
X184837567Y-94817803D01*
X184987803Y-94667567D01*
X185105843Y-94490909D01*
X185187150Y-94294616D01*
X185228600Y-94086233D01*
X185228600Y-93873767D01*
X185611400Y-93873767D01*
X185611400Y-94086233D01*
X185652850Y-94294616D01*
X185734157Y-94490909D01*
X185852197Y-94667567D01*
X186002433Y-94817803D01*
X186179091Y-94935843D01*
X186375384Y-95017150D01*
X186583767Y-95058600D01*
X186796233Y-95058600D01*
X187004616Y-95017150D01*
X187200909Y-94935843D01*
X187377567Y-94817803D01*
X187527803Y-94667567D01*
X187645843Y-94490909D01*
X187727150Y-94294616D01*
X187768600Y-94086233D01*
X187768600Y-93873767D01*
X188151400Y-93873767D01*
X188151400Y-94086233D01*
X188192850Y-94294616D01*
X188274157Y-94490909D01*
X188392197Y-94667567D01*
X188542433Y-94817803D01*
X188719091Y-94935843D01*
X188915384Y-95017150D01*
X189123767Y-95058600D01*
X189336233Y-95058600D01*
X189544616Y-95017150D01*
X189740909Y-94935843D01*
X189917567Y-94817803D01*
X190067803Y-94667567D01*
X190185843Y-94490909D01*
X190267150Y-94294616D01*
X190308600Y-94086233D01*
X190308600Y-93873767D01*
X190691400Y-93873767D01*
X190691400Y-94086233D01*
X190732850Y-94294616D01*
X190814157Y-94490909D01*
X190932197Y-94667567D01*
X191082433Y-94817803D01*
X191259091Y-94935843D01*
X191455384Y-95017150D01*
X191663767Y-95058600D01*
X191876233Y-95058600D01*
X192084616Y-95017150D01*
X192280909Y-94935843D01*
X192457567Y-94817803D01*
X192607803Y-94667567D01*
X192725843Y-94490909D01*
X192807150Y-94294616D01*
X192848600Y-94086233D01*
X192848600Y-93873767D01*
X193231400Y-93873767D01*
X193231400Y-94086233D01*
X193272850Y-94294616D01*
X193354157Y-94490909D01*
X193472197Y-94667567D01*
X193622433Y-94817803D01*
X193799091Y-94935843D01*
X193995384Y-95017150D01*
X194203767Y-95058600D01*
X194416233Y-95058600D01*
X194624616Y-95017150D01*
X194820909Y-94935843D01*
X194997567Y-94817803D01*
X195147803Y-94667567D01*
X195265843Y-94490909D01*
X195347150Y-94294616D01*
X195388600Y-94086233D01*
X195388600Y-93873767D01*
X195771400Y-93873767D01*
X195771400Y-94086233D01*
X195812850Y-94294616D01*
X195894157Y-94490909D01*
X196012197Y-94667567D01*
X196162433Y-94817803D01*
X196339091Y-94935843D01*
X196535384Y-95017150D01*
X196743767Y-95058600D01*
X196956233Y-95058600D01*
X197164616Y-95017150D01*
X197360909Y-94935843D01*
X197537567Y-94817803D01*
X197687803Y-94667567D01*
X197805843Y-94490909D01*
X197887150Y-94294616D01*
X197928600Y-94086233D01*
X197928600Y-93873767D01*
X198311400Y-93873767D01*
X198311400Y-94086233D01*
X198352850Y-94294616D01*
X198434157Y-94490909D01*
X198552197Y-94667567D01*
X198702433Y-94817803D01*
X198879091Y-94935843D01*
X199075384Y-95017150D01*
X199283767Y-95058600D01*
X199496233Y-95058600D01*
X199704616Y-95017150D01*
X199900909Y-94935843D01*
X200077567Y-94817803D01*
X200227803Y-94667567D01*
X200345843Y-94490909D01*
X200427150Y-94294616D01*
X200468600Y-94086233D01*
X200468600Y-93873767D01*
X200851400Y-93873767D01*
X200851400Y-94086233D01*
X200892850Y-94294616D01*
X200974157Y-94490909D01*
X201092197Y-94667567D01*
X201242433Y-94817803D01*
X201419091Y-94935843D01*
X201615384Y-95017150D01*
X201823767Y-95058600D01*
X202036233Y-95058600D01*
X202244616Y-95017150D01*
X202440909Y-94935843D01*
X202617567Y-94817803D01*
X202767803Y-94667567D01*
X202885843Y-94490909D01*
X202967150Y-94294616D01*
X203008600Y-94086233D01*
X203008600Y-93873767D01*
X202967150Y-93665384D01*
X202885843Y-93469091D01*
X202767803Y-93292433D01*
X202617567Y-93142197D01*
X202440909Y-93024157D01*
X202244616Y-92942850D01*
X202036233Y-92901400D01*
X201823767Y-92901400D01*
X201615384Y-92942850D01*
X201419091Y-93024157D01*
X201242433Y-93142197D01*
X201092197Y-93292433D01*
X200974157Y-93469091D01*
X200892850Y-93665384D01*
X200851400Y-93873767D01*
X200468600Y-93873767D01*
X200427150Y-93665384D01*
X200345843Y-93469091D01*
X200227803Y-93292433D01*
X200077567Y-93142197D01*
X199900909Y-93024157D01*
X199704616Y-92942850D01*
X199496233Y-92901400D01*
X199283767Y-92901400D01*
X199075384Y-92942850D01*
X198879091Y-93024157D01*
X198702433Y-93142197D01*
X198552197Y-93292433D01*
X198434157Y-93469091D01*
X198352850Y-93665384D01*
X198311400Y-93873767D01*
X197928600Y-93873767D01*
X197887150Y-93665384D01*
X197805843Y-93469091D01*
X197687803Y-93292433D01*
X197537567Y-93142197D01*
X197360909Y-93024157D01*
X197164616Y-92942850D01*
X196956233Y-92901400D01*
X196743767Y-92901400D01*
X196535384Y-92942850D01*
X196339091Y-93024157D01*
X196162433Y-93142197D01*
X196012197Y-93292433D01*
X195894157Y-93469091D01*
X195812850Y-93665384D01*
X195771400Y-93873767D01*
X195388600Y-93873767D01*
X195347150Y-93665384D01*
X195265843Y-93469091D01*
X195147803Y-93292433D01*
X194997567Y-93142197D01*
X194820909Y-93024157D01*
X194624616Y-92942850D01*
X194416233Y-92901400D01*
X194203767Y-92901400D01*
X193995384Y-92942850D01*
X193799091Y-93024157D01*
X193622433Y-93142197D01*
X193472197Y-93292433D01*
X193354157Y-93469091D01*
X193272850Y-93665384D01*
X193231400Y-93873767D01*
X192848600Y-93873767D01*
X192807150Y-93665384D01*
X192725843Y-93469091D01*
X192607803Y-93292433D01*
X192457567Y-93142197D01*
X192280909Y-93024157D01*
X192084616Y-92942850D01*
X191876233Y-92901400D01*
X191663767Y-92901400D01*
X191455384Y-92942850D01*
X191259091Y-93024157D01*
X191082433Y-93142197D01*
X190932197Y-93292433D01*
X190814157Y-93469091D01*
X190732850Y-93665384D01*
X190691400Y-93873767D01*
X190308600Y-93873767D01*
X190267150Y-93665384D01*
X190185843Y-93469091D01*
X190067803Y-93292433D01*
X189917567Y-93142197D01*
X189740909Y-93024157D01*
X189544616Y-92942850D01*
X189336233Y-92901400D01*
X189123767Y-92901400D01*
X188915384Y-92942850D01*
X188719091Y-93024157D01*
X188542433Y-93142197D01*
X188392197Y-93292433D01*
X188274157Y-93469091D01*
X188192850Y-93665384D01*
X188151400Y-93873767D01*
X187768600Y-93873767D01*
X187727150Y-93665384D01*
X187645843Y-93469091D01*
X187527803Y-93292433D01*
X187377567Y-93142197D01*
X187200909Y-93024157D01*
X187004616Y-92942850D01*
X186796233Y-92901400D01*
X186583767Y-92901400D01*
X186375384Y-92942850D01*
X186179091Y-93024157D01*
X186002433Y-93142197D01*
X185852197Y-93292433D01*
X185734157Y-93469091D01*
X185652850Y-93665384D01*
X185611400Y-93873767D01*
X185228600Y-93873767D01*
X185187150Y-93665384D01*
X185105843Y-93469091D01*
X184987803Y-93292433D01*
X184837567Y-93142197D01*
X184660909Y-93024157D01*
X184464616Y-92942850D01*
X184256233Y-92901400D01*
X184043767Y-92901400D01*
X183835384Y-92942850D01*
X183639091Y-93024157D01*
X183462433Y-93142197D01*
X183312197Y-93292433D01*
X183194157Y-93469091D01*
X183112850Y-93665384D01*
X183071400Y-93873767D01*
X183071400Y-94086233D01*
X183112850Y-94294616D01*
X183194157Y-94490909D01*
X183312197Y-94667567D01*
X183462433Y-94817803D01*
X183639091Y-94935843D01*
X183835384Y-95017150D01*
X183887541Y-95027525D01*
X183602581Y-95312485D01*
X183571987Y-95306400D01*
X183458013Y-95306400D01*
X183346228Y-95328635D01*
X183240930Y-95372251D01*
X183146164Y-95435572D01*
X183065572Y-95516164D01*
X183002251Y-95610930D01*
X182958635Y-95716228D01*
X182936400Y-95828013D01*
X175954938Y-95828013D01*
X176063772Y-95806365D01*
X176169070Y-95762749D01*
X176263836Y-95699428D01*
X176344428Y-95618836D01*
X176407749Y-95524070D01*
X176451365Y-95418772D01*
X176473600Y-95306987D01*
X176473600Y-95193013D01*
X176451365Y-95081228D01*
X176441992Y-95058600D01*
X176636233Y-95058600D01*
X176844616Y-95017150D01*
X177040909Y-94935843D01*
X177217567Y-94817803D01*
X177367803Y-94667567D01*
X177485843Y-94490909D01*
X177567150Y-94294616D01*
X177608600Y-94086233D01*
X177608600Y-93873767D01*
X177991400Y-93873767D01*
X177991400Y-94086233D01*
X178032850Y-94294616D01*
X178114157Y-94490909D01*
X178232197Y-94667567D01*
X178382433Y-94817803D01*
X178559091Y-94935843D01*
X178755384Y-95017150D01*
X178963767Y-95058600D01*
X179176233Y-95058600D01*
X179384616Y-95017150D01*
X179580909Y-94935843D01*
X179757567Y-94817803D01*
X179907803Y-94667567D01*
X180025843Y-94490909D01*
X180107150Y-94294616D01*
X180148600Y-94086233D01*
X180148600Y-93873767D01*
X180531400Y-93873767D01*
X180531400Y-94086233D01*
X180572850Y-94294616D01*
X180654157Y-94490909D01*
X180772197Y-94667567D01*
X180922433Y-94817803D01*
X181099091Y-94935843D01*
X181295384Y-95017150D01*
X181503767Y-95058600D01*
X181716233Y-95058600D01*
X181924616Y-95017150D01*
X182120909Y-94935843D01*
X182297567Y-94817803D01*
X182447803Y-94667567D01*
X182565843Y-94490909D01*
X182647150Y-94294616D01*
X182688600Y-94086233D01*
X182688600Y-93873767D01*
X182647150Y-93665384D01*
X182565843Y-93469091D01*
X182447803Y-93292433D01*
X182297567Y-93142197D01*
X182120909Y-93024157D01*
X181924616Y-92942850D01*
X181716233Y-92901400D01*
X181503767Y-92901400D01*
X181295384Y-92942850D01*
X181099091Y-93024157D01*
X180922433Y-93142197D01*
X180772197Y-93292433D01*
X180654157Y-93469091D01*
X180572850Y-93665384D01*
X180531400Y-93873767D01*
X180148600Y-93873767D01*
X180107150Y-93665384D01*
X180025843Y-93469091D01*
X179907803Y-93292433D01*
X179757567Y-93142197D01*
X179580909Y-93024157D01*
X179384616Y-92942850D01*
X179176233Y-92901400D01*
X178963767Y-92901400D01*
X178755384Y-92942850D01*
X178559091Y-93024157D01*
X178382433Y-93142197D01*
X178232197Y-93292433D01*
X178114157Y-93469091D01*
X178032850Y-93665384D01*
X177991400Y-93873767D01*
X177608600Y-93873767D01*
X177567150Y-93665384D01*
X177485843Y-93469091D01*
X177367803Y-93292433D01*
X177217567Y-93142197D01*
X177040909Y-93024157D01*
X176844616Y-92942850D01*
X176636233Y-92901400D01*
X176423767Y-92901400D01*
X176215384Y-92942850D01*
X176019091Y-93024157D01*
X175842433Y-93142197D01*
X175692197Y-93292433D01*
X175574157Y-93469091D01*
X175492850Y-93665384D01*
X175451400Y-93873767D01*
X175451400Y-94086233D01*
X175492850Y-94294616D01*
X175574157Y-94490909D01*
X175692197Y-94667567D01*
X175720597Y-94695967D01*
X175620930Y-94737251D01*
X175526164Y-94800572D01*
X175445572Y-94881164D01*
X175382251Y-94975930D01*
X175338635Y-95081228D01*
X175316400Y-95193013D01*
X175316400Y-95277100D01*
X156491843Y-95277100D01*
X156475000Y-95275441D01*
X156458157Y-95277100D01*
X156407780Y-95282062D01*
X156343143Y-95301669D01*
X156283573Y-95333510D01*
X156231360Y-95376360D01*
X156220619Y-95389448D01*
X153517625Y-98092442D01*
X153349616Y-98022850D01*
X153141233Y-97981400D01*
X152928767Y-97981400D01*
X152720384Y-98022850D01*
X152524091Y-98104157D01*
X152347433Y-98222197D01*
X152197197Y-98372433D01*
X152079157Y-98549091D01*
X152018600Y-98695289D01*
X152018600Y-94830000D01*
X152590294Y-94830000D01*
X152594708Y-94874813D01*
X152607779Y-94917905D01*
X152629006Y-94957618D01*
X152657573Y-94992427D01*
X152692382Y-95020994D01*
X152732095Y-95042221D01*
X152775187Y-95055292D01*
X152820000Y-95059706D01*
X153536650Y-95058600D01*
X153593800Y-95001450D01*
X153593800Y-94056200D01*
X153746200Y-94056200D01*
X153746200Y-95001450D01*
X153803350Y-95058600D01*
X154520000Y-95059706D01*
X154564813Y-95055292D01*
X154607905Y-95042221D01*
X154647618Y-95020994D01*
X154682427Y-94992427D01*
X154710994Y-94957618D01*
X154732221Y-94917905D01*
X154745292Y-94874813D01*
X154749706Y-94830000D01*
X154748600Y-94113350D01*
X154691450Y-94056200D01*
X153746200Y-94056200D01*
X153593800Y-94056200D01*
X152648550Y-94056200D01*
X152591400Y-94113350D01*
X152590294Y-94830000D01*
X152018600Y-94830000D01*
X152018600Y-93130000D01*
X152590294Y-93130000D01*
X152591400Y-93846650D01*
X152648550Y-93903800D01*
X153593800Y-93903800D01*
X153593800Y-92958550D01*
X153746200Y-92958550D01*
X153746200Y-93903800D01*
X154691450Y-93903800D01*
X154721483Y-93873767D01*
X155131400Y-93873767D01*
X155131400Y-94086233D01*
X155172850Y-94294616D01*
X155254157Y-94490909D01*
X155372197Y-94667567D01*
X155522433Y-94817803D01*
X155699091Y-94935843D01*
X155895384Y-95017150D01*
X156103767Y-95058600D01*
X156316233Y-95058600D01*
X156524616Y-95017150D01*
X156720909Y-94935843D01*
X156897567Y-94817803D01*
X157047803Y-94667567D01*
X157165843Y-94490909D01*
X157247150Y-94294616D01*
X157288600Y-94086233D01*
X157288600Y-93873767D01*
X157671400Y-93873767D01*
X157671400Y-94086233D01*
X157712850Y-94294616D01*
X157794157Y-94490909D01*
X157912197Y-94667567D01*
X158062433Y-94817803D01*
X158239091Y-94935843D01*
X158435384Y-95017150D01*
X158643767Y-95058600D01*
X158856233Y-95058600D01*
X159064616Y-95017150D01*
X159260909Y-94935843D01*
X159437567Y-94817803D01*
X159587803Y-94667567D01*
X159705843Y-94490909D01*
X159787150Y-94294616D01*
X159828600Y-94086233D01*
X159828600Y-93873767D01*
X160211400Y-93873767D01*
X160211400Y-94086233D01*
X160252850Y-94294616D01*
X160334157Y-94490909D01*
X160452197Y-94667567D01*
X160602433Y-94817803D01*
X160779091Y-94935843D01*
X160975384Y-95017150D01*
X161183767Y-95058600D01*
X161396233Y-95058600D01*
X161604616Y-95017150D01*
X161800909Y-94935843D01*
X161977567Y-94817803D01*
X162127803Y-94667567D01*
X162245843Y-94490909D01*
X162327150Y-94294616D01*
X162368600Y-94086233D01*
X162368600Y-93873767D01*
X162751400Y-93873767D01*
X162751400Y-94086233D01*
X162792850Y-94294616D01*
X162874157Y-94490909D01*
X162992197Y-94667567D01*
X163142433Y-94817803D01*
X163319091Y-94935843D01*
X163515384Y-95017150D01*
X163723767Y-95058600D01*
X163936233Y-95058600D01*
X164144616Y-95017150D01*
X164340909Y-94935843D01*
X164517567Y-94817803D01*
X164667803Y-94667567D01*
X164785843Y-94490909D01*
X164867150Y-94294616D01*
X164908600Y-94086233D01*
X164908600Y-93873767D01*
X165291400Y-93873767D01*
X165291400Y-94086233D01*
X165332850Y-94294616D01*
X165414157Y-94490909D01*
X165532197Y-94667567D01*
X165682433Y-94817803D01*
X165859091Y-94935843D01*
X166055384Y-95017150D01*
X166263767Y-95058600D01*
X166476233Y-95058600D01*
X166684616Y-95017150D01*
X166880909Y-94935843D01*
X167057567Y-94817803D01*
X167207803Y-94667567D01*
X167325843Y-94490909D01*
X167407150Y-94294616D01*
X167448600Y-94086233D01*
X167448600Y-93873767D01*
X167831400Y-93873767D01*
X167831400Y-94086233D01*
X167872850Y-94294616D01*
X167954157Y-94490909D01*
X168072197Y-94667567D01*
X168222433Y-94817803D01*
X168399091Y-94935843D01*
X168595384Y-95017150D01*
X168803767Y-95058600D01*
X169016233Y-95058600D01*
X169224616Y-95017150D01*
X169420909Y-94935843D01*
X169597567Y-94817803D01*
X169747803Y-94667567D01*
X169865843Y-94490909D01*
X169947150Y-94294616D01*
X169988600Y-94086233D01*
X169988600Y-93873767D01*
X170371400Y-93873767D01*
X170371400Y-94086233D01*
X170412850Y-94294616D01*
X170494157Y-94490909D01*
X170612197Y-94667567D01*
X170762433Y-94817803D01*
X170939091Y-94935843D01*
X171135384Y-95017150D01*
X171343767Y-95058600D01*
X171556233Y-95058600D01*
X171764616Y-95017150D01*
X171960909Y-94935843D01*
X172137567Y-94817803D01*
X172287803Y-94667567D01*
X172405843Y-94490909D01*
X172487150Y-94294616D01*
X172528600Y-94086233D01*
X172528600Y-93873767D01*
X172911400Y-93873767D01*
X172911400Y-94086233D01*
X172952850Y-94294616D01*
X173034157Y-94490909D01*
X173152197Y-94667567D01*
X173302433Y-94817803D01*
X173479091Y-94935843D01*
X173675384Y-95017150D01*
X173883767Y-95058600D01*
X174096233Y-95058600D01*
X174304616Y-95017150D01*
X174500909Y-94935843D01*
X174677567Y-94817803D01*
X174827803Y-94667567D01*
X174945843Y-94490909D01*
X175027150Y-94294616D01*
X175068600Y-94086233D01*
X175068600Y-93873767D01*
X175027150Y-93665384D01*
X174945843Y-93469091D01*
X174827803Y-93292433D01*
X174677567Y-93142197D01*
X174500909Y-93024157D01*
X174304616Y-92942850D01*
X174096233Y-92901400D01*
X173883767Y-92901400D01*
X173675384Y-92942850D01*
X173479091Y-93024157D01*
X173302433Y-93142197D01*
X173152197Y-93292433D01*
X173034157Y-93469091D01*
X172952850Y-93665384D01*
X172911400Y-93873767D01*
X172528600Y-93873767D01*
X172487150Y-93665384D01*
X172405843Y-93469091D01*
X172287803Y-93292433D01*
X172137567Y-93142197D01*
X171960909Y-93024157D01*
X171764616Y-92942850D01*
X171556233Y-92901400D01*
X171343767Y-92901400D01*
X171135384Y-92942850D01*
X170939091Y-93024157D01*
X170762433Y-93142197D01*
X170612197Y-93292433D01*
X170494157Y-93469091D01*
X170412850Y-93665384D01*
X170371400Y-93873767D01*
X169988600Y-93873767D01*
X169947150Y-93665384D01*
X169865843Y-93469091D01*
X169747803Y-93292433D01*
X169597567Y-93142197D01*
X169420909Y-93024157D01*
X169224616Y-92942850D01*
X169016233Y-92901400D01*
X168803767Y-92901400D01*
X168595384Y-92942850D01*
X168399091Y-93024157D01*
X168222433Y-93142197D01*
X168072197Y-93292433D01*
X167954157Y-93469091D01*
X167872850Y-93665384D01*
X167831400Y-93873767D01*
X167448600Y-93873767D01*
X167407150Y-93665384D01*
X167325843Y-93469091D01*
X167207803Y-93292433D01*
X167057567Y-93142197D01*
X166880909Y-93024157D01*
X166684616Y-92942850D01*
X166476233Y-92901400D01*
X166263767Y-92901400D01*
X166055384Y-92942850D01*
X165859091Y-93024157D01*
X165682433Y-93142197D01*
X165532197Y-93292433D01*
X165414157Y-93469091D01*
X165332850Y-93665384D01*
X165291400Y-93873767D01*
X164908600Y-93873767D01*
X164867150Y-93665384D01*
X164785843Y-93469091D01*
X164667803Y-93292433D01*
X164517567Y-93142197D01*
X164340909Y-93024157D01*
X164144616Y-92942850D01*
X163936233Y-92901400D01*
X163723767Y-92901400D01*
X163515384Y-92942850D01*
X163319091Y-93024157D01*
X163142433Y-93142197D01*
X162992197Y-93292433D01*
X162874157Y-93469091D01*
X162792850Y-93665384D01*
X162751400Y-93873767D01*
X162368600Y-93873767D01*
X162327150Y-93665384D01*
X162245843Y-93469091D01*
X162127803Y-93292433D01*
X161977567Y-93142197D01*
X161800909Y-93024157D01*
X161604616Y-92942850D01*
X161396233Y-92901400D01*
X161183767Y-92901400D01*
X160975384Y-92942850D01*
X160779091Y-93024157D01*
X160602433Y-93142197D01*
X160452197Y-93292433D01*
X160334157Y-93469091D01*
X160252850Y-93665384D01*
X160211400Y-93873767D01*
X159828600Y-93873767D01*
X159787150Y-93665384D01*
X159705843Y-93469091D01*
X159587803Y-93292433D01*
X159437567Y-93142197D01*
X159260909Y-93024157D01*
X159064616Y-92942850D01*
X158856233Y-92901400D01*
X158643767Y-92901400D01*
X158435384Y-92942850D01*
X158239091Y-93024157D01*
X158062433Y-93142197D01*
X157912197Y-93292433D01*
X157794157Y-93469091D01*
X157712850Y-93665384D01*
X157671400Y-93873767D01*
X157288600Y-93873767D01*
X157247150Y-93665384D01*
X157165843Y-93469091D01*
X157047803Y-93292433D01*
X156897567Y-93142197D01*
X156720909Y-93024157D01*
X156524616Y-92942850D01*
X156316233Y-92901400D01*
X156103767Y-92901400D01*
X155895384Y-92942850D01*
X155699091Y-93024157D01*
X155522433Y-93142197D01*
X155372197Y-93292433D01*
X155254157Y-93469091D01*
X155172850Y-93665384D01*
X155131400Y-93873767D01*
X154721483Y-93873767D01*
X154748600Y-93846650D01*
X154749706Y-93130000D01*
X154745292Y-93085187D01*
X154732221Y-93042095D01*
X154710994Y-93002382D01*
X154682427Y-92967573D01*
X154647618Y-92939006D01*
X154607905Y-92917779D01*
X154564813Y-92904708D01*
X154520000Y-92900294D01*
X153803350Y-92901400D01*
X153746200Y-92958550D01*
X153593800Y-92958550D01*
X153536650Y-92901400D01*
X152820000Y-92900294D01*
X152775187Y-92904708D01*
X152732095Y-92917779D01*
X152692382Y-92939006D01*
X152657573Y-92967573D01*
X152629006Y-93002382D01*
X152607779Y-93042095D01*
X152594708Y-93085187D01*
X152590294Y-93130000D01*
X152018600Y-93130000D01*
X152018600Y-92722406D01*
X152039151Y-92512814D01*
X152096415Y-92323146D01*
X152189433Y-92148205D01*
X152314656Y-91994666D01*
X152467317Y-91868374D01*
X152641602Y-91774139D01*
X152830866Y-91715551D01*
X153039721Y-91693600D01*
X202552594Y-91693600D01*
X202762186Y-91714151D01*
%TA.AperFunction,Conductor*%
D21*
G36*
X202762186Y-91714151D02*
G01*
X202951854Y-91771415D01*
X203126795Y-91864433D01*
X203280334Y-91989656D01*
X203406626Y-92142317D01*
X203500861Y-92316602D01*
X203559449Y-92505866D01*
X203581400Y-92714721D01*
X203581401Y-110477583D01*
X203560849Y-110687186D01*
X203503584Y-110876856D01*
X203410566Y-111051797D01*
X203285344Y-111205334D01*
X203132683Y-111331626D01*
X202958398Y-111425861D01*
X202769134Y-111484449D01*
X202560279Y-111506400D01*
X195078875Y-111506400D01*
X195112696Y-111488322D01*
X195170711Y-111440711D01*
X195182646Y-111426168D01*
X196405475Y-110203340D01*
X196535384Y-110257150D01*
X196743767Y-110298600D01*
X196956233Y-110298600D01*
X197164616Y-110257150D01*
X197360909Y-110175843D01*
X197537567Y-110057803D01*
X197687803Y-109907567D01*
X197805843Y-109730909D01*
X197887150Y-109534616D01*
X197928600Y-109326233D01*
X197928600Y-109113767D01*
X198311400Y-109113767D01*
X198311400Y-109326233D01*
X198352850Y-109534616D01*
X198434157Y-109730909D01*
X198552197Y-109907567D01*
X198702433Y-110057803D01*
X198879091Y-110175843D01*
X199075384Y-110257150D01*
X199283767Y-110298600D01*
X199496233Y-110298600D01*
X199704616Y-110257150D01*
X199900909Y-110175843D01*
X200077567Y-110057803D01*
X200227803Y-109907567D01*
X200345843Y-109730909D01*
X200427150Y-109534616D01*
X200441281Y-109463571D01*
X200879258Y-109463571D01*
X200946966Y-109663880D01*
X201052451Y-109847131D01*
X201191660Y-110006282D01*
X201359243Y-110135217D01*
X201548760Y-110228981D01*
X201686430Y-110270739D01*
X201853800Y-110238604D01*
X201853800Y-109296200D01*
X202006200Y-109296200D01*
X202006200Y-110238604D01*
X202173570Y-110270739D01*
X202311240Y-110228981D01*
X202500757Y-110135217D01*
X202668340Y-110006282D01*
X202807549Y-109847131D01*
X202913034Y-109663880D01*
X202980742Y-109463571D01*
X202948759Y-109296200D01*
X202006200Y-109296200D01*
X201853800Y-109296200D01*
X200911241Y-109296200D01*
X200879258Y-109463571D01*
X200441281Y-109463571D01*
X200468600Y-109326233D01*
X200468600Y-109113767D01*
X200441282Y-108976429D01*
X200879258Y-108976429D01*
X200911241Y-109143800D01*
X201853800Y-109143800D01*
X201853800Y-108201396D01*
X202006200Y-108201396D01*
X202006200Y-109143800D01*
X202948759Y-109143800D01*
X202980742Y-108976429D01*
X202913034Y-108776120D01*
X202807549Y-108592869D01*
X202668340Y-108433718D01*
X202500757Y-108304783D01*
X202311240Y-108211019D01*
X202173570Y-108169261D01*
X202006200Y-108201396D01*
X201853800Y-108201396D01*
X201686430Y-108169261D01*
X201548760Y-108211019D01*
X201359243Y-108304783D01*
X201191660Y-108433718D01*
X201052451Y-108592869D01*
X200946966Y-108776120D01*
X200879258Y-108976429D01*
X200441282Y-108976429D01*
X200427150Y-108905384D01*
X200345843Y-108709091D01*
X200227803Y-108532433D01*
X200077567Y-108382197D01*
X199900909Y-108264157D01*
X199704616Y-108182850D01*
X199496233Y-108141400D01*
X199283767Y-108141400D01*
X199075384Y-108182850D01*
X198879091Y-108264157D01*
X198702433Y-108382197D01*
X198552197Y-108532433D01*
X198434157Y-108709091D01*
X198352850Y-108905384D01*
X198311400Y-109113767D01*
X197928600Y-109113767D01*
X197887150Y-108905384D01*
X197805843Y-108709091D01*
X197687803Y-108532433D01*
X197679797Y-108524427D01*
X200095609Y-106108615D01*
X201341237Y-106108615D01*
X201342700Y-106128423D01*
X201396856Y-106261430D01*
X201475920Y-106381316D01*
X201576853Y-106483474D01*
X201695777Y-106563978D01*
X201828121Y-106619734D01*
X201968800Y-106648600D01*
X202268800Y-106648600D01*
X202268800Y-105996200D01*
X202421200Y-105996200D01*
X202421200Y-106648600D01*
X202721200Y-106648600D01*
X202861879Y-106619734D01*
X202994223Y-106563978D01*
X203113147Y-106483474D01*
X203214080Y-106381316D01*
X203293144Y-106261430D01*
X203347300Y-106128423D01*
X203348763Y-106108615D01*
X203312112Y-105996200D01*
X202421200Y-105996200D01*
X202268800Y-105996200D01*
X201377888Y-105996200D01*
X201341237Y-106108615D01*
X200095609Y-106108615D01*
X200472839Y-105731385D01*
X201341237Y-105731385D01*
X201377888Y-105843800D01*
X202268800Y-105843800D01*
X202268800Y-105191400D01*
X202421200Y-105191400D01*
X202421200Y-105843800D01*
X203312112Y-105843800D01*
X203348763Y-105731385D01*
X203347300Y-105711577D01*
X203293144Y-105578570D01*
X203214080Y-105458684D01*
X203113147Y-105356526D01*
X202994223Y-105276022D01*
X202861879Y-105220266D01*
X202721200Y-105191400D01*
X202421200Y-105191400D01*
X202268800Y-105191400D01*
X201968800Y-105191400D01*
X201828121Y-105220266D01*
X201695777Y-105276022D01*
X201576853Y-105356526D01*
X201475920Y-105458684D01*
X201396856Y-105578570D01*
X201342700Y-105711577D01*
X201341237Y-105731385D01*
X200472839Y-105731385D01*
X202160557Y-104043668D01*
X202173640Y-104032931D01*
X202216490Y-103980718D01*
X202248331Y-103921148D01*
X202267938Y-103856511D01*
X202272900Y-103806134D01*
X202274559Y-103789291D01*
X202272900Y-103772448D01*
X202272900Y-103336758D01*
X202298836Y-103319428D01*
X202379428Y-103238836D01*
X202442749Y-103144070D01*
X202486365Y-103038772D01*
X202508600Y-102926987D01*
X202508600Y-102813013D01*
X202486365Y-102701228D01*
X202442749Y-102595930D01*
X202379428Y-102501164D01*
X202298836Y-102420572D01*
X202204070Y-102357251D01*
X202098772Y-102313635D01*
X201986987Y-102291400D01*
X201873013Y-102291400D01*
X201761228Y-102313635D01*
X201655930Y-102357251D01*
X201561164Y-102420572D01*
X201480572Y-102501164D01*
X201417251Y-102595930D01*
X201373635Y-102701228D01*
X201351400Y-102813013D01*
X201351400Y-102926987D01*
X201373635Y-103038772D01*
X201417251Y-103144070D01*
X201480572Y-103238836D01*
X201561164Y-103319428D01*
X201587101Y-103336758D01*
X201587101Y-103647256D01*
X199390559Y-105843798D01*
X199382113Y-105843798D01*
X199418763Y-105731385D01*
X199417300Y-105711577D01*
X199363144Y-105578570D01*
X199284080Y-105458684D01*
X199183147Y-105356526D01*
X199064223Y-105276022D01*
X198931879Y-105220266D01*
X198791200Y-105191400D01*
X198200628Y-105191400D01*
X198204706Y-105150000D01*
X198203600Y-104983350D01*
X198146450Y-104926200D01*
X197326200Y-104926200D01*
X197326200Y-104946200D01*
X197173800Y-104946200D01*
X197173800Y-104926200D01*
X196353550Y-104926200D01*
X196296400Y-104983350D01*
X196295294Y-105150000D01*
X196299708Y-105194813D01*
X196312779Y-105237905D01*
X196334006Y-105277618D01*
X196362573Y-105312427D01*
X196397382Y-105340994D01*
X196437095Y-105362221D01*
X196480187Y-105375292D01*
X196525000Y-105379706D01*
X197116650Y-105378600D01*
X197173798Y-105321452D01*
X197173798Y-105338286D01*
X197146853Y-105356526D01*
X197045920Y-105458684D01*
X196966856Y-105578570D01*
X196912700Y-105711577D01*
X196911237Y-105731385D01*
X196947888Y-105843800D01*
X198088800Y-105843800D01*
X198088800Y-105823800D01*
X198241200Y-105823800D01*
X198241200Y-105843800D01*
X198261200Y-105843800D01*
X198261200Y-105996200D01*
X198241200Y-105996200D01*
X198241200Y-106648600D01*
X198585758Y-106648600D01*
X197070274Y-108164084D01*
X196956233Y-108141400D01*
X196743767Y-108141400D01*
X196535384Y-108182850D01*
X196405475Y-108236660D01*
X196021000Y-107852186D01*
X196021000Y-106108615D01*
X196911237Y-106108615D01*
X196912700Y-106128423D01*
X196966856Y-106261430D01*
X197045920Y-106381316D01*
X197146853Y-106483474D01*
X197265777Y-106563978D01*
X197398121Y-106619734D01*
X197538800Y-106648600D01*
X198088800Y-106648600D01*
X198088800Y-105996200D01*
X196947888Y-105996200D01*
X196911237Y-106108615D01*
X196021000Y-106108615D01*
X196021000Y-105508709D01*
X196022843Y-105489999D01*
X196021000Y-105471287D01*
X196015487Y-105415311D01*
X195993701Y-105343492D01*
X195958323Y-105277305D01*
X195958322Y-105277303D01*
X195934250Y-105247972D01*
X195910711Y-105219289D01*
X195896175Y-105207360D01*
X194662138Y-103973324D01*
X194648123Y-103947104D01*
X194612440Y-103903625D01*
X194600512Y-103889090D01*
X194585976Y-103877161D01*
X192983600Y-102274786D01*
X192983600Y-102178013D01*
X192961365Y-102066228D01*
X192917749Y-101960930D01*
X192854428Y-101866164D01*
X192773836Y-101785572D01*
X192679070Y-101722251D01*
X192573772Y-101678635D01*
X192461987Y-101656400D01*
X192365215Y-101656400D01*
X192052645Y-101343831D01*
X192040711Y-101329289D01*
X191982696Y-101281678D01*
X191916508Y-101246299D01*
X191844689Y-101224513D01*
X191788713Y-101219000D01*
X191788710Y-101219000D01*
X191770000Y-101217157D01*
X191751290Y-101219000D01*
X180777264Y-101219000D01*
X180708836Y-101150572D01*
X180614070Y-101087251D01*
X180508772Y-101043635D01*
X180396987Y-101021400D01*
X180283013Y-101021400D01*
X180171228Y-101043635D01*
X180065930Y-101087251D01*
X179971164Y-101150572D01*
X179890572Y-101231164D01*
X179827251Y-101325930D01*
X179783635Y-101431228D01*
X179761400Y-101543013D01*
X179761400Y-101656987D01*
X179783635Y-101768772D01*
X179827251Y-101874070D01*
X179890572Y-101968836D01*
X179971164Y-102049428D01*
X180065930Y-102112749D01*
X180171228Y-102156365D01*
X180283013Y-102178600D01*
X180396987Y-102178600D01*
X180508772Y-102156365D01*
X180614070Y-102112749D01*
X180708836Y-102049428D01*
X180777264Y-101981000D01*
X191612186Y-101981000D01*
X191826400Y-102195215D01*
X191826400Y-102291987D01*
X191848635Y-102403772D01*
X191892251Y-102509070D01*
X191955572Y-102603836D01*
X192036164Y-102684428D01*
X192130930Y-102747749D01*
X192236228Y-102791365D01*
X192348013Y-102813600D01*
X192444786Y-102813600D01*
X193997466Y-104366281D01*
X194011479Y-104392497D01*
X194059090Y-104450512D01*
X194073632Y-104462446D01*
X195259000Y-105647815D01*
X195259001Y-107991280D01*
X195257157Y-108010000D01*
X195264514Y-108084688D01*
X195286299Y-108156507D01*
X195321678Y-108222696D01*
X195351010Y-108258437D01*
X195369290Y-108280711D01*
X195383827Y-108292641D01*
X195866660Y-108775475D01*
X195812850Y-108905384D01*
X195771400Y-109113767D01*
X195771400Y-109326233D01*
X195812850Y-109534616D01*
X195866660Y-109664525D01*
X194742186Y-110789000D01*
X153237815Y-110789000D01*
X152781000Y-110332186D01*
X152781000Y-110295865D01*
X152820000Y-110299706D01*
X153536650Y-110298600D01*
X153593800Y-110241450D01*
X153593800Y-109296200D01*
X153746200Y-109296200D01*
X153746200Y-110241450D01*
X153803350Y-110298600D01*
X154520000Y-110299706D01*
X154564813Y-110295292D01*
X154607905Y-110282221D01*
X154647618Y-110260994D01*
X154682427Y-110232427D01*
X154710994Y-110197618D01*
X154732221Y-110157905D01*
X154745292Y-110114813D01*
X154749706Y-110070000D01*
X154748600Y-109353350D01*
X154691450Y-109296200D01*
X153746200Y-109296200D01*
X153593800Y-109296200D01*
X153573800Y-109296200D01*
X153573800Y-109143800D01*
X153593800Y-109143800D01*
X153593800Y-108198550D01*
X153746200Y-108198550D01*
X153746200Y-109143800D01*
X154691450Y-109143800D01*
X154721483Y-109113767D01*
X155131400Y-109113767D01*
X155131400Y-109326233D01*
X155172850Y-109534616D01*
X155254157Y-109730909D01*
X155372197Y-109907567D01*
X155522433Y-110057803D01*
X155699091Y-110175843D01*
X155895384Y-110257150D01*
X156103767Y-110298600D01*
X156316233Y-110298600D01*
X156524616Y-110257150D01*
X156720909Y-110175843D01*
X156897567Y-110057803D01*
X157047803Y-109907567D01*
X157165843Y-109730909D01*
X157247150Y-109534616D01*
X157288600Y-109326233D01*
X157288600Y-109113767D01*
X157671400Y-109113767D01*
X157671400Y-109326233D01*
X157712850Y-109534616D01*
X157794157Y-109730909D01*
X157912197Y-109907567D01*
X158062433Y-110057803D01*
X158239091Y-110175843D01*
X158435384Y-110257150D01*
X158643767Y-110298600D01*
X158856233Y-110298600D01*
X159064616Y-110257150D01*
X159260909Y-110175843D01*
X159437567Y-110057803D01*
X159587803Y-109907567D01*
X159705843Y-109730909D01*
X159787150Y-109534616D01*
X159828600Y-109326233D01*
X159828600Y-109113767D01*
X160211400Y-109113767D01*
X160211400Y-109326233D01*
X160252850Y-109534616D01*
X160334157Y-109730909D01*
X160452197Y-109907567D01*
X160602433Y-110057803D01*
X160779091Y-110175843D01*
X160975384Y-110257150D01*
X161183767Y-110298600D01*
X161396233Y-110298600D01*
X161604616Y-110257150D01*
X161800909Y-110175843D01*
X161977567Y-110057803D01*
X162127803Y-109907567D01*
X162245843Y-109730909D01*
X162327150Y-109534616D01*
X162368600Y-109326233D01*
X162368600Y-109113767D01*
X162751400Y-109113767D01*
X162751400Y-109326233D01*
X162792850Y-109534616D01*
X162874157Y-109730909D01*
X162992197Y-109907567D01*
X163142433Y-110057803D01*
X163319091Y-110175843D01*
X163515384Y-110257150D01*
X163723767Y-110298600D01*
X163936233Y-110298600D01*
X164144616Y-110257150D01*
X164340909Y-110175843D01*
X164517567Y-110057803D01*
X164667803Y-109907567D01*
X164785843Y-109730909D01*
X164867150Y-109534616D01*
X164908600Y-109326233D01*
X164908600Y-109113767D01*
X165291400Y-109113767D01*
X165291400Y-109326233D01*
X165332850Y-109534616D01*
X165414157Y-109730909D01*
X165532197Y-109907567D01*
X165682433Y-110057803D01*
X165859091Y-110175843D01*
X166055384Y-110257150D01*
X166263767Y-110298600D01*
X166476233Y-110298600D01*
X166684616Y-110257150D01*
X166880909Y-110175843D01*
X167057567Y-110057803D01*
X167207803Y-109907567D01*
X167325843Y-109730909D01*
X167407150Y-109534616D01*
X167448600Y-109326233D01*
X167448600Y-109113767D01*
X167831400Y-109113767D01*
X167831400Y-109326233D01*
X167872850Y-109534616D01*
X167954157Y-109730909D01*
X168072197Y-109907567D01*
X168222433Y-110057803D01*
X168399091Y-110175843D01*
X168595384Y-110257150D01*
X168803767Y-110298600D01*
X169016233Y-110298600D01*
X169224616Y-110257150D01*
X169420909Y-110175843D01*
X169597567Y-110057803D01*
X169747803Y-109907567D01*
X169865843Y-109730909D01*
X169947150Y-109534616D01*
X169988600Y-109326233D01*
X169988600Y-109113767D01*
X170371400Y-109113767D01*
X170371400Y-109326233D01*
X170412850Y-109534616D01*
X170494157Y-109730909D01*
X170612197Y-109907567D01*
X170762433Y-110057803D01*
X170939091Y-110175843D01*
X171135384Y-110257150D01*
X171343767Y-110298600D01*
X171556233Y-110298600D01*
X171764616Y-110257150D01*
X171960909Y-110175843D01*
X172137567Y-110057803D01*
X172287803Y-109907567D01*
X172405843Y-109730909D01*
X172487150Y-109534616D01*
X172528600Y-109326233D01*
X172528600Y-109113767D01*
X172487150Y-108905384D01*
X172405843Y-108709091D01*
X172287803Y-108532433D01*
X172137567Y-108382197D01*
X171960909Y-108264157D01*
X171764616Y-108182850D01*
X171556233Y-108141400D01*
X171343767Y-108141400D01*
X171135384Y-108182850D01*
X170939091Y-108264157D01*
X170762433Y-108382197D01*
X170612197Y-108532433D01*
X170494157Y-108709091D01*
X170412850Y-108905384D01*
X170371400Y-109113767D01*
X169988600Y-109113767D01*
X169947150Y-108905384D01*
X169865843Y-108709091D01*
X169747803Y-108532433D01*
X169597567Y-108382197D01*
X169420909Y-108264157D01*
X169224616Y-108182850D01*
X169016233Y-108141400D01*
X168803767Y-108141400D01*
X168595384Y-108182850D01*
X168399091Y-108264157D01*
X168222433Y-108382197D01*
X168072197Y-108532433D01*
X167954157Y-108709091D01*
X167872850Y-108905384D01*
X167831400Y-109113767D01*
X167448600Y-109113767D01*
X167407150Y-108905384D01*
X167325843Y-108709091D01*
X167207803Y-108532433D01*
X167057567Y-108382197D01*
X166880909Y-108264157D01*
X166684616Y-108182850D01*
X166476233Y-108141400D01*
X166263767Y-108141400D01*
X166055384Y-108182850D01*
X165859091Y-108264157D01*
X165682433Y-108382197D01*
X165532197Y-108532433D01*
X165414157Y-108709091D01*
X165332850Y-108905384D01*
X165291400Y-109113767D01*
X164908600Y-109113767D01*
X164867150Y-108905384D01*
X164785843Y-108709091D01*
X164667803Y-108532433D01*
X164517567Y-108382197D01*
X164340909Y-108264157D01*
X164144616Y-108182850D01*
X163936233Y-108141400D01*
X163723767Y-108141400D01*
X163515384Y-108182850D01*
X163319091Y-108264157D01*
X163142433Y-108382197D01*
X162992197Y-108532433D01*
X162874157Y-108709091D01*
X162792850Y-108905384D01*
X162751400Y-109113767D01*
X162368600Y-109113767D01*
X162327150Y-108905384D01*
X162245843Y-108709091D01*
X162127803Y-108532433D01*
X161977567Y-108382197D01*
X161800909Y-108264157D01*
X161604616Y-108182850D01*
X161396233Y-108141400D01*
X161183767Y-108141400D01*
X160975384Y-108182850D01*
X160779091Y-108264157D01*
X160602433Y-108382197D01*
X160452197Y-108532433D01*
X160334157Y-108709091D01*
X160252850Y-108905384D01*
X160211400Y-109113767D01*
X159828600Y-109113767D01*
X159787150Y-108905384D01*
X159705843Y-108709091D01*
X159587803Y-108532433D01*
X159437567Y-108382197D01*
X159260909Y-108264157D01*
X159064616Y-108182850D01*
X158856233Y-108141400D01*
X158643767Y-108141400D01*
X158435384Y-108182850D01*
X158239091Y-108264157D01*
X158062433Y-108382197D01*
X157912197Y-108532433D01*
X157794157Y-108709091D01*
X157712850Y-108905384D01*
X157671400Y-109113767D01*
X157288600Y-109113767D01*
X157247150Y-108905384D01*
X157177559Y-108737375D01*
X158275333Y-107639601D01*
X174776464Y-107639601D01*
X174793299Y-107641259D01*
X174810134Y-107639601D01*
X174810142Y-107639601D01*
X174860519Y-107634639D01*
X174925156Y-107615032D01*
X174984726Y-107583191D01*
X175036939Y-107540341D01*
X175047680Y-107527253D01*
X175794582Y-106780351D01*
X175816507Y-106773701D01*
X175882696Y-106738322D01*
X175926175Y-106702639D01*
X177574639Y-105054176D01*
X177610322Y-105010697D01*
X177645700Y-104944508D01*
X177667486Y-104872690D01*
X177674842Y-104798001D01*
X177667486Y-104723312D01*
X177645700Y-104651493D01*
X177634900Y-104631287D01*
X177634900Y-103520033D01*
X177712419Y-103442515D01*
X177743013Y-103448600D01*
X177856987Y-103448600D01*
X177887581Y-103442515D01*
X178162324Y-103717258D01*
X178173061Y-103730341D01*
X178208440Y-103759376D01*
X178225274Y-103773191D01*
X178284844Y-103805032D01*
X178349481Y-103824639D01*
X178416701Y-103831260D01*
X178433544Y-103829601D01*
X178923303Y-103829601D01*
X178878573Y-103853510D01*
X178826360Y-103896360D01*
X178815623Y-103909443D01*
X174472625Y-108252442D01*
X174304616Y-108182850D01*
X174096233Y-108141400D01*
X173883767Y-108141400D01*
X173675384Y-108182850D01*
X173479091Y-108264157D01*
X173302433Y-108382197D01*
X173152197Y-108532433D01*
X173034157Y-108709091D01*
X172952850Y-108905384D01*
X172911400Y-109113767D01*
X172911400Y-109326233D01*
X172952850Y-109534616D01*
X173034157Y-109730909D01*
X173152197Y-109907567D01*
X173302433Y-110057803D01*
X173479091Y-110175843D01*
X173675384Y-110257150D01*
X173883767Y-110298600D01*
X174096233Y-110298600D01*
X174304616Y-110257150D01*
X174500909Y-110175843D01*
X174677567Y-110057803D01*
X174827803Y-109907567D01*
X174945843Y-109730909D01*
X175027150Y-109534616D01*
X175068600Y-109326233D01*
X175068600Y-109113767D01*
X175027150Y-108905384D01*
X174957558Y-108737375D01*
X179212034Y-104482900D01*
X179873242Y-104482900D01*
X179890572Y-104508836D01*
X179971164Y-104589428D01*
X180065930Y-104652749D01*
X180171228Y-104696365D01*
X180283013Y-104718600D01*
X180396987Y-104718600D01*
X180508772Y-104696365D01*
X180611078Y-104653988D01*
X177012625Y-108252442D01*
X176844616Y-108182850D01*
X176636233Y-108141400D01*
X176423767Y-108141400D01*
X176215384Y-108182850D01*
X176019091Y-108264157D01*
X175842433Y-108382197D01*
X175692197Y-108532433D01*
X175574157Y-108709091D01*
X175492850Y-108905384D01*
X175451400Y-109113767D01*
X175451400Y-109326233D01*
X175492850Y-109534616D01*
X175574157Y-109730909D01*
X175692197Y-109907567D01*
X175842433Y-110057803D01*
X176019091Y-110175843D01*
X176215384Y-110257150D01*
X176423767Y-110298600D01*
X176636233Y-110298600D01*
X176844616Y-110257150D01*
X177040909Y-110175843D01*
X177217567Y-110057803D01*
X177367803Y-109907567D01*
X177485843Y-109730909D01*
X177567150Y-109534616D01*
X177608600Y-109326233D01*
X177608600Y-109113767D01*
X177991400Y-109113767D01*
X177991400Y-109326233D01*
X178032850Y-109534616D01*
X178114157Y-109730909D01*
X178232197Y-109907567D01*
X178382433Y-110057803D01*
X178559091Y-110175843D01*
X178755384Y-110257150D01*
X178963767Y-110298600D01*
X179176233Y-110298600D01*
X179384616Y-110257150D01*
X179580909Y-110175843D01*
X179757567Y-110057803D01*
X179907803Y-109907567D01*
X180025843Y-109730909D01*
X180107150Y-109534616D01*
X180148600Y-109326233D01*
X180148600Y-109113767D01*
X180531400Y-109113767D01*
X180531400Y-109326233D01*
X180572850Y-109534616D01*
X180654157Y-109730909D01*
X180772197Y-109907567D01*
X180922433Y-110057803D01*
X181099091Y-110175843D01*
X181295384Y-110257150D01*
X181503767Y-110298600D01*
X181716233Y-110298600D01*
X181924616Y-110257150D01*
X182120909Y-110175843D01*
X182297567Y-110057803D01*
X182447803Y-109907567D01*
X182565843Y-109730909D01*
X182647150Y-109534616D01*
X182688600Y-109326233D01*
X182688600Y-109113767D01*
X183071400Y-109113767D01*
X183071400Y-109326233D01*
X183112850Y-109534616D01*
X183194157Y-109730909D01*
X183312197Y-109907567D01*
X183462433Y-110057803D01*
X183639091Y-110175843D01*
X183835384Y-110257150D01*
X184043767Y-110298600D01*
X184256233Y-110298600D01*
X184464616Y-110257150D01*
X184660909Y-110175843D01*
X184837567Y-110057803D01*
X184987803Y-109907567D01*
X185105843Y-109730909D01*
X185187150Y-109534616D01*
X185228600Y-109326233D01*
X185228600Y-109113767D01*
X185611400Y-109113767D01*
X185611400Y-109326233D01*
X185652850Y-109534616D01*
X185734157Y-109730909D01*
X185852197Y-109907567D01*
X186002433Y-110057803D01*
X186179091Y-110175843D01*
X186375384Y-110257150D01*
X186583767Y-110298600D01*
X186796233Y-110298600D01*
X187004616Y-110257150D01*
X187200909Y-110175843D01*
X187377567Y-110057803D01*
X187527803Y-109907567D01*
X187645843Y-109730909D01*
X187727150Y-109534616D01*
X187768600Y-109326233D01*
X187768600Y-109113767D01*
X188151400Y-109113767D01*
X188151400Y-109326233D01*
X188192850Y-109534616D01*
X188274157Y-109730909D01*
X188392197Y-109907567D01*
X188542433Y-110057803D01*
X188719091Y-110175843D01*
X188915384Y-110257150D01*
X189123767Y-110298600D01*
X189336233Y-110298600D01*
X189544616Y-110257150D01*
X189740909Y-110175843D01*
X189917567Y-110057803D01*
X190067803Y-109907567D01*
X190185843Y-109730909D01*
X190267150Y-109534616D01*
X190308600Y-109326233D01*
X190308600Y-109113767D01*
X190691400Y-109113767D01*
X190691400Y-109326233D01*
X190732850Y-109534616D01*
X190814157Y-109730909D01*
X190932197Y-109907567D01*
X191082433Y-110057803D01*
X191259091Y-110175843D01*
X191455384Y-110257150D01*
X191663767Y-110298600D01*
X191876233Y-110298600D01*
X192084616Y-110257150D01*
X192280909Y-110175843D01*
X192457567Y-110057803D01*
X192607803Y-109907567D01*
X192725843Y-109730909D01*
X192807150Y-109534616D01*
X192848600Y-109326233D01*
X192848600Y-109113767D01*
X193231400Y-109113767D01*
X193231400Y-109326233D01*
X193272850Y-109534616D01*
X193354157Y-109730909D01*
X193472197Y-109907567D01*
X193622433Y-110057803D01*
X193799091Y-110175843D01*
X193995384Y-110257150D01*
X194203767Y-110298600D01*
X194416233Y-110298600D01*
X194624616Y-110257150D01*
X194820909Y-110175843D01*
X194997567Y-110057803D01*
X195147803Y-109907567D01*
X195265843Y-109730909D01*
X195347150Y-109534616D01*
X195388600Y-109326233D01*
X195388600Y-109113767D01*
X195347150Y-108905384D01*
X195265843Y-108709091D01*
X195147803Y-108532433D01*
X194997567Y-108382197D01*
X194820909Y-108264157D01*
X194624616Y-108182850D01*
X194416233Y-108141400D01*
X194203767Y-108141400D01*
X193995384Y-108182850D01*
X193799091Y-108264157D01*
X193622433Y-108382197D01*
X193472197Y-108532433D01*
X193354157Y-108709091D01*
X193272850Y-108905384D01*
X193231400Y-109113767D01*
X192848600Y-109113767D01*
X192807150Y-108905384D01*
X192725843Y-108709091D01*
X192607803Y-108532433D01*
X192457567Y-108382197D01*
X192280909Y-108264157D01*
X192084616Y-108182850D01*
X191876233Y-108141400D01*
X191663767Y-108141400D01*
X191455384Y-108182850D01*
X191259091Y-108264157D01*
X191082433Y-108382197D01*
X190932197Y-108532433D01*
X190814157Y-108709091D01*
X190732850Y-108905384D01*
X190691400Y-109113767D01*
X190308600Y-109113767D01*
X190267150Y-108905384D01*
X190185843Y-108709091D01*
X190067803Y-108532433D01*
X189917567Y-108382197D01*
X189740909Y-108264157D01*
X189544616Y-108182850D01*
X189336233Y-108141400D01*
X189123767Y-108141400D01*
X188915384Y-108182850D01*
X188719091Y-108264157D01*
X188542433Y-108382197D01*
X188392197Y-108532433D01*
X188274157Y-108709091D01*
X188192850Y-108905384D01*
X188151400Y-109113767D01*
X187768600Y-109113767D01*
X187727150Y-108905384D01*
X187645843Y-108709091D01*
X187527803Y-108532433D01*
X187377567Y-108382197D01*
X187200909Y-108264157D01*
X187004616Y-108182850D01*
X186796233Y-108141400D01*
X186583767Y-108141400D01*
X186375384Y-108182850D01*
X186179091Y-108264157D01*
X186002433Y-108382197D01*
X185852197Y-108532433D01*
X185734157Y-108709091D01*
X185652850Y-108905384D01*
X185611400Y-109113767D01*
X185228600Y-109113767D01*
X185187150Y-108905384D01*
X185105843Y-108709091D01*
X184987803Y-108532433D01*
X184837567Y-108382197D01*
X184660909Y-108264157D01*
X184464616Y-108182850D01*
X184256233Y-108141400D01*
X184043767Y-108141400D01*
X183835384Y-108182850D01*
X183639091Y-108264157D01*
X183462433Y-108382197D01*
X183312197Y-108532433D01*
X183194157Y-108709091D01*
X183112850Y-108905384D01*
X183071400Y-109113767D01*
X182688600Y-109113767D01*
X182647150Y-108905384D01*
X182565843Y-108709091D01*
X182447803Y-108532433D01*
X182297567Y-108382197D01*
X182120909Y-108264157D01*
X181924616Y-108182850D01*
X181716233Y-108141400D01*
X181503767Y-108141400D01*
X181295384Y-108182850D01*
X181099091Y-108264157D01*
X180922433Y-108382197D01*
X180772197Y-108532433D01*
X180654157Y-108709091D01*
X180572850Y-108905384D01*
X180531400Y-109113767D01*
X180148600Y-109113767D01*
X180107150Y-108905384D01*
X180025843Y-108709091D01*
X179907803Y-108532433D01*
X179757567Y-108382197D01*
X179580909Y-108264157D01*
X179384616Y-108182850D01*
X179176233Y-108141400D01*
X178963767Y-108141400D01*
X178755384Y-108182850D01*
X178559091Y-108264157D01*
X178382433Y-108382197D01*
X178232197Y-108532433D01*
X178114157Y-108709091D01*
X178032850Y-108905384D01*
X177991400Y-109113767D01*
X177608600Y-109113767D01*
X177567150Y-108905384D01*
X177497558Y-108737375D01*
X181522419Y-104712515D01*
X181553013Y-104718600D01*
X181666987Y-104718600D01*
X181778772Y-104696365D01*
X181884070Y-104652749D01*
X181978836Y-104589428D01*
X182059428Y-104508836D01*
X182122749Y-104414070D01*
X182166365Y-104308772D01*
X182188600Y-104196987D01*
X182188600Y-104083013D01*
X182166365Y-103971228D01*
X182122749Y-103865930D01*
X182070430Y-103787630D01*
X182097444Y-103773191D01*
X182149657Y-103730341D01*
X182160398Y-103717253D01*
X182918752Y-102958900D01*
X188509242Y-102958900D01*
X188526572Y-102984836D01*
X188607164Y-103065428D01*
X188701930Y-103128749D01*
X188807228Y-103172365D01*
X188919013Y-103194600D01*
X189032987Y-103194600D01*
X189144772Y-103172365D01*
X189250070Y-103128749D01*
X189344836Y-103065428D01*
X189425428Y-102984836D01*
X189488749Y-102890070D01*
X189532365Y-102784772D01*
X189554600Y-102672987D01*
X189554600Y-102559013D01*
X189532365Y-102447228D01*
X189488749Y-102341930D01*
X189425428Y-102247164D01*
X189344836Y-102166572D01*
X189250070Y-102103251D01*
X189144772Y-102059635D01*
X189032987Y-102037400D01*
X188919013Y-102037400D01*
X188807228Y-102059635D01*
X188701930Y-102103251D01*
X188607164Y-102166572D01*
X188526572Y-102247164D01*
X188509242Y-102273100D01*
X182793552Y-102273100D01*
X182776717Y-102271442D01*
X182759882Y-102273100D01*
X182759875Y-102273100D01*
X182709498Y-102278062D01*
X182644861Y-102297669D01*
X182585291Y-102329510D01*
X182533078Y-102372360D01*
X182522341Y-102385443D01*
X181763984Y-103143801D01*
X178558735Y-103143801D01*
X178372515Y-102957581D01*
X178378600Y-102926987D01*
X178378600Y-102813013D01*
X178356365Y-102701228D01*
X178312749Y-102595930D01*
X178249428Y-102501164D01*
X178168836Y-102420572D01*
X178074070Y-102357251D01*
X177968772Y-102313635D01*
X177856987Y-102291400D01*
X177743013Y-102291400D01*
X177631228Y-102313635D01*
X177525930Y-102357251D01*
X177431164Y-102420572D01*
X177350572Y-102501164D01*
X177287251Y-102595930D01*
X177243635Y-102701228D01*
X177221400Y-102813013D01*
X177221400Y-102926987D01*
X177227485Y-102957581D01*
X177061443Y-103123624D01*
X177048361Y-103134360D01*
X177005511Y-103186573D01*
X176984815Y-103225292D01*
X176973670Y-103246143D01*
X176954062Y-103310781D01*
X176947442Y-103378000D01*
X176949101Y-103394845D01*
X176949100Y-104602085D01*
X175387361Y-106163825D01*
X175351678Y-106207304D01*
X175316299Y-106273493D01*
X175309649Y-106295418D01*
X174651266Y-106953801D01*
X163707860Y-106953801D01*
X163751365Y-106848772D01*
X163773600Y-106736987D01*
X163773600Y-106623013D01*
X163767514Y-106592419D01*
X163972033Y-106387900D01*
X172888242Y-106387900D01*
X172905572Y-106413836D01*
X172986164Y-106494428D01*
X173080930Y-106557749D01*
X173186228Y-106601365D01*
X173298013Y-106623600D01*
X173411987Y-106623600D01*
X173523772Y-106601365D01*
X173629070Y-106557749D01*
X173723836Y-106494428D01*
X173804428Y-106413836D01*
X173867749Y-106319070D01*
X173911365Y-106213772D01*
X173933600Y-106101987D01*
X173933600Y-105988013D01*
X173911365Y-105876228D01*
X173867749Y-105770930D01*
X173804428Y-105676164D01*
X173723836Y-105595572D01*
X173629070Y-105532251D01*
X173523772Y-105488635D01*
X173411987Y-105466400D01*
X173298013Y-105466400D01*
X173186228Y-105488635D01*
X173080930Y-105532251D01*
X172986164Y-105595572D01*
X172905572Y-105676164D01*
X172888242Y-105702100D01*
X163846843Y-105702100D01*
X163830000Y-105700441D01*
X163813157Y-105702100D01*
X163762780Y-105707062D01*
X163698143Y-105726669D01*
X163638573Y-105758510D01*
X163586360Y-105801360D01*
X163575619Y-105814448D01*
X163282581Y-106107486D01*
X163251987Y-106101400D01*
X163138013Y-106101400D01*
X163026228Y-106123635D01*
X162920930Y-106167251D01*
X162826164Y-106230572D01*
X162745572Y-106311164D01*
X162728242Y-106337100D01*
X161121758Y-106337100D01*
X161104428Y-106311164D01*
X161023836Y-106230572D01*
X160997900Y-106213242D01*
X160997900Y-99526758D01*
X161023836Y-99509428D01*
X161104428Y-99428836D01*
X161167749Y-99334070D01*
X161211365Y-99228772D01*
X161233600Y-99116987D01*
X161233600Y-99003013D01*
X161211365Y-98891228D01*
X161167749Y-98785930D01*
X161104428Y-98691164D01*
X161023836Y-98610572D01*
X160929070Y-98547251D01*
X160823772Y-98503635D01*
X160711987Y-98481400D01*
X160598013Y-98481400D01*
X160486228Y-98503635D01*
X160380930Y-98547251D01*
X160286164Y-98610572D01*
X160205572Y-98691164D01*
X160142251Y-98785930D01*
X160098635Y-98891228D01*
X160076400Y-99003013D01*
X160076400Y-99116987D01*
X160098635Y-99228772D01*
X160142251Y-99334070D01*
X160205572Y-99428836D01*
X160286164Y-99509428D01*
X160312101Y-99526759D01*
X160312100Y-106213242D01*
X160286164Y-106230572D01*
X160205572Y-106311164D01*
X160142251Y-106405930D01*
X160098635Y-106511228D01*
X160076400Y-106623013D01*
X160076400Y-106736987D01*
X160098635Y-106848772D01*
X160142140Y-106953801D01*
X158150142Y-106953801D01*
X158133299Y-106952142D01*
X158116456Y-106953801D01*
X158066079Y-106958763D01*
X158001442Y-106978370D01*
X157941872Y-107010211D01*
X157889659Y-107053061D01*
X157878922Y-107066144D01*
X156692625Y-108252441D01*
X156524616Y-108182850D01*
X156316233Y-108141400D01*
X156103767Y-108141400D01*
X155895384Y-108182850D01*
X155699091Y-108264157D01*
X155522433Y-108382197D01*
X155372197Y-108532433D01*
X155254157Y-108709091D01*
X155172850Y-108905384D01*
X155131400Y-109113767D01*
X154721483Y-109113767D01*
X154748600Y-109086650D01*
X154749706Y-108370000D01*
X154745292Y-108325187D01*
X154732221Y-108282095D01*
X154710994Y-108242382D01*
X154682427Y-108207573D01*
X154647618Y-108179006D01*
X154607905Y-108157779D01*
X154564813Y-108144708D01*
X154520000Y-108140294D01*
X153803350Y-108141400D01*
X153746200Y-108198550D01*
X153593800Y-108198550D01*
X153536650Y-108141400D01*
X152820000Y-108140294D01*
X152781000Y-108144135D01*
X152781000Y-105189207D01*
X152928767Y-105218600D01*
X153141233Y-105218600D01*
X153349616Y-105177150D01*
X153545909Y-105095843D01*
X153722567Y-104977803D01*
X153872803Y-104827567D01*
X153990843Y-104650909D01*
X154072150Y-104454616D01*
X154113600Y-104246233D01*
X154113600Y-104033767D01*
X154072150Y-103825384D01*
X153990843Y-103629091D01*
X153872803Y-103452433D01*
X153722567Y-103302197D01*
X153704314Y-103290000D01*
X154495294Y-103290000D01*
X154495294Y-104990000D01*
X154499708Y-105034813D01*
X154512779Y-105077905D01*
X154534006Y-105117618D01*
X154562573Y-105152427D01*
X154597382Y-105180994D01*
X154637095Y-105202221D01*
X154680187Y-105215292D01*
X154725000Y-105219706D01*
X156425000Y-105219706D01*
X156469813Y-105215292D01*
X156512905Y-105202221D01*
X156552618Y-105180994D01*
X156587427Y-105152427D01*
X156615994Y-105117618D01*
X156637221Y-105077905D01*
X156650292Y-105034813D01*
X156654706Y-104990000D01*
X156654706Y-103290000D01*
X156650292Y-103245187D01*
X156637221Y-103202095D01*
X156615994Y-103162382D01*
X156587427Y-103127573D01*
X156552618Y-103099006D01*
X156512905Y-103077779D01*
X156469813Y-103064708D01*
X156425000Y-103060294D01*
X154725000Y-103060294D01*
X154680187Y-103064708D01*
X154637095Y-103077779D01*
X154597382Y-103099006D01*
X154562573Y-103127573D01*
X154534006Y-103162382D01*
X154512779Y-103202095D01*
X154499708Y-103245187D01*
X154495294Y-103290000D01*
X153704314Y-103290000D01*
X153545909Y-103184157D01*
X153349616Y-103102850D01*
X153141233Y-103061400D01*
X152928767Y-103061400D01*
X152720384Y-103102850D01*
X152524091Y-103184157D01*
X152347433Y-103302197D01*
X152197197Y-103452433D01*
X152079157Y-103629091D01*
X152018600Y-103775289D01*
X152018600Y-101964711D01*
X152079157Y-102110909D01*
X152197197Y-102287567D01*
X152347433Y-102437803D01*
X152524091Y-102555843D01*
X152720384Y-102637150D01*
X152928767Y-102678600D01*
X153141233Y-102678600D01*
X153349616Y-102637150D01*
X153545909Y-102555843D01*
X153722567Y-102437803D01*
X153872803Y-102287567D01*
X153990843Y-102110909D01*
X154072150Y-101914616D01*
X154113600Y-101706233D01*
X154113600Y-101493767D01*
X154072150Y-101285384D01*
X154002558Y-101117375D01*
X154293734Y-100826199D01*
X154823431Y-100826199D01*
X154737197Y-100912433D01*
X154619157Y-101089091D01*
X154537850Y-101285384D01*
X154496400Y-101493767D01*
X154496400Y-101706233D01*
X154537850Y-101914616D01*
X154619157Y-102110909D01*
X154737197Y-102287567D01*
X154887433Y-102437803D01*
X155064091Y-102555843D01*
X155260384Y-102637150D01*
X155468767Y-102678600D01*
X155681233Y-102678600D01*
X155889616Y-102637150D01*
X156085909Y-102555843D01*
X156262567Y-102437803D01*
X156412803Y-102287567D01*
X156530843Y-102110909D01*
X156612150Y-101914616D01*
X156629986Y-101824947D01*
X160142034Y-98312900D01*
X161967967Y-98312900D01*
X164625623Y-100970557D01*
X164636360Y-100983640D01*
X164649442Y-100994376D01*
X164649443Y-100994377D01*
X164688573Y-101026490D01*
X164748143Y-101058331D01*
X164812780Y-101077938D01*
X164880000Y-101084559D01*
X164896843Y-101082900D01*
X175263165Y-101082900D01*
X175280000Y-101084558D01*
X175296835Y-101082900D01*
X175296843Y-101082900D01*
X175347220Y-101077938D01*
X175411857Y-101058331D01*
X175471427Y-101026490D01*
X175523640Y-100983640D01*
X175534381Y-100970552D01*
X177102033Y-99402900D01*
X178603242Y-99402900D01*
X178620572Y-99428836D01*
X178701164Y-99509428D01*
X178795930Y-99572749D01*
X178901228Y-99616365D01*
X179013013Y-99638600D01*
X179126987Y-99638600D01*
X179238772Y-99616365D01*
X179344070Y-99572749D01*
X179438836Y-99509428D01*
X179519428Y-99428836D01*
X179582749Y-99334070D01*
X179626365Y-99228772D01*
X179648600Y-99116987D01*
X179648600Y-99003013D01*
X179626365Y-98891228D01*
X179582860Y-98786199D01*
X180851266Y-98786199D01*
X181037485Y-98972419D01*
X181031400Y-99003013D01*
X181031400Y-99116987D01*
X181053635Y-99228772D01*
X181097251Y-99334070D01*
X181160572Y-99428836D01*
X181241164Y-99509428D01*
X181335930Y-99572749D01*
X181441228Y-99616365D01*
X181553013Y-99638600D01*
X181666987Y-99638600D01*
X181778772Y-99616365D01*
X181884070Y-99572749D01*
X181978836Y-99509428D01*
X182059428Y-99428836D01*
X182122749Y-99334070D01*
X182166365Y-99228772D01*
X182188600Y-99116987D01*
X182188600Y-99003013D01*
X182166365Y-98891228D01*
X182122749Y-98785930D01*
X182059428Y-98691164D01*
X181978836Y-98610572D01*
X181884070Y-98547251D01*
X181778772Y-98503635D01*
X181666987Y-98481400D01*
X181553013Y-98481400D01*
X181522419Y-98487485D01*
X181247680Y-98212747D01*
X181236939Y-98199659D01*
X181184726Y-98156809D01*
X181125156Y-98124968D01*
X181060519Y-98105361D01*
X181010142Y-98100399D01*
X181010134Y-98100399D01*
X180993299Y-98098741D01*
X180976464Y-98100399D01*
X177054714Y-98100399D01*
X177037871Y-98098740D01*
X177021028Y-98100399D01*
X176970651Y-98105361D01*
X176906014Y-98124968D01*
X176846444Y-98156809D01*
X176794231Y-98199659D01*
X176783490Y-98212747D01*
X174980148Y-100016089D01*
X165299853Y-100016089D01*
X162582202Y-97298439D01*
X162571461Y-97285351D01*
X162519248Y-97242501D01*
X162459678Y-97210660D01*
X162395041Y-97191053D01*
X162344664Y-97186091D01*
X162344656Y-97186091D01*
X162327821Y-97184433D01*
X162310986Y-97186091D01*
X159919013Y-97186091D01*
X159902178Y-97184433D01*
X159885343Y-97186091D01*
X159885336Y-97186091D01*
X159841642Y-97190395D01*
X159834958Y-97191053D01*
X159815351Y-97197001D01*
X159770322Y-97210660D01*
X159710752Y-97242501D01*
X159658539Y-97285351D01*
X159647802Y-97298434D01*
X156805838Y-100140399D01*
X154168544Y-100140399D01*
X154151701Y-100138740D01*
X154134858Y-100140399D01*
X154084481Y-100145361D01*
X154019844Y-100164968D01*
X153960274Y-100196809D01*
X153908061Y-100239659D01*
X153897320Y-100252747D01*
X153517625Y-100632442D01*
X153349616Y-100562850D01*
X153141233Y-100521400D01*
X152928767Y-100521400D01*
X152720384Y-100562850D01*
X152524091Y-100644157D01*
X152347433Y-100762197D01*
X152197197Y-100912433D01*
X152079157Y-101089091D01*
X152018600Y-101235289D01*
X152018600Y-99424711D01*
X152079157Y-99570909D01*
X152197197Y-99747567D01*
X152347433Y-99897803D01*
X152524091Y-100015843D01*
X152720384Y-100097150D01*
X152928767Y-100138600D01*
X153141233Y-100138600D01*
X153349616Y-100097150D01*
X153545909Y-100015843D01*
X153722567Y-99897803D01*
X153872803Y-99747567D01*
X153990843Y-99570909D01*
X154072150Y-99374616D01*
X154086281Y-99303570D01*
X154524261Y-99303570D01*
X154566019Y-99441240D01*
X154659783Y-99630757D01*
X154788718Y-99798340D01*
X154947869Y-99937549D01*
X155131120Y-100043034D01*
X155331429Y-100110742D01*
X155498800Y-100078759D01*
X155498800Y-99136200D01*
X155651200Y-99136200D01*
X155651200Y-100078759D01*
X155818571Y-100110742D01*
X156018880Y-100043034D01*
X156202131Y-99937549D01*
X156361282Y-99798340D01*
X156490217Y-99630757D01*
X156583981Y-99441240D01*
X156625739Y-99303570D01*
X156593604Y-99136200D01*
X155651200Y-99136200D01*
X155498800Y-99136200D01*
X154556396Y-99136200D01*
X154524261Y-99303570D01*
X154086281Y-99303570D01*
X154113600Y-99166233D01*
X154113600Y-98953767D01*
X154086282Y-98816430D01*
X154524261Y-98816430D01*
X154556396Y-98983800D01*
X155498800Y-98983800D01*
X155498800Y-98041241D01*
X155651200Y-98041241D01*
X155651200Y-98983800D01*
X156593604Y-98983800D01*
X156625739Y-98816430D01*
X156583981Y-98678760D01*
X156490217Y-98489243D01*
X156361282Y-98321660D01*
X156202131Y-98182451D01*
X156018880Y-98076966D01*
X155818571Y-98009258D01*
X155651200Y-98041241D01*
X155498800Y-98041241D01*
X155331429Y-98009258D01*
X155131120Y-98076966D01*
X154947869Y-98182451D01*
X154788718Y-98321660D01*
X154659783Y-98489243D01*
X154566019Y-98678760D01*
X154524261Y-98816430D01*
X154086282Y-98816430D01*
X154072150Y-98745384D01*
X154002558Y-98577375D01*
X156617033Y-95962900D01*
X161759923Y-95962900D01*
X161756228Y-95963635D01*
X161650930Y-96007251D01*
X161556164Y-96070572D01*
X161475572Y-96151164D01*
X161412251Y-96245930D01*
X161368635Y-96351228D01*
X161346400Y-96463013D01*
X161346400Y-96576987D01*
X161368635Y-96688772D01*
X161412251Y-96794070D01*
X161475572Y-96888836D01*
X161556164Y-96969428D01*
X161650930Y-97032749D01*
X161756228Y-97076365D01*
X161868013Y-97098600D01*
X161981987Y-97098600D01*
X162093772Y-97076365D01*
X162199070Y-97032749D01*
X162293836Y-96969428D01*
X162374428Y-96888836D01*
X162391758Y-96862900D01*
X173847967Y-96862900D01*
X174687485Y-97702419D01*
X174681400Y-97733013D01*
X174681400Y-97846987D01*
X174703635Y-97958772D01*
X174747251Y-98064070D01*
X174810572Y-98158836D01*
X174891164Y-98239428D01*
X174985930Y-98302749D01*
X175091228Y-98346365D01*
X175203013Y-98368600D01*
X175316987Y-98368600D01*
X175428772Y-98346365D01*
X175534070Y-98302749D01*
X175628836Y-98239428D01*
X175709428Y-98158836D01*
X175772749Y-98064070D01*
X175816365Y-97958772D01*
X175838600Y-97846987D01*
X175838600Y-97733013D01*
X175816365Y-97621228D01*
X175772749Y-97515930D01*
X175709428Y-97421164D01*
X175628836Y-97340572D01*
X175534070Y-97277251D01*
X175428772Y-97233635D01*
X175316987Y-97211400D01*
X175203013Y-97211400D01*
X175172419Y-97217485D01*
X175046319Y-97091385D01*
X196911237Y-97091385D01*
X196947888Y-97203800D01*
X198088800Y-97203800D01*
X198088800Y-96551400D01*
X197538800Y-96551400D01*
X197398121Y-96580266D01*
X197265777Y-96636022D01*
X197146853Y-96716526D01*
X197045920Y-96818684D01*
X196966856Y-96938570D01*
X196912700Y-97071577D01*
X196911237Y-97091385D01*
X175046319Y-97091385D01*
X174244381Y-96289448D01*
X174233640Y-96276360D01*
X174181427Y-96233510D01*
X174121857Y-96201669D01*
X174057220Y-96182062D01*
X174006843Y-96177100D01*
X174006835Y-96177100D01*
X173990000Y-96175442D01*
X173973165Y-96177100D01*
X162391758Y-96177100D01*
X162374428Y-96151164D01*
X162293836Y-96070572D01*
X162199070Y-96007251D01*
X162093772Y-95963635D01*
X162090077Y-95962900D01*
X175508165Y-95962900D01*
X175525000Y-95964558D01*
X175541835Y-95962900D01*
X175541843Y-95962900D01*
X175592220Y-95957938D01*
X175656857Y-95938331D01*
X175716427Y-95906490D01*
X175768640Y-95863640D01*
X175779381Y-95850552D01*
X175807419Y-95822515D01*
X175838013Y-95828600D01*
X175951987Y-95828600D01*
X175954938Y-95828013D01*
X182936400Y-95828013D01*
X182936400Y-95941987D01*
X182958635Y-96053772D01*
X183002251Y-96159070D01*
X183065572Y-96253836D01*
X183146164Y-96334428D01*
X183240930Y-96397749D01*
X183346228Y-96441365D01*
X183458013Y-96463600D01*
X183571987Y-96463600D01*
X183683772Y-96441365D01*
X183789070Y-96397749D01*
X183883836Y-96334428D01*
X183964428Y-96253836D01*
X184027749Y-96159070D01*
X184071365Y-96053772D01*
X184093600Y-95941987D01*
X184093600Y-95828013D01*
X184087515Y-95797419D01*
X184271012Y-95613922D01*
X184228635Y-95716228D01*
X184206400Y-95828013D01*
X184206400Y-95941987D01*
X184228635Y-96053772D01*
X184272251Y-96159070D01*
X184335572Y-96253836D01*
X184416164Y-96334428D01*
X184510930Y-96397749D01*
X184616228Y-96441365D01*
X184728013Y-96463600D01*
X184841987Y-96463600D01*
X184878409Y-96456355D01*
X184878574Y-96456491D01*
X184938144Y-96488332D01*
X185002781Y-96507939D01*
X185053158Y-96512901D01*
X185053165Y-96512901D01*
X185070000Y-96514559D01*
X185086835Y-96512901D01*
X198613138Y-96512901D01*
X198651637Y-96551400D01*
X198241200Y-96551400D01*
X198241200Y-97203800D01*
X198261200Y-97203800D01*
X198261200Y-97356200D01*
X198241200Y-97356200D01*
X198241200Y-97376200D01*
X198088800Y-97376200D01*
X198088800Y-97356200D01*
X196947888Y-97356200D01*
X196911237Y-97468615D01*
X196912700Y-97488423D01*
X196966856Y-97621430D01*
X197045920Y-97741316D01*
X197146853Y-97843474D01*
X197173798Y-97861714D01*
X197173798Y-97878548D01*
X197116650Y-97821400D01*
X196525000Y-97820294D01*
X196480187Y-97824708D01*
X196437095Y-97837779D01*
X196397382Y-97859006D01*
X196362573Y-97887573D01*
X196334006Y-97922382D01*
X196316600Y-97954946D01*
X196316600Y-97536000D01*
X196312208Y-97491402D01*
X196299199Y-97448519D01*
X196278074Y-97408997D01*
X196249645Y-97374355D01*
X196215003Y-97345926D01*
X196175481Y-97324801D01*
X196132598Y-97311792D01*
X196088000Y-97307400D01*
X190500000Y-97307400D01*
X190455402Y-97311792D01*
X190412519Y-97324801D01*
X190372997Y-97345926D01*
X190338355Y-97374355D01*
X190309926Y-97408997D01*
X190288801Y-97448519D01*
X190275792Y-97491402D01*
X190271400Y-97536000D01*
X190271400Y-100584000D01*
X190275792Y-100628598D01*
X190288801Y-100671481D01*
X190309926Y-100711003D01*
X190338355Y-100745645D01*
X190372997Y-100774074D01*
X190412519Y-100795199D01*
X190455402Y-100808208D01*
X190500000Y-100812600D01*
X195160901Y-100812600D01*
X195160900Y-103465420D01*
X195158873Y-103486000D01*
X195160900Y-103506579D01*
X195166965Y-103568157D01*
X195190929Y-103647157D01*
X195229846Y-103719965D01*
X195282218Y-103783782D01*
X195298211Y-103796907D01*
X195833097Y-104331794D01*
X195846218Y-104347782D01*
X195894704Y-104387573D01*
X195910034Y-104400154D01*
X195980661Y-104437905D01*
X195982842Y-104439071D01*
X196061842Y-104463035D01*
X196123420Y-104469100D01*
X196123422Y-104469100D01*
X196143999Y-104471127D01*
X196164577Y-104469100D01*
X196310654Y-104469100D01*
X196299708Y-104505187D01*
X196295294Y-104550000D01*
X196296400Y-104716650D01*
X196353550Y-104773800D01*
X197173800Y-104773800D01*
X197173800Y-104753800D01*
X197326200Y-104753800D01*
X197326200Y-104773800D01*
X198146450Y-104773800D01*
X198193749Y-104726501D01*
X198204406Y-104752228D01*
X198264991Y-104842900D01*
X198342100Y-104920009D01*
X198432772Y-104980594D01*
X198533521Y-105022326D01*
X198640475Y-105043600D01*
X198749525Y-105043600D01*
X198856479Y-105022326D01*
X198957228Y-104980594D01*
X199047900Y-104920009D01*
X199125009Y-104842900D01*
X199185594Y-104752228D01*
X199227326Y-104651479D01*
X199248600Y-104544525D01*
X199248600Y-104435475D01*
X199227326Y-104328521D01*
X199185594Y-104227772D01*
X199125009Y-104137100D01*
X199047900Y-104059991D01*
X199001668Y-104029100D01*
X199029070Y-104017749D01*
X199123836Y-103954428D01*
X199204428Y-103873836D01*
X199267749Y-103779070D01*
X199311365Y-103673772D01*
X199333600Y-103561987D01*
X199333600Y-103448013D01*
X199311365Y-103336228D01*
X199267749Y-103230930D01*
X199204428Y-103136164D01*
X199123836Y-103055572D01*
X199029070Y-102992251D01*
X198923772Y-102948635D01*
X198811987Y-102926400D01*
X198698013Y-102926400D01*
X198586228Y-102948635D01*
X198480930Y-102992251D01*
X198458707Y-103007100D01*
X198204007Y-103007100D01*
X198204706Y-103000000D01*
X198204706Y-102700000D01*
X198204007Y-102692900D01*
X198398843Y-102692900D01*
X198480930Y-102747749D01*
X198586228Y-102791365D01*
X198698013Y-102813600D01*
X198811987Y-102813600D01*
X198923772Y-102791365D01*
X199029070Y-102747749D01*
X199123836Y-102684428D01*
X199204428Y-102603836D01*
X199267749Y-102509070D01*
X199311365Y-102403772D01*
X199333600Y-102291987D01*
X199333600Y-102178013D01*
X199311365Y-102066228D01*
X199267749Y-101960930D01*
X199204428Y-101866164D01*
X199123836Y-101785572D01*
X199029070Y-101722251D01*
X198923772Y-101678635D01*
X198811987Y-101656400D01*
X198698013Y-101656400D01*
X198586228Y-101678635D01*
X198584601Y-101679309D01*
X198584601Y-101520691D01*
X198586228Y-101521365D01*
X198698013Y-101543600D01*
X198811987Y-101543600D01*
X198923772Y-101521365D01*
X199029070Y-101477749D01*
X199123836Y-101414428D01*
X199204428Y-101333836D01*
X199267749Y-101239070D01*
X199311365Y-101133772D01*
X199333600Y-101021987D01*
X199333600Y-100908013D01*
X199311365Y-100796228D01*
X199267749Y-100690930D01*
X199204428Y-100596164D01*
X199123836Y-100515572D01*
X199029070Y-100452251D01*
X198923772Y-100408635D01*
X198811987Y-100386400D01*
X198698013Y-100386400D01*
X198586228Y-100408635D01*
X198483921Y-100451012D01*
X198667419Y-100267515D01*
X198698013Y-100273600D01*
X198811987Y-100273600D01*
X198923772Y-100251365D01*
X199029070Y-100207749D01*
X199123836Y-100144428D01*
X199204428Y-100063836D01*
X199267749Y-99969070D01*
X199311365Y-99863772D01*
X199333600Y-99751987D01*
X199333600Y-99638013D01*
X199311365Y-99526228D01*
X199267749Y-99420930D01*
X199204428Y-99326164D01*
X199123836Y-99245572D01*
X199029070Y-99182251D01*
X199001668Y-99170900D01*
X199047900Y-99140009D01*
X199125009Y-99062900D01*
X199185594Y-98972228D01*
X199227326Y-98871479D01*
X199248600Y-98764525D01*
X199248600Y-98655475D01*
X199227326Y-98548521D01*
X199185594Y-98447772D01*
X199125009Y-98357100D01*
X199047900Y-98279991D01*
X198957228Y-98219406D01*
X198856479Y-98177674D01*
X198749525Y-98156400D01*
X198640475Y-98156400D01*
X198533521Y-98177674D01*
X198432772Y-98219406D01*
X198342100Y-98279991D01*
X198264991Y-98357100D01*
X198204406Y-98447772D01*
X198193749Y-98473499D01*
X198146450Y-98426200D01*
X197326200Y-98426200D01*
X197326200Y-98446200D01*
X197173800Y-98446200D01*
X197173800Y-98426200D01*
X197153800Y-98426200D01*
X197153800Y-98273800D01*
X197173800Y-98273800D01*
X197173800Y-98253800D01*
X197326200Y-98253800D01*
X197326200Y-98273800D01*
X198146450Y-98273800D01*
X198203600Y-98216650D01*
X198204706Y-98050000D01*
X198200628Y-98008600D01*
X198791200Y-98008600D01*
X198931879Y-97979734D01*
X199064223Y-97923978D01*
X199183147Y-97843474D01*
X199284080Y-97741316D01*
X199363144Y-97621430D01*
X199417300Y-97488423D01*
X199418763Y-97468615D01*
X199382113Y-97356202D01*
X199443600Y-97356202D01*
X199443600Y-97343363D01*
X201587101Y-99486865D01*
X201587100Y-99863242D01*
X201561164Y-99880572D01*
X201480572Y-99961164D01*
X201417251Y-100055930D01*
X201373635Y-100161228D01*
X201351400Y-100273013D01*
X201351400Y-100386987D01*
X201373635Y-100498772D01*
X201417251Y-100604070D01*
X201480572Y-100698836D01*
X201561164Y-100779428D01*
X201655930Y-100842749D01*
X201761228Y-100886365D01*
X201873013Y-100908600D01*
X201986987Y-100908600D01*
X202098772Y-100886365D01*
X202201079Y-100843988D01*
X202017581Y-101027486D01*
X201986987Y-101021400D01*
X201873013Y-101021400D01*
X201761228Y-101043635D01*
X201655930Y-101087251D01*
X201561164Y-101150572D01*
X201480572Y-101231164D01*
X201417251Y-101325930D01*
X201373635Y-101431228D01*
X201351400Y-101543013D01*
X201351400Y-101656987D01*
X201373635Y-101768772D01*
X201417251Y-101874070D01*
X201480572Y-101968836D01*
X201561164Y-102049428D01*
X201655930Y-102112749D01*
X201761228Y-102156365D01*
X201873013Y-102178600D01*
X201986987Y-102178600D01*
X202098772Y-102156365D01*
X202204070Y-102112749D01*
X202298836Y-102049428D01*
X202379428Y-101968836D01*
X202442749Y-101874070D01*
X202486365Y-101768772D01*
X202508600Y-101656987D01*
X202508600Y-101543013D01*
X202502514Y-101512419D01*
X202922556Y-101092377D01*
X202935639Y-101081640D01*
X202978490Y-101029427D01*
X203010331Y-100969857D01*
X203029938Y-100905220D01*
X203034900Y-100854843D01*
X203034900Y-100854842D01*
X203036559Y-100838000D01*
X203034900Y-100821157D01*
X203034900Y-99584845D01*
X203036559Y-99568002D01*
X203029938Y-99500782D01*
X203010331Y-99436145D01*
X202978490Y-99376575D01*
X202946376Y-99337444D01*
X202935640Y-99324362D01*
X202922557Y-99313625D01*
X201077547Y-97468615D01*
X201341237Y-97468615D01*
X201342700Y-97488423D01*
X201396856Y-97621430D01*
X201475920Y-97741316D01*
X201576853Y-97843474D01*
X201695777Y-97923978D01*
X201828121Y-97979734D01*
X201968800Y-98008600D01*
X202268800Y-98008600D01*
X202268800Y-97356200D01*
X202421200Y-97356200D01*
X202421200Y-98008600D01*
X202721200Y-98008600D01*
X202861879Y-97979734D01*
X202994223Y-97923978D01*
X203113147Y-97843474D01*
X203214080Y-97741316D01*
X203293144Y-97621430D01*
X203347300Y-97488423D01*
X203348763Y-97468615D01*
X203312112Y-97356200D01*
X202421200Y-97356200D01*
X202268800Y-97356200D01*
X201377888Y-97356200D01*
X201341237Y-97468615D01*
X201077547Y-97468615D01*
X200700317Y-97091385D01*
X201341237Y-97091385D01*
X201377888Y-97203800D01*
X202268800Y-97203800D01*
X202268800Y-96551400D01*
X202421200Y-96551400D01*
X202421200Y-97203800D01*
X203312112Y-97203800D01*
X203348763Y-97091385D01*
X203347300Y-97071577D01*
X203293144Y-96938570D01*
X203214080Y-96818684D01*
X203113147Y-96716526D01*
X202994223Y-96636022D01*
X202861879Y-96580266D01*
X202721200Y-96551400D01*
X202421200Y-96551400D01*
X202268800Y-96551400D01*
X201968800Y-96551400D01*
X201828121Y-96580266D01*
X201695777Y-96636022D01*
X201576853Y-96716526D01*
X201475920Y-96818684D01*
X201396856Y-96938570D01*
X201342700Y-97071577D01*
X201341237Y-97091385D01*
X200700317Y-97091385D01*
X199167371Y-95558439D01*
X199156630Y-95545351D01*
X199104417Y-95502501D01*
X199044847Y-95470660D01*
X198980210Y-95451053D01*
X198929833Y-95446091D01*
X198929825Y-95446091D01*
X198912990Y-95444433D01*
X198896155Y-95446091D01*
X185881025Y-95446091D01*
X185394381Y-94959448D01*
X185383640Y-94946360D01*
X185331427Y-94903510D01*
X185271857Y-94871669D01*
X185207220Y-94852062D01*
X185156843Y-94847100D01*
X185156835Y-94847100D01*
X185140000Y-94845442D01*
X185123165Y-94847100D01*
X184793721Y-94847100D01*
X184837567Y-94817803D01*
X184987803Y-94667567D01*
X185105843Y-94490909D01*
X185187150Y-94294616D01*
X185228600Y-94086233D01*
X185228600Y-93873767D01*
X185611400Y-93873767D01*
X185611400Y-94086233D01*
X185652850Y-94294616D01*
X185734157Y-94490909D01*
X185852197Y-94667567D01*
X186002433Y-94817803D01*
X186179091Y-94935843D01*
X186375384Y-95017150D01*
X186583767Y-95058600D01*
X186796233Y-95058600D01*
X187004616Y-95017150D01*
X187200909Y-94935843D01*
X187377567Y-94817803D01*
X187527803Y-94667567D01*
X187645843Y-94490909D01*
X187727150Y-94294616D01*
X187768600Y-94086233D01*
X187768600Y-93873767D01*
X188151400Y-93873767D01*
X188151400Y-94086233D01*
X188192850Y-94294616D01*
X188274157Y-94490909D01*
X188392197Y-94667567D01*
X188542433Y-94817803D01*
X188719091Y-94935843D01*
X188915384Y-95017150D01*
X189123767Y-95058600D01*
X189336233Y-95058600D01*
X189544616Y-95017150D01*
X189740909Y-94935843D01*
X189917567Y-94817803D01*
X190067803Y-94667567D01*
X190185843Y-94490909D01*
X190267150Y-94294616D01*
X190308600Y-94086233D01*
X190308600Y-93873767D01*
X190691400Y-93873767D01*
X190691400Y-94086233D01*
X190732850Y-94294616D01*
X190814157Y-94490909D01*
X190932197Y-94667567D01*
X191082433Y-94817803D01*
X191259091Y-94935843D01*
X191455384Y-95017150D01*
X191663767Y-95058600D01*
X191876233Y-95058600D01*
X192084616Y-95017150D01*
X192280909Y-94935843D01*
X192457567Y-94817803D01*
X192607803Y-94667567D01*
X192725843Y-94490909D01*
X192807150Y-94294616D01*
X192848600Y-94086233D01*
X192848600Y-93873767D01*
X193231400Y-93873767D01*
X193231400Y-94086233D01*
X193272850Y-94294616D01*
X193354157Y-94490909D01*
X193472197Y-94667567D01*
X193622433Y-94817803D01*
X193799091Y-94935843D01*
X193995384Y-95017150D01*
X194203767Y-95058600D01*
X194416233Y-95058600D01*
X194624616Y-95017150D01*
X194820909Y-94935843D01*
X194997567Y-94817803D01*
X195147803Y-94667567D01*
X195265843Y-94490909D01*
X195347150Y-94294616D01*
X195388600Y-94086233D01*
X195388600Y-93873767D01*
X195771400Y-93873767D01*
X195771400Y-94086233D01*
X195812850Y-94294616D01*
X195894157Y-94490909D01*
X196012197Y-94667567D01*
X196162433Y-94817803D01*
X196339091Y-94935843D01*
X196535384Y-95017150D01*
X196743767Y-95058600D01*
X196956233Y-95058600D01*
X197164616Y-95017150D01*
X197360909Y-94935843D01*
X197537567Y-94817803D01*
X197687803Y-94667567D01*
X197805843Y-94490909D01*
X197887150Y-94294616D01*
X197928600Y-94086233D01*
X197928600Y-93873767D01*
X198311400Y-93873767D01*
X198311400Y-94086233D01*
X198352850Y-94294616D01*
X198434157Y-94490909D01*
X198552197Y-94667567D01*
X198702433Y-94817803D01*
X198879091Y-94935843D01*
X199075384Y-95017150D01*
X199283767Y-95058600D01*
X199496233Y-95058600D01*
X199704616Y-95017150D01*
X199900909Y-94935843D01*
X200077567Y-94817803D01*
X200227803Y-94667567D01*
X200345843Y-94490909D01*
X200427150Y-94294616D01*
X200468600Y-94086233D01*
X200468600Y-93873767D01*
X200851400Y-93873767D01*
X200851400Y-94086233D01*
X200892850Y-94294616D01*
X200974157Y-94490909D01*
X201092197Y-94667567D01*
X201242433Y-94817803D01*
X201419091Y-94935843D01*
X201615384Y-95017150D01*
X201823767Y-95058600D01*
X202036233Y-95058600D01*
X202244616Y-95017150D01*
X202440909Y-94935843D01*
X202617567Y-94817803D01*
X202767803Y-94667567D01*
X202885843Y-94490909D01*
X202967150Y-94294616D01*
X203008600Y-94086233D01*
X203008600Y-93873767D01*
X202967150Y-93665384D01*
X202885843Y-93469091D01*
X202767803Y-93292433D01*
X202617567Y-93142197D01*
X202440909Y-93024157D01*
X202244616Y-92942850D01*
X202036233Y-92901400D01*
X201823767Y-92901400D01*
X201615384Y-92942850D01*
X201419091Y-93024157D01*
X201242433Y-93142197D01*
X201092197Y-93292433D01*
X200974157Y-93469091D01*
X200892850Y-93665384D01*
X200851400Y-93873767D01*
X200468600Y-93873767D01*
X200427150Y-93665384D01*
X200345843Y-93469091D01*
X200227803Y-93292433D01*
X200077567Y-93142197D01*
X199900909Y-93024157D01*
X199704616Y-92942850D01*
X199496233Y-92901400D01*
X199283767Y-92901400D01*
X199075384Y-92942850D01*
X198879091Y-93024157D01*
X198702433Y-93142197D01*
X198552197Y-93292433D01*
X198434157Y-93469091D01*
X198352850Y-93665384D01*
X198311400Y-93873767D01*
X197928600Y-93873767D01*
X197887150Y-93665384D01*
X197805843Y-93469091D01*
X197687803Y-93292433D01*
X197537567Y-93142197D01*
X197360909Y-93024157D01*
X197164616Y-92942850D01*
X196956233Y-92901400D01*
X196743767Y-92901400D01*
X196535384Y-92942850D01*
X196339091Y-93024157D01*
X196162433Y-93142197D01*
X196012197Y-93292433D01*
X195894157Y-93469091D01*
X195812850Y-93665384D01*
X195771400Y-93873767D01*
X195388600Y-93873767D01*
X195347150Y-93665384D01*
X195265843Y-93469091D01*
X195147803Y-93292433D01*
X194997567Y-93142197D01*
X194820909Y-93024157D01*
X194624616Y-92942850D01*
X194416233Y-92901400D01*
X194203767Y-92901400D01*
X193995384Y-92942850D01*
X193799091Y-93024157D01*
X193622433Y-93142197D01*
X193472197Y-93292433D01*
X193354157Y-93469091D01*
X193272850Y-93665384D01*
X193231400Y-93873767D01*
X192848600Y-93873767D01*
X192807150Y-93665384D01*
X192725843Y-93469091D01*
X192607803Y-93292433D01*
X192457567Y-93142197D01*
X192280909Y-93024157D01*
X192084616Y-92942850D01*
X191876233Y-92901400D01*
X191663767Y-92901400D01*
X191455384Y-92942850D01*
X191259091Y-93024157D01*
X191082433Y-93142197D01*
X190932197Y-93292433D01*
X190814157Y-93469091D01*
X190732850Y-93665384D01*
X190691400Y-93873767D01*
X190308600Y-93873767D01*
X190267150Y-93665384D01*
X190185843Y-93469091D01*
X190067803Y-93292433D01*
X189917567Y-93142197D01*
X189740909Y-93024157D01*
X189544616Y-92942850D01*
X189336233Y-92901400D01*
X189123767Y-92901400D01*
X188915384Y-92942850D01*
X188719091Y-93024157D01*
X188542433Y-93142197D01*
X188392197Y-93292433D01*
X188274157Y-93469091D01*
X188192850Y-93665384D01*
X188151400Y-93873767D01*
X187768600Y-93873767D01*
X187727150Y-93665384D01*
X187645843Y-93469091D01*
X187527803Y-93292433D01*
X187377567Y-93142197D01*
X187200909Y-93024157D01*
X187004616Y-92942850D01*
X186796233Y-92901400D01*
X186583767Y-92901400D01*
X186375384Y-92942850D01*
X186179091Y-93024157D01*
X186002433Y-93142197D01*
X185852197Y-93292433D01*
X185734157Y-93469091D01*
X185652850Y-93665384D01*
X185611400Y-93873767D01*
X185228600Y-93873767D01*
X185187150Y-93665384D01*
X185105843Y-93469091D01*
X184987803Y-93292433D01*
X184837567Y-93142197D01*
X184660909Y-93024157D01*
X184464616Y-92942850D01*
X184256233Y-92901400D01*
X184043767Y-92901400D01*
X183835384Y-92942850D01*
X183639091Y-93024157D01*
X183462433Y-93142197D01*
X183312197Y-93292433D01*
X183194157Y-93469091D01*
X183112850Y-93665384D01*
X183071400Y-93873767D01*
X183071400Y-94086233D01*
X183112850Y-94294616D01*
X183194157Y-94490909D01*
X183312197Y-94667567D01*
X183462433Y-94817803D01*
X183639091Y-94935843D01*
X183835384Y-95017150D01*
X183887541Y-95027525D01*
X183602581Y-95312485D01*
X183571987Y-95306400D01*
X183458013Y-95306400D01*
X183346228Y-95328635D01*
X183240930Y-95372251D01*
X183146164Y-95435572D01*
X183065572Y-95516164D01*
X183002251Y-95610930D01*
X182958635Y-95716228D01*
X182936400Y-95828013D01*
X175954938Y-95828013D01*
X176063772Y-95806365D01*
X176169070Y-95762749D01*
X176263836Y-95699428D01*
X176344428Y-95618836D01*
X176407749Y-95524070D01*
X176451365Y-95418772D01*
X176473600Y-95306987D01*
X176473600Y-95193013D01*
X176451365Y-95081228D01*
X176441992Y-95058600D01*
X176636233Y-95058600D01*
X176844616Y-95017150D01*
X177040909Y-94935843D01*
X177217567Y-94817803D01*
X177367803Y-94667567D01*
X177485843Y-94490909D01*
X177567150Y-94294616D01*
X177608600Y-94086233D01*
X177608600Y-93873767D01*
X177991400Y-93873767D01*
X177991400Y-94086233D01*
X178032850Y-94294616D01*
X178114157Y-94490909D01*
X178232197Y-94667567D01*
X178382433Y-94817803D01*
X178559091Y-94935843D01*
X178755384Y-95017150D01*
X178963767Y-95058600D01*
X179176233Y-95058600D01*
X179384616Y-95017150D01*
X179580909Y-94935843D01*
X179757567Y-94817803D01*
X179907803Y-94667567D01*
X180025843Y-94490909D01*
X180107150Y-94294616D01*
X180148600Y-94086233D01*
X180148600Y-93873767D01*
X180531400Y-93873767D01*
X180531400Y-94086233D01*
X180572850Y-94294616D01*
X180654157Y-94490909D01*
X180772197Y-94667567D01*
X180922433Y-94817803D01*
X181099091Y-94935843D01*
X181295384Y-95017150D01*
X181503767Y-95058600D01*
X181716233Y-95058600D01*
X181924616Y-95017150D01*
X182120909Y-94935843D01*
X182297567Y-94817803D01*
X182447803Y-94667567D01*
X182565843Y-94490909D01*
X182647150Y-94294616D01*
X182688600Y-94086233D01*
X182688600Y-93873767D01*
X182647150Y-93665384D01*
X182565843Y-93469091D01*
X182447803Y-93292433D01*
X182297567Y-93142197D01*
X182120909Y-93024157D01*
X181924616Y-92942850D01*
X181716233Y-92901400D01*
X181503767Y-92901400D01*
X181295384Y-92942850D01*
X181099091Y-93024157D01*
X180922433Y-93142197D01*
X180772197Y-93292433D01*
X180654157Y-93469091D01*
X180572850Y-93665384D01*
X180531400Y-93873767D01*
X180148600Y-93873767D01*
X180107150Y-93665384D01*
X180025843Y-93469091D01*
X179907803Y-93292433D01*
X179757567Y-93142197D01*
X179580909Y-93024157D01*
X179384616Y-92942850D01*
X179176233Y-92901400D01*
X178963767Y-92901400D01*
X178755384Y-92942850D01*
X178559091Y-93024157D01*
X178382433Y-93142197D01*
X178232197Y-93292433D01*
X178114157Y-93469091D01*
X178032850Y-93665384D01*
X177991400Y-93873767D01*
X177608600Y-93873767D01*
X177567150Y-93665384D01*
X177485843Y-93469091D01*
X177367803Y-93292433D01*
X177217567Y-93142197D01*
X177040909Y-93024157D01*
X176844616Y-92942850D01*
X176636233Y-92901400D01*
X176423767Y-92901400D01*
X176215384Y-92942850D01*
X176019091Y-93024157D01*
X175842433Y-93142197D01*
X175692197Y-93292433D01*
X175574157Y-93469091D01*
X175492850Y-93665384D01*
X175451400Y-93873767D01*
X175451400Y-94086233D01*
X175492850Y-94294616D01*
X175574157Y-94490909D01*
X175692197Y-94667567D01*
X175720597Y-94695967D01*
X175620930Y-94737251D01*
X175526164Y-94800572D01*
X175445572Y-94881164D01*
X175382251Y-94975930D01*
X175338635Y-95081228D01*
X175316400Y-95193013D01*
X175316400Y-95277100D01*
X156491843Y-95277100D01*
X156475000Y-95275441D01*
X156458157Y-95277100D01*
X156407780Y-95282062D01*
X156343143Y-95301669D01*
X156283573Y-95333510D01*
X156231360Y-95376360D01*
X156220619Y-95389448D01*
X153517625Y-98092442D01*
X153349616Y-98022850D01*
X153141233Y-97981400D01*
X152928767Y-97981400D01*
X152720384Y-98022850D01*
X152524091Y-98104157D01*
X152347433Y-98222197D01*
X152197197Y-98372433D01*
X152079157Y-98549091D01*
X152018600Y-98695289D01*
X152018600Y-94830000D01*
X152590294Y-94830000D01*
X152594708Y-94874813D01*
X152607779Y-94917905D01*
X152629006Y-94957618D01*
X152657573Y-94992427D01*
X152692382Y-95020994D01*
X152732095Y-95042221D01*
X152775187Y-95055292D01*
X152820000Y-95059706D01*
X153536650Y-95058600D01*
X153593800Y-95001450D01*
X153593800Y-94056200D01*
X153746200Y-94056200D01*
X153746200Y-95001450D01*
X153803350Y-95058600D01*
X154520000Y-95059706D01*
X154564813Y-95055292D01*
X154607905Y-95042221D01*
X154647618Y-95020994D01*
X154682427Y-94992427D01*
X154710994Y-94957618D01*
X154732221Y-94917905D01*
X154745292Y-94874813D01*
X154749706Y-94830000D01*
X154748600Y-94113350D01*
X154691450Y-94056200D01*
X153746200Y-94056200D01*
X153593800Y-94056200D01*
X152648550Y-94056200D01*
X152591400Y-94113350D01*
X152590294Y-94830000D01*
X152018600Y-94830000D01*
X152018600Y-93130000D01*
X152590294Y-93130000D01*
X152591400Y-93846650D01*
X152648550Y-93903800D01*
X153593800Y-93903800D01*
X153593800Y-92958550D01*
X153746200Y-92958550D01*
X153746200Y-93903800D01*
X154691450Y-93903800D01*
X154721483Y-93873767D01*
X155131400Y-93873767D01*
X155131400Y-94086233D01*
X155172850Y-94294616D01*
X155254157Y-94490909D01*
X155372197Y-94667567D01*
X155522433Y-94817803D01*
X155699091Y-94935843D01*
X155895384Y-95017150D01*
X156103767Y-95058600D01*
X156316233Y-95058600D01*
X156524616Y-95017150D01*
X156720909Y-94935843D01*
X156897567Y-94817803D01*
X157047803Y-94667567D01*
X157165843Y-94490909D01*
X157247150Y-94294616D01*
X157288600Y-94086233D01*
X157288600Y-93873767D01*
X157671400Y-93873767D01*
X157671400Y-94086233D01*
X157712850Y-94294616D01*
X157794157Y-94490909D01*
X157912197Y-94667567D01*
X158062433Y-94817803D01*
X158239091Y-94935843D01*
X158435384Y-95017150D01*
X158643767Y-95058600D01*
X158856233Y-95058600D01*
X159064616Y-95017150D01*
X159260909Y-94935843D01*
X159437567Y-94817803D01*
X159587803Y-94667567D01*
X159705843Y-94490909D01*
X159787150Y-94294616D01*
X159828600Y-94086233D01*
X159828600Y-93873767D01*
X160211400Y-93873767D01*
X160211400Y-94086233D01*
X160252850Y-94294616D01*
X160334157Y-94490909D01*
X160452197Y-94667567D01*
X160602433Y-94817803D01*
X160779091Y-94935843D01*
X160975384Y-95017150D01*
X161183767Y-95058600D01*
X161396233Y-95058600D01*
X161604616Y-95017150D01*
X161800909Y-94935843D01*
X161977567Y-94817803D01*
X162127803Y-94667567D01*
X162245843Y-94490909D01*
X162327150Y-94294616D01*
X162368600Y-94086233D01*
X162368600Y-93873767D01*
X162751400Y-93873767D01*
X162751400Y-94086233D01*
X162792850Y-94294616D01*
X162874157Y-94490909D01*
X162992197Y-94667567D01*
X163142433Y-94817803D01*
X163319091Y-94935843D01*
X163515384Y-95017150D01*
X163723767Y-95058600D01*
X163936233Y-95058600D01*
X164144616Y-95017150D01*
X164340909Y-94935843D01*
X164517567Y-94817803D01*
X164667803Y-94667567D01*
X164785843Y-94490909D01*
X164867150Y-94294616D01*
X164908600Y-94086233D01*
X164908600Y-93873767D01*
X165291400Y-93873767D01*
X165291400Y-94086233D01*
X165332850Y-94294616D01*
X165414157Y-94490909D01*
X165532197Y-94667567D01*
X165682433Y-94817803D01*
X165859091Y-94935843D01*
X166055384Y-95017150D01*
X166263767Y-95058600D01*
X166476233Y-95058600D01*
X166684616Y-95017150D01*
X166880909Y-94935843D01*
X167057567Y-94817803D01*
X167207803Y-94667567D01*
X167325843Y-94490909D01*
X167407150Y-94294616D01*
X167448600Y-94086233D01*
X167448600Y-93873767D01*
X167831400Y-93873767D01*
X167831400Y-94086233D01*
X167872850Y-94294616D01*
X167954157Y-94490909D01*
X168072197Y-94667567D01*
X168222433Y-94817803D01*
X168399091Y-94935843D01*
X168595384Y-95017150D01*
X168803767Y-95058600D01*
X169016233Y-95058600D01*
X169224616Y-95017150D01*
X169420909Y-94935843D01*
X169597567Y-94817803D01*
X169747803Y-94667567D01*
X169865843Y-94490909D01*
X169947150Y-94294616D01*
X169988600Y-94086233D01*
X169988600Y-93873767D01*
X170371400Y-93873767D01*
X170371400Y-94086233D01*
X170412850Y-94294616D01*
X170494157Y-94490909D01*
X170612197Y-94667567D01*
X170762433Y-94817803D01*
X170939091Y-94935843D01*
X171135384Y-95017150D01*
X171343767Y-95058600D01*
X171556233Y-95058600D01*
X171764616Y-95017150D01*
X171960909Y-94935843D01*
X172137567Y-94817803D01*
X172287803Y-94667567D01*
X172405843Y-94490909D01*
X172487150Y-94294616D01*
X172528600Y-94086233D01*
X172528600Y-93873767D01*
X172911400Y-93873767D01*
X172911400Y-94086233D01*
X172952850Y-94294616D01*
X173034157Y-94490909D01*
X173152197Y-94667567D01*
X173302433Y-94817803D01*
X173479091Y-94935843D01*
X173675384Y-95017150D01*
X173883767Y-95058600D01*
X174096233Y-95058600D01*
X174304616Y-95017150D01*
X174500909Y-94935843D01*
X174677567Y-94817803D01*
X174827803Y-94667567D01*
X174945843Y-94490909D01*
X175027150Y-94294616D01*
X175068600Y-94086233D01*
X175068600Y-93873767D01*
X175027150Y-93665384D01*
X174945843Y-93469091D01*
X174827803Y-93292433D01*
X174677567Y-93142197D01*
X174500909Y-93024157D01*
X174304616Y-92942850D01*
X174096233Y-92901400D01*
X173883767Y-92901400D01*
X173675384Y-92942850D01*
X173479091Y-93024157D01*
X173302433Y-93142197D01*
X173152197Y-93292433D01*
X173034157Y-93469091D01*
X172952850Y-93665384D01*
X172911400Y-93873767D01*
X172528600Y-93873767D01*
X172487150Y-93665384D01*
X172405843Y-93469091D01*
X172287803Y-93292433D01*
X172137567Y-93142197D01*
X171960909Y-93024157D01*
X171764616Y-92942850D01*
X171556233Y-92901400D01*
X171343767Y-92901400D01*
X171135384Y-92942850D01*
X170939091Y-93024157D01*
X170762433Y-93142197D01*
X170612197Y-93292433D01*
X170494157Y-93469091D01*
X170412850Y-93665384D01*
X170371400Y-93873767D01*
X169988600Y-93873767D01*
X169947150Y-93665384D01*
X169865843Y-93469091D01*
X169747803Y-93292433D01*
X169597567Y-93142197D01*
X169420909Y-93024157D01*
X169224616Y-92942850D01*
X169016233Y-92901400D01*
X168803767Y-92901400D01*
X168595384Y-92942850D01*
X168399091Y-93024157D01*
X168222433Y-93142197D01*
X168072197Y-93292433D01*
X167954157Y-93469091D01*
X167872850Y-93665384D01*
X167831400Y-93873767D01*
X167448600Y-93873767D01*
X167407150Y-93665384D01*
X167325843Y-93469091D01*
X167207803Y-93292433D01*
X167057567Y-93142197D01*
X166880909Y-93024157D01*
X166684616Y-92942850D01*
X166476233Y-92901400D01*
X166263767Y-92901400D01*
X166055384Y-92942850D01*
X165859091Y-93024157D01*
X165682433Y-93142197D01*
X165532197Y-93292433D01*
X165414157Y-93469091D01*
X165332850Y-93665384D01*
X165291400Y-93873767D01*
X164908600Y-93873767D01*
X164867150Y-93665384D01*
X164785843Y-93469091D01*
X164667803Y-93292433D01*
X164517567Y-93142197D01*
X164340909Y-93024157D01*
X164144616Y-92942850D01*
X163936233Y-92901400D01*
X163723767Y-92901400D01*
X163515384Y-92942850D01*
X163319091Y-93024157D01*
X163142433Y-93142197D01*
X162992197Y-93292433D01*
X162874157Y-93469091D01*
X162792850Y-93665384D01*
X162751400Y-93873767D01*
X162368600Y-93873767D01*
X162327150Y-93665384D01*
X162245843Y-93469091D01*
X162127803Y-93292433D01*
X161977567Y-93142197D01*
X161800909Y-93024157D01*
X161604616Y-92942850D01*
X161396233Y-92901400D01*
X161183767Y-92901400D01*
X160975384Y-92942850D01*
X160779091Y-93024157D01*
X160602433Y-93142197D01*
X160452197Y-93292433D01*
X160334157Y-93469091D01*
X160252850Y-93665384D01*
X160211400Y-93873767D01*
X159828600Y-93873767D01*
X159787150Y-93665384D01*
X159705843Y-93469091D01*
X159587803Y-93292433D01*
X159437567Y-93142197D01*
X159260909Y-93024157D01*
X159064616Y-92942850D01*
X158856233Y-92901400D01*
X158643767Y-92901400D01*
X158435384Y-92942850D01*
X158239091Y-93024157D01*
X158062433Y-93142197D01*
X157912197Y-93292433D01*
X157794157Y-93469091D01*
X157712850Y-93665384D01*
X157671400Y-93873767D01*
X157288600Y-93873767D01*
X157247150Y-93665384D01*
X157165843Y-93469091D01*
X157047803Y-93292433D01*
X156897567Y-93142197D01*
X156720909Y-93024157D01*
X156524616Y-92942850D01*
X156316233Y-92901400D01*
X156103767Y-92901400D01*
X155895384Y-92942850D01*
X155699091Y-93024157D01*
X155522433Y-93142197D01*
X155372197Y-93292433D01*
X155254157Y-93469091D01*
X155172850Y-93665384D01*
X155131400Y-93873767D01*
X154721483Y-93873767D01*
X154748600Y-93846650D01*
X154749706Y-93130000D01*
X154745292Y-93085187D01*
X154732221Y-93042095D01*
X154710994Y-93002382D01*
X154682427Y-92967573D01*
X154647618Y-92939006D01*
X154607905Y-92917779D01*
X154564813Y-92904708D01*
X154520000Y-92900294D01*
X153803350Y-92901400D01*
X153746200Y-92958550D01*
X153593800Y-92958550D01*
X153536650Y-92901400D01*
X152820000Y-92900294D01*
X152775187Y-92904708D01*
X152732095Y-92917779D01*
X152692382Y-92939006D01*
X152657573Y-92967573D01*
X152629006Y-93002382D01*
X152607779Y-93042095D01*
X152594708Y-93085187D01*
X152590294Y-93130000D01*
X152018600Y-93130000D01*
X152018600Y-92722406D01*
X152039151Y-92512814D01*
X152096415Y-92323146D01*
X152189433Y-92148205D01*
X152314656Y-91994666D01*
X152467317Y-91868374D01*
X152641602Y-91774139D01*
X152830866Y-91715551D01*
X153039721Y-91693600D01*
X202552594Y-91693600D01*
X202762186Y-91714151D01*
G37*
%TD.AperFunction*%
%TD*%
D20*
%TO.N,VBUS*%
X196011800Y-100507800D02*
X190576200Y-100507800D01*
X190576200Y-97612200D01*
X196011800Y-97612200D01*
X196011800Y-100507800D01*
%TA.AperFunction,Conductor*%
D21*
G36*
X196011800Y-100507800D02*
G01*
X190576200Y-100507800D01*
X190576200Y-97612200D01*
X196011800Y-97612200D01*
X196011800Y-100507800D01*
G37*
%TD.AperFunction*%
%TD*%
M02*
