G04 #@! TF.GenerationSoftware,KiCad,Pcbnew,5.1.9+dfsg1-1*
G04 #@! TF.CreationDate,2021-04-15T16:21:39+08:00*
G04 #@! TF.ProjectId,gp,67702e6b-6963-4616-945f-706362585858,c*
G04 #@! TF.SameCoordinates,Original*
G04 #@! TF.FileFunction,Legend,Bot*
G04 #@! TF.FilePolarity,Positive*
%FSLAX46Y46*%
G04 Gerber Fmt 4.6, Leading zero omitted, Abs format (unit mm)*
G04 Created by KiCad (PCBNEW 5.1.9+dfsg1-1) date 2021-04-15 16:21:39*
%MOMM*%
%LPD*%
G01*
G04 APERTURE LIST*
%ADD10C,0.150000*%
%ADD11C,0.120000*%
G04 APERTURE END LIST*
D10*
X164268095Y-111486904D02*
X164534761Y-111105952D01*
X164725238Y-111486904D02*
X164725238Y-110686904D01*
X164420476Y-110686904D01*
X164344285Y-110725000D01*
X164306190Y-110763095D01*
X164268095Y-110839285D01*
X164268095Y-110953571D01*
X164306190Y-111029761D01*
X164344285Y-111067857D01*
X164420476Y-111105952D01*
X164725238Y-111105952D01*
X163963333Y-111448809D02*
X163849047Y-111486904D01*
X163658571Y-111486904D01*
X163582380Y-111448809D01*
X163544285Y-111410714D01*
X163506190Y-111334523D01*
X163506190Y-111258333D01*
X163544285Y-111182142D01*
X163582380Y-111144047D01*
X163658571Y-111105952D01*
X163810952Y-111067857D01*
X163887142Y-111029761D01*
X163925238Y-110991666D01*
X163963333Y-110915476D01*
X163963333Y-110839285D01*
X163925238Y-110763095D01*
X163887142Y-110725000D01*
X163810952Y-110686904D01*
X163620476Y-110686904D01*
X163506190Y-110725000D01*
X163277619Y-110686904D02*
X162820476Y-110686904D01*
X163049047Y-111486904D02*
X163049047Y-110686904D01*
X161513928Y-104501904D02*
X161780595Y-104120952D01*
X161971071Y-104501904D02*
X161971071Y-103701904D01*
X161666309Y-103701904D01*
X161590119Y-103740000D01*
X161552023Y-103778095D01*
X161513928Y-103854285D01*
X161513928Y-103968571D01*
X161552023Y-104044761D01*
X161590119Y-104082857D01*
X161666309Y-104120952D01*
X161971071Y-104120952D01*
X161209166Y-104463809D02*
X161094880Y-104501904D01*
X160904404Y-104501904D01*
X160828214Y-104463809D01*
X160790119Y-104425714D01*
X160752023Y-104349523D01*
X160752023Y-104273333D01*
X160790119Y-104197142D01*
X160828214Y-104159047D01*
X160904404Y-104120952D01*
X161056785Y-104082857D01*
X161132976Y-104044761D01*
X161171071Y-104006666D01*
X161209166Y-103930476D01*
X161209166Y-103854285D01*
X161171071Y-103778095D01*
X161132976Y-103740000D01*
X161056785Y-103701904D01*
X160866309Y-103701904D01*
X160752023Y-103740000D01*
X160523452Y-103701904D02*
X160066309Y-103701904D01*
X160294880Y-104501904D02*
X160294880Y-103701904D01*
X159228214Y-103663809D02*
X159913928Y-104692380D01*
X159037738Y-103701904D02*
X158542500Y-103701904D01*
X158809166Y-104006666D01*
X158694880Y-104006666D01*
X158618690Y-104044761D01*
X158580595Y-104082857D01*
X158542500Y-104159047D01*
X158542500Y-104349523D01*
X158580595Y-104425714D01*
X158618690Y-104463809D01*
X158694880Y-104501904D01*
X158923452Y-104501904D01*
X158999642Y-104463809D01*
X159037738Y-104425714D01*
X158313928Y-103701904D02*
X158047261Y-104501904D01*
X157780595Y-103701904D01*
X157590119Y-103701904D02*
X157094880Y-103701904D01*
X157361547Y-104006666D01*
X157247261Y-104006666D01*
X157171071Y-104044761D01*
X157132976Y-104082857D01*
X157094880Y-104159047D01*
X157094880Y-104349523D01*
X157132976Y-104425714D01*
X157171071Y-104463809D01*
X157247261Y-104501904D01*
X157475833Y-104501904D01*
X157552023Y-104463809D01*
X157590119Y-104425714D01*
X160599642Y-101885714D02*
X160637738Y-101923809D01*
X160752023Y-101961904D01*
X160828214Y-101961904D01*
X160942500Y-101923809D01*
X161018690Y-101847619D01*
X161056785Y-101771428D01*
X161094880Y-101619047D01*
X161094880Y-101504761D01*
X161056785Y-101352380D01*
X161018690Y-101276190D01*
X160942500Y-101200000D01*
X160828214Y-101161904D01*
X160752023Y-101161904D01*
X160637738Y-101200000D01*
X160599642Y-101238095D01*
X159875833Y-101961904D02*
X160256785Y-101961904D01*
X160256785Y-101161904D01*
X159609166Y-101961904D02*
X159609166Y-101161904D01*
X159152023Y-101961904D02*
X159494880Y-101504761D01*
X159152023Y-101161904D02*
X159609166Y-101619047D01*
X158237738Y-101123809D02*
X158923452Y-102152380D01*
X157971071Y-101961904D02*
X157971071Y-101161904D01*
X157437738Y-101161904D02*
X157285357Y-101161904D01*
X157209166Y-101200000D01*
X157132976Y-101276190D01*
X157094880Y-101428571D01*
X157094880Y-101695238D01*
X157132976Y-101847619D01*
X157209166Y-101923809D01*
X157285357Y-101961904D01*
X157437738Y-101961904D01*
X157513928Y-101923809D01*
X157590119Y-101847619D01*
X157628214Y-101695238D01*
X157628214Y-101428571D01*
X157590119Y-101276190D01*
X157513928Y-101200000D01*
X157437738Y-101161904D01*
X162123452Y-98660000D02*
X162199642Y-98621904D01*
X162313928Y-98621904D01*
X162428214Y-98660000D01*
X162504404Y-98736190D01*
X162542500Y-98812380D01*
X162580595Y-98964761D01*
X162580595Y-99079047D01*
X162542500Y-99231428D01*
X162504404Y-99307619D01*
X162428214Y-99383809D01*
X162313928Y-99421904D01*
X162237738Y-99421904D01*
X162123452Y-99383809D01*
X162085357Y-99345714D01*
X162085357Y-99079047D01*
X162237738Y-99079047D01*
X161742500Y-99421904D02*
X161742500Y-98621904D01*
X161285357Y-99421904D01*
X161285357Y-98621904D01*
X160904404Y-99421904D02*
X160904404Y-98621904D01*
X160713928Y-98621904D01*
X160599642Y-98660000D01*
X160523452Y-98736190D01*
X160485357Y-98812380D01*
X160447261Y-98964761D01*
X160447261Y-99079047D01*
X160485357Y-99231428D01*
X160523452Y-99307619D01*
X160599642Y-99383809D01*
X160713928Y-99421904D01*
X160904404Y-99421904D01*
X159532976Y-98583809D02*
X160218690Y-99612380D01*
X159304404Y-99383809D02*
X159190119Y-99421904D01*
X158999642Y-99421904D01*
X158923452Y-99383809D01*
X158885357Y-99345714D01*
X158847261Y-99269523D01*
X158847261Y-99193333D01*
X158885357Y-99117142D01*
X158923452Y-99079047D01*
X158999642Y-99040952D01*
X159152023Y-99002857D01*
X159228214Y-98964761D01*
X159266309Y-98926666D01*
X159304404Y-98850476D01*
X159304404Y-98774285D01*
X159266309Y-98698095D01*
X159228214Y-98660000D01*
X159152023Y-98621904D01*
X158961547Y-98621904D01*
X158847261Y-98660000D01*
X158580595Y-98621904D02*
X158390119Y-99421904D01*
X158237738Y-98850476D01*
X158085357Y-99421904D01*
X157894880Y-98621904D01*
X157437738Y-98621904D02*
X157285357Y-98621904D01*
X157209166Y-98660000D01*
X157132976Y-98736190D01*
X157094880Y-98888571D01*
X157094880Y-99155238D01*
X157132976Y-99307619D01*
X157209166Y-99383809D01*
X157285357Y-99421904D01*
X157437738Y-99421904D01*
X157513928Y-99383809D01*
X157590119Y-99307619D01*
X157628214Y-99155238D01*
X157628214Y-98888571D01*
X157590119Y-98736190D01*
X157513928Y-98660000D01*
X157437738Y-98621904D01*
X192523452Y-106876904D02*
X192523452Y-107448333D01*
X192561547Y-107562619D01*
X192637738Y-107638809D01*
X192752023Y-107676904D01*
X192828214Y-107676904D01*
X191761547Y-107676904D02*
X192142500Y-107676904D01*
X192142500Y-106876904D01*
X191037738Y-107600714D02*
X191075833Y-107638809D01*
X191190119Y-107676904D01*
X191266309Y-107676904D01*
X191380595Y-107638809D01*
X191456785Y-107562619D01*
X191494880Y-107486428D01*
X191532976Y-107334047D01*
X191532976Y-107219761D01*
X191494880Y-107067380D01*
X191456785Y-106991190D01*
X191380595Y-106915000D01*
X191266309Y-106876904D01*
X191190119Y-106876904D01*
X191075833Y-106915000D01*
X191037738Y-106953095D01*
X190466309Y-106876904D02*
X190466309Y-107448333D01*
X190504404Y-107562619D01*
X190580595Y-107638809D01*
X190694880Y-107676904D01*
X190771071Y-107676904D01*
X189704404Y-107676904D02*
X190085357Y-107676904D01*
X190085357Y-106876904D01*
X188980595Y-107600714D02*
X189018690Y-107638809D01*
X189132976Y-107676904D01*
X189209166Y-107676904D01*
X189323452Y-107638809D01*
X189399642Y-107562619D01*
X189437738Y-107486428D01*
X189475833Y-107334047D01*
X189475833Y-107219761D01*
X189437738Y-107067380D01*
X189399642Y-106991190D01*
X189323452Y-106915000D01*
X189209166Y-106876904D01*
X189132976Y-106876904D01*
X189018690Y-106915000D01*
X188980595Y-106953095D01*
X188409166Y-106876904D02*
X188409166Y-107448333D01*
X188447261Y-107562619D01*
X188523452Y-107638809D01*
X188637738Y-107676904D01*
X188713928Y-107676904D01*
X187647261Y-107676904D02*
X188028214Y-107676904D01*
X188028214Y-106876904D01*
X186923452Y-107600714D02*
X186961547Y-107638809D01*
X187075833Y-107676904D01*
X187152023Y-107676904D01*
X187266309Y-107638809D01*
X187342500Y-107562619D01*
X187380595Y-107486428D01*
X187418690Y-107334047D01*
X187418690Y-107219761D01*
X187380595Y-107067380D01*
X187342500Y-106991190D01*
X187266309Y-106915000D01*
X187152023Y-106876904D01*
X187075833Y-106876904D01*
X186961547Y-106915000D01*
X186923452Y-106953095D01*
X186352023Y-106876904D02*
X186352023Y-107448333D01*
X186390119Y-107562619D01*
X186466309Y-107638809D01*
X186580595Y-107676904D01*
X186656785Y-107676904D01*
X185590119Y-107676904D02*
X185971071Y-107676904D01*
X185971071Y-106876904D01*
X184866309Y-107600714D02*
X184904404Y-107638809D01*
X185018690Y-107676904D01*
X185094880Y-107676904D01*
X185209166Y-107638809D01*
X185285357Y-107562619D01*
X185323452Y-107486428D01*
X185361547Y-107334047D01*
X185361547Y-107219761D01*
X185323452Y-107067380D01*
X185285357Y-106991190D01*
X185209166Y-106915000D01*
X185094880Y-106876904D01*
X185018690Y-106876904D01*
X184904404Y-106915000D01*
X184866309Y-106953095D01*
X154660476Y-110686904D02*
X154165238Y-110686904D01*
X154431904Y-110991666D01*
X154317619Y-110991666D01*
X154241428Y-111029761D01*
X154203333Y-111067857D01*
X154165238Y-111144047D01*
X154165238Y-111334523D01*
X154203333Y-111410714D01*
X154241428Y-111448809D01*
X154317619Y-111486904D01*
X154546190Y-111486904D01*
X154622380Y-111448809D01*
X154660476Y-111410714D01*
X153936666Y-110686904D02*
X153670000Y-111486904D01*
X153403333Y-110686904D01*
X153212857Y-110686904D02*
X152717619Y-110686904D01*
X152984285Y-110991666D01*
X152870000Y-110991666D01*
X152793809Y-111029761D01*
X152755714Y-111067857D01*
X152717619Y-111144047D01*
X152717619Y-111334523D01*
X152755714Y-111410714D01*
X152793809Y-111448809D01*
X152870000Y-111486904D01*
X153098571Y-111486904D01*
X153174761Y-111448809D01*
X153212857Y-111410714D01*
X156724285Y-111410714D02*
X156762380Y-111448809D01*
X156876666Y-111486904D01*
X156952857Y-111486904D01*
X157067142Y-111448809D01*
X157143333Y-111372619D01*
X157181428Y-111296428D01*
X157219523Y-111144047D01*
X157219523Y-111029761D01*
X157181428Y-110877380D01*
X157143333Y-110801190D01*
X157067142Y-110725000D01*
X156952857Y-110686904D01*
X156876666Y-110686904D01*
X156762380Y-110725000D01*
X156724285Y-110763095D01*
X155962380Y-111486904D02*
X156419523Y-111486904D01*
X156190952Y-111486904D02*
X156190952Y-110686904D01*
X156267142Y-110801190D01*
X156343333Y-110877380D01*
X156419523Y-110915476D01*
X155695714Y-110686904D02*
X155200476Y-110686904D01*
X155467142Y-110991666D01*
X155352857Y-110991666D01*
X155276666Y-111029761D01*
X155238571Y-111067857D01*
X155200476Y-111144047D01*
X155200476Y-111334523D01*
X155238571Y-111410714D01*
X155276666Y-111448809D01*
X155352857Y-111486904D01*
X155581428Y-111486904D01*
X155657619Y-111448809D01*
X155695714Y-111410714D01*
X159264285Y-111410714D02*
X159302380Y-111448809D01*
X159416666Y-111486904D01*
X159492857Y-111486904D01*
X159607142Y-111448809D01*
X159683333Y-111372619D01*
X159721428Y-111296428D01*
X159759523Y-111144047D01*
X159759523Y-111029761D01*
X159721428Y-110877380D01*
X159683333Y-110801190D01*
X159607142Y-110725000D01*
X159492857Y-110686904D01*
X159416666Y-110686904D01*
X159302380Y-110725000D01*
X159264285Y-110763095D01*
X158502380Y-111486904D02*
X158959523Y-111486904D01*
X158730952Y-111486904D02*
X158730952Y-110686904D01*
X158807142Y-110801190D01*
X158883333Y-110877380D01*
X158959523Y-110915476D01*
X157816666Y-110953571D02*
X157816666Y-111486904D01*
X158007142Y-110648809D02*
X158197619Y-111220238D01*
X157702380Y-111220238D01*
X161804285Y-111410714D02*
X161842380Y-111448809D01*
X161956666Y-111486904D01*
X162032857Y-111486904D01*
X162147142Y-111448809D01*
X162223333Y-111372619D01*
X162261428Y-111296428D01*
X162299523Y-111144047D01*
X162299523Y-111029761D01*
X162261428Y-110877380D01*
X162223333Y-110801190D01*
X162147142Y-110725000D01*
X162032857Y-110686904D01*
X161956666Y-110686904D01*
X161842380Y-110725000D01*
X161804285Y-110763095D01*
X161042380Y-111486904D02*
X161499523Y-111486904D01*
X161270952Y-111486904D02*
X161270952Y-110686904D01*
X161347142Y-110801190D01*
X161423333Y-110877380D01*
X161499523Y-110915476D01*
X160318571Y-110686904D02*
X160699523Y-110686904D01*
X160737619Y-111067857D01*
X160699523Y-111029761D01*
X160623333Y-110991666D01*
X160432857Y-110991666D01*
X160356666Y-111029761D01*
X160318571Y-111067857D01*
X160280476Y-111144047D01*
X160280476Y-111334523D01*
X160318571Y-111410714D01*
X160356666Y-111448809D01*
X160432857Y-111486904D01*
X160623333Y-111486904D01*
X160699523Y-111448809D01*
X160737619Y-111410714D01*
X166941428Y-111258333D02*
X166560476Y-111258333D01*
X167017619Y-111486904D02*
X166750952Y-110686904D01*
X166484285Y-111486904D01*
X166065238Y-110686904D02*
X165989047Y-110686904D01*
X165912857Y-110725000D01*
X165874761Y-110763095D01*
X165836666Y-110839285D01*
X165798571Y-110991666D01*
X165798571Y-111182142D01*
X165836666Y-111334523D01*
X165874761Y-111410714D01*
X165912857Y-111448809D01*
X165989047Y-111486904D01*
X166065238Y-111486904D01*
X166141428Y-111448809D01*
X166179523Y-111410714D01*
X166217619Y-111334523D01*
X166255714Y-111182142D01*
X166255714Y-110991666D01*
X166217619Y-110839285D01*
X166179523Y-110763095D01*
X166141428Y-110725000D01*
X166065238Y-110686904D01*
X169481428Y-111258333D02*
X169100476Y-111258333D01*
X169557619Y-111486904D02*
X169290952Y-110686904D01*
X169024285Y-111486904D01*
X168338571Y-111486904D02*
X168795714Y-111486904D01*
X168567142Y-111486904D02*
X168567142Y-110686904D01*
X168643333Y-110801190D01*
X168719523Y-110877380D01*
X168795714Y-110915476D01*
X172021428Y-111258333D02*
X171640476Y-111258333D01*
X172097619Y-111486904D02*
X171830952Y-110686904D01*
X171564285Y-111486904D01*
X171335714Y-110763095D02*
X171297619Y-110725000D01*
X171221428Y-110686904D01*
X171030952Y-110686904D01*
X170954761Y-110725000D01*
X170916666Y-110763095D01*
X170878571Y-110839285D01*
X170878571Y-110915476D01*
X170916666Y-111029761D01*
X171373809Y-111486904D01*
X170878571Y-111486904D01*
X174561428Y-111258333D02*
X174180476Y-111258333D01*
X174637619Y-111486904D02*
X174370952Y-110686904D01*
X174104285Y-111486904D01*
X173913809Y-110686904D02*
X173418571Y-110686904D01*
X173685238Y-110991666D01*
X173570952Y-110991666D01*
X173494761Y-111029761D01*
X173456666Y-111067857D01*
X173418571Y-111144047D01*
X173418571Y-111334523D01*
X173456666Y-111410714D01*
X173494761Y-111448809D01*
X173570952Y-111486904D01*
X173799523Y-111486904D01*
X173875714Y-111448809D01*
X173913809Y-111410714D01*
X177101428Y-111258333D02*
X176720476Y-111258333D01*
X177177619Y-111486904D02*
X176910952Y-110686904D01*
X176644285Y-111486904D01*
X176034761Y-110953571D02*
X176034761Y-111486904D01*
X176225238Y-110648809D02*
X176415714Y-111220238D01*
X175920476Y-111220238D01*
X179641428Y-111258333D02*
X179260476Y-111258333D01*
X179717619Y-111486904D02*
X179450952Y-110686904D01*
X179184285Y-111486904D01*
X178536666Y-110686904D02*
X178917619Y-110686904D01*
X178955714Y-111067857D01*
X178917619Y-111029761D01*
X178841428Y-110991666D01*
X178650952Y-110991666D01*
X178574761Y-111029761D01*
X178536666Y-111067857D01*
X178498571Y-111144047D01*
X178498571Y-111334523D01*
X178536666Y-111410714D01*
X178574761Y-111448809D01*
X178650952Y-111486904D01*
X178841428Y-111486904D01*
X178917619Y-111448809D01*
X178955714Y-111410714D01*
X182181428Y-111258333D02*
X181800476Y-111258333D01*
X182257619Y-111486904D02*
X181990952Y-110686904D01*
X181724285Y-111486904D01*
X181114761Y-110686904D02*
X181267142Y-110686904D01*
X181343333Y-110725000D01*
X181381428Y-110763095D01*
X181457619Y-110877380D01*
X181495714Y-111029761D01*
X181495714Y-111334523D01*
X181457619Y-111410714D01*
X181419523Y-111448809D01*
X181343333Y-111486904D01*
X181190952Y-111486904D01*
X181114761Y-111448809D01*
X181076666Y-111410714D01*
X181038571Y-111334523D01*
X181038571Y-111144047D01*
X181076666Y-111067857D01*
X181114761Y-111029761D01*
X181190952Y-110991666D01*
X181343333Y-110991666D01*
X181419523Y-111029761D01*
X181457619Y-111067857D01*
X181495714Y-111144047D01*
X184721428Y-111258333D02*
X184340476Y-111258333D01*
X184797619Y-111486904D02*
X184530952Y-110686904D01*
X184264285Y-111486904D01*
X184073809Y-110686904D02*
X183540476Y-110686904D01*
X183883333Y-111486904D01*
X187013809Y-111067857D02*
X186899523Y-111105952D01*
X186861428Y-111144047D01*
X186823333Y-111220238D01*
X186823333Y-111334523D01*
X186861428Y-111410714D01*
X186899523Y-111448809D01*
X186975714Y-111486904D01*
X187280476Y-111486904D01*
X187280476Y-110686904D01*
X187013809Y-110686904D01*
X186937619Y-110725000D01*
X186899523Y-110763095D01*
X186861428Y-110839285D01*
X186861428Y-110915476D01*
X186899523Y-110991666D01*
X186937619Y-111029761D01*
X187013809Y-111067857D01*
X187280476Y-111067857D01*
X186328095Y-110686904D02*
X186251904Y-110686904D01*
X186175714Y-110725000D01*
X186137619Y-110763095D01*
X186099523Y-110839285D01*
X186061428Y-110991666D01*
X186061428Y-111182142D01*
X186099523Y-111334523D01*
X186137619Y-111410714D01*
X186175714Y-111448809D01*
X186251904Y-111486904D01*
X186328095Y-111486904D01*
X186404285Y-111448809D01*
X186442380Y-111410714D01*
X186480476Y-111334523D01*
X186518571Y-111182142D01*
X186518571Y-110991666D01*
X186480476Y-110839285D01*
X186442380Y-110763095D01*
X186404285Y-110725000D01*
X186328095Y-110686904D01*
X189553809Y-111067857D02*
X189439523Y-111105952D01*
X189401428Y-111144047D01*
X189363333Y-111220238D01*
X189363333Y-111334523D01*
X189401428Y-111410714D01*
X189439523Y-111448809D01*
X189515714Y-111486904D01*
X189820476Y-111486904D01*
X189820476Y-110686904D01*
X189553809Y-110686904D01*
X189477619Y-110725000D01*
X189439523Y-110763095D01*
X189401428Y-110839285D01*
X189401428Y-110915476D01*
X189439523Y-110991666D01*
X189477619Y-111029761D01*
X189553809Y-111067857D01*
X189820476Y-111067857D01*
X188601428Y-111486904D02*
X189058571Y-111486904D01*
X188830000Y-111486904D02*
X188830000Y-110686904D01*
X188906190Y-110801190D01*
X188982380Y-110877380D01*
X189058571Y-110915476D01*
X192093809Y-111067857D02*
X191979523Y-111105952D01*
X191941428Y-111144047D01*
X191903333Y-111220238D01*
X191903333Y-111334523D01*
X191941428Y-111410714D01*
X191979523Y-111448809D01*
X192055714Y-111486904D01*
X192360476Y-111486904D01*
X192360476Y-110686904D01*
X192093809Y-110686904D01*
X192017619Y-110725000D01*
X191979523Y-110763095D01*
X191941428Y-110839285D01*
X191941428Y-110915476D01*
X191979523Y-110991666D01*
X192017619Y-111029761D01*
X192093809Y-111067857D01*
X192360476Y-111067857D01*
X191598571Y-110763095D02*
X191560476Y-110725000D01*
X191484285Y-110686904D01*
X191293809Y-110686904D01*
X191217619Y-110725000D01*
X191179523Y-110763095D01*
X191141428Y-110839285D01*
X191141428Y-110915476D01*
X191179523Y-111029761D01*
X191636666Y-111486904D01*
X191141428Y-111486904D01*
X195014761Y-111067857D02*
X194900476Y-111105952D01*
X194862380Y-111144047D01*
X194824285Y-111220238D01*
X194824285Y-111334523D01*
X194862380Y-111410714D01*
X194900476Y-111448809D01*
X194976666Y-111486904D01*
X195281428Y-111486904D01*
X195281428Y-110686904D01*
X195014761Y-110686904D01*
X194938571Y-110725000D01*
X194900476Y-110763095D01*
X194862380Y-110839285D01*
X194862380Y-110915476D01*
X194900476Y-110991666D01*
X194938571Y-111029761D01*
X195014761Y-111067857D01*
X195281428Y-111067857D01*
X194062380Y-111486904D02*
X194519523Y-111486904D01*
X194290952Y-111486904D02*
X194290952Y-110686904D01*
X194367142Y-110801190D01*
X194443333Y-110877380D01*
X194519523Y-110915476D01*
X193567142Y-110686904D02*
X193490952Y-110686904D01*
X193414761Y-110725000D01*
X193376666Y-110763095D01*
X193338571Y-110839285D01*
X193300476Y-110991666D01*
X193300476Y-111182142D01*
X193338571Y-111334523D01*
X193376666Y-111410714D01*
X193414761Y-111448809D01*
X193490952Y-111486904D01*
X193567142Y-111486904D01*
X193643333Y-111448809D01*
X193681428Y-111410714D01*
X193719523Y-111334523D01*
X193757619Y-111182142D01*
X193757619Y-110991666D01*
X193719523Y-110839285D01*
X193681428Y-110763095D01*
X193643333Y-110725000D01*
X193567142Y-110686904D01*
X197840476Y-110686904D02*
X197345238Y-110686904D01*
X197611904Y-110991666D01*
X197497619Y-110991666D01*
X197421428Y-111029761D01*
X197383333Y-111067857D01*
X197345238Y-111144047D01*
X197345238Y-111334523D01*
X197383333Y-111410714D01*
X197421428Y-111448809D01*
X197497619Y-111486904D01*
X197726190Y-111486904D01*
X197802380Y-111448809D01*
X197840476Y-111410714D01*
X197116666Y-110686904D02*
X196850000Y-111486904D01*
X196583333Y-110686904D01*
X196392857Y-110686904D02*
X195897619Y-110686904D01*
X196164285Y-110991666D01*
X196050000Y-110991666D01*
X195973809Y-111029761D01*
X195935714Y-111067857D01*
X195897619Y-111144047D01*
X195897619Y-111334523D01*
X195935714Y-111410714D01*
X195973809Y-111448809D01*
X196050000Y-111486904D01*
X196278571Y-111486904D01*
X196354761Y-111448809D01*
X196392857Y-111410714D01*
X202082380Y-110686904D02*
X202463333Y-110686904D01*
X202501428Y-111067857D01*
X202463333Y-111029761D01*
X202387142Y-110991666D01*
X202196666Y-110991666D01*
X202120476Y-111029761D01*
X202082380Y-111067857D01*
X202044285Y-111144047D01*
X202044285Y-111334523D01*
X202082380Y-111410714D01*
X202120476Y-111448809D01*
X202196666Y-111486904D01*
X202387142Y-111486904D01*
X202463333Y-111448809D01*
X202501428Y-111410714D01*
X201815714Y-110686904D02*
X201549047Y-111486904D01*
X201282380Y-110686904D01*
X199999523Y-110725000D02*
X200075714Y-110686904D01*
X200190000Y-110686904D01*
X200304285Y-110725000D01*
X200380476Y-110801190D01*
X200418571Y-110877380D01*
X200456666Y-111029761D01*
X200456666Y-111144047D01*
X200418571Y-111296428D01*
X200380476Y-111372619D01*
X200304285Y-111448809D01*
X200190000Y-111486904D01*
X200113809Y-111486904D01*
X199999523Y-111448809D01*
X199961428Y-111410714D01*
X199961428Y-111144047D01*
X200113809Y-111144047D01*
X199618571Y-111486904D02*
X199618571Y-110686904D01*
X199161428Y-111486904D01*
X199161428Y-110686904D01*
X198780476Y-111486904D02*
X198780476Y-110686904D01*
X198590000Y-110686904D01*
X198475714Y-110725000D01*
X198399523Y-110801190D01*
X198361428Y-110877380D01*
X198323333Y-111029761D01*
X198323333Y-111144047D01*
X198361428Y-111296428D01*
X198399523Y-111372619D01*
X198475714Y-111448809D01*
X198590000Y-111486904D01*
X198780476Y-111486904D01*
X154660476Y-91636904D02*
X154165238Y-91636904D01*
X154431904Y-91941666D01*
X154317619Y-91941666D01*
X154241428Y-91979761D01*
X154203333Y-92017857D01*
X154165238Y-92094047D01*
X154165238Y-92284523D01*
X154203333Y-92360714D01*
X154241428Y-92398809D01*
X154317619Y-92436904D01*
X154546190Y-92436904D01*
X154622380Y-92398809D01*
X154660476Y-92360714D01*
X153936666Y-91636904D02*
X153670000Y-92436904D01*
X153403333Y-91636904D01*
X153212857Y-91636904D02*
X152717619Y-91636904D01*
X152984285Y-91941666D01*
X152870000Y-91941666D01*
X152793809Y-91979761D01*
X152755714Y-92017857D01*
X152717619Y-92094047D01*
X152717619Y-92284523D01*
X152755714Y-92360714D01*
X152793809Y-92398809D01*
X152870000Y-92436904D01*
X153098571Y-92436904D01*
X153174761Y-92398809D01*
X153212857Y-92360714D01*
X156819523Y-91675000D02*
X156895714Y-91636904D01*
X157010000Y-91636904D01*
X157124285Y-91675000D01*
X157200476Y-91751190D01*
X157238571Y-91827380D01*
X157276666Y-91979761D01*
X157276666Y-92094047D01*
X157238571Y-92246428D01*
X157200476Y-92322619D01*
X157124285Y-92398809D01*
X157010000Y-92436904D01*
X156933809Y-92436904D01*
X156819523Y-92398809D01*
X156781428Y-92360714D01*
X156781428Y-92094047D01*
X156933809Y-92094047D01*
X156438571Y-92436904D02*
X156438571Y-91636904D01*
X155981428Y-92436904D01*
X155981428Y-91636904D01*
X155600476Y-92436904D02*
X155600476Y-91636904D01*
X155410000Y-91636904D01*
X155295714Y-91675000D01*
X155219523Y-91751190D01*
X155181428Y-91827380D01*
X155143333Y-91979761D01*
X155143333Y-92094047D01*
X155181428Y-92246428D01*
X155219523Y-92322619D01*
X155295714Y-92398809D01*
X155410000Y-92436904D01*
X155600476Y-92436904D01*
X158902380Y-91636904D02*
X159283333Y-91636904D01*
X159321428Y-92017857D01*
X159283333Y-91979761D01*
X159207142Y-91941666D01*
X159016666Y-91941666D01*
X158940476Y-91979761D01*
X158902380Y-92017857D01*
X158864285Y-92094047D01*
X158864285Y-92284523D01*
X158902380Y-92360714D01*
X158940476Y-92398809D01*
X159016666Y-92436904D01*
X159207142Y-92436904D01*
X159283333Y-92398809D01*
X159321428Y-92360714D01*
X158635714Y-91636904D02*
X158369047Y-92436904D01*
X158102380Y-91636904D01*
X161613809Y-92017857D02*
X161499523Y-92055952D01*
X161461428Y-92094047D01*
X161423333Y-92170238D01*
X161423333Y-92284523D01*
X161461428Y-92360714D01*
X161499523Y-92398809D01*
X161575714Y-92436904D01*
X161880476Y-92436904D01*
X161880476Y-91636904D01*
X161613809Y-91636904D01*
X161537619Y-91675000D01*
X161499523Y-91713095D01*
X161461428Y-91789285D01*
X161461428Y-91865476D01*
X161499523Y-91941666D01*
X161537619Y-91979761D01*
X161613809Y-92017857D01*
X161880476Y-92017857D01*
X161042380Y-92436904D02*
X160890000Y-92436904D01*
X160813809Y-92398809D01*
X160775714Y-92360714D01*
X160699523Y-92246428D01*
X160661428Y-92094047D01*
X160661428Y-91789285D01*
X160699523Y-91713095D01*
X160737619Y-91675000D01*
X160813809Y-91636904D01*
X160966190Y-91636904D01*
X161042380Y-91675000D01*
X161080476Y-91713095D01*
X161118571Y-91789285D01*
X161118571Y-91979761D01*
X161080476Y-92055952D01*
X161042380Y-92094047D01*
X160966190Y-92132142D01*
X160813809Y-92132142D01*
X160737619Y-92094047D01*
X160699523Y-92055952D01*
X160661428Y-91979761D01*
X164153809Y-92017857D02*
X164039523Y-92055952D01*
X164001428Y-92094047D01*
X163963333Y-92170238D01*
X163963333Y-92284523D01*
X164001428Y-92360714D01*
X164039523Y-92398809D01*
X164115714Y-92436904D01*
X164420476Y-92436904D01*
X164420476Y-91636904D01*
X164153809Y-91636904D01*
X164077619Y-91675000D01*
X164039523Y-91713095D01*
X164001428Y-91789285D01*
X164001428Y-91865476D01*
X164039523Y-91941666D01*
X164077619Y-91979761D01*
X164153809Y-92017857D01*
X164420476Y-92017857D01*
X163506190Y-91979761D02*
X163582380Y-91941666D01*
X163620476Y-91903571D01*
X163658571Y-91827380D01*
X163658571Y-91789285D01*
X163620476Y-91713095D01*
X163582380Y-91675000D01*
X163506190Y-91636904D01*
X163353809Y-91636904D01*
X163277619Y-91675000D01*
X163239523Y-91713095D01*
X163201428Y-91789285D01*
X163201428Y-91827380D01*
X163239523Y-91903571D01*
X163277619Y-91941666D01*
X163353809Y-91979761D01*
X163506190Y-91979761D01*
X163582380Y-92017857D01*
X163620476Y-92055952D01*
X163658571Y-92132142D01*
X163658571Y-92284523D01*
X163620476Y-92360714D01*
X163582380Y-92398809D01*
X163506190Y-92436904D01*
X163353809Y-92436904D01*
X163277619Y-92398809D01*
X163239523Y-92360714D01*
X163201428Y-92284523D01*
X163201428Y-92132142D01*
X163239523Y-92055952D01*
X163277619Y-92017857D01*
X163353809Y-91979761D01*
X166693809Y-92017857D02*
X166579523Y-92055952D01*
X166541428Y-92094047D01*
X166503333Y-92170238D01*
X166503333Y-92284523D01*
X166541428Y-92360714D01*
X166579523Y-92398809D01*
X166655714Y-92436904D01*
X166960476Y-92436904D01*
X166960476Y-91636904D01*
X166693809Y-91636904D01*
X166617619Y-91675000D01*
X166579523Y-91713095D01*
X166541428Y-91789285D01*
X166541428Y-91865476D01*
X166579523Y-91941666D01*
X166617619Y-91979761D01*
X166693809Y-92017857D01*
X166960476Y-92017857D01*
X166236666Y-91636904D02*
X165703333Y-91636904D01*
X166046190Y-92436904D01*
X169233809Y-92017857D02*
X169119523Y-92055952D01*
X169081428Y-92094047D01*
X169043333Y-92170238D01*
X169043333Y-92284523D01*
X169081428Y-92360714D01*
X169119523Y-92398809D01*
X169195714Y-92436904D01*
X169500476Y-92436904D01*
X169500476Y-91636904D01*
X169233809Y-91636904D01*
X169157619Y-91675000D01*
X169119523Y-91713095D01*
X169081428Y-91789285D01*
X169081428Y-91865476D01*
X169119523Y-91941666D01*
X169157619Y-91979761D01*
X169233809Y-92017857D01*
X169500476Y-92017857D01*
X168357619Y-91636904D02*
X168510000Y-91636904D01*
X168586190Y-91675000D01*
X168624285Y-91713095D01*
X168700476Y-91827380D01*
X168738571Y-91979761D01*
X168738571Y-92284523D01*
X168700476Y-92360714D01*
X168662380Y-92398809D01*
X168586190Y-92436904D01*
X168433809Y-92436904D01*
X168357619Y-92398809D01*
X168319523Y-92360714D01*
X168281428Y-92284523D01*
X168281428Y-92094047D01*
X168319523Y-92017857D01*
X168357619Y-91979761D01*
X168433809Y-91941666D01*
X168586190Y-91941666D01*
X168662380Y-91979761D01*
X168700476Y-92017857D01*
X168738571Y-92094047D01*
X171773809Y-92017857D02*
X171659523Y-92055952D01*
X171621428Y-92094047D01*
X171583333Y-92170238D01*
X171583333Y-92284523D01*
X171621428Y-92360714D01*
X171659523Y-92398809D01*
X171735714Y-92436904D01*
X172040476Y-92436904D01*
X172040476Y-91636904D01*
X171773809Y-91636904D01*
X171697619Y-91675000D01*
X171659523Y-91713095D01*
X171621428Y-91789285D01*
X171621428Y-91865476D01*
X171659523Y-91941666D01*
X171697619Y-91979761D01*
X171773809Y-92017857D01*
X172040476Y-92017857D01*
X170859523Y-91636904D02*
X171240476Y-91636904D01*
X171278571Y-92017857D01*
X171240476Y-91979761D01*
X171164285Y-91941666D01*
X170973809Y-91941666D01*
X170897619Y-91979761D01*
X170859523Y-92017857D01*
X170821428Y-92094047D01*
X170821428Y-92284523D01*
X170859523Y-92360714D01*
X170897619Y-92398809D01*
X170973809Y-92436904D01*
X171164285Y-92436904D01*
X171240476Y-92398809D01*
X171278571Y-92360714D01*
X174313809Y-92017857D02*
X174199523Y-92055952D01*
X174161428Y-92094047D01*
X174123333Y-92170238D01*
X174123333Y-92284523D01*
X174161428Y-92360714D01*
X174199523Y-92398809D01*
X174275714Y-92436904D01*
X174580476Y-92436904D01*
X174580476Y-91636904D01*
X174313809Y-91636904D01*
X174237619Y-91675000D01*
X174199523Y-91713095D01*
X174161428Y-91789285D01*
X174161428Y-91865476D01*
X174199523Y-91941666D01*
X174237619Y-91979761D01*
X174313809Y-92017857D01*
X174580476Y-92017857D01*
X173437619Y-91903571D02*
X173437619Y-92436904D01*
X173628095Y-91598809D02*
X173818571Y-92170238D01*
X173323333Y-92170238D01*
X176853809Y-92017857D02*
X176739523Y-92055952D01*
X176701428Y-92094047D01*
X176663333Y-92170238D01*
X176663333Y-92284523D01*
X176701428Y-92360714D01*
X176739523Y-92398809D01*
X176815714Y-92436904D01*
X177120476Y-92436904D01*
X177120476Y-91636904D01*
X176853809Y-91636904D01*
X176777619Y-91675000D01*
X176739523Y-91713095D01*
X176701428Y-91789285D01*
X176701428Y-91865476D01*
X176739523Y-91941666D01*
X176777619Y-91979761D01*
X176853809Y-92017857D01*
X177120476Y-92017857D01*
X176396666Y-91636904D02*
X175901428Y-91636904D01*
X176168095Y-91941666D01*
X176053809Y-91941666D01*
X175977619Y-91979761D01*
X175939523Y-92017857D01*
X175901428Y-92094047D01*
X175901428Y-92284523D01*
X175939523Y-92360714D01*
X175977619Y-92398809D01*
X176053809Y-92436904D01*
X176282380Y-92436904D01*
X176358571Y-92398809D01*
X176396666Y-92360714D01*
X180022380Y-92208333D02*
X179641428Y-92208333D01*
X180098571Y-92436904D02*
X179831904Y-91636904D01*
X179565238Y-92436904D01*
X178879523Y-92436904D02*
X179336666Y-92436904D01*
X179108095Y-92436904D02*
X179108095Y-91636904D01*
X179184285Y-91751190D01*
X179260476Y-91827380D01*
X179336666Y-91865476D01*
X178155714Y-91636904D02*
X178536666Y-91636904D01*
X178574761Y-92017857D01*
X178536666Y-91979761D01*
X178460476Y-91941666D01*
X178270000Y-91941666D01*
X178193809Y-91979761D01*
X178155714Y-92017857D01*
X178117619Y-92094047D01*
X178117619Y-92284523D01*
X178155714Y-92360714D01*
X178193809Y-92398809D01*
X178270000Y-92436904D01*
X178460476Y-92436904D01*
X178536666Y-92398809D01*
X178574761Y-92360714D01*
X182562380Y-92208333D02*
X182181428Y-92208333D01*
X182638571Y-92436904D02*
X182371904Y-91636904D01*
X182105238Y-92436904D01*
X181419523Y-92436904D02*
X181876666Y-92436904D01*
X181648095Y-92436904D02*
X181648095Y-91636904D01*
X181724285Y-91751190D01*
X181800476Y-91827380D01*
X181876666Y-91865476D01*
X181114761Y-91713095D02*
X181076666Y-91675000D01*
X181000476Y-91636904D01*
X180810000Y-91636904D01*
X180733809Y-91675000D01*
X180695714Y-91713095D01*
X180657619Y-91789285D01*
X180657619Y-91865476D01*
X180695714Y-91979761D01*
X181152857Y-92436904D01*
X180657619Y-92436904D01*
X185102380Y-92208333D02*
X184721428Y-92208333D01*
X185178571Y-92436904D02*
X184911904Y-91636904D01*
X184645238Y-92436904D01*
X183959523Y-92436904D02*
X184416666Y-92436904D01*
X184188095Y-92436904D02*
X184188095Y-91636904D01*
X184264285Y-91751190D01*
X184340476Y-91827380D01*
X184416666Y-91865476D01*
X183197619Y-92436904D02*
X183654761Y-92436904D01*
X183426190Y-92436904D02*
X183426190Y-91636904D01*
X183502380Y-91751190D01*
X183578571Y-91827380D01*
X183654761Y-91865476D01*
X187642380Y-92208333D02*
X187261428Y-92208333D01*
X187718571Y-92436904D02*
X187451904Y-91636904D01*
X187185238Y-92436904D01*
X186499523Y-92436904D02*
X186956666Y-92436904D01*
X186728095Y-92436904D02*
X186728095Y-91636904D01*
X186804285Y-91751190D01*
X186880476Y-91827380D01*
X186956666Y-91865476D01*
X186004285Y-91636904D02*
X185928095Y-91636904D01*
X185851904Y-91675000D01*
X185813809Y-91713095D01*
X185775714Y-91789285D01*
X185737619Y-91941666D01*
X185737619Y-92132142D01*
X185775714Y-92284523D01*
X185813809Y-92360714D01*
X185851904Y-92398809D01*
X185928095Y-92436904D01*
X186004285Y-92436904D01*
X186080476Y-92398809D01*
X186118571Y-92360714D01*
X186156666Y-92284523D01*
X186194761Y-92132142D01*
X186194761Y-91941666D01*
X186156666Y-91789285D01*
X186118571Y-91713095D01*
X186080476Y-91675000D01*
X186004285Y-91636904D01*
X189801428Y-92208333D02*
X189420476Y-92208333D01*
X189877619Y-92436904D02*
X189610952Y-91636904D01*
X189344285Y-92436904D01*
X189039523Y-92436904D02*
X188887142Y-92436904D01*
X188810952Y-92398809D01*
X188772857Y-92360714D01*
X188696666Y-92246428D01*
X188658571Y-92094047D01*
X188658571Y-91789285D01*
X188696666Y-91713095D01*
X188734761Y-91675000D01*
X188810952Y-91636904D01*
X188963333Y-91636904D01*
X189039523Y-91675000D01*
X189077619Y-91713095D01*
X189115714Y-91789285D01*
X189115714Y-91979761D01*
X189077619Y-92055952D01*
X189039523Y-92094047D01*
X188963333Y-92132142D01*
X188810952Y-92132142D01*
X188734761Y-92094047D01*
X188696666Y-92055952D01*
X188658571Y-91979761D01*
X192341428Y-92208333D02*
X191960476Y-92208333D01*
X192417619Y-92436904D02*
X192150952Y-91636904D01*
X191884285Y-92436904D01*
X191503333Y-91979761D02*
X191579523Y-91941666D01*
X191617619Y-91903571D01*
X191655714Y-91827380D01*
X191655714Y-91789285D01*
X191617619Y-91713095D01*
X191579523Y-91675000D01*
X191503333Y-91636904D01*
X191350952Y-91636904D01*
X191274761Y-91675000D01*
X191236666Y-91713095D01*
X191198571Y-91789285D01*
X191198571Y-91827380D01*
X191236666Y-91903571D01*
X191274761Y-91941666D01*
X191350952Y-91979761D01*
X191503333Y-91979761D01*
X191579523Y-92017857D01*
X191617619Y-92055952D01*
X191655714Y-92132142D01*
X191655714Y-92284523D01*
X191617619Y-92360714D01*
X191579523Y-92398809D01*
X191503333Y-92436904D01*
X191350952Y-92436904D01*
X191274761Y-92398809D01*
X191236666Y-92360714D01*
X191198571Y-92284523D01*
X191198571Y-92132142D01*
X191236666Y-92055952D01*
X191274761Y-92017857D01*
X191350952Y-91979761D01*
X195014761Y-92017857D02*
X194900476Y-92055952D01*
X194862380Y-92094047D01*
X194824285Y-92170238D01*
X194824285Y-92284523D01*
X194862380Y-92360714D01*
X194900476Y-92398809D01*
X194976666Y-92436904D01*
X195281428Y-92436904D01*
X195281428Y-91636904D01*
X195014761Y-91636904D01*
X194938571Y-91675000D01*
X194900476Y-91713095D01*
X194862380Y-91789285D01*
X194862380Y-91865476D01*
X194900476Y-91941666D01*
X194938571Y-91979761D01*
X195014761Y-92017857D01*
X195281428Y-92017857D01*
X194062380Y-92436904D02*
X194519523Y-92436904D01*
X194290952Y-92436904D02*
X194290952Y-91636904D01*
X194367142Y-91751190D01*
X194443333Y-91827380D01*
X194519523Y-91865476D01*
X193338571Y-91636904D02*
X193719523Y-91636904D01*
X193757619Y-92017857D01*
X193719523Y-91979761D01*
X193643333Y-91941666D01*
X193452857Y-91941666D01*
X193376666Y-91979761D01*
X193338571Y-92017857D01*
X193300476Y-92094047D01*
X193300476Y-92284523D01*
X193338571Y-92360714D01*
X193376666Y-92398809D01*
X193452857Y-92436904D01*
X193643333Y-92436904D01*
X193719523Y-92398809D01*
X193757619Y-92360714D01*
X197554761Y-92017857D02*
X197440476Y-92055952D01*
X197402380Y-92094047D01*
X197364285Y-92170238D01*
X197364285Y-92284523D01*
X197402380Y-92360714D01*
X197440476Y-92398809D01*
X197516666Y-92436904D01*
X197821428Y-92436904D01*
X197821428Y-91636904D01*
X197554761Y-91636904D01*
X197478571Y-91675000D01*
X197440476Y-91713095D01*
X197402380Y-91789285D01*
X197402380Y-91865476D01*
X197440476Y-91941666D01*
X197478571Y-91979761D01*
X197554761Y-92017857D01*
X197821428Y-92017857D01*
X196602380Y-92436904D02*
X197059523Y-92436904D01*
X196830952Y-92436904D02*
X196830952Y-91636904D01*
X196907142Y-91751190D01*
X196983333Y-91827380D01*
X197059523Y-91865476D01*
X195916666Y-91903571D02*
X195916666Y-92436904D01*
X196107142Y-91598809D02*
X196297619Y-92170238D01*
X195802380Y-92170238D01*
X200094761Y-92017857D02*
X199980476Y-92055952D01*
X199942380Y-92094047D01*
X199904285Y-92170238D01*
X199904285Y-92284523D01*
X199942380Y-92360714D01*
X199980476Y-92398809D01*
X200056666Y-92436904D01*
X200361428Y-92436904D01*
X200361428Y-91636904D01*
X200094761Y-91636904D01*
X200018571Y-91675000D01*
X199980476Y-91713095D01*
X199942380Y-91789285D01*
X199942380Y-91865476D01*
X199980476Y-91941666D01*
X200018571Y-91979761D01*
X200094761Y-92017857D01*
X200361428Y-92017857D01*
X199142380Y-92436904D02*
X199599523Y-92436904D01*
X199370952Y-92436904D02*
X199370952Y-91636904D01*
X199447142Y-91751190D01*
X199523333Y-91827380D01*
X199599523Y-91865476D01*
X198875714Y-91636904D02*
X198380476Y-91636904D01*
X198647142Y-91941666D01*
X198532857Y-91941666D01*
X198456666Y-91979761D01*
X198418571Y-92017857D01*
X198380476Y-92094047D01*
X198380476Y-92284523D01*
X198418571Y-92360714D01*
X198456666Y-92398809D01*
X198532857Y-92436904D01*
X198761428Y-92436904D01*
X198837619Y-92398809D01*
X198875714Y-92360714D01*
X202634761Y-92017857D02*
X202520476Y-92055952D01*
X202482380Y-92094047D01*
X202444285Y-92170238D01*
X202444285Y-92284523D01*
X202482380Y-92360714D01*
X202520476Y-92398809D01*
X202596666Y-92436904D01*
X202901428Y-92436904D01*
X202901428Y-91636904D01*
X202634761Y-91636904D01*
X202558571Y-91675000D01*
X202520476Y-91713095D01*
X202482380Y-91789285D01*
X202482380Y-91865476D01*
X202520476Y-91941666D01*
X202558571Y-91979761D01*
X202634761Y-92017857D01*
X202901428Y-92017857D01*
X201682380Y-92436904D02*
X202139523Y-92436904D01*
X201910952Y-92436904D02*
X201910952Y-91636904D01*
X201987142Y-91751190D01*
X202063333Y-91827380D01*
X202139523Y-91865476D01*
X201377619Y-91713095D02*
X201339523Y-91675000D01*
X201263333Y-91636904D01*
X201072857Y-91636904D01*
X200996666Y-91675000D01*
X200958571Y-91713095D01*
X200920476Y-91789285D01*
X200920476Y-91865476D01*
X200958571Y-91979761D01*
X201415714Y-92436904D01*
X200920476Y-92436904D01*
X192332976Y-97310000D02*
X192409166Y-97271904D01*
X192523452Y-97271904D01*
X192637738Y-97310000D01*
X192713928Y-97386190D01*
X192752023Y-97462380D01*
X192790119Y-97614761D01*
X192790119Y-97729047D01*
X192752023Y-97881428D01*
X192713928Y-97957619D01*
X192637738Y-98033809D01*
X192523452Y-98071904D01*
X192447261Y-98071904D01*
X192332976Y-98033809D01*
X192294880Y-97995714D01*
X192294880Y-97729047D01*
X192447261Y-97729047D01*
X191952023Y-98071904D02*
X191952023Y-97538571D01*
X191952023Y-97690952D02*
X191913928Y-97614761D01*
X191875833Y-97576666D01*
X191799642Y-97538571D01*
X191723452Y-97538571D01*
X191152023Y-98033809D02*
X191228214Y-98071904D01*
X191380595Y-98071904D01*
X191456785Y-98033809D01*
X191494880Y-97957619D01*
X191494880Y-97652857D01*
X191456785Y-97576666D01*
X191380595Y-97538571D01*
X191228214Y-97538571D01*
X191152023Y-97576666D01*
X191113928Y-97652857D01*
X191113928Y-97729047D01*
X191494880Y-97805238D01*
X190466309Y-98033809D02*
X190542500Y-98071904D01*
X190694880Y-98071904D01*
X190771071Y-98033809D01*
X190809166Y-97957619D01*
X190809166Y-97652857D01*
X190771071Y-97576666D01*
X190694880Y-97538571D01*
X190542500Y-97538571D01*
X190466309Y-97576666D01*
X190428214Y-97652857D01*
X190428214Y-97729047D01*
X190809166Y-97805238D01*
X190085357Y-97538571D02*
X190085357Y-98071904D01*
X190085357Y-97614761D02*
X190047261Y-97576666D01*
X189971071Y-97538571D01*
X189856785Y-97538571D01*
X189780595Y-97576666D01*
X189742500Y-97652857D01*
X189742500Y-98071904D01*
X188752023Y-98071904D02*
X188752023Y-97271904D01*
X188447261Y-97271904D01*
X188371071Y-97310000D01*
X188332976Y-97348095D01*
X188294880Y-97424285D01*
X188294880Y-97538571D01*
X188332976Y-97614761D01*
X188371071Y-97652857D01*
X188447261Y-97690952D01*
X188752023Y-97690952D01*
X187952023Y-98071904D02*
X187952023Y-97538571D01*
X187952023Y-97271904D02*
X187990119Y-97310000D01*
X187952023Y-97348095D01*
X187913928Y-97310000D01*
X187952023Y-97271904D01*
X187952023Y-97348095D01*
X187456785Y-98071904D02*
X187532976Y-98033809D01*
X187571071Y-97957619D01*
X187571071Y-97271904D01*
X187037738Y-98071904D02*
X187113928Y-98033809D01*
X187152023Y-97957619D01*
X187152023Y-97271904D01*
X186694880Y-98033809D02*
X186694880Y-98071904D01*
X186732976Y-98148095D01*
X186771071Y-98186190D01*
X185742500Y-98071904D02*
X185742500Y-97538571D01*
X185742500Y-97690952D02*
X185704404Y-97614761D01*
X185666309Y-97576666D01*
X185590119Y-97538571D01*
X185513928Y-97538571D01*
X184942500Y-98033809D02*
X185018690Y-98071904D01*
X185171071Y-98071904D01*
X185247261Y-98033809D01*
X185285357Y-97957619D01*
X185285357Y-97652857D01*
X185247261Y-97576666D01*
X185171071Y-97538571D01*
X185018690Y-97538571D01*
X184942500Y-97576666D01*
X184904404Y-97652857D01*
X184904404Y-97729047D01*
X185285357Y-97805238D01*
X184637738Y-97538571D02*
X184447261Y-98071904D01*
X184256785Y-97538571D01*
X183952023Y-97995714D02*
X183913928Y-98033809D01*
X183952023Y-98071904D01*
X183990119Y-98033809D01*
X183952023Y-97995714D01*
X183952023Y-98071904D01*
X182618690Y-98033809D02*
X182694880Y-98071904D01*
X182847261Y-98071904D01*
X182923452Y-98033809D01*
X182961547Y-97995714D01*
X182999642Y-97919523D01*
X182999642Y-97690952D01*
X182961547Y-97614761D01*
X182923452Y-97576666D01*
X182847261Y-97538571D01*
X182694880Y-97538571D01*
X182618690Y-97576666D01*
X192790119Y-99383809D02*
X192675833Y-99421904D01*
X192485357Y-99421904D01*
X192409166Y-99383809D01*
X192371071Y-99345714D01*
X192332976Y-99269523D01*
X192332976Y-99193333D01*
X192371071Y-99117142D01*
X192409166Y-99079047D01*
X192485357Y-99040952D01*
X192637738Y-99002857D01*
X192713928Y-98964761D01*
X192752023Y-98926666D01*
X192790119Y-98850476D01*
X192790119Y-98774285D01*
X192752023Y-98698095D01*
X192713928Y-98660000D01*
X192637738Y-98621904D01*
X192447261Y-98621904D01*
X192332976Y-98660000D01*
X192104404Y-98621904D02*
X191647261Y-98621904D01*
X191875833Y-99421904D02*
X191875833Y-98621904D01*
X191380595Y-99421904D02*
X191380595Y-98621904D01*
X191113928Y-99193333D01*
X190847261Y-98621904D01*
X190847261Y-99421904D01*
X190542500Y-98621904D02*
X190047261Y-98621904D01*
X190313928Y-98926666D01*
X190199642Y-98926666D01*
X190123452Y-98964761D01*
X190085357Y-99002857D01*
X190047261Y-99079047D01*
X190047261Y-99269523D01*
X190085357Y-99345714D01*
X190123452Y-99383809D01*
X190199642Y-99421904D01*
X190428214Y-99421904D01*
X190504404Y-99383809D01*
X190542500Y-99345714D01*
X189742500Y-98698095D02*
X189704404Y-98660000D01*
X189628214Y-98621904D01*
X189437738Y-98621904D01*
X189361547Y-98660000D01*
X189323452Y-98698095D01*
X189285357Y-98774285D01*
X189285357Y-98850476D01*
X189323452Y-98964761D01*
X189780595Y-99421904D01*
X189285357Y-99421904D01*
X188332976Y-99421904D02*
X188332976Y-98621904D01*
X188142500Y-98621904D01*
X188028214Y-98660000D01*
X187952023Y-98736190D01*
X187913928Y-98812380D01*
X187875833Y-98964761D01*
X187875833Y-99079047D01*
X187913928Y-99231428D01*
X187952023Y-99307619D01*
X188028214Y-99383809D01*
X188142500Y-99421904D01*
X188332976Y-99421904D01*
X187228214Y-99383809D02*
X187304404Y-99421904D01*
X187456785Y-99421904D01*
X187532976Y-99383809D01*
X187571071Y-99307619D01*
X187571071Y-99002857D01*
X187532976Y-98926666D01*
X187456785Y-98888571D01*
X187304404Y-98888571D01*
X187228214Y-98926666D01*
X187190119Y-99002857D01*
X187190119Y-99079047D01*
X187571071Y-99155238D01*
X186923452Y-98888571D02*
X186732976Y-99421904D01*
X186542500Y-98888571D01*
X185932976Y-99383809D02*
X186009166Y-99421904D01*
X186161547Y-99421904D01*
X186237738Y-99383809D01*
X186275833Y-99307619D01*
X186275833Y-99002857D01*
X186237738Y-98926666D01*
X186161547Y-98888571D01*
X186009166Y-98888571D01*
X185932976Y-98926666D01*
X185894880Y-99002857D01*
X185894880Y-99079047D01*
X186275833Y-99155238D01*
X185437738Y-99421904D02*
X185513928Y-99383809D01*
X185552023Y-99307619D01*
X185552023Y-98621904D01*
X185018690Y-99421904D02*
X185094880Y-99383809D01*
X185132976Y-99345714D01*
X185171071Y-99269523D01*
X185171071Y-99040952D01*
X185132976Y-98964761D01*
X185094880Y-98926666D01*
X185018690Y-98888571D01*
X184904404Y-98888571D01*
X184828214Y-98926666D01*
X184790119Y-98964761D01*
X184752023Y-99040952D01*
X184752023Y-99269523D01*
X184790119Y-99345714D01*
X184828214Y-99383809D01*
X184904404Y-99421904D01*
X185018690Y-99421904D01*
X184409166Y-98888571D02*
X184409166Y-99688571D01*
X184409166Y-98926666D02*
X184332976Y-98888571D01*
X184180595Y-98888571D01*
X184104404Y-98926666D01*
X184066309Y-98964761D01*
X184028214Y-99040952D01*
X184028214Y-99269523D01*
X184066309Y-99345714D01*
X184104404Y-99383809D01*
X184180595Y-99421904D01*
X184332976Y-99421904D01*
X184409166Y-99383809D01*
X183685357Y-99421904D02*
X183685357Y-98888571D01*
X183685357Y-98964761D02*
X183647261Y-98926666D01*
X183571071Y-98888571D01*
X183456785Y-98888571D01*
X183380595Y-98926666D01*
X183342500Y-99002857D01*
X183342500Y-99421904D01*
X183342500Y-99002857D02*
X183304404Y-98926666D01*
X183228214Y-98888571D01*
X183113928Y-98888571D01*
X183037738Y-98926666D01*
X182999642Y-99002857D01*
X182999642Y-99421904D01*
X182313928Y-99383809D02*
X182390119Y-99421904D01*
X182542500Y-99421904D01*
X182618690Y-99383809D01*
X182656785Y-99307619D01*
X182656785Y-99002857D01*
X182618690Y-98926666D01*
X182542500Y-98888571D01*
X182390119Y-98888571D01*
X182313928Y-98926666D01*
X182275833Y-99002857D01*
X182275833Y-99079047D01*
X182656785Y-99155238D01*
X181932976Y-98888571D02*
X181932976Y-99421904D01*
X181932976Y-98964761D02*
X181894880Y-98926666D01*
X181818690Y-98888571D01*
X181704404Y-98888571D01*
X181628214Y-98926666D01*
X181590119Y-99002857D01*
X181590119Y-99421904D01*
X181323452Y-98888571D02*
X181018690Y-98888571D01*
X181209166Y-98621904D02*
X181209166Y-99307619D01*
X181171071Y-99383809D01*
X181094880Y-99421904D01*
X181018690Y-99421904D01*
X179875833Y-99002857D02*
X179761547Y-99040952D01*
X179723452Y-99079047D01*
X179685357Y-99155238D01*
X179685357Y-99269523D01*
X179723452Y-99345714D01*
X179761547Y-99383809D01*
X179837738Y-99421904D01*
X180142500Y-99421904D01*
X180142500Y-98621904D01*
X179875833Y-98621904D01*
X179799642Y-98660000D01*
X179761547Y-98698095D01*
X179723452Y-98774285D01*
X179723452Y-98850476D01*
X179761547Y-98926666D01*
X179799642Y-98964761D01*
X179875833Y-99002857D01*
X180142500Y-99002857D01*
X179228214Y-99421904D02*
X179304404Y-99383809D01*
X179342500Y-99345714D01*
X179380595Y-99269523D01*
X179380595Y-99040952D01*
X179342500Y-98964761D01*
X179304404Y-98926666D01*
X179228214Y-98888571D01*
X179113928Y-98888571D01*
X179037738Y-98926666D01*
X178999642Y-98964761D01*
X178961547Y-99040952D01*
X178961547Y-99269523D01*
X178999642Y-99345714D01*
X179037738Y-99383809D01*
X179113928Y-99421904D01*
X179228214Y-99421904D01*
X178275833Y-99421904D02*
X178275833Y-99002857D01*
X178313928Y-98926666D01*
X178390119Y-98888571D01*
X178542500Y-98888571D01*
X178618690Y-98926666D01*
X178275833Y-99383809D02*
X178352023Y-99421904D01*
X178542500Y-99421904D01*
X178618690Y-99383809D01*
X178656785Y-99307619D01*
X178656785Y-99231428D01*
X178618690Y-99155238D01*
X178542500Y-99117142D01*
X178352023Y-99117142D01*
X178275833Y-99079047D01*
X177894880Y-99421904D02*
X177894880Y-98888571D01*
X177894880Y-99040952D02*
X177856785Y-98964761D01*
X177818690Y-98926666D01*
X177742500Y-98888571D01*
X177666309Y-98888571D01*
X177056785Y-99421904D02*
X177056785Y-98621904D01*
X177056785Y-99383809D02*
X177132976Y-99421904D01*
X177285357Y-99421904D01*
X177361547Y-99383809D01*
X177399642Y-99345714D01*
X177437738Y-99269523D01*
X177437738Y-99040952D01*
X177399642Y-98964761D01*
X177361547Y-98926666D01*
X177285357Y-98888571D01*
X177132976Y-98888571D01*
X177056785Y-98926666D01*
X192104404Y-100162380D02*
X192180595Y-100124285D01*
X192332976Y-100124285D01*
X192409166Y-100162380D01*
X192485357Y-100238571D01*
X192523452Y-100314761D01*
X192523452Y-100467142D01*
X192485357Y-100543333D01*
X192409166Y-100619523D01*
X192332976Y-100657619D01*
X192180595Y-100657619D01*
X192104404Y-100619523D01*
X192256785Y-99857619D02*
X192447261Y-99895714D01*
X192637738Y-100010000D01*
X192752023Y-100200476D01*
X192790119Y-100390952D01*
X192752023Y-100581428D01*
X192637738Y-100771904D01*
X192447261Y-100886190D01*
X192256785Y-100924285D01*
X192066309Y-100886190D01*
X191875833Y-100771904D01*
X191761547Y-100581428D01*
X191723452Y-100390952D01*
X191761547Y-100200476D01*
X191875833Y-100010000D01*
X192066309Y-99895714D01*
X192256785Y-99857619D01*
X190809166Y-100048095D02*
X190771071Y-100010000D01*
X190694880Y-99971904D01*
X190504404Y-99971904D01*
X190428214Y-100010000D01*
X190390119Y-100048095D01*
X190352023Y-100124285D01*
X190352023Y-100200476D01*
X190390119Y-100314761D01*
X190847261Y-100771904D01*
X190352023Y-100771904D01*
X189856785Y-99971904D02*
X189780595Y-99971904D01*
X189704404Y-100010000D01*
X189666309Y-100048095D01*
X189628214Y-100124285D01*
X189590119Y-100276666D01*
X189590119Y-100467142D01*
X189628214Y-100619523D01*
X189666309Y-100695714D01*
X189704404Y-100733809D01*
X189780595Y-100771904D01*
X189856785Y-100771904D01*
X189932976Y-100733809D01*
X189971071Y-100695714D01*
X190009166Y-100619523D01*
X190047261Y-100467142D01*
X190047261Y-100276666D01*
X190009166Y-100124285D01*
X189971071Y-100048095D01*
X189932976Y-100010000D01*
X189856785Y-99971904D01*
X189285357Y-100048095D02*
X189247261Y-100010000D01*
X189171071Y-99971904D01*
X188980595Y-99971904D01*
X188904404Y-100010000D01*
X188866309Y-100048095D01*
X188828214Y-100124285D01*
X188828214Y-100200476D01*
X188866309Y-100314761D01*
X189323452Y-100771904D01*
X188828214Y-100771904D01*
X188332976Y-99971904D02*
X188256785Y-99971904D01*
X188180595Y-100010000D01*
X188142500Y-100048095D01*
X188104404Y-100124285D01*
X188066309Y-100276666D01*
X188066309Y-100467142D01*
X188104404Y-100619523D01*
X188142500Y-100695714D01*
X188180595Y-100733809D01*
X188256785Y-100771904D01*
X188332976Y-100771904D01*
X188409166Y-100733809D01*
X188447261Y-100695714D01*
X188485357Y-100619523D01*
X188523452Y-100467142D01*
X188523452Y-100276666D01*
X188485357Y-100124285D01*
X188447261Y-100048095D01*
X188409166Y-100010000D01*
X188332976Y-99971904D01*
X186732976Y-100771904D02*
X187113928Y-100771904D01*
X187113928Y-99971904D01*
X186123452Y-100771904D02*
X186123452Y-100352857D01*
X186161547Y-100276666D01*
X186237738Y-100238571D01*
X186390119Y-100238571D01*
X186466309Y-100276666D01*
X186123452Y-100733809D02*
X186199642Y-100771904D01*
X186390119Y-100771904D01*
X186466309Y-100733809D01*
X186504404Y-100657619D01*
X186504404Y-100581428D01*
X186466309Y-100505238D01*
X186390119Y-100467142D01*
X186199642Y-100467142D01*
X186123452Y-100429047D01*
X185742500Y-100771904D02*
X185742500Y-100238571D01*
X185742500Y-100390952D02*
X185704404Y-100314761D01*
X185666309Y-100276666D01*
X185590119Y-100238571D01*
X185513928Y-100238571D01*
X185285357Y-100733809D02*
X185209166Y-100771904D01*
X185056785Y-100771904D01*
X184980595Y-100733809D01*
X184942500Y-100657619D01*
X184942500Y-100619523D01*
X184980595Y-100543333D01*
X185056785Y-100505238D01*
X185171071Y-100505238D01*
X185247261Y-100467142D01*
X185285357Y-100390952D01*
X185285357Y-100352857D01*
X185247261Y-100276666D01*
X185171071Y-100238571D01*
X185056785Y-100238571D01*
X184980595Y-100276666D01*
X183723452Y-100352857D02*
X183609166Y-100390952D01*
X183571071Y-100429047D01*
X183532976Y-100505238D01*
X183532976Y-100619523D01*
X183571071Y-100695714D01*
X183609166Y-100733809D01*
X183685357Y-100771904D01*
X183990119Y-100771904D01*
X183990119Y-99971904D01*
X183723452Y-99971904D01*
X183647261Y-100010000D01*
X183609166Y-100048095D01*
X183571071Y-100124285D01*
X183571071Y-100200476D01*
X183609166Y-100276666D01*
X183647261Y-100314761D01*
X183723452Y-100352857D01*
X183990119Y-100352857D01*
X183075833Y-100771904D02*
X183152023Y-100733809D01*
X183190119Y-100695714D01*
X183228214Y-100619523D01*
X183228214Y-100390952D01*
X183190119Y-100314761D01*
X183152023Y-100276666D01*
X183075833Y-100238571D01*
X182961547Y-100238571D01*
X182885357Y-100276666D01*
X182847261Y-100314761D01*
X182809166Y-100390952D01*
X182809166Y-100619523D01*
X182847261Y-100695714D01*
X182885357Y-100733809D01*
X182961547Y-100771904D01*
X183075833Y-100771904D01*
X182161547Y-100733809D02*
X182237738Y-100771904D01*
X182390119Y-100771904D01*
X182466309Y-100733809D01*
X182504404Y-100657619D01*
X182504404Y-100352857D01*
X182466309Y-100276666D01*
X182390119Y-100238571D01*
X182237738Y-100238571D01*
X182161547Y-100276666D01*
X182123452Y-100352857D01*
X182123452Y-100429047D01*
X182504404Y-100505238D01*
X181437738Y-100238571D02*
X181437738Y-100886190D01*
X181475833Y-100962380D01*
X181513928Y-101000476D01*
X181590119Y-101038571D01*
X181704404Y-101038571D01*
X181780595Y-101000476D01*
X181437738Y-100733809D02*
X181513928Y-100771904D01*
X181666309Y-100771904D01*
X181742500Y-100733809D01*
X181780595Y-100695714D01*
X181818690Y-100619523D01*
X181818690Y-100390952D01*
X181780595Y-100314761D01*
X181742500Y-100276666D01*
X181666309Y-100238571D01*
X181513928Y-100238571D01*
X181437738Y-100276666D01*
X181056785Y-100771904D02*
X181056785Y-100238571D01*
X181056785Y-99971904D02*
X181094880Y-100010000D01*
X181056785Y-100048095D01*
X181018690Y-100010000D01*
X181056785Y-99971904D01*
X181056785Y-100048095D01*
X180561547Y-100771904D02*
X180637738Y-100733809D01*
X180675833Y-100657619D01*
X180675833Y-99971904D01*
X179913928Y-100771904D02*
X179913928Y-99971904D01*
X179913928Y-100733809D02*
X179990119Y-100771904D01*
X180142500Y-100771904D01*
X180218690Y-100733809D01*
X180256785Y-100695714D01*
X180294880Y-100619523D01*
X180294880Y-100390952D01*
X180256785Y-100314761D01*
X180218690Y-100276666D01*
X180142500Y-100238571D01*
X179990119Y-100238571D01*
X179913928Y-100276666D01*
X179037738Y-99971904D02*
X178580595Y-99971904D01*
X178809166Y-100771904D02*
X178809166Y-99971904D01*
X178313928Y-100771904D02*
X178313928Y-99971904D01*
X177971071Y-100771904D02*
X177971071Y-100352857D01*
X178009166Y-100276666D01*
X178085357Y-100238571D01*
X178199642Y-100238571D01*
X178275833Y-100276666D01*
X178313928Y-100314761D01*
X177475833Y-100771904D02*
X177552023Y-100733809D01*
X177590119Y-100695714D01*
X177628214Y-100619523D01*
X177628214Y-100390952D01*
X177590119Y-100314761D01*
X177552023Y-100276666D01*
X177475833Y-100238571D01*
X177361547Y-100238571D01*
X177285357Y-100276666D01*
X177247261Y-100314761D01*
X177209166Y-100390952D01*
X177209166Y-100619523D01*
X177247261Y-100695714D01*
X177285357Y-100733809D01*
X177361547Y-100771904D01*
X177475833Y-100771904D01*
X176866309Y-100771904D02*
X176866309Y-100238571D01*
X176866309Y-100314761D02*
X176828214Y-100276666D01*
X176752023Y-100238571D01*
X176637738Y-100238571D01*
X176561547Y-100276666D01*
X176523452Y-100352857D01*
X176523452Y-100771904D01*
X176523452Y-100352857D02*
X176485357Y-100276666D01*
X176409166Y-100238571D01*
X176294880Y-100238571D01*
X176218690Y-100276666D01*
X176180595Y-100352857D01*
X176180595Y-100771904D01*
X175837738Y-100733809D02*
X175761547Y-100771904D01*
X175609166Y-100771904D01*
X175532976Y-100733809D01*
X175494880Y-100657619D01*
X175494880Y-100619523D01*
X175532976Y-100543333D01*
X175609166Y-100505238D01*
X175723452Y-100505238D01*
X175799642Y-100467142D01*
X175837738Y-100390952D01*
X175837738Y-100352857D01*
X175799642Y-100276666D01*
X175723452Y-100238571D01*
X175609166Y-100238571D01*
X175532976Y-100276666D01*
X174847261Y-100733809D02*
X174923452Y-100771904D01*
X175075833Y-100771904D01*
X175152023Y-100733809D01*
X175190119Y-100657619D01*
X175190119Y-100352857D01*
X175152023Y-100276666D01*
X175075833Y-100238571D01*
X174923452Y-100238571D01*
X174847261Y-100276666D01*
X174809166Y-100352857D01*
X174809166Y-100429047D01*
X175190119Y-100505238D01*
X174466309Y-100238571D02*
X174466309Y-100771904D01*
X174466309Y-100314761D02*
X174428214Y-100276666D01*
X174352023Y-100238571D01*
X174237738Y-100238571D01*
X174161547Y-100276666D01*
X174123452Y-100352857D01*
X174123452Y-100771904D01*
D11*
G04 #@! TO.C,J3*
X203260000Y-107890000D02*
X203260000Y-110550000D01*
X154940000Y-107890000D02*
X203260000Y-107890000D01*
X154940000Y-110550000D02*
X203260000Y-110550000D01*
X154940000Y-107890000D02*
X154940000Y-110550000D01*
X153670000Y-107890000D02*
X152340000Y-107890000D01*
X152340000Y-107890000D02*
X152340000Y-109220000D01*
G04 #@! TO.C,J4*
X203260000Y-92650000D02*
X203260000Y-95310000D01*
X154940000Y-92650000D02*
X203260000Y-92650000D01*
X154940000Y-95310000D02*
X203260000Y-95310000D01*
X154940000Y-92650000D02*
X154940000Y-95310000D01*
X153670000Y-92650000D02*
X152340000Y-92650000D01*
X152340000Y-92650000D02*
X152340000Y-93980000D01*
G04 #@! TD*
M02*
