%TF.GenerationSoftware,KiCad,Pcbnew,5.1.7+dfsg1-1*%
%TF.CreationDate,2020-10-11T16:52:52+08:00*%
%TF.ProjectId,gp,67702e6b-6963-4616-945f-706362585858,c*%
%TF.SameCoordinates,Original*%
%TF.FileFunction,Legend,Bot*%
%TF.FilePolarity,Positive*%
%FSLAX46Y46*%
G04 Gerber Fmt 4.6, Leading zero omitted, Abs format (unit mm)*
G04 Created by KiCad (PCBNEW 5.1.7+dfsg1-1) date 2020-10-11 16:52:52*
%MOMM*%
%LPD*%
G01*
G04 APERTURE LIST*
%ADD10C,0.150000*%
%ADD11C,0.120000*%
G04 APERTURE END LIST*
D10*
X161513928Y-104501904D02*
X161780595Y-104120952D01*
X161971071Y-104501904D02*
X161971071Y-103701904D01*
X161666309Y-103701904D01*
X161590119Y-103740000D01*
X161552023Y-103778095D01*
X161513928Y-103854285D01*
X161513928Y-103968571D01*
X161552023Y-104044761D01*
X161590119Y-104082857D01*
X161666309Y-104120952D01*
X161971071Y-104120952D01*
X161209166Y-104463809D02*
X161094880Y-104501904D01*
X160904404Y-104501904D01*
X160828214Y-104463809D01*
X160790119Y-104425714D01*
X160752023Y-104349523D01*
X160752023Y-104273333D01*
X160790119Y-104197142D01*
X160828214Y-104159047D01*
X160904404Y-104120952D01*
X161056785Y-104082857D01*
X161132976Y-104044761D01*
X161171071Y-104006666D01*
X161209166Y-103930476D01*
X161209166Y-103854285D01*
X161171071Y-103778095D01*
X161132976Y-103740000D01*
X161056785Y-103701904D01*
X160866309Y-103701904D01*
X160752023Y-103740000D01*
X160523452Y-103701904D02*
X160066309Y-103701904D01*
X160294880Y-104501904D02*
X160294880Y-103701904D01*
X159228214Y-103663809D02*
X159913928Y-104692380D01*
X159037738Y-103701904D02*
X158542500Y-103701904D01*
X158809166Y-104006666D01*
X158694880Y-104006666D01*
X158618690Y-104044761D01*
X158580595Y-104082857D01*
X158542500Y-104159047D01*
X158542500Y-104349523D01*
X158580595Y-104425714D01*
X158618690Y-104463809D01*
X158694880Y-104501904D01*
X158923452Y-104501904D01*
X158999642Y-104463809D01*
X159037738Y-104425714D01*
X158313928Y-103701904D02*
X158047261Y-104501904D01*
X157780595Y-103701904D01*
X157590119Y-103701904D02*
X157094880Y-103701904D01*
X157361547Y-104006666D01*
X157247261Y-104006666D01*
X157171071Y-104044761D01*
X157132976Y-104082857D01*
X157094880Y-104159047D01*
X157094880Y-104349523D01*
X157132976Y-104425714D01*
X157171071Y-104463809D01*
X157247261Y-104501904D01*
X157475833Y-104501904D01*
X157552023Y-104463809D01*
X157590119Y-104425714D01*
X160599642Y-101885714D02*
X160637738Y-101923809D01*
X160752023Y-101961904D01*
X160828214Y-101961904D01*
X160942500Y-101923809D01*
X161018690Y-101847619D01*
X161056785Y-101771428D01*
X161094880Y-101619047D01*
X161094880Y-101504761D01*
X161056785Y-101352380D01*
X161018690Y-101276190D01*
X160942500Y-101200000D01*
X160828214Y-101161904D01*
X160752023Y-101161904D01*
X160637738Y-101200000D01*
X160599642Y-101238095D01*
X159875833Y-101961904D02*
X160256785Y-101961904D01*
X160256785Y-101161904D01*
X159609166Y-101961904D02*
X159609166Y-101161904D01*
X159152023Y-101961904D02*
X159494880Y-101504761D01*
X159152023Y-101161904D02*
X159609166Y-101619047D01*
X158237738Y-101123809D02*
X158923452Y-102152380D01*
X157971071Y-101961904D02*
X157971071Y-101161904D01*
X157437738Y-101161904D02*
X157285357Y-101161904D01*
X157209166Y-101200000D01*
X157132976Y-101276190D01*
X157094880Y-101428571D01*
X157094880Y-101695238D01*
X157132976Y-101847619D01*
X157209166Y-101923809D01*
X157285357Y-101961904D01*
X157437738Y-101961904D01*
X157513928Y-101923809D01*
X157590119Y-101847619D01*
X157628214Y-101695238D01*
X157628214Y-101428571D01*
X157590119Y-101276190D01*
X157513928Y-101200000D01*
X157437738Y-101161904D01*
X162123452Y-98660000D02*
X162199642Y-98621904D01*
X162313928Y-98621904D01*
X162428214Y-98660000D01*
X162504404Y-98736190D01*
X162542500Y-98812380D01*
X162580595Y-98964761D01*
X162580595Y-99079047D01*
X162542500Y-99231428D01*
X162504404Y-99307619D01*
X162428214Y-99383809D01*
X162313928Y-99421904D01*
X162237738Y-99421904D01*
X162123452Y-99383809D01*
X162085357Y-99345714D01*
X162085357Y-99079047D01*
X162237738Y-99079047D01*
X161742500Y-99421904D02*
X161742500Y-98621904D01*
X161285357Y-99421904D01*
X161285357Y-98621904D01*
X160904404Y-99421904D02*
X160904404Y-98621904D01*
X160713928Y-98621904D01*
X160599642Y-98660000D01*
X160523452Y-98736190D01*
X160485357Y-98812380D01*
X160447261Y-98964761D01*
X160447261Y-99079047D01*
X160485357Y-99231428D01*
X160523452Y-99307619D01*
X160599642Y-99383809D01*
X160713928Y-99421904D01*
X160904404Y-99421904D01*
X159532976Y-98583809D02*
X160218690Y-99612380D01*
X159304404Y-99383809D02*
X159190119Y-99421904D01*
X158999642Y-99421904D01*
X158923452Y-99383809D01*
X158885357Y-99345714D01*
X158847261Y-99269523D01*
X158847261Y-99193333D01*
X158885357Y-99117142D01*
X158923452Y-99079047D01*
X158999642Y-99040952D01*
X159152023Y-99002857D01*
X159228214Y-98964761D01*
X159266309Y-98926666D01*
X159304404Y-98850476D01*
X159304404Y-98774285D01*
X159266309Y-98698095D01*
X159228214Y-98660000D01*
X159152023Y-98621904D01*
X158961547Y-98621904D01*
X158847261Y-98660000D01*
X158580595Y-98621904D02*
X158390119Y-99421904D01*
X158237738Y-98850476D01*
X158085357Y-99421904D01*
X157894880Y-98621904D01*
X157437738Y-98621904D02*
X157285357Y-98621904D01*
X157209166Y-98660000D01*
X157132976Y-98736190D01*
X157094880Y-98888571D01*
X157094880Y-99155238D01*
X157132976Y-99307619D01*
X157209166Y-99383809D01*
X157285357Y-99421904D01*
X157437738Y-99421904D01*
X157513928Y-99383809D01*
X157590119Y-99307619D01*
X157628214Y-99155238D01*
X157628214Y-98888571D01*
X157590119Y-98736190D01*
X157513928Y-98660000D01*
X157437738Y-98621904D01*
X195063452Y-106876904D02*
X195063452Y-107448333D01*
X195101547Y-107562619D01*
X195177738Y-107638809D01*
X195292023Y-107676904D01*
X195368214Y-107676904D01*
X194301547Y-107676904D02*
X194682500Y-107676904D01*
X194682500Y-106876904D01*
X193577738Y-107600714D02*
X193615833Y-107638809D01*
X193730119Y-107676904D01*
X193806309Y-107676904D01*
X193920595Y-107638809D01*
X193996785Y-107562619D01*
X194034880Y-107486428D01*
X194072976Y-107334047D01*
X194072976Y-107219761D01*
X194034880Y-107067380D01*
X193996785Y-106991190D01*
X193920595Y-106915000D01*
X193806309Y-106876904D01*
X193730119Y-106876904D01*
X193615833Y-106915000D01*
X193577738Y-106953095D01*
X193006309Y-106876904D02*
X193006309Y-107448333D01*
X193044404Y-107562619D01*
X193120595Y-107638809D01*
X193234880Y-107676904D01*
X193311071Y-107676904D01*
X192244404Y-107676904D02*
X192625357Y-107676904D01*
X192625357Y-106876904D01*
X191520595Y-107600714D02*
X191558690Y-107638809D01*
X191672976Y-107676904D01*
X191749166Y-107676904D01*
X191863452Y-107638809D01*
X191939642Y-107562619D01*
X191977738Y-107486428D01*
X192015833Y-107334047D01*
X192015833Y-107219761D01*
X191977738Y-107067380D01*
X191939642Y-106991190D01*
X191863452Y-106915000D01*
X191749166Y-106876904D01*
X191672976Y-106876904D01*
X191558690Y-106915000D01*
X191520595Y-106953095D01*
X190949166Y-106876904D02*
X190949166Y-107448333D01*
X190987261Y-107562619D01*
X191063452Y-107638809D01*
X191177738Y-107676904D01*
X191253928Y-107676904D01*
X190187261Y-107676904D02*
X190568214Y-107676904D01*
X190568214Y-106876904D01*
X189463452Y-107600714D02*
X189501547Y-107638809D01*
X189615833Y-107676904D01*
X189692023Y-107676904D01*
X189806309Y-107638809D01*
X189882500Y-107562619D01*
X189920595Y-107486428D01*
X189958690Y-107334047D01*
X189958690Y-107219761D01*
X189920595Y-107067380D01*
X189882500Y-106991190D01*
X189806309Y-106915000D01*
X189692023Y-106876904D01*
X189615833Y-106876904D01*
X189501547Y-106915000D01*
X189463452Y-106953095D01*
X188892023Y-106876904D02*
X188892023Y-107448333D01*
X188930119Y-107562619D01*
X189006309Y-107638809D01*
X189120595Y-107676904D01*
X189196785Y-107676904D01*
X188130119Y-107676904D02*
X188511071Y-107676904D01*
X188511071Y-106876904D01*
X187406309Y-107600714D02*
X187444404Y-107638809D01*
X187558690Y-107676904D01*
X187634880Y-107676904D01*
X187749166Y-107638809D01*
X187825357Y-107562619D01*
X187863452Y-107486428D01*
X187901547Y-107334047D01*
X187901547Y-107219761D01*
X187863452Y-107067380D01*
X187825357Y-106991190D01*
X187749166Y-106915000D01*
X187634880Y-106876904D01*
X187558690Y-106876904D01*
X187444404Y-106915000D01*
X187406309Y-106953095D01*
X154279523Y-110725000D02*
X154355714Y-110686904D01*
X154470000Y-110686904D01*
X154584285Y-110725000D01*
X154660476Y-110801190D01*
X154698571Y-110877380D01*
X154736666Y-111029761D01*
X154736666Y-111144047D01*
X154698571Y-111296428D01*
X154660476Y-111372619D01*
X154584285Y-111448809D01*
X154470000Y-111486904D01*
X154393809Y-111486904D01*
X154279523Y-111448809D01*
X154241428Y-111410714D01*
X154241428Y-111144047D01*
X154393809Y-111144047D01*
X153898571Y-111486904D02*
X153898571Y-110686904D01*
X153441428Y-111486904D01*
X153441428Y-110686904D01*
X153060476Y-111486904D02*
X153060476Y-110686904D01*
X152870000Y-110686904D01*
X152755714Y-110725000D01*
X152679523Y-110801190D01*
X152641428Y-110877380D01*
X152603333Y-111029761D01*
X152603333Y-111144047D01*
X152641428Y-111296428D01*
X152679523Y-111372619D01*
X152755714Y-111448809D01*
X152870000Y-111486904D01*
X153060476Y-111486904D01*
X156724285Y-111410714D02*
X156762380Y-111448809D01*
X156876666Y-111486904D01*
X156952857Y-111486904D01*
X157067142Y-111448809D01*
X157143333Y-111372619D01*
X157181428Y-111296428D01*
X157219523Y-111144047D01*
X157219523Y-111029761D01*
X157181428Y-110877380D01*
X157143333Y-110801190D01*
X157067142Y-110725000D01*
X156952857Y-110686904D01*
X156876666Y-110686904D01*
X156762380Y-110725000D01*
X156724285Y-110763095D01*
X155962380Y-111486904D02*
X156419523Y-111486904D01*
X156190952Y-111486904D02*
X156190952Y-110686904D01*
X156267142Y-110801190D01*
X156343333Y-110877380D01*
X156419523Y-110915476D01*
X155695714Y-110686904D02*
X155200476Y-110686904D01*
X155467142Y-110991666D01*
X155352857Y-110991666D01*
X155276666Y-111029761D01*
X155238571Y-111067857D01*
X155200476Y-111144047D01*
X155200476Y-111334523D01*
X155238571Y-111410714D01*
X155276666Y-111448809D01*
X155352857Y-111486904D01*
X155581428Y-111486904D01*
X155657619Y-111448809D01*
X155695714Y-111410714D01*
X159264285Y-111410714D02*
X159302380Y-111448809D01*
X159416666Y-111486904D01*
X159492857Y-111486904D01*
X159607142Y-111448809D01*
X159683333Y-111372619D01*
X159721428Y-111296428D01*
X159759523Y-111144047D01*
X159759523Y-111029761D01*
X159721428Y-110877380D01*
X159683333Y-110801190D01*
X159607142Y-110725000D01*
X159492857Y-110686904D01*
X159416666Y-110686904D01*
X159302380Y-110725000D01*
X159264285Y-110763095D01*
X158502380Y-111486904D02*
X158959523Y-111486904D01*
X158730952Y-111486904D02*
X158730952Y-110686904D01*
X158807142Y-110801190D01*
X158883333Y-110877380D01*
X158959523Y-110915476D01*
X157816666Y-110953571D02*
X157816666Y-111486904D01*
X158007142Y-110648809D02*
X158197619Y-111220238D01*
X157702380Y-111220238D01*
X161804285Y-111410714D02*
X161842380Y-111448809D01*
X161956666Y-111486904D01*
X162032857Y-111486904D01*
X162147142Y-111448809D01*
X162223333Y-111372619D01*
X162261428Y-111296428D01*
X162299523Y-111144047D01*
X162299523Y-111029761D01*
X162261428Y-110877380D01*
X162223333Y-110801190D01*
X162147142Y-110725000D01*
X162032857Y-110686904D01*
X161956666Y-110686904D01*
X161842380Y-110725000D01*
X161804285Y-110763095D01*
X161042380Y-111486904D02*
X161499523Y-111486904D01*
X161270952Y-111486904D02*
X161270952Y-110686904D01*
X161347142Y-110801190D01*
X161423333Y-110877380D01*
X161499523Y-110915476D01*
X160318571Y-110686904D02*
X160699523Y-110686904D01*
X160737619Y-111067857D01*
X160699523Y-111029761D01*
X160623333Y-110991666D01*
X160432857Y-110991666D01*
X160356666Y-111029761D01*
X160318571Y-111067857D01*
X160280476Y-111144047D01*
X160280476Y-111334523D01*
X160318571Y-111410714D01*
X160356666Y-111448809D01*
X160432857Y-111486904D01*
X160623333Y-111486904D01*
X160699523Y-111448809D01*
X160737619Y-111410714D01*
X164401428Y-111258333D02*
X164020476Y-111258333D01*
X164477619Y-111486904D02*
X164210952Y-110686904D01*
X163944285Y-111486904D01*
X163525238Y-110686904D02*
X163449047Y-110686904D01*
X163372857Y-110725000D01*
X163334761Y-110763095D01*
X163296666Y-110839285D01*
X163258571Y-110991666D01*
X163258571Y-111182142D01*
X163296666Y-111334523D01*
X163334761Y-111410714D01*
X163372857Y-111448809D01*
X163449047Y-111486904D01*
X163525238Y-111486904D01*
X163601428Y-111448809D01*
X163639523Y-111410714D01*
X163677619Y-111334523D01*
X163715714Y-111182142D01*
X163715714Y-110991666D01*
X163677619Y-110839285D01*
X163639523Y-110763095D01*
X163601428Y-110725000D01*
X163525238Y-110686904D01*
X166941428Y-111258333D02*
X166560476Y-111258333D01*
X167017619Y-111486904D02*
X166750952Y-110686904D01*
X166484285Y-111486904D01*
X165798571Y-111486904D02*
X166255714Y-111486904D01*
X166027142Y-111486904D02*
X166027142Y-110686904D01*
X166103333Y-110801190D01*
X166179523Y-110877380D01*
X166255714Y-110915476D01*
X169481428Y-111258333D02*
X169100476Y-111258333D01*
X169557619Y-111486904D02*
X169290952Y-110686904D01*
X169024285Y-111486904D01*
X168795714Y-110763095D02*
X168757619Y-110725000D01*
X168681428Y-110686904D01*
X168490952Y-110686904D01*
X168414761Y-110725000D01*
X168376666Y-110763095D01*
X168338571Y-110839285D01*
X168338571Y-110915476D01*
X168376666Y-111029761D01*
X168833809Y-111486904D01*
X168338571Y-111486904D01*
X172021428Y-111258333D02*
X171640476Y-111258333D01*
X172097619Y-111486904D02*
X171830952Y-110686904D01*
X171564285Y-111486904D01*
X171373809Y-110686904D02*
X170878571Y-110686904D01*
X171145238Y-110991666D01*
X171030952Y-110991666D01*
X170954761Y-111029761D01*
X170916666Y-111067857D01*
X170878571Y-111144047D01*
X170878571Y-111334523D01*
X170916666Y-111410714D01*
X170954761Y-111448809D01*
X171030952Y-111486904D01*
X171259523Y-111486904D01*
X171335714Y-111448809D01*
X171373809Y-111410714D01*
X174561428Y-111258333D02*
X174180476Y-111258333D01*
X174637619Y-111486904D02*
X174370952Y-110686904D01*
X174104285Y-111486904D01*
X173494761Y-110953571D02*
X173494761Y-111486904D01*
X173685238Y-110648809D02*
X173875714Y-111220238D01*
X173380476Y-111220238D01*
X177101428Y-111258333D02*
X176720476Y-111258333D01*
X177177619Y-111486904D02*
X176910952Y-110686904D01*
X176644285Y-111486904D01*
X175996666Y-110686904D02*
X176377619Y-110686904D01*
X176415714Y-111067857D01*
X176377619Y-111029761D01*
X176301428Y-110991666D01*
X176110952Y-110991666D01*
X176034761Y-111029761D01*
X175996666Y-111067857D01*
X175958571Y-111144047D01*
X175958571Y-111334523D01*
X175996666Y-111410714D01*
X176034761Y-111448809D01*
X176110952Y-111486904D01*
X176301428Y-111486904D01*
X176377619Y-111448809D01*
X176415714Y-111410714D01*
X179641428Y-111258333D02*
X179260476Y-111258333D01*
X179717619Y-111486904D02*
X179450952Y-110686904D01*
X179184285Y-111486904D01*
X178574761Y-110686904D02*
X178727142Y-110686904D01*
X178803333Y-110725000D01*
X178841428Y-110763095D01*
X178917619Y-110877380D01*
X178955714Y-111029761D01*
X178955714Y-111334523D01*
X178917619Y-111410714D01*
X178879523Y-111448809D01*
X178803333Y-111486904D01*
X178650952Y-111486904D01*
X178574761Y-111448809D01*
X178536666Y-111410714D01*
X178498571Y-111334523D01*
X178498571Y-111144047D01*
X178536666Y-111067857D01*
X178574761Y-111029761D01*
X178650952Y-110991666D01*
X178803333Y-110991666D01*
X178879523Y-111029761D01*
X178917619Y-111067857D01*
X178955714Y-111144047D01*
X182181428Y-111258333D02*
X181800476Y-111258333D01*
X182257619Y-111486904D02*
X181990952Y-110686904D01*
X181724285Y-111486904D01*
X181533809Y-110686904D02*
X181000476Y-110686904D01*
X181343333Y-111486904D01*
X184473809Y-111067857D02*
X184359523Y-111105952D01*
X184321428Y-111144047D01*
X184283333Y-111220238D01*
X184283333Y-111334523D01*
X184321428Y-111410714D01*
X184359523Y-111448809D01*
X184435714Y-111486904D01*
X184740476Y-111486904D01*
X184740476Y-110686904D01*
X184473809Y-110686904D01*
X184397619Y-110725000D01*
X184359523Y-110763095D01*
X184321428Y-110839285D01*
X184321428Y-110915476D01*
X184359523Y-110991666D01*
X184397619Y-111029761D01*
X184473809Y-111067857D01*
X184740476Y-111067857D01*
X183788095Y-110686904D02*
X183711904Y-110686904D01*
X183635714Y-110725000D01*
X183597619Y-110763095D01*
X183559523Y-110839285D01*
X183521428Y-110991666D01*
X183521428Y-111182142D01*
X183559523Y-111334523D01*
X183597619Y-111410714D01*
X183635714Y-111448809D01*
X183711904Y-111486904D01*
X183788095Y-111486904D01*
X183864285Y-111448809D01*
X183902380Y-111410714D01*
X183940476Y-111334523D01*
X183978571Y-111182142D01*
X183978571Y-110991666D01*
X183940476Y-110839285D01*
X183902380Y-110763095D01*
X183864285Y-110725000D01*
X183788095Y-110686904D01*
X187013809Y-111067857D02*
X186899523Y-111105952D01*
X186861428Y-111144047D01*
X186823333Y-111220238D01*
X186823333Y-111334523D01*
X186861428Y-111410714D01*
X186899523Y-111448809D01*
X186975714Y-111486904D01*
X187280476Y-111486904D01*
X187280476Y-110686904D01*
X187013809Y-110686904D01*
X186937619Y-110725000D01*
X186899523Y-110763095D01*
X186861428Y-110839285D01*
X186861428Y-110915476D01*
X186899523Y-110991666D01*
X186937619Y-111029761D01*
X187013809Y-111067857D01*
X187280476Y-111067857D01*
X186061428Y-111486904D02*
X186518571Y-111486904D01*
X186290000Y-111486904D02*
X186290000Y-110686904D01*
X186366190Y-110801190D01*
X186442380Y-110877380D01*
X186518571Y-110915476D01*
X189553809Y-111067857D02*
X189439523Y-111105952D01*
X189401428Y-111144047D01*
X189363333Y-111220238D01*
X189363333Y-111334523D01*
X189401428Y-111410714D01*
X189439523Y-111448809D01*
X189515714Y-111486904D01*
X189820476Y-111486904D01*
X189820476Y-110686904D01*
X189553809Y-110686904D01*
X189477619Y-110725000D01*
X189439523Y-110763095D01*
X189401428Y-110839285D01*
X189401428Y-110915476D01*
X189439523Y-110991666D01*
X189477619Y-111029761D01*
X189553809Y-111067857D01*
X189820476Y-111067857D01*
X189058571Y-110763095D02*
X189020476Y-110725000D01*
X188944285Y-110686904D01*
X188753809Y-110686904D01*
X188677619Y-110725000D01*
X188639523Y-110763095D01*
X188601428Y-110839285D01*
X188601428Y-110915476D01*
X188639523Y-111029761D01*
X189096666Y-111486904D01*
X188601428Y-111486904D01*
X192474761Y-111067857D02*
X192360476Y-111105952D01*
X192322380Y-111144047D01*
X192284285Y-111220238D01*
X192284285Y-111334523D01*
X192322380Y-111410714D01*
X192360476Y-111448809D01*
X192436666Y-111486904D01*
X192741428Y-111486904D01*
X192741428Y-110686904D01*
X192474761Y-110686904D01*
X192398571Y-110725000D01*
X192360476Y-110763095D01*
X192322380Y-110839285D01*
X192322380Y-110915476D01*
X192360476Y-110991666D01*
X192398571Y-111029761D01*
X192474761Y-111067857D01*
X192741428Y-111067857D01*
X191522380Y-111486904D02*
X191979523Y-111486904D01*
X191750952Y-111486904D02*
X191750952Y-110686904D01*
X191827142Y-110801190D01*
X191903333Y-110877380D01*
X191979523Y-110915476D01*
X191027142Y-110686904D02*
X190950952Y-110686904D01*
X190874761Y-110725000D01*
X190836666Y-110763095D01*
X190798571Y-110839285D01*
X190760476Y-110991666D01*
X190760476Y-111182142D01*
X190798571Y-111334523D01*
X190836666Y-111410714D01*
X190874761Y-111448809D01*
X190950952Y-111486904D01*
X191027142Y-111486904D01*
X191103333Y-111448809D01*
X191141428Y-111410714D01*
X191179523Y-111334523D01*
X191217619Y-111182142D01*
X191217619Y-110991666D01*
X191179523Y-110839285D01*
X191141428Y-110763095D01*
X191103333Y-110725000D01*
X191027142Y-110686904D01*
X195014761Y-111067857D02*
X194900476Y-111105952D01*
X194862380Y-111144047D01*
X194824285Y-111220238D01*
X194824285Y-111334523D01*
X194862380Y-111410714D01*
X194900476Y-111448809D01*
X194976666Y-111486904D01*
X195281428Y-111486904D01*
X195281428Y-110686904D01*
X195014761Y-110686904D01*
X194938571Y-110725000D01*
X194900476Y-110763095D01*
X194862380Y-110839285D01*
X194862380Y-110915476D01*
X194900476Y-110991666D01*
X194938571Y-111029761D01*
X195014761Y-111067857D01*
X195281428Y-111067857D01*
X194062380Y-111486904D02*
X194519523Y-111486904D01*
X194290952Y-111486904D02*
X194290952Y-110686904D01*
X194367142Y-110801190D01*
X194443333Y-110877380D01*
X194519523Y-110915476D01*
X193300476Y-111486904D02*
X193757619Y-111486904D01*
X193529047Y-111486904D02*
X193529047Y-110686904D01*
X193605238Y-110801190D01*
X193681428Y-110877380D01*
X193757619Y-110915476D01*
X197840476Y-110686904D02*
X197345238Y-110686904D01*
X197611904Y-110991666D01*
X197497619Y-110991666D01*
X197421428Y-111029761D01*
X197383333Y-111067857D01*
X197345238Y-111144047D01*
X197345238Y-111334523D01*
X197383333Y-111410714D01*
X197421428Y-111448809D01*
X197497619Y-111486904D01*
X197726190Y-111486904D01*
X197802380Y-111448809D01*
X197840476Y-111410714D01*
X197116666Y-110686904D02*
X196850000Y-111486904D01*
X196583333Y-110686904D01*
X196392857Y-110686904D02*
X195897619Y-110686904D01*
X196164285Y-110991666D01*
X196050000Y-110991666D01*
X195973809Y-111029761D01*
X195935714Y-111067857D01*
X195897619Y-111144047D01*
X195897619Y-111334523D01*
X195935714Y-111410714D01*
X195973809Y-111448809D01*
X196050000Y-111486904D01*
X196278571Y-111486904D01*
X196354761Y-111448809D01*
X196392857Y-111410714D01*
X199542380Y-110686904D02*
X199923333Y-110686904D01*
X199961428Y-111067857D01*
X199923333Y-111029761D01*
X199847142Y-110991666D01*
X199656666Y-110991666D01*
X199580476Y-111029761D01*
X199542380Y-111067857D01*
X199504285Y-111144047D01*
X199504285Y-111334523D01*
X199542380Y-111410714D01*
X199580476Y-111448809D01*
X199656666Y-111486904D01*
X199847142Y-111486904D01*
X199923333Y-111448809D01*
X199961428Y-111410714D01*
X199275714Y-110686904D02*
X199009047Y-111486904D01*
X198742380Y-110686904D01*
X202539523Y-110725000D02*
X202615714Y-110686904D01*
X202730000Y-110686904D01*
X202844285Y-110725000D01*
X202920476Y-110801190D01*
X202958571Y-110877380D01*
X202996666Y-111029761D01*
X202996666Y-111144047D01*
X202958571Y-111296428D01*
X202920476Y-111372619D01*
X202844285Y-111448809D01*
X202730000Y-111486904D01*
X202653809Y-111486904D01*
X202539523Y-111448809D01*
X202501428Y-111410714D01*
X202501428Y-111144047D01*
X202653809Y-111144047D01*
X202158571Y-111486904D02*
X202158571Y-110686904D01*
X201701428Y-111486904D01*
X201701428Y-110686904D01*
X201320476Y-111486904D02*
X201320476Y-110686904D01*
X201130000Y-110686904D01*
X201015714Y-110725000D01*
X200939523Y-110801190D01*
X200901428Y-110877380D01*
X200863333Y-111029761D01*
X200863333Y-111144047D01*
X200901428Y-111296428D01*
X200939523Y-111372619D01*
X201015714Y-111448809D01*
X201130000Y-111486904D01*
X201320476Y-111486904D01*
X154279523Y-91675000D02*
X154355714Y-91636904D01*
X154470000Y-91636904D01*
X154584285Y-91675000D01*
X154660476Y-91751190D01*
X154698571Y-91827380D01*
X154736666Y-91979761D01*
X154736666Y-92094047D01*
X154698571Y-92246428D01*
X154660476Y-92322619D01*
X154584285Y-92398809D01*
X154470000Y-92436904D01*
X154393809Y-92436904D01*
X154279523Y-92398809D01*
X154241428Y-92360714D01*
X154241428Y-92094047D01*
X154393809Y-92094047D01*
X153898571Y-92436904D02*
X153898571Y-91636904D01*
X153441428Y-92436904D01*
X153441428Y-91636904D01*
X153060476Y-92436904D02*
X153060476Y-91636904D01*
X152870000Y-91636904D01*
X152755714Y-91675000D01*
X152679523Y-91751190D01*
X152641428Y-91827380D01*
X152603333Y-91979761D01*
X152603333Y-92094047D01*
X152641428Y-92246428D01*
X152679523Y-92322619D01*
X152755714Y-92398809D01*
X152870000Y-92436904D01*
X153060476Y-92436904D01*
X156648095Y-92436904D02*
X156914761Y-92055952D01*
X157105238Y-92436904D02*
X157105238Y-91636904D01*
X156800476Y-91636904D01*
X156724285Y-91675000D01*
X156686190Y-91713095D01*
X156648095Y-91789285D01*
X156648095Y-91903571D01*
X156686190Y-91979761D01*
X156724285Y-92017857D01*
X156800476Y-92055952D01*
X157105238Y-92055952D01*
X156343333Y-92398809D02*
X156229047Y-92436904D01*
X156038571Y-92436904D01*
X155962380Y-92398809D01*
X155924285Y-92360714D01*
X155886190Y-92284523D01*
X155886190Y-92208333D01*
X155924285Y-92132142D01*
X155962380Y-92094047D01*
X156038571Y-92055952D01*
X156190952Y-92017857D01*
X156267142Y-91979761D01*
X156305238Y-91941666D01*
X156343333Y-91865476D01*
X156343333Y-91789285D01*
X156305238Y-91713095D01*
X156267142Y-91675000D01*
X156190952Y-91636904D01*
X156000476Y-91636904D01*
X155886190Y-91675000D01*
X155657619Y-91636904D02*
X155200476Y-91636904D01*
X155429047Y-92436904D02*
X155429047Y-91636904D01*
X159492857Y-92017857D02*
X159378571Y-92055952D01*
X159340476Y-92094047D01*
X159302380Y-92170238D01*
X159302380Y-92284523D01*
X159340476Y-92360714D01*
X159378571Y-92398809D01*
X159454761Y-92436904D01*
X159759523Y-92436904D01*
X159759523Y-91636904D01*
X159492857Y-91636904D01*
X159416666Y-91675000D01*
X159378571Y-91713095D01*
X159340476Y-91789285D01*
X159340476Y-91865476D01*
X159378571Y-91941666D01*
X159416666Y-91979761D01*
X159492857Y-92017857D01*
X159759523Y-92017857D01*
X158807142Y-91636904D02*
X158654761Y-91636904D01*
X158578571Y-91675000D01*
X158502380Y-91751190D01*
X158464285Y-91903571D01*
X158464285Y-92170238D01*
X158502380Y-92322619D01*
X158578571Y-92398809D01*
X158654761Y-92436904D01*
X158807142Y-92436904D01*
X158883333Y-92398809D01*
X158959523Y-92322619D01*
X158997619Y-92170238D01*
X158997619Y-91903571D01*
X158959523Y-91751190D01*
X158883333Y-91675000D01*
X158807142Y-91636904D01*
X157969047Y-91636904D02*
X157892857Y-91636904D01*
X157816666Y-91675000D01*
X157778571Y-91713095D01*
X157740476Y-91789285D01*
X157702380Y-91941666D01*
X157702380Y-92132142D01*
X157740476Y-92284523D01*
X157778571Y-92360714D01*
X157816666Y-92398809D01*
X157892857Y-92436904D01*
X157969047Y-92436904D01*
X158045238Y-92398809D01*
X158083333Y-92360714D01*
X158121428Y-92284523D01*
X158159523Y-92132142D01*
X158159523Y-91941666D01*
X158121428Y-91789285D01*
X158083333Y-91713095D01*
X158045238Y-91675000D01*
X157969047Y-91636904D01*
X161613809Y-92017857D02*
X161499523Y-92055952D01*
X161461428Y-92094047D01*
X161423333Y-92170238D01*
X161423333Y-92284523D01*
X161461428Y-92360714D01*
X161499523Y-92398809D01*
X161575714Y-92436904D01*
X161880476Y-92436904D01*
X161880476Y-91636904D01*
X161613809Y-91636904D01*
X161537619Y-91675000D01*
X161499523Y-91713095D01*
X161461428Y-91789285D01*
X161461428Y-91865476D01*
X161499523Y-91941666D01*
X161537619Y-91979761D01*
X161613809Y-92017857D01*
X161880476Y-92017857D01*
X161042380Y-92436904D02*
X160890000Y-92436904D01*
X160813809Y-92398809D01*
X160775714Y-92360714D01*
X160699523Y-92246428D01*
X160661428Y-92094047D01*
X160661428Y-91789285D01*
X160699523Y-91713095D01*
X160737619Y-91675000D01*
X160813809Y-91636904D01*
X160966190Y-91636904D01*
X161042380Y-91675000D01*
X161080476Y-91713095D01*
X161118571Y-91789285D01*
X161118571Y-91979761D01*
X161080476Y-92055952D01*
X161042380Y-92094047D01*
X160966190Y-92132142D01*
X160813809Y-92132142D01*
X160737619Y-92094047D01*
X160699523Y-92055952D01*
X160661428Y-91979761D01*
X164153809Y-92017857D02*
X164039523Y-92055952D01*
X164001428Y-92094047D01*
X163963333Y-92170238D01*
X163963333Y-92284523D01*
X164001428Y-92360714D01*
X164039523Y-92398809D01*
X164115714Y-92436904D01*
X164420476Y-92436904D01*
X164420476Y-91636904D01*
X164153809Y-91636904D01*
X164077619Y-91675000D01*
X164039523Y-91713095D01*
X164001428Y-91789285D01*
X164001428Y-91865476D01*
X164039523Y-91941666D01*
X164077619Y-91979761D01*
X164153809Y-92017857D01*
X164420476Y-92017857D01*
X163506190Y-91979761D02*
X163582380Y-91941666D01*
X163620476Y-91903571D01*
X163658571Y-91827380D01*
X163658571Y-91789285D01*
X163620476Y-91713095D01*
X163582380Y-91675000D01*
X163506190Y-91636904D01*
X163353809Y-91636904D01*
X163277619Y-91675000D01*
X163239523Y-91713095D01*
X163201428Y-91789285D01*
X163201428Y-91827380D01*
X163239523Y-91903571D01*
X163277619Y-91941666D01*
X163353809Y-91979761D01*
X163506190Y-91979761D01*
X163582380Y-92017857D01*
X163620476Y-92055952D01*
X163658571Y-92132142D01*
X163658571Y-92284523D01*
X163620476Y-92360714D01*
X163582380Y-92398809D01*
X163506190Y-92436904D01*
X163353809Y-92436904D01*
X163277619Y-92398809D01*
X163239523Y-92360714D01*
X163201428Y-92284523D01*
X163201428Y-92132142D01*
X163239523Y-92055952D01*
X163277619Y-92017857D01*
X163353809Y-91979761D01*
X166693809Y-92017857D02*
X166579523Y-92055952D01*
X166541428Y-92094047D01*
X166503333Y-92170238D01*
X166503333Y-92284523D01*
X166541428Y-92360714D01*
X166579523Y-92398809D01*
X166655714Y-92436904D01*
X166960476Y-92436904D01*
X166960476Y-91636904D01*
X166693809Y-91636904D01*
X166617619Y-91675000D01*
X166579523Y-91713095D01*
X166541428Y-91789285D01*
X166541428Y-91865476D01*
X166579523Y-91941666D01*
X166617619Y-91979761D01*
X166693809Y-92017857D01*
X166960476Y-92017857D01*
X166236666Y-91636904D02*
X165703333Y-91636904D01*
X166046190Y-92436904D01*
X169233809Y-92017857D02*
X169119523Y-92055952D01*
X169081428Y-92094047D01*
X169043333Y-92170238D01*
X169043333Y-92284523D01*
X169081428Y-92360714D01*
X169119523Y-92398809D01*
X169195714Y-92436904D01*
X169500476Y-92436904D01*
X169500476Y-91636904D01*
X169233809Y-91636904D01*
X169157619Y-91675000D01*
X169119523Y-91713095D01*
X169081428Y-91789285D01*
X169081428Y-91865476D01*
X169119523Y-91941666D01*
X169157619Y-91979761D01*
X169233809Y-92017857D01*
X169500476Y-92017857D01*
X168357619Y-91636904D02*
X168510000Y-91636904D01*
X168586190Y-91675000D01*
X168624285Y-91713095D01*
X168700476Y-91827380D01*
X168738571Y-91979761D01*
X168738571Y-92284523D01*
X168700476Y-92360714D01*
X168662380Y-92398809D01*
X168586190Y-92436904D01*
X168433809Y-92436904D01*
X168357619Y-92398809D01*
X168319523Y-92360714D01*
X168281428Y-92284523D01*
X168281428Y-92094047D01*
X168319523Y-92017857D01*
X168357619Y-91979761D01*
X168433809Y-91941666D01*
X168586190Y-91941666D01*
X168662380Y-91979761D01*
X168700476Y-92017857D01*
X168738571Y-92094047D01*
X171773809Y-92017857D02*
X171659523Y-92055952D01*
X171621428Y-92094047D01*
X171583333Y-92170238D01*
X171583333Y-92284523D01*
X171621428Y-92360714D01*
X171659523Y-92398809D01*
X171735714Y-92436904D01*
X172040476Y-92436904D01*
X172040476Y-91636904D01*
X171773809Y-91636904D01*
X171697619Y-91675000D01*
X171659523Y-91713095D01*
X171621428Y-91789285D01*
X171621428Y-91865476D01*
X171659523Y-91941666D01*
X171697619Y-91979761D01*
X171773809Y-92017857D01*
X172040476Y-92017857D01*
X170859523Y-91636904D02*
X171240476Y-91636904D01*
X171278571Y-92017857D01*
X171240476Y-91979761D01*
X171164285Y-91941666D01*
X170973809Y-91941666D01*
X170897619Y-91979761D01*
X170859523Y-92017857D01*
X170821428Y-92094047D01*
X170821428Y-92284523D01*
X170859523Y-92360714D01*
X170897619Y-92398809D01*
X170973809Y-92436904D01*
X171164285Y-92436904D01*
X171240476Y-92398809D01*
X171278571Y-92360714D01*
X174313809Y-92017857D02*
X174199523Y-92055952D01*
X174161428Y-92094047D01*
X174123333Y-92170238D01*
X174123333Y-92284523D01*
X174161428Y-92360714D01*
X174199523Y-92398809D01*
X174275714Y-92436904D01*
X174580476Y-92436904D01*
X174580476Y-91636904D01*
X174313809Y-91636904D01*
X174237619Y-91675000D01*
X174199523Y-91713095D01*
X174161428Y-91789285D01*
X174161428Y-91865476D01*
X174199523Y-91941666D01*
X174237619Y-91979761D01*
X174313809Y-92017857D01*
X174580476Y-92017857D01*
X173437619Y-91903571D02*
X173437619Y-92436904D01*
X173628095Y-91598809D02*
X173818571Y-92170238D01*
X173323333Y-92170238D01*
X176853809Y-92017857D02*
X176739523Y-92055952D01*
X176701428Y-92094047D01*
X176663333Y-92170238D01*
X176663333Y-92284523D01*
X176701428Y-92360714D01*
X176739523Y-92398809D01*
X176815714Y-92436904D01*
X177120476Y-92436904D01*
X177120476Y-91636904D01*
X176853809Y-91636904D01*
X176777619Y-91675000D01*
X176739523Y-91713095D01*
X176701428Y-91789285D01*
X176701428Y-91865476D01*
X176739523Y-91941666D01*
X176777619Y-91979761D01*
X176853809Y-92017857D01*
X177120476Y-92017857D01*
X176396666Y-91636904D02*
X175901428Y-91636904D01*
X176168095Y-91941666D01*
X176053809Y-91941666D01*
X175977619Y-91979761D01*
X175939523Y-92017857D01*
X175901428Y-92094047D01*
X175901428Y-92284523D01*
X175939523Y-92360714D01*
X175977619Y-92398809D01*
X176053809Y-92436904D01*
X176282380Y-92436904D01*
X176358571Y-92398809D01*
X176396666Y-92360714D01*
X180022380Y-92208333D02*
X179641428Y-92208333D01*
X180098571Y-92436904D02*
X179831904Y-91636904D01*
X179565238Y-92436904D01*
X178879523Y-92436904D02*
X179336666Y-92436904D01*
X179108095Y-92436904D02*
X179108095Y-91636904D01*
X179184285Y-91751190D01*
X179260476Y-91827380D01*
X179336666Y-91865476D01*
X178155714Y-91636904D02*
X178536666Y-91636904D01*
X178574761Y-92017857D01*
X178536666Y-91979761D01*
X178460476Y-91941666D01*
X178270000Y-91941666D01*
X178193809Y-91979761D01*
X178155714Y-92017857D01*
X178117619Y-92094047D01*
X178117619Y-92284523D01*
X178155714Y-92360714D01*
X178193809Y-92398809D01*
X178270000Y-92436904D01*
X178460476Y-92436904D01*
X178536666Y-92398809D01*
X178574761Y-92360714D01*
X182562380Y-92208333D02*
X182181428Y-92208333D01*
X182638571Y-92436904D02*
X182371904Y-91636904D01*
X182105238Y-92436904D01*
X181419523Y-92436904D02*
X181876666Y-92436904D01*
X181648095Y-92436904D02*
X181648095Y-91636904D01*
X181724285Y-91751190D01*
X181800476Y-91827380D01*
X181876666Y-91865476D01*
X181114761Y-91713095D02*
X181076666Y-91675000D01*
X181000476Y-91636904D01*
X180810000Y-91636904D01*
X180733809Y-91675000D01*
X180695714Y-91713095D01*
X180657619Y-91789285D01*
X180657619Y-91865476D01*
X180695714Y-91979761D01*
X181152857Y-92436904D01*
X180657619Y-92436904D01*
X185102380Y-92208333D02*
X184721428Y-92208333D01*
X185178571Y-92436904D02*
X184911904Y-91636904D01*
X184645238Y-92436904D01*
X183959523Y-92436904D02*
X184416666Y-92436904D01*
X184188095Y-92436904D02*
X184188095Y-91636904D01*
X184264285Y-91751190D01*
X184340476Y-91827380D01*
X184416666Y-91865476D01*
X183197619Y-92436904D02*
X183654761Y-92436904D01*
X183426190Y-92436904D02*
X183426190Y-91636904D01*
X183502380Y-91751190D01*
X183578571Y-91827380D01*
X183654761Y-91865476D01*
X187642380Y-92208333D02*
X187261428Y-92208333D01*
X187718571Y-92436904D02*
X187451904Y-91636904D01*
X187185238Y-92436904D01*
X186499523Y-92436904D02*
X186956666Y-92436904D01*
X186728095Y-92436904D02*
X186728095Y-91636904D01*
X186804285Y-91751190D01*
X186880476Y-91827380D01*
X186956666Y-91865476D01*
X186004285Y-91636904D02*
X185928095Y-91636904D01*
X185851904Y-91675000D01*
X185813809Y-91713095D01*
X185775714Y-91789285D01*
X185737619Y-91941666D01*
X185737619Y-92132142D01*
X185775714Y-92284523D01*
X185813809Y-92360714D01*
X185851904Y-92398809D01*
X185928095Y-92436904D01*
X186004285Y-92436904D01*
X186080476Y-92398809D01*
X186118571Y-92360714D01*
X186156666Y-92284523D01*
X186194761Y-92132142D01*
X186194761Y-91941666D01*
X186156666Y-91789285D01*
X186118571Y-91713095D01*
X186080476Y-91675000D01*
X186004285Y-91636904D01*
X189801428Y-92208333D02*
X189420476Y-92208333D01*
X189877619Y-92436904D02*
X189610952Y-91636904D01*
X189344285Y-92436904D01*
X189039523Y-92436904D02*
X188887142Y-92436904D01*
X188810952Y-92398809D01*
X188772857Y-92360714D01*
X188696666Y-92246428D01*
X188658571Y-92094047D01*
X188658571Y-91789285D01*
X188696666Y-91713095D01*
X188734761Y-91675000D01*
X188810952Y-91636904D01*
X188963333Y-91636904D01*
X189039523Y-91675000D01*
X189077619Y-91713095D01*
X189115714Y-91789285D01*
X189115714Y-91979761D01*
X189077619Y-92055952D01*
X189039523Y-92094047D01*
X188963333Y-92132142D01*
X188810952Y-92132142D01*
X188734761Y-92094047D01*
X188696666Y-92055952D01*
X188658571Y-91979761D01*
X192341428Y-92208333D02*
X191960476Y-92208333D01*
X192417619Y-92436904D02*
X192150952Y-91636904D01*
X191884285Y-92436904D01*
X191503333Y-91979761D02*
X191579523Y-91941666D01*
X191617619Y-91903571D01*
X191655714Y-91827380D01*
X191655714Y-91789285D01*
X191617619Y-91713095D01*
X191579523Y-91675000D01*
X191503333Y-91636904D01*
X191350952Y-91636904D01*
X191274761Y-91675000D01*
X191236666Y-91713095D01*
X191198571Y-91789285D01*
X191198571Y-91827380D01*
X191236666Y-91903571D01*
X191274761Y-91941666D01*
X191350952Y-91979761D01*
X191503333Y-91979761D01*
X191579523Y-92017857D01*
X191617619Y-92055952D01*
X191655714Y-92132142D01*
X191655714Y-92284523D01*
X191617619Y-92360714D01*
X191579523Y-92398809D01*
X191503333Y-92436904D01*
X191350952Y-92436904D01*
X191274761Y-92398809D01*
X191236666Y-92360714D01*
X191198571Y-92284523D01*
X191198571Y-92132142D01*
X191236666Y-92055952D01*
X191274761Y-92017857D01*
X191350952Y-91979761D01*
X195014761Y-92017857D02*
X194900476Y-92055952D01*
X194862380Y-92094047D01*
X194824285Y-92170238D01*
X194824285Y-92284523D01*
X194862380Y-92360714D01*
X194900476Y-92398809D01*
X194976666Y-92436904D01*
X195281428Y-92436904D01*
X195281428Y-91636904D01*
X195014761Y-91636904D01*
X194938571Y-91675000D01*
X194900476Y-91713095D01*
X194862380Y-91789285D01*
X194862380Y-91865476D01*
X194900476Y-91941666D01*
X194938571Y-91979761D01*
X195014761Y-92017857D01*
X195281428Y-92017857D01*
X194062380Y-92436904D02*
X194519523Y-92436904D01*
X194290952Y-92436904D02*
X194290952Y-91636904D01*
X194367142Y-91751190D01*
X194443333Y-91827380D01*
X194519523Y-91865476D01*
X193338571Y-91636904D02*
X193719523Y-91636904D01*
X193757619Y-92017857D01*
X193719523Y-91979761D01*
X193643333Y-91941666D01*
X193452857Y-91941666D01*
X193376666Y-91979761D01*
X193338571Y-92017857D01*
X193300476Y-92094047D01*
X193300476Y-92284523D01*
X193338571Y-92360714D01*
X193376666Y-92398809D01*
X193452857Y-92436904D01*
X193643333Y-92436904D01*
X193719523Y-92398809D01*
X193757619Y-92360714D01*
X197554761Y-92017857D02*
X197440476Y-92055952D01*
X197402380Y-92094047D01*
X197364285Y-92170238D01*
X197364285Y-92284523D01*
X197402380Y-92360714D01*
X197440476Y-92398809D01*
X197516666Y-92436904D01*
X197821428Y-92436904D01*
X197821428Y-91636904D01*
X197554761Y-91636904D01*
X197478571Y-91675000D01*
X197440476Y-91713095D01*
X197402380Y-91789285D01*
X197402380Y-91865476D01*
X197440476Y-91941666D01*
X197478571Y-91979761D01*
X197554761Y-92017857D01*
X197821428Y-92017857D01*
X196602380Y-92436904D02*
X197059523Y-92436904D01*
X196830952Y-92436904D02*
X196830952Y-91636904D01*
X196907142Y-91751190D01*
X196983333Y-91827380D01*
X197059523Y-91865476D01*
X195916666Y-91903571D02*
X195916666Y-92436904D01*
X196107142Y-91598809D02*
X196297619Y-92170238D01*
X195802380Y-92170238D01*
X200094761Y-92017857D02*
X199980476Y-92055952D01*
X199942380Y-92094047D01*
X199904285Y-92170238D01*
X199904285Y-92284523D01*
X199942380Y-92360714D01*
X199980476Y-92398809D01*
X200056666Y-92436904D01*
X200361428Y-92436904D01*
X200361428Y-91636904D01*
X200094761Y-91636904D01*
X200018571Y-91675000D01*
X199980476Y-91713095D01*
X199942380Y-91789285D01*
X199942380Y-91865476D01*
X199980476Y-91941666D01*
X200018571Y-91979761D01*
X200094761Y-92017857D01*
X200361428Y-92017857D01*
X199142380Y-92436904D02*
X199599523Y-92436904D01*
X199370952Y-92436904D02*
X199370952Y-91636904D01*
X199447142Y-91751190D01*
X199523333Y-91827380D01*
X199599523Y-91865476D01*
X198875714Y-91636904D02*
X198380476Y-91636904D01*
X198647142Y-91941666D01*
X198532857Y-91941666D01*
X198456666Y-91979761D01*
X198418571Y-92017857D01*
X198380476Y-92094047D01*
X198380476Y-92284523D01*
X198418571Y-92360714D01*
X198456666Y-92398809D01*
X198532857Y-92436904D01*
X198761428Y-92436904D01*
X198837619Y-92398809D01*
X198875714Y-92360714D01*
X202634761Y-92017857D02*
X202520476Y-92055952D01*
X202482380Y-92094047D01*
X202444285Y-92170238D01*
X202444285Y-92284523D01*
X202482380Y-92360714D01*
X202520476Y-92398809D01*
X202596666Y-92436904D01*
X202901428Y-92436904D01*
X202901428Y-91636904D01*
X202634761Y-91636904D01*
X202558571Y-91675000D01*
X202520476Y-91713095D01*
X202482380Y-91789285D01*
X202482380Y-91865476D01*
X202520476Y-91941666D01*
X202558571Y-91979761D01*
X202634761Y-92017857D01*
X202901428Y-92017857D01*
X201682380Y-92436904D02*
X202139523Y-92436904D01*
X201910952Y-92436904D02*
X201910952Y-91636904D01*
X201987142Y-91751190D01*
X202063333Y-91827380D01*
X202139523Y-91865476D01*
X201377619Y-91713095D02*
X201339523Y-91675000D01*
X201263333Y-91636904D01*
X201072857Y-91636904D01*
X200996666Y-91675000D01*
X200958571Y-91713095D01*
X200920476Y-91789285D01*
X200920476Y-91865476D01*
X200958571Y-91979761D01*
X201415714Y-92436904D01*
X200920476Y-92436904D01*
X194872976Y-97310000D02*
X194949166Y-97271904D01*
X195063452Y-97271904D01*
X195177738Y-97310000D01*
X195253928Y-97386190D01*
X195292023Y-97462380D01*
X195330119Y-97614761D01*
X195330119Y-97729047D01*
X195292023Y-97881428D01*
X195253928Y-97957619D01*
X195177738Y-98033809D01*
X195063452Y-98071904D01*
X194987261Y-98071904D01*
X194872976Y-98033809D01*
X194834880Y-97995714D01*
X194834880Y-97729047D01*
X194987261Y-97729047D01*
X194492023Y-98071904D02*
X194492023Y-97538571D01*
X194492023Y-97690952D02*
X194453928Y-97614761D01*
X194415833Y-97576666D01*
X194339642Y-97538571D01*
X194263452Y-97538571D01*
X193692023Y-98033809D02*
X193768214Y-98071904D01*
X193920595Y-98071904D01*
X193996785Y-98033809D01*
X194034880Y-97957619D01*
X194034880Y-97652857D01*
X193996785Y-97576666D01*
X193920595Y-97538571D01*
X193768214Y-97538571D01*
X193692023Y-97576666D01*
X193653928Y-97652857D01*
X193653928Y-97729047D01*
X194034880Y-97805238D01*
X193006309Y-98033809D02*
X193082500Y-98071904D01*
X193234880Y-98071904D01*
X193311071Y-98033809D01*
X193349166Y-97957619D01*
X193349166Y-97652857D01*
X193311071Y-97576666D01*
X193234880Y-97538571D01*
X193082500Y-97538571D01*
X193006309Y-97576666D01*
X192968214Y-97652857D01*
X192968214Y-97729047D01*
X193349166Y-97805238D01*
X192625357Y-97538571D02*
X192625357Y-98071904D01*
X192625357Y-97614761D02*
X192587261Y-97576666D01*
X192511071Y-97538571D01*
X192396785Y-97538571D01*
X192320595Y-97576666D01*
X192282500Y-97652857D01*
X192282500Y-98071904D01*
X191292023Y-98071904D02*
X191292023Y-97271904D01*
X190987261Y-97271904D01*
X190911071Y-97310000D01*
X190872976Y-97348095D01*
X190834880Y-97424285D01*
X190834880Y-97538571D01*
X190872976Y-97614761D01*
X190911071Y-97652857D01*
X190987261Y-97690952D01*
X191292023Y-97690952D01*
X190492023Y-98071904D02*
X190492023Y-97538571D01*
X190492023Y-97271904D02*
X190530119Y-97310000D01*
X190492023Y-97348095D01*
X190453928Y-97310000D01*
X190492023Y-97271904D01*
X190492023Y-97348095D01*
X189996785Y-98071904D02*
X190072976Y-98033809D01*
X190111071Y-97957619D01*
X190111071Y-97271904D01*
X189577738Y-98071904D02*
X189653928Y-98033809D01*
X189692023Y-97957619D01*
X189692023Y-97271904D01*
X189234880Y-98033809D02*
X189234880Y-98071904D01*
X189272976Y-98148095D01*
X189311071Y-98186190D01*
X188282500Y-98071904D02*
X188282500Y-97538571D01*
X188282500Y-97690952D02*
X188244404Y-97614761D01*
X188206309Y-97576666D01*
X188130119Y-97538571D01*
X188053928Y-97538571D01*
X187482500Y-98033809D02*
X187558690Y-98071904D01*
X187711071Y-98071904D01*
X187787261Y-98033809D01*
X187825357Y-97957619D01*
X187825357Y-97652857D01*
X187787261Y-97576666D01*
X187711071Y-97538571D01*
X187558690Y-97538571D01*
X187482500Y-97576666D01*
X187444404Y-97652857D01*
X187444404Y-97729047D01*
X187825357Y-97805238D01*
X187177738Y-97538571D02*
X186987261Y-98071904D01*
X186796785Y-97538571D01*
X186492023Y-97995714D02*
X186453928Y-98033809D01*
X186492023Y-98071904D01*
X186530119Y-98033809D01*
X186492023Y-97995714D01*
X186492023Y-98071904D01*
X185158690Y-98033809D02*
X185234880Y-98071904D01*
X185387261Y-98071904D01*
X185463452Y-98033809D01*
X185501547Y-97995714D01*
X185539642Y-97919523D01*
X185539642Y-97690952D01*
X185501547Y-97614761D01*
X185463452Y-97576666D01*
X185387261Y-97538571D01*
X185234880Y-97538571D01*
X185158690Y-97576666D01*
X195330119Y-99383809D02*
X195215833Y-99421904D01*
X195025357Y-99421904D01*
X194949166Y-99383809D01*
X194911071Y-99345714D01*
X194872976Y-99269523D01*
X194872976Y-99193333D01*
X194911071Y-99117142D01*
X194949166Y-99079047D01*
X195025357Y-99040952D01*
X195177738Y-99002857D01*
X195253928Y-98964761D01*
X195292023Y-98926666D01*
X195330119Y-98850476D01*
X195330119Y-98774285D01*
X195292023Y-98698095D01*
X195253928Y-98660000D01*
X195177738Y-98621904D01*
X194987261Y-98621904D01*
X194872976Y-98660000D01*
X194644404Y-98621904D02*
X194187261Y-98621904D01*
X194415833Y-99421904D02*
X194415833Y-98621904D01*
X193920595Y-99421904D02*
X193920595Y-98621904D01*
X193653928Y-99193333D01*
X193387261Y-98621904D01*
X193387261Y-99421904D01*
X193082500Y-98621904D02*
X192587261Y-98621904D01*
X192853928Y-98926666D01*
X192739642Y-98926666D01*
X192663452Y-98964761D01*
X192625357Y-99002857D01*
X192587261Y-99079047D01*
X192587261Y-99269523D01*
X192625357Y-99345714D01*
X192663452Y-99383809D01*
X192739642Y-99421904D01*
X192968214Y-99421904D01*
X193044404Y-99383809D01*
X193082500Y-99345714D01*
X192282500Y-98698095D02*
X192244404Y-98660000D01*
X192168214Y-98621904D01*
X191977738Y-98621904D01*
X191901547Y-98660000D01*
X191863452Y-98698095D01*
X191825357Y-98774285D01*
X191825357Y-98850476D01*
X191863452Y-98964761D01*
X192320595Y-99421904D01*
X191825357Y-99421904D01*
X190872976Y-99421904D02*
X190872976Y-98621904D01*
X190682500Y-98621904D01*
X190568214Y-98660000D01*
X190492023Y-98736190D01*
X190453928Y-98812380D01*
X190415833Y-98964761D01*
X190415833Y-99079047D01*
X190453928Y-99231428D01*
X190492023Y-99307619D01*
X190568214Y-99383809D01*
X190682500Y-99421904D01*
X190872976Y-99421904D01*
X189768214Y-99383809D02*
X189844404Y-99421904D01*
X189996785Y-99421904D01*
X190072976Y-99383809D01*
X190111071Y-99307619D01*
X190111071Y-99002857D01*
X190072976Y-98926666D01*
X189996785Y-98888571D01*
X189844404Y-98888571D01*
X189768214Y-98926666D01*
X189730119Y-99002857D01*
X189730119Y-99079047D01*
X190111071Y-99155238D01*
X189463452Y-98888571D02*
X189272976Y-99421904D01*
X189082500Y-98888571D01*
X188472976Y-99383809D02*
X188549166Y-99421904D01*
X188701547Y-99421904D01*
X188777738Y-99383809D01*
X188815833Y-99307619D01*
X188815833Y-99002857D01*
X188777738Y-98926666D01*
X188701547Y-98888571D01*
X188549166Y-98888571D01*
X188472976Y-98926666D01*
X188434880Y-99002857D01*
X188434880Y-99079047D01*
X188815833Y-99155238D01*
X187977738Y-99421904D02*
X188053928Y-99383809D01*
X188092023Y-99307619D01*
X188092023Y-98621904D01*
X187558690Y-99421904D02*
X187634880Y-99383809D01*
X187672976Y-99345714D01*
X187711071Y-99269523D01*
X187711071Y-99040952D01*
X187672976Y-98964761D01*
X187634880Y-98926666D01*
X187558690Y-98888571D01*
X187444404Y-98888571D01*
X187368214Y-98926666D01*
X187330119Y-98964761D01*
X187292023Y-99040952D01*
X187292023Y-99269523D01*
X187330119Y-99345714D01*
X187368214Y-99383809D01*
X187444404Y-99421904D01*
X187558690Y-99421904D01*
X186949166Y-98888571D02*
X186949166Y-99688571D01*
X186949166Y-98926666D02*
X186872976Y-98888571D01*
X186720595Y-98888571D01*
X186644404Y-98926666D01*
X186606309Y-98964761D01*
X186568214Y-99040952D01*
X186568214Y-99269523D01*
X186606309Y-99345714D01*
X186644404Y-99383809D01*
X186720595Y-99421904D01*
X186872976Y-99421904D01*
X186949166Y-99383809D01*
X186225357Y-99421904D02*
X186225357Y-98888571D01*
X186225357Y-98964761D02*
X186187261Y-98926666D01*
X186111071Y-98888571D01*
X185996785Y-98888571D01*
X185920595Y-98926666D01*
X185882500Y-99002857D01*
X185882500Y-99421904D01*
X185882500Y-99002857D02*
X185844404Y-98926666D01*
X185768214Y-98888571D01*
X185653928Y-98888571D01*
X185577738Y-98926666D01*
X185539642Y-99002857D01*
X185539642Y-99421904D01*
X184853928Y-99383809D02*
X184930119Y-99421904D01*
X185082500Y-99421904D01*
X185158690Y-99383809D01*
X185196785Y-99307619D01*
X185196785Y-99002857D01*
X185158690Y-98926666D01*
X185082500Y-98888571D01*
X184930119Y-98888571D01*
X184853928Y-98926666D01*
X184815833Y-99002857D01*
X184815833Y-99079047D01*
X185196785Y-99155238D01*
X184472976Y-98888571D02*
X184472976Y-99421904D01*
X184472976Y-98964761D02*
X184434880Y-98926666D01*
X184358690Y-98888571D01*
X184244404Y-98888571D01*
X184168214Y-98926666D01*
X184130119Y-99002857D01*
X184130119Y-99421904D01*
X183863452Y-98888571D02*
X183558690Y-98888571D01*
X183749166Y-98621904D02*
X183749166Y-99307619D01*
X183711071Y-99383809D01*
X183634880Y-99421904D01*
X183558690Y-99421904D01*
X182415833Y-99002857D02*
X182301547Y-99040952D01*
X182263452Y-99079047D01*
X182225357Y-99155238D01*
X182225357Y-99269523D01*
X182263452Y-99345714D01*
X182301547Y-99383809D01*
X182377738Y-99421904D01*
X182682500Y-99421904D01*
X182682500Y-98621904D01*
X182415833Y-98621904D01*
X182339642Y-98660000D01*
X182301547Y-98698095D01*
X182263452Y-98774285D01*
X182263452Y-98850476D01*
X182301547Y-98926666D01*
X182339642Y-98964761D01*
X182415833Y-99002857D01*
X182682500Y-99002857D01*
X181768214Y-99421904D02*
X181844404Y-99383809D01*
X181882500Y-99345714D01*
X181920595Y-99269523D01*
X181920595Y-99040952D01*
X181882500Y-98964761D01*
X181844404Y-98926666D01*
X181768214Y-98888571D01*
X181653928Y-98888571D01*
X181577738Y-98926666D01*
X181539642Y-98964761D01*
X181501547Y-99040952D01*
X181501547Y-99269523D01*
X181539642Y-99345714D01*
X181577738Y-99383809D01*
X181653928Y-99421904D01*
X181768214Y-99421904D01*
X180815833Y-99421904D02*
X180815833Y-99002857D01*
X180853928Y-98926666D01*
X180930119Y-98888571D01*
X181082500Y-98888571D01*
X181158690Y-98926666D01*
X180815833Y-99383809D02*
X180892023Y-99421904D01*
X181082500Y-99421904D01*
X181158690Y-99383809D01*
X181196785Y-99307619D01*
X181196785Y-99231428D01*
X181158690Y-99155238D01*
X181082500Y-99117142D01*
X180892023Y-99117142D01*
X180815833Y-99079047D01*
X180434880Y-99421904D02*
X180434880Y-98888571D01*
X180434880Y-99040952D02*
X180396785Y-98964761D01*
X180358690Y-98926666D01*
X180282500Y-98888571D01*
X180206309Y-98888571D01*
X179596785Y-99421904D02*
X179596785Y-98621904D01*
X179596785Y-99383809D02*
X179672976Y-99421904D01*
X179825357Y-99421904D01*
X179901547Y-99383809D01*
X179939642Y-99345714D01*
X179977738Y-99269523D01*
X179977738Y-99040952D01*
X179939642Y-98964761D01*
X179901547Y-98926666D01*
X179825357Y-98888571D01*
X179672976Y-98888571D01*
X179596785Y-98926666D01*
X194644404Y-100162380D02*
X194720595Y-100124285D01*
X194872976Y-100124285D01*
X194949166Y-100162380D01*
X195025357Y-100238571D01*
X195063452Y-100314761D01*
X195063452Y-100467142D01*
X195025357Y-100543333D01*
X194949166Y-100619523D01*
X194872976Y-100657619D01*
X194720595Y-100657619D01*
X194644404Y-100619523D01*
X194796785Y-99857619D02*
X194987261Y-99895714D01*
X195177738Y-100010000D01*
X195292023Y-100200476D01*
X195330119Y-100390952D01*
X195292023Y-100581428D01*
X195177738Y-100771904D01*
X194987261Y-100886190D01*
X194796785Y-100924285D01*
X194606309Y-100886190D01*
X194415833Y-100771904D01*
X194301547Y-100581428D01*
X194263452Y-100390952D01*
X194301547Y-100200476D01*
X194415833Y-100010000D01*
X194606309Y-99895714D01*
X194796785Y-99857619D01*
X193349166Y-100048095D02*
X193311071Y-100010000D01*
X193234880Y-99971904D01*
X193044404Y-99971904D01*
X192968214Y-100010000D01*
X192930119Y-100048095D01*
X192892023Y-100124285D01*
X192892023Y-100200476D01*
X192930119Y-100314761D01*
X193387261Y-100771904D01*
X192892023Y-100771904D01*
X192396785Y-99971904D02*
X192320595Y-99971904D01*
X192244404Y-100010000D01*
X192206309Y-100048095D01*
X192168214Y-100124285D01*
X192130119Y-100276666D01*
X192130119Y-100467142D01*
X192168214Y-100619523D01*
X192206309Y-100695714D01*
X192244404Y-100733809D01*
X192320595Y-100771904D01*
X192396785Y-100771904D01*
X192472976Y-100733809D01*
X192511071Y-100695714D01*
X192549166Y-100619523D01*
X192587261Y-100467142D01*
X192587261Y-100276666D01*
X192549166Y-100124285D01*
X192511071Y-100048095D01*
X192472976Y-100010000D01*
X192396785Y-99971904D01*
X191825357Y-100048095D02*
X191787261Y-100010000D01*
X191711071Y-99971904D01*
X191520595Y-99971904D01*
X191444404Y-100010000D01*
X191406309Y-100048095D01*
X191368214Y-100124285D01*
X191368214Y-100200476D01*
X191406309Y-100314761D01*
X191863452Y-100771904D01*
X191368214Y-100771904D01*
X190872976Y-99971904D02*
X190796785Y-99971904D01*
X190720595Y-100010000D01*
X190682500Y-100048095D01*
X190644404Y-100124285D01*
X190606309Y-100276666D01*
X190606309Y-100467142D01*
X190644404Y-100619523D01*
X190682500Y-100695714D01*
X190720595Y-100733809D01*
X190796785Y-100771904D01*
X190872976Y-100771904D01*
X190949166Y-100733809D01*
X190987261Y-100695714D01*
X191025357Y-100619523D01*
X191063452Y-100467142D01*
X191063452Y-100276666D01*
X191025357Y-100124285D01*
X190987261Y-100048095D01*
X190949166Y-100010000D01*
X190872976Y-99971904D01*
X189272976Y-100771904D02*
X189653928Y-100771904D01*
X189653928Y-99971904D01*
X188663452Y-100771904D02*
X188663452Y-100352857D01*
X188701547Y-100276666D01*
X188777738Y-100238571D01*
X188930119Y-100238571D01*
X189006309Y-100276666D01*
X188663452Y-100733809D02*
X188739642Y-100771904D01*
X188930119Y-100771904D01*
X189006309Y-100733809D01*
X189044404Y-100657619D01*
X189044404Y-100581428D01*
X189006309Y-100505238D01*
X188930119Y-100467142D01*
X188739642Y-100467142D01*
X188663452Y-100429047D01*
X188282500Y-100771904D02*
X188282500Y-100238571D01*
X188282500Y-100390952D02*
X188244404Y-100314761D01*
X188206309Y-100276666D01*
X188130119Y-100238571D01*
X188053928Y-100238571D01*
X187825357Y-100733809D02*
X187749166Y-100771904D01*
X187596785Y-100771904D01*
X187520595Y-100733809D01*
X187482500Y-100657619D01*
X187482500Y-100619523D01*
X187520595Y-100543333D01*
X187596785Y-100505238D01*
X187711071Y-100505238D01*
X187787261Y-100467142D01*
X187825357Y-100390952D01*
X187825357Y-100352857D01*
X187787261Y-100276666D01*
X187711071Y-100238571D01*
X187596785Y-100238571D01*
X187520595Y-100276666D01*
X186263452Y-100352857D02*
X186149166Y-100390952D01*
X186111071Y-100429047D01*
X186072976Y-100505238D01*
X186072976Y-100619523D01*
X186111071Y-100695714D01*
X186149166Y-100733809D01*
X186225357Y-100771904D01*
X186530119Y-100771904D01*
X186530119Y-99971904D01*
X186263452Y-99971904D01*
X186187261Y-100010000D01*
X186149166Y-100048095D01*
X186111071Y-100124285D01*
X186111071Y-100200476D01*
X186149166Y-100276666D01*
X186187261Y-100314761D01*
X186263452Y-100352857D01*
X186530119Y-100352857D01*
X185615833Y-100771904D02*
X185692023Y-100733809D01*
X185730119Y-100695714D01*
X185768214Y-100619523D01*
X185768214Y-100390952D01*
X185730119Y-100314761D01*
X185692023Y-100276666D01*
X185615833Y-100238571D01*
X185501547Y-100238571D01*
X185425357Y-100276666D01*
X185387261Y-100314761D01*
X185349166Y-100390952D01*
X185349166Y-100619523D01*
X185387261Y-100695714D01*
X185425357Y-100733809D01*
X185501547Y-100771904D01*
X185615833Y-100771904D01*
X184701547Y-100733809D02*
X184777738Y-100771904D01*
X184930119Y-100771904D01*
X185006309Y-100733809D01*
X185044404Y-100657619D01*
X185044404Y-100352857D01*
X185006309Y-100276666D01*
X184930119Y-100238571D01*
X184777738Y-100238571D01*
X184701547Y-100276666D01*
X184663452Y-100352857D01*
X184663452Y-100429047D01*
X185044404Y-100505238D01*
X183977738Y-100238571D02*
X183977738Y-100886190D01*
X184015833Y-100962380D01*
X184053928Y-101000476D01*
X184130119Y-101038571D01*
X184244404Y-101038571D01*
X184320595Y-101000476D01*
X183977738Y-100733809D02*
X184053928Y-100771904D01*
X184206309Y-100771904D01*
X184282500Y-100733809D01*
X184320595Y-100695714D01*
X184358690Y-100619523D01*
X184358690Y-100390952D01*
X184320595Y-100314761D01*
X184282500Y-100276666D01*
X184206309Y-100238571D01*
X184053928Y-100238571D01*
X183977738Y-100276666D01*
X183596785Y-100771904D02*
X183596785Y-100238571D01*
X183596785Y-99971904D02*
X183634880Y-100010000D01*
X183596785Y-100048095D01*
X183558690Y-100010000D01*
X183596785Y-99971904D01*
X183596785Y-100048095D01*
X183101547Y-100771904D02*
X183177738Y-100733809D01*
X183215833Y-100657619D01*
X183215833Y-99971904D01*
X182453928Y-100771904D02*
X182453928Y-99971904D01*
X182453928Y-100733809D02*
X182530119Y-100771904D01*
X182682500Y-100771904D01*
X182758690Y-100733809D01*
X182796785Y-100695714D01*
X182834880Y-100619523D01*
X182834880Y-100390952D01*
X182796785Y-100314761D01*
X182758690Y-100276666D01*
X182682500Y-100238571D01*
X182530119Y-100238571D01*
X182453928Y-100276666D01*
X181577738Y-99971904D02*
X181120595Y-99971904D01*
X181349166Y-100771904D02*
X181349166Y-99971904D01*
X180853928Y-100771904D02*
X180853928Y-99971904D01*
X180511071Y-100771904D02*
X180511071Y-100352857D01*
X180549166Y-100276666D01*
X180625357Y-100238571D01*
X180739642Y-100238571D01*
X180815833Y-100276666D01*
X180853928Y-100314761D01*
X180015833Y-100771904D02*
X180092023Y-100733809D01*
X180130119Y-100695714D01*
X180168214Y-100619523D01*
X180168214Y-100390952D01*
X180130119Y-100314761D01*
X180092023Y-100276666D01*
X180015833Y-100238571D01*
X179901547Y-100238571D01*
X179825357Y-100276666D01*
X179787261Y-100314761D01*
X179749166Y-100390952D01*
X179749166Y-100619523D01*
X179787261Y-100695714D01*
X179825357Y-100733809D01*
X179901547Y-100771904D01*
X180015833Y-100771904D01*
X179406309Y-100771904D02*
X179406309Y-100238571D01*
X179406309Y-100314761D02*
X179368214Y-100276666D01*
X179292023Y-100238571D01*
X179177738Y-100238571D01*
X179101547Y-100276666D01*
X179063452Y-100352857D01*
X179063452Y-100771904D01*
X179063452Y-100352857D02*
X179025357Y-100276666D01*
X178949166Y-100238571D01*
X178834880Y-100238571D01*
X178758690Y-100276666D01*
X178720595Y-100352857D01*
X178720595Y-100771904D01*
X178377738Y-100733809D02*
X178301547Y-100771904D01*
X178149166Y-100771904D01*
X178072976Y-100733809D01*
X178034880Y-100657619D01*
X178034880Y-100619523D01*
X178072976Y-100543333D01*
X178149166Y-100505238D01*
X178263452Y-100505238D01*
X178339642Y-100467142D01*
X178377738Y-100390952D01*
X178377738Y-100352857D01*
X178339642Y-100276666D01*
X178263452Y-100238571D01*
X178149166Y-100238571D01*
X178072976Y-100276666D01*
X177387261Y-100733809D02*
X177463452Y-100771904D01*
X177615833Y-100771904D01*
X177692023Y-100733809D01*
X177730119Y-100657619D01*
X177730119Y-100352857D01*
X177692023Y-100276666D01*
X177615833Y-100238571D01*
X177463452Y-100238571D01*
X177387261Y-100276666D01*
X177349166Y-100352857D01*
X177349166Y-100429047D01*
X177730119Y-100505238D01*
X177006309Y-100238571D02*
X177006309Y-100771904D01*
X177006309Y-100314761D02*
X176968214Y-100276666D01*
X176892023Y-100238571D01*
X176777738Y-100238571D01*
X176701547Y-100276666D01*
X176663452Y-100352857D01*
X176663452Y-100771904D01*
D11*
%TO.C,J1*%
X203295000Y-96900000D02*
X205195000Y-96900000D01*
X199395000Y-96900000D02*
X201395000Y-96900000D01*
X203295000Y-106300000D02*
X205195000Y-106300000D01*
X199395000Y-106300000D02*
X201395000Y-106300000D01*
X205195000Y-96900000D02*
X205195000Y-106300000D01*
%TO.C,J4*%
X203260000Y-92650000D02*
X203260000Y-95310000D01*
X154940000Y-92650000D02*
X203260000Y-92650000D01*
X154940000Y-95310000D02*
X203260000Y-95310000D01*
X154940000Y-92650000D02*
X154940000Y-95310000D01*
X153670000Y-92650000D02*
X152340000Y-92650000D01*
X152340000Y-92650000D02*
X152340000Y-93980000D01*
%TO.C,J3*%
X203260000Y-107890000D02*
X203260000Y-110550000D01*
X154940000Y-107890000D02*
X203260000Y-107890000D01*
X154940000Y-110550000D02*
X203260000Y-110550000D01*
X154940000Y-107890000D02*
X154940000Y-110550000D01*
X153670000Y-107890000D02*
X152340000Y-107890000D01*
X152340000Y-107890000D02*
X152340000Y-109220000D01*
%TO.C,J1*%
D10*
X202126904Y-101333333D02*
X202698333Y-101333333D01*
X202812619Y-101295238D01*
X202888809Y-101219047D01*
X202926904Y-101104761D01*
X202926904Y-101028571D01*
X202926904Y-102133333D02*
X202926904Y-101676190D01*
X202926904Y-101904761D02*
X202126904Y-101904761D01*
X202241190Y-101828571D01*
X202317380Y-101752380D01*
X202355476Y-101676190D01*
%TD*%
M02*
