%TF.GenerationSoftware,KiCad,Pcbnew,5.1.8+dfsg1-1+b1*%
%TF.CreationDate,2020-12-19T13:52:45+08:00*%
%TF.ProjectId,gp,67702e6b-6963-4616-945f-706362585858,c*%
%TF.SameCoordinates,Original*%
%TF.FileFunction,Paste,Top*%
%TF.FilePolarity,Positive*%
%FSLAX46Y46*%
G04 Gerber Fmt 4.6, Leading zero omitted, Abs format (unit mm)*
G04 Created by KiCad (PCBNEW 5.1.8+dfsg1-1+b1) date 2020-12-19 13:52:45*
%MOMM*%
%LPD*%
G01*
G04 APERTURE LIST*
%ADD10R,0.900000X1.000000*%
%ADD11R,0.800000X0.900000*%
%ADD12R,1.450000X0.600000*%
%ADD13R,1.450000X0.300000*%
%ADD14R,1.000000X1.800000*%
%ADD15R,2.400000X1.900000*%
%ADD16R,1.200000X0.900000*%
G04 APERTURE END LIST*
D10*
%TO.C,SW2*%
X162705000Y-99860000D03*
X162705000Y-98260000D03*
X158605000Y-99860000D03*
X158605000Y-98260000D03*
%TD*%
%TO.C,SW1*%
X162705000Y-104940000D03*
X162705000Y-103340000D03*
X158605000Y-104940000D03*
X158605000Y-103340000D03*
%TD*%
%TO.C,U2*%
G36*
G01*
X172639516Y-101175736D02*
X171702600Y-100238820D01*
G75*
G02*
X171702600Y-100132754I53033J53033D01*
G01*
X171808666Y-100026688D01*
G75*
G02*
X171914732Y-100026688I53033J-53033D01*
G01*
X172851648Y-100963604D01*
G75*
G02*
X172851648Y-101069670I-53033J-53033D01*
G01*
X172745582Y-101175736D01*
G75*
G02*
X172639516Y-101175736I-53033J53033D01*
G01*
G37*
G36*
G01*
X172993070Y-100822182D02*
X172056154Y-99885266D01*
G75*
G02*
X172056154Y-99779200I53033J53033D01*
G01*
X172162220Y-99673134D01*
G75*
G02*
X172268286Y-99673134I53033J-53033D01*
G01*
X173205202Y-100610050D01*
G75*
G02*
X173205202Y-100716116I-53033J-53033D01*
G01*
X173099136Y-100822182D01*
G75*
G02*
X172993070Y-100822182I-53033J53033D01*
G01*
G37*
G36*
G01*
X173346623Y-100468629D02*
X172409707Y-99531713D01*
G75*
G02*
X172409707Y-99425647I53033J53033D01*
G01*
X172515773Y-99319581D01*
G75*
G02*
X172621839Y-99319581I53033J-53033D01*
G01*
X173558755Y-100256497D01*
G75*
G02*
X173558755Y-100362563I-53033J-53033D01*
G01*
X173452689Y-100468629D01*
G75*
G02*
X173346623Y-100468629I-53033J53033D01*
G01*
G37*
G36*
G01*
X173700177Y-100115075D02*
X172763261Y-99178159D01*
G75*
G02*
X172763261Y-99072093I53033J53033D01*
G01*
X172869327Y-98966027D01*
G75*
G02*
X172975393Y-98966027I53033J-53033D01*
G01*
X173912309Y-99902943D01*
G75*
G02*
X173912309Y-100009009I-53033J-53033D01*
G01*
X173806243Y-100115075D01*
G75*
G02*
X173700177Y-100115075I-53033J53033D01*
G01*
G37*
G36*
G01*
X174053730Y-99761522D02*
X173116814Y-98824606D01*
G75*
G02*
X173116814Y-98718540I53033J53033D01*
G01*
X173222880Y-98612474D01*
G75*
G02*
X173328946Y-98612474I53033J-53033D01*
G01*
X174265862Y-99549390D01*
G75*
G02*
X174265862Y-99655456I-53033J-53033D01*
G01*
X174159796Y-99761522D01*
G75*
G02*
X174053730Y-99761522I-53033J53033D01*
G01*
G37*
G36*
G01*
X174407283Y-99407969D02*
X173470367Y-98471053D01*
G75*
G02*
X173470367Y-98364987I53033J53033D01*
G01*
X173576433Y-98258921D01*
G75*
G02*
X173682499Y-98258921I53033J-53033D01*
G01*
X174619415Y-99195837D01*
G75*
G02*
X174619415Y-99301903I-53033J-53033D01*
G01*
X174513349Y-99407969D01*
G75*
G02*
X174407283Y-99407969I-53033J53033D01*
G01*
G37*
G36*
G01*
X174760837Y-99054415D02*
X173823921Y-98117499D01*
G75*
G02*
X173823921Y-98011433I53033J53033D01*
G01*
X173929987Y-97905367D01*
G75*
G02*
X174036053Y-97905367I53033J-53033D01*
G01*
X174972969Y-98842283D01*
G75*
G02*
X174972969Y-98948349I-53033J-53033D01*
G01*
X174866903Y-99054415D01*
G75*
G02*
X174760837Y-99054415I-53033J53033D01*
G01*
G37*
G36*
G01*
X175114390Y-98700862D02*
X174177474Y-97763946D01*
G75*
G02*
X174177474Y-97657880I53033J53033D01*
G01*
X174283540Y-97551814D01*
G75*
G02*
X174389606Y-97551814I53033J-53033D01*
G01*
X175326522Y-98488730D01*
G75*
G02*
X175326522Y-98594796I-53033J-53033D01*
G01*
X175220456Y-98700862D01*
G75*
G02*
X175114390Y-98700862I-53033J53033D01*
G01*
G37*
G36*
G01*
X175467943Y-98347309D02*
X174531027Y-97410393D01*
G75*
G02*
X174531027Y-97304327I53033J53033D01*
G01*
X174637093Y-97198261D01*
G75*
G02*
X174743159Y-97198261I53033J-53033D01*
G01*
X175680075Y-98135177D01*
G75*
G02*
X175680075Y-98241243I-53033J-53033D01*
G01*
X175574009Y-98347309D01*
G75*
G02*
X175467943Y-98347309I-53033J53033D01*
G01*
G37*
G36*
G01*
X175821497Y-97993755D02*
X174884581Y-97056839D01*
G75*
G02*
X174884581Y-96950773I53033J53033D01*
G01*
X174990647Y-96844707D01*
G75*
G02*
X175096713Y-96844707I53033J-53033D01*
G01*
X176033629Y-97781623D01*
G75*
G02*
X176033629Y-97887689I-53033J-53033D01*
G01*
X175927563Y-97993755D01*
G75*
G02*
X175821497Y-97993755I-53033J53033D01*
G01*
G37*
G36*
G01*
X176175050Y-97640202D02*
X175238134Y-96703286D01*
G75*
G02*
X175238134Y-96597220I53033J53033D01*
G01*
X175344200Y-96491154D01*
G75*
G02*
X175450266Y-96491154I53033J-53033D01*
G01*
X176387182Y-97428070D01*
G75*
G02*
X176387182Y-97534136I-53033J-53033D01*
G01*
X176281116Y-97640202D01*
G75*
G02*
X176175050Y-97640202I-53033J53033D01*
G01*
G37*
G36*
G01*
X176528604Y-97286648D02*
X175591688Y-96349732D01*
G75*
G02*
X175591688Y-96243666I53033J53033D01*
G01*
X175697754Y-96137600D01*
G75*
G02*
X175803820Y-96137600I53033J-53033D01*
G01*
X176740736Y-97074516D01*
G75*
G02*
X176740736Y-97180582I-53033J-53033D01*
G01*
X176634670Y-97286648D01*
G75*
G02*
X176528604Y-97286648I-53033J53033D01*
G01*
G37*
G36*
G01*
X177695330Y-97286648D02*
X177589264Y-97180582D01*
G75*
G02*
X177589264Y-97074516I53033J53033D01*
G01*
X178526180Y-96137600D01*
G75*
G02*
X178632246Y-96137600I53033J-53033D01*
G01*
X178738312Y-96243666D01*
G75*
G02*
X178738312Y-96349732I-53033J-53033D01*
G01*
X177801396Y-97286648D01*
G75*
G02*
X177695330Y-97286648I-53033J53033D01*
G01*
G37*
G36*
G01*
X178048884Y-97640202D02*
X177942818Y-97534136D01*
G75*
G02*
X177942818Y-97428070I53033J53033D01*
G01*
X178879734Y-96491154D01*
G75*
G02*
X178985800Y-96491154I53033J-53033D01*
G01*
X179091866Y-96597220D01*
G75*
G02*
X179091866Y-96703286I-53033J-53033D01*
G01*
X178154950Y-97640202D01*
G75*
G02*
X178048884Y-97640202I-53033J53033D01*
G01*
G37*
G36*
G01*
X178402437Y-97993755D02*
X178296371Y-97887689D01*
G75*
G02*
X178296371Y-97781623I53033J53033D01*
G01*
X179233287Y-96844707D01*
G75*
G02*
X179339353Y-96844707I53033J-53033D01*
G01*
X179445419Y-96950773D01*
G75*
G02*
X179445419Y-97056839I-53033J-53033D01*
G01*
X178508503Y-97993755D01*
G75*
G02*
X178402437Y-97993755I-53033J53033D01*
G01*
G37*
G36*
G01*
X178755991Y-98347309D02*
X178649925Y-98241243D01*
G75*
G02*
X178649925Y-98135177I53033J53033D01*
G01*
X179586841Y-97198261D01*
G75*
G02*
X179692907Y-97198261I53033J-53033D01*
G01*
X179798973Y-97304327D01*
G75*
G02*
X179798973Y-97410393I-53033J-53033D01*
G01*
X178862057Y-98347309D01*
G75*
G02*
X178755991Y-98347309I-53033J53033D01*
G01*
G37*
G36*
G01*
X179109544Y-98700862D02*
X179003478Y-98594796D01*
G75*
G02*
X179003478Y-98488730I53033J53033D01*
G01*
X179940394Y-97551814D01*
G75*
G02*
X180046460Y-97551814I53033J-53033D01*
G01*
X180152526Y-97657880D01*
G75*
G02*
X180152526Y-97763946I-53033J-53033D01*
G01*
X179215610Y-98700862D01*
G75*
G02*
X179109544Y-98700862I-53033J53033D01*
G01*
G37*
G36*
G01*
X179463097Y-99054415D02*
X179357031Y-98948349D01*
G75*
G02*
X179357031Y-98842283I53033J53033D01*
G01*
X180293947Y-97905367D01*
G75*
G02*
X180400013Y-97905367I53033J-53033D01*
G01*
X180506079Y-98011433D01*
G75*
G02*
X180506079Y-98117499I-53033J-53033D01*
G01*
X179569163Y-99054415D01*
G75*
G02*
X179463097Y-99054415I-53033J53033D01*
G01*
G37*
G36*
G01*
X179816651Y-99407969D02*
X179710585Y-99301903D01*
G75*
G02*
X179710585Y-99195837I53033J53033D01*
G01*
X180647501Y-98258921D01*
G75*
G02*
X180753567Y-98258921I53033J-53033D01*
G01*
X180859633Y-98364987D01*
G75*
G02*
X180859633Y-98471053I-53033J-53033D01*
G01*
X179922717Y-99407969D01*
G75*
G02*
X179816651Y-99407969I-53033J53033D01*
G01*
G37*
G36*
G01*
X180170204Y-99761522D02*
X180064138Y-99655456D01*
G75*
G02*
X180064138Y-99549390I53033J53033D01*
G01*
X181001054Y-98612474D01*
G75*
G02*
X181107120Y-98612474I53033J-53033D01*
G01*
X181213186Y-98718540D01*
G75*
G02*
X181213186Y-98824606I-53033J-53033D01*
G01*
X180276270Y-99761522D01*
G75*
G02*
X180170204Y-99761522I-53033J53033D01*
G01*
G37*
G36*
G01*
X180523757Y-100115075D02*
X180417691Y-100009009D01*
G75*
G02*
X180417691Y-99902943I53033J53033D01*
G01*
X181354607Y-98966027D01*
G75*
G02*
X181460673Y-98966027I53033J-53033D01*
G01*
X181566739Y-99072093D01*
G75*
G02*
X181566739Y-99178159I-53033J-53033D01*
G01*
X180629823Y-100115075D01*
G75*
G02*
X180523757Y-100115075I-53033J53033D01*
G01*
G37*
G36*
G01*
X180877311Y-100468629D02*
X180771245Y-100362563D01*
G75*
G02*
X180771245Y-100256497I53033J53033D01*
G01*
X181708161Y-99319581D01*
G75*
G02*
X181814227Y-99319581I53033J-53033D01*
G01*
X181920293Y-99425647D01*
G75*
G02*
X181920293Y-99531713I-53033J-53033D01*
G01*
X180983377Y-100468629D01*
G75*
G02*
X180877311Y-100468629I-53033J53033D01*
G01*
G37*
G36*
G01*
X181230864Y-100822182D02*
X181124798Y-100716116D01*
G75*
G02*
X181124798Y-100610050I53033J53033D01*
G01*
X182061714Y-99673134D01*
G75*
G02*
X182167780Y-99673134I53033J-53033D01*
G01*
X182273846Y-99779200D01*
G75*
G02*
X182273846Y-99885266I-53033J-53033D01*
G01*
X181336930Y-100822182D01*
G75*
G02*
X181230864Y-100822182I-53033J53033D01*
G01*
G37*
G36*
G01*
X181584418Y-101175736D02*
X181478352Y-101069670D01*
G75*
G02*
X181478352Y-100963604I53033J53033D01*
G01*
X182415268Y-100026688D01*
G75*
G02*
X182521334Y-100026688I53033J-53033D01*
G01*
X182627400Y-100132754D01*
G75*
G02*
X182627400Y-100238820I-53033J-53033D01*
G01*
X181690484Y-101175736D01*
G75*
G02*
X181584418Y-101175736I-53033J53033D01*
G01*
G37*
G36*
G01*
X182415268Y-103173312D02*
X181478352Y-102236396D01*
G75*
G02*
X181478352Y-102130330I53033J53033D01*
G01*
X181584418Y-102024264D01*
G75*
G02*
X181690484Y-102024264I53033J-53033D01*
G01*
X182627400Y-102961180D01*
G75*
G02*
X182627400Y-103067246I-53033J-53033D01*
G01*
X182521334Y-103173312D01*
G75*
G02*
X182415268Y-103173312I-53033J53033D01*
G01*
G37*
G36*
G01*
X182061714Y-103526866D02*
X181124798Y-102589950D01*
G75*
G02*
X181124798Y-102483884I53033J53033D01*
G01*
X181230864Y-102377818D01*
G75*
G02*
X181336930Y-102377818I53033J-53033D01*
G01*
X182273846Y-103314734D01*
G75*
G02*
X182273846Y-103420800I-53033J-53033D01*
G01*
X182167780Y-103526866D01*
G75*
G02*
X182061714Y-103526866I-53033J53033D01*
G01*
G37*
G36*
G01*
X181708161Y-103880419D02*
X180771245Y-102943503D01*
G75*
G02*
X180771245Y-102837437I53033J53033D01*
G01*
X180877311Y-102731371D01*
G75*
G02*
X180983377Y-102731371I53033J-53033D01*
G01*
X181920293Y-103668287D01*
G75*
G02*
X181920293Y-103774353I-53033J-53033D01*
G01*
X181814227Y-103880419D01*
G75*
G02*
X181708161Y-103880419I-53033J53033D01*
G01*
G37*
G36*
G01*
X181354607Y-104233973D02*
X180417691Y-103297057D01*
G75*
G02*
X180417691Y-103190991I53033J53033D01*
G01*
X180523757Y-103084925D01*
G75*
G02*
X180629823Y-103084925I53033J-53033D01*
G01*
X181566739Y-104021841D01*
G75*
G02*
X181566739Y-104127907I-53033J-53033D01*
G01*
X181460673Y-104233973D01*
G75*
G02*
X181354607Y-104233973I-53033J53033D01*
G01*
G37*
G36*
G01*
X181001054Y-104587526D02*
X180064138Y-103650610D01*
G75*
G02*
X180064138Y-103544544I53033J53033D01*
G01*
X180170204Y-103438478D01*
G75*
G02*
X180276270Y-103438478I53033J-53033D01*
G01*
X181213186Y-104375394D01*
G75*
G02*
X181213186Y-104481460I-53033J-53033D01*
G01*
X181107120Y-104587526D01*
G75*
G02*
X181001054Y-104587526I-53033J53033D01*
G01*
G37*
G36*
G01*
X180647501Y-104941079D02*
X179710585Y-104004163D01*
G75*
G02*
X179710585Y-103898097I53033J53033D01*
G01*
X179816651Y-103792031D01*
G75*
G02*
X179922717Y-103792031I53033J-53033D01*
G01*
X180859633Y-104728947D01*
G75*
G02*
X180859633Y-104835013I-53033J-53033D01*
G01*
X180753567Y-104941079D01*
G75*
G02*
X180647501Y-104941079I-53033J53033D01*
G01*
G37*
G36*
G01*
X180293947Y-105294633D02*
X179357031Y-104357717D01*
G75*
G02*
X179357031Y-104251651I53033J53033D01*
G01*
X179463097Y-104145585D01*
G75*
G02*
X179569163Y-104145585I53033J-53033D01*
G01*
X180506079Y-105082501D01*
G75*
G02*
X180506079Y-105188567I-53033J-53033D01*
G01*
X180400013Y-105294633D01*
G75*
G02*
X180293947Y-105294633I-53033J53033D01*
G01*
G37*
G36*
G01*
X179940394Y-105648186D02*
X179003478Y-104711270D01*
G75*
G02*
X179003478Y-104605204I53033J53033D01*
G01*
X179109544Y-104499138D01*
G75*
G02*
X179215610Y-104499138I53033J-53033D01*
G01*
X180152526Y-105436054D01*
G75*
G02*
X180152526Y-105542120I-53033J-53033D01*
G01*
X180046460Y-105648186D01*
G75*
G02*
X179940394Y-105648186I-53033J53033D01*
G01*
G37*
G36*
G01*
X179586841Y-106001739D02*
X178649925Y-105064823D01*
G75*
G02*
X178649925Y-104958757I53033J53033D01*
G01*
X178755991Y-104852691D01*
G75*
G02*
X178862057Y-104852691I53033J-53033D01*
G01*
X179798973Y-105789607D01*
G75*
G02*
X179798973Y-105895673I-53033J-53033D01*
G01*
X179692907Y-106001739D01*
G75*
G02*
X179586841Y-106001739I-53033J53033D01*
G01*
G37*
G36*
G01*
X179233287Y-106355293D02*
X178296371Y-105418377D01*
G75*
G02*
X178296371Y-105312311I53033J53033D01*
G01*
X178402437Y-105206245D01*
G75*
G02*
X178508503Y-105206245I53033J-53033D01*
G01*
X179445419Y-106143161D01*
G75*
G02*
X179445419Y-106249227I-53033J-53033D01*
G01*
X179339353Y-106355293D01*
G75*
G02*
X179233287Y-106355293I-53033J53033D01*
G01*
G37*
G36*
G01*
X178879734Y-106708846D02*
X177942818Y-105771930D01*
G75*
G02*
X177942818Y-105665864I53033J53033D01*
G01*
X178048884Y-105559798D01*
G75*
G02*
X178154950Y-105559798I53033J-53033D01*
G01*
X179091866Y-106496714D01*
G75*
G02*
X179091866Y-106602780I-53033J-53033D01*
G01*
X178985800Y-106708846D01*
G75*
G02*
X178879734Y-106708846I-53033J53033D01*
G01*
G37*
G36*
G01*
X178526180Y-107062400D02*
X177589264Y-106125484D01*
G75*
G02*
X177589264Y-106019418I53033J53033D01*
G01*
X177695330Y-105913352D01*
G75*
G02*
X177801396Y-105913352I53033J-53033D01*
G01*
X178738312Y-106850268D01*
G75*
G02*
X178738312Y-106956334I-53033J-53033D01*
G01*
X178632246Y-107062400D01*
G75*
G02*
X178526180Y-107062400I-53033J53033D01*
G01*
G37*
G36*
G01*
X175697754Y-107062400D02*
X175591688Y-106956334D01*
G75*
G02*
X175591688Y-106850268I53033J53033D01*
G01*
X176528604Y-105913352D01*
G75*
G02*
X176634670Y-105913352I53033J-53033D01*
G01*
X176740736Y-106019418D01*
G75*
G02*
X176740736Y-106125484I-53033J-53033D01*
G01*
X175803820Y-107062400D01*
G75*
G02*
X175697754Y-107062400I-53033J53033D01*
G01*
G37*
G36*
G01*
X175344200Y-106708846D02*
X175238134Y-106602780D01*
G75*
G02*
X175238134Y-106496714I53033J53033D01*
G01*
X176175050Y-105559798D01*
G75*
G02*
X176281116Y-105559798I53033J-53033D01*
G01*
X176387182Y-105665864D01*
G75*
G02*
X176387182Y-105771930I-53033J-53033D01*
G01*
X175450266Y-106708846D01*
G75*
G02*
X175344200Y-106708846I-53033J53033D01*
G01*
G37*
G36*
G01*
X174990647Y-106355293D02*
X174884581Y-106249227D01*
G75*
G02*
X174884581Y-106143161I53033J53033D01*
G01*
X175821497Y-105206245D01*
G75*
G02*
X175927563Y-105206245I53033J-53033D01*
G01*
X176033629Y-105312311D01*
G75*
G02*
X176033629Y-105418377I-53033J-53033D01*
G01*
X175096713Y-106355293D01*
G75*
G02*
X174990647Y-106355293I-53033J53033D01*
G01*
G37*
G36*
G01*
X174637093Y-106001739D02*
X174531027Y-105895673D01*
G75*
G02*
X174531027Y-105789607I53033J53033D01*
G01*
X175467943Y-104852691D01*
G75*
G02*
X175574009Y-104852691I53033J-53033D01*
G01*
X175680075Y-104958757D01*
G75*
G02*
X175680075Y-105064823I-53033J-53033D01*
G01*
X174743159Y-106001739D01*
G75*
G02*
X174637093Y-106001739I-53033J53033D01*
G01*
G37*
G36*
G01*
X174283540Y-105648186D02*
X174177474Y-105542120D01*
G75*
G02*
X174177474Y-105436054I53033J53033D01*
G01*
X175114390Y-104499138D01*
G75*
G02*
X175220456Y-104499138I53033J-53033D01*
G01*
X175326522Y-104605204D01*
G75*
G02*
X175326522Y-104711270I-53033J-53033D01*
G01*
X174389606Y-105648186D01*
G75*
G02*
X174283540Y-105648186I-53033J53033D01*
G01*
G37*
G36*
G01*
X173929987Y-105294633D02*
X173823921Y-105188567D01*
G75*
G02*
X173823921Y-105082501I53033J53033D01*
G01*
X174760837Y-104145585D01*
G75*
G02*
X174866903Y-104145585I53033J-53033D01*
G01*
X174972969Y-104251651D01*
G75*
G02*
X174972969Y-104357717I-53033J-53033D01*
G01*
X174036053Y-105294633D01*
G75*
G02*
X173929987Y-105294633I-53033J53033D01*
G01*
G37*
G36*
G01*
X173576433Y-104941079D02*
X173470367Y-104835013D01*
G75*
G02*
X173470367Y-104728947I53033J53033D01*
G01*
X174407283Y-103792031D01*
G75*
G02*
X174513349Y-103792031I53033J-53033D01*
G01*
X174619415Y-103898097D01*
G75*
G02*
X174619415Y-104004163I-53033J-53033D01*
G01*
X173682499Y-104941079D01*
G75*
G02*
X173576433Y-104941079I-53033J53033D01*
G01*
G37*
G36*
G01*
X173222880Y-104587526D02*
X173116814Y-104481460D01*
G75*
G02*
X173116814Y-104375394I53033J53033D01*
G01*
X174053730Y-103438478D01*
G75*
G02*
X174159796Y-103438478I53033J-53033D01*
G01*
X174265862Y-103544544D01*
G75*
G02*
X174265862Y-103650610I-53033J-53033D01*
G01*
X173328946Y-104587526D01*
G75*
G02*
X173222880Y-104587526I-53033J53033D01*
G01*
G37*
G36*
G01*
X172869327Y-104233973D02*
X172763261Y-104127907D01*
G75*
G02*
X172763261Y-104021841I53033J53033D01*
G01*
X173700177Y-103084925D01*
G75*
G02*
X173806243Y-103084925I53033J-53033D01*
G01*
X173912309Y-103190991D01*
G75*
G02*
X173912309Y-103297057I-53033J-53033D01*
G01*
X172975393Y-104233973D01*
G75*
G02*
X172869327Y-104233973I-53033J53033D01*
G01*
G37*
G36*
G01*
X172515773Y-103880419D02*
X172409707Y-103774353D01*
G75*
G02*
X172409707Y-103668287I53033J53033D01*
G01*
X173346623Y-102731371D01*
G75*
G02*
X173452689Y-102731371I53033J-53033D01*
G01*
X173558755Y-102837437D01*
G75*
G02*
X173558755Y-102943503I-53033J-53033D01*
G01*
X172621839Y-103880419D01*
G75*
G02*
X172515773Y-103880419I-53033J53033D01*
G01*
G37*
G36*
G01*
X172162220Y-103526866D02*
X172056154Y-103420800D01*
G75*
G02*
X172056154Y-103314734I53033J53033D01*
G01*
X172993070Y-102377818D01*
G75*
G02*
X173099136Y-102377818I53033J-53033D01*
G01*
X173205202Y-102483884D01*
G75*
G02*
X173205202Y-102589950I-53033J-53033D01*
G01*
X172268286Y-103526866D01*
G75*
G02*
X172162220Y-103526866I-53033J53033D01*
G01*
G37*
G36*
G01*
X171808666Y-103173312D02*
X171702600Y-103067246D01*
G75*
G02*
X171702600Y-102961180I53033J53033D01*
G01*
X172639516Y-102024264D01*
G75*
G02*
X172745582Y-102024264I53033J-53033D01*
G01*
X172851648Y-102130330D01*
G75*
G02*
X172851648Y-102236396I-53033J-53033D01*
G01*
X171914732Y-103173312D01*
G75*
G02*
X171808666Y-103173312I-53033J53033D01*
G01*
G37*
%TD*%
%TO.C,C3*%
G36*
G01*
X185163750Y-104490000D02*
X185676250Y-104490000D01*
G75*
G02*
X185895000Y-104708750I0J-218750D01*
G01*
X185895000Y-105146250D01*
G75*
G02*
X185676250Y-105365000I-218750J0D01*
G01*
X185163750Y-105365000D01*
G75*
G02*
X184945000Y-105146250I0J218750D01*
G01*
X184945000Y-104708750D01*
G75*
G02*
X185163750Y-104490000I218750J0D01*
G01*
G37*
G36*
G01*
X185163750Y-102915000D02*
X185676250Y-102915000D01*
G75*
G02*
X185895000Y-103133750I0J-218750D01*
G01*
X185895000Y-103571250D01*
G75*
G02*
X185676250Y-103790000I-218750J0D01*
G01*
X185163750Y-103790000D01*
G75*
G02*
X184945000Y-103571250I0J218750D01*
G01*
X184945000Y-103133750D01*
G75*
G02*
X185163750Y-102915000I218750J0D01*
G01*
G37*
%TD*%
%TO.C,C1*%
G36*
G01*
X190756250Y-103790000D02*
X190243750Y-103790000D01*
G75*
G02*
X190025000Y-103571250I0J218750D01*
G01*
X190025000Y-103133750D01*
G75*
G02*
X190243750Y-102915000I218750J0D01*
G01*
X190756250Y-102915000D01*
G75*
G02*
X190975000Y-103133750I0J-218750D01*
G01*
X190975000Y-103571250D01*
G75*
G02*
X190756250Y-103790000I-218750J0D01*
G01*
G37*
G36*
G01*
X190756250Y-105365000D02*
X190243750Y-105365000D01*
G75*
G02*
X190025000Y-105146250I0J218750D01*
G01*
X190025000Y-104708750D01*
G75*
G02*
X190243750Y-104490000I218750J0D01*
G01*
X190756250Y-104490000D01*
G75*
G02*
X190975000Y-104708750I0J-218750D01*
G01*
X190975000Y-105146250D01*
G75*
G02*
X190756250Y-105365000I-218750J0D01*
G01*
G37*
%TD*%
%TO.C,R5*%
G36*
G01*
X156020000Y-96347500D02*
X156020000Y-96692500D01*
G75*
G02*
X155872500Y-96840000I-147500J0D01*
G01*
X155577500Y-96840000D01*
G75*
G02*
X155430000Y-96692500I0J147500D01*
G01*
X155430000Y-96347500D01*
G75*
G02*
X155577500Y-96200000I147500J0D01*
G01*
X155872500Y-96200000D01*
G75*
G02*
X156020000Y-96347500I0J-147500D01*
G01*
G37*
G36*
G01*
X156990000Y-96347500D02*
X156990000Y-96692500D01*
G75*
G02*
X156842500Y-96840000I-147500J0D01*
G01*
X156547500Y-96840000D01*
G75*
G02*
X156400000Y-96692500I0J147500D01*
G01*
X156400000Y-96347500D01*
G75*
G02*
X156547500Y-96200000I147500J0D01*
G01*
X156842500Y-96200000D01*
G75*
G02*
X156990000Y-96347500I0J-147500D01*
G01*
G37*
%TD*%
%TO.C,R8*%
G36*
G01*
X186500000Y-98252500D02*
X186500000Y-98597500D01*
G75*
G02*
X186352500Y-98745000I-147500J0D01*
G01*
X186057500Y-98745000D01*
G75*
G02*
X185910000Y-98597500I0J147500D01*
G01*
X185910000Y-98252500D01*
G75*
G02*
X186057500Y-98105000I147500J0D01*
G01*
X186352500Y-98105000D01*
G75*
G02*
X186500000Y-98252500I0J-147500D01*
G01*
G37*
G36*
G01*
X187470000Y-98252500D02*
X187470000Y-98597500D01*
G75*
G02*
X187322500Y-98745000I-147500J0D01*
G01*
X187027500Y-98745000D01*
G75*
G02*
X186880000Y-98597500I0J147500D01*
G01*
X186880000Y-98252500D01*
G75*
G02*
X187027500Y-98105000I147500J0D01*
G01*
X187322500Y-98105000D01*
G75*
G02*
X187470000Y-98252500I0J-147500D01*
G01*
G37*
%TD*%
%TO.C,R4*%
G36*
G01*
X193485000Y-98252500D02*
X193485000Y-98597500D01*
G75*
G02*
X193337500Y-98745000I-147500J0D01*
G01*
X193042500Y-98745000D01*
G75*
G02*
X192895000Y-98597500I0J147500D01*
G01*
X192895000Y-98252500D01*
G75*
G02*
X193042500Y-98105000I147500J0D01*
G01*
X193337500Y-98105000D01*
G75*
G02*
X193485000Y-98252500I0J-147500D01*
G01*
G37*
G36*
G01*
X194455000Y-98252500D02*
X194455000Y-98597500D01*
G75*
G02*
X194307500Y-98745000I-147500J0D01*
G01*
X194012500Y-98745000D01*
G75*
G02*
X193865000Y-98597500I0J147500D01*
G01*
X193865000Y-98252500D01*
G75*
G02*
X194012500Y-98105000I147500J0D01*
G01*
X194307500Y-98105000D01*
G75*
G02*
X194455000Y-98252500I0J-147500D01*
G01*
G37*
%TD*%
%TO.C,R3*%
G36*
G01*
X193485000Y-99522500D02*
X193485000Y-99867500D01*
G75*
G02*
X193337500Y-100015000I-147500J0D01*
G01*
X193042500Y-100015000D01*
G75*
G02*
X192895000Y-99867500I0J147500D01*
G01*
X192895000Y-99522500D01*
G75*
G02*
X193042500Y-99375000I147500J0D01*
G01*
X193337500Y-99375000D01*
G75*
G02*
X193485000Y-99522500I0J-147500D01*
G01*
G37*
G36*
G01*
X194455000Y-99522500D02*
X194455000Y-99867500D01*
G75*
G02*
X194307500Y-100015000I-147500J0D01*
G01*
X194012500Y-100015000D01*
G75*
G02*
X193865000Y-99867500I0J147500D01*
G01*
X193865000Y-99522500D01*
G75*
G02*
X194012500Y-99375000I147500J0D01*
G01*
X194307500Y-99375000D01*
G75*
G02*
X194455000Y-99522500I0J-147500D01*
G01*
G37*
%TD*%
%TO.C,R2*%
G36*
G01*
X193485000Y-100792500D02*
X193485000Y-101137500D01*
G75*
G02*
X193337500Y-101285000I-147500J0D01*
G01*
X193042500Y-101285000D01*
G75*
G02*
X192895000Y-101137500I0J147500D01*
G01*
X192895000Y-100792500D01*
G75*
G02*
X193042500Y-100645000I147500J0D01*
G01*
X193337500Y-100645000D01*
G75*
G02*
X193485000Y-100792500I0J-147500D01*
G01*
G37*
G36*
G01*
X194455000Y-100792500D02*
X194455000Y-101137500D01*
G75*
G02*
X194307500Y-101285000I-147500J0D01*
G01*
X194012500Y-101285000D01*
G75*
G02*
X193865000Y-101137500I0J147500D01*
G01*
X193865000Y-100792500D01*
G75*
G02*
X194012500Y-100645000I147500J0D01*
G01*
X194307500Y-100645000D01*
G75*
G02*
X194455000Y-100792500I0J-147500D01*
G01*
G37*
%TD*%
D11*
%TO.C,U1*%
X187960000Y-105140000D03*
X187010000Y-103140000D03*
X188910000Y-103140000D03*
%TD*%
%TO.C,R7*%
G36*
G01*
X193485000Y-102062500D02*
X193485000Y-102407500D01*
G75*
G02*
X193337500Y-102555000I-147500J0D01*
G01*
X193042500Y-102555000D01*
G75*
G02*
X192895000Y-102407500I0J147500D01*
G01*
X192895000Y-102062500D01*
G75*
G02*
X193042500Y-101915000I147500J0D01*
G01*
X193337500Y-101915000D01*
G75*
G02*
X193485000Y-102062500I0J-147500D01*
G01*
G37*
G36*
G01*
X194455000Y-102062500D02*
X194455000Y-102407500D01*
G75*
G02*
X194307500Y-102555000I-147500J0D01*
G01*
X194012500Y-102555000D01*
G75*
G02*
X193865000Y-102407500I0J147500D01*
G01*
X193865000Y-102062500D01*
G75*
G02*
X194012500Y-101915000I147500J0D01*
G01*
X194307500Y-101915000D01*
G75*
G02*
X194455000Y-102062500I0J-147500D01*
G01*
G37*
%TD*%
D12*
%TO.C,J1*%
X195980000Y-98350000D03*
X195980000Y-99150000D03*
X195980000Y-104050000D03*
X195980000Y-104850000D03*
X195980000Y-104850000D03*
X195980000Y-104050000D03*
X195980000Y-99150000D03*
X195980000Y-98350000D03*
D13*
X195980000Y-103350000D03*
X195980000Y-102850000D03*
X195980000Y-102350000D03*
X195980000Y-101350000D03*
X195980000Y-100850000D03*
X195980000Y-100350000D03*
X195980000Y-99850000D03*
X195980000Y-101850000D03*
%TD*%
%TO.C,C11*%
G36*
G01*
X165272500Y-98235000D02*
X164927500Y-98235000D01*
G75*
G02*
X164780000Y-98087500I0J147500D01*
G01*
X164780000Y-97792500D01*
G75*
G02*
X164927500Y-97645000I147500J0D01*
G01*
X165272500Y-97645000D01*
G75*
G02*
X165420000Y-97792500I0J-147500D01*
G01*
X165420000Y-98087500D01*
G75*
G02*
X165272500Y-98235000I-147500J0D01*
G01*
G37*
G36*
G01*
X165272500Y-99205000D02*
X164927500Y-99205000D01*
G75*
G02*
X164780000Y-99057500I0J147500D01*
G01*
X164780000Y-98762500D01*
G75*
G02*
X164927500Y-98615000I147500J0D01*
G01*
X165272500Y-98615000D01*
G75*
G02*
X165420000Y-98762500I0J-147500D01*
G01*
X165420000Y-99057500D01*
G75*
G02*
X165272500Y-99205000I-147500J0D01*
G01*
G37*
%TD*%
%TO.C,C10*%
G36*
G01*
X170352500Y-98235000D02*
X170007500Y-98235000D01*
G75*
G02*
X169860000Y-98087500I0J147500D01*
G01*
X169860000Y-97792500D01*
G75*
G02*
X170007500Y-97645000I147500J0D01*
G01*
X170352500Y-97645000D01*
G75*
G02*
X170500000Y-97792500I0J-147500D01*
G01*
X170500000Y-98087500D01*
G75*
G02*
X170352500Y-98235000I-147500J0D01*
G01*
G37*
G36*
G01*
X170352500Y-99205000D02*
X170007500Y-99205000D01*
G75*
G02*
X169860000Y-99057500I0J147500D01*
G01*
X169860000Y-98762500D01*
G75*
G02*
X170007500Y-98615000I147500J0D01*
G01*
X170352500Y-98615000D01*
G75*
G02*
X170500000Y-98762500I0J-147500D01*
G01*
X170500000Y-99057500D01*
G75*
G02*
X170352500Y-99205000I-147500J0D01*
G01*
G37*
%TD*%
D14*
%TO.C,Y2*%
X166390000Y-98425000D03*
X168890000Y-98425000D03*
%TD*%
D15*
%TO.C,Y1*%
X167640000Y-105555000D03*
X167640000Y-101455000D03*
%TD*%
%TO.C,C9*%
G36*
G01*
X165272500Y-105220000D02*
X164927500Y-105220000D01*
G75*
G02*
X164780000Y-105072500I0J147500D01*
G01*
X164780000Y-104777500D01*
G75*
G02*
X164927500Y-104630000I147500J0D01*
G01*
X165272500Y-104630000D01*
G75*
G02*
X165420000Y-104777500I0J-147500D01*
G01*
X165420000Y-105072500D01*
G75*
G02*
X165272500Y-105220000I-147500J0D01*
G01*
G37*
G36*
G01*
X165272500Y-106190000D02*
X164927500Y-106190000D01*
G75*
G02*
X164780000Y-106042500I0J147500D01*
G01*
X164780000Y-105747500D01*
G75*
G02*
X164927500Y-105600000I147500J0D01*
G01*
X165272500Y-105600000D01*
G75*
G02*
X165420000Y-105747500I0J-147500D01*
G01*
X165420000Y-106042500D01*
G75*
G02*
X165272500Y-106190000I-147500J0D01*
G01*
G37*
%TD*%
%TO.C,C8*%
G36*
G01*
X164927500Y-101790000D02*
X165272500Y-101790000D01*
G75*
G02*
X165420000Y-101937500I0J-147500D01*
G01*
X165420000Y-102232500D01*
G75*
G02*
X165272500Y-102380000I-147500J0D01*
G01*
X164927500Y-102380000D01*
G75*
G02*
X164780000Y-102232500I0J147500D01*
G01*
X164780000Y-101937500D01*
G75*
G02*
X164927500Y-101790000I147500J0D01*
G01*
G37*
G36*
G01*
X164927500Y-100820000D02*
X165272500Y-100820000D01*
G75*
G02*
X165420000Y-100967500I0J-147500D01*
G01*
X165420000Y-101262500D01*
G75*
G02*
X165272500Y-101410000I-147500J0D01*
G01*
X164927500Y-101410000D01*
G75*
G02*
X164780000Y-101262500I0J147500D01*
G01*
X164780000Y-100967500D01*
G75*
G02*
X164927500Y-100820000I147500J0D01*
G01*
G37*
%TD*%
%TO.C,R6*%
G36*
G01*
X193485000Y-96982500D02*
X193485000Y-97327500D01*
G75*
G02*
X193337500Y-97475000I-147500J0D01*
G01*
X193042500Y-97475000D01*
G75*
G02*
X192895000Y-97327500I0J147500D01*
G01*
X192895000Y-96982500D01*
G75*
G02*
X193042500Y-96835000I147500J0D01*
G01*
X193337500Y-96835000D01*
G75*
G02*
X193485000Y-96982500I0J-147500D01*
G01*
G37*
G36*
G01*
X194455000Y-96982500D02*
X194455000Y-97327500D01*
G75*
G02*
X194307500Y-97475000I-147500J0D01*
G01*
X194012500Y-97475000D01*
G75*
G02*
X193865000Y-97327500I0J147500D01*
G01*
X193865000Y-96982500D01*
G75*
G02*
X194012500Y-96835000I147500J0D01*
G01*
X194307500Y-96835000D01*
G75*
G02*
X194455000Y-96982500I0J-147500D01*
G01*
G37*
%TD*%
%TO.C,R9*%
G36*
G01*
X186500000Y-100157500D02*
X186500000Y-100502500D01*
G75*
G02*
X186352500Y-100650000I-147500J0D01*
G01*
X186057500Y-100650000D01*
G75*
G02*
X185910000Y-100502500I0J147500D01*
G01*
X185910000Y-100157500D01*
G75*
G02*
X186057500Y-100010000I147500J0D01*
G01*
X186352500Y-100010000D01*
G75*
G02*
X186500000Y-100157500I0J-147500D01*
G01*
G37*
G36*
G01*
X187470000Y-100157500D02*
X187470000Y-100502500D01*
G75*
G02*
X187322500Y-100650000I-147500J0D01*
G01*
X187027500Y-100650000D01*
G75*
G02*
X186880000Y-100502500I0J147500D01*
G01*
X186880000Y-100157500D01*
G75*
G02*
X187027500Y-100010000I147500J0D01*
G01*
X187322500Y-100010000D01*
G75*
G02*
X187470000Y-100157500I0J-147500D01*
G01*
G37*
%TD*%
%TO.C,R1*%
G36*
G01*
X153860000Y-106852500D02*
X153860000Y-106507500D01*
G75*
G02*
X154007500Y-106360000I147500J0D01*
G01*
X154302500Y-106360000D01*
G75*
G02*
X154450000Y-106507500I0J-147500D01*
G01*
X154450000Y-106852500D01*
G75*
G02*
X154302500Y-107000000I-147500J0D01*
G01*
X154007500Y-107000000D01*
G75*
G02*
X153860000Y-106852500I0J147500D01*
G01*
G37*
G36*
G01*
X152890000Y-106852500D02*
X152890000Y-106507500D01*
G75*
G02*
X153037500Y-106360000I147500J0D01*
G01*
X153332500Y-106360000D01*
G75*
G02*
X153480000Y-106507500I0J-147500D01*
G01*
X153480000Y-106852500D01*
G75*
G02*
X153332500Y-107000000I-147500J0D01*
G01*
X153037500Y-107000000D01*
G75*
G02*
X152890000Y-106852500I0J147500D01*
G01*
G37*
%TD*%
%TO.C,D3*%
G36*
G01*
X189580000Y-100586250D02*
X189580000Y-100073750D01*
G75*
G02*
X189798750Y-99855000I218750J0D01*
G01*
X190236250Y-99855000D01*
G75*
G02*
X190455000Y-100073750I0J-218750D01*
G01*
X190455000Y-100586250D01*
G75*
G02*
X190236250Y-100805000I-218750J0D01*
G01*
X189798750Y-100805000D01*
G75*
G02*
X189580000Y-100586250I0J218750D01*
G01*
G37*
G36*
G01*
X188005000Y-100586250D02*
X188005000Y-100073750D01*
G75*
G02*
X188223750Y-99855000I218750J0D01*
G01*
X188661250Y-99855000D01*
G75*
G02*
X188880000Y-100073750I0J-218750D01*
G01*
X188880000Y-100586250D01*
G75*
G02*
X188661250Y-100805000I-218750J0D01*
G01*
X188223750Y-100805000D01*
G75*
G02*
X188005000Y-100586250I0J218750D01*
G01*
G37*
%TD*%
%TO.C,D2*%
G36*
G01*
X189580000Y-98681250D02*
X189580000Y-98168750D01*
G75*
G02*
X189798750Y-97950000I218750J0D01*
G01*
X190236250Y-97950000D01*
G75*
G02*
X190455000Y-98168750I0J-218750D01*
G01*
X190455000Y-98681250D01*
G75*
G02*
X190236250Y-98900000I-218750J0D01*
G01*
X189798750Y-98900000D01*
G75*
G02*
X189580000Y-98681250I0J218750D01*
G01*
G37*
G36*
G01*
X188005000Y-98681250D02*
X188005000Y-98168750D01*
G75*
G02*
X188223750Y-97950000I218750J0D01*
G01*
X188661250Y-97950000D01*
G75*
G02*
X188880000Y-98168750I0J-218750D01*
G01*
X188880000Y-98681250D01*
G75*
G02*
X188661250Y-98900000I-218750J0D01*
G01*
X188223750Y-98900000D01*
G75*
G02*
X188005000Y-98681250I0J218750D01*
G01*
G37*
%TD*%
%TO.C,C2*%
G36*
G01*
X156400000Y-106852500D02*
X156400000Y-106507500D01*
G75*
G02*
X156547500Y-106360000I147500J0D01*
G01*
X156842500Y-106360000D01*
G75*
G02*
X156990000Y-106507500I0J-147500D01*
G01*
X156990000Y-106852500D01*
G75*
G02*
X156842500Y-107000000I-147500J0D01*
G01*
X156547500Y-107000000D01*
G75*
G02*
X156400000Y-106852500I0J147500D01*
G01*
G37*
G36*
G01*
X155430000Y-106852500D02*
X155430000Y-106507500D01*
G75*
G02*
X155577500Y-106360000I147500J0D01*
G01*
X155872500Y-106360000D01*
G75*
G02*
X156020000Y-106507500I0J-147500D01*
G01*
X156020000Y-106852500D01*
G75*
G02*
X155872500Y-107000000I-147500J0D01*
G01*
X155577500Y-107000000D01*
G75*
G02*
X155430000Y-106852500I0J147500D01*
G01*
G37*
%TD*%
D16*
%TO.C,D1*%
X193040000Y-103760000D03*
X193040000Y-107060000D03*
%TD*%
%TO.C,C7*%
G36*
G01*
X170987500Y-101410000D02*
X170642500Y-101410000D01*
G75*
G02*
X170495000Y-101262500I0J147500D01*
G01*
X170495000Y-100967500D01*
G75*
G02*
X170642500Y-100820000I147500J0D01*
G01*
X170987500Y-100820000D01*
G75*
G02*
X171135000Y-100967500I0J-147500D01*
G01*
X171135000Y-101262500D01*
G75*
G02*
X170987500Y-101410000I-147500J0D01*
G01*
G37*
G36*
G01*
X170987500Y-102380000D02*
X170642500Y-102380000D01*
G75*
G02*
X170495000Y-102232500I0J147500D01*
G01*
X170495000Y-101937500D01*
G75*
G02*
X170642500Y-101790000I147500J0D01*
G01*
X170987500Y-101790000D01*
G75*
G02*
X171135000Y-101937500I0J-147500D01*
G01*
X171135000Y-102232500D01*
G75*
G02*
X170987500Y-102380000I-147500J0D01*
G01*
G37*
%TD*%
%TO.C,C6*%
G36*
G01*
X172530000Y-105872500D02*
X172530000Y-106217500D01*
G75*
G02*
X172382500Y-106365000I-147500J0D01*
G01*
X172087500Y-106365000D01*
G75*
G02*
X171940000Y-106217500I0J147500D01*
G01*
X171940000Y-105872500D01*
G75*
G02*
X172087500Y-105725000I147500J0D01*
G01*
X172382500Y-105725000D01*
G75*
G02*
X172530000Y-105872500I0J-147500D01*
G01*
G37*
G36*
G01*
X173500000Y-105872500D02*
X173500000Y-106217500D01*
G75*
G02*
X173352500Y-106365000I-147500J0D01*
G01*
X173057500Y-106365000D01*
G75*
G02*
X172910000Y-106217500I0J147500D01*
G01*
X172910000Y-105872500D01*
G75*
G02*
X173057500Y-105725000I147500J0D01*
G01*
X173352500Y-105725000D01*
G75*
G02*
X173500000Y-105872500I0J-147500D01*
G01*
G37*
%TD*%
%TO.C,C5*%
G36*
G01*
X180530000Y-96057500D02*
X180530000Y-95712500D01*
G75*
G02*
X180677500Y-95565000I147500J0D01*
G01*
X180972500Y-95565000D01*
G75*
G02*
X181120000Y-95712500I0J-147500D01*
G01*
X181120000Y-96057500D01*
G75*
G02*
X180972500Y-96205000I-147500J0D01*
G01*
X180677500Y-96205000D01*
G75*
G02*
X180530000Y-96057500I0J147500D01*
G01*
G37*
G36*
G01*
X179560000Y-96057500D02*
X179560000Y-95712500D01*
G75*
G02*
X179707500Y-95565000I147500J0D01*
G01*
X180002500Y-95565000D01*
G75*
G02*
X180150000Y-95712500I0J-147500D01*
G01*
X180150000Y-96057500D01*
G75*
G02*
X180002500Y-96205000I-147500J0D01*
G01*
X179707500Y-96205000D01*
G75*
G02*
X179560000Y-96057500I0J147500D01*
G01*
G37*
%TD*%
%TO.C,C4*%
G36*
G01*
X183687500Y-101410000D02*
X183342500Y-101410000D01*
G75*
G02*
X183195000Y-101262500I0J147500D01*
G01*
X183195000Y-100967500D01*
G75*
G02*
X183342500Y-100820000I147500J0D01*
G01*
X183687500Y-100820000D01*
G75*
G02*
X183835000Y-100967500I0J-147500D01*
G01*
X183835000Y-101262500D01*
G75*
G02*
X183687500Y-101410000I-147500J0D01*
G01*
G37*
G36*
G01*
X183687500Y-102380000D02*
X183342500Y-102380000D01*
G75*
G02*
X183195000Y-102232500I0J147500D01*
G01*
X183195000Y-101937500D01*
G75*
G02*
X183342500Y-101790000I147500J0D01*
G01*
X183687500Y-101790000D01*
G75*
G02*
X183835000Y-101937500I0J-147500D01*
G01*
X183835000Y-102232500D01*
G75*
G02*
X183687500Y-102380000I-147500J0D01*
G01*
G37*
%TD*%
M02*
