%TF.GenerationSoftware,KiCad,Pcbnew,5.1.7+dfsg1-1*%
%TF.CreationDate,2020-11-03T09:55:16+08:00*%
%TF.ProjectId,gp,67702e6b-6963-4616-945f-706362585858,c*%
%TF.SameCoordinates,Original*%
%TF.FileFunction,Paste,Top*%
%TF.FilePolarity,Positive*%
%FSLAX46Y46*%
G04 Gerber Fmt 4.6, Leading zero omitted, Abs format (unit mm)*
G04 Created by KiCad (PCBNEW 5.1.7+dfsg1-1) date 2020-11-03 09:55:16*
%MOMM*%
%LPD*%
G01*
G04 APERTURE LIST*
%ADD10R,1.700000X1.000000*%
%ADD11R,0.800000X0.900000*%
%ADD12R,1.000000X1.800000*%
%ADD13R,2.400000X1.900000*%
%ADD14R,1.200000X0.900000*%
G04 APERTURE END LIST*
%TO.C,U2*%
G36*
G01*
X175814516Y-101175736D02*
X174877600Y-100238820D01*
G75*
G02*
X174877600Y-100132754I53033J53033D01*
G01*
X174983666Y-100026688D01*
G75*
G02*
X175089732Y-100026688I53033J-53033D01*
G01*
X176026648Y-100963604D01*
G75*
G02*
X176026648Y-101069670I-53033J-53033D01*
G01*
X175920582Y-101175736D01*
G75*
G02*
X175814516Y-101175736I-53033J53033D01*
G01*
G37*
G36*
G01*
X176168070Y-100822182D02*
X175231154Y-99885266D01*
G75*
G02*
X175231154Y-99779200I53033J53033D01*
G01*
X175337220Y-99673134D01*
G75*
G02*
X175443286Y-99673134I53033J-53033D01*
G01*
X176380202Y-100610050D01*
G75*
G02*
X176380202Y-100716116I-53033J-53033D01*
G01*
X176274136Y-100822182D01*
G75*
G02*
X176168070Y-100822182I-53033J53033D01*
G01*
G37*
G36*
G01*
X176521623Y-100468629D02*
X175584707Y-99531713D01*
G75*
G02*
X175584707Y-99425647I53033J53033D01*
G01*
X175690773Y-99319581D01*
G75*
G02*
X175796839Y-99319581I53033J-53033D01*
G01*
X176733755Y-100256497D01*
G75*
G02*
X176733755Y-100362563I-53033J-53033D01*
G01*
X176627689Y-100468629D01*
G75*
G02*
X176521623Y-100468629I-53033J53033D01*
G01*
G37*
G36*
G01*
X176875177Y-100115075D02*
X175938261Y-99178159D01*
G75*
G02*
X175938261Y-99072093I53033J53033D01*
G01*
X176044327Y-98966027D01*
G75*
G02*
X176150393Y-98966027I53033J-53033D01*
G01*
X177087309Y-99902943D01*
G75*
G02*
X177087309Y-100009009I-53033J-53033D01*
G01*
X176981243Y-100115075D01*
G75*
G02*
X176875177Y-100115075I-53033J53033D01*
G01*
G37*
G36*
G01*
X177228730Y-99761522D02*
X176291814Y-98824606D01*
G75*
G02*
X176291814Y-98718540I53033J53033D01*
G01*
X176397880Y-98612474D01*
G75*
G02*
X176503946Y-98612474I53033J-53033D01*
G01*
X177440862Y-99549390D01*
G75*
G02*
X177440862Y-99655456I-53033J-53033D01*
G01*
X177334796Y-99761522D01*
G75*
G02*
X177228730Y-99761522I-53033J53033D01*
G01*
G37*
G36*
G01*
X177582283Y-99407969D02*
X176645367Y-98471053D01*
G75*
G02*
X176645367Y-98364987I53033J53033D01*
G01*
X176751433Y-98258921D01*
G75*
G02*
X176857499Y-98258921I53033J-53033D01*
G01*
X177794415Y-99195837D01*
G75*
G02*
X177794415Y-99301903I-53033J-53033D01*
G01*
X177688349Y-99407969D01*
G75*
G02*
X177582283Y-99407969I-53033J53033D01*
G01*
G37*
G36*
G01*
X177935837Y-99054415D02*
X176998921Y-98117499D01*
G75*
G02*
X176998921Y-98011433I53033J53033D01*
G01*
X177104987Y-97905367D01*
G75*
G02*
X177211053Y-97905367I53033J-53033D01*
G01*
X178147969Y-98842283D01*
G75*
G02*
X178147969Y-98948349I-53033J-53033D01*
G01*
X178041903Y-99054415D01*
G75*
G02*
X177935837Y-99054415I-53033J53033D01*
G01*
G37*
G36*
G01*
X178289390Y-98700862D02*
X177352474Y-97763946D01*
G75*
G02*
X177352474Y-97657880I53033J53033D01*
G01*
X177458540Y-97551814D01*
G75*
G02*
X177564606Y-97551814I53033J-53033D01*
G01*
X178501522Y-98488730D01*
G75*
G02*
X178501522Y-98594796I-53033J-53033D01*
G01*
X178395456Y-98700862D01*
G75*
G02*
X178289390Y-98700862I-53033J53033D01*
G01*
G37*
G36*
G01*
X178642943Y-98347309D02*
X177706027Y-97410393D01*
G75*
G02*
X177706027Y-97304327I53033J53033D01*
G01*
X177812093Y-97198261D01*
G75*
G02*
X177918159Y-97198261I53033J-53033D01*
G01*
X178855075Y-98135177D01*
G75*
G02*
X178855075Y-98241243I-53033J-53033D01*
G01*
X178749009Y-98347309D01*
G75*
G02*
X178642943Y-98347309I-53033J53033D01*
G01*
G37*
G36*
G01*
X178996497Y-97993755D02*
X178059581Y-97056839D01*
G75*
G02*
X178059581Y-96950773I53033J53033D01*
G01*
X178165647Y-96844707D01*
G75*
G02*
X178271713Y-96844707I53033J-53033D01*
G01*
X179208629Y-97781623D01*
G75*
G02*
X179208629Y-97887689I-53033J-53033D01*
G01*
X179102563Y-97993755D01*
G75*
G02*
X178996497Y-97993755I-53033J53033D01*
G01*
G37*
G36*
G01*
X179350050Y-97640202D02*
X178413134Y-96703286D01*
G75*
G02*
X178413134Y-96597220I53033J53033D01*
G01*
X178519200Y-96491154D01*
G75*
G02*
X178625266Y-96491154I53033J-53033D01*
G01*
X179562182Y-97428070D01*
G75*
G02*
X179562182Y-97534136I-53033J-53033D01*
G01*
X179456116Y-97640202D01*
G75*
G02*
X179350050Y-97640202I-53033J53033D01*
G01*
G37*
G36*
G01*
X179703604Y-97286648D02*
X178766688Y-96349732D01*
G75*
G02*
X178766688Y-96243666I53033J53033D01*
G01*
X178872754Y-96137600D01*
G75*
G02*
X178978820Y-96137600I53033J-53033D01*
G01*
X179915736Y-97074516D01*
G75*
G02*
X179915736Y-97180582I-53033J-53033D01*
G01*
X179809670Y-97286648D01*
G75*
G02*
X179703604Y-97286648I-53033J53033D01*
G01*
G37*
G36*
G01*
X180870330Y-97286648D02*
X180764264Y-97180582D01*
G75*
G02*
X180764264Y-97074516I53033J53033D01*
G01*
X181701180Y-96137600D01*
G75*
G02*
X181807246Y-96137600I53033J-53033D01*
G01*
X181913312Y-96243666D01*
G75*
G02*
X181913312Y-96349732I-53033J-53033D01*
G01*
X180976396Y-97286648D01*
G75*
G02*
X180870330Y-97286648I-53033J53033D01*
G01*
G37*
G36*
G01*
X181223884Y-97640202D02*
X181117818Y-97534136D01*
G75*
G02*
X181117818Y-97428070I53033J53033D01*
G01*
X182054734Y-96491154D01*
G75*
G02*
X182160800Y-96491154I53033J-53033D01*
G01*
X182266866Y-96597220D01*
G75*
G02*
X182266866Y-96703286I-53033J-53033D01*
G01*
X181329950Y-97640202D01*
G75*
G02*
X181223884Y-97640202I-53033J53033D01*
G01*
G37*
G36*
G01*
X181577437Y-97993755D02*
X181471371Y-97887689D01*
G75*
G02*
X181471371Y-97781623I53033J53033D01*
G01*
X182408287Y-96844707D01*
G75*
G02*
X182514353Y-96844707I53033J-53033D01*
G01*
X182620419Y-96950773D01*
G75*
G02*
X182620419Y-97056839I-53033J-53033D01*
G01*
X181683503Y-97993755D01*
G75*
G02*
X181577437Y-97993755I-53033J53033D01*
G01*
G37*
G36*
G01*
X181930991Y-98347309D02*
X181824925Y-98241243D01*
G75*
G02*
X181824925Y-98135177I53033J53033D01*
G01*
X182761841Y-97198261D01*
G75*
G02*
X182867907Y-97198261I53033J-53033D01*
G01*
X182973973Y-97304327D01*
G75*
G02*
X182973973Y-97410393I-53033J-53033D01*
G01*
X182037057Y-98347309D01*
G75*
G02*
X181930991Y-98347309I-53033J53033D01*
G01*
G37*
G36*
G01*
X182284544Y-98700862D02*
X182178478Y-98594796D01*
G75*
G02*
X182178478Y-98488730I53033J53033D01*
G01*
X183115394Y-97551814D01*
G75*
G02*
X183221460Y-97551814I53033J-53033D01*
G01*
X183327526Y-97657880D01*
G75*
G02*
X183327526Y-97763946I-53033J-53033D01*
G01*
X182390610Y-98700862D01*
G75*
G02*
X182284544Y-98700862I-53033J53033D01*
G01*
G37*
G36*
G01*
X182638097Y-99054415D02*
X182532031Y-98948349D01*
G75*
G02*
X182532031Y-98842283I53033J53033D01*
G01*
X183468947Y-97905367D01*
G75*
G02*
X183575013Y-97905367I53033J-53033D01*
G01*
X183681079Y-98011433D01*
G75*
G02*
X183681079Y-98117499I-53033J-53033D01*
G01*
X182744163Y-99054415D01*
G75*
G02*
X182638097Y-99054415I-53033J53033D01*
G01*
G37*
G36*
G01*
X182991651Y-99407969D02*
X182885585Y-99301903D01*
G75*
G02*
X182885585Y-99195837I53033J53033D01*
G01*
X183822501Y-98258921D01*
G75*
G02*
X183928567Y-98258921I53033J-53033D01*
G01*
X184034633Y-98364987D01*
G75*
G02*
X184034633Y-98471053I-53033J-53033D01*
G01*
X183097717Y-99407969D01*
G75*
G02*
X182991651Y-99407969I-53033J53033D01*
G01*
G37*
G36*
G01*
X183345204Y-99761522D02*
X183239138Y-99655456D01*
G75*
G02*
X183239138Y-99549390I53033J53033D01*
G01*
X184176054Y-98612474D01*
G75*
G02*
X184282120Y-98612474I53033J-53033D01*
G01*
X184388186Y-98718540D01*
G75*
G02*
X184388186Y-98824606I-53033J-53033D01*
G01*
X183451270Y-99761522D01*
G75*
G02*
X183345204Y-99761522I-53033J53033D01*
G01*
G37*
G36*
G01*
X183698757Y-100115075D02*
X183592691Y-100009009D01*
G75*
G02*
X183592691Y-99902943I53033J53033D01*
G01*
X184529607Y-98966027D01*
G75*
G02*
X184635673Y-98966027I53033J-53033D01*
G01*
X184741739Y-99072093D01*
G75*
G02*
X184741739Y-99178159I-53033J-53033D01*
G01*
X183804823Y-100115075D01*
G75*
G02*
X183698757Y-100115075I-53033J53033D01*
G01*
G37*
G36*
G01*
X184052311Y-100468629D02*
X183946245Y-100362563D01*
G75*
G02*
X183946245Y-100256497I53033J53033D01*
G01*
X184883161Y-99319581D01*
G75*
G02*
X184989227Y-99319581I53033J-53033D01*
G01*
X185095293Y-99425647D01*
G75*
G02*
X185095293Y-99531713I-53033J-53033D01*
G01*
X184158377Y-100468629D01*
G75*
G02*
X184052311Y-100468629I-53033J53033D01*
G01*
G37*
G36*
G01*
X184405864Y-100822182D02*
X184299798Y-100716116D01*
G75*
G02*
X184299798Y-100610050I53033J53033D01*
G01*
X185236714Y-99673134D01*
G75*
G02*
X185342780Y-99673134I53033J-53033D01*
G01*
X185448846Y-99779200D01*
G75*
G02*
X185448846Y-99885266I-53033J-53033D01*
G01*
X184511930Y-100822182D01*
G75*
G02*
X184405864Y-100822182I-53033J53033D01*
G01*
G37*
G36*
G01*
X184759418Y-101175736D02*
X184653352Y-101069670D01*
G75*
G02*
X184653352Y-100963604I53033J53033D01*
G01*
X185590268Y-100026688D01*
G75*
G02*
X185696334Y-100026688I53033J-53033D01*
G01*
X185802400Y-100132754D01*
G75*
G02*
X185802400Y-100238820I-53033J-53033D01*
G01*
X184865484Y-101175736D01*
G75*
G02*
X184759418Y-101175736I-53033J53033D01*
G01*
G37*
G36*
G01*
X185590268Y-103173312D02*
X184653352Y-102236396D01*
G75*
G02*
X184653352Y-102130330I53033J53033D01*
G01*
X184759418Y-102024264D01*
G75*
G02*
X184865484Y-102024264I53033J-53033D01*
G01*
X185802400Y-102961180D01*
G75*
G02*
X185802400Y-103067246I-53033J-53033D01*
G01*
X185696334Y-103173312D01*
G75*
G02*
X185590268Y-103173312I-53033J53033D01*
G01*
G37*
G36*
G01*
X185236714Y-103526866D02*
X184299798Y-102589950D01*
G75*
G02*
X184299798Y-102483884I53033J53033D01*
G01*
X184405864Y-102377818D01*
G75*
G02*
X184511930Y-102377818I53033J-53033D01*
G01*
X185448846Y-103314734D01*
G75*
G02*
X185448846Y-103420800I-53033J-53033D01*
G01*
X185342780Y-103526866D01*
G75*
G02*
X185236714Y-103526866I-53033J53033D01*
G01*
G37*
G36*
G01*
X184883161Y-103880419D02*
X183946245Y-102943503D01*
G75*
G02*
X183946245Y-102837437I53033J53033D01*
G01*
X184052311Y-102731371D01*
G75*
G02*
X184158377Y-102731371I53033J-53033D01*
G01*
X185095293Y-103668287D01*
G75*
G02*
X185095293Y-103774353I-53033J-53033D01*
G01*
X184989227Y-103880419D01*
G75*
G02*
X184883161Y-103880419I-53033J53033D01*
G01*
G37*
G36*
G01*
X184529607Y-104233973D02*
X183592691Y-103297057D01*
G75*
G02*
X183592691Y-103190991I53033J53033D01*
G01*
X183698757Y-103084925D01*
G75*
G02*
X183804823Y-103084925I53033J-53033D01*
G01*
X184741739Y-104021841D01*
G75*
G02*
X184741739Y-104127907I-53033J-53033D01*
G01*
X184635673Y-104233973D01*
G75*
G02*
X184529607Y-104233973I-53033J53033D01*
G01*
G37*
G36*
G01*
X184176054Y-104587526D02*
X183239138Y-103650610D01*
G75*
G02*
X183239138Y-103544544I53033J53033D01*
G01*
X183345204Y-103438478D01*
G75*
G02*
X183451270Y-103438478I53033J-53033D01*
G01*
X184388186Y-104375394D01*
G75*
G02*
X184388186Y-104481460I-53033J-53033D01*
G01*
X184282120Y-104587526D01*
G75*
G02*
X184176054Y-104587526I-53033J53033D01*
G01*
G37*
G36*
G01*
X183822501Y-104941079D02*
X182885585Y-104004163D01*
G75*
G02*
X182885585Y-103898097I53033J53033D01*
G01*
X182991651Y-103792031D01*
G75*
G02*
X183097717Y-103792031I53033J-53033D01*
G01*
X184034633Y-104728947D01*
G75*
G02*
X184034633Y-104835013I-53033J-53033D01*
G01*
X183928567Y-104941079D01*
G75*
G02*
X183822501Y-104941079I-53033J53033D01*
G01*
G37*
G36*
G01*
X183468947Y-105294633D02*
X182532031Y-104357717D01*
G75*
G02*
X182532031Y-104251651I53033J53033D01*
G01*
X182638097Y-104145585D01*
G75*
G02*
X182744163Y-104145585I53033J-53033D01*
G01*
X183681079Y-105082501D01*
G75*
G02*
X183681079Y-105188567I-53033J-53033D01*
G01*
X183575013Y-105294633D01*
G75*
G02*
X183468947Y-105294633I-53033J53033D01*
G01*
G37*
G36*
G01*
X183115394Y-105648186D02*
X182178478Y-104711270D01*
G75*
G02*
X182178478Y-104605204I53033J53033D01*
G01*
X182284544Y-104499138D01*
G75*
G02*
X182390610Y-104499138I53033J-53033D01*
G01*
X183327526Y-105436054D01*
G75*
G02*
X183327526Y-105542120I-53033J-53033D01*
G01*
X183221460Y-105648186D01*
G75*
G02*
X183115394Y-105648186I-53033J53033D01*
G01*
G37*
G36*
G01*
X182761841Y-106001739D02*
X181824925Y-105064823D01*
G75*
G02*
X181824925Y-104958757I53033J53033D01*
G01*
X181930991Y-104852691D01*
G75*
G02*
X182037057Y-104852691I53033J-53033D01*
G01*
X182973973Y-105789607D01*
G75*
G02*
X182973973Y-105895673I-53033J-53033D01*
G01*
X182867907Y-106001739D01*
G75*
G02*
X182761841Y-106001739I-53033J53033D01*
G01*
G37*
G36*
G01*
X182408287Y-106355293D02*
X181471371Y-105418377D01*
G75*
G02*
X181471371Y-105312311I53033J53033D01*
G01*
X181577437Y-105206245D01*
G75*
G02*
X181683503Y-105206245I53033J-53033D01*
G01*
X182620419Y-106143161D01*
G75*
G02*
X182620419Y-106249227I-53033J-53033D01*
G01*
X182514353Y-106355293D01*
G75*
G02*
X182408287Y-106355293I-53033J53033D01*
G01*
G37*
G36*
G01*
X182054734Y-106708846D02*
X181117818Y-105771930D01*
G75*
G02*
X181117818Y-105665864I53033J53033D01*
G01*
X181223884Y-105559798D01*
G75*
G02*
X181329950Y-105559798I53033J-53033D01*
G01*
X182266866Y-106496714D01*
G75*
G02*
X182266866Y-106602780I-53033J-53033D01*
G01*
X182160800Y-106708846D01*
G75*
G02*
X182054734Y-106708846I-53033J53033D01*
G01*
G37*
G36*
G01*
X181701180Y-107062400D02*
X180764264Y-106125484D01*
G75*
G02*
X180764264Y-106019418I53033J53033D01*
G01*
X180870330Y-105913352D01*
G75*
G02*
X180976396Y-105913352I53033J-53033D01*
G01*
X181913312Y-106850268D01*
G75*
G02*
X181913312Y-106956334I-53033J-53033D01*
G01*
X181807246Y-107062400D01*
G75*
G02*
X181701180Y-107062400I-53033J53033D01*
G01*
G37*
G36*
G01*
X178872754Y-107062400D02*
X178766688Y-106956334D01*
G75*
G02*
X178766688Y-106850268I53033J53033D01*
G01*
X179703604Y-105913352D01*
G75*
G02*
X179809670Y-105913352I53033J-53033D01*
G01*
X179915736Y-106019418D01*
G75*
G02*
X179915736Y-106125484I-53033J-53033D01*
G01*
X178978820Y-107062400D01*
G75*
G02*
X178872754Y-107062400I-53033J53033D01*
G01*
G37*
G36*
G01*
X178519200Y-106708846D02*
X178413134Y-106602780D01*
G75*
G02*
X178413134Y-106496714I53033J53033D01*
G01*
X179350050Y-105559798D01*
G75*
G02*
X179456116Y-105559798I53033J-53033D01*
G01*
X179562182Y-105665864D01*
G75*
G02*
X179562182Y-105771930I-53033J-53033D01*
G01*
X178625266Y-106708846D01*
G75*
G02*
X178519200Y-106708846I-53033J53033D01*
G01*
G37*
G36*
G01*
X178165647Y-106355293D02*
X178059581Y-106249227D01*
G75*
G02*
X178059581Y-106143161I53033J53033D01*
G01*
X178996497Y-105206245D01*
G75*
G02*
X179102563Y-105206245I53033J-53033D01*
G01*
X179208629Y-105312311D01*
G75*
G02*
X179208629Y-105418377I-53033J-53033D01*
G01*
X178271713Y-106355293D01*
G75*
G02*
X178165647Y-106355293I-53033J53033D01*
G01*
G37*
G36*
G01*
X177812093Y-106001739D02*
X177706027Y-105895673D01*
G75*
G02*
X177706027Y-105789607I53033J53033D01*
G01*
X178642943Y-104852691D01*
G75*
G02*
X178749009Y-104852691I53033J-53033D01*
G01*
X178855075Y-104958757D01*
G75*
G02*
X178855075Y-105064823I-53033J-53033D01*
G01*
X177918159Y-106001739D01*
G75*
G02*
X177812093Y-106001739I-53033J53033D01*
G01*
G37*
G36*
G01*
X177458540Y-105648186D02*
X177352474Y-105542120D01*
G75*
G02*
X177352474Y-105436054I53033J53033D01*
G01*
X178289390Y-104499138D01*
G75*
G02*
X178395456Y-104499138I53033J-53033D01*
G01*
X178501522Y-104605204D01*
G75*
G02*
X178501522Y-104711270I-53033J-53033D01*
G01*
X177564606Y-105648186D01*
G75*
G02*
X177458540Y-105648186I-53033J53033D01*
G01*
G37*
G36*
G01*
X177104987Y-105294633D02*
X176998921Y-105188567D01*
G75*
G02*
X176998921Y-105082501I53033J53033D01*
G01*
X177935837Y-104145585D01*
G75*
G02*
X178041903Y-104145585I53033J-53033D01*
G01*
X178147969Y-104251651D01*
G75*
G02*
X178147969Y-104357717I-53033J-53033D01*
G01*
X177211053Y-105294633D01*
G75*
G02*
X177104987Y-105294633I-53033J53033D01*
G01*
G37*
G36*
G01*
X176751433Y-104941079D02*
X176645367Y-104835013D01*
G75*
G02*
X176645367Y-104728947I53033J53033D01*
G01*
X177582283Y-103792031D01*
G75*
G02*
X177688349Y-103792031I53033J-53033D01*
G01*
X177794415Y-103898097D01*
G75*
G02*
X177794415Y-104004163I-53033J-53033D01*
G01*
X176857499Y-104941079D01*
G75*
G02*
X176751433Y-104941079I-53033J53033D01*
G01*
G37*
G36*
G01*
X176397880Y-104587526D02*
X176291814Y-104481460D01*
G75*
G02*
X176291814Y-104375394I53033J53033D01*
G01*
X177228730Y-103438478D01*
G75*
G02*
X177334796Y-103438478I53033J-53033D01*
G01*
X177440862Y-103544544D01*
G75*
G02*
X177440862Y-103650610I-53033J-53033D01*
G01*
X176503946Y-104587526D01*
G75*
G02*
X176397880Y-104587526I-53033J53033D01*
G01*
G37*
G36*
G01*
X176044327Y-104233973D02*
X175938261Y-104127907D01*
G75*
G02*
X175938261Y-104021841I53033J53033D01*
G01*
X176875177Y-103084925D01*
G75*
G02*
X176981243Y-103084925I53033J-53033D01*
G01*
X177087309Y-103190991D01*
G75*
G02*
X177087309Y-103297057I-53033J-53033D01*
G01*
X176150393Y-104233973D01*
G75*
G02*
X176044327Y-104233973I-53033J53033D01*
G01*
G37*
G36*
G01*
X175690773Y-103880419D02*
X175584707Y-103774353D01*
G75*
G02*
X175584707Y-103668287I53033J53033D01*
G01*
X176521623Y-102731371D01*
G75*
G02*
X176627689Y-102731371I53033J-53033D01*
G01*
X176733755Y-102837437D01*
G75*
G02*
X176733755Y-102943503I-53033J-53033D01*
G01*
X175796839Y-103880419D01*
G75*
G02*
X175690773Y-103880419I-53033J53033D01*
G01*
G37*
G36*
G01*
X175337220Y-103526866D02*
X175231154Y-103420800D01*
G75*
G02*
X175231154Y-103314734I53033J53033D01*
G01*
X176168070Y-102377818D01*
G75*
G02*
X176274136Y-102377818I53033J-53033D01*
G01*
X176380202Y-102483884D01*
G75*
G02*
X176380202Y-102589950I-53033J-53033D01*
G01*
X175443286Y-103526866D01*
G75*
G02*
X175337220Y-103526866I-53033J53033D01*
G01*
G37*
G36*
G01*
X174983666Y-103173312D02*
X174877600Y-103067246D01*
G75*
G02*
X174877600Y-102961180I53033J53033D01*
G01*
X175814516Y-102024264D01*
G75*
G02*
X175920582Y-102024264I53033J-53033D01*
G01*
X176026648Y-102130330D01*
G75*
G02*
X176026648Y-102236396I-53033J-53033D01*
G01*
X175089732Y-103173312D01*
G75*
G02*
X174983666Y-103173312I-53033J53033D01*
G01*
G37*
%TD*%
%TO.C,C3*%
G36*
G01*
X189608750Y-105125000D02*
X190121250Y-105125000D01*
G75*
G02*
X190340000Y-105343750I0J-218750D01*
G01*
X190340000Y-105781250D01*
G75*
G02*
X190121250Y-106000000I-218750J0D01*
G01*
X189608750Y-106000000D01*
G75*
G02*
X189390000Y-105781250I0J218750D01*
G01*
X189390000Y-105343750D01*
G75*
G02*
X189608750Y-105125000I218750J0D01*
G01*
G37*
G36*
G01*
X189608750Y-103550000D02*
X190121250Y-103550000D01*
G75*
G02*
X190340000Y-103768750I0J-218750D01*
G01*
X190340000Y-104206250D01*
G75*
G02*
X190121250Y-104425000I-218750J0D01*
G01*
X189608750Y-104425000D01*
G75*
G02*
X189390000Y-104206250I0J218750D01*
G01*
X189390000Y-103768750D01*
G75*
G02*
X189608750Y-103550000I218750J0D01*
G01*
G37*
%TD*%
%TO.C,C1*%
G36*
G01*
X195201250Y-104425000D02*
X194688750Y-104425000D01*
G75*
G02*
X194470000Y-104206250I0J218750D01*
G01*
X194470000Y-103768750D01*
G75*
G02*
X194688750Y-103550000I218750J0D01*
G01*
X195201250Y-103550000D01*
G75*
G02*
X195420000Y-103768750I0J-218750D01*
G01*
X195420000Y-104206250D01*
G75*
G02*
X195201250Y-104425000I-218750J0D01*
G01*
G37*
G36*
G01*
X195201250Y-106000000D02*
X194688750Y-106000000D01*
G75*
G02*
X194470000Y-105781250I0J218750D01*
G01*
X194470000Y-105343750D01*
G75*
G02*
X194688750Y-105125000I218750J0D01*
G01*
X195201250Y-105125000D01*
G75*
G02*
X195420000Y-105343750I0J-218750D01*
G01*
X195420000Y-105781250D01*
G75*
G02*
X195201250Y-106000000I-218750J0D01*
G01*
G37*
%TD*%
%TO.C,R5*%
G36*
G01*
X156020000Y-96347500D02*
X156020000Y-96692500D01*
G75*
G02*
X155872500Y-96840000I-147500J0D01*
G01*
X155577500Y-96840000D01*
G75*
G02*
X155430000Y-96692500I0J147500D01*
G01*
X155430000Y-96347500D01*
G75*
G02*
X155577500Y-96200000I147500J0D01*
G01*
X155872500Y-96200000D01*
G75*
G02*
X156020000Y-96347500I0J-147500D01*
G01*
G37*
G36*
G01*
X156990000Y-96347500D02*
X156990000Y-96692500D01*
G75*
G02*
X156842500Y-96840000I-147500J0D01*
G01*
X156547500Y-96840000D01*
G75*
G02*
X156400000Y-96692500I0J147500D01*
G01*
X156400000Y-96347500D01*
G75*
G02*
X156547500Y-96200000I147500J0D01*
G01*
X156842500Y-96200000D01*
G75*
G02*
X156990000Y-96347500I0J-147500D01*
G01*
G37*
%TD*%
%TO.C,R8*%
G36*
G01*
X189040000Y-98887500D02*
X189040000Y-99232500D01*
G75*
G02*
X188892500Y-99380000I-147500J0D01*
G01*
X188597500Y-99380000D01*
G75*
G02*
X188450000Y-99232500I0J147500D01*
G01*
X188450000Y-98887500D01*
G75*
G02*
X188597500Y-98740000I147500J0D01*
G01*
X188892500Y-98740000D01*
G75*
G02*
X189040000Y-98887500I0J-147500D01*
G01*
G37*
G36*
G01*
X190010000Y-98887500D02*
X190010000Y-99232500D01*
G75*
G02*
X189862500Y-99380000I-147500J0D01*
G01*
X189567500Y-99380000D01*
G75*
G02*
X189420000Y-99232500I0J147500D01*
G01*
X189420000Y-98887500D01*
G75*
G02*
X189567500Y-98740000I147500J0D01*
G01*
X189862500Y-98740000D01*
G75*
G02*
X190010000Y-98887500I0J-147500D01*
G01*
G37*
%TD*%
%TO.C,R4*%
G36*
G01*
X200850000Y-103042500D02*
X200850000Y-102697500D01*
G75*
G02*
X200997500Y-102550000I147500J0D01*
G01*
X201292500Y-102550000D01*
G75*
G02*
X201440000Y-102697500I0J-147500D01*
G01*
X201440000Y-103042500D01*
G75*
G02*
X201292500Y-103190000I-147500J0D01*
G01*
X200997500Y-103190000D01*
G75*
G02*
X200850000Y-103042500I0J147500D01*
G01*
G37*
G36*
G01*
X199880000Y-103042500D02*
X199880000Y-102697500D01*
G75*
G02*
X200027500Y-102550000I147500J0D01*
G01*
X200322500Y-102550000D01*
G75*
G02*
X200470000Y-102697500I0J-147500D01*
G01*
X200470000Y-103042500D01*
G75*
G02*
X200322500Y-103190000I-147500J0D01*
G01*
X200027500Y-103190000D01*
G75*
G02*
X199880000Y-103042500I0J147500D01*
G01*
G37*
%TD*%
%TO.C,R3*%
G36*
G01*
X200850000Y-101772500D02*
X200850000Y-101427500D01*
G75*
G02*
X200997500Y-101280000I147500J0D01*
G01*
X201292500Y-101280000D01*
G75*
G02*
X201440000Y-101427500I0J-147500D01*
G01*
X201440000Y-101772500D01*
G75*
G02*
X201292500Y-101920000I-147500J0D01*
G01*
X200997500Y-101920000D01*
G75*
G02*
X200850000Y-101772500I0J147500D01*
G01*
G37*
G36*
G01*
X199880000Y-101772500D02*
X199880000Y-101427500D01*
G75*
G02*
X200027500Y-101280000I147500J0D01*
G01*
X200322500Y-101280000D01*
G75*
G02*
X200470000Y-101427500I0J-147500D01*
G01*
X200470000Y-101772500D01*
G75*
G02*
X200322500Y-101920000I-147500J0D01*
G01*
X200027500Y-101920000D01*
G75*
G02*
X199880000Y-101772500I0J147500D01*
G01*
G37*
%TD*%
%TO.C,R2*%
G36*
G01*
X200850000Y-100502500D02*
X200850000Y-100157500D01*
G75*
G02*
X200997500Y-100010000I147500J0D01*
G01*
X201292500Y-100010000D01*
G75*
G02*
X201440000Y-100157500I0J-147500D01*
G01*
X201440000Y-100502500D01*
G75*
G02*
X201292500Y-100650000I-147500J0D01*
G01*
X200997500Y-100650000D01*
G75*
G02*
X200850000Y-100502500I0J147500D01*
G01*
G37*
G36*
G01*
X199880000Y-100502500D02*
X199880000Y-100157500D01*
G75*
G02*
X200027500Y-100010000I147500J0D01*
G01*
X200322500Y-100010000D01*
G75*
G02*
X200470000Y-100157500I0J-147500D01*
G01*
X200470000Y-100502500D01*
G75*
G02*
X200322500Y-100650000I-147500J0D01*
G01*
X200027500Y-100650000D01*
G75*
G02*
X199880000Y-100502500I0J147500D01*
G01*
G37*
%TD*%
D10*
%TO.C,SW1*%
X165075000Y-106675000D03*
X158775000Y-106675000D03*
X165075000Y-102875000D03*
X158775000Y-102875000D03*
%TD*%
%TO.C,SW2*%
X165075000Y-100325000D03*
X158775000Y-100325000D03*
X165075000Y-96525000D03*
X158775000Y-96525000D03*
%TD*%
D11*
%TO.C,U1*%
X192405000Y-105775000D03*
X191455000Y-103775000D03*
X193355000Y-103775000D03*
%TD*%
%TO.C,R7*%
G36*
G01*
X200850000Y-99232500D02*
X200850000Y-98887500D01*
G75*
G02*
X200997500Y-98740000I147500J0D01*
G01*
X201292500Y-98740000D01*
G75*
G02*
X201440000Y-98887500I0J-147500D01*
G01*
X201440000Y-99232500D01*
G75*
G02*
X201292500Y-99380000I-147500J0D01*
G01*
X200997500Y-99380000D01*
G75*
G02*
X200850000Y-99232500I0J147500D01*
G01*
G37*
G36*
G01*
X199880000Y-99232500D02*
X199880000Y-98887500D01*
G75*
G02*
X200027500Y-98740000I147500J0D01*
G01*
X200322500Y-98740000D01*
G75*
G02*
X200470000Y-98887500I0J-147500D01*
G01*
X200470000Y-99232500D01*
G75*
G02*
X200322500Y-99380000I-147500J0D01*
G01*
X200027500Y-99380000D01*
G75*
G02*
X199880000Y-99232500I0J147500D01*
G01*
G37*
%TD*%
%TO.C,C11*%
G36*
G01*
X167812500Y-98235000D02*
X167467500Y-98235000D01*
G75*
G02*
X167320000Y-98087500I0J147500D01*
G01*
X167320000Y-97792500D01*
G75*
G02*
X167467500Y-97645000I147500J0D01*
G01*
X167812500Y-97645000D01*
G75*
G02*
X167960000Y-97792500I0J-147500D01*
G01*
X167960000Y-98087500D01*
G75*
G02*
X167812500Y-98235000I-147500J0D01*
G01*
G37*
G36*
G01*
X167812500Y-99205000D02*
X167467500Y-99205000D01*
G75*
G02*
X167320000Y-99057500I0J147500D01*
G01*
X167320000Y-98762500D01*
G75*
G02*
X167467500Y-98615000I147500J0D01*
G01*
X167812500Y-98615000D01*
G75*
G02*
X167960000Y-98762500I0J-147500D01*
G01*
X167960000Y-99057500D01*
G75*
G02*
X167812500Y-99205000I-147500J0D01*
G01*
G37*
%TD*%
%TO.C,C10*%
G36*
G01*
X172892500Y-98235000D02*
X172547500Y-98235000D01*
G75*
G02*
X172400000Y-98087500I0J147500D01*
G01*
X172400000Y-97792500D01*
G75*
G02*
X172547500Y-97645000I147500J0D01*
G01*
X172892500Y-97645000D01*
G75*
G02*
X173040000Y-97792500I0J-147500D01*
G01*
X173040000Y-98087500D01*
G75*
G02*
X172892500Y-98235000I-147500J0D01*
G01*
G37*
G36*
G01*
X172892500Y-99205000D02*
X172547500Y-99205000D01*
G75*
G02*
X172400000Y-99057500I0J147500D01*
G01*
X172400000Y-98762500D01*
G75*
G02*
X172547500Y-98615000I147500J0D01*
G01*
X172892500Y-98615000D01*
G75*
G02*
X173040000Y-98762500I0J-147500D01*
G01*
X173040000Y-99057500D01*
G75*
G02*
X172892500Y-99205000I-147500J0D01*
G01*
G37*
%TD*%
D12*
%TO.C,Y2*%
X168930000Y-98425000D03*
X171430000Y-98425000D03*
%TD*%
D13*
%TO.C,Y1*%
X170180000Y-105555000D03*
X170180000Y-101455000D03*
%TD*%
%TO.C,C9*%
G36*
G01*
X167812500Y-105220000D02*
X167467500Y-105220000D01*
G75*
G02*
X167320000Y-105072500I0J147500D01*
G01*
X167320000Y-104777500D01*
G75*
G02*
X167467500Y-104630000I147500J0D01*
G01*
X167812500Y-104630000D01*
G75*
G02*
X167960000Y-104777500I0J-147500D01*
G01*
X167960000Y-105072500D01*
G75*
G02*
X167812500Y-105220000I-147500J0D01*
G01*
G37*
G36*
G01*
X167812500Y-106190000D02*
X167467500Y-106190000D01*
G75*
G02*
X167320000Y-106042500I0J147500D01*
G01*
X167320000Y-105747500D01*
G75*
G02*
X167467500Y-105600000I147500J0D01*
G01*
X167812500Y-105600000D01*
G75*
G02*
X167960000Y-105747500I0J-147500D01*
G01*
X167960000Y-106042500D01*
G75*
G02*
X167812500Y-106190000I-147500J0D01*
G01*
G37*
%TD*%
%TO.C,C8*%
G36*
G01*
X167467500Y-101790000D02*
X167812500Y-101790000D01*
G75*
G02*
X167960000Y-101937500I0J-147500D01*
G01*
X167960000Y-102232500D01*
G75*
G02*
X167812500Y-102380000I-147500J0D01*
G01*
X167467500Y-102380000D01*
G75*
G02*
X167320000Y-102232500I0J147500D01*
G01*
X167320000Y-101937500D01*
G75*
G02*
X167467500Y-101790000I147500J0D01*
G01*
G37*
G36*
G01*
X167467500Y-100820000D02*
X167812500Y-100820000D01*
G75*
G02*
X167960000Y-100967500I0J-147500D01*
G01*
X167960000Y-101262500D01*
G75*
G02*
X167812500Y-101410000I-147500J0D01*
G01*
X167467500Y-101410000D01*
G75*
G02*
X167320000Y-101262500I0J147500D01*
G01*
X167320000Y-100967500D01*
G75*
G02*
X167467500Y-100820000I147500J0D01*
G01*
G37*
%TD*%
%TO.C,R6*%
G36*
G01*
X200850000Y-104312500D02*
X200850000Y-103967500D01*
G75*
G02*
X200997500Y-103820000I147500J0D01*
G01*
X201292500Y-103820000D01*
G75*
G02*
X201440000Y-103967500I0J-147500D01*
G01*
X201440000Y-104312500D01*
G75*
G02*
X201292500Y-104460000I-147500J0D01*
G01*
X200997500Y-104460000D01*
G75*
G02*
X200850000Y-104312500I0J147500D01*
G01*
G37*
G36*
G01*
X199880000Y-104312500D02*
X199880000Y-103967500D01*
G75*
G02*
X200027500Y-103820000I147500J0D01*
G01*
X200322500Y-103820000D01*
G75*
G02*
X200470000Y-103967500I0J-147500D01*
G01*
X200470000Y-104312500D01*
G75*
G02*
X200322500Y-104460000I-147500J0D01*
G01*
X200027500Y-104460000D01*
G75*
G02*
X199880000Y-104312500I0J147500D01*
G01*
G37*
%TD*%
%TO.C,R9*%
G36*
G01*
X189040000Y-100792500D02*
X189040000Y-101137500D01*
G75*
G02*
X188892500Y-101285000I-147500J0D01*
G01*
X188597500Y-101285000D01*
G75*
G02*
X188450000Y-101137500I0J147500D01*
G01*
X188450000Y-100792500D01*
G75*
G02*
X188597500Y-100645000I147500J0D01*
G01*
X188892500Y-100645000D01*
G75*
G02*
X189040000Y-100792500I0J-147500D01*
G01*
G37*
G36*
G01*
X190010000Y-100792500D02*
X190010000Y-101137500D01*
G75*
G02*
X189862500Y-101285000I-147500J0D01*
G01*
X189567500Y-101285000D01*
G75*
G02*
X189420000Y-101137500I0J147500D01*
G01*
X189420000Y-100792500D01*
G75*
G02*
X189567500Y-100645000I147500J0D01*
G01*
X189862500Y-100645000D01*
G75*
G02*
X190010000Y-100792500I0J-147500D01*
G01*
G37*
%TD*%
%TO.C,R1*%
G36*
G01*
X153860000Y-106852500D02*
X153860000Y-106507500D01*
G75*
G02*
X154007500Y-106360000I147500J0D01*
G01*
X154302500Y-106360000D01*
G75*
G02*
X154450000Y-106507500I0J-147500D01*
G01*
X154450000Y-106852500D01*
G75*
G02*
X154302500Y-107000000I-147500J0D01*
G01*
X154007500Y-107000000D01*
G75*
G02*
X153860000Y-106852500I0J147500D01*
G01*
G37*
G36*
G01*
X152890000Y-106852500D02*
X152890000Y-106507500D01*
G75*
G02*
X153037500Y-106360000I147500J0D01*
G01*
X153332500Y-106360000D01*
G75*
G02*
X153480000Y-106507500I0J-147500D01*
G01*
X153480000Y-106852500D01*
G75*
G02*
X153332500Y-107000000I-147500J0D01*
G01*
X153037500Y-107000000D01*
G75*
G02*
X152890000Y-106852500I0J147500D01*
G01*
G37*
%TD*%
%TO.C,D3*%
G36*
G01*
X192120000Y-101221250D02*
X192120000Y-100708750D01*
G75*
G02*
X192338750Y-100490000I218750J0D01*
G01*
X192776250Y-100490000D01*
G75*
G02*
X192995000Y-100708750I0J-218750D01*
G01*
X192995000Y-101221250D01*
G75*
G02*
X192776250Y-101440000I-218750J0D01*
G01*
X192338750Y-101440000D01*
G75*
G02*
X192120000Y-101221250I0J218750D01*
G01*
G37*
G36*
G01*
X190545000Y-101221250D02*
X190545000Y-100708750D01*
G75*
G02*
X190763750Y-100490000I218750J0D01*
G01*
X191201250Y-100490000D01*
G75*
G02*
X191420000Y-100708750I0J-218750D01*
G01*
X191420000Y-101221250D01*
G75*
G02*
X191201250Y-101440000I-218750J0D01*
G01*
X190763750Y-101440000D01*
G75*
G02*
X190545000Y-101221250I0J218750D01*
G01*
G37*
%TD*%
%TO.C,D2*%
G36*
G01*
X192120000Y-99316250D02*
X192120000Y-98803750D01*
G75*
G02*
X192338750Y-98585000I218750J0D01*
G01*
X192776250Y-98585000D01*
G75*
G02*
X192995000Y-98803750I0J-218750D01*
G01*
X192995000Y-99316250D01*
G75*
G02*
X192776250Y-99535000I-218750J0D01*
G01*
X192338750Y-99535000D01*
G75*
G02*
X192120000Y-99316250I0J218750D01*
G01*
G37*
G36*
G01*
X190545000Y-99316250D02*
X190545000Y-98803750D01*
G75*
G02*
X190763750Y-98585000I218750J0D01*
G01*
X191201250Y-98585000D01*
G75*
G02*
X191420000Y-98803750I0J-218750D01*
G01*
X191420000Y-99316250D01*
G75*
G02*
X191201250Y-99535000I-218750J0D01*
G01*
X190763750Y-99535000D01*
G75*
G02*
X190545000Y-99316250I0J218750D01*
G01*
G37*
%TD*%
%TO.C,C2*%
G36*
G01*
X156400000Y-106852500D02*
X156400000Y-106507500D01*
G75*
G02*
X156547500Y-106360000I147500J0D01*
G01*
X156842500Y-106360000D01*
G75*
G02*
X156990000Y-106507500I0J-147500D01*
G01*
X156990000Y-106852500D01*
G75*
G02*
X156842500Y-107000000I-147500J0D01*
G01*
X156547500Y-107000000D01*
G75*
G02*
X156400000Y-106852500I0J147500D01*
G01*
G37*
G36*
G01*
X155430000Y-106852500D02*
X155430000Y-106507500D01*
G75*
G02*
X155577500Y-106360000I147500J0D01*
G01*
X155872500Y-106360000D01*
G75*
G02*
X156020000Y-106507500I0J-147500D01*
G01*
X156020000Y-106852500D01*
G75*
G02*
X155872500Y-107000000I-147500J0D01*
G01*
X155577500Y-107000000D01*
G75*
G02*
X155430000Y-106852500I0J147500D01*
G01*
G37*
%TD*%
D14*
%TO.C,D1*%
X194945000Y-98045000D03*
X194945000Y-101345000D03*
%TD*%
%TO.C,C7*%
G36*
G01*
X174416500Y-101410000D02*
X174071500Y-101410000D01*
G75*
G02*
X173924000Y-101262500I0J147500D01*
G01*
X173924000Y-100967500D01*
G75*
G02*
X174071500Y-100820000I147500J0D01*
G01*
X174416500Y-100820000D01*
G75*
G02*
X174564000Y-100967500I0J-147500D01*
G01*
X174564000Y-101262500D01*
G75*
G02*
X174416500Y-101410000I-147500J0D01*
G01*
G37*
G36*
G01*
X174416500Y-102380000D02*
X174071500Y-102380000D01*
G75*
G02*
X173924000Y-102232500I0J147500D01*
G01*
X173924000Y-101937500D01*
G75*
G02*
X174071500Y-101790000I147500J0D01*
G01*
X174416500Y-101790000D01*
G75*
G02*
X174564000Y-101937500I0J-147500D01*
G01*
X174564000Y-102232500D01*
G75*
G02*
X174416500Y-102380000I-147500J0D01*
G01*
G37*
%TD*%
%TO.C,C6*%
G36*
G01*
X175705000Y-105872500D02*
X175705000Y-106217500D01*
G75*
G02*
X175557500Y-106365000I-147500J0D01*
G01*
X175262500Y-106365000D01*
G75*
G02*
X175115000Y-106217500I0J147500D01*
G01*
X175115000Y-105872500D01*
G75*
G02*
X175262500Y-105725000I147500J0D01*
G01*
X175557500Y-105725000D01*
G75*
G02*
X175705000Y-105872500I0J-147500D01*
G01*
G37*
G36*
G01*
X176675000Y-105872500D02*
X176675000Y-106217500D01*
G75*
G02*
X176527500Y-106365000I-147500J0D01*
G01*
X176232500Y-106365000D01*
G75*
G02*
X176085000Y-106217500I0J147500D01*
G01*
X176085000Y-105872500D01*
G75*
G02*
X176232500Y-105725000I147500J0D01*
G01*
X176527500Y-105725000D01*
G75*
G02*
X176675000Y-105872500I0J-147500D01*
G01*
G37*
%TD*%
%TO.C,C5*%
G36*
G01*
X180150000Y-95331500D02*
X180150000Y-95676500D01*
G75*
G02*
X180002500Y-95824000I-147500J0D01*
G01*
X179707500Y-95824000D01*
G75*
G02*
X179560000Y-95676500I0J147500D01*
G01*
X179560000Y-95331500D01*
G75*
G02*
X179707500Y-95184000I147500J0D01*
G01*
X180002500Y-95184000D01*
G75*
G02*
X180150000Y-95331500I0J-147500D01*
G01*
G37*
G36*
G01*
X181120000Y-95331500D02*
X181120000Y-95676500D01*
G75*
G02*
X180972500Y-95824000I-147500J0D01*
G01*
X180677500Y-95824000D01*
G75*
G02*
X180530000Y-95676500I0J147500D01*
G01*
X180530000Y-95331500D01*
G75*
G02*
X180677500Y-95184000I147500J0D01*
G01*
X180972500Y-95184000D01*
G75*
G02*
X181120000Y-95331500I0J-147500D01*
G01*
G37*
%TD*%
%TO.C,C4*%
G36*
G01*
X187497500Y-100140000D02*
X187152500Y-100140000D01*
G75*
G02*
X187005000Y-99992500I0J147500D01*
G01*
X187005000Y-99697500D01*
G75*
G02*
X187152500Y-99550000I147500J0D01*
G01*
X187497500Y-99550000D01*
G75*
G02*
X187645000Y-99697500I0J-147500D01*
G01*
X187645000Y-99992500D01*
G75*
G02*
X187497500Y-100140000I-147500J0D01*
G01*
G37*
G36*
G01*
X187497500Y-101110000D02*
X187152500Y-101110000D01*
G75*
G02*
X187005000Y-100962500I0J147500D01*
G01*
X187005000Y-100667500D01*
G75*
G02*
X187152500Y-100520000I147500J0D01*
G01*
X187497500Y-100520000D01*
G75*
G02*
X187645000Y-100667500I0J-147500D01*
G01*
X187645000Y-100962500D01*
G75*
G02*
X187497500Y-101110000I-147500J0D01*
G01*
G37*
%TD*%
M02*
