%TF.GenerationSoftware,KiCad,Pcbnew,5.1.7+dfsg1-1*%
%TF.CreationDate,2020-10-11T16:52:52+08:00*%
%TF.ProjectId,gp,67702e6b-6963-4616-945f-706362585858,c*%
%TF.SameCoordinates,Original*%
%TF.FileFunction,Legend,Top*%
%TF.FilePolarity,Positive*%
%FSLAX46Y46*%
G04 Gerber Fmt 4.6, Leading zero omitted, Abs format (unit mm)*
G04 Created by KiCad (PCBNEW 5.1.7+dfsg1-1) date 2020-10-11 16:52:52*
%MOMM*%
%LPD*%
G01*
G04 APERTURE LIST*
%ADD10C,0.150000*%
%ADD11C,0.120000*%
G04 APERTURE END LIST*
D10*
X166096904Y-105213095D02*
X165715952Y-105479761D01*
X166096904Y-105670238D02*
X165296904Y-105670238D01*
X165296904Y-105365476D01*
X165335000Y-105289285D01*
X165373095Y-105251190D01*
X165449285Y-105213095D01*
X165563571Y-105213095D01*
X165639761Y-105251190D01*
X165677857Y-105289285D01*
X165715952Y-105365476D01*
X165715952Y-105670238D01*
X166058809Y-104908333D02*
X166096904Y-104794047D01*
X166096904Y-104603571D01*
X166058809Y-104527380D01*
X166020714Y-104489285D01*
X165944523Y-104451190D01*
X165868333Y-104451190D01*
X165792142Y-104489285D01*
X165754047Y-104527380D01*
X165715952Y-104603571D01*
X165677857Y-104755952D01*
X165639761Y-104832142D01*
X165601666Y-104870238D01*
X165525476Y-104908333D01*
X165449285Y-104908333D01*
X165373095Y-104870238D01*
X165335000Y-104832142D01*
X165296904Y-104755952D01*
X165296904Y-104565476D01*
X165335000Y-104451190D01*
X165296904Y-104222619D02*
X165296904Y-103765476D01*
X166096904Y-103994047D02*
X165296904Y-103994047D01*
X165677857Y-98748809D02*
X165715952Y-98634523D01*
X165754047Y-98596428D01*
X165830238Y-98558333D01*
X165944523Y-98558333D01*
X166020714Y-98596428D01*
X166058809Y-98634523D01*
X166096904Y-98710714D01*
X166096904Y-99015476D01*
X165296904Y-99015476D01*
X165296904Y-98748809D01*
X165335000Y-98672619D01*
X165373095Y-98634523D01*
X165449285Y-98596428D01*
X165525476Y-98596428D01*
X165601666Y-98634523D01*
X165639761Y-98672619D01*
X165677857Y-98748809D01*
X165677857Y-99015476D01*
X165296904Y-98063095D02*
X165296904Y-97986904D01*
X165335000Y-97910714D01*
X165373095Y-97872619D01*
X165449285Y-97834523D01*
X165601666Y-97796428D01*
X165792142Y-97796428D01*
X165944523Y-97834523D01*
X166020714Y-97872619D01*
X166058809Y-97910714D01*
X166096904Y-97986904D01*
X166096904Y-98063095D01*
X166058809Y-98139285D01*
X166020714Y-98177380D01*
X165944523Y-98215476D01*
X165792142Y-98253571D01*
X165601666Y-98253571D01*
X165449285Y-98215476D01*
X165373095Y-98177380D01*
X165335000Y-98139285D01*
X165296904Y-98063095D01*
X153060476Y-92056000D02*
X152984285Y-92017904D01*
X152870000Y-92017904D01*
X152755714Y-92056000D01*
X152679523Y-92132190D01*
X152641428Y-92208380D01*
X152603333Y-92360761D01*
X152603333Y-92475047D01*
X152641428Y-92627428D01*
X152679523Y-92703619D01*
X152755714Y-92779809D01*
X152870000Y-92817904D01*
X152946190Y-92817904D01*
X153060476Y-92779809D01*
X153098571Y-92741714D01*
X153098571Y-92475047D01*
X152946190Y-92475047D01*
X153441428Y-92817904D02*
X153441428Y-92017904D01*
X153898571Y-92817904D01*
X153898571Y-92017904D01*
X154279523Y-92817904D02*
X154279523Y-92017904D01*
X154470000Y-92017904D01*
X154584285Y-92056000D01*
X154660476Y-92132190D01*
X154698571Y-92208380D01*
X154736666Y-92360761D01*
X154736666Y-92475047D01*
X154698571Y-92627428D01*
X154660476Y-92703619D01*
X154584285Y-92779809D01*
X154470000Y-92817904D01*
X154279523Y-92817904D01*
X155771904Y-92817904D02*
X155505238Y-92436952D01*
X155314761Y-92817904D02*
X155314761Y-92017904D01*
X155619523Y-92017904D01*
X155695714Y-92056000D01*
X155733809Y-92094095D01*
X155771904Y-92170285D01*
X155771904Y-92284571D01*
X155733809Y-92360761D01*
X155695714Y-92398857D01*
X155619523Y-92436952D01*
X155314761Y-92436952D01*
X156076666Y-92779809D02*
X156190952Y-92817904D01*
X156381428Y-92817904D01*
X156457619Y-92779809D01*
X156495714Y-92741714D01*
X156533809Y-92665523D01*
X156533809Y-92589333D01*
X156495714Y-92513142D01*
X156457619Y-92475047D01*
X156381428Y-92436952D01*
X156229047Y-92398857D01*
X156152857Y-92360761D01*
X156114761Y-92322666D01*
X156076666Y-92246476D01*
X156076666Y-92170285D01*
X156114761Y-92094095D01*
X156152857Y-92056000D01*
X156229047Y-92017904D01*
X156419523Y-92017904D01*
X156533809Y-92056000D01*
X156762380Y-92017904D02*
X157219523Y-92017904D01*
X156990952Y-92817904D02*
X156990952Y-92017904D01*
X158007142Y-92398857D02*
X158121428Y-92436952D01*
X158159523Y-92475047D01*
X158197619Y-92551238D01*
X158197619Y-92665523D01*
X158159523Y-92741714D01*
X158121428Y-92779809D01*
X158045238Y-92817904D01*
X157740476Y-92817904D01*
X157740476Y-92017904D01*
X158007142Y-92017904D01*
X158083333Y-92056000D01*
X158121428Y-92094095D01*
X158159523Y-92170285D01*
X158159523Y-92246476D01*
X158121428Y-92322666D01*
X158083333Y-92360761D01*
X158007142Y-92398857D01*
X157740476Y-92398857D01*
X158692857Y-92017904D02*
X158845238Y-92017904D01*
X158921428Y-92056000D01*
X158997619Y-92132190D01*
X159035714Y-92284571D01*
X159035714Y-92551238D01*
X158997619Y-92703619D01*
X158921428Y-92779809D01*
X158845238Y-92817904D01*
X158692857Y-92817904D01*
X158616666Y-92779809D01*
X158540476Y-92703619D01*
X158502380Y-92551238D01*
X158502380Y-92284571D01*
X158540476Y-92132190D01*
X158616666Y-92056000D01*
X158692857Y-92017904D01*
X159530952Y-92017904D02*
X159607142Y-92017904D01*
X159683333Y-92056000D01*
X159721428Y-92094095D01*
X159759523Y-92170285D01*
X159797619Y-92322666D01*
X159797619Y-92513142D01*
X159759523Y-92665523D01*
X159721428Y-92741714D01*
X159683333Y-92779809D01*
X159607142Y-92817904D01*
X159530952Y-92817904D01*
X159454761Y-92779809D01*
X159416666Y-92741714D01*
X159378571Y-92665523D01*
X159340476Y-92513142D01*
X159340476Y-92322666D01*
X159378571Y-92170285D01*
X159416666Y-92094095D01*
X159454761Y-92056000D01*
X159530952Y-92017904D01*
X201320476Y-110598000D02*
X201244285Y-110559904D01*
X201130000Y-110559904D01*
X201015714Y-110598000D01*
X200939523Y-110674190D01*
X200901428Y-110750380D01*
X200863333Y-110902761D01*
X200863333Y-111017047D01*
X200901428Y-111169428D01*
X200939523Y-111245619D01*
X201015714Y-111321809D01*
X201130000Y-111359904D01*
X201206190Y-111359904D01*
X201320476Y-111321809D01*
X201358571Y-111283714D01*
X201358571Y-111017047D01*
X201206190Y-111017047D01*
X201701428Y-111359904D02*
X201701428Y-110559904D01*
X202158571Y-111359904D01*
X202158571Y-110559904D01*
X202539523Y-111359904D02*
X202539523Y-110559904D01*
X202730000Y-110559904D01*
X202844285Y-110598000D01*
X202920476Y-110674190D01*
X202958571Y-110750380D01*
X202996666Y-110902761D01*
X202996666Y-111017047D01*
X202958571Y-111169428D01*
X202920476Y-111245619D01*
X202844285Y-111321809D01*
X202730000Y-111359904D01*
X202539523Y-111359904D01*
X199237619Y-110559904D02*
X198856666Y-110559904D01*
X198818571Y-110940857D01*
X198856666Y-110902761D01*
X198932857Y-110864666D01*
X199123333Y-110864666D01*
X199199523Y-110902761D01*
X199237619Y-110940857D01*
X199275714Y-111017047D01*
X199275714Y-111207523D01*
X199237619Y-111283714D01*
X199199523Y-111321809D01*
X199123333Y-111359904D01*
X198932857Y-111359904D01*
X198856666Y-111321809D01*
X198818571Y-111283714D01*
X199504285Y-110559904D02*
X199770952Y-111359904D01*
X200037619Y-110559904D01*
X195859523Y-110559904D02*
X196354761Y-110559904D01*
X196088095Y-110864666D01*
X196202380Y-110864666D01*
X196278571Y-110902761D01*
X196316666Y-110940857D01*
X196354761Y-111017047D01*
X196354761Y-111207523D01*
X196316666Y-111283714D01*
X196278571Y-111321809D01*
X196202380Y-111359904D01*
X195973809Y-111359904D01*
X195897619Y-111321809D01*
X195859523Y-111283714D01*
X196583333Y-110559904D02*
X196850000Y-111359904D01*
X197116666Y-110559904D01*
X197307142Y-110559904D02*
X197802380Y-110559904D01*
X197535714Y-110864666D01*
X197650000Y-110864666D01*
X197726190Y-110902761D01*
X197764285Y-110940857D01*
X197802380Y-111017047D01*
X197802380Y-111207523D01*
X197764285Y-111283714D01*
X197726190Y-111321809D01*
X197650000Y-111359904D01*
X197421428Y-111359904D01*
X197345238Y-111321809D01*
X197307142Y-111283714D01*
X193605238Y-110940857D02*
X193719523Y-110978952D01*
X193757619Y-111017047D01*
X193795714Y-111093238D01*
X193795714Y-111207523D01*
X193757619Y-111283714D01*
X193719523Y-111321809D01*
X193643333Y-111359904D01*
X193338571Y-111359904D01*
X193338571Y-110559904D01*
X193605238Y-110559904D01*
X193681428Y-110598000D01*
X193719523Y-110636095D01*
X193757619Y-110712285D01*
X193757619Y-110788476D01*
X193719523Y-110864666D01*
X193681428Y-110902761D01*
X193605238Y-110940857D01*
X193338571Y-110940857D01*
X194557619Y-111359904D02*
X194100476Y-111359904D01*
X194329047Y-111359904D02*
X194329047Y-110559904D01*
X194252857Y-110674190D01*
X194176666Y-110750380D01*
X194100476Y-110788476D01*
X195319523Y-111359904D02*
X194862380Y-111359904D01*
X195090952Y-111359904D02*
X195090952Y-110559904D01*
X195014761Y-110674190D01*
X194938571Y-110750380D01*
X194862380Y-110788476D01*
X191065238Y-110940857D02*
X191179523Y-110978952D01*
X191217619Y-111017047D01*
X191255714Y-111093238D01*
X191255714Y-111207523D01*
X191217619Y-111283714D01*
X191179523Y-111321809D01*
X191103333Y-111359904D01*
X190798571Y-111359904D01*
X190798571Y-110559904D01*
X191065238Y-110559904D01*
X191141428Y-110598000D01*
X191179523Y-110636095D01*
X191217619Y-110712285D01*
X191217619Y-110788476D01*
X191179523Y-110864666D01*
X191141428Y-110902761D01*
X191065238Y-110940857D01*
X190798571Y-110940857D01*
X192017619Y-111359904D02*
X191560476Y-111359904D01*
X191789047Y-111359904D02*
X191789047Y-110559904D01*
X191712857Y-110674190D01*
X191636666Y-110750380D01*
X191560476Y-110788476D01*
X192512857Y-110559904D02*
X192589047Y-110559904D01*
X192665238Y-110598000D01*
X192703333Y-110636095D01*
X192741428Y-110712285D01*
X192779523Y-110864666D01*
X192779523Y-111055142D01*
X192741428Y-111207523D01*
X192703333Y-111283714D01*
X192665238Y-111321809D01*
X192589047Y-111359904D01*
X192512857Y-111359904D01*
X192436666Y-111321809D01*
X192398571Y-111283714D01*
X192360476Y-111207523D01*
X192322380Y-111055142D01*
X192322380Y-110864666D01*
X192360476Y-110712285D01*
X192398571Y-110636095D01*
X192436666Y-110598000D01*
X192512857Y-110559904D01*
X188906190Y-110940857D02*
X189020476Y-110978952D01*
X189058571Y-111017047D01*
X189096666Y-111093238D01*
X189096666Y-111207523D01*
X189058571Y-111283714D01*
X189020476Y-111321809D01*
X188944285Y-111359904D01*
X188639523Y-111359904D01*
X188639523Y-110559904D01*
X188906190Y-110559904D01*
X188982380Y-110598000D01*
X189020476Y-110636095D01*
X189058571Y-110712285D01*
X189058571Y-110788476D01*
X189020476Y-110864666D01*
X188982380Y-110902761D01*
X188906190Y-110940857D01*
X188639523Y-110940857D01*
X189401428Y-110636095D02*
X189439523Y-110598000D01*
X189515714Y-110559904D01*
X189706190Y-110559904D01*
X189782380Y-110598000D01*
X189820476Y-110636095D01*
X189858571Y-110712285D01*
X189858571Y-110788476D01*
X189820476Y-110902761D01*
X189363333Y-111359904D01*
X189858571Y-111359904D01*
X186366190Y-110940857D02*
X186480476Y-110978952D01*
X186518571Y-111017047D01*
X186556666Y-111093238D01*
X186556666Y-111207523D01*
X186518571Y-111283714D01*
X186480476Y-111321809D01*
X186404285Y-111359904D01*
X186099523Y-111359904D01*
X186099523Y-110559904D01*
X186366190Y-110559904D01*
X186442380Y-110598000D01*
X186480476Y-110636095D01*
X186518571Y-110712285D01*
X186518571Y-110788476D01*
X186480476Y-110864666D01*
X186442380Y-110902761D01*
X186366190Y-110940857D01*
X186099523Y-110940857D01*
X187318571Y-111359904D02*
X186861428Y-111359904D01*
X187090000Y-111359904D02*
X187090000Y-110559904D01*
X187013809Y-110674190D01*
X186937619Y-110750380D01*
X186861428Y-110788476D01*
X183826190Y-110940857D02*
X183940476Y-110978952D01*
X183978571Y-111017047D01*
X184016666Y-111093238D01*
X184016666Y-111207523D01*
X183978571Y-111283714D01*
X183940476Y-111321809D01*
X183864285Y-111359904D01*
X183559523Y-111359904D01*
X183559523Y-110559904D01*
X183826190Y-110559904D01*
X183902380Y-110598000D01*
X183940476Y-110636095D01*
X183978571Y-110712285D01*
X183978571Y-110788476D01*
X183940476Y-110864666D01*
X183902380Y-110902761D01*
X183826190Y-110940857D01*
X183559523Y-110940857D01*
X184511904Y-110559904D02*
X184588095Y-110559904D01*
X184664285Y-110598000D01*
X184702380Y-110636095D01*
X184740476Y-110712285D01*
X184778571Y-110864666D01*
X184778571Y-111055142D01*
X184740476Y-111207523D01*
X184702380Y-111283714D01*
X184664285Y-111321809D01*
X184588095Y-111359904D01*
X184511904Y-111359904D01*
X184435714Y-111321809D01*
X184397619Y-111283714D01*
X184359523Y-111207523D01*
X184321428Y-111055142D01*
X184321428Y-110864666D01*
X184359523Y-110712285D01*
X184397619Y-110636095D01*
X184435714Y-110598000D01*
X184511904Y-110559904D01*
X181038571Y-111131333D02*
X181419523Y-111131333D01*
X180962380Y-111359904D02*
X181229047Y-110559904D01*
X181495714Y-111359904D01*
X181686190Y-110559904D02*
X182219523Y-110559904D01*
X181876666Y-111359904D01*
X178498571Y-111131333D02*
X178879523Y-111131333D01*
X178422380Y-111359904D02*
X178689047Y-110559904D01*
X178955714Y-111359904D01*
X179565238Y-110559904D02*
X179412857Y-110559904D01*
X179336666Y-110598000D01*
X179298571Y-110636095D01*
X179222380Y-110750380D01*
X179184285Y-110902761D01*
X179184285Y-111207523D01*
X179222380Y-111283714D01*
X179260476Y-111321809D01*
X179336666Y-111359904D01*
X179489047Y-111359904D01*
X179565238Y-111321809D01*
X179603333Y-111283714D01*
X179641428Y-111207523D01*
X179641428Y-111017047D01*
X179603333Y-110940857D01*
X179565238Y-110902761D01*
X179489047Y-110864666D01*
X179336666Y-110864666D01*
X179260476Y-110902761D01*
X179222380Y-110940857D01*
X179184285Y-111017047D01*
X175958571Y-111131333D02*
X176339523Y-111131333D01*
X175882380Y-111359904D02*
X176149047Y-110559904D01*
X176415714Y-111359904D01*
X177063333Y-110559904D02*
X176682380Y-110559904D01*
X176644285Y-110940857D01*
X176682380Y-110902761D01*
X176758571Y-110864666D01*
X176949047Y-110864666D01*
X177025238Y-110902761D01*
X177063333Y-110940857D01*
X177101428Y-111017047D01*
X177101428Y-111207523D01*
X177063333Y-111283714D01*
X177025238Y-111321809D01*
X176949047Y-111359904D01*
X176758571Y-111359904D01*
X176682380Y-111321809D01*
X176644285Y-111283714D01*
X173418571Y-111131333D02*
X173799523Y-111131333D01*
X173342380Y-111359904D02*
X173609047Y-110559904D01*
X173875714Y-111359904D01*
X174485238Y-110826571D02*
X174485238Y-111359904D01*
X174294761Y-110521809D02*
X174104285Y-111093238D01*
X174599523Y-111093238D01*
X170878571Y-111131333D02*
X171259523Y-111131333D01*
X170802380Y-111359904D02*
X171069047Y-110559904D01*
X171335714Y-111359904D01*
X171526190Y-110559904D02*
X172021428Y-110559904D01*
X171754761Y-110864666D01*
X171869047Y-110864666D01*
X171945238Y-110902761D01*
X171983333Y-110940857D01*
X172021428Y-111017047D01*
X172021428Y-111207523D01*
X171983333Y-111283714D01*
X171945238Y-111321809D01*
X171869047Y-111359904D01*
X171640476Y-111359904D01*
X171564285Y-111321809D01*
X171526190Y-111283714D01*
X168338571Y-111131333D02*
X168719523Y-111131333D01*
X168262380Y-111359904D02*
X168529047Y-110559904D01*
X168795714Y-111359904D01*
X169024285Y-110636095D02*
X169062380Y-110598000D01*
X169138571Y-110559904D01*
X169329047Y-110559904D01*
X169405238Y-110598000D01*
X169443333Y-110636095D01*
X169481428Y-110712285D01*
X169481428Y-110788476D01*
X169443333Y-110902761D01*
X168986190Y-111359904D01*
X169481428Y-111359904D01*
X165798571Y-111131333D02*
X166179523Y-111131333D01*
X165722380Y-111359904D02*
X165989047Y-110559904D01*
X166255714Y-111359904D01*
X166941428Y-111359904D02*
X166484285Y-111359904D01*
X166712857Y-111359904D02*
X166712857Y-110559904D01*
X166636666Y-110674190D01*
X166560476Y-110750380D01*
X166484285Y-110788476D01*
X163258571Y-111131333D02*
X163639523Y-111131333D01*
X163182380Y-111359904D02*
X163449047Y-110559904D01*
X163715714Y-111359904D01*
X164134761Y-110559904D02*
X164210952Y-110559904D01*
X164287142Y-110598000D01*
X164325238Y-110636095D01*
X164363333Y-110712285D01*
X164401428Y-110864666D01*
X164401428Y-111055142D01*
X164363333Y-111207523D01*
X164325238Y-111283714D01*
X164287142Y-111321809D01*
X164210952Y-111359904D01*
X164134761Y-111359904D01*
X164058571Y-111321809D01*
X164020476Y-111283714D01*
X163982380Y-111207523D01*
X163944285Y-111055142D01*
X163944285Y-110864666D01*
X163982380Y-110712285D01*
X164020476Y-110636095D01*
X164058571Y-110598000D01*
X164134761Y-110559904D01*
X160775714Y-111283714D02*
X160737619Y-111321809D01*
X160623333Y-111359904D01*
X160547142Y-111359904D01*
X160432857Y-111321809D01*
X160356666Y-111245619D01*
X160318571Y-111169428D01*
X160280476Y-111017047D01*
X160280476Y-110902761D01*
X160318571Y-110750380D01*
X160356666Y-110674190D01*
X160432857Y-110598000D01*
X160547142Y-110559904D01*
X160623333Y-110559904D01*
X160737619Y-110598000D01*
X160775714Y-110636095D01*
X161537619Y-111359904D02*
X161080476Y-111359904D01*
X161309047Y-111359904D02*
X161309047Y-110559904D01*
X161232857Y-110674190D01*
X161156666Y-110750380D01*
X161080476Y-110788476D01*
X162261428Y-110559904D02*
X161880476Y-110559904D01*
X161842380Y-110940857D01*
X161880476Y-110902761D01*
X161956666Y-110864666D01*
X162147142Y-110864666D01*
X162223333Y-110902761D01*
X162261428Y-110940857D01*
X162299523Y-111017047D01*
X162299523Y-111207523D01*
X162261428Y-111283714D01*
X162223333Y-111321809D01*
X162147142Y-111359904D01*
X161956666Y-111359904D01*
X161880476Y-111321809D01*
X161842380Y-111283714D01*
X158235714Y-111283714D02*
X158197619Y-111321809D01*
X158083333Y-111359904D01*
X158007142Y-111359904D01*
X157892857Y-111321809D01*
X157816666Y-111245619D01*
X157778571Y-111169428D01*
X157740476Y-111017047D01*
X157740476Y-110902761D01*
X157778571Y-110750380D01*
X157816666Y-110674190D01*
X157892857Y-110598000D01*
X158007142Y-110559904D01*
X158083333Y-110559904D01*
X158197619Y-110598000D01*
X158235714Y-110636095D01*
X158997619Y-111359904D02*
X158540476Y-111359904D01*
X158769047Y-111359904D02*
X158769047Y-110559904D01*
X158692857Y-110674190D01*
X158616666Y-110750380D01*
X158540476Y-110788476D01*
X159683333Y-110826571D02*
X159683333Y-111359904D01*
X159492857Y-110521809D02*
X159302380Y-111093238D01*
X159797619Y-111093238D01*
X155695714Y-111283714D02*
X155657619Y-111321809D01*
X155543333Y-111359904D01*
X155467142Y-111359904D01*
X155352857Y-111321809D01*
X155276666Y-111245619D01*
X155238571Y-111169428D01*
X155200476Y-111017047D01*
X155200476Y-110902761D01*
X155238571Y-110750380D01*
X155276666Y-110674190D01*
X155352857Y-110598000D01*
X155467142Y-110559904D01*
X155543333Y-110559904D01*
X155657619Y-110598000D01*
X155695714Y-110636095D01*
X156457619Y-111359904D02*
X156000476Y-111359904D01*
X156229047Y-111359904D02*
X156229047Y-110559904D01*
X156152857Y-110674190D01*
X156076666Y-110750380D01*
X156000476Y-110788476D01*
X156724285Y-110559904D02*
X157219523Y-110559904D01*
X156952857Y-110864666D01*
X157067142Y-110864666D01*
X157143333Y-110902761D01*
X157181428Y-110940857D01*
X157219523Y-111017047D01*
X157219523Y-111207523D01*
X157181428Y-111283714D01*
X157143333Y-111321809D01*
X157067142Y-111359904D01*
X156838571Y-111359904D01*
X156762380Y-111321809D01*
X156724285Y-111283714D01*
X153060476Y-110598000D02*
X152984285Y-110559904D01*
X152870000Y-110559904D01*
X152755714Y-110598000D01*
X152679523Y-110674190D01*
X152641428Y-110750380D01*
X152603333Y-110902761D01*
X152603333Y-111017047D01*
X152641428Y-111169428D01*
X152679523Y-111245619D01*
X152755714Y-111321809D01*
X152870000Y-111359904D01*
X152946190Y-111359904D01*
X153060476Y-111321809D01*
X153098571Y-111283714D01*
X153098571Y-111017047D01*
X152946190Y-111017047D01*
X153441428Y-111359904D02*
X153441428Y-110559904D01*
X153898571Y-111359904D01*
X153898571Y-110559904D01*
X154279523Y-111359904D02*
X154279523Y-110559904D01*
X154470000Y-110559904D01*
X154584285Y-110598000D01*
X154660476Y-110674190D01*
X154698571Y-110750380D01*
X154736666Y-110902761D01*
X154736666Y-111017047D01*
X154698571Y-111169428D01*
X154660476Y-111245619D01*
X154584285Y-111321809D01*
X154470000Y-111359904D01*
X154279523Y-111359904D01*
X160966190Y-92398857D02*
X161080476Y-92436952D01*
X161118571Y-92475047D01*
X161156666Y-92551238D01*
X161156666Y-92665523D01*
X161118571Y-92741714D01*
X161080476Y-92779809D01*
X161004285Y-92817904D01*
X160699523Y-92817904D01*
X160699523Y-92017904D01*
X160966190Y-92017904D01*
X161042380Y-92056000D01*
X161080476Y-92094095D01*
X161118571Y-92170285D01*
X161118571Y-92246476D01*
X161080476Y-92322666D01*
X161042380Y-92360761D01*
X160966190Y-92398857D01*
X160699523Y-92398857D01*
X161537619Y-92817904D02*
X161690000Y-92817904D01*
X161766190Y-92779809D01*
X161804285Y-92741714D01*
X161880476Y-92627428D01*
X161918571Y-92475047D01*
X161918571Y-92170285D01*
X161880476Y-92094095D01*
X161842380Y-92056000D01*
X161766190Y-92017904D01*
X161613809Y-92017904D01*
X161537619Y-92056000D01*
X161499523Y-92094095D01*
X161461428Y-92170285D01*
X161461428Y-92360761D01*
X161499523Y-92436952D01*
X161537619Y-92475047D01*
X161613809Y-92513142D01*
X161766190Y-92513142D01*
X161842380Y-92475047D01*
X161880476Y-92436952D01*
X161918571Y-92360761D01*
X163506190Y-92398857D02*
X163620476Y-92436952D01*
X163658571Y-92475047D01*
X163696666Y-92551238D01*
X163696666Y-92665523D01*
X163658571Y-92741714D01*
X163620476Y-92779809D01*
X163544285Y-92817904D01*
X163239523Y-92817904D01*
X163239523Y-92017904D01*
X163506190Y-92017904D01*
X163582380Y-92056000D01*
X163620476Y-92094095D01*
X163658571Y-92170285D01*
X163658571Y-92246476D01*
X163620476Y-92322666D01*
X163582380Y-92360761D01*
X163506190Y-92398857D01*
X163239523Y-92398857D01*
X164153809Y-92360761D02*
X164077619Y-92322666D01*
X164039523Y-92284571D01*
X164001428Y-92208380D01*
X164001428Y-92170285D01*
X164039523Y-92094095D01*
X164077619Y-92056000D01*
X164153809Y-92017904D01*
X164306190Y-92017904D01*
X164382380Y-92056000D01*
X164420476Y-92094095D01*
X164458571Y-92170285D01*
X164458571Y-92208380D01*
X164420476Y-92284571D01*
X164382380Y-92322666D01*
X164306190Y-92360761D01*
X164153809Y-92360761D01*
X164077619Y-92398857D01*
X164039523Y-92436952D01*
X164001428Y-92513142D01*
X164001428Y-92665523D01*
X164039523Y-92741714D01*
X164077619Y-92779809D01*
X164153809Y-92817904D01*
X164306190Y-92817904D01*
X164382380Y-92779809D01*
X164420476Y-92741714D01*
X164458571Y-92665523D01*
X164458571Y-92513142D01*
X164420476Y-92436952D01*
X164382380Y-92398857D01*
X164306190Y-92360761D01*
X166046190Y-92398857D02*
X166160476Y-92436952D01*
X166198571Y-92475047D01*
X166236666Y-92551238D01*
X166236666Y-92665523D01*
X166198571Y-92741714D01*
X166160476Y-92779809D01*
X166084285Y-92817904D01*
X165779523Y-92817904D01*
X165779523Y-92017904D01*
X166046190Y-92017904D01*
X166122380Y-92056000D01*
X166160476Y-92094095D01*
X166198571Y-92170285D01*
X166198571Y-92246476D01*
X166160476Y-92322666D01*
X166122380Y-92360761D01*
X166046190Y-92398857D01*
X165779523Y-92398857D01*
X166503333Y-92017904D02*
X167036666Y-92017904D01*
X166693809Y-92817904D01*
X168586190Y-92398857D02*
X168700476Y-92436952D01*
X168738571Y-92475047D01*
X168776666Y-92551238D01*
X168776666Y-92665523D01*
X168738571Y-92741714D01*
X168700476Y-92779809D01*
X168624285Y-92817904D01*
X168319523Y-92817904D01*
X168319523Y-92017904D01*
X168586190Y-92017904D01*
X168662380Y-92056000D01*
X168700476Y-92094095D01*
X168738571Y-92170285D01*
X168738571Y-92246476D01*
X168700476Y-92322666D01*
X168662380Y-92360761D01*
X168586190Y-92398857D01*
X168319523Y-92398857D01*
X169462380Y-92017904D02*
X169310000Y-92017904D01*
X169233809Y-92056000D01*
X169195714Y-92094095D01*
X169119523Y-92208380D01*
X169081428Y-92360761D01*
X169081428Y-92665523D01*
X169119523Y-92741714D01*
X169157619Y-92779809D01*
X169233809Y-92817904D01*
X169386190Y-92817904D01*
X169462380Y-92779809D01*
X169500476Y-92741714D01*
X169538571Y-92665523D01*
X169538571Y-92475047D01*
X169500476Y-92398857D01*
X169462380Y-92360761D01*
X169386190Y-92322666D01*
X169233809Y-92322666D01*
X169157619Y-92360761D01*
X169119523Y-92398857D01*
X169081428Y-92475047D01*
X171126190Y-92398857D02*
X171240476Y-92436952D01*
X171278571Y-92475047D01*
X171316666Y-92551238D01*
X171316666Y-92665523D01*
X171278571Y-92741714D01*
X171240476Y-92779809D01*
X171164285Y-92817904D01*
X170859523Y-92817904D01*
X170859523Y-92017904D01*
X171126190Y-92017904D01*
X171202380Y-92056000D01*
X171240476Y-92094095D01*
X171278571Y-92170285D01*
X171278571Y-92246476D01*
X171240476Y-92322666D01*
X171202380Y-92360761D01*
X171126190Y-92398857D01*
X170859523Y-92398857D01*
X172040476Y-92017904D02*
X171659523Y-92017904D01*
X171621428Y-92398857D01*
X171659523Y-92360761D01*
X171735714Y-92322666D01*
X171926190Y-92322666D01*
X172002380Y-92360761D01*
X172040476Y-92398857D01*
X172078571Y-92475047D01*
X172078571Y-92665523D01*
X172040476Y-92741714D01*
X172002380Y-92779809D01*
X171926190Y-92817904D01*
X171735714Y-92817904D01*
X171659523Y-92779809D01*
X171621428Y-92741714D01*
X173666190Y-92398857D02*
X173780476Y-92436952D01*
X173818571Y-92475047D01*
X173856666Y-92551238D01*
X173856666Y-92665523D01*
X173818571Y-92741714D01*
X173780476Y-92779809D01*
X173704285Y-92817904D01*
X173399523Y-92817904D01*
X173399523Y-92017904D01*
X173666190Y-92017904D01*
X173742380Y-92056000D01*
X173780476Y-92094095D01*
X173818571Y-92170285D01*
X173818571Y-92246476D01*
X173780476Y-92322666D01*
X173742380Y-92360761D01*
X173666190Y-92398857D01*
X173399523Y-92398857D01*
X174542380Y-92284571D02*
X174542380Y-92817904D01*
X174351904Y-91979809D02*
X174161428Y-92551238D01*
X174656666Y-92551238D01*
X176206190Y-92398857D02*
X176320476Y-92436952D01*
X176358571Y-92475047D01*
X176396666Y-92551238D01*
X176396666Y-92665523D01*
X176358571Y-92741714D01*
X176320476Y-92779809D01*
X176244285Y-92817904D01*
X175939523Y-92817904D01*
X175939523Y-92017904D01*
X176206190Y-92017904D01*
X176282380Y-92056000D01*
X176320476Y-92094095D01*
X176358571Y-92170285D01*
X176358571Y-92246476D01*
X176320476Y-92322666D01*
X176282380Y-92360761D01*
X176206190Y-92398857D01*
X175939523Y-92398857D01*
X176663333Y-92017904D02*
X177158571Y-92017904D01*
X176891904Y-92322666D01*
X177006190Y-92322666D01*
X177082380Y-92360761D01*
X177120476Y-92398857D01*
X177158571Y-92475047D01*
X177158571Y-92665523D01*
X177120476Y-92741714D01*
X177082380Y-92779809D01*
X177006190Y-92817904D01*
X176777619Y-92817904D01*
X176701428Y-92779809D01*
X176663333Y-92741714D01*
X178117619Y-92589333D02*
X178498571Y-92589333D01*
X178041428Y-92817904D02*
X178308095Y-92017904D01*
X178574761Y-92817904D01*
X179260476Y-92817904D02*
X178803333Y-92817904D01*
X179031904Y-92817904D02*
X179031904Y-92017904D01*
X178955714Y-92132190D01*
X178879523Y-92208380D01*
X178803333Y-92246476D01*
X179984285Y-92017904D02*
X179603333Y-92017904D01*
X179565238Y-92398857D01*
X179603333Y-92360761D01*
X179679523Y-92322666D01*
X179870000Y-92322666D01*
X179946190Y-92360761D01*
X179984285Y-92398857D01*
X180022380Y-92475047D01*
X180022380Y-92665523D01*
X179984285Y-92741714D01*
X179946190Y-92779809D01*
X179870000Y-92817904D01*
X179679523Y-92817904D01*
X179603333Y-92779809D01*
X179565238Y-92741714D01*
X180657619Y-92589333D02*
X181038571Y-92589333D01*
X180581428Y-92817904D02*
X180848095Y-92017904D01*
X181114761Y-92817904D01*
X181800476Y-92817904D02*
X181343333Y-92817904D01*
X181571904Y-92817904D02*
X181571904Y-92017904D01*
X181495714Y-92132190D01*
X181419523Y-92208380D01*
X181343333Y-92246476D01*
X182105238Y-92094095D02*
X182143333Y-92056000D01*
X182219523Y-92017904D01*
X182410000Y-92017904D01*
X182486190Y-92056000D01*
X182524285Y-92094095D01*
X182562380Y-92170285D01*
X182562380Y-92246476D01*
X182524285Y-92360761D01*
X182067142Y-92817904D01*
X182562380Y-92817904D01*
X183197619Y-92589333D02*
X183578571Y-92589333D01*
X183121428Y-92817904D02*
X183388095Y-92017904D01*
X183654761Y-92817904D01*
X184340476Y-92817904D02*
X183883333Y-92817904D01*
X184111904Y-92817904D02*
X184111904Y-92017904D01*
X184035714Y-92132190D01*
X183959523Y-92208380D01*
X183883333Y-92246476D01*
X185102380Y-92817904D02*
X184645238Y-92817904D01*
X184873809Y-92817904D02*
X184873809Y-92017904D01*
X184797619Y-92132190D01*
X184721428Y-92208380D01*
X184645238Y-92246476D01*
X185737619Y-92589333D02*
X186118571Y-92589333D01*
X185661428Y-92817904D02*
X185928095Y-92017904D01*
X186194761Y-92817904D01*
X186880476Y-92817904D02*
X186423333Y-92817904D01*
X186651904Y-92817904D02*
X186651904Y-92017904D01*
X186575714Y-92132190D01*
X186499523Y-92208380D01*
X186423333Y-92246476D01*
X187375714Y-92017904D02*
X187451904Y-92017904D01*
X187528095Y-92056000D01*
X187566190Y-92094095D01*
X187604285Y-92170285D01*
X187642380Y-92322666D01*
X187642380Y-92513142D01*
X187604285Y-92665523D01*
X187566190Y-92741714D01*
X187528095Y-92779809D01*
X187451904Y-92817904D01*
X187375714Y-92817904D01*
X187299523Y-92779809D01*
X187261428Y-92741714D01*
X187223333Y-92665523D01*
X187185238Y-92513142D01*
X187185238Y-92322666D01*
X187223333Y-92170285D01*
X187261428Y-92094095D01*
X187299523Y-92056000D01*
X187375714Y-92017904D01*
X188658571Y-92589333D02*
X189039523Y-92589333D01*
X188582380Y-92817904D02*
X188849047Y-92017904D01*
X189115714Y-92817904D01*
X189420476Y-92817904D02*
X189572857Y-92817904D01*
X189649047Y-92779809D01*
X189687142Y-92741714D01*
X189763333Y-92627428D01*
X189801428Y-92475047D01*
X189801428Y-92170285D01*
X189763333Y-92094095D01*
X189725238Y-92056000D01*
X189649047Y-92017904D01*
X189496666Y-92017904D01*
X189420476Y-92056000D01*
X189382380Y-92094095D01*
X189344285Y-92170285D01*
X189344285Y-92360761D01*
X189382380Y-92436952D01*
X189420476Y-92475047D01*
X189496666Y-92513142D01*
X189649047Y-92513142D01*
X189725238Y-92475047D01*
X189763333Y-92436952D01*
X189801428Y-92360761D01*
X201225238Y-92398857D02*
X201339523Y-92436952D01*
X201377619Y-92475047D01*
X201415714Y-92551238D01*
X201415714Y-92665523D01*
X201377619Y-92741714D01*
X201339523Y-92779809D01*
X201263333Y-92817904D01*
X200958571Y-92817904D01*
X200958571Y-92017904D01*
X201225238Y-92017904D01*
X201301428Y-92056000D01*
X201339523Y-92094095D01*
X201377619Y-92170285D01*
X201377619Y-92246476D01*
X201339523Y-92322666D01*
X201301428Y-92360761D01*
X201225238Y-92398857D01*
X200958571Y-92398857D01*
X202177619Y-92817904D02*
X201720476Y-92817904D01*
X201949047Y-92817904D02*
X201949047Y-92017904D01*
X201872857Y-92132190D01*
X201796666Y-92208380D01*
X201720476Y-92246476D01*
X202482380Y-92094095D02*
X202520476Y-92056000D01*
X202596666Y-92017904D01*
X202787142Y-92017904D01*
X202863333Y-92056000D01*
X202901428Y-92094095D01*
X202939523Y-92170285D01*
X202939523Y-92246476D01*
X202901428Y-92360761D01*
X202444285Y-92817904D01*
X202939523Y-92817904D01*
X198685238Y-92398857D02*
X198799523Y-92436952D01*
X198837619Y-92475047D01*
X198875714Y-92551238D01*
X198875714Y-92665523D01*
X198837619Y-92741714D01*
X198799523Y-92779809D01*
X198723333Y-92817904D01*
X198418571Y-92817904D01*
X198418571Y-92017904D01*
X198685238Y-92017904D01*
X198761428Y-92056000D01*
X198799523Y-92094095D01*
X198837619Y-92170285D01*
X198837619Y-92246476D01*
X198799523Y-92322666D01*
X198761428Y-92360761D01*
X198685238Y-92398857D01*
X198418571Y-92398857D01*
X199637619Y-92817904D02*
X199180476Y-92817904D01*
X199409047Y-92817904D02*
X199409047Y-92017904D01*
X199332857Y-92132190D01*
X199256666Y-92208380D01*
X199180476Y-92246476D01*
X199904285Y-92017904D02*
X200399523Y-92017904D01*
X200132857Y-92322666D01*
X200247142Y-92322666D01*
X200323333Y-92360761D01*
X200361428Y-92398857D01*
X200399523Y-92475047D01*
X200399523Y-92665523D01*
X200361428Y-92741714D01*
X200323333Y-92779809D01*
X200247142Y-92817904D01*
X200018571Y-92817904D01*
X199942380Y-92779809D01*
X199904285Y-92741714D01*
X196145238Y-92398857D02*
X196259523Y-92436952D01*
X196297619Y-92475047D01*
X196335714Y-92551238D01*
X196335714Y-92665523D01*
X196297619Y-92741714D01*
X196259523Y-92779809D01*
X196183333Y-92817904D01*
X195878571Y-92817904D01*
X195878571Y-92017904D01*
X196145238Y-92017904D01*
X196221428Y-92056000D01*
X196259523Y-92094095D01*
X196297619Y-92170285D01*
X196297619Y-92246476D01*
X196259523Y-92322666D01*
X196221428Y-92360761D01*
X196145238Y-92398857D01*
X195878571Y-92398857D01*
X197097619Y-92817904D02*
X196640476Y-92817904D01*
X196869047Y-92817904D02*
X196869047Y-92017904D01*
X196792857Y-92132190D01*
X196716666Y-92208380D01*
X196640476Y-92246476D01*
X197783333Y-92284571D02*
X197783333Y-92817904D01*
X197592857Y-91979809D02*
X197402380Y-92551238D01*
X197897619Y-92551238D01*
X193605238Y-92398857D02*
X193719523Y-92436952D01*
X193757619Y-92475047D01*
X193795714Y-92551238D01*
X193795714Y-92665523D01*
X193757619Y-92741714D01*
X193719523Y-92779809D01*
X193643333Y-92817904D01*
X193338571Y-92817904D01*
X193338571Y-92017904D01*
X193605238Y-92017904D01*
X193681428Y-92056000D01*
X193719523Y-92094095D01*
X193757619Y-92170285D01*
X193757619Y-92246476D01*
X193719523Y-92322666D01*
X193681428Y-92360761D01*
X193605238Y-92398857D01*
X193338571Y-92398857D01*
X194557619Y-92817904D02*
X194100476Y-92817904D01*
X194329047Y-92817904D02*
X194329047Y-92017904D01*
X194252857Y-92132190D01*
X194176666Y-92208380D01*
X194100476Y-92246476D01*
X195281428Y-92017904D02*
X194900476Y-92017904D01*
X194862380Y-92398857D01*
X194900476Y-92360761D01*
X194976666Y-92322666D01*
X195167142Y-92322666D01*
X195243333Y-92360761D01*
X195281428Y-92398857D01*
X195319523Y-92475047D01*
X195319523Y-92665523D01*
X195281428Y-92741714D01*
X195243333Y-92779809D01*
X195167142Y-92817904D01*
X194976666Y-92817904D01*
X194900476Y-92779809D01*
X194862380Y-92741714D01*
X191198571Y-92589333D02*
X191579523Y-92589333D01*
X191122380Y-92817904D02*
X191389047Y-92017904D01*
X191655714Y-92817904D01*
X192036666Y-92360761D02*
X191960476Y-92322666D01*
X191922380Y-92284571D01*
X191884285Y-92208380D01*
X191884285Y-92170285D01*
X191922380Y-92094095D01*
X191960476Y-92056000D01*
X192036666Y-92017904D01*
X192189047Y-92017904D01*
X192265238Y-92056000D01*
X192303333Y-92094095D01*
X192341428Y-92170285D01*
X192341428Y-92208380D01*
X192303333Y-92284571D01*
X192265238Y-92322666D01*
X192189047Y-92360761D01*
X192036666Y-92360761D01*
X191960476Y-92398857D01*
X191922380Y-92436952D01*
X191884285Y-92513142D01*
X191884285Y-92665523D01*
X191922380Y-92741714D01*
X191960476Y-92779809D01*
X192036666Y-92817904D01*
X192189047Y-92817904D01*
X192265238Y-92779809D01*
X192303333Y-92741714D01*
X192341428Y-92665523D01*
X192341428Y-92513142D01*
X192303333Y-92436952D01*
X192265238Y-92398857D01*
X192189047Y-92360761D01*
D11*
%TO.C,J2*%
X151595000Y-105470000D02*
X151595000Y-97730000D01*
X151595000Y-97730000D02*
X148935000Y-97730000D01*
X148935000Y-97730000D02*
X148935000Y-105470000D01*
X148935000Y-105470000D02*
X151595000Y-105470000D01*
X148935000Y-104520000D02*
X142935000Y-104520000D01*
X142935000Y-104520000D02*
X142935000Y-103760000D01*
X142935000Y-103760000D02*
X148935000Y-103760000D01*
X148935000Y-104460000D02*
X142935000Y-104460000D01*
X148935000Y-104340000D02*
X142935000Y-104340000D01*
X148935000Y-104220000D02*
X142935000Y-104220000D01*
X148935000Y-104100000D02*
X142935000Y-104100000D01*
X148935000Y-103980000D02*
X142935000Y-103980000D01*
X148935000Y-103860000D02*
X142935000Y-103860000D01*
X151992071Y-104520000D02*
X151595000Y-104520000D01*
X151992071Y-103760000D02*
X151595000Y-103760000D01*
X154465000Y-104520000D02*
X154077929Y-104520000D01*
X154465000Y-103760000D02*
X154077929Y-103760000D01*
X151595000Y-102870000D02*
X148935000Y-102870000D01*
X148935000Y-101980000D02*
X142935000Y-101980000D01*
X142935000Y-101980000D02*
X142935000Y-101220000D01*
X142935000Y-101220000D02*
X148935000Y-101220000D01*
X151992071Y-101980000D02*
X151595000Y-101980000D01*
X151992071Y-101220000D02*
X151595000Y-101220000D01*
X154532071Y-101980000D02*
X154077929Y-101980000D01*
X154532071Y-101220000D02*
X154077929Y-101220000D01*
X151595000Y-100330000D02*
X148935000Y-100330000D01*
X148935000Y-99440000D02*
X142935000Y-99440000D01*
X142935000Y-99440000D02*
X142935000Y-98680000D01*
X142935000Y-98680000D02*
X148935000Y-98680000D01*
X151992071Y-99440000D02*
X151595000Y-99440000D01*
X151992071Y-98680000D02*
X151595000Y-98680000D01*
X154532071Y-99440000D02*
X154077929Y-99440000D01*
X154532071Y-98680000D02*
X154077929Y-98680000D01*
X156845000Y-104140000D02*
X156845000Y-105410000D01*
X156845000Y-105410000D02*
X155575000Y-105410000D01*
%TO.C,U2*%
X185127113Y-101918198D02*
X185445311Y-101600000D01*
X185445311Y-101600000D02*
X185127113Y-101281802D01*
X180658198Y-106387113D02*
X180340000Y-106705311D01*
X180340000Y-106705311D02*
X180021802Y-106387113D01*
X180021802Y-96812887D02*
X180340000Y-96494689D01*
X180340000Y-96494689D02*
X180658198Y-96812887D01*
X175552887Y-101281802D02*
X175234689Y-101600000D01*
X175234689Y-101600000D02*
X175552887Y-101918198D01*
X175552887Y-101918198D02*
X174640719Y-102830366D01*
%TO.C,C3*%
X189355000Y-104612221D02*
X189355000Y-104937779D01*
X190375000Y-104612221D02*
X190375000Y-104937779D01*
%TO.C,C1*%
X195455000Y-104937779D02*
X195455000Y-104612221D01*
X194435000Y-104937779D02*
X194435000Y-104612221D01*
%TO.C,SW1*%
X160225000Y-107075000D02*
X160675000Y-107525000D01*
X163625000Y-107075000D02*
X163175000Y-107525000D01*
X163625000Y-102475000D02*
X163175000Y-102025000D01*
X160225000Y-102475000D02*
X160675000Y-102025000D01*
X164675000Y-103775000D02*
X164675000Y-105775000D01*
X160675000Y-107525000D02*
X163175000Y-107525000D01*
X159175000Y-103775000D02*
X159175000Y-105775000D01*
X160675000Y-102025000D02*
X163175000Y-102025000D01*
%TO.C,SW2*%
X160225000Y-100725000D02*
X160675000Y-101175000D01*
X163625000Y-100725000D02*
X163175000Y-101175000D01*
X163625000Y-96125000D02*
X163175000Y-95675000D01*
X160225000Y-96125000D02*
X160675000Y-95675000D01*
X164675000Y-97425000D02*
X164675000Y-99425000D01*
X160675000Y-101175000D02*
X163175000Y-101175000D01*
X159175000Y-97425000D02*
X159175000Y-99425000D01*
X160675000Y-95675000D02*
X163175000Y-95675000D01*
%TO.C,U1*%
X190825000Y-105535000D02*
X191755000Y-105535000D01*
X193985000Y-105535000D02*
X193055000Y-105535000D01*
X193985000Y-105535000D02*
X193985000Y-103375000D01*
X190825000Y-105535000D02*
X190825000Y-104075000D01*
%TO.C,Y2*%
X172130000Y-99325000D02*
X172130000Y-97525000D01*
X170730000Y-97475000D02*
X169630000Y-97475000D01*
X170730000Y-99375000D02*
X169630000Y-99375000D01*
%TO.C,Y1*%
X168380000Y-100305000D02*
X168380000Y-106205000D01*
X171980000Y-100305000D02*
X168380000Y-100305000D01*
X171980000Y-106205000D02*
X171980000Y-100305000D01*
%TO.C,D3*%
X190285000Y-101700000D02*
X192570000Y-101700000D01*
X190285000Y-100230000D02*
X190285000Y-101700000D01*
X192570000Y-100230000D02*
X190285000Y-100230000D01*
%TO.C,D2*%
X190285000Y-99795000D02*
X192570000Y-99795000D01*
X190285000Y-98325000D02*
X190285000Y-99795000D01*
X192570000Y-98325000D02*
X190285000Y-98325000D01*
%TO.C,D1*%
X193945000Y-101945000D02*
X195945000Y-101945000D01*
X195945000Y-101945000D02*
X195945000Y-98045000D01*
X193945000Y-101945000D02*
X193945000Y-98045000D01*
%TO.C,J2*%
D10*
X149586666Y-105862380D02*
X149586666Y-106576666D01*
X149539047Y-106719523D01*
X149443809Y-106814761D01*
X149300952Y-106862380D01*
X149205714Y-106862380D01*
X150015238Y-105957619D02*
X150062857Y-105910000D01*
X150158095Y-105862380D01*
X150396190Y-105862380D01*
X150491428Y-105910000D01*
X150539047Y-105957619D01*
X150586666Y-106052857D01*
X150586666Y-106148095D01*
X150539047Y-106290952D01*
X149967619Y-106862380D01*
X150586666Y-106862380D01*
%TO.C,U2*%
X175462646Y-97584643D02*
X175920582Y-98042579D01*
X176001394Y-98069516D01*
X176055269Y-98069516D01*
X176136081Y-98042579D01*
X176243831Y-97934829D01*
X176270768Y-97854017D01*
X176270768Y-97800142D01*
X176243831Y-97719330D01*
X175785895Y-97261394D01*
X176082206Y-97072832D02*
X176082206Y-97018957D01*
X176109144Y-96938145D01*
X176243831Y-96803458D01*
X176324643Y-96776521D01*
X176378518Y-96776521D01*
X176459330Y-96803458D01*
X176513205Y-96857333D01*
X176567079Y-96965083D01*
X176567079Y-97611580D01*
X176917266Y-97261394D01*
%TO.C,C3*%
X190150714Y-106813333D02*
X190188809Y-106851428D01*
X190226904Y-106965714D01*
X190226904Y-107041904D01*
X190188809Y-107156190D01*
X190112619Y-107232380D01*
X190036428Y-107270476D01*
X189884047Y-107308571D01*
X189769761Y-107308571D01*
X189617380Y-107270476D01*
X189541190Y-107232380D01*
X189465000Y-107156190D01*
X189426904Y-107041904D01*
X189426904Y-106965714D01*
X189465000Y-106851428D01*
X189503095Y-106813333D01*
X189426904Y-106546666D02*
X189426904Y-106051428D01*
X189731666Y-106318095D01*
X189731666Y-106203809D01*
X189769761Y-106127619D01*
X189807857Y-106089523D01*
X189884047Y-106051428D01*
X190074523Y-106051428D01*
X190150714Y-106089523D01*
X190188809Y-106127619D01*
X190226904Y-106203809D01*
X190226904Y-106432380D01*
X190188809Y-106508571D01*
X190150714Y-106546666D01*
%TO.C,C1*%
X195230714Y-106813333D02*
X195268809Y-106851428D01*
X195306904Y-106965714D01*
X195306904Y-107041904D01*
X195268809Y-107156190D01*
X195192619Y-107232380D01*
X195116428Y-107270476D01*
X194964047Y-107308571D01*
X194849761Y-107308571D01*
X194697380Y-107270476D01*
X194621190Y-107232380D01*
X194545000Y-107156190D01*
X194506904Y-107041904D01*
X194506904Y-106965714D01*
X194545000Y-106851428D01*
X194583095Y-106813333D01*
X195306904Y-106051428D02*
X195306904Y-106508571D01*
X195306904Y-106280000D02*
X194506904Y-106280000D01*
X194621190Y-106356190D01*
X194697380Y-106432380D01*
X194735476Y-106508571D01*
%TO.C,R5*%
X154171666Y-96881904D02*
X153905000Y-96500952D01*
X153714523Y-96881904D02*
X153714523Y-96081904D01*
X154019285Y-96081904D01*
X154095476Y-96120000D01*
X154133571Y-96158095D01*
X154171666Y-96234285D01*
X154171666Y-96348571D01*
X154133571Y-96424761D01*
X154095476Y-96462857D01*
X154019285Y-96500952D01*
X153714523Y-96500952D01*
X154895476Y-96081904D02*
X154514523Y-96081904D01*
X154476428Y-96462857D01*
X154514523Y-96424761D01*
X154590714Y-96386666D01*
X154781190Y-96386666D01*
X154857380Y-96424761D01*
X154895476Y-96462857D01*
X154933571Y-96539047D01*
X154933571Y-96729523D01*
X154895476Y-96805714D01*
X154857380Y-96843809D01*
X154781190Y-96881904D01*
X154590714Y-96881904D01*
X154514523Y-96843809D01*
X154476428Y-96805714D01*
%TO.C,R8*%
X189096666Y-98405904D02*
X188830000Y-98024952D01*
X188639523Y-98405904D02*
X188639523Y-97605904D01*
X188944285Y-97605904D01*
X189020476Y-97644000D01*
X189058571Y-97682095D01*
X189096666Y-97758285D01*
X189096666Y-97872571D01*
X189058571Y-97948761D01*
X189020476Y-97986857D01*
X188944285Y-98024952D01*
X188639523Y-98024952D01*
X189553809Y-97948761D02*
X189477619Y-97910666D01*
X189439523Y-97872571D01*
X189401428Y-97796380D01*
X189401428Y-97758285D01*
X189439523Y-97682095D01*
X189477619Y-97644000D01*
X189553809Y-97605904D01*
X189706190Y-97605904D01*
X189782380Y-97644000D01*
X189820476Y-97682095D01*
X189858571Y-97758285D01*
X189858571Y-97796380D01*
X189820476Y-97872571D01*
X189782380Y-97910666D01*
X189706190Y-97948761D01*
X189553809Y-97948761D01*
X189477619Y-97986857D01*
X189439523Y-98024952D01*
X189401428Y-98101142D01*
X189401428Y-98253523D01*
X189439523Y-98329714D01*
X189477619Y-98367809D01*
X189553809Y-98405904D01*
X189706190Y-98405904D01*
X189782380Y-98367809D01*
X189820476Y-98329714D01*
X189858571Y-98253523D01*
X189858571Y-98101142D01*
X189820476Y-98024952D01*
X189782380Y-97986857D01*
X189706190Y-97948761D01*
%TO.C,R4*%
X202431666Y-103231904D02*
X202165000Y-102850952D01*
X201974523Y-103231904D02*
X201974523Y-102431904D01*
X202279285Y-102431904D01*
X202355476Y-102470000D01*
X202393571Y-102508095D01*
X202431666Y-102584285D01*
X202431666Y-102698571D01*
X202393571Y-102774761D01*
X202355476Y-102812857D01*
X202279285Y-102850952D01*
X201974523Y-102850952D01*
X203117380Y-102698571D02*
X203117380Y-103231904D01*
X202926904Y-102393809D02*
X202736428Y-102965238D01*
X203231666Y-102965238D01*
%TO.C,R3*%
X202431666Y-101961904D02*
X202165000Y-101580952D01*
X201974523Y-101961904D02*
X201974523Y-101161904D01*
X202279285Y-101161904D01*
X202355476Y-101200000D01*
X202393571Y-101238095D01*
X202431666Y-101314285D01*
X202431666Y-101428571D01*
X202393571Y-101504761D01*
X202355476Y-101542857D01*
X202279285Y-101580952D01*
X201974523Y-101580952D01*
X202698333Y-101161904D02*
X203193571Y-101161904D01*
X202926904Y-101466666D01*
X203041190Y-101466666D01*
X203117380Y-101504761D01*
X203155476Y-101542857D01*
X203193571Y-101619047D01*
X203193571Y-101809523D01*
X203155476Y-101885714D01*
X203117380Y-101923809D01*
X203041190Y-101961904D01*
X202812619Y-101961904D01*
X202736428Y-101923809D01*
X202698333Y-101885714D01*
%TO.C,R2*%
X202431666Y-100691904D02*
X202165000Y-100310952D01*
X201974523Y-100691904D02*
X201974523Y-99891904D01*
X202279285Y-99891904D01*
X202355476Y-99930000D01*
X202393571Y-99968095D01*
X202431666Y-100044285D01*
X202431666Y-100158571D01*
X202393571Y-100234761D01*
X202355476Y-100272857D01*
X202279285Y-100310952D01*
X201974523Y-100310952D01*
X202736428Y-99968095D02*
X202774523Y-99930000D01*
X202850714Y-99891904D01*
X203041190Y-99891904D01*
X203117380Y-99930000D01*
X203155476Y-99968095D01*
X203193571Y-100044285D01*
X203193571Y-100120476D01*
X203155476Y-100234761D01*
X202698333Y-100691904D01*
X203193571Y-100691904D01*
%TO.C,SW1*%
X160858333Y-105098809D02*
X160972619Y-105136904D01*
X161163095Y-105136904D01*
X161239285Y-105098809D01*
X161277380Y-105060714D01*
X161315476Y-104984523D01*
X161315476Y-104908333D01*
X161277380Y-104832142D01*
X161239285Y-104794047D01*
X161163095Y-104755952D01*
X161010714Y-104717857D01*
X160934523Y-104679761D01*
X160896428Y-104641666D01*
X160858333Y-104565476D01*
X160858333Y-104489285D01*
X160896428Y-104413095D01*
X160934523Y-104375000D01*
X161010714Y-104336904D01*
X161201190Y-104336904D01*
X161315476Y-104375000D01*
X161582142Y-104336904D02*
X161772619Y-105136904D01*
X161925000Y-104565476D01*
X162077380Y-105136904D01*
X162267857Y-104336904D01*
X162991666Y-105136904D02*
X162534523Y-105136904D01*
X162763095Y-105136904D02*
X162763095Y-104336904D01*
X162686904Y-104451190D01*
X162610714Y-104527380D01*
X162534523Y-104565476D01*
%TO.C,SW2*%
X160858333Y-98748809D02*
X160972619Y-98786904D01*
X161163095Y-98786904D01*
X161239285Y-98748809D01*
X161277380Y-98710714D01*
X161315476Y-98634523D01*
X161315476Y-98558333D01*
X161277380Y-98482142D01*
X161239285Y-98444047D01*
X161163095Y-98405952D01*
X161010714Y-98367857D01*
X160934523Y-98329761D01*
X160896428Y-98291666D01*
X160858333Y-98215476D01*
X160858333Y-98139285D01*
X160896428Y-98063095D01*
X160934523Y-98025000D01*
X161010714Y-97986904D01*
X161201190Y-97986904D01*
X161315476Y-98025000D01*
X161582142Y-97986904D02*
X161772619Y-98786904D01*
X161925000Y-98215476D01*
X162077380Y-98786904D01*
X162267857Y-97986904D01*
X162534523Y-98063095D02*
X162572619Y-98025000D01*
X162648809Y-97986904D01*
X162839285Y-97986904D01*
X162915476Y-98025000D01*
X162953571Y-98063095D01*
X162991666Y-98139285D01*
X162991666Y-98215476D01*
X162953571Y-98329761D01*
X162496428Y-98786904D01*
X162991666Y-98786904D01*
%TO.C,U1*%
X190696904Y-107289523D02*
X191344523Y-107289523D01*
X191420714Y-107251428D01*
X191458809Y-107213333D01*
X191496904Y-107137142D01*
X191496904Y-106984761D01*
X191458809Y-106908571D01*
X191420714Y-106870476D01*
X191344523Y-106832380D01*
X190696904Y-106832380D01*
X191496904Y-106032380D02*
X191496904Y-106489523D01*
X191496904Y-106260952D02*
X190696904Y-106260952D01*
X190811190Y-106337142D01*
X190887380Y-106413333D01*
X190925476Y-106489523D01*
%TO.C,R7*%
X202431666Y-99421904D02*
X202165000Y-99040952D01*
X201974523Y-99421904D02*
X201974523Y-98621904D01*
X202279285Y-98621904D01*
X202355476Y-98660000D01*
X202393571Y-98698095D01*
X202431666Y-98774285D01*
X202431666Y-98888571D01*
X202393571Y-98964761D01*
X202355476Y-99002857D01*
X202279285Y-99040952D01*
X201974523Y-99040952D01*
X202698333Y-98621904D02*
X203231666Y-98621904D01*
X202888809Y-99421904D01*
%TO.C,C11*%
X167925714Y-97034285D02*
X167963809Y-97072380D01*
X168001904Y-97186666D01*
X168001904Y-97262857D01*
X167963809Y-97377142D01*
X167887619Y-97453333D01*
X167811428Y-97491428D01*
X167659047Y-97529523D01*
X167544761Y-97529523D01*
X167392380Y-97491428D01*
X167316190Y-97453333D01*
X167240000Y-97377142D01*
X167201904Y-97262857D01*
X167201904Y-97186666D01*
X167240000Y-97072380D01*
X167278095Y-97034285D01*
X168001904Y-96272380D02*
X168001904Y-96729523D01*
X168001904Y-96500952D02*
X167201904Y-96500952D01*
X167316190Y-96577142D01*
X167392380Y-96653333D01*
X167430476Y-96729523D01*
X168001904Y-95510476D02*
X168001904Y-95967619D01*
X168001904Y-95739047D02*
X167201904Y-95739047D01*
X167316190Y-95815238D01*
X167392380Y-95891428D01*
X167430476Y-95967619D01*
%TO.C,C10*%
X173005714Y-97034285D02*
X173043809Y-97072380D01*
X173081904Y-97186666D01*
X173081904Y-97262857D01*
X173043809Y-97377142D01*
X172967619Y-97453333D01*
X172891428Y-97491428D01*
X172739047Y-97529523D01*
X172624761Y-97529523D01*
X172472380Y-97491428D01*
X172396190Y-97453333D01*
X172320000Y-97377142D01*
X172281904Y-97262857D01*
X172281904Y-97186666D01*
X172320000Y-97072380D01*
X172358095Y-97034285D01*
X173081904Y-96272380D02*
X173081904Y-96729523D01*
X173081904Y-96500952D02*
X172281904Y-96500952D01*
X172396190Y-96577142D01*
X172472380Y-96653333D01*
X172510476Y-96729523D01*
X172281904Y-95777142D02*
X172281904Y-95700952D01*
X172320000Y-95624761D01*
X172358095Y-95586666D01*
X172434285Y-95548571D01*
X172586666Y-95510476D01*
X172777142Y-95510476D01*
X172929523Y-95548571D01*
X173005714Y-95586666D01*
X173043809Y-95624761D01*
X173081904Y-95700952D01*
X173081904Y-95777142D01*
X173043809Y-95853333D01*
X173005714Y-95891428D01*
X172929523Y-95929523D01*
X172777142Y-95967619D01*
X172586666Y-95967619D01*
X172434285Y-95929523D01*
X172358095Y-95891428D01*
X172320000Y-95853333D01*
X172281904Y-95777142D01*
%TO.C,Y2*%
X169799047Y-96500952D02*
X169799047Y-96881904D01*
X169532380Y-96081904D02*
X169799047Y-96500952D01*
X170065714Y-96081904D01*
X170294285Y-96158095D02*
X170332380Y-96120000D01*
X170408571Y-96081904D01*
X170599047Y-96081904D01*
X170675238Y-96120000D01*
X170713333Y-96158095D01*
X170751428Y-96234285D01*
X170751428Y-96310476D01*
X170713333Y-96424761D01*
X170256190Y-96881904D01*
X170751428Y-96881904D01*
%TO.C,Y1*%
X169799047Y-107168952D02*
X169799047Y-107549904D01*
X169532380Y-106749904D02*
X169799047Y-107168952D01*
X170065714Y-106749904D01*
X170751428Y-107549904D02*
X170294285Y-107549904D01*
X170522857Y-107549904D02*
X170522857Y-106749904D01*
X170446666Y-106864190D01*
X170370476Y-106940380D01*
X170294285Y-106978476D01*
%TO.C,C9*%
X167925714Y-103638333D02*
X167963809Y-103676428D01*
X168001904Y-103790714D01*
X168001904Y-103866904D01*
X167963809Y-103981190D01*
X167887619Y-104057380D01*
X167811428Y-104095476D01*
X167659047Y-104133571D01*
X167544761Y-104133571D01*
X167392380Y-104095476D01*
X167316190Y-104057380D01*
X167240000Y-103981190D01*
X167201904Y-103866904D01*
X167201904Y-103790714D01*
X167240000Y-103676428D01*
X167278095Y-103638333D01*
X168001904Y-103257380D02*
X168001904Y-103105000D01*
X167963809Y-103028809D01*
X167925714Y-102990714D01*
X167811428Y-102914523D01*
X167659047Y-102876428D01*
X167354285Y-102876428D01*
X167278095Y-102914523D01*
X167240000Y-102952619D01*
X167201904Y-103028809D01*
X167201904Y-103181190D01*
X167240000Y-103257380D01*
X167278095Y-103295476D01*
X167354285Y-103333571D01*
X167544761Y-103333571D01*
X167620952Y-103295476D01*
X167659047Y-103257380D01*
X167697142Y-103181190D01*
X167697142Y-103028809D01*
X167659047Y-102952619D01*
X167620952Y-102914523D01*
X167544761Y-102876428D01*
%TO.C,C8*%
X167925714Y-100082333D02*
X167963809Y-100120428D01*
X168001904Y-100234714D01*
X168001904Y-100310904D01*
X167963809Y-100425190D01*
X167887619Y-100501380D01*
X167811428Y-100539476D01*
X167659047Y-100577571D01*
X167544761Y-100577571D01*
X167392380Y-100539476D01*
X167316190Y-100501380D01*
X167240000Y-100425190D01*
X167201904Y-100310904D01*
X167201904Y-100234714D01*
X167240000Y-100120428D01*
X167278095Y-100082333D01*
X167544761Y-99625190D02*
X167506666Y-99701380D01*
X167468571Y-99739476D01*
X167392380Y-99777571D01*
X167354285Y-99777571D01*
X167278095Y-99739476D01*
X167240000Y-99701380D01*
X167201904Y-99625190D01*
X167201904Y-99472809D01*
X167240000Y-99396619D01*
X167278095Y-99358523D01*
X167354285Y-99320428D01*
X167392380Y-99320428D01*
X167468571Y-99358523D01*
X167506666Y-99396619D01*
X167544761Y-99472809D01*
X167544761Y-99625190D01*
X167582857Y-99701380D01*
X167620952Y-99739476D01*
X167697142Y-99777571D01*
X167849523Y-99777571D01*
X167925714Y-99739476D01*
X167963809Y-99701380D01*
X168001904Y-99625190D01*
X168001904Y-99472809D01*
X167963809Y-99396619D01*
X167925714Y-99358523D01*
X167849523Y-99320428D01*
X167697142Y-99320428D01*
X167620952Y-99358523D01*
X167582857Y-99396619D01*
X167544761Y-99472809D01*
%TO.C,R6*%
X202431666Y-104501904D02*
X202165000Y-104120952D01*
X201974523Y-104501904D02*
X201974523Y-103701904D01*
X202279285Y-103701904D01*
X202355476Y-103740000D01*
X202393571Y-103778095D01*
X202431666Y-103854285D01*
X202431666Y-103968571D01*
X202393571Y-104044761D01*
X202355476Y-104082857D01*
X202279285Y-104120952D01*
X201974523Y-104120952D01*
X203117380Y-103701904D02*
X202965000Y-103701904D01*
X202888809Y-103740000D01*
X202850714Y-103778095D01*
X202774523Y-103892380D01*
X202736428Y-104044761D01*
X202736428Y-104349523D01*
X202774523Y-104425714D01*
X202812619Y-104463809D01*
X202888809Y-104501904D01*
X203041190Y-104501904D01*
X203117380Y-104463809D01*
X203155476Y-104425714D01*
X203193571Y-104349523D01*
X203193571Y-104159047D01*
X203155476Y-104082857D01*
X203117380Y-104044761D01*
X203041190Y-104006666D01*
X202888809Y-104006666D01*
X202812619Y-104044761D01*
X202774523Y-104082857D01*
X202736428Y-104159047D01*
%TO.C,R9*%
X189096666Y-100437904D02*
X188830000Y-100056952D01*
X188639523Y-100437904D02*
X188639523Y-99637904D01*
X188944285Y-99637904D01*
X189020476Y-99676000D01*
X189058571Y-99714095D01*
X189096666Y-99790285D01*
X189096666Y-99904571D01*
X189058571Y-99980761D01*
X189020476Y-100018857D01*
X188944285Y-100056952D01*
X188639523Y-100056952D01*
X189477619Y-100437904D02*
X189630000Y-100437904D01*
X189706190Y-100399809D01*
X189744285Y-100361714D01*
X189820476Y-100247428D01*
X189858571Y-100095047D01*
X189858571Y-99790285D01*
X189820476Y-99714095D01*
X189782380Y-99676000D01*
X189706190Y-99637904D01*
X189553809Y-99637904D01*
X189477619Y-99676000D01*
X189439523Y-99714095D01*
X189401428Y-99790285D01*
X189401428Y-99980761D01*
X189439523Y-100056952D01*
X189477619Y-100095047D01*
X189553809Y-100133142D01*
X189706190Y-100133142D01*
X189782380Y-100095047D01*
X189820476Y-100056952D01*
X189858571Y-99980761D01*
%TO.C,R1*%
X153536666Y-108057904D02*
X153270000Y-107676952D01*
X153079523Y-108057904D02*
X153079523Y-107257904D01*
X153384285Y-107257904D01*
X153460476Y-107296000D01*
X153498571Y-107334095D01*
X153536666Y-107410285D01*
X153536666Y-107524571D01*
X153498571Y-107600761D01*
X153460476Y-107638857D01*
X153384285Y-107676952D01*
X153079523Y-107676952D01*
X154298571Y-108057904D02*
X153841428Y-108057904D01*
X154070000Y-108057904D02*
X154070000Y-107257904D01*
X153993809Y-107372190D01*
X153917619Y-107448380D01*
X153841428Y-107486476D01*
%TO.C,D3*%
X191179523Y-102469904D02*
X191179523Y-101669904D01*
X191370000Y-101669904D01*
X191484285Y-101708000D01*
X191560476Y-101784190D01*
X191598571Y-101860380D01*
X191636666Y-102012761D01*
X191636666Y-102127047D01*
X191598571Y-102279428D01*
X191560476Y-102355619D01*
X191484285Y-102431809D01*
X191370000Y-102469904D01*
X191179523Y-102469904D01*
X191903333Y-101669904D02*
X192398571Y-101669904D01*
X192131904Y-101974666D01*
X192246190Y-101974666D01*
X192322380Y-102012761D01*
X192360476Y-102050857D01*
X192398571Y-102127047D01*
X192398571Y-102317523D01*
X192360476Y-102393714D01*
X192322380Y-102431809D01*
X192246190Y-102469904D01*
X192017619Y-102469904D01*
X191941428Y-102431809D01*
X191903333Y-102393714D01*
%TO.C,D2*%
X191179523Y-98151904D02*
X191179523Y-97351904D01*
X191370000Y-97351904D01*
X191484285Y-97390000D01*
X191560476Y-97466190D01*
X191598571Y-97542380D01*
X191636666Y-97694761D01*
X191636666Y-97809047D01*
X191598571Y-97961428D01*
X191560476Y-98037619D01*
X191484285Y-98113809D01*
X191370000Y-98151904D01*
X191179523Y-98151904D01*
X191941428Y-97428095D02*
X191979523Y-97390000D01*
X192055714Y-97351904D01*
X192246190Y-97351904D01*
X192322380Y-97390000D01*
X192360476Y-97428095D01*
X192398571Y-97504285D01*
X192398571Y-97580476D01*
X192360476Y-97694761D01*
X191903333Y-98151904D01*
X192398571Y-98151904D01*
%TO.C,C2*%
X156076666Y-107981714D02*
X156038571Y-108019809D01*
X155924285Y-108057904D01*
X155848095Y-108057904D01*
X155733809Y-108019809D01*
X155657619Y-107943619D01*
X155619523Y-107867428D01*
X155581428Y-107715047D01*
X155581428Y-107600761D01*
X155619523Y-107448380D01*
X155657619Y-107372190D01*
X155733809Y-107296000D01*
X155848095Y-107257904D01*
X155924285Y-107257904D01*
X156038571Y-107296000D01*
X156076666Y-107334095D01*
X156381428Y-107334095D02*
X156419523Y-107296000D01*
X156495714Y-107257904D01*
X156686190Y-107257904D01*
X156762380Y-107296000D01*
X156800476Y-107334095D01*
X156838571Y-107410285D01*
X156838571Y-107486476D01*
X156800476Y-107600761D01*
X156343333Y-108057904D01*
X156838571Y-108057904D01*
%TO.C,D1*%
X195306904Y-97110476D02*
X194506904Y-97110476D01*
X194506904Y-96920000D01*
X194545000Y-96805714D01*
X194621190Y-96729523D01*
X194697380Y-96691428D01*
X194849761Y-96653333D01*
X194964047Y-96653333D01*
X195116428Y-96691428D01*
X195192619Y-96729523D01*
X195268809Y-96805714D01*
X195306904Y-96920000D01*
X195306904Y-97110476D01*
X195306904Y-95891428D02*
X195306904Y-96348571D01*
X195306904Y-96120000D02*
X194506904Y-96120000D01*
X194621190Y-96196190D01*
X194697380Y-96272380D01*
X194735476Y-96348571D01*
%TO.C,C7*%
X174529714Y-103638333D02*
X174567809Y-103676428D01*
X174605904Y-103790714D01*
X174605904Y-103866904D01*
X174567809Y-103981190D01*
X174491619Y-104057380D01*
X174415428Y-104095476D01*
X174263047Y-104133571D01*
X174148761Y-104133571D01*
X173996380Y-104095476D01*
X173920190Y-104057380D01*
X173844000Y-103981190D01*
X173805904Y-103866904D01*
X173805904Y-103790714D01*
X173844000Y-103676428D01*
X173882095Y-103638333D01*
X173805904Y-103371666D02*
X173805904Y-102838333D01*
X174605904Y-103181190D01*
%TO.C,C6*%
X173856666Y-106330714D02*
X173818571Y-106368809D01*
X173704285Y-106406904D01*
X173628095Y-106406904D01*
X173513809Y-106368809D01*
X173437619Y-106292619D01*
X173399523Y-106216428D01*
X173361428Y-106064047D01*
X173361428Y-105949761D01*
X173399523Y-105797380D01*
X173437619Y-105721190D01*
X173513809Y-105645000D01*
X173628095Y-105606904D01*
X173704285Y-105606904D01*
X173818571Y-105645000D01*
X173856666Y-105683095D01*
X174542380Y-105606904D02*
X174390000Y-105606904D01*
X174313809Y-105645000D01*
X174275714Y-105683095D01*
X174199523Y-105797380D01*
X174161428Y-105949761D01*
X174161428Y-106254523D01*
X174199523Y-106330714D01*
X174237619Y-106368809D01*
X174313809Y-106406904D01*
X174466190Y-106406904D01*
X174542380Y-106368809D01*
X174580476Y-106330714D01*
X174618571Y-106254523D01*
X174618571Y-106064047D01*
X174580476Y-105987857D01*
X174542380Y-105949761D01*
X174466190Y-105911666D01*
X174313809Y-105911666D01*
X174237619Y-105949761D01*
X174199523Y-105987857D01*
X174161428Y-106064047D01*
%TO.C,C5*%
X178301666Y-95789714D02*
X178263571Y-95827809D01*
X178149285Y-95865904D01*
X178073095Y-95865904D01*
X177958809Y-95827809D01*
X177882619Y-95751619D01*
X177844523Y-95675428D01*
X177806428Y-95523047D01*
X177806428Y-95408761D01*
X177844523Y-95256380D01*
X177882619Y-95180190D01*
X177958809Y-95104000D01*
X178073095Y-95065904D01*
X178149285Y-95065904D01*
X178263571Y-95104000D01*
X178301666Y-95142095D01*
X179025476Y-95065904D02*
X178644523Y-95065904D01*
X178606428Y-95446857D01*
X178644523Y-95408761D01*
X178720714Y-95370666D01*
X178911190Y-95370666D01*
X178987380Y-95408761D01*
X179025476Y-95446857D01*
X179063571Y-95523047D01*
X179063571Y-95713523D01*
X179025476Y-95789714D01*
X178987380Y-95827809D01*
X178911190Y-95865904D01*
X178720714Y-95865904D01*
X178644523Y-95827809D01*
X178606428Y-95789714D01*
%TO.C,C4*%
X187610714Y-98558333D02*
X187648809Y-98596428D01*
X187686904Y-98710714D01*
X187686904Y-98786904D01*
X187648809Y-98901190D01*
X187572619Y-98977380D01*
X187496428Y-99015476D01*
X187344047Y-99053571D01*
X187229761Y-99053571D01*
X187077380Y-99015476D01*
X187001190Y-98977380D01*
X186925000Y-98901190D01*
X186886904Y-98786904D01*
X186886904Y-98710714D01*
X186925000Y-98596428D01*
X186963095Y-98558333D01*
X187153571Y-97872619D02*
X187686904Y-97872619D01*
X186848809Y-98063095D02*
X187420238Y-98253571D01*
X187420238Y-97758333D01*
%TD*%
M02*
