%TF.GenerationSoftware,KiCad,Pcbnew,5.1.7+dfsg1-1*%
%TF.CreationDate,2020-11-03T09:55:16+08:00*%
%TF.ProjectId,gp,67702e6b-6963-4616-945f-706362585858,c*%
%TF.SameCoordinates,Original*%
%TF.FileFunction,Soldermask,Top*%
%TF.FilePolarity,Negative*%
%FSLAX46Y46*%
G04 Gerber Fmt 4.6, Leading zero omitted, Abs format (unit mm)*
G04 Created by KiCad (PCBNEW 5.1.7+dfsg1-1) date 2020-11-03 09:55:16*
%MOMM*%
%LPD*%
G01*
G04 APERTURE LIST*
%ADD10O,1.800000X1.800000*%
%ADD11O,2.200000X1.100000*%
%ADD12C,0.750000*%
%ADD13O,1.700000X1.100000*%
G04 APERTURE END LIST*
D10*
%TO.C,J2*%
X153035000Y-99060000D03*
X155575000Y-99060000D03*
X153035000Y-101600000D03*
X155575000Y-101600000D03*
X153035000Y-104140000D03*
G36*
G01*
X156475000Y-103290000D02*
X156475000Y-104990000D01*
G75*
G02*
X156425000Y-105040000I-50000J0D01*
G01*
X154725000Y-105040000D01*
G75*
G02*
X154675000Y-104990000I0J50000D01*
G01*
X154675000Y-103290000D01*
G75*
G02*
X154725000Y-103240000I50000J0D01*
G01*
X156425000Y-103240000D01*
G75*
G02*
X156475000Y-103290000I0J-50000D01*
G01*
G37*
%TD*%
%TO.C,U2*%
G36*
G01*
X175796838Y-101228770D02*
X174824566Y-100256498D01*
G75*
G02*
X174824566Y-100115076I70711J70711D01*
G01*
X174965988Y-99973654D01*
G75*
G02*
X175107410Y-99973654I70711J-70711D01*
G01*
X176079682Y-100945926D01*
G75*
G02*
X176079682Y-101087348I-70711J-70711D01*
G01*
X175938260Y-101228770D01*
G75*
G02*
X175796838Y-101228770I-70711J70711D01*
G01*
G37*
G36*
G01*
X176150392Y-100875216D02*
X175178120Y-99902944D01*
G75*
G02*
X175178120Y-99761522I70711J70711D01*
G01*
X175319542Y-99620100D01*
G75*
G02*
X175460964Y-99620100I70711J-70711D01*
G01*
X176433236Y-100592372D01*
G75*
G02*
X176433236Y-100733794I-70711J-70711D01*
G01*
X176291814Y-100875216D01*
G75*
G02*
X176150392Y-100875216I-70711J70711D01*
G01*
G37*
G36*
G01*
X176503945Y-100521663D02*
X175531673Y-99549391D01*
G75*
G02*
X175531673Y-99407969I70711J70711D01*
G01*
X175673095Y-99266547D01*
G75*
G02*
X175814517Y-99266547I70711J-70711D01*
G01*
X176786789Y-100238819D01*
G75*
G02*
X176786789Y-100380241I-70711J-70711D01*
G01*
X176645367Y-100521663D01*
G75*
G02*
X176503945Y-100521663I-70711J70711D01*
G01*
G37*
G36*
G01*
X176857499Y-100168109D02*
X175885227Y-99195837D01*
G75*
G02*
X175885227Y-99054415I70711J70711D01*
G01*
X176026649Y-98912993D01*
G75*
G02*
X176168071Y-98912993I70711J-70711D01*
G01*
X177140343Y-99885265D01*
G75*
G02*
X177140343Y-100026687I-70711J-70711D01*
G01*
X176998921Y-100168109D01*
G75*
G02*
X176857499Y-100168109I-70711J70711D01*
G01*
G37*
G36*
G01*
X177211052Y-99814556D02*
X176238780Y-98842284D01*
G75*
G02*
X176238780Y-98700862I70711J70711D01*
G01*
X176380202Y-98559440D01*
G75*
G02*
X176521624Y-98559440I70711J-70711D01*
G01*
X177493896Y-99531712D01*
G75*
G02*
X177493896Y-99673134I-70711J-70711D01*
G01*
X177352474Y-99814556D01*
G75*
G02*
X177211052Y-99814556I-70711J70711D01*
G01*
G37*
G36*
G01*
X177564605Y-99461003D02*
X176592333Y-98488731D01*
G75*
G02*
X176592333Y-98347309I70711J70711D01*
G01*
X176733755Y-98205887D01*
G75*
G02*
X176875177Y-98205887I70711J-70711D01*
G01*
X177847449Y-99178159D01*
G75*
G02*
X177847449Y-99319581I-70711J-70711D01*
G01*
X177706027Y-99461003D01*
G75*
G02*
X177564605Y-99461003I-70711J70711D01*
G01*
G37*
G36*
G01*
X177918159Y-99107449D02*
X176945887Y-98135177D01*
G75*
G02*
X176945887Y-97993755I70711J70711D01*
G01*
X177087309Y-97852333D01*
G75*
G02*
X177228731Y-97852333I70711J-70711D01*
G01*
X178201003Y-98824605D01*
G75*
G02*
X178201003Y-98966027I-70711J-70711D01*
G01*
X178059581Y-99107449D01*
G75*
G02*
X177918159Y-99107449I-70711J70711D01*
G01*
G37*
G36*
G01*
X178271712Y-98753896D02*
X177299440Y-97781624D01*
G75*
G02*
X177299440Y-97640202I70711J70711D01*
G01*
X177440862Y-97498780D01*
G75*
G02*
X177582284Y-97498780I70711J-70711D01*
G01*
X178554556Y-98471052D01*
G75*
G02*
X178554556Y-98612474I-70711J-70711D01*
G01*
X178413134Y-98753896D01*
G75*
G02*
X178271712Y-98753896I-70711J70711D01*
G01*
G37*
G36*
G01*
X178625265Y-98400343D02*
X177652993Y-97428071D01*
G75*
G02*
X177652993Y-97286649I70711J70711D01*
G01*
X177794415Y-97145227D01*
G75*
G02*
X177935837Y-97145227I70711J-70711D01*
G01*
X178908109Y-98117499D01*
G75*
G02*
X178908109Y-98258921I-70711J-70711D01*
G01*
X178766687Y-98400343D01*
G75*
G02*
X178625265Y-98400343I-70711J70711D01*
G01*
G37*
G36*
G01*
X178978819Y-98046789D02*
X178006547Y-97074517D01*
G75*
G02*
X178006547Y-96933095I70711J70711D01*
G01*
X178147969Y-96791673D01*
G75*
G02*
X178289391Y-96791673I70711J-70711D01*
G01*
X179261663Y-97763945D01*
G75*
G02*
X179261663Y-97905367I-70711J-70711D01*
G01*
X179120241Y-98046789D01*
G75*
G02*
X178978819Y-98046789I-70711J70711D01*
G01*
G37*
G36*
G01*
X179332372Y-97693236D02*
X178360100Y-96720964D01*
G75*
G02*
X178360100Y-96579542I70711J70711D01*
G01*
X178501522Y-96438120D01*
G75*
G02*
X178642944Y-96438120I70711J-70711D01*
G01*
X179615216Y-97410392D01*
G75*
G02*
X179615216Y-97551814I-70711J-70711D01*
G01*
X179473794Y-97693236D01*
G75*
G02*
X179332372Y-97693236I-70711J70711D01*
G01*
G37*
G36*
G01*
X179685926Y-97339682D02*
X178713654Y-96367410D01*
G75*
G02*
X178713654Y-96225988I70711J70711D01*
G01*
X178855076Y-96084566D01*
G75*
G02*
X178996498Y-96084566I70711J-70711D01*
G01*
X179968770Y-97056838D01*
G75*
G02*
X179968770Y-97198260I-70711J-70711D01*
G01*
X179827348Y-97339682D01*
G75*
G02*
X179685926Y-97339682I-70711J70711D01*
G01*
G37*
G36*
G01*
X180852652Y-97339682D02*
X180711230Y-97198260D01*
G75*
G02*
X180711230Y-97056838I70711J70711D01*
G01*
X181683502Y-96084566D01*
G75*
G02*
X181824924Y-96084566I70711J-70711D01*
G01*
X181966346Y-96225988D01*
G75*
G02*
X181966346Y-96367410I-70711J-70711D01*
G01*
X180994074Y-97339682D01*
G75*
G02*
X180852652Y-97339682I-70711J70711D01*
G01*
G37*
G36*
G01*
X181206206Y-97693236D02*
X181064784Y-97551814D01*
G75*
G02*
X181064784Y-97410392I70711J70711D01*
G01*
X182037056Y-96438120D01*
G75*
G02*
X182178478Y-96438120I70711J-70711D01*
G01*
X182319900Y-96579542D01*
G75*
G02*
X182319900Y-96720964I-70711J-70711D01*
G01*
X181347628Y-97693236D01*
G75*
G02*
X181206206Y-97693236I-70711J70711D01*
G01*
G37*
G36*
G01*
X181559759Y-98046789D02*
X181418337Y-97905367D01*
G75*
G02*
X181418337Y-97763945I70711J70711D01*
G01*
X182390609Y-96791673D01*
G75*
G02*
X182532031Y-96791673I70711J-70711D01*
G01*
X182673453Y-96933095D01*
G75*
G02*
X182673453Y-97074517I-70711J-70711D01*
G01*
X181701181Y-98046789D01*
G75*
G02*
X181559759Y-98046789I-70711J70711D01*
G01*
G37*
G36*
G01*
X181913313Y-98400343D02*
X181771891Y-98258921D01*
G75*
G02*
X181771891Y-98117499I70711J70711D01*
G01*
X182744163Y-97145227D01*
G75*
G02*
X182885585Y-97145227I70711J-70711D01*
G01*
X183027007Y-97286649D01*
G75*
G02*
X183027007Y-97428071I-70711J-70711D01*
G01*
X182054735Y-98400343D01*
G75*
G02*
X181913313Y-98400343I-70711J70711D01*
G01*
G37*
G36*
G01*
X182266866Y-98753896D02*
X182125444Y-98612474D01*
G75*
G02*
X182125444Y-98471052I70711J70711D01*
G01*
X183097716Y-97498780D01*
G75*
G02*
X183239138Y-97498780I70711J-70711D01*
G01*
X183380560Y-97640202D01*
G75*
G02*
X183380560Y-97781624I-70711J-70711D01*
G01*
X182408288Y-98753896D01*
G75*
G02*
X182266866Y-98753896I-70711J70711D01*
G01*
G37*
G36*
G01*
X182620419Y-99107449D02*
X182478997Y-98966027D01*
G75*
G02*
X182478997Y-98824605I70711J70711D01*
G01*
X183451269Y-97852333D01*
G75*
G02*
X183592691Y-97852333I70711J-70711D01*
G01*
X183734113Y-97993755D01*
G75*
G02*
X183734113Y-98135177I-70711J-70711D01*
G01*
X182761841Y-99107449D01*
G75*
G02*
X182620419Y-99107449I-70711J70711D01*
G01*
G37*
G36*
G01*
X182973973Y-99461003D02*
X182832551Y-99319581D01*
G75*
G02*
X182832551Y-99178159I70711J70711D01*
G01*
X183804823Y-98205887D01*
G75*
G02*
X183946245Y-98205887I70711J-70711D01*
G01*
X184087667Y-98347309D01*
G75*
G02*
X184087667Y-98488731I-70711J-70711D01*
G01*
X183115395Y-99461003D01*
G75*
G02*
X182973973Y-99461003I-70711J70711D01*
G01*
G37*
G36*
G01*
X183327526Y-99814556D02*
X183186104Y-99673134D01*
G75*
G02*
X183186104Y-99531712I70711J70711D01*
G01*
X184158376Y-98559440D01*
G75*
G02*
X184299798Y-98559440I70711J-70711D01*
G01*
X184441220Y-98700862D01*
G75*
G02*
X184441220Y-98842284I-70711J-70711D01*
G01*
X183468948Y-99814556D01*
G75*
G02*
X183327526Y-99814556I-70711J70711D01*
G01*
G37*
G36*
G01*
X183681079Y-100168109D02*
X183539657Y-100026687D01*
G75*
G02*
X183539657Y-99885265I70711J70711D01*
G01*
X184511929Y-98912993D01*
G75*
G02*
X184653351Y-98912993I70711J-70711D01*
G01*
X184794773Y-99054415D01*
G75*
G02*
X184794773Y-99195837I-70711J-70711D01*
G01*
X183822501Y-100168109D01*
G75*
G02*
X183681079Y-100168109I-70711J70711D01*
G01*
G37*
G36*
G01*
X184034633Y-100521663D02*
X183893211Y-100380241D01*
G75*
G02*
X183893211Y-100238819I70711J70711D01*
G01*
X184865483Y-99266547D01*
G75*
G02*
X185006905Y-99266547I70711J-70711D01*
G01*
X185148327Y-99407969D01*
G75*
G02*
X185148327Y-99549391I-70711J-70711D01*
G01*
X184176055Y-100521663D01*
G75*
G02*
X184034633Y-100521663I-70711J70711D01*
G01*
G37*
G36*
G01*
X184388186Y-100875216D02*
X184246764Y-100733794D01*
G75*
G02*
X184246764Y-100592372I70711J70711D01*
G01*
X185219036Y-99620100D01*
G75*
G02*
X185360458Y-99620100I70711J-70711D01*
G01*
X185501880Y-99761522D01*
G75*
G02*
X185501880Y-99902944I-70711J-70711D01*
G01*
X184529608Y-100875216D01*
G75*
G02*
X184388186Y-100875216I-70711J70711D01*
G01*
G37*
G36*
G01*
X184741740Y-101228770D02*
X184600318Y-101087348D01*
G75*
G02*
X184600318Y-100945926I70711J70711D01*
G01*
X185572590Y-99973654D01*
G75*
G02*
X185714012Y-99973654I70711J-70711D01*
G01*
X185855434Y-100115076D01*
G75*
G02*
X185855434Y-100256498I-70711J-70711D01*
G01*
X184883162Y-101228770D01*
G75*
G02*
X184741740Y-101228770I-70711J70711D01*
G01*
G37*
G36*
G01*
X185572590Y-103226346D02*
X184600318Y-102254074D01*
G75*
G02*
X184600318Y-102112652I70711J70711D01*
G01*
X184741740Y-101971230D01*
G75*
G02*
X184883162Y-101971230I70711J-70711D01*
G01*
X185855434Y-102943502D01*
G75*
G02*
X185855434Y-103084924I-70711J-70711D01*
G01*
X185714012Y-103226346D01*
G75*
G02*
X185572590Y-103226346I-70711J70711D01*
G01*
G37*
G36*
G01*
X185219036Y-103579900D02*
X184246764Y-102607628D01*
G75*
G02*
X184246764Y-102466206I70711J70711D01*
G01*
X184388186Y-102324784D01*
G75*
G02*
X184529608Y-102324784I70711J-70711D01*
G01*
X185501880Y-103297056D01*
G75*
G02*
X185501880Y-103438478I-70711J-70711D01*
G01*
X185360458Y-103579900D01*
G75*
G02*
X185219036Y-103579900I-70711J70711D01*
G01*
G37*
G36*
G01*
X184865483Y-103933453D02*
X183893211Y-102961181D01*
G75*
G02*
X183893211Y-102819759I70711J70711D01*
G01*
X184034633Y-102678337D01*
G75*
G02*
X184176055Y-102678337I70711J-70711D01*
G01*
X185148327Y-103650609D01*
G75*
G02*
X185148327Y-103792031I-70711J-70711D01*
G01*
X185006905Y-103933453D01*
G75*
G02*
X184865483Y-103933453I-70711J70711D01*
G01*
G37*
G36*
G01*
X184511929Y-104287007D02*
X183539657Y-103314735D01*
G75*
G02*
X183539657Y-103173313I70711J70711D01*
G01*
X183681079Y-103031891D01*
G75*
G02*
X183822501Y-103031891I70711J-70711D01*
G01*
X184794773Y-104004163D01*
G75*
G02*
X184794773Y-104145585I-70711J-70711D01*
G01*
X184653351Y-104287007D01*
G75*
G02*
X184511929Y-104287007I-70711J70711D01*
G01*
G37*
G36*
G01*
X184158376Y-104640560D02*
X183186104Y-103668288D01*
G75*
G02*
X183186104Y-103526866I70711J70711D01*
G01*
X183327526Y-103385444D01*
G75*
G02*
X183468948Y-103385444I70711J-70711D01*
G01*
X184441220Y-104357716D01*
G75*
G02*
X184441220Y-104499138I-70711J-70711D01*
G01*
X184299798Y-104640560D01*
G75*
G02*
X184158376Y-104640560I-70711J70711D01*
G01*
G37*
G36*
G01*
X183804823Y-104994113D02*
X182832551Y-104021841D01*
G75*
G02*
X182832551Y-103880419I70711J70711D01*
G01*
X182973973Y-103738997D01*
G75*
G02*
X183115395Y-103738997I70711J-70711D01*
G01*
X184087667Y-104711269D01*
G75*
G02*
X184087667Y-104852691I-70711J-70711D01*
G01*
X183946245Y-104994113D01*
G75*
G02*
X183804823Y-104994113I-70711J70711D01*
G01*
G37*
G36*
G01*
X183451269Y-105347667D02*
X182478997Y-104375395D01*
G75*
G02*
X182478997Y-104233973I70711J70711D01*
G01*
X182620419Y-104092551D01*
G75*
G02*
X182761841Y-104092551I70711J-70711D01*
G01*
X183734113Y-105064823D01*
G75*
G02*
X183734113Y-105206245I-70711J-70711D01*
G01*
X183592691Y-105347667D01*
G75*
G02*
X183451269Y-105347667I-70711J70711D01*
G01*
G37*
G36*
G01*
X183097716Y-105701220D02*
X182125444Y-104728948D01*
G75*
G02*
X182125444Y-104587526I70711J70711D01*
G01*
X182266866Y-104446104D01*
G75*
G02*
X182408288Y-104446104I70711J-70711D01*
G01*
X183380560Y-105418376D01*
G75*
G02*
X183380560Y-105559798I-70711J-70711D01*
G01*
X183239138Y-105701220D01*
G75*
G02*
X183097716Y-105701220I-70711J70711D01*
G01*
G37*
G36*
G01*
X182744163Y-106054773D02*
X181771891Y-105082501D01*
G75*
G02*
X181771891Y-104941079I70711J70711D01*
G01*
X181913313Y-104799657D01*
G75*
G02*
X182054735Y-104799657I70711J-70711D01*
G01*
X183027007Y-105771929D01*
G75*
G02*
X183027007Y-105913351I-70711J-70711D01*
G01*
X182885585Y-106054773D01*
G75*
G02*
X182744163Y-106054773I-70711J70711D01*
G01*
G37*
G36*
G01*
X182390609Y-106408327D02*
X181418337Y-105436055D01*
G75*
G02*
X181418337Y-105294633I70711J70711D01*
G01*
X181559759Y-105153211D01*
G75*
G02*
X181701181Y-105153211I70711J-70711D01*
G01*
X182673453Y-106125483D01*
G75*
G02*
X182673453Y-106266905I-70711J-70711D01*
G01*
X182532031Y-106408327D01*
G75*
G02*
X182390609Y-106408327I-70711J70711D01*
G01*
G37*
G36*
G01*
X182037056Y-106761880D02*
X181064784Y-105789608D01*
G75*
G02*
X181064784Y-105648186I70711J70711D01*
G01*
X181206206Y-105506764D01*
G75*
G02*
X181347628Y-105506764I70711J-70711D01*
G01*
X182319900Y-106479036D01*
G75*
G02*
X182319900Y-106620458I-70711J-70711D01*
G01*
X182178478Y-106761880D01*
G75*
G02*
X182037056Y-106761880I-70711J70711D01*
G01*
G37*
G36*
G01*
X181683502Y-107115434D02*
X180711230Y-106143162D01*
G75*
G02*
X180711230Y-106001740I70711J70711D01*
G01*
X180852652Y-105860318D01*
G75*
G02*
X180994074Y-105860318I70711J-70711D01*
G01*
X181966346Y-106832590D01*
G75*
G02*
X181966346Y-106974012I-70711J-70711D01*
G01*
X181824924Y-107115434D01*
G75*
G02*
X181683502Y-107115434I-70711J70711D01*
G01*
G37*
G36*
G01*
X178855076Y-107115434D02*
X178713654Y-106974012D01*
G75*
G02*
X178713654Y-106832590I70711J70711D01*
G01*
X179685926Y-105860318D01*
G75*
G02*
X179827348Y-105860318I70711J-70711D01*
G01*
X179968770Y-106001740D01*
G75*
G02*
X179968770Y-106143162I-70711J-70711D01*
G01*
X178996498Y-107115434D01*
G75*
G02*
X178855076Y-107115434I-70711J70711D01*
G01*
G37*
G36*
G01*
X178501522Y-106761880D02*
X178360100Y-106620458D01*
G75*
G02*
X178360100Y-106479036I70711J70711D01*
G01*
X179332372Y-105506764D01*
G75*
G02*
X179473794Y-105506764I70711J-70711D01*
G01*
X179615216Y-105648186D01*
G75*
G02*
X179615216Y-105789608I-70711J-70711D01*
G01*
X178642944Y-106761880D01*
G75*
G02*
X178501522Y-106761880I-70711J70711D01*
G01*
G37*
G36*
G01*
X178147969Y-106408327D02*
X178006547Y-106266905D01*
G75*
G02*
X178006547Y-106125483I70711J70711D01*
G01*
X178978819Y-105153211D01*
G75*
G02*
X179120241Y-105153211I70711J-70711D01*
G01*
X179261663Y-105294633D01*
G75*
G02*
X179261663Y-105436055I-70711J-70711D01*
G01*
X178289391Y-106408327D01*
G75*
G02*
X178147969Y-106408327I-70711J70711D01*
G01*
G37*
G36*
G01*
X177794415Y-106054773D02*
X177652993Y-105913351D01*
G75*
G02*
X177652993Y-105771929I70711J70711D01*
G01*
X178625265Y-104799657D01*
G75*
G02*
X178766687Y-104799657I70711J-70711D01*
G01*
X178908109Y-104941079D01*
G75*
G02*
X178908109Y-105082501I-70711J-70711D01*
G01*
X177935837Y-106054773D01*
G75*
G02*
X177794415Y-106054773I-70711J70711D01*
G01*
G37*
G36*
G01*
X177440862Y-105701220D02*
X177299440Y-105559798D01*
G75*
G02*
X177299440Y-105418376I70711J70711D01*
G01*
X178271712Y-104446104D01*
G75*
G02*
X178413134Y-104446104I70711J-70711D01*
G01*
X178554556Y-104587526D01*
G75*
G02*
X178554556Y-104728948I-70711J-70711D01*
G01*
X177582284Y-105701220D01*
G75*
G02*
X177440862Y-105701220I-70711J70711D01*
G01*
G37*
G36*
G01*
X177087309Y-105347667D02*
X176945887Y-105206245D01*
G75*
G02*
X176945887Y-105064823I70711J70711D01*
G01*
X177918159Y-104092551D01*
G75*
G02*
X178059581Y-104092551I70711J-70711D01*
G01*
X178201003Y-104233973D01*
G75*
G02*
X178201003Y-104375395I-70711J-70711D01*
G01*
X177228731Y-105347667D01*
G75*
G02*
X177087309Y-105347667I-70711J70711D01*
G01*
G37*
G36*
G01*
X176733755Y-104994113D02*
X176592333Y-104852691D01*
G75*
G02*
X176592333Y-104711269I70711J70711D01*
G01*
X177564605Y-103738997D01*
G75*
G02*
X177706027Y-103738997I70711J-70711D01*
G01*
X177847449Y-103880419D01*
G75*
G02*
X177847449Y-104021841I-70711J-70711D01*
G01*
X176875177Y-104994113D01*
G75*
G02*
X176733755Y-104994113I-70711J70711D01*
G01*
G37*
G36*
G01*
X176380202Y-104640560D02*
X176238780Y-104499138D01*
G75*
G02*
X176238780Y-104357716I70711J70711D01*
G01*
X177211052Y-103385444D01*
G75*
G02*
X177352474Y-103385444I70711J-70711D01*
G01*
X177493896Y-103526866D01*
G75*
G02*
X177493896Y-103668288I-70711J-70711D01*
G01*
X176521624Y-104640560D01*
G75*
G02*
X176380202Y-104640560I-70711J70711D01*
G01*
G37*
G36*
G01*
X176026649Y-104287007D02*
X175885227Y-104145585D01*
G75*
G02*
X175885227Y-104004163I70711J70711D01*
G01*
X176857499Y-103031891D01*
G75*
G02*
X176998921Y-103031891I70711J-70711D01*
G01*
X177140343Y-103173313D01*
G75*
G02*
X177140343Y-103314735I-70711J-70711D01*
G01*
X176168071Y-104287007D01*
G75*
G02*
X176026649Y-104287007I-70711J70711D01*
G01*
G37*
G36*
G01*
X175673095Y-103933453D02*
X175531673Y-103792031D01*
G75*
G02*
X175531673Y-103650609I70711J70711D01*
G01*
X176503945Y-102678337D01*
G75*
G02*
X176645367Y-102678337I70711J-70711D01*
G01*
X176786789Y-102819759D01*
G75*
G02*
X176786789Y-102961181I-70711J-70711D01*
G01*
X175814517Y-103933453D01*
G75*
G02*
X175673095Y-103933453I-70711J70711D01*
G01*
G37*
G36*
G01*
X175319542Y-103579900D02*
X175178120Y-103438478D01*
G75*
G02*
X175178120Y-103297056I70711J70711D01*
G01*
X176150392Y-102324784D01*
G75*
G02*
X176291814Y-102324784I70711J-70711D01*
G01*
X176433236Y-102466206D01*
G75*
G02*
X176433236Y-102607628I-70711J-70711D01*
G01*
X175460964Y-103579900D01*
G75*
G02*
X175319542Y-103579900I-70711J70711D01*
G01*
G37*
G36*
G01*
X174965988Y-103226346D02*
X174824566Y-103084924D01*
G75*
G02*
X174824566Y-102943502I70711J70711D01*
G01*
X175796838Y-101971230D01*
G75*
G02*
X175938260Y-101971230I70711J-70711D01*
G01*
X176079682Y-102112652D01*
G75*
G02*
X176079682Y-102254074I-70711J-70711D01*
G01*
X175107410Y-103226346D01*
G75*
G02*
X174965988Y-103226346I-70711J70711D01*
G01*
G37*
%TD*%
%TO.C,C3*%
G36*
G01*
X189583750Y-105075000D02*
X190146250Y-105075000D01*
G75*
G02*
X190390000Y-105318750I0J-243750D01*
G01*
X190390000Y-105806250D01*
G75*
G02*
X190146250Y-106050000I-243750J0D01*
G01*
X189583750Y-106050000D01*
G75*
G02*
X189340000Y-105806250I0J243750D01*
G01*
X189340000Y-105318750D01*
G75*
G02*
X189583750Y-105075000I243750J0D01*
G01*
G37*
G36*
G01*
X189583750Y-103500000D02*
X190146250Y-103500000D01*
G75*
G02*
X190390000Y-103743750I0J-243750D01*
G01*
X190390000Y-104231250D01*
G75*
G02*
X190146250Y-104475000I-243750J0D01*
G01*
X189583750Y-104475000D01*
G75*
G02*
X189340000Y-104231250I0J243750D01*
G01*
X189340000Y-103743750D01*
G75*
G02*
X189583750Y-103500000I243750J0D01*
G01*
G37*
%TD*%
%TO.C,C1*%
G36*
G01*
X195226250Y-104475000D02*
X194663750Y-104475000D01*
G75*
G02*
X194420000Y-104231250I0J243750D01*
G01*
X194420000Y-103743750D01*
G75*
G02*
X194663750Y-103500000I243750J0D01*
G01*
X195226250Y-103500000D01*
G75*
G02*
X195470000Y-103743750I0J-243750D01*
G01*
X195470000Y-104231250D01*
G75*
G02*
X195226250Y-104475000I-243750J0D01*
G01*
G37*
G36*
G01*
X195226250Y-106050000D02*
X194663750Y-106050000D01*
G75*
G02*
X194420000Y-105806250I0J243750D01*
G01*
X194420000Y-105318750D01*
G75*
G02*
X194663750Y-105075000I243750J0D01*
G01*
X195226250Y-105075000D01*
G75*
G02*
X195470000Y-105318750I0J-243750D01*
G01*
X195470000Y-105806250D01*
G75*
G02*
X195226250Y-106050000I-243750J0D01*
G01*
G37*
%TD*%
%TO.C,R5*%
G36*
G01*
X156070000Y-96322500D02*
X156070000Y-96717500D01*
G75*
G02*
X155897500Y-96890000I-172500J0D01*
G01*
X155552500Y-96890000D01*
G75*
G02*
X155380000Y-96717500I0J172500D01*
G01*
X155380000Y-96322500D01*
G75*
G02*
X155552500Y-96150000I172500J0D01*
G01*
X155897500Y-96150000D01*
G75*
G02*
X156070000Y-96322500I0J-172500D01*
G01*
G37*
G36*
G01*
X157040000Y-96322500D02*
X157040000Y-96717500D01*
G75*
G02*
X156867500Y-96890000I-172500J0D01*
G01*
X156522500Y-96890000D01*
G75*
G02*
X156350000Y-96717500I0J172500D01*
G01*
X156350000Y-96322500D01*
G75*
G02*
X156522500Y-96150000I172500J0D01*
G01*
X156867500Y-96150000D01*
G75*
G02*
X157040000Y-96322500I0J-172500D01*
G01*
G37*
%TD*%
%TO.C,R8*%
G36*
G01*
X189090000Y-98862500D02*
X189090000Y-99257500D01*
G75*
G02*
X188917500Y-99430000I-172500J0D01*
G01*
X188572500Y-99430000D01*
G75*
G02*
X188400000Y-99257500I0J172500D01*
G01*
X188400000Y-98862500D01*
G75*
G02*
X188572500Y-98690000I172500J0D01*
G01*
X188917500Y-98690000D01*
G75*
G02*
X189090000Y-98862500I0J-172500D01*
G01*
G37*
G36*
G01*
X190060000Y-98862500D02*
X190060000Y-99257500D01*
G75*
G02*
X189887500Y-99430000I-172500J0D01*
G01*
X189542500Y-99430000D01*
G75*
G02*
X189370000Y-99257500I0J172500D01*
G01*
X189370000Y-98862500D01*
G75*
G02*
X189542500Y-98690000I172500J0D01*
G01*
X189887500Y-98690000D01*
G75*
G02*
X190060000Y-98862500I0J-172500D01*
G01*
G37*
%TD*%
%TO.C,R4*%
G36*
G01*
X200800000Y-103067500D02*
X200800000Y-102672500D01*
G75*
G02*
X200972500Y-102500000I172500J0D01*
G01*
X201317500Y-102500000D01*
G75*
G02*
X201490000Y-102672500I0J-172500D01*
G01*
X201490000Y-103067500D01*
G75*
G02*
X201317500Y-103240000I-172500J0D01*
G01*
X200972500Y-103240000D01*
G75*
G02*
X200800000Y-103067500I0J172500D01*
G01*
G37*
G36*
G01*
X199830000Y-103067500D02*
X199830000Y-102672500D01*
G75*
G02*
X200002500Y-102500000I172500J0D01*
G01*
X200347500Y-102500000D01*
G75*
G02*
X200520000Y-102672500I0J-172500D01*
G01*
X200520000Y-103067500D01*
G75*
G02*
X200347500Y-103240000I-172500J0D01*
G01*
X200002500Y-103240000D01*
G75*
G02*
X199830000Y-103067500I0J172500D01*
G01*
G37*
%TD*%
%TO.C,R3*%
G36*
G01*
X200800000Y-101797500D02*
X200800000Y-101402500D01*
G75*
G02*
X200972500Y-101230000I172500J0D01*
G01*
X201317500Y-101230000D01*
G75*
G02*
X201490000Y-101402500I0J-172500D01*
G01*
X201490000Y-101797500D01*
G75*
G02*
X201317500Y-101970000I-172500J0D01*
G01*
X200972500Y-101970000D01*
G75*
G02*
X200800000Y-101797500I0J172500D01*
G01*
G37*
G36*
G01*
X199830000Y-101797500D02*
X199830000Y-101402500D01*
G75*
G02*
X200002500Y-101230000I172500J0D01*
G01*
X200347500Y-101230000D01*
G75*
G02*
X200520000Y-101402500I0J-172500D01*
G01*
X200520000Y-101797500D01*
G75*
G02*
X200347500Y-101970000I-172500J0D01*
G01*
X200002500Y-101970000D01*
G75*
G02*
X199830000Y-101797500I0J172500D01*
G01*
G37*
%TD*%
%TO.C,R2*%
G36*
G01*
X200800000Y-100527500D02*
X200800000Y-100132500D01*
G75*
G02*
X200972500Y-99960000I172500J0D01*
G01*
X201317500Y-99960000D01*
G75*
G02*
X201490000Y-100132500I0J-172500D01*
G01*
X201490000Y-100527500D01*
G75*
G02*
X201317500Y-100700000I-172500J0D01*
G01*
X200972500Y-100700000D01*
G75*
G02*
X200800000Y-100527500I0J172500D01*
G01*
G37*
G36*
G01*
X199830000Y-100527500D02*
X199830000Y-100132500D01*
G75*
G02*
X200002500Y-99960000I172500J0D01*
G01*
X200347500Y-99960000D01*
G75*
G02*
X200520000Y-100132500I0J-172500D01*
G01*
X200520000Y-100527500D01*
G75*
G02*
X200347500Y-100700000I-172500J0D01*
G01*
X200002500Y-100700000D01*
G75*
G02*
X199830000Y-100527500I0J172500D01*
G01*
G37*
%TD*%
%TO.C,SW1*%
G36*
G01*
X164175000Y-107175000D02*
X164175000Y-106175000D01*
G75*
G02*
X164225000Y-106125000I50000J0D01*
G01*
X165925000Y-106125000D01*
G75*
G02*
X165975000Y-106175000I0J-50000D01*
G01*
X165975000Y-107175000D01*
G75*
G02*
X165925000Y-107225000I-50000J0D01*
G01*
X164225000Y-107225000D01*
G75*
G02*
X164175000Y-107175000I0J50000D01*
G01*
G37*
G36*
G01*
X157875000Y-107175000D02*
X157875000Y-106175000D01*
G75*
G02*
X157925000Y-106125000I50000J0D01*
G01*
X159625000Y-106125000D01*
G75*
G02*
X159675000Y-106175000I0J-50000D01*
G01*
X159675000Y-107175000D01*
G75*
G02*
X159625000Y-107225000I-50000J0D01*
G01*
X157925000Y-107225000D01*
G75*
G02*
X157875000Y-107175000I0J50000D01*
G01*
G37*
G36*
G01*
X164175000Y-103375000D02*
X164175000Y-102375000D01*
G75*
G02*
X164225000Y-102325000I50000J0D01*
G01*
X165925000Y-102325000D01*
G75*
G02*
X165975000Y-102375000I0J-50000D01*
G01*
X165975000Y-103375000D01*
G75*
G02*
X165925000Y-103425000I-50000J0D01*
G01*
X164225000Y-103425000D01*
G75*
G02*
X164175000Y-103375000I0J50000D01*
G01*
G37*
G36*
G01*
X157875000Y-103375000D02*
X157875000Y-102375000D01*
G75*
G02*
X157925000Y-102325000I50000J0D01*
G01*
X159625000Y-102325000D01*
G75*
G02*
X159675000Y-102375000I0J-50000D01*
G01*
X159675000Y-103375000D01*
G75*
G02*
X159625000Y-103425000I-50000J0D01*
G01*
X157925000Y-103425000D01*
G75*
G02*
X157875000Y-103375000I0J50000D01*
G01*
G37*
%TD*%
%TO.C,SW2*%
G36*
G01*
X164175000Y-100825000D02*
X164175000Y-99825000D01*
G75*
G02*
X164225000Y-99775000I50000J0D01*
G01*
X165925000Y-99775000D01*
G75*
G02*
X165975000Y-99825000I0J-50000D01*
G01*
X165975000Y-100825000D01*
G75*
G02*
X165925000Y-100875000I-50000J0D01*
G01*
X164225000Y-100875000D01*
G75*
G02*
X164175000Y-100825000I0J50000D01*
G01*
G37*
G36*
G01*
X157875000Y-100825000D02*
X157875000Y-99825000D01*
G75*
G02*
X157925000Y-99775000I50000J0D01*
G01*
X159625000Y-99775000D01*
G75*
G02*
X159675000Y-99825000I0J-50000D01*
G01*
X159675000Y-100825000D01*
G75*
G02*
X159625000Y-100875000I-50000J0D01*
G01*
X157925000Y-100875000D01*
G75*
G02*
X157875000Y-100825000I0J50000D01*
G01*
G37*
G36*
G01*
X164175000Y-97025000D02*
X164175000Y-96025000D01*
G75*
G02*
X164225000Y-95975000I50000J0D01*
G01*
X165925000Y-95975000D01*
G75*
G02*
X165975000Y-96025000I0J-50000D01*
G01*
X165975000Y-97025000D01*
G75*
G02*
X165925000Y-97075000I-50000J0D01*
G01*
X164225000Y-97075000D01*
G75*
G02*
X164175000Y-97025000I0J50000D01*
G01*
G37*
G36*
G01*
X157875000Y-97025000D02*
X157875000Y-96025000D01*
G75*
G02*
X157925000Y-95975000I50000J0D01*
G01*
X159625000Y-95975000D01*
G75*
G02*
X159675000Y-96025000I0J-50000D01*
G01*
X159675000Y-97025000D01*
G75*
G02*
X159625000Y-97075000I-50000J0D01*
G01*
X157925000Y-97075000D01*
G75*
G02*
X157875000Y-97025000I0J50000D01*
G01*
G37*
%TD*%
%TO.C,U1*%
G36*
G01*
X192005000Y-105275000D02*
X192805000Y-105275000D01*
G75*
G02*
X192855000Y-105325000I0J-50000D01*
G01*
X192855000Y-106225000D01*
G75*
G02*
X192805000Y-106275000I-50000J0D01*
G01*
X192005000Y-106275000D01*
G75*
G02*
X191955000Y-106225000I0J50000D01*
G01*
X191955000Y-105325000D01*
G75*
G02*
X192005000Y-105275000I50000J0D01*
G01*
G37*
G36*
G01*
X191055000Y-103275000D02*
X191855000Y-103275000D01*
G75*
G02*
X191905000Y-103325000I0J-50000D01*
G01*
X191905000Y-104225000D01*
G75*
G02*
X191855000Y-104275000I-50000J0D01*
G01*
X191055000Y-104275000D01*
G75*
G02*
X191005000Y-104225000I0J50000D01*
G01*
X191005000Y-103325000D01*
G75*
G02*
X191055000Y-103275000I50000J0D01*
G01*
G37*
G36*
G01*
X192955000Y-103275000D02*
X193755000Y-103275000D01*
G75*
G02*
X193805000Y-103325000I0J-50000D01*
G01*
X193805000Y-104225000D01*
G75*
G02*
X193755000Y-104275000I-50000J0D01*
G01*
X192955000Y-104275000D01*
G75*
G02*
X192905000Y-104225000I0J50000D01*
G01*
X192905000Y-103325000D01*
G75*
G02*
X192955000Y-103275000I50000J0D01*
G01*
G37*
%TD*%
%TO.C,R7*%
G36*
G01*
X200800000Y-99257500D02*
X200800000Y-98862500D01*
G75*
G02*
X200972500Y-98690000I172500J0D01*
G01*
X201317500Y-98690000D01*
G75*
G02*
X201490000Y-98862500I0J-172500D01*
G01*
X201490000Y-99257500D01*
G75*
G02*
X201317500Y-99430000I-172500J0D01*
G01*
X200972500Y-99430000D01*
G75*
G02*
X200800000Y-99257500I0J172500D01*
G01*
G37*
G36*
G01*
X199830000Y-99257500D02*
X199830000Y-98862500D01*
G75*
G02*
X200002500Y-98690000I172500J0D01*
G01*
X200347500Y-98690000D01*
G75*
G02*
X200520000Y-98862500I0J-172500D01*
G01*
X200520000Y-99257500D01*
G75*
G02*
X200347500Y-99430000I-172500J0D01*
G01*
X200002500Y-99430000D01*
G75*
G02*
X199830000Y-99257500I0J172500D01*
G01*
G37*
%TD*%
D11*
%TO.C,J1*%
X196895000Y-105920000D03*
X196895000Y-97280000D03*
D12*
X197425000Y-98710000D03*
D13*
X201075000Y-97280000D03*
D12*
X197425000Y-104490000D03*
D13*
X201075000Y-105920000D03*
%TD*%
%TO.C,C11*%
G36*
G01*
X167837500Y-98285000D02*
X167442500Y-98285000D01*
G75*
G02*
X167270000Y-98112500I0J172500D01*
G01*
X167270000Y-97767500D01*
G75*
G02*
X167442500Y-97595000I172500J0D01*
G01*
X167837500Y-97595000D01*
G75*
G02*
X168010000Y-97767500I0J-172500D01*
G01*
X168010000Y-98112500D01*
G75*
G02*
X167837500Y-98285000I-172500J0D01*
G01*
G37*
G36*
G01*
X167837500Y-99255000D02*
X167442500Y-99255000D01*
G75*
G02*
X167270000Y-99082500I0J172500D01*
G01*
X167270000Y-98737500D01*
G75*
G02*
X167442500Y-98565000I172500J0D01*
G01*
X167837500Y-98565000D01*
G75*
G02*
X168010000Y-98737500I0J-172500D01*
G01*
X168010000Y-99082500D01*
G75*
G02*
X167837500Y-99255000I-172500J0D01*
G01*
G37*
%TD*%
%TO.C,C10*%
G36*
G01*
X172917500Y-98285000D02*
X172522500Y-98285000D01*
G75*
G02*
X172350000Y-98112500I0J172500D01*
G01*
X172350000Y-97767500D01*
G75*
G02*
X172522500Y-97595000I172500J0D01*
G01*
X172917500Y-97595000D01*
G75*
G02*
X173090000Y-97767500I0J-172500D01*
G01*
X173090000Y-98112500D01*
G75*
G02*
X172917500Y-98285000I-172500J0D01*
G01*
G37*
G36*
G01*
X172917500Y-99255000D02*
X172522500Y-99255000D01*
G75*
G02*
X172350000Y-99082500I0J172500D01*
G01*
X172350000Y-98737500D01*
G75*
G02*
X172522500Y-98565000I172500J0D01*
G01*
X172917500Y-98565000D01*
G75*
G02*
X173090000Y-98737500I0J-172500D01*
G01*
X173090000Y-99082500D01*
G75*
G02*
X172917500Y-99255000I-172500J0D01*
G01*
G37*
%TD*%
%TO.C,Y2*%
G36*
G01*
X169480000Y-97525000D02*
X169480000Y-99325000D01*
G75*
G02*
X169430000Y-99375000I-50000J0D01*
G01*
X168430000Y-99375000D01*
G75*
G02*
X168380000Y-99325000I0J50000D01*
G01*
X168380000Y-97525000D01*
G75*
G02*
X168430000Y-97475000I50000J0D01*
G01*
X169430000Y-97475000D01*
G75*
G02*
X169480000Y-97525000I0J-50000D01*
G01*
G37*
G36*
G01*
X171980000Y-97525000D02*
X171980000Y-99325000D01*
G75*
G02*
X171930000Y-99375000I-50000J0D01*
G01*
X170930000Y-99375000D01*
G75*
G02*
X170880000Y-99325000I0J50000D01*
G01*
X170880000Y-97525000D01*
G75*
G02*
X170930000Y-97475000I50000J0D01*
G01*
X171930000Y-97475000D01*
G75*
G02*
X171980000Y-97525000I0J-50000D01*
G01*
G37*
%TD*%
%TO.C,Y1*%
G36*
G01*
X168980000Y-104555000D02*
X171380000Y-104555000D01*
G75*
G02*
X171430000Y-104605000I0J-50000D01*
G01*
X171430000Y-106505000D01*
G75*
G02*
X171380000Y-106555000I-50000J0D01*
G01*
X168980000Y-106555000D01*
G75*
G02*
X168930000Y-106505000I0J50000D01*
G01*
X168930000Y-104605000D01*
G75*
G02*
X168980000Y-104555000I50000J0D01*
G01*
G37*
G36*
G01*
X168980000Y-100455000D02*
X171380000Y-100455000D01*
G75*
G02*
X171430000Y-100505000I0J-50000D01*
G01*
X171430000Y-102405000D01*
G75*
G02*
X171380000Y-102455000I-50000J0D01*
G01*
X168980000Y-102455000D01*
G75*
G02*
X168930000Y-102405000I0J50000D01*
G01*
X168930000Y-100505000D01*
G75*
G02*
X168980000Y-100455000I50000J0D01*
G01*
G37*
%TD*%
%TO.C,C9*%
G36*
G01*
X167837500Y-105270000D02*
X167442500Y-105270000D01*
G75*
G02*
X167270000Y-105097500I0J172500D01*
G01*
X167270000Y-104752500D01*
G75*
G02*
X167442500Y-104580000I172500J0D01*
G01*
X167837500Y-104580000D01*
G75*
G02*
X168010000Y-104752500I0J-172500D01*
G01*
X168010000Y-105097500D01*
G75*
G02*
X167837500Y-105270000I-172500J0D01*
G01*
G37*
G36*
G01*
X167837500Y-106240000D02*
X167442500Y-106240000D01*
G75*
G02*
X167270000Y-106067500I0J172500D01*
G01*
X167270000Y-105722500D01*
G75*
G02*
X167442500Y-105550000I172500J0D01*
G01*
X167837500Y-105550000D01*
G75*
G02*
X168010000Y-105722500I0J-172500D01*
G01*
X168010000Y-106067500D01*
G75*
G02*
X167837500Y-106240000I-172500J0D01*
G01*
G37*
%TD*%
%TO.C,C8*%
G36*
G01*
X167442500Y-101740000D02*
X167837500Y-101740000D01*
G75*
G02*
X168010000Y-101912500I0J-172500D01*
G01*
X168010000Y-102257500D01*
G75*
G02*
X167837500Y-102430000I-172500J0D01*
G01*
X167442500Y-102430000D01*
G75*
G02*
X167270000Y-102257500I0J172500D01*
G01*
X167270000Y-101912500D01*
G75*
G02*
X167442500Y-101740000I172500J0D01*
G01*
G37*
G36*
G01*
X167442500Y-100770000D02*
X167837500Y-100770000D01*
G75*
G02*
X168010000Y-100942500I0J-172500D01*
G01*
X168010000Y-101287500D01*
G75*
G02*
X167837500Y-101460000I-172500J0D01*
G01*
X167442500Y-101460000D01*
G75*
G02*
X167270000Y-101287500I0J172500D01*
G01*
X167270000Y-100942500D01*
G75*
G02*
X167442500Y-100770000I172500J0D01*
G01*
G37*
%TD*%
%TO.C,R6*%
G36*
G01*
X200800000Y-104337500D02*
X200800000Y-103942500D01*
G75*
G02*
X200972500Y-103770000I172500J0D01*
G01*
X201317500Y-103770000D01*
G75*
G02*
X201490000Y-103942500I0J-172500D01*
G01*
X201490000Y-104337500D01*
G75*
G02*
X201317500Y-104510000I-172500J0D01*
G01*
X200972500Y-104510000D01*
G75*
G02*
X200800000Y-104337500I0J172500D01*
G01*
G37*
G36*
G01*
X199830000Y-104337500D02*
X199830000Y-103942500D01*
G75*
G02*
X200002500Y-103770000I172500J0D01*
G01*
X200347500Y-103770000D01*
G75*
G02*
X200520000Y-103942500I0J-172500D01*
G01*
X200520000Y-104337500D01*
G75*
G02*
X200347500Y-104510000I-172500J0D01*
G01*
X200002500Y-104510000D01*
G75*
G02*
X199830000Y-104337500I0J172500D01*
G01*
G37*
%TD*%
%TO.C,R9*%
G36*
G01*
X189090000Y-100767500D02*
X189090000Y-101162500D01*
G75*
G02*
X188917500Y-101335000I-172500J0D01*
G01*
X188572500Y-101335000D01*
G75*
G02*
X188400000Y-101162500I0J172500D01*
G01*
X188400000Y-100767500D01*
G75*
G02*
X188572500Y-100595000I172500J0D01*
G01*
X188917500Y-100595000D01*
G75*
G02*
X189090000Y-100767500I0J-172500D01*
G01*
G37*
G36*
G01*
X190060000Y-100767500D02*
X190060000Y-101162500D01*
G75*
G02*
X189887500Y-101335000I-172500J0D01*
G01*
X189542500Y-101335000D01*
G75*
G02*
X189370000Y-101162500I0J172500D01*
G01*
X189370000Y-100767500D01*
G75*
G02*
X189542500Y-100595000I172500J0D01*
G01*
X189887500Y-100595000D01*
G75*
G02*
X190060000Y-100767500I0J-172500D01*
G01*
G37*
%TD*%
%TO.C,R1*%
G36*
G01*
X153810000Y-106877500D02*
X153810000Y-106482500D01*
G75*
G02*
X153982500Y-106310000I172500J0D01*
G01*
X154327500Y-106310000D01*
G75*
G02*
X154500000Y-106482500I0J-172500D01*
G01*
X154500000Y-106877500D01*
G75*
G02*
X154327500Y-107050000I-172500J0D01*
G01*
X153982500Y-107050000D01*
G75*
G02*
X153810000Y-106877500I0J172500D01*
G01*
G37*
G36*
G01*
X152840000Y-106877500D02*
X152840000Y-106482500D01*
G75*
G02*
X153012500Y-106310000I172500J0D01*
G01*
X153357500Y-106310000D01*
G75*
G02*
X153530000Y-106482500I0J-172500D01*
G01*
X153530000Y-106877500D01*
G75*
G02*
X153357500Y-107050000I-172500J0D01*
G01*
X153012500Y-107050000D01*
G75*
G02*
X152840000Y-106877500I0J172500D01*
G01*
G37*
%TD*%
%TO.C,D3*%
G36*
G01*
X192070000Y-101246250D02*
X192070000Y-100683750D01*
G75*
G02*
X192313750Y-100440000I243750J0D01*
G01*
X192801250Y-100440000D01*
G75*
G02*
X193045000Y-100683750I0J-243750D01*
G01*
X193045000Y-101246250D01*
G75*
G02*
X192801250Y-101490000I-243750J0D01*
G01*
X192313750Y-101490000D01*
G75*
G02*
X192070000Y-101246250I0J243750D01*
G01*
G37*
G36*
G01*
X190495000Y-101246250D02*
X190495000Y-100683750D01*
G75*
G02*
X190738750Y-100440000I243750J0D01*
G01*
X191226250Y-100440000D01*
G75*
G02*
X191470000Y-100683750I0J-243750D01*
G01*
X191470000Y-101246250D01*
G75*
G02*
X191226250Y-101490000I-243750J0D01*
G01*
X190738750Y-101490000D01*
G75*
G02*
X190495000Y-101246250I0J243750D01*
G01*
G37*
%TD*%
%TO.C,D2*%
G36*
G01*
X192070000Y-99341250D02*
X192070000Y-98778750D01*
G75*
G02*
X192313750Y-98535000I243750J0D01*
G01*
X192801250Y-98535000D01*
G75*
G02*
X193045000Y-98778750I0J-243750D01*
G01*
X193045000Y-99341250D01*
G75*
G02*
X192801250Y-99585000I-243750J0D01*
G01*
X192313750Y-99585000D01*
G75*
G02*
X192070000Y-99341250I0J243750D01*
G01*
G37*
G36*
G01*
X190495000Y-99341250D02*
X190495000Y-98778750D01*
G75*
G02*
X190738750Y-98535000I243750J0D01*
G01*
X191226250Y-98535000D01*
G75*
G02*
X191470000Y-98778750I0J-243750D01*
G01*
X191470000Y-99341250D01*
G75*
G02*
X191226250Y-99585000I-243750J0D01*
G01*
X190738750Y-99585000D01*
G75*
G02*
X190495000Y-99341250I0J243750D01*
G01*
G37*
%TD*%
%TO.C,C2*%
G36*
G01*
X156350000Y-106877500D02*
X156350000Y-106482500D01*
G75*
G02*
X156522500Y-106310000I172500J0D01*
G01*
X156867500Y-106310000D01*
G75*
G02*
X157040000Y-106482500I0J-172500D01*
G01*
X157040000Y-106877500D01*
G75*
G02*
X156867500Y-107050000I-172500J0D01*
G01*
X156522500Y-107050000D01*
G75*
G02*
X156350000Y-106877500I0J172500D01*
G01*
G37*
G36*
G01*
X155380000Y-106877500D02*
X155380000Y-106482500D01*
G75*
G02*
X155552500Y-106310000I172500J0D01*
G01*
X155897500Y-106310000D01*
G75*
G02*
X156070000Y-106482500I0J-172500D01*
G01*
X156070000Y-106877500D01*
G75*
G02*
X155897500Y-107050000I-172500J0D01*
G01*
X155552500Y-107050000D01*
G75*
G02*
X155380000Y-106877500I0J172500D01*
G01*
G37*
%TD*%
D10*
%TO.C,J4*%
X201930000Y-93980000D03*
X199390000Y-93980000D03*
X196850000Y-93980000D03*
X194310000Y-93980000D03*
X191770000Y-93980000D03*
X189230000Y-93980000D03*
X186690000Y-93980000D03*
X184150000Y-93980000D03*
X181610000Y-93980000D03*
X179070000Y-93980000D03*
X176530000Y-93980000D03*
X173990000Y-93980000D03*
X171450000Y-93980000D03*
X168910000Y-93980000D03*
X166370000Y-93980000D03*
X163830000Y-93980000D03*
X161290000Y-93980000D03*
X158750000Y-93980000D03*
X156210000Y-93980000D03*
G36*
G01*
X152820000Y-93080000D02*
X154520000Y-93080000D01*
G75*
G02*
X154570000Y-93130000I0J-50000D01*
G01*
X154570000Y-94830000D01*
G75*
G02*
X154520000Y-94880000I-50000J0D01*
G01*
X152820000Y-94880000D01*
G75*
G02*
X152770000Y-94830000I0J50000D01*
G01*
X152770000Y-93130000D01*
G75*
G02*
X152820000Y-93080000I50000J0D01*
G01*
G37*
%TD*%
%TO.C,J3*%
X201930000Y-109220000D03*
X199390000Y-109220000D03*
X196850000Y-109220000D03*
X194310000Y-109220000D03*
X191770000Y-109220000D03*
X189230000Y-109220000D03*
X186690000Y-109220000D03*
X184150000Y-109220000D03*
X181610000Y-109220000D03*
X179070000Y-109220000D03*
X176530000Y-109220000D03*
X173990000Y-109220000D03*
X171450000Y-109220000D03*
X168910000Y-109220000D03*
X166370000Y-109220000D03*
X163830000Y-109220000D03*
X161290000Y-109220000D03*
X158750000Y-109220000D03*
X156210000Y-109220000D03*
G36*
G01*
X152820000Y-108320000D02*
X154520000Y-108320000D01*
G75*
G02*
X154570000Y-108370000I0J-50000D01*
G01*
X154570000Y-110070000D01*
G75*
G02*
X154520000Y-110120000I-50000J0D01*
G01*
X152820000Y-110120000D01*
G75*
G02*
X152770000Y-110070000I0J50000D01*
G01*
X152770000Y-108370000D01*
G75*
G02*
X152820000Y-108320000I50000J0D01*
G01*
G37*
%TD*%
%TO.C,D1*%
G36*
G01*
X195545000Y-98545000D02*
X194345000Y-98545000D01*
G75*
G02*
X194295000Y-98495000I0J50000D01*
G01*
X194295000Y-97595000D01*
G75*
G02*
X194345000Y-97545000I50000J0D01*
G01*
X195545000Y-97545000D01*
G75*
G02*
X195595000Y-97595000I0J-50000D01*
G01*
X195595000Y-98495000D01*
G75*
G02*
X195545000Y-98545000I-50000J0D01*
G01*
G37*
G36*
G01*
X195545000Y-101845000D02*
X194345000Y-101845000D01*
G75*
G02*
X194295000Y-101795000I0J50000D01*
G01*
X194295000Y-100895000D01*
G75*
G02*
X194345000Y-100845000I50000J0D01*
G01*
X195545000Y-100845000D01*
G75*
G02*
X195595000Y-100895000I0J-50000D01*
G01*
X195595000Y-101795000D01*
G75*
G02*
X195545000Y-101845000I-50000J0D01*
G01*
G37*
%TD*%
%TO.C,C7*%
G36*
G01*
X174441500Y-101460000D02*
X174046500Y-101460000D01*
G75*
G02*
X173874000Y-101287500I0J172500D01*
G01*
X173874000Y-100942500D01*
G75*
G02*
X174046500Y-100770000I172500J0D01*
G01*
X174441500Y-100770000D01*
G75*
G02*
X174614000Y-100942500I0J-172500D01*
G01*
X174614000Y-101287500D01*
G75*
G02*
X174441500Y-101460000I-172500J0D01*
G01*
G37*
G36*
G01*
X174441500Y-102430000D02*
X174046500Y-102430000D01*
G75*
G02*
X173874000Y-102257500I0J172500D01*
G01*
X173874000Y-101912500D01*
G75*
G02*
X174046500Y-101740000I172500J0D01*
G01*
X174441500Y-101740000D01*
G75*
G02*
X174614000Y-101912500I0J-172500D01*
G01*
X174614000Y-102257500D01*
G75*
G02*
X174441500Y-102430000I-172500J0D01*
G01*
G37*
%TD*%
%TO.C,C6*%
G36*
G01*
X175755000Y-105847500D02*
X175755000Y-106242500D01*
G75*
G02*
X175582500Y-106415000I-172500J0D01*
G01*
X175237500Y-106415000D01*
G75*
G02*
X175065000Y-106242500I0J172500D01*
G01*
X175065000Y-105847500D01*
G75*
G02*
X175237500Y-105675000I172500J0D01*
G01*
X175582500Y-105675000D01*
G75*
G02*
X175755000Y-105847500I0J-172500D01*
G01*
G37*
G36*
G01*
X176725000Y-105847500D02*
X176725000Y-106242500D01*
G75*
G02*
X176552500Y-106415000I-172500J0D01*
G01*
X176207500Y-106415000D01*
G75*
G02*
X176035000Y-106242500I0J172500D01*
G01*
X176035000Y-105847500D01*
G75*
G02*
X176207500Y-105675000I172500J0D01*
G01*
X176552500Y-105675000D01*
G75*
G02*
X176725000Y-105847500I0J-172500D01*
G01*
G37*
%TD*%
%TO.C,C5*%
G36*
G01*
X180200000Y-95306500D02*
X180200000Y-95701500D01*
G75*
G02*
X180027500Y-95874000I-172500J0D01*
G01*
X179682500Y-95874000D01*
G75*
G02*
X179510000Y-95701500I0J172500D01*
G01*
X179510000Y-95306500D01*
G75*
G02*
X179682500Y-95134000I172500J0D01*
G01*
X180027500Y-95134000D01*
G75*
G02*
X180200000Y-95306500I0J-172500D01*
G01*
G37*
G36*
G01*
X181170000Y-95306500D02*
X181170000Y-95701500D01*
G75*
G02*
X180997500Y-95874000I-172500J0D01*
G01*
X180652500Y-95874000D01*
G75*
G02*
X180480000Y-95701500I0J172500D01*
G01*
X180480000Y-95306500D01*
G75*
G02*
X180652500Y-95134000I172500J0D01*
G01*
X180997500Y-95134000D01*
G75*
G02*
X181170000Y-95306500I0J-172500D01*
G01*
G37*
%TD*%
%TO.C,C4*%
G36*
G01*
X187522500Y-100190000D02*
X187127500Y-100190000D01*
G75*
G02*
X186955000Y-100017500I0J172500D01*
G01*
X186955000Y-99672500D01*
G75*
G02*
X187127500Y-99500000I172500J0D01*
G01*
X187522500Y-99500000D01*
G75*
G02*
X187695000Y-99672500I0J-172500D01*
G01*
X187695000Y-100017500D01*
G75*
G02*
X187522500Y-100190000I-172500J0D01*
G01*
G37*
G36*
G01*
X187522500Y-101160000D02*
X187127500Y-101160000D01*
G75*
G02*
X186955000Y-100987500I0J172500D01*
G01*
X186955000Y-100642500D01*
G75*
G02*
X187127500Y-100470000I172500J0D01*
G01*
X187522500Y-100470000D01*
G75*
G02*
X187695000Y-100642500I0J-172500D01*
G01*
X187695000Y-100987500D01*
G75*
G02*
X187522500Y-101160000I-172500J0D01*
G01*
G37*
%TD*%
M02*
