G04 #@! TF.GenerationSoftware,KiCad,Pcbnew,5.1.9+dfsg1-1*
G04 #@! TF.CreationDate,2021-04-15T16:21:39+08:00*
G04 #@! TF.ProjectId,gp,67702e6b-6963-4616-945f-706362585858,c*
G04 #@! TF.SameCoordinates,Original*
G04 #@! TF.FileFunction,Soldermask,Top*
G04 #@! TF.FilePolarity,Negative*
%FSLAX46Y46*%
G04 Gerber Fmt 4.6, Leading zero omitted, Abs format (unit mm)*
G04 Created by KiCad (PCBNEW 5.1.9+dfsg1-1) date 2021-04-15 16:21:39*
%MOMM*%
%LPD*%
G01*
G04 APERTURE LIST*
%ADD10O,1.700000X1.100000*%
%ADD11C,0.750000*%
%ADD12O,2.200000X1.100000*%
%ADD13O,1.800000X1.800000*%
G04 APERTURE END LIST*
G04 #@! TO.C,SW2*
G36*
G01*
X157880000Y-100010000D02*
X157880000Y-98010000D01*
G75*
G02*
X157930000Y-97960000I50000J0D01*
G01*
X158980000Y-97960000D01*
G75*
G02*
X159030000Y-98010000I0J-50000D01*
G01*
X159030000Y-100010000D01*
G75*
G02*
X158980000Y-100060000I-50000J0D01*
G01*
X157930000Y-100060000D01*
G75*
G02*
X157880000Y-100010000I0J50000D01*
G01*
G37*
G36*
G01*
X162280000Y-100060000D02*
X162280000Y-98060000D01*
G75*
G02*
X162330000Y-98010000I50000J0D01*
G01*
X163380000Y-98010000D01*
G75*
G02*
X163430000Y-98060000I0J-50000D01*
G01*
X163430000Y-100060000D01*
G75*
G02*
X163380000Y-100110000I-50000J0D01*
G01*
X162330000Y-100110000D01*
G75*
G02*
X162280000Y-100060000I0J50000D01*
G01*
G37*
G04 #@! TD*
G04 #@! TO.C,SW1*
G36*
G01*
X157880000Y-105090000D02*
X157880000Y-103090000D01*
G75*
G02*
X157930000Y-103040000I50000J0D01*
G01*
X158980000Y-103040000D01*
G75*
G02*
X159030000Y-103090000I0J-50000D01*
G01*
X159030000Y-105090000D01*
G75*
G02*
X158980000Y-105140000I-50000J0D01*
G01*
X157930000Y-105140000D01*
G75*
G02*
X157880000Y-105090000I0J50000D01*
G01*
G37*
G36*
G01*
X162280000Y-105140000D02*
X162280000Y-103140000D01*
G75*
G02*
X162330000Y-103090000I50000J0D01*
G01*
X163380000Y-103090000D01*
G75*
G02*
X163430000Y-103140000I0J-50000D01*
G01*
X163430000Y-105140000D01*
G75*
G02*
X163380000Y-105190000I-50000J0D01*
G01*
X162330000Y-105190000D01*
G75*
G02*
X162280000Y-105140000I0J50000D01*
G01*
G37*
G04 #@! TD*
D10*
G04 #@! TO.C,J1*
X201075000Y-97280000D03*
D11*
X197425000Y-98710000D03*
D10*
X201075000Y-105920000D03*
D11*
X197425000Y-104490000D03*
D12*
X196895000Y-105920000D03*
X196895000Y-97280000D03*
G36*
G01*
X196705000Y-102050000D02*
X195255000Y-102050000D01*
G75*
G02*
X195205000Y-102000000I0J50000D01*
G01*
X195205000Y-101700000D01*
G75*
G02*
X195255000Y-101650000I50000J0D01*
G01*
X196705000Y-101650000D01*
G75*
G02*
X196755000Y-101700000I0J-50000D01*
G01*
X196755000Y-102000000D01*
G75*
G02*
X196705000Y-102050000I-50000J0D01*
G01*
G37*
G36*
G01*
X196705000Y-100050000D02*
X195255000Y-100050000D01*
G75*
G02*
X195205000Y-100000000I0J50000D01*
G01*
X195205000Y-99700000D01*
G75*
G02*
X195255000Y-99650000I50000J0D01*
G01*
X196705000Y-99650000D01*
G75*
G02*
X196755000Y-99700000I0J-50000D01*
G01*
X196755000Y-100000000D01*
G75*
G02*
X196705000Y-100050000I-50000J0D01*
G01*
G37*
G36*
G01*
X196705000Y-100550000D02*
X195255000Y-100550000D01*
G75*
G02*
X195205000Y-100500000I0J50000D01*
G01*
X195205000Y-100200000D01*
G75*
G02*
X195255000Y-100150000I50000J0D01*
G01*
X196705000Y-100150000D01*
G75*
G02*
X196755000Y-100200000I0J-50000D01*
G01*
X196755000Y-100500000D01*
G75*
G02*
X196705000Y-100550000I-50000J0D01*
G01*
G37*
G36*
G01*
X196705000Y-101050000D02*
X195255000Y-101050000D01*
G75*
G02*
X195205000Y-101000000I0J50000D01*
G01*
X195205000Y-100700000D01*
G75*
G02*
X195255000Y-100650000I50000J0D01*
G01*
X196705000Y-100650000D01*
G75*
G02*
X196755000Y-100700000I0J-50000D01*
G01*
X196755000Y-101000000D01*
G75*
G02*
X196705000Y-101050000I-50000J0D01*
G01*
G37*
G36*
G01*
X196705000Y-101550000D02*
X195255000Y-101550000D01*
G75*
G02*
X195205000Y-101500000I0J50000D01*
G01*
X195205000Y-101200000D01*
G75*
G02*
X195255000Y-101150000I50000J0D01*
G01*
X196705000Y-101150000D01*
G75*
G02*
X196755000Y-101200000I0J-50000D01*
G01*
X196755000Y-101500000D01*
G75*
G02*
X196705000Y-101550000I-50000J0D01*
G01*
G37*
G36*
G01*
X196705000Y-102550000D02*
X195255000Y-102550000D01*
G75*
G02*
X195205000Y-102500000I0J50000D01*
G01*
X195205000Y-102200000D01*
G75*
G02*
X195255000Y-102150000I50000J0D01*
G01*
X196705000Y-102150000D01*
G75*
G02*
X196755000Y-102200000I0J-50000D01*
G01*
X196755000Y-102500000D01*
G75*
G02*
X196705000Y-102550000I-50000J0D01*
G01*
G37*
G36*
G01*
X196705000Y-103050000D02*
X195255000Y-103050000D01*
G75*
G02*
X195205000Y-103000000I0J50000D01*
G01*
X195205000Y-102700000D01*
G75*
G02*
X195255000Y-102650000I50000J0D01*
G01*
X196705000Y-102650000D01*
G75*
G02*
X196755000Y-102700000I0J-50000D01*
G01*
X196755000Y-103000000D01*
G75*
G02*
X196705000Y-103050000I-50000J0D01*
G01*
G37*
G36*
G01*
X196705000Y-103550000D02*
X195255000Y-103550000D01*
G75*
G02*
X195205000Y-103500000I0J50000D01*
G01*
X195205000Y-103200000D01*
G75*
G02*
X195255000Y-103150000I50000J0D01*
G01*
X196705000Y-103150000D01*
G75*
G02*
X196755000Y-103200000I0J-50000D01*
G01*
X196755000Y-103500000D01*
G75*
G02*
X196705000Y-103550000I-50000J0D01*
G01*
G37*
G36*
G01*
X196705000Y-98700000D02*
X195255000Y-98700000D01*
G75*
G02*
X195205000Y-98650000I0J50000D01*
G01*
X195205000Y-98050000D01*
G75*
G02*
X195255000Y-98000000I50000J0D01*
G01*
X196705000Y-98000000D01*
G75*
G02*
X196755000Y-98050000I0J-50000D01*
G01*
X196755000Y-98650000D01*
G75*
G02*
X196705000Y-98700000I-50000J0D01*
G01*
G37*
G36*
G01*
X196705000Y-99500000D02*
X195255000Y-99500000D01*
G75*
G02*
X195205000Y-99450000I0J50000D01*
G01*
X195205000Y-98850000D01*
G75*
G02*
X195255000Y-98800000I50000J0D01*
G01*
X196705000Y-98800000D01*
G75*
G02*
X196755000Y-98850000I0J-50000D01*
G01*
X196755000Y-99450000D01*
G75*
G02*
X196705000Y-99500000I-50000J0D01*
G01*
G37*
G36*
G01*
X196705000Y-104400000D02*
X195255000Y-104400000D01*
G75*
G02*
X195205000Y-104350000I0J50000D01*
G01*
X195205000Y-103750000D01*
G75*
G02*
X195255000Y-103700000I50000J0D01*
G01*
X196705000Y-103700000D01*
G75*
G02*
X196755000Y-103750000I0J-50000D01*
G01*
X196755000Y-104350000D01*
G75*
G02*
X196705000Y-104400000I-50000J0D01*
G01*
G37*
G36*
G01*
X196705000Y-105200000D02*
X195255000Y-105200000D01*
G75*
G02*
X195205000Y-105150000I0J50000D01*
G01*
X195205000Y-104550000D01*
G75*
G02*
X195255000Y-104500000I50000J0D01*
G01*
X196705000Y-104500000D01*
G75*
G02*
X196755000Y-104550000I0J-50000D01*
G01*
X196755000Y-105150000D01*
G75*
G02*
X196705000Y-105200000I-50000J0D01*
G01*
G37*
G36*
G01*
X196705000Y-105200000D02*
X195255000Y-105200000D01*
G75*
G02*
X195205000Y-105150000I0J50000D01*
G01*
X195205000Y-104550000D01*
G75*
G02*
X195255000Y-104500000I50000J0D01*
G01*
X196705000Y-104500000D01*
G75*
G02*
X196755000Y-104550000I0J-50000D01*
G01*
X196755000Y-105150000D01*
G75*
G02*
X196705000Y-105200000I-50000J0D01*
G01*
G37*
G36*
G01*
X196705000Y-104400000D02*
X195255000Y-104400000D01*
G75*
G02*
X195205000Y-104350000I0J50000D01*
G01*
X195205000Y-103750000D01*
G75*
G02*
X195255000Y-103700000I50000J0D01*
G01*
X196705000Y-103700000D01*
G75*
G02*
X196755000Y-103750000I0J-50000D01*
G01*
X196755000Y-104350000D01*
G75*
G02*
X196705000Y-104400000I-50000J0D01*
G01*
G37*
G36*
G01*
X196705000Y-99500000D02*
X195255000Y-99500000D01*
G75*
G02*
X195205000Y-99450000I0J50000D01*
G01*
X195205000Y-98850000D01*
G75*
G02*
X195255000Y-98800000I50000J0D01*
G01*
X196705000Y-98800000D01*
G75*
G02*
X196755000Y-98850000I0J-50000D01*
G01*
X196755000Y-99450000D01*
G75*
G02*
X196705000Y-99500000I-50000J0D01*
G01*
G37*
G36*
G01*
X196705000Y-98700000D02*
X195255000Y-98700000D01*
G75*
G02*
X195205000Y-98650000I0J50000D01*
G01*
X195205000Y-98050000D01*
G75*
G02*
X195255000Y-98000000I50000J0D01*
G01*
X196705000Y-98000000D01*
G75*
G02*
X196755000Y-98050000I0J-50000D01*
G01*
X196755000Y-98650000D01*
G75*
G02*
X196705000Y-98700000I-50000J0D01*
G01*
G37*
G04 #@! TD*
D13*
G04 #@! TO.C,J3*
X201930000Y-109220000D03*
X199390000Y-109220000D03*
X196850000Y-109220000D03*
X194310000Y-109220000D03*
X191770000Y-109220000D03*
X189230000Y-109220000D03*
X186690000Y-109220000D03*
X184150000Y-109220000D03*
X181610000Y-109220000D03*
X179070000Y-109220000D03*
X176530000Y-109220000D03*
X173990000Y-109220000D03*
X171450000Y-109220000D03*
X168910000Y-109220000D03*
X166370000Y-109220000D03*
X163830000Y-109220000D03*
X161290000Y-109220000D03*
X158750000Y-109220000D03*
X156210000Y-109220000D03*
G36*
G01*
X152820000Y-108320000D02*
X154520000Y-108320000D01*
G75*
G02*
X154570000Y-108370000I0J-50000D01*
G01*
X154570000Y-110070000D01*
G75*
G02*
X154520000Y-110120000I-50000J0D01*
G01*
X152820000Y-110120000D01*
G75*
G02*
X152770000Y-110070000I0J50000D01*
G01*
X152770000Y-108370000D01*
G75*
G02*
X152820000Y-108320000I50000J0D01*
G01*
G37*
G04 #@! TD*
G04 #@! TO.C,Y1*
G36*
G01*
X167890000Y-102925000D02*
X169090000Y-102925000D01*
G75*
G02*
X169140000Y-102975000I0J-50000D01*
G01*
X169140000Y-104375000D01*
G75*
G02*
X169090000Y-104425000I-50000J0D01*
G01*
X167890000Y-104425000D01*
G75*
G02*
X167840000Y-104375000I0J50000D01*
G01*
X167840000Y-102975000D01*
G75*
G02*
X167890000Y-102925000I50000J0D01*
G01*
G37*
G36*
G01*
X167890000Y-105125000D02*
X169090000Y-105125000D01*
G75*
G02*
X169140000Y-105175000I0J-50000D01*
G01*
X169140000Y-106575000D01*
G75*
G02*
X169090000Y-106625000I-50000J0D01*
G01*
X167890000Y-106625000D01*
G75*
G02*
X167840000Y-106575000I0J50000D01*
G01*
X167840000Y-105175000D01*
G75*
G02*
X167890000Y-105125000I50000J0D01*
G01*
G37*
G36*
G01*
X166190000Y-105125000D02*
X167390000Y-105125000D01*
G75*
G02*
X167440000Y-105175000I0J-50000D01*
G01*
X167440000Y-106575000D01*
G75*
G02*
X167390000Y-106625000I-50000J0D01*
G01*
X166190000Y-106625000D01*
G75*
G02*
X166140000Y-106575000I0J50000D01*
G01*
X166140000Y-105175000D01*
G75*
G02*
X166190000Y-105125000I50000J0D01*
G01*
G37*
G36*
G01*
X166190000Y-102925000D02*
X167390000Y-102925000D01*
G75*
G02*
X167440000Y-102975000I0J-50000D01*
G01*
X167440000Y-104375000D01*
G75*
G02*
X167390000Y-104425000I-50000J0D01*
G01*
X166190000Y-104425000D01*
G75*
G02*
X166140000Y-104375000I0J50000D01*
G01*
X166140000Y-102975000D01*
G75*
G02*
X166190000Y-102925000I50000J0D01*
G01*
G37*
G04 #@! TD*
G04 #@! TO.C,J2*
X153035000Y-99060000D03*
X155575000Y-99060000D03*
X153035000Y-101600000D03*
X155575000Y-101600000D03*
X153035000Y-104140000D03*
G36*
G01*
X156475000Y-103290000D02*
X156475000Y-104990000D01*
G75*
G02*
X156425000Y-105040000I-50000J0D01*
G01*
X154725000Y-105040000D01*
G75*
G02*
X154675000Y-104990000I0J50000D01*
G01*
X154675000Y-103290000D01*
G75*
G02*
X154725000Y-103240000I50000J0D01*
G01*
X156425000Y-103240000D01*
G75*
G02*
X156475000Y-103290000I0J-50000D01*
G01*
G37*
G04 #@! TD*
G04 #@! TO.C,U2*
G36*
G01*
X172621838Y-101228770D02*
X171649566Y-100256498D01*
G75*
G02*
X171649566Y-100115076I70711J70711D01*
G01*
X171790988Y-99973654D01*
G75*
G02*
X171932410Y-99973654I70711J-70711D01*
G01*
X172904682Y-100945926D01*
G75*
G02*
X172904682Y-101087348I-70711J-70711D01*
G01*
X172763260Y-101228770D01*
G75*
G02*
X172621838Y-101228770I-70711J70711D01*
G01*
G37*
G36*
G01*
X172975392Y-100875216D02*
X172003120Y-99902944D01*
G75*
G02*
X172003120Y-99761522I70711J70711D01*
G01*
X172144542Y-99620100D01*
G75*
G02*
X172285964Y-99620100I70711J-70711D01*
G01*
X173258236Y-100592372D01*
G75*
G02*
X173258236Y-100733794I-70711J-70711D01*
G01*
X173116814Y-100875216D01*
G75*
G02*
X172975392Y-100875216I-70711J70711D01*
G01*
G37*
G36*
G01*
X173328945Y-100521663D02*
X172356673Y-99549391D01*
G75*
G02*
X172356673Y-99407969I70711J70711D01*
G01*
X172498095Y-99266547D01*
G75*
G02*
X172639517Y-99266547I70711J-70711D01*
G01*
X173611789Y-100238819D01*
G75*
G02*
X173611789Y-100380241I-70711J-70711D01*
G01*
X173470367Y-100521663D01*
G75*
G02*
X173328945Y-100521663I-70711J70711D01*
G01*
G37*
G36*
G01*
X173682499Y-100168109D02*
X172710227Y-99195837D01*
G75*
G02*
X172710227Y-99054415I70711J70711D01*
G01*
X172851649Y-98912993D01*
G75*
G02*
X172993071Y-98912993I70711J-70711D01*
G01*
X173965343Y-99885265D01*
G75*
G02*
X173965343Y-100026687I-70711J-70711D01*
G01*
X173823921Y-100168109D01*
G75*
G02*
X173682499Y-100168109I-70711J70711D01*
G01*
G37*
G36*
G01*
X174036052Y-99814556D02*
X173063780Y-98842284D01*
G75*
G02*
X173063780Y-98700862I70711J70711D01*
G01*
X173205202Y-98559440D01*
G75*
G02*
X173346624Y-98559440I70711J-70711D01*
G01*
X174318896Y-99531712D01*
G75*
G02*
X174318896Y-99673134I-70711J-70711D01*
G01*
X174177474Y-99814556D01*
G75*
G02*
X174036052Y-99814556I-70711J70711D01*
G01*
G37*
G36*
G01*
X174389605Y-99461003D02*
X173417333Y-98488731D01*
G75*
G02*
X173417333Y-98347309I70711J70711D01*
G01*
X173558755Y-98205887D01*
G75*
G02*
X173700177Y-98205887I70711J-70711D01*
G01*
X174672449Y-99178159D01*
G75*
G02*
X174672449Y-99319581I-70711J-70711D01*
G01*
X174531027Y-99461003D01*
G75*
G02*
X174389605Y-99461003I-70711J70711D01*
G01*
G37*
G36*
G01*
X174743159Y-99107449D02*
X173770887Y-98135177D01*
G75*
G02*
X173770887Y-97993755I70711J70711D01*
G01*
X173912309Y-97852333D01*
G75*
G02*
X174053731Y-97852333I70711J-70711D01*
G01*
X175026003Y-98824605D01*
G75*
G02*
X175026003Y-98966027I-70711J-70711D01*
G01*
X174884581Y-99107449D01*
G75*
G02*
X174743159Y-99107449I-70711J70711D01*
G01*
G37*
G36*
G01*
X175096712Y-98753896D02*
X174124440Y-97781624D01*
G75*
G02*
X174124440Y-97640202I70711J70711D01*
G01*
X174265862Y-97498780D01*
G75*
G02*
X174407284Y-97498780I70711J-70711D01*
G01*
X175379556Y-98471052D01*
G75*
G02*
X175379556Y-98612474I-70711J-70711D01*
G01*
X175238134Y-98753896D01*
G75*
G02*
X175096712Y-98753896I-70711J70711D01*
G01*
G37*
G36*
G01*
X175450265Y-98400343D02*
X174477993Y-97428071D01*
G75*
G02*
X174477993Y-97286649I70711J70711D01*
G01*
X174619415Y-97145227D01*
G75*
G02*
X174760837Y-97145227I70711J-70711D01*
G01*
X175733109Y-98117499D01*
G75*
G02*
X175733109Y-98258921I-70711J-70711D01*
G01*
X175591687Y-98400343D01*
G75*
G02*
X175450265Y-98400343I-70711J70711D01*
G01*
G37*
G36*
G01*
X175803819Y-98046789D02*
X174831547Y-97074517D01*
G75*
G02*
X174831547Y-96933095I70711J70711D01*
G01*
X174972969Y-96791673D01*
G75*
G02*
X175114391Y-96791673I70711J-70711D01*
G01*
X176086663Y-97763945D01*
G75*
G02*
X176086663Y-97905367I-70711J-70711D01*
G01*
X175945241Y-98046789D01*
G75*
G02*
X175803819Y-98046789I-70711J70711D01*
G01*
G37*
G36*
G01*
X176157372Y-97693236D02*
X175185100Y-96720964D01*
G75*
G02*
X175185100Y-96579542I70711J70711D01*
G01*
X175326522Y-96438120D01*
G75*
G02*
X175467944Y-96438120I70711J-70711D01*
G01*
X176440216Y-97410392D01*
G75*
G02*
X176440216Y-97551814I-70711J-70711D01*
G01*
X176298794Y-97693236D01*
G75*
G02*
X176157372Y-97693236I-70711J70711D01*
G01*
G37*
G36*
G01*
X176510926Y-97339682D02*
X175538654Y-96367410D01*
G75*
G02*
X175538654Y-96225988I70711J70711D01*
G01*
X175680076Y-96084566D01*
G75*
G02*
X175821498Y-96084566I70711J-70711D01*
G01*
X176793770Y-97056838D01*
G75*
G02*
X176793770Y-97198260I-70711J-70711D01*
G01*
X176652348Y-97339682D01*
G75*
G02*
X176510926Y-97339682I-70711J70711D01*
G01*
G37*
G36*
G01*
X177677652Y-97339682D02*
X177536230Y-97198260D01*
G75*
G02*
X177536230Y-97056838I70711J70711D01*
G01*
X178508502Y-96084566D01*
G75*
G02*
X178649924Y-96084566I70711J-70711D01*
G01*
X178791346Y-96225988D01*
G75*
G02*
X178791346Y-96367410I-70711J-70711D01*
G01*
X177819074Y-97339682D01*
G75*
G02*
X177677652Y-97339682I-70711J70711D01*
G01*
G37*
G36*
G01*
X178031206Y-97693236D02*
X177889784Y-97551814D01*
G75*
G02*
X177889784Y-97410392I70711J70711D01*
G01*
X178862056Y-96438120D01*
G75*
G02*
X179003478Y-96438120I70711J-70711D01*
G01*
X179144900Y-96579542D01*
G75*
G02*
X179144900Y-96720964I-70711J-70711D01*
G01*
X178172628Y-97693236D01*
G75*
G02*
X178031206Y-97693236I-70711J70711D01*
G01*
G37*
G36*
G01*
X178384759Y-98046789D02*
X178243337Y-97905367D01*
G75*
G02*
X178243337Y-97763945I70711J70711D01*
G01*
X179215609Y-96791673D01*
G75*
G02*
X179357031Y-96791673I70711J-70711D01*
G01*
X179498453Y-96933095D01*
G75*
G02*
X179498453Y-97074517I-70711J-70711D01*
G01*
X178526181Y-98046789D01*
G75*
G02*
X178384759Y-98046789I-70711J70711D01*
G01*
G37*
G36*
G01*
X178738313Y-98400343D02*
X178596891Y-98258921D01*
G75*
G02*
X178596891Y-98117499I70711J70711D01*
G01*
X179569163Y-97145227D01*
G75*
G02*
X179710585Y-97145227I70711J-70711D01*
G01*
X179852007Y-97286649D01*
G75*
G02*
X179852007Y-97428071I-70711J-70711D01*
G01*
X178879735Y-98400343D01*
G75*
G02*
X178738313Y-98400343I-70711J70711D01*
G01*
G37*
G36*
G01*
X179091866Y-98753896D02*
X178950444Y-98612474D01*
G75*
G02*
X178950444Y-98471052I70711J70711D01*
G01*
X179922716Y-97498780D01*
G75*
G02*
X180064138Y-97498780I70711J-70711D01*
G01*
X180205560Y-97640202D01*
G75*
G02*
X180205560Y-97781624I-70711J-70711D01*
G01*
X179233288Y-98753896D01*
G75*
G02*
X179091866Y-98753896I-70711J70711D01*
G01*
G37*
G36*
G01*
X179445419Y-99107449D02*
X179303997Y-98966027D01*
G75*
G02*
X179303997Y-98824605I70711J70711D01*
G01*
X180276269Y-97852333D01*
G75*
G02*
X180417691Y-97852333I70711J-70711D01*
G01*
X180559113Y-97993755D01*
G75*
G02*
X180559113Y-98135177I-70711J-70711D01*
G01*
X179586841Y-99107449D01*
G75*
G02*
X179445419Y-99107449I-70711J70711D01*
G01*
G37*
G36*
G01*
X179798973Y-99461003D02*
X179657551Y-99319581D01*
G75*
G02*
X179657551Y-99178159I70711J70711D01*
G01*
X180629823Y-98205887D01*
G75*
G02*
X180771245Y-98205887I70711J-70711D01*
G01*
X180912667Y-98347309D01*
G75*
G02*
X180912667Y-98488731I-70711J-70711D01*
G01*
X179940395Y-99461003D01*
G75*
G02*
X179798973Y-99461003I-70711J70711D01*
G01*
G37*
G36*
G01*
X180152526Y-99814556D02*
X180011104Y-99673134D01*
G75*
G02*
X180011104Y-99531712I70711J70711D01*
G01*
X180983376Y-98559440D01*
G75*
G02*
X181124798Y-98559440I70711J-70711D01*
G01*
X181266220Y-98700862D01*
G75*
G02*
X181266220Y-98842284I-70711J-70711D01*
G01*
X180293948Y-99814556D01*
G75*
G02*
X180152526Y-99814556I-70711J70711D01*
G01*
G37*
G36*
G01*
X180506079Y-100168109D02*
X180364657Y-100026687D01*
G75*
G02*
X180364657Y-99885265I70711J70711D01*
G01*
X181336929Y-98912993D01*
G75*
G02*
X181478351Y-98912993I70711J-70711D01*
G01*
X181619773Y-99054415D01*
G75*
G02*
X181619773Y-99195837I-70711J-70711D01*
G01*
X180647501Y-100168109D01*
G75*
G02*
X180506079Y-100168109I-70711J70711D01*
G01*
G37*
G36*
G01*
X180859633Y-100521663D02*
X180718211Y-100380241D01*
G75*
G02*
X180718211Y-100238819I70711J70711D01*
G01*
X181690483Y-99266547D01*
G75*
G02*
X181831905Y-99266547I70711J-70711D01*
G01*
X181973327Y-99407969D01*
G75*
G02*
X181973327Y-99549391I-70711J-70711D01*
G01*
X181001055Y-100521663D01*
G75*
G02*
X180859633Y-100521663I-70711J70711D01*
G01*
G37*
G36*
G01*
X181213186Y-100875216D02*
X181071764Y-100733794D01*
G75*
G02*
X181071764Y-100592372I70711J70711D01*
G01*
X182044036Y-99620100D01*
G75*
G02*
X182185458Y-99620100I70711J-70711D01*
G01*
X182326880Y-99761522D01*
G75*
G02*
X182326880Y-99902944I-70711J-70711D01*
G01*
X181354608Y-100875216D01*
G75*
G02*
X181213186Y-100875216I-70711J70711D01*
G01*
G37*
G36*
G01*
X181566740Y-101228770D02*
X181425318Y-101087348D01*
G75*
G02*
X181425318Y-100945926I70711J70711D01*
G01*
X182397590Y-99973654D01*
G75*
G02*
X182539012Y-99973654I70711J-70711D01*
G01*
X182680434Y-100115076D01*
G75*
G02*
X182680434Y-100256498I-70711J-70711D01*
G01*
X181708162Y-101228770D01*
G75*
G02*
X181566740Y-101228770I-70711J70711D01*
G01*
G37*
G36*
G01*
X182397590Y-103226346D02*
X181425318Y-102254074D01*
G75*
G02*
X181425318Y-102112652I70711J70711D01*
G01*
X181566740Y-101971230D01*
G75*
G02*
X181708162Y-101971230I70711J-70711D01*
G01*
X182680434Y-102943502D01*
G75*
G02*
X182680434Y-103084924I-70711J-70711D01*
G01*
X182539012Y-103226346D01*
G75*
G02*
X182397590Y-103226346I-70711J70711D01*
G01*
G37*
G36*
G01*
X182044036Y-103579900D02*
X181071764Y-102607628D01*
G75*
G02*
X181071764Y-102466206I70711J70711D01*
G01*
X181213186Y-102324784D01*
G75*
G02*
X181354608Y-102324784I70711J-70711D01*
G01*
X182326880Y-103297056D01*
G75*
G02*
X182326880Y-103438478I-70711J-70711D01*
G01*
X182185458Y-103579900D01*
G75*
G02*
X182044036Y-103579900I-70711J70711D01*
G01*
G37*
G36*
G01*
X181690483Y-103933453D02*
X180718211Y-102961181D01*
G75*
G02*
X180718211Y-102819759I70711J70711D01*
G01*
X180859633Y-102678337D01*
G75*
G02*
X181001055Y-102678337I70711J-70711D01*
G01*
X181973327Y-103650609D01*
G75*
G02*
X181973327Y-103792031I-70711J-70711D01*
G01*
X181831905Y-103933453D01*
G75*
G02*
X181690483Y-103933453I-70711J70711D01*
G01*
G37*
G36*
G01*
X181336929Y-104287007D02*
X180364657Y-103314735D01*
G75*
G02*
X180364657Y-103173313I70711J70711D01*
G01*
X180506079Y-103031891D01*
G75*
G02*
X180647501Y-103031891I70711J-70711D01*
G01*
X181619773Y-104004163D01*
G75*
G02*
X181619773Y-104145585I-70711J-70711D01*
G01*
X181478351Y-104287007D01*
G75*
G02*
X181336929Y-104287007I-70711J70711D01*
G01*
G37*
G36*
G01*
X180983376Y-104640560D02*
X180011104Y-103668288D01*
G75*
G02*
X180011104Y-103526866I70711J70711D01*
G01*
X180152526Y-103385444D01*
G75*
G02*
X180293948Y-103385444I70711J-70711D01*
G01*
X181266220Y-104357716D01*
G75*
G02*
X181266220Y-104499138I-70711J-70711D01*
G01*
X181124798Y-104640560D01*
G75*
G02*
X180983376Y-104640560I-70711J70711D01*
G01*
G37*
G36*
G01*
X180629823Y-104994113D02*
X179657551Y-104021841D01*
G75*
G02*
X179657551Y-103880419I70711J70711D01*
G01*
X179798973Y-103738997D01*
G75*
G02*
X179940395Y-103738997I70711J-70711D01*
G01*
X180912667Y-104711269D01*
G75*
G02*
X180912667Y-104852691I-70711J-70711D01*
G01*
X180771245Y-104994113D01*
G75*
G02*
X180629823Y-104994113I-70711J70711D01*
G01*
G37*
G36*
G01*
X180276269Y-105347667D02*
X179303997Y-104375395D01*
G75*
G02*
X179303997Y-104233973I70711J70711D01*
G01*
X179445419Y-104092551D01*
G75*
G02*
X179586841Y-104092551I70711J-70711D01*
G01*
X180559113Y-105064823D01*
G75*
G02*
X180559113Y-105206245I-70711J-70711D01*
G01*
X180417691Y-105347667D01*
G75*
G02*
X180276269Y-105347667I-70711J70711D01*
G01*
G37*
G36*
G01*
X179922716Y-105701220D02*
X178950444Y-104728948D01*
G75*
G02*
X178950444Y-104587526I70711J70711D01*
G01*
X179091866Y-104446104D01*
G75*
G02*
X179233288Y-104446104I70711J-70711D01*
G01*
X180205560Y-105418376D01*
G75*
G02*
X180205560Y-105559798I-70711J-70711D01*
G01*
X180064138Y-105701220D01*
G75*
G02*
X179922716Y-105701220I-70711J70711D01*
G01*
G37*
G36*
G01*
X179569163Y-106054773D02*
X178596891Y-105082501D01*
G75*
G02*
X178596891Y-104941079I70711J70711D01*
G01*
X178738313Y-104799657D01*
G75*
G02*
X178879735Y-104799657I70711J-70711D01*
G01*
X179852007Y-105771929D01*
G75*
G02*
X179852007Y-105913351I-70711J-70711D01*
G01*
X179710585Y-106054773D01*
G75*
G02*
X179569163Y-106054773I-70711J70711D01*
G01*
G37*
G36*
G01*
X179215609Y-106408327D02*
X178243337Y-105436055D01*
G75*
G02*
X178243337Y-105294633I70711J70711D01*
G01*
X178384759Y-105153211D01*
G75*
G02*
X178526181Y-105153211I70711J-70711D01*
G01*
X179498453Y-106125483D01*
G75*
G02*
X179498453Y-106266905I-70711J-70711D01*
G01*
X179357031Y-106408327D01*
G75*
G02*
X179215609Y-106408327I-70711J70711D01*
G01*
G37*
G36*
G01*
X178862056Y-106761880D02*
X177889784Y-105789608D01*
G75*
G02*
X177889784Y-105648186I70711J70711D01*
G01*
X178031206Y-105506764D01*
G75*
G02*
X178172628Y-105506764I70711J-70711D01*
G01*
X179144900Y-106479036D01*
G75*
G02*
X179144900Y-106620458I-70711J-70711D01*
G01*
X179003478Y-106761880D01*
G75*
G02*
X178862056Y-106761880I-70711J70711D01*
G01*
G37*
G36*
G01*
X178508502Y-107115434D02*
X177536230Y-106143162D01*
G75*
G02*
X177536230Y-106001740I70711J70711D01*
G01*
X177677652Y-105860318D01*
G75*
G02*
X177819074Y-105860318I70711J-70711D01*
G01*
X178791346Y-106832590D01*
G75*
G02*
X178791346Y-106974012I-70711J-70711D01*
G01*
X178649924Y-107115434D01*
G75*
G02*
X178508502Y-107115434I-70711J70711D01*
G01*
G37*
G36*
G01*
X175680076Y-107115434D02*
X175538654Y-106974012D01*
G75*
G02*
X175538654Y-106832590I70711J70711D01*
G01*
X176510926Y-105860318D01*
G75*
G02*
X176652348Y-105860318I70711J-70711D01*
G01*
X176793770Y-106001740D01*
G75*
G02*
X176793770Y-106143162I-70711J-70711D01*
G01*
X175821498Y-107115434D01*
G75*
G02*
X175680076Y-107115434I-70711J70711D01*
G01*
G37*
G36*
G01*
X175326522Y-106761880D02*
X175185100Y-106620458D01*
G75*
G02*
X175185100Y-106479036I70711J70711D01*
G01*
X176157372Y-105506764D01*
G75*
G02*
X176298794Y-105506764I70711J-70711D01*
G01*
X176440216Y-105648186D01*
G75*
G02*
X176440216Y-105789608I-70711J-70711D01*
G01*
X175467944Y-106761880D01*
G75*
G02*
X175326522Y-106761880I-70711J70711D01*
G01*
G37*
G36*
G01*
X174972969Y-106408327D02*
X174831547Y-106266905D01*
G75*
G02*
X174831547Y-106125483I70711J70711D01*
G01*
X175803819Y-105153211D01*
G75*
G02*
X175945241Y-105153211I70711J-70711D01*
G01*
X176086663Y-105294633D01*
G75*
G02*
X176086663Y-105436055I-70711J-70711D01*
G01*
X175114391Y-106408327D01*
G75*
G02*
X174972969Y-106408327I-70711J70711D01*
G01*
G37*
G36*
G01*
X174619415Y-106054773D02*
X174477993Y-105913351D01*
G75*
G02*
X174477993Y-105771929I70711J70711D01*
G01*
X175450265Y-104799657D01*
G75*
G02*
X175591687Y-104799657I70711J-70711D01*
G01*
X175733109Y-104941079D01*
G75*
G02*
X175733109Y-105082501I-70711J-70711D01*
G01*
X174760837Y-106054773D01*
G75*
G02*
X174619415Y-106054773I-70711J70711D01*
G01*
G37*
G36*
G01*
X174265862Y-105701220D02*
X174124440Y-105559798D01*
G75*
G02*
X174124440Y-105418376I70711J70711D01*
G01*
X175096712Y-104446104D01*
G75*
G02*
X175238134Y-104446104I70711J-70711D01*
G01*
X175379556Y-104587526D01*
G75*
G02*
X175379556Y-104728948I-70711J-70711D01*
G01*
X174407284Y-105701220D01*
G75*
G02*
X174265862Y-105701220I-70711J70711D01*
G01*
G37*
G36*
G01*
X173912309Y-105347667D02*
X173770887Y-105206245D01*
G75*
G02*
X173770887Y-105064823I70711J70711D01*
G01*
X174743159Y-104092551D01*
G75*
G02*
X174884581Y-104092551I70711J-70711D01*
G01*
X175026003Y-104233973D01*
G75*
G02*
X175026003Y-104375395I-70711J-70711D01*
G01*
X174053731Y-105347667D01*
G75*
G02*
X173912309Y-105347667I-70711J70711D01*
G01*
G37*
G36*
G01*
X173558755Y-104994113D02*
X173417333Y-104852691D01*
G75*
G02*
X173417333Y-104711269I70711J70711D01*
G01*
X174389605Y-103738997D01*
G75*
G02*
X174531027Y-103738997I70711J-70711D01*
G01*
X174672449Y-103880419D01*
G75*
G02*
X174672449Y-104021841I-70711J-70711D01*
G01*
X173700177Y-104994113D01*
G75*
G02*
X173558755Y-104994113I-70711J70711D01*
G01*
G37*
G36*
G01*
X173205202Y-104640560D02*
X173063780Y-104499138D01*
G75*
G02*
X173063780Y-104357716I70711J70711D01*
G01*
X174036052Y-103385444D01*
G75*
G02*
X174177474Y-103385444I70711J-70711D01*
G01*
X174318896Y-103526866D01*
G75*
G02*
X174318896Y-103668288I-70711J-70711D01*
G01*
X173346624Y-104640560D01*
G75*
G02*
X173205202Y-104640560I-70711J70711D01*
G01*
G37*
G36*
G01*
X172851649Y-104287007D02*
X172710227Y-104145585D01*
G75*
G02*
X172710227Y-104004163I70711J70711D01*
G01*
X173682499Y-103031891D01*
G75*
G02*
X173823921Y-103031891I70711J-70711D01*
G01*
X173965343Y-103173313D01*
G75*
G02*
X173965343Y-103314735I-70711J-70711D01*
G01*
X172993071Y-104287007D01*
G75*
G02*
X172851649Y-104287007I-70711J70711D01*
G01*
G37*
G36*
G01*
X172498095Y-103933453D02*
X172356673Y-103792031D01*
G75*
G02*
X172356673Y-103650609I70711J70711D01*
G01*
X173328945Y-102678337D01*
G75*
G02*
X173470367Y-102678337I70711J-70711D01*
G01*
X173611789Y-102819759D01*
G75*
G02*
X173611789Y-102961181I-70711J-70711D01*
G01*
X172639517Y-103933453D01*
G75*
G02*
X172498095Y-103933453I-70711J70711D01*
G01*
G37*
G36*
G01*
X172144542Y-103579900D02*
X172003120Y-103438478D01*
G75*
G02*
X172003120Y-103297056I70711J70711D01*
G01*
X172975392Y-102324784D01*
G75*
G02*
X173116814Y-102324784I70711J-70711D01*
G01*
X173258236Y-102466206D01*
G75*
G02*
X173258236Y-102607628I-70711J-70711D01*
G01*
X172285964Y-103579900D01*
G75*
G02*
X172144542Y-103579900I-70711J70711D01*
G01*
G37*
G36*
G01*
X171790988Y-103226346D02*
X171649566Y-103084924D01*
G75*
G02*
X171649566Y-102943502I70711J70711D01*
G01*
X172621838Y-101971230D01*
G75*
G02*
X172763260Y-101971230I70711J-70711D01*
G01*
X172904682Y-102112652D01*
G75*
G02*
X172904682Y-102254074I-70711J-70711D01*
G01*
X171932410Y-103226346D01*
G75*
G02*
X171790988Y-103226346I-70711J70711D01*
G01*
G37*
G04 #@! TD*
G04 #@! TO.C,C3*
G36*
G01*
X185138750Y-104440000D02*
X185701250Y-104440000D01*
G75*
G02*
X185945000Y-104683750I0J-243750D01*
G01*
X185945000Y-105171250D01*
G75*
G02*
X185701250Y-105415000I-243750J0D01*
G01*
X185138750Y-105415000D01*
G75*
G02*
X184895000Y-105171250I0J243750D01*
G01*
X184895000Y-104683750D01*
G75*
G02*
X185138750Y-104440000I243750J0D01*
G01*
G37*
G36*
G01*
X185138750Y-102865000D02*
X185701250Y-102865000D01*
G75*
G02*
X185945000Y-103108750I0J-243750D01*
G01*
X185945000Y-103596250D01*
G75*
G02*
X185701250Y-103840000I-243750J0D01*
G01*
X185138750Y-103840000D01*
G75*
G02*
X184895000Y-103596250I0J243750D01*
G01*
X184895000Y-103108750D01*
G75*
G02*
X185138750Y-102865000I243750J0D01*
G01*
G37*
G04 #@! TD*
G04 #@! TO.C,C1*
G36*
G01*
X190781250Y-103840000D02*
X190218750Y-103840000D01*
G75*
G02*
X189975000Y-103596250I0J243750D01*
G01*
X189975000Y-103108750D01*
G75*
G02*
X190218750Y-102865000I243750J0D01*
G01*
X190781250Y-102865000D01*
G75*
G02*
X191025000Y-103108750I0J-243750D01*
G01*
X191025000Y-103596250D01*
G75*
G02*
X190781250Y-103840000I-243750J0D01*
G01*
G37*
G36*
G01*
X190781250Y-105415000D02*
X190218750Y-105415000D01*
G75*
G02*
X189975000Y-105171250I0J243750D01*
G01*
X189975000Y-104683750D01*
G75*
G02*
X190218750Y-104440000I243750J0D01*
G01*
X190781250Y-104440000D01*
G75*
G02*
X191025000Y-104683750I0J-243750D01*
G01*
X191025000Y-105171250D01*
G75*
G02*
X190781250Y-105415000I-243750J0D01*
G01*
G37*
G04 #@! TD*
G04 #@! TO.C,R5*
G36*
G01*
X156070000Y-96322500D02*
X156070000Y-96717500D01*
G75*
G02*
X155897500Y-96890000I-172500J0D01*
G01*
X155552500Y-96890000D01*
G75*
G02*
X155380000Y-96717500I0J172500D01*
G01*
X155380000Y-96322500D01*
G75*
G02*
X155552500Y-96150000I172500J0D01*
G01*
X155897500Y-96150000D01*
G75*
G02*
X156070000Y-96322500I0J-172500D01*
G01*
G37*
G36*
G01*
X157040000Y-96322500D02*
X157040000Y-96717500D01*
G75*
G02*
X156867500Y-96890000I-172500J0D01*
G01*
X156522500Y-96890000D01*
G75*
G02*
X156350000Y-96717500I0J172500D01*
G01*
X156350000Y-96322500D01*
G75*
G02*
X156522500Y-96150000I172500J0D01*
G01*
X156867500Y-96150000D01*
G75*
G02*
X157040000Y-96322500I0J-172500D01*
G01*
G37*
G04 #@! TD*
G04 #@! TO.C,R8*
G36*
G01*
X186550000Y-98227500D02*
X186550000Y-98622500D01*
G75*
G02*
X186377500Y-98795000I-172500J0D01*
G01*
X186032500Y-98795000D01*
G75*
G02*
X185860000Y-98622500I0J172500D01*
G01*
X185860000Y-98227500D01*
G75*
G02*
X186032500Y-98055000I172500J0D01*
G01*
X186377500Y-98055000D01*
G75*
G02*
X186550000Y-98227500I0J-172500D01*
G01*
G37*
G36*
G01*
X187520000Y-98227500D02*
X187520000Y-98622500D01*
G75*
G02*
X187347500Y-98795000I-172500J0D01*
G01*
X187002500Y-98795000D01*
G75*
G02*
X186830000Y-98622500I0J172500D01*
G01*
X186830000Y-98227500D01*
G75*
G02*
X187002500Y-98055000I172500J0D01*
G01*
X187347500Y-98055000D01*
G75*
G02*
X187520000Y-98227500I0J-172500D01*
G01*
G37*
G04 #@! TD*
G04 #@! TO.C,R4*
G36*
G01*
X193535000Y-98227500D02*
X193535000Y-98622500D01*
G75*
G02*
X193362500Y-98795000I-172500J0D01*
G01*
X193017500Y-98795000D01*
G75*
G02*
X192845000Y-98622500I0J172500D01*
G01*
X192845000Y-98227500D01*
G75*
G02*
X193017500Y-98055000I172500J0D01*
G01*
X193362500Y-98055000D01*
G75*
G02*
X193535000Y-98227500I0J-172500D01*
G01*
G37*
G36*
G01*
X194505000Y-98227500D02*
X194505000Y-98622500D01*
G75*
G02*
X194332500Y-98795000I-172500J0D01*
G01*
X193987500Y-98795000D01*
G75*
G02*
X193815000Y-98622500I0J172500D01*
G01*
X193815000Y-98227500D01*
G75*
G02*
X193987500Y-98055000I172500J0D01*
G01*
X194332500Y-98055000D01*
G75*
G02*
X194505000Y-98227500I0J-172500D01*
G01*
G37*
G04 #@! TD*
G04 #@! TO.C,R3*
G36*
G01*
X193535000Y-99497500D02*
X193535000Y-99892500D01*
G75*
G02*
X193362500Y-100065000I-172500J0D01*
G01*
X193017500Y-100065000D01*
G75*
G02*
X192845000Y-99892500I0J172500D01*
G01*
X192845000Y-99497500D01*
G75*
G02*
X193017500Y-99325000I172500J0D01*
G01*
X193362500Y-99325000D01*
G75*
G02*
X193535000Y-99497500I0J-172500D01*
G01*
G37*
G36*
G01*
X194505000Y-99497500D02*
X194505000Y-99892500D01*
G75*
G02*
X194332500Y-100065000I-172500J0D01*
G01*
X193987500Y-100065000D01*
G75*
G02*
X193815000Y-99892500I0J172500D01*
G01*
X193815000Y-99497500D01*
G75*
G02*
X193987500Y-99325000I172500J0D01*
G01*
X194332500Y-99325000D01*
G75*
G02*
X194505000Y-99497500I0J-172500D01*
G01*
G37*
G04 #@! TD*
G04 #@! TO.C,R2*
G36*
G01*
X193535000Y-100767500D02*
X193535000Y-101162500D01*
G75*
G02*
X193362500Y-101335000I-172500J0D01*
G01*
X193017500Y-101335000D01*
G75*
G02*
X192845000Y-101162500I0J172500D01*
G01*
X192845000Y-100767500D01*
G75*
G02*
X193017500Y-100595000I172500J0D01*
G01*
X193362500Y-100595000D01*
G75*
G02*
X193535000Y-100767500I0J-172500D01*
G01*
G37*
G36*
G01*
X194505000Y-100767500D02*
X194505000Y-101162500D01*
G75*
G02*
X194332500Y-101335000I-172500J0D01*
G01*
X193987500Y-101335000D01*
G75*
G02*
X193815000Y-101162500I0J172500D01*
G01*
X193815000Y-100767500D01*
G75*
G02*
X193987500Y-100595000I172500J0D01*
G01*
X194332500Y-100595000D01*
G75*
G02*
X194505000Y-100767500I0J-172500D01*
G01*
G37*
G04 #@! TD*
G04 #@! TO.C,U1*
G36*
G01*
X187560000Y-104640000D02*
X188360000Y-104640000D01*
G75*
G02*
X188410000Y-104690000I0J-50000D01*
G01*
X188410000Y-105590000D01*
G75*
G02*
X188360000Y-105640000I-50000J0D01*
G01*
X187560000Y-105640000D01*
G75*
G02*
X187510000Y-105590000I0J50000D01*
G01*
X187510000Y-104690000D01*
G75*
G02*
X187560000Y-104640000I50000J0D01*
G01*
G37*
G36*
G01*
X186610000Y-102640000D02*
X187410000Y-102640000D01*
G75*
G02*
X187460000Y-102690000I0J-50000D01*
G01*
X187460000Y-103590000D01*
G75*
G02*
X187410000Y-103640000I-50000J0D01*
G01*
X186610000Y-103640000D01*
G75*
G02*
X186560000Y-103590000I0J50000D01*
G01*
X186560000Y-102690000D01*
G75*
G02*
X186610000Y-102640000I50000J0D01*
G01*
G37*
G36*
G01*
X188510000Y-102640000D02*
X189310000Y-102640000D01*
G75*
G02*
X189360000Y-102690000I0J-50000D01*
G01*
X189360000Y-103590000D01*
G75*
G02*
X189310000Y-103640000I-50000J0D01*
G01*
X188510000Y-103640000D01*
G75*
G02*
X188460000Y-103590000I0J50000D01*
G01*
X188460000Y-102690000D01*
G75*
G02*
X188510000Y-102640000I50000J0D01*
G01*
G37*
G04 #@! TD*
G04 #@! TO.C,R7*
G36*
G01*
X193535000Y-102037500D02*
X193535000Y-102432500D01*
G75*
G02*
X193362500Y-102605000I-172500J0D01*
G01*
X193017500Y-102605000D01*
G75*
G02*
X192845000Y-102432500I0J172500D01*
G01*
X192845000Y-102037500D01*
G75*
G02*
X193017500Y-101865000I172500J0D01*
G01*
X193362500Y-101865000D01*
G75*
G02*
X193535000Y-102037500I0J-172500D01*
G01*
G37*
G36*
G01*
X194505000Y-102037500D02*
X194505000Y-102432500D01*
G75*
G02*
X194332500Y-102605000I-172500J0D01*
G01*
X193987500Y-102605000D01*
G75*
G02*
X193815000Y-102432500I0J172500D01*
G01*
X193815000Y-102037500D01*
G75*
G02*
X193987500Y-101865000I172500J0D01*
G01*
X194332500Y-101865000D01*
G75*
G02*
X194505000Y-102037500I0J-172500D01*
G01*
G37*
G04 #@! TD*
G04 #@! TO.C,C11*
G36*
G01*
X166764000Y-99257500D02*
X166764000Y-98862500D01*
G75*
G02*
X166936500Y-98690000I172500J0D01*
G01*
X167281500Y-98690000D01*
G75*
G02*
X167454000Y-98862500I0J-172500D01*
G01*
X167454000Y-99257500D01*
G75*
G02*
X167281500Y-99430000I-172500J0D01*
G01*
X166936500Y-99430000D01*
G75*
G02*
X166764000Y-99257500I0J172500D01*
G01*
G37*
G36*
G01*
X165794000Y-99257500D02*
X165794000Y-98862500D01*
G75*
G02*
X165966500Y-98690000I172500J0D01*
G01*
X166311500Y-98690000D01*
G75*
G02*
X166484000Y-98862500I0J-172500D01*
G01*
X166484000Y-99257500D01*
G75*
G02*
X166311500Y-99430000I-172500J0D01*
G01*
X165966500Y-99430000D01*
G75*
G02*
X165794000Y-99257500I0J172500D01*
G01*
G37*
G04 #@! TD*
G04 #@! TO.C,C10*
G36*
G01*
X168516000Y-98862500D02*
X168516000Y-99257500D01*
G75*
G02*
X168343500Y-99430000I-172500J0D01*
G01*
X167998500Y-99430000D01*
G75*
G02*
X167826000Y-99257500I0J172500D01*
G01*
X167826000Y-98862500D01*
G75*
G02*
X167998500Y-98690000I172500J0D01*
G01*
X168343500Y-98690000D01*
G75*
G02*
X168516000Y-98862500I0J-172500D01*
G01*
G37*
G36*
G01*
X169486000Y-98862500D02*
X169486000Y-99257500D01*
G75*
G02*
X169313500Y-99430000I-172500J0D01*
G01*
X168968500Y-99430000D01*
G75*
G02*
X168796000Y-99257500I0J172500D01*
G01*
X168796000Y-98862500D01*
G75*
G02*
X168968500Y-98690000I172500J0D01*
G01*
X169313500Y-98690000D01*
G75*
G02*
X169486000Y-98862500I0J-172500D01*
G01*
G37*
G04 #@! TD*
G04 #@! TO.C,Y2*
G36*
G01*
X166940000Y-100192000D02*
X166940000Y-101992000D01*
G75*
G02*
X166890000Y-102042000I-50000J0D01*
G01*
X165890000Y-102042000D01*
G75*
G02*
X165840000Y-101992000I0J50000D01*
G01*
X165840000Y-100192000D01*
G75*
G02*
X165890000Y-100142000I50000J0D01*
G01*
X166890000Y-100142000D01*
G75*
G02*
X166940000Y-100192000I0J-50000D01*
G01*
G37*
G36*
G01*
X169440000Y-100192000D02*
X169440000Y-101992000D01*
G75*
G02*
X169390000Y-102042000I-50000J0D01*
G01*
X168390000Y-102042000D01*
G75*
G02*
X168340000Y-101992000I0J50000D01*
G01*
X168340000Y-100192000D01*
G75*
G02*
X168390000Y-100142000I50000J0D01*
G01*
X169390000Y-100142000D01*
G75*
G02*
X169440000Y-100192000I0J-50000D01*
G01*
G37*
G04 #@! TD*
G04 #@! TO.C,C9*
G36*
G01*
X165297500Y-105905000D02*
X164902500Y-105905000D01*
G75*
G02*
X164730000Y-105732500I0J172500D01*
G01*
X164730000Y-105387500D01*
G75*
G02*
X164902500Y-105215000I172500J0D01*
G01*
X165297500Y-105215000D01*
G75*
G02*
X165470000Y-105387500I0J-172500D01*
G01*
X165470000Y-105732500D01*
G75*
G02*
X165297500Y-105905000I-172500J0D01*
G01*
G37*
G36*
G01*
X165297500Y-106875000D02*
X164902500Y-106875000D01*
G75*
G02*
X164730000Y-106702500I0J172500D01*
G01*
X164730000Y-106357500D01*
G75*
G02*
X164902500Y-106185000I172500J0D01*
G01*
X165297500Y-106185000D01*
G75*
G02*
X165470000Y-106357500I0J-172500D01*
G01*
X165470000Y-106702500D01*
G75*
G02*
X165297500Y-106875000I-172500J0D01*
G01*
G37*
G04 #@! TD*
G04 #@! TO.C,C8*
G36*
G01*
X164902500Y-103645000D02*
X165297500Y-103645000D01*
G75*
G02*
X165470000Y-103817500I0J-172500D01*
G01*
X165470000Y-104162500D01*
G75*
G02*
X165297500Y-104335000I-172500J0D01*
G01*
X164902500Y-104335000D01*
G75*
G02*
X164730000Y-104162500I0J172500D01*
G01*
X164730000Y-103817500D01*
G75*
G02*
X164902500Y-103645000I172500J0D01*
G01*
G37*
G36*
G01*
X164902500Y-102675000D02*
X165297500Y-102675000D01*
G75*
G02*
X165470000Y-102847500I0J-172500D01*
G01*
X165470000Y-103192500D01*
G75*
G02*
X165297500Y-103365000I-172500J0D01*
G01*
X164902500Y-103365000D01*
G75*
G02*
X164730000Y-103192500I0J172500D01*
G01*
X164730000Y-102847500D01*
G75*
G02*
X164902500Y-102675000I172500J0D01*
G01*
G37*
G04 #@! TD*
G04 #@! TO.C,R6*
G36*
G01*
X193535000Y-96957500D02*
X193535000Y-97352500D01*
G75*
G02*
X193362500Y-97525000I-172500J0D01*
G01*
X193017500Y-97525000D01*
G75*
G02*
X192845000Y-97352500I0J172500D01*
G01*
X192845000Y-96957500D01*
G75*
G02*
X193017500Y-96785000I172500J0D01*
G01*
X193362500Y-96785000D01*
G75*
G02*
X193535000Y-96957500I0J-172500D01*
G01*
G37*
G36*
G01*
X194505000Y-96957500D02*
X194505000Y-97352500D01*
G75*
G02*
X194332500Y-97525000I-172500J0D01*
G01*
X193987500Y-97525000D01*
G75*
G02*
X193815000Y-97352500I0J172500D01*
G01*
X193815000Y-96957500D01*
G75*
G02*
X193987500Y-96785000I172500J0D01*
G01*
X194332500Y-96785000D01*
G75*
G02*
X194505000Y-96957500I0J-172500D01*
G01*
G37*
G04 #@! TD*
G04 #@! TO.C,R9*
G36*
G01*
X186550000Y-100132500D02*
X186550000Y-100527500D01*
G75*
G02*
X186377500Y-100700000I-172500J0D01*
G01*
X186032500Y-100700000D01*
G75*
G02*
X185860000Y-100527500I0J172500D01*
G01*
X185860000Y-100132500D01*
G75*
G02*
X186032500Y-99960000I172500J0D01*
G01*
X186377500Y-99960000D01*
G75*
G02*
X186550000Y-100132500I0J-172500D01*
G01*
G37*
G36*
G01*
X187520000Y-100132500D02*
X187520000Y-100527500D01*
G75*
G02*
X187347500Y-100700000I-172500J0D01*
G01*
X187002500Y-100700000D01*
G75*
G02*
X186830000Y-100527500I0J172500D01*
G01*
X186830000Y-100132500D01*
G75*
G02*
X187002500Y-99960000I172500J0D01*
G01*
X187347500Y-99960000D01*
G75*
G02*
X187520000Y-100132500I0J-172500D01*
G01*
G37*
G04 #@! TD*
G04 #@! TO.C,R1*
G36*
G01*
X153810000Y-106877500D02*
X153810000Y-106482500D01*
G75*
G02*
X153982500Y-106310000I172500J0D01*
G01*
X154327500Y-106310000D01*
G75*
G02*
X154500000Y-106482500I0J-172500D01*
G01*
X154500000Y-106877500D01*
G75*
G02*
X154327500Y-107050000I-172500J0D01*
G01*
X153982500Y-107050000D01*
G75*
G02*
X153810000Y-106877500I0J172500D01*
G01*
G37*
G36*
G01*
X152840000Y-106877500D02*
X152840000Y-106482500D01*
G75*
G02*
X153012500Y-106310000I172500J0D01*
G01*
X153357500Y-106310000D01*
G75*
G02*
X153530000Y-106482500I0J-172500D01*
G01*
X153530000Y-106877500D01*
G75*
G02*
X153357500Y-107050000I-172500J0D01*
G01*
X153012500Y-107050000D01*
G75*
G02*
X152840000Y-106877500I0J172500D01*
G01*
G37*
G04 #@! TD*
G04 #@! TO.C,D3*
G36*
G01*
X189530000Y-100611250D02*
X189530000Y-100048750D01*
G75*
G02*
X189773750Y-99805000I243750J0D01*
G01*
X190261250Y-99805000D01*
G75*
G02*
X190505000Y-100048750I0J-243750D01*
G01*
X190505000Y-100611250D01*
G75*
G02*
X190261250Y-100855000I-243750J0D01*
G01*
X189773750Y-100855000D01*
G75*
G02*
X189530000Y-100611250I0J243750D01*
G01*
G37*
G36*
G01*
X187955000Y-100611250D02*
X187955000Y-100048750D01*
G75*
G02*
X188198750Y-99805000I243750J0D01*
G01*
X188686250Y-99805000D01*
G75*
G02*
X188930000Y-100048750I0J-243750D01*
G01*
X188930000Y-100611250D01*
G75*
G02*
X188686250Y-100855000I-243750J0D01*
G01*
X188198750Y-100855000D01*
G75*
G02*
X187955000Y-100611250I0J243750D01*
G01*
G37*
G04 #@! TD*
G04 #@! TO.C,D2*
G36*
G01*
X189530000Y-98706250D02*
X189530000Y-98143750D01*
G75*
G02*
X189773750Y-97900000I243750J0D01*
G01*
X190261250Y-97900000D01*
G75*
G02*
X190505000Y-98143750I0J-243750D01*
G01*
X190505000Y-98706250D01*
G75*
G02*
X190261250Y-98950000I-243750J0D01*
G01*
X189773750Y-98950000D01*
G75*
G02*
X189530000Y-98706250I0J243750D01*
G01*
G37*
G36*
G01*
X187955000Y-98706250D02*
X187955000Y-98143750D01*
G75*
G02*
X188198750Y-97900000I243750J0D01*
G01*
X188686250Y-97900000D01*
G75*
G02*
X188930000Y-98143750I0J-243750D01*
G01*
X188930000Y-98706250D01*
G75*
G02*
X188686250Y-98950000I-243750J0D01*
G01*
X188198750Y-98950000D01*
G75*
G02*
X187955000Y-98706250I0J243750D01*
G01*
G37*
G04 #@! TD*
G04 #@! TO.C,C2*
G36*
G01*
X156350000Y-106877500D02*
X156350000Y-106482500D01*
G75*
G02*
X156522500Y-106310000I172500J0D01*
G01*
X156867500Y-106310000D01*
G75*
G02*
X157040000Y-106482500I0J-172500D01*
G01*
X157040000Y-106877500D01*
G75*
G02*
X156867500Y-107050000I-172500J0D01*
G01*
X156522500Y-107050000D01*
G75*
G02*
X156350000Y-106877500I0J172500D01*
G01*
G37*
G36*
G01*
X155380000Y-106877500D02*
X155380000Y-106482500D01*
G75*
G02*
X155552500Y-106310000I172500J0D01*
G01*
X155897500Y-106310000D01*
G75*
G02*
X156070000Y-106482500I0J-172500D01*
G01*
X156070000Y-106877500D01*
G75*
G02*
X155897500Y-107050000I-172500J0D01*
G01*
X155552500Y-107050000D01*
G75*
G02*
X155380000Y-106877500I0J172500D01*
G01*
G37*
G04 #@! TD*
G04 #@! TO.C,J4*
X201930000Y-93980000D03*
X199390000Y-93980000D03*
X196850000Y-93980000D03*
X194310000Y-93980000D03*
X191770000Y-93980000D03*
X189230000Y-93980000D03*
X186690000Y-93980000D03*
X184150000Y-93980000D03*
X181610000Y-93980000D03*
X179070000Y-93980000D03*
X176530000Y-93980000D03*
X173990000Y-93980000D03*
X171450000Y-93980000D03*
X168910000Y-93980000D03*
X166370000Y-93980000D03*
X163830000Y-93980000D03*
X161290000Y-93980000D03*
X158750000Y-93980000D03*
X156210000Y-93980000D03*
G36*
G01*
X152820000Y-93080000D02*
X154520000Y-93080000D01*
G75*
G02*
X154570000Y-93130000I0J-50000D01*
G01*
X154570000Y-94830000D01*
G75*
G02*
X154520000Y-94880000I-50000J0D01*
G01*
X152820000Y-94880000D01*
G75*
G02*
X152770000Y-94830000I0J50000D01*
G01*
X152770000Y-93130000D01*
G75*
G02*
X152820000Y-93080000I50000J0D01*
G01*
G37*
G04 #@! TD*
G04 #@! TO.C,D1*
G36*
G01*
X193640000Y-104260000D02*
X192440000Y-104260000D01*
G75*
G02*
X192390000Y-104210000I0J50000D01*
G01*
X192390000Y-103310000D01*
G75*
G02*
X192440000Y-103260000I50000J0D01*
G01*
X193640000Y-103260000D01*
G75*
G02*
X193690000Y-103310000I0J-50000D01*
G01*
X193690000Y-104210000D01*
G75*
G02*
X193640000Y-104260000I-50000J0D01*
G01*
G37*
G36*
G01*
X193640000Y-107560000D02*
X192440000Y-107560000D01*
G75*
G02*
X192390000Y-107510000I0J50000D01*
G01*
X192390000Y-106610000D01*
G75*
G02*
X192440000Y-106560000I50000J0D01*
G01*
X193640000Y-106560000D01*
G75*
G02*
X193690000Y-106610000I0J-50000D01*
G01*
X193690000Y-107510000D01*
G75*
G02*
X193640000Y-107560000I-50000J0D01*
G01*
G37*
G04 #@! TD*
G04 #@! TO.C,C7*
G36*
G01*
X171012500Y-101460000D02*
X170617500Y-101460000D01*
G75*
G02*
X170445000Y-101287500I0J172500D01*
G01*
X170445000Y-100942500D01*
G75*
G02*
X170617500Y-100770000I172500J0D01*
G01*
X171012500Y-100770000D01*
G75*
G02*
X171185000Y-100942500I0J-172500D01*
G01*
X171185000Y-101287500D01*
G75*
G02*
X171012500Y-101460000I-172500J0D01*
G01*
G37*
G36*
G01*
X171012500Y-102430000D02*
X170617500Y-102430000D01*
G75*
G02*
X170445000Y-102257500I0J172500D01*
G01*
X170445000Y-101912500D01*
G75*
G02*
X170617500Y-101740000I172500J0D01*
G01*
X171012500Y-101740000D01*
G75*
G02*
X171185000Y-101912500I0J-172500D01*
G01*
X171185000Y-102257500D01*
G75*
G02*
X171012500Y-102430000I-172500J0D01*
G01*
G37*
G04 #@! TD*
G04 #@! TO.C,C6*
G36*
G01*
X172580000Y-105847500D02*
X172580000Y-106242500D01*
G75*
G02*
X172407500Y-106415000I-172500J0D01*
G01*
X172062500Y-106415000D01*
G75*
G02*
X171890000Y-106242500I0J172500D01*
G01*
X171890000Y-105847500D01*
G75*
G02*
X172062500Y-105675000I172500J0D01*
G01*
X172407500Y-105675000D01*
G75*
G02*
X172580000Y-105847500I0J-172500D01*
G01*
G37*
G36*
G01*
X173550000Y-105847500D02*
X173550000Y-106242500D01*
G75*
G02*
X173377500Y-106415000I-172500J0D01*
G01*
X173032500Y-106415000D01*
G75*
G02*
X172860000Y-106242500I0J172500D01*
G01*
X172860000Y-105847500D01*
G75*
G02*
X173032500Y-105675000I172500J0D01*
G01*
X173377500Y-105675000D01*
G75*
G02*
X173550000Y-105847500I0J-172500D01*
G01*
G37*
G04 #@! TD*
G04 #@! TO.C,C5*
G36*
G01*
X180480000Y-96082500D02*
X180480000Y-95687500D01*
G75*
G02*
X180652500Y-95515000I172500J0D01*
G01*
X180997500Y-95515000D01*
G75*
G02*
X181170000Y-95687500I0J-172500D01*
G01*
X181170000Y-96082500D01*
G75*
G02*
X180997500Y-96255000I-172500J0D01*
G01*
X180652500Y-96255000D01*
G75*
G02*
X180480000Y-96082500I0J172500D01*
G01*
G37*
G36*
G01*
X179510000Y-96082500D02*
X179510000Y-95687500D01*
G75*
G02*
X179682500Y-95515000I172500J0D01*
G01*
X180027500Y-95515000D01*
G75*
G02*
X180200000Y-95687500I0J-172500D01*
G01*
X180200000Y-96082500D01*
G75*
G02*
X180027500Y-96255000I-172500J0D01*
G01*
X179682500Y-96255000D01*
G75*
G02*
X179510000Y-96082500I0J172500D01*
G01*
G37*
G04 #@! TD*
G04 #@! TO.C,C4*
G36*
G01*
X183712500Y-101460000D02*
X183317500Y-101460000D01*
G75*
G02*
X183145000Y-101287500I0J172500D01*
G01*
X183145000Y-100942500D01*
G75*
G02*
X183317500Y-100770000I172500J0D01*
G01*
X183712500Y-100770000D01*
G75*
G02*
X183885000Y-100942500I0J-172500D01*
G01*
X183885000Y-101287500D01*
G75*
G02*
X183712500Y-101460000I-172500J0D01*
G01*
G37*
G36*
G01*
X183712500Y-102430000D02*
X183317500Y-102430000D01*
G75*
G02*
X183145000Y-102257500I0J172500D01*
G01*
X183145000Y-101912500D01*
G75*
G02*
X183317500Y-101740000I172500J0D01*
G01*
X183712500Y-101740000D01*
G75*
G02*
X183885000Y-101912500I0J-172500D01*
G01*
X183885000Y-102257500D01*
G75*
G02*
X183712500Y-102430000I-172500J0D01*
G01*
G37*
G04 #@! TD*
M02*
