M48
; DRILL file {KiCad 5.1.9+dfsg1-1} date Sat Apr 10 19:21:53 2021
; FORMAT={-:-/ absolute / inch / decimal}
; #@! TF.CreationDate,2021-04-10T19:21:53+08:00
; #@! TF.GenerationSoftware,Kicad,Pcbnew,5.1.9+dfsg1-1
; #@! TF.FileFunction,Plated,1,2,PTH
FMAT,2
INCH
T1C0.0138
T2C0.0236
T3C0.0394
%
G90
G05
T1
X6.225Y-3.8
X6.25Y-4.0
X6.25Y-4.2
X6.35Y-3.9
X6.4Y-4.2
X6.6Y-3.975
X6.75Y-4.175
X6.775Y-3.8
X6.775Y-4.0
X6.85Y-4.025
X6.925Y-3.9
X6.925Y-4.05
X6.975Y-4.0
X6.975Y-4.125
X7.025Y-3.9
X7.025Y-4.05
X7.2Y-4.1
X7.3Y-3.95
X7.35Y-4.0
X7.35Y-4.1
X7.35Y-4.15
X7.4Y-4.1
X7.45Y-4.1
X7.45Y-4.15
X7.575Y-3.875
X7.575Y-3.925
X7.575Y-3.975
X7.575Y-4.125
X7.6Y-4.15
X7.625Y-4.125
X7.775Y-3.95
X7.775Y-4.05
X7.85Y-3.95
X7.85Y-4.05
X7.925Y-3.95
X7.925Y-4.05
T3
X6.025Y-3.9
X6.025Y-4.0
X6.025Y-4.1
X6.05Y-3.7
X6.05Y-4.3
X6.125Y-3.9
X6.125Y-4.0
X6.125Y-4.1
X6.15Y-3.7
X6.15Y-4.3
X6.25Y-3.7
X6.25Y-4.3
X6.35Y-3.7
X6.35Y-4.3
X6.45Y-3.7
X6.45Y-4.3
X6.55Y-3.7
X6.55Y-4.3
X6.65Y-3.7
X6.65Y-4.3
X6.75Y-3.7
X6.75Y-4.3
X6.85Y-3.7
X6.85Y-4.3
X6.95Y-3.7
X6.95Y-4.3
X7.05Y-3.7
X7.05Y-4.3
X7.15Y-3.7
X7.15Y-4.3
X7.25Y-3.7
X7.25Y-4.3
X7.35Y-3.7
X7.35Y-4.3
X7.45Y-3.7
X7.45Y-4.3
X7.55Y-3.7
X7.55Y-4.3
X7.65Y-3.7
X7.65Y-4.3
X7.75Y-3.7
X7.75Y-4.3
X7.85Y-3.7
X7.85Y-4.3
X7.95Y-3.7
X7.95Y-4.3
T2
G00X7.7301Y-3.8299
M15
G01X7.7734Y-3.8299
M16
G05
G00X7.7301Y-4.1701
M15
G01X7.7734Y-4.1701
M16
G05
G00X7.9045Y-3.8299
M15
G01X7.9281Y-3.8299
M16
G05
G00X7.9045Y-4.1701
M15
G01X7.9281Y-4.1701
M16
G05
T0
M30
